<?xml version="1.0" standalone="no"?>
<!DOCTYPE svg PUBLIC "-//W3C//DTD SVG 1.1//EN" "http://www.w3.org/Graphics/SVG/1.1/DTD/svg11.dtd" >
<svg>
<metadata>
Created by FontForge 20110222 at Thu Feb 21 06:49:23 2013
 By www-data
Copyright 1992, 1994, 1997, 2000, 2004 Adobe Systems Incorporated. All rights reserved. Protected by U.S. Patents D454,582. Myriad is either a registered trademark or a trademark of Adobe Systems Incorporated in the United States and/or other countries.
</metadata>
<defs>
<font id="MyriadPro-SemiboldCond" horiz-adv-x="300" >
  <font-face 
    font-family="Myriad Pro"
    font-weight="600"
    font-stretch="condensed"
    units-per-em="1000"
    panose-1="2 11 6 6 3 4 3 2 2 4"
    ascent="750"
    descent="-250"
    x-height="487"
    cap-height="674"
    bbox="-145 -250 970 948"
    underline-thickness="50"
    underline-position="-50"
    stemh="77"
    stemv="107"
    unicode-range="U+0020-FB04"
  />
<missing-glyph horiz-adv-x="500" 
d="M0 0v700h500v-700h-500zM250 395l170 255h-340zM280 350l170 -255v510zM80 50h340l-170 255zM50 605v-510l170 255z" />
    <glyph glyph-name="f_f" unicode="ff" horiz-adv-x="495" 
d="M411 0h-107v410h-128v-410h-107v410h-64v77h64v17c0 55 14 106 46 140c25 27 62 43 114 43c20 0 42 -5 54 -9l-18 -82c-9 3 -21 6 -33 6c-42 0 -56 -37 -56 -97v-18h128v24c0 54 10 106 47 145c29 31 69 44 108 44c31 0 54 -5 71 -11l-14 -84c-10 4 -24 7 -41 7
c-49 0 -64 -47 -64 -99v-26h86v-77h-86v-410z" />
    <glyph glyph-name="f_f_i" unicode="ffi" horiz-adv-x="700" 
d="M617 678l-17 -83c-20 8 -49 17 -87 17c-75 0 -94 -46 -94 -105v-20h232v-487h-107v410h-125v-410h-107v410h-136v-410h-107v410h-64v77h64v12c0 65 20 118 63 153c27 22 64 35 105 35c30 0 55 -8 70 -14l-28 -80c-10 5 -22 9 -38 9c-20 0 -35 -8 -45 -21
c-16 -19 -20 -49 -20 -79v-15h136v28c0 74 41 185 199 185c45 0 84 -10 106 -22z" />
    <glyph glyph-name="f_f_j" unicode="ffj" horiz-adv-x="699" 
d="M617 678l-17 -83c-20 8 -49 17 -87 17c-75 0 -94 -46 -94 -105v-20h232v-454c0 -105 -19 -155 -58 -189c-33 -29 -87 -43 -126 -44l-10 85c22 4 48 10 64 31c18 23 23 59 23 141v353h-125v-410h-107v410h-136v-410h-107v410h-64v77h64v12c0 65 20 118 63 153
c27 22 64 35 105 35c30 0 55 -8 70 -14l-28 -80c-10 5 -22 9 -38 9c-20 0 -35 -8 -45 -21c-16 -19 -20 -49 -20 -79v-15h136v28c0 74 41 185 199 185c45 0 84 -10 106 -22z" />
    <glyph glyph-name="f_f_l" unicode="ffl" horiz-adv-x="700" 
d="M307 673l-28 -80c-10 5 -22 9 -38 9c-20 0 -35 -8 -45 -21c-16 -19 -20 -49 -20 -79v-15h136v22c0 42 16 105 58 144c31 28 73 47 143 47c52 0 106 -12 138 -26v-674h-107v607c-12 5 -28 8 -47 8c-58 0 -78 -48 -78 -101v-27h77v-77h-77v-410h-107v410h-136v-410h-107
v410h-64v77h64v12c0 65 20 118 63 153c27 22 64 35 105 35c30 0 55 -8 70 -14z" />
    <glyph glyph-name="f_i" unicode="fi" horiz-adv-x="457" 
d="M176 0h-107v410h-64v77h64v28c0 74 41 185 199 185c45 0 84 -10 106 -22l-17 -83c-20 8 -49 17 -87 17c-75 0 -94 -46 -94 -105v-20h232v-487h-107v410h-125v-410z" />
    <glyph glyph-name="f_j" unicode="fj" horiz-adv-x="456" 
d="M176 0h-107v410h-64v77h64v28c0 74 41 185 199 185c45 0 84 -10 106 -22l-17 -83c-20 8 -49 17 -87 17c-75 0 -94 -46 -94 -105v-20h232v-454c0 -105 -19 -155 -58 -189c-33 -29 -87 -43 -126 -44l-10 85c22 4 48 10 64 31c18 23 23 59 23 141v353h-125v-410z" />
    <glyph glyph-name="f_l" unicode="fl" horiz-adv-x="457" 
d="M176 0h-107v410h-64v77h64v22c0 42 16 105 58 144c31 28 73 47 143 47c52 0 106 -12 138 -26v-674h-107v607c-12 5 -28 8 -47 8c-58 0 -78 -48 -78 -101v-27h77v-77h-77v-410z" />
    <glyph glyph-name=".notdef" horiz-adv-x="500" 
d="M0 0v700h500v-700h-500zM250 395l170 255h-340zM280 350l170 -255v510zM80 50h340l-170 255zM50 605v-510l170 255z" />
    <glyph glyph-name="space" unicode=" " horiz-adv-x="158" 
 />
    <glyph glyph-name="exclam" unicode="!" horiz-adv-x="222" 
d="M156 205h-90l-13 469h116zM110 -8c-36 0 -63 29 -63 68c0 42 29 70 64 70c37 0 63 -28 63 -70c0 -39 -24 -68 -64 -68z" />
    <glyph glyph-name="quotedbl" unicode="&#x22;" horiz-adv-x="321" 
d="M41 684h89l-17 -248h-55zM192 684h89l-17 -248h-55z" />
    <glyph glyph-name="numbersign" unicode="#" horiz-adv-x="408" 
d="M159 262h74l16 132h-74zM125 0h-64l26 197h-69v65h77l17 132h-73v64h81l24 192h64l-25 -192h75l24 192h64l-25 -192h68v-64h-76l-16 -132h72v-64h-81l-25 -198h-64l25 198h-74z" />
    <glyph glyph-name="dollar" unicode="$" horiz-adv-x="408" 
d="M233 -84h-71v101c-44 1 -84 15 -108 29l19 84c28 -17 63 -30 102 -30c53 0 82 36 82 82c0 48 -26 81 -81 115c-70 43 -120 89 -120 169c0 78 47 138 116 159v100h72v-91c40 -1 76 -13 97 -26l-21 -81c-20 11 -47 24 -86 24c-50 0 -78 -35 -78 -73c0 -45 20 -66 87 -106
c82 -49 114 -106 114 -179c0 -92 -52 -151 -124 -169v-108z" />
    <glyph glyph-name="percent" unicode="%" horiz-adv-x="652" 
d="M153 658c86 0 124 -94 124 -197c0 -137 -62 -199 -126 -199c-82 0 -127 88 -127 196c0 114 50 200 129 200zM150 598c-38 0 -51 -63 -51 -138c-1 -76 12 -138 52 -138s51 63 51 137c0 71 -10 139 -52 139zM181 -11h-59l348 672h59zM504 390c86 0 124 -94 124 -197
c0 -137 -62 -199 -126 -199c-82 0 -127 88 -127 196c0 114 50 200 129 200zM501 330c-38 0 -51 -63 -51 -138c-1 -76 14 -138 52 -138c40 0 51 63 51 137c0 71 -10 139 -52 139z" />
    <glyph glyph-name="ampersand" unicode="&#x26;" horiz-adv-x="512" 
d="M502 0h-117c-11 16 -21 28 -38 53c-37 -39 -90 -61 -145 -61c-115 0 -178 88 -178 188c0 77 36 141 104 188v3c-32 46 -49 97 -49 148c0 87 58 163 154 163c75 0 135 -54 135 -145c0 -64 -24 -119 -116 -182v-5c28 -42 75 -114 113 -164c26 52 32 125 34 174h92
c-8 -87 -35 -180 -80 -240c18 -25 48 -64 91 -120zM221 73c34 0 62 16 82 44c-45 59 -93 129 -132 188c-24 -24 -48 -62 -48 -113c0 -63 35 -119 98 -119zM227 608c-35 0 -53 -37 -53 -84c0 -42 11 -74 35 -111c47 36 68 74 68 119c0 35 -11 76 -50 76z" />
    <glyph glyph-name="quoteright" unicode="&#x2019;" horiz-adv-x="184" 
d="M74 674l97 10c-25 -86 -67 -182 -102 -242l-58 -8c25 72 52 165 63 240z" />
    <glyph glyph-name="parenleft" unicode="(" horiz-adv-x="256" 
d="M156 692h79c-57 -90 -105 -223 -105 -407c0 -180 48 -313 105 -405h-79c-54 75 -112 211 -112 405c3 196 58 331 112 407z" />
    <glyph glyph-name="parenright" unicode=")" horiz-adv-x="256" 
d="M100 -120h-79c57 91 105 226 105 408c0 180 -48 313 -105 404h79c54 -74 112 -207 112 -405c-3 -197 -58 -330 -112 -407z" />
    <glyph glyph-name="asterisk" unicode="*" horiz-adv-x="379" 
d="M245 682l69 -39l-93 -118l1 -3l138 22v-77l-138 22l-2 -3l95 -114l-72 -40l-55 139l-2 -3l-59 -138l-64 41l93 119l-2 1l-135 -24v77l134 -21l2 3l-91 115l68 39l56 -135h3z" />
    <glyph glyph-name="plus" unicode="+" horiz-adv-x="596" 
d="M262 532h72v-230h222v-70h-222v-232h-72v232h-222v70h222v230z" />
    <glyph glyph-name="comma" unicode="," horiz-adv-x="216" 
d="M84 -117l-70 -8c25 72 52 177 63 251l112 10c-27 -86 -69 -193 -105 -253z" />
    <glyph glyph-name="hyphen" unicode="-" horiz-adv-x="268" 
d="M30 308h208v-78h-208v78z" />
    <glyph glyph-name="period" unicode="." horiz-adv-x="216" 
d="M113 -8c-35 0 -64 29 -64 74c0 43 30 74 65 74c37 0 65 -28 65 -74c0 -45 -26 -74 -66 -74z" />
    <glyph glyph-name="slash" unicode="/" horiz-adv-x="280" 
d="M64 -40h-73l226 722h73z" />
    <glyph glyph-name="zero" unicode="0" horiz-adv-x="408" 
d="M209 658c130 0 174 -152 174 -331c0 -235 -80 -335 -181 -335c-123 0 -177 143 -177 331c0 201 62 335 184 335zM206 567c-50 0 -75 -89 -74 -242c-1 -155 21 -242 75 -242c49 0 69 90 69 242c0 145 -18 242 -70 242z" />
    <glyph glyph-name="one" unicode="1" horiz-adv-x="408" 
d="M183 0v547h-2l-109 -59l-19 83l143 79h92v-650h-105z" />
    <glyph glyph-name="two" unicode="2" horiz-adv-x="408" 
d="M363 0h-335v71l60 79c81 107 160 211 160 317c0 61 -30 101 -87 101c-44 0 -76 -21 -96 -34l-21 82c26 19 77 42 136 42c127 0 173 -88 173 -184c0 -122 -78 -229 -155 -326l-41 -52v-2h206v-94z" />
    <glyph glyph-name="three" unicode="3" horiz-adv-x="408" 
d="M26 21l18 85c23 -14 59 -26 95 -26c66 0 105 43 105 110c0 78 -55 117 -126 117h-18v79h13c48 0 113 27 113 98c0 55 -32 86 -80 86c-30 0 -59 -13 -81 -28l-18 80c26 19 75 36 126 36c105 0 160 -70 160 -153c0 -66 -35 -121 -95 -149v-2c61 -19 113 -74 113 -168
c0 -102 -73 -194 -204 -194c-48 0 -94 13 -121 29z" />
    <glyph glyph-name="four" unicode="4" horiz-adv-x="408" 
d="M329 0h-95v166h-220v73l212 411h103v-398h67v-86h-67v-166zM108 252h126v156c0 39 3 78 6 116h-3c-18 -43 -32 -73 -50 -111l-79 -159v-2z" />
    <glyph glyph-name="five" unicode="5" horiz-adv-x="408" 
d="M350 650v-93h-173l-20 -142c7 1 14 1 22 1c31 0 87 -14 123 -49c35 -34 55 -83 55 -149c0 -128 -82 -226 -213 -226c-43 0 -91 11 -117 27l19 85c22 -12 57 -24 92 -24c65 0 114 45 114 128c0 95 -64 130 -144 130c-20 0 -35 -1 -48 -3l38 315h252z" />
    <glyph glyph-name="six" unicode="6" horiz-adv-x="408" 
d="M338 658v-88c-14 0 -31 -2 -50 -6c-96 -23 -139 -112 -155 -201h3c25 33 59 56 105 56c85 0 144 -77 144 -200c0 -119 -57 -227 -174 -227c-119 0 -185 110 -185 267c0 134 40 231 96 298c41 50 103 83 159 94c25 5 45 6 57 7zM211 71c43 0 68 52 68 145
c-1 75 -26 125 -73 125c-26 0 -52 -17 -67 -55c-3 -7 -6 -24 -6 -49c0 -107 32 -166 78 -166z" />
    <glyph glyph-name="seven" unicode="7" horiz-adv-x="408" 
d="M38 650h336v-68l-207 -582h-104l202 554v2h-227v94z" />
    <glyph glyph-name="eight" unicode="8" horiz-adv-x="408" 
d="M126 343l-1 2c-54 37 -82 93 -82 146c0 104 78 167 170 167c93 0 155 -70 155 -157c0 -49 -22 -106 -87 -148v-3c60 -36 102 -95 102 -173c0 -112 -79 -185 -182 -185c-110 0 -177 78 -177 172c0 86 49 144 102 179zM205 66c44 0 74 39 74 106c0 68 -40 108 -82 134
c-42 -27 -69 -74 -69 -128c0 -64 27 -112 77 -112zM207 584c-40 0 -63 -40 -63 -89c0 -55 32 -87 71 -110c33 21 54 62 54 105c0 53 -19 94 -62 94z" />
    <glyph glyph-name="nine" unicode="9" horiz-adv-x="408" 
d="M71 -8v90c21 0 35 1 54 5c29 7 59 22 83 45c31 32 57 85 68 155h-2c-23 -27 -55 -47 -99 -47c-83 0 -148 75 -148 194c0 114 66 224 180 224c117 0 175 -113 175 -264c0 -139 -41 -241 -97 -308c-40 -48 -96 -79 -157 -90c-20 -4 -39 -4 -57 -4zM201 579
c-36 0 -70 -43 -69 -136c1 -78 27 -127 73 -127c27 0 53 19 64 44c5 12 6 24 6 57c0 109 -31 162 -74 162z" />
    <glyph glyph-name="colon" unicode=":" horiz-adv-x="216" 
d="M113 338c-35 0 -62 29 -62 70s28 72 63 72c37 0 63 -29 63 -72c0 -41 -24 -70 -64 -70zM113 -8c-35 0 -62 29 -62 71c0 40 28 71 63 71c37 0 63 -28 63 -71c0 -42 -24 -71 -64 -71z" />
    <glyph glyph-name="semicolon" unicode=";" horiz-adv-x="216" 
d="M81 -117l-67 -8c25 71 52 176 63 251l109 10c-27 -86 -69 -193 -105 -253zM120 338c-35 0 -62 29 -62 70s28 72 63 72c37 0 63 -29 63 -72c0 -41 -24 -70 -64 -70z" />
    <glyph glyph-name="less" unicode="&#x3c;" horiz-adv-x="596" 
d="M61 239v55l473 238v-86l-368 -180v-2l368 -179v-85z" />
    <glyph glyph-name="equal" unicode="=" horiz-adv-x="596" 
d="M556 327h-516v70h516v-70zM556 139h-516v70h516v-70z" />
    <glyph glyph-name="greater" unicode="&#x3e;" horiz-adv-x="596" 
d="M535 303v-74l-473 -229v84l391 181v2l-391 181v84z" />
    <glyph glyph-name="question" unicode="?" horiz-adv-x="323" 
d="M188 199h-92l-2 16c-8 60 9 117 48 180c31 49 50 83 50 128c0 47 -29 71 -71 71c-23 0 -48 -5 -66 -18l-19 82c19 13 63 28 109 28c118 0 156 -78 156 -147c0 -70 -40 -127 -74 -180c-29 -47 -43 -85 -40 -140zM140 -8c-36 0 -63 29 -63 69c0 42 29 70 63 71
c38 0 64 -29 64 -71c0 -40 -24 -69 -64 -69z" />
    <glyph glyph-name="at" unicode="@" horiz-adv-x="607" 
d="M348 233l25 137c-7 4 -15 5 -27 5c-60 0 -116 -91 -116 -191c0 -39 14 -59 38 -59c35 0 70 56 80 108zM418 -22l14 -39c-49 -29 -99 -39 -154 -39c-130 0 -245 98 -245 295c0 210 132 399 320 399c149 0 224 -114 224 -251c0 -180 -63 -278 -156 -278
c-45 0 -69 29 -67 83h-3c-28 -58 -71 -83 -110 -83c-50 0 -83 42 -83 115c0 119 75 248 210 248c30 0 63 -7 83 -18l-37 -192c-13 -72 -3 -103 25 -103c44 0 88 77 88 212c0 132 -56 225 -183 225c-136 0 -261 -145 -261 -358c0 -167 85 -250 208 -250c48 0 88 12 127 34z
" />
    <glyph glyph-name="A" unicode="A" horiz-adv-x="448" 
d="M287 175h-133l-37 -175h-103l150 674h124l139 -674h-104zM166 259h110l-28 155c-8 44 -17 106 -24 153h-3c-8 -47 -18 -112 -26 -154z" />
    <glyph glyph-name="B" unicode="B" horiz-adv-x="453" 
d="M59 2v662c36 9 82 13 133 13c61 0 119 -10 160 -47c33 -29 48 -72 48 -120c0 -63 -34 -120 -99 -148v-3c77 -21 121 -85 121 -166c0 -56 -18 -100 -49 -133c-39 -44 -105 -65 -202 -65c-50 0 -86 3 -112 7zM165 592v-199h31c55 0 99 44 99 105c0 56 -26 98 -92 98
c-16 0 -29 -1 -38 -4zM165 313v-232c9 -2 20 -3 34 -3c65 0 113 39 113 116c0 79 -55 119 -116 119h-31z" />
    <glyph glyph-name="C" unicode="C" horiz-adv-x="385" 
d="M356 101l13 -90c-20 -10 -55 -17 -99 -17c-154 0 -242 126 -242 334c0 259 137 352 257 352c44 0 75 -9 88 -17l-20 -91c-16 8 -32 14 -64 14c-73 0 -148 -67 -148 -251c0 -181 68 -246 149 -246c25 0 50 5 66 12z" />
    <glyph glyph-name="D" unicode="D" horiz-adv-x="470" 
d="M59 2v662c31 8 74 13 120 13c78 0 134 -19 174 -56c55 -49 89 -137 89 -272c0 -145 -36 -236 -87 -286c-45 -46 -111 -68 -198 -68c-37 0 -74 3 -98 7zM165 588v-503c9 -2 19 -2 26 -2c74 0 141 62 141 267c0 153 -43 241 -136 241c-11 0 -22 -1 -31 -3z" />
    <glyph glyph-name="E" unicode="E" horiz-adv-x="376" 
d="M326 396v-89h-160v-214h182v-93h-289v674h277v-93h-170v-185h160z" />
    <glyph glyph-name="F" unicode="F" horiz-adv-x="371" 
d="M59 0v674h277v-93h-170v-201h159v-89h-159v-291h-107z" />
    <glyph glyph-name="G" unicode="G" horiz-adv-x="456" 
d="M414 366v-348c-29 -12 -84 -24 -131 -24c-69 0 -126 19 -171 66c-53 55 -85 151 -84 270c2 254 140 350 272 350c47 0 83 -9 104 -20l-21 -92c-18 10 -43 16 -77 16c-87 0 -167 -64 -167 -255c0 -182 70 -244 141 -244c18 0 29 2 35 5v188h-72v88h171z" />
    <glyph glyph-name="H" unicode="H" horiz-adv-x="492" 
d="M59 674h107v-279h160v279h107v-674h-107v297h-160v-297h-107v674z" />
    <glyph glyph-name="I" unicode="I" horiz-adv-x="226" 
d="M59 674h107v-674h-107v674z" />
    <glyph glyph-name="J" unicode="J" horiz-adv-x="282" 
d="M124 200v474h107v-470c0 -175 -79 -212 -175 -212c-24 0 -45 3 -59 8l9 90c11 -3 25 -4 40 -4c46 0 78 18 78 114z" />
    <glyph glyph-name="K" unicode="K" horiz-adv-x="434" 
d="M59 0v674h106v-311h3c12 28 24 57 36 85l106 226h118l-157 -291l160 -383h-116l-116 300l-34 -60v-240h-106z" />
    <glyph glyph-name="L" unicode="L" horiz-adv-x="364" 
d="M59 0v674h107v-584h180v-90h-287z" />
    <glyph glyph-name="M" unicode="M" horiz-adv-x="620" 
d="M482 0l-13 260c-4 76 -8 168 -7 242h-3c-13 -74 -31 -155 -47 -220l-70 -274h-73l-66 267c-18 68 -36 152 -48 227h-3c-1 -76 -5 -165 -9 -245l-12 -257h-93l45 674h113l65 -273c21 -87 38 -158 51 -234h2c12 76 27 146 47 234l63 273h115l40 -674h-97z" />
    <glyph glyph-name="N" unicode="N" horiz-adv-x="493" 
d="M153 0h-94v674h98l114 -288c24 -61 58 -148 79 -213h2c-6 86 -12 190 -12 311v190h94v-674h-98l-115 287c-25 62 -55 143 -74 214h-2c5 -78 8 -173 8 -313v-188z" />
    <glyph glyph-name="O" unicode="O" horiz-adv-x="465" 
d="M240 682c141 0 197 -155 197 -336c0 -254 -89 -354 -208 -354c-134 0 -201 142 -201 346c0 202 76 344 212 344zM234 589c-67 0 -95 -111 -95 -252c0 -147 28 -252 96 -252c69 0 91 121 91 256c0 122 -20 248 -92 248z" />
    <glyph glyph-name="P" unicode="P" horiz-adv-x="431" 
d="M59 0v664c34 8 78 13 125 13c71 0 129 -13 168 -51c36 -34 54 -86 54 -144c0 -68 -19 -114 -50 -150c-39 -48 -104 -70 -161 -70c-11 0 -20 0 -30 1v-263h-106zM165 585v-235c8 -1 15 -1 26 -1c70 0 109 48 109 125c0 63 -26 116 -98 116c-15 0 -28 -2 -37 -5z" />
    <glyph glyph-name="Q" unicode="Q" horiz-adv-x="465" 
d="M461 -19l-38 -82c-55 22 -121 56 -165 81c-13 7 -23 12 -28 12c-123 0 -202 120 -202 346c0 201 76 344 213 344c141 0 196 -155 196 -337c0 -174 -40 -277 -107 -311v-4c44 -19 90 -34 131 -49zM236 85c67 0 90 119 90 256c0 127 -21 248 -91 248
c-69 0 -97 -122 -96 -250c-1 -135 24 -254 97 -254z" />
    <glyph glyph-name="R" unicode="R" horiz-adv-x="443" 
d="M59 0v664c37 9 84 13 128 13c70 0 128 -12 167 -49c38 -36 51 -81 51 -137c0 -78 -38 -139 -106 -170v-2c48 -17 72 -62 86 -142c14 -82 30 -154 41 -177h-111c-8 19 -23 85 -34 164c-13 88 -38 116 -92 116h-24v-280h-106zM165 589v-227h28c64 0 104 50 104 119
c0 66 -27 111 -96 112c-14 0 -27 -1 -36 -4z" />
    <glyph glyph-name="S" unicode="S" horiz-adv-x="379" 
d="M26 22l18 92c25 -15 69 -27 104 -27c66 0 102 38 102 94c0 54 -33 85 -88 123c-75 48 -127 115 -127 188c0 105 71 188 197 188c43 0 82 -13 100 -24l-19 -92c-19 12 -47 23 -83 23c-61 0 -90 -41 -90 -82c0 -52 27 -76 96 -120c85 -56 119 -121 119 -193
c0 -121 -86 -198 -207 -198c-50 0 -101 14 -122 28z" />
    <glyph glyph-name="T" unicode="T" horiz-adv-x="376" 
d="M134 0v576h-121v98h349v-98h-121v-576h-107z" />
    <glyph glyph-name="U" unicode="U" horiz-adv-x="481" 
d="M56 674h107v-444c0 -109 34 -144 76 -144c47 0 78 34 78 144v444h107v-426c0 -174 -69 -256 -185 -256c-123 0 -183 83 -183 251v431z" />
    <glyph glyph-name="V" unicode="V" horiz-adv-x="438" 
d="M277 0h-117l-152 674h117l56 -302c13 -74 30 -163 40 -245h3c9 83 24 169 38 247l54 300h116z" />
    <glyph glyph-name="W" unicode="W" horiz-adv-x="668" 
d="M241 0h-103l-122 674h111l43 -294c12 -81 20 -157 28 -240h3c9 84 24 158 39 241l55 293h88l52 -289c14 -78 27 -154 36 -245h2c10 92 20 165 30 243l43 291h105l-124 -674h-109l-51 269c-12 66 -23 143 -32 221h-2c-11 -79 -22 -153 -37 -223z" />
    <glyph glyph-name="X" unicode="X" horiz-adv-x="400" 
d="M396 0h-111l-51 141c-13 38 -25 75 -38 119h-3c-13 -44 -24 -84 -35 -121l-46 -139h-107l131 344l-126 330h111l48 -139c12 -33 22 -67 35 -108h2c13 44 22 75 32 110l44 137h107l-129 -332z" />
    <glyph glyph-name="Y" unicode="Y" horiz-adv-x="398" 
d="M251 0h-107v270l-148 404h113l52 -164c15 -45 30 -97 42 -148h2c11 50 25 101 40 151l47 161h111l-152 -400v-274z" />
    <glyph glyph-name="Z" unicode="Z" horiz-adv-x="374" 
d="M15 0v63l221 516v2h-201v93h322v-77l-215 -501v-3h214v-93h-341z" />
    <glyph glyph-name="bracketleft" unicode="[" horiz-adv-x="256" 
d="M229 -112h-168v798h168v-70h-86v-658h86v-70z" />
    <glyph glyph-name="backslash" unicode="\" horiz-adv-x="246" 
d="M255 -40h-73l-191 722h73z" />
    <glyph glyph-name="bracketright" unicode="]" horiz-adv-x="256" 
d="M27 686h168v-798h-168v70h85v658h-85v70z" />
    <glyph glyph-name="asciicircum" unicode="^" horiz-adv-x="596" 
d="M543 183h-84l-159 373h-5l-159 -373h-83l209 467h72z" />
    <glyph glyph-name="underscore" unicode="_" horiz-adv-x="500" 
d="M0 -75h500v-50h-500v50z" />
    <glyph glyph-name="quoteleft" unicode="&#x2018;" horiz-adv-x="184" 
d="M111 444l-97 -10c25 86 67 182 102 242l58 8c-25 -72 -52 -165 -63 -240z" />
    <glyph glyph-name="a" unicode="a" horiz-adv-x="396" 
d="M346 305v-194c0 -38 1 -79 6 -111h-96l-6 50h-2c-25 -38 -61 -58 -103 -58c-70 0 -123 58 -123 144c0 125 106 178 216 179v13c0 50 -20 85 -73 85c-35 0 -64 -10 -91 -26l-20 72c24 15 75 35 134 35c126 0 158 -86 158 -189zM241 153v91c-42 -1 -117 -12 -117 -97
c0 -55 29 -75 53 -75c27 0 52 18 61 56c2 8 3 16 3 25z" />
    <glyph glyph-name="b" unicode="b" horiz-adv-x="425" 
d="M49 131v561h106v-259h2c24 41 58 61 103 61c86 0 135 -98 135 -241c0 -173 -70 -261 -154 -261c-45 0 -73 23 -96 68h-3l-6 -60h-91c2 36 4 92 4 131zM155 309v-136c0 -12 2 -23 4 -31c14 -51 39 -62 58 -62c52 0 72 68 72 165c0 90 -21 159 -73 159
c-28 0 -51 -32 -57 -64c-2 -9 -4 -21 -4 -31z" />
    <glyph glyph-name="c" unicode="c" horiz-adv-x="313" 
d="M294 93l11 -83c-15 -8 -46 -16 -82 -16c-116 0 -192 86 -192 245c0 146 80 254 209 254c29 0 57 -7 70 -14l-16 -85c-11 5 -28 11 -52 11c-69 0 -105 -74 -105 -164c0 -99 40 -159 105 -159c20 0 37 3 52 11z" />
    <glyph glyph-name="d" unicode="d" horiz-adv-x="425" 
d="M270 692h106v-561c0 -39 2 -94 4 -131h-91l-7 58h-3c-16 -35 -54 -66 -101 -66c-94 0 -147 103 -147 250c0 170 73 252 152 252c40 0 69 -19 85 -53h2v251zM270 171v129c0 10 0 20 -2 30c-4 39 -26 74 -58 74c-54 0 -73 -77 -73 -164c0 -97 26 -160 71 -160
c20 0 45 10 58 60c3 9 4 19 4 31z" />
    <glyph glyph-name="e" unicode="e" horiz-adv-x="394" 
d="M363 215h-229c1 -109 52 -139 109 -139c36 0 66 8 87 17l16 -76c-31 -14 -78 -23 -123 -23c-126 0 -193 91 -193 242c0 160 77 258 182 258c102 0 154 -92 154 -222c0 -28 -1 -44 -3 -57zM134 291h133c1 77 -25 123 -63 123c-47 0 -68 -66 -70 -123z" />
    <glyph glyph-name="f" unicode="f" horiz-adv-x="260" 
d="M176 0h-107v410h-64v77h64v24c0 54 10 106 47 145c29 31 69 44 108 44c31 0 54 -5 71 -11l-14 -84c-10 4 -24 7 -41 7c-49 0 -64 -47 -64 -99v-26h86v-77h-86v-410z" />
    <glyph glyph-name="g" unicode="g" horiz-adv-x="425" 
d="M377 334v-276c0 -115 -18 -168 -54 -205c-33 -34 -82 -53 -145 -53c-44 0 -85 9 -116 24l22 82c22 -11 53 -21 92 -21c64 0 95 41 95 132v38h-2c-17 -34 -51 -53 -90 -53c-99 0 -148 109 -148 238c0 169 77 254 159 254c45 0 73 -27 90 -59h2l6 52h94
c-3 -40 -5 -87 -5 -153zM271 178v135c0 13 -2 26 -5 36c-7 26 -22 55 -54 55c-51 0 -75 -69 -75 -161c0 -106 32 -156 73 -156c20 0 43 10 55 50c5 13 6 28 6 41z" />
    <glyph glyph-name="h" unicode="h" horiz-adv-x="434" 
d="M49 0v692h107v-257h2c11 17 26 31 42 41c18 11 40 18 65 18c77 0 120 -64 120 -187v-307h-107v303c0 53 -11 101 -56 101c-28 0 -51 -18 -62 -60c-2 -9 -4 -25 -4 -36v-308h-107z" />
    <glyph glyph-name="i" unicode="i" horiz-adv-x="205" 
d="M156 0h-107v487h107v-487zM101 676c34 0 58 -24 58 -62c0 -37 -24 -62 -59 -62c-31 0 -56 25 -56 62c0 38 26 62 57 62z" />
    <glyph glyph-name="j" unicode="j" horiz-adv-x="208" 
d="M-24 -200l-10 85c23 4 48 10 64 31c18 23 23 59 23 141v430h107v-454c0 -105 -19 -155 -58 -189c-33 -29 -87 -43 -126 -44zM107 676c33 0 57 -24 57 -62c0 -37 -24 -62 -59 -62c-31 0 -56 25 -56 62c0 38 26 62 58 62z" />
    <glyph glyph-name="k" unicode="k" horiz-adv-x="386" 
d="M155 692v-424h2c9 24 17 43 25 62l78 157h115l-122 -204l131 -283h-119l-85 213l-25 -43v-170h-106v692h106z" />
    <glyph glyph-name="l" unicode="l" horiz-adv-x="210" 
d="M49 0v692h107v-692h-107z" />
    <glyph glyph-name="m" unicode="m" horiz-adv-x="653" 
d="M49 0v350c0 55 -2 94 -4 137h93l5 -59h2c23 37 63 66 114 66c50 0 86 -24 104 -70h2c12 21 30 40 48 52c20 12 43 18 68 18c78 0 122 -60 122 -180v-314h-106v294c0 59 -8 111 -55 111c-28 0 -50 -21 -59 -57c-3 -9 -4 -24 -4 -38v-310h-106v311c0 43 -6 94 -54 94
c-26 0 -51 -20 -60 -59c-2 -11 -4 -25 -4 -39v-307h-106z" />
    <glyph glyph-name="n" unicode="n" horiz-adv-x="434" 
d="M49 0v350c0 55 -2 94 -4 137h93l5 -58h2c23 39 64 65 115 65c82 0 125 -63 125 -176v-318h-107v308c0 49 -10 96 -57 96c-26 0 -50 -20 -60 -59c-3 -11 -5 -27 -5 -45v-300h-107z" />
    <glyph glyph-name="o" unicode="o" horiz-adv-x="410" 
d="M208 494c102 0 171 -90 171 -250c0 -196 -101 -252 -175 -252c-103 0 -173 86 -173 250c0 176 86 252 177 252zM206 412c-57 0 -69 -98 -69 -168c0 -82 14 -170 71 -170c53 0 65 96 65 170c0 70 -12 168 -67 168z" />
    <glyph glyph-name="p" unicode="p" horiz-adv-x="425" 
d="M49 -192v526c0 66 -2 112 -4 153h93l6 -60h2c23 45 60 67 102 67c97 0 146 -104 146 -250c0 -177 -75 -252 -154 -252c-43 0 -69 26 -83 51h-2v-235h-106zM155 306v-128c0 -15 2 -30 5 -41c13 -47 38 -57 55 -57c55 0 73 77 73 162c0 97 -23 162 -72 162
c-27 0 -51 -30 -57 -62c-3 -11 -4 -23 -4 -36z" />
    <glyph glyph-name="q" unicode="q" horiz-adv-x="425" 
d="M270 -192v238h-3c-18 -31 -50 -54 -93 -54c-86 0 -143 99 -143 243c0 167 71 259 159 259c31 0 68 -14 90 -60l2 -2l5 55h93c-2 -40 -4 -89 -4 -153v-526h-106zM270 176v131c0 9 -1 21 -3 30c-6 39 -30 67 -57 67c-51 0 -73 -68 -73 -162c0 -95 24 -162 72 -162
c21 0 44 13 56 60c4 11 5 24 5 36z" />
    <glyph glyph-name="r" unicode="r" horiz-adv-x="273" 
d="M49 0v350c0 45 -2 96 -4 137h93l6 -74h3c19 49 59 81 99 81c10 0 16 -1 23 -2v-106c-7 1 -14 1 -23 1c-37 0 -74 -31 -86 -84c-2 -11 -4 -28 -4 -46v-257h-107z" />
    <glyph glyph-name="s" unicode="s" horiz-adv-x="308" 
d="M20 22l21 79c18 -12 51 -26 84 -26c38 0 61 20 61 56c0 30 -14 50 -59 78c-73 44 -99 90 -99 140c0 83 61 145 149 145c39 0 70 -11 93 -24l-21 -79c-19 12 -41 21 -67 21c-37 0 -55 -24 -55 -50c0 -27 12 -42 58 -72c65 -38 100 -86 100 -147c0 -99 -69 -149 -161 -149
c-38 0 -83 11 -104 28z" />
    <glyph glyph-name="t" unicode="t" horiz-adv-x="286" 
d="M70 571l107 37v-121h94v-77h-94v-253c0 -60 23 -75 50 -75c12 0 22 1 33 3l2 -83c-16 -5 -40 -8 -70 -8c-34 0 -65 9 -86 30c-24 24 -36 59 -36 132v254h-58v77h58v84z" />
    <glyph glyph-name="u" unicode="u" horiz-adv-x="428" 
d="M377 487v-345c0 -53 2 -101 4 -142h-93l-6 51h-2c-19 -29 -58 -59 -109 -59c-89 0 -125 67 -125 194v301h107v-288c0 -69 12 -118 56 -118c33 0 50 29 55 48c4 11 6 26 6 42v316h107z" />
    <glyph glyph-name="v" unicode="v" horiz-adv-x="374" 
d="M8 487h113l48 -243c7 -38 14 -82 21 -128h2c6 45 13 86 20 128l47 243h106l-129 -487h-97z" />
    <glyph glyph-name="w" unicode="w" horiz-adv-x="594" 
d="M8 487h114l35 -223c8 -52 16 -103 21 -151h3c8 48 19 103 29 149l49 225h82l46 -219c12 -55 21 -104 29 -155h2c5 48 13 99 22 153l37 221h106l-124 -487h-90l-45 199c-11 47 -19 94 -26 150h-2c-7 -57 -18 -105 -29 -151l-48 -198h-92z" />
    <glyph glyph-name="x" unicode="x" horiz-adv-x="370" 
d="M10 487h115l37 -95c11 -28 19 -57 28 -83h2c8 27 18 57 27 83l35 95h108l-113 -240l114 -247h-116l-39 100c-10 25 -18 50 -28 78h-2c-8 -26 -17 -52 -26 -78l-37 -100h-107l112 243z" />
    <glyph glyph-name="y" unicode="y" horiz-adv-x="370" 
d="M9 487h114l55 -265c7 -33 11 -62 16 -90h2c5 26 11 58 16 89l48 266h105l-90 -348c-27 -105 -60 -210 -114 -277c-38 -46 -82 -69 -100 -76l-35 92c22 10 46 28 66 50c19 20 34 46 43 68c4 10 6 16 6 23c0 6 -1 12 -3 18z" />
    <glyph glyph-name="z" unicode="z" horiz-adv-x="334" 
d="M17 0v66l135 255c14 26 32 55 42 76v2h-161v88h278v-72l-132 -248c-15 -27 -32 -56 -43 -77v-2h177v-88h-296z" />
    <glyph glyph-name="braceleft" unicode="{" horiz-adv-x="256" 
d="M18 255v66c55 0 67 33 68 63c0 27 -3 54 -7 80c-3 28 -6 56 -6 85c0 93 57 137 140 137h16v-68h-15c-40 -4 -56 -30 -56 -71c0 -25 2 -49 6 -71c2 -23 4 -44 4 -66c1 -71 -26 -106 -73 -120v-2c46 -14 73 -49 73 -122c0 -22 -2 -45 -5 -68s-5 -46 -5 -69
c0 -41 12 -68 57 -73h14v-68h-17c-75 0 -139 35 -139 137c0 29 3 57 7 85c3 27 6 55 6 82c0 28 -13 63 -68 63z" />
    <glyph glyph-name="bar" unicode="|" horiz-adv-x="210" 
d="M64 750h82v-1000h-82v1000z" />
    <glyph glyph-name="braceright" unicode="}" horiz-adv-x="256" 
d="M238 321v-66c-55 0 -67 -35 -68 -63c0 -27 3 -55 6 -82c3 -28 6 -56 6 -85c0 -102 -64 -137 -139 -137h-17v68h14c45 5 57 32 57 73c0 23 -2 46 -4 69c-3 23 -5 46 -5 68c-1 73 26 108 73 122v2c-46 14 -73 49 -73 120c0 22 2 43 5 66c2 22 4 46 4 71c0 41 -16 67 -56 71
h-15v68h16c83 0 140 -44 140 -137c0 -29 -3 -57 -6 -85c-3 -26 -6 -53 -6 -80c0 -30 13 -63 68 -63z" />
    <glyph glyph-name="asciitilde" unicode="~" horiz-adv-x="596" 
d="M134 210h-70c-2 109 58 153 124 153c41 0 80 -18 131 -47c50 -28 74 -40 98 -40c32 0 45 29 45 80h70c5 -100 -39 -154 -113 -154c-41 0 -72 10 -131 43c-51 30 -80 45 -106 45c-29 0 -48 -21 -48 -80z" />
    <glyph glyph-name="exclamdown" unicode="&#xa1;" horiz-adv-x="222" 
d="M169 -191h-116l13 469h90zM112 494c36 0 62 -28 62 -70c0 -39 -23 -68 -62 -68c-37 0 -64 29 -64 68c0 42 28 70 64 70z" />
    <glyph glyph-name="cent" unicode="&#xa2;" horiz-adv-x="408" 
d="M277 -7h-71v100c-39 8 -73 27 -99 60c-30 36 -49 94 -49 173c0 117 58 208 149 230v98h71v-92c26 -2 52 -8 68 -17l-15 -83c-23 13 -45 17 -72 17c-65 0 -95 -78 -95 -157c0 -93 40 -151 101 -151c31 0 51 5 75 16l11 -80c-19 -10 -43 -16 -74 -17v-97z" />
    <glyph glyph-name="sterling" unicode="&#xa3;" horiz-adv-x="408" 
d="M370 0h-336v67c52 21 91 95 91 158c0 26 -1 47 -4 67h-81v73h69c-6 28 -12 69 -12 105c0 110 69 188 172 188c39 0 65 -9 80 -19l-18 -85c-13 7 -32 14 -58 14c-51 0 -74 -42 -74 -92c0 -43 5 -75 12 -111h104v-73h-94c4 -37 3 -73 -7 -105c-8 -30 -25 -66 -55 -95v-2
h211v-90z" />
    <glyph glyph-name="fraction" unicode="&#x2044;" horiz-adv-x="114" 
d="M-85 -8h-60l345 666h59z" />
    <glyph glyph-name="yen" unicode="&#xa5;" horiz-adv-x="408" 
d="M251 0h-98v175h-128v57h128v66h-128v57h104l-119 295h106l60 -186c12 -38 24 -79 31 -105h2c7 28 16 66 29 106l61 185h100l-124 -295h105v-57h-129v-66h129v-57h-129v-175z" />
    <glyph glyph-name="florin" unicode="&#x192;" horiz-adv-x="408" 
d="M77 321v83h76l5 50c12 109 62 204 176 204c23 0 45 -5 60 -12l-15 -79c-13 4 -26 6 -40 6c-51 0 -71 -51 -78 -115l-7 -54h91v-83h-97l-23 -205c-12 -111 -46 -196 -160 -196c-27 0 -52 7 -68 16l17 77c12 -5 29 -9 41 -9c35 0 60 28 71 122l21 195h-70z" />
    <glyph glyph-name="section" unicode="&#xa7;" horiz-adv-x="417" 
d="M111 350c0 -27 21 -53 76 -78c36 -16 68 -33 89 -49c18 12 31 40 31 66c0 32 -24 61 -63 79c-34 15 -69 30 -95 48c-23 -14 -38 -38 -38 -66zM343 657l-20 -69c-23 14 -54 23 -90 23c-39 0 -76 -18 -76 -58c0 -44 31 -60 85 -82c78 -32 143 -70 143 -162
c0 -52 -21 -90 -58 -125c13 -12 33 -43 33 -83c0 -97 -76 -151 -171 -151c-51 0 -103 13 -132 33l21 71c21 -14 61 -33 112 -33c45 0 81 21 81 64c0 38 -28 60 -99 93c-81 37 -140 77 -140 158c0 40 20 82 70 119c-18 18 -34 48 -34 82c0 91 76 145 170 145
c42 0 79 -9 105 -25z" />
    <glyph glyph-name="currency" unicode="&#xa4;" horiz-adv-x="408" 
d="M206 532c36 0 72 -15 96 -38l63 74l48 -49l-76 -75c16 -34 23 -75 23 -115c0 -44 -8 -85 -23 -117l75 -77l-47 -49l-65 75c-27 -25 -65 -39 -98 -39c-35 0 -72 14 -97 38l-61 -74l-48 49l72 73c-16 33 -24 74 -24 116c0 45 9 87 27 120l-76 74l49 51l63 -77
c26 26 64 40 99 40zM202 456c-45 0 -66 -54 -66 -131c0 -72 25 -127 66 -127c47 -1 66 54 66 129c0 68 -18 129 -66 129z" />
    <glyph glyph-name="quotesingle" unicode="'" horiz-adv-x="170" 
d="M41 684h89l-17 -248h-55z" />
    <glyph glyph-name="quotedblleft" unicode="&#x201c;" horiz-adv-x="323" 
d="M108 444l-97 -10c25 86 67 182 102 242l58 8c-25 -72 -52 -165 -63 -240zM253 444l-97 -10c25 86 67 182 102 242l58 8c-25 -72 -52 -165 -63 -240z" />
    <glyph glyph-name="guillemotleft" unicode="&#xab;" horiz-adv-x="370" 
d="M204 432l-106 -180l106 -180h-80l-104 180l104 180h80zM357 432l-106 -180l106 -180h-80l-104 180l104 180h80z" />
    <glyph glyph-name="guilsinglleft" unicode="&#x2039;" horiz-adv-x="216" 
d="M204 432l-106 -180l106 -180h-80l-104 180l104 180h80z" />
    <glyph glyph-name="guilsinglright" unicode="&#x203a;" horiz-adv-x="216" 
d="M118 252l-106 180h79l105 -180l-103 -180h-81z" />
    <glyph glyph-name="fi" unicode="&#xfb01;" horiz-adv-x="457" 
d="M176 0h-107v410h-64v77h64v28c0 74 41 185 199 185c45 0 84 -10 106 -22l-17 -83c-20 8 -49 17 -87 17c-75 0 -94 -46 -94 -105v-20h232v-487h-107v410h-125v-410z" />
    <glyph glyph-name="fl" unicode="&#xfb02;" horiz-adv-x="457" 
d="M176 0h-107v410h-64v77h64v22c0 42 16 105 58 144c31 28 73 47 143 47c52 0 106 -12 138 -26v-674h-107v607c-12 5 -28 8 -47 8c-58 0 -78 -48 -78 -101v-27h77v-77h-77v-410z" />
    <glyph glyph-name="endash" unicode="&#x2013;" horiz-adv-x="500" 
d="M30 297h440v-74h-440v74z" />
    <glyph glyph-name="dagger" unicode="&#x2020;" horiz-adv-x="405" 
d="M156 674h92l-6 -193l131 6v-89l-131 6l6 -454h-92l6 454l-131 -6v89l131 -6z" />
    <glyph glyph-name="daggerdbl" unicode="&#x2021;" horiz-adv-x="405" 
d="M156 674h92l-5 -187l130 6v-89l-130 6v-191l130 6v-89l-130 6l5 -192h-92l5 192l-130 -6v89l130 -6v191l-130 -6v89l130 -6z" />
    <glyph glyph-name="periodcentered" unicode="&#xb7;" horiz-adv-x="216" 
d="M107 192c-35 0 -64 29 -64 73c0 42 30 73 65 73c37 0 65 -28 65 -73c0 -44 -26 -73 -66 -73z" />
    <glyph glyph-name="paragraph" unicode="&#xb6;" horiz-adv-x="417" 
d="M238 -50h-62v319h-7c-38 0 -136 46 -144 179c-6 115 64 226 234 226c45 0 69 -2 99 -7v-717h-62v661h-58v-661z" />
    <glyph glyph-name="bullet" unicode="&#x2022;" horiz-adv-x="274" 
d="M136 160c-55 0 -100 42 -100 103c0 62 45 104 101 104s101 -41 101 -104c0 -61 -43 -103 -102 -103z" />
    <glyph glyph-name="quotesinglbase" unicode="&#x201a;" horiz-adv-x="184" 
d="M69 -106l-58 -8c25 72 52 165 63 240l97 10c-25 -86 -67 -182 -102 -242z" />
    <glyph glyph-name="quotedblbase" unicode="&#x201e;" horiz-adv-x="323" 
d="M67 -106l-58 -8c25 72 52 165 63 240l97 10c-25 -86 -67 -182 -102 -242zM212 -106l-58 -8c25 72 52 165 63 240l97 10c-25 -86 -67 -182 -102 -242z" />
    <glyph glyph-name="quotedblright" unicode="&#x201d;" horiz-adv-x="323" 
d="M72 674l97 10c-25 -86 -67 -182 -102 -242l-58 -8c25 72 52 165 63 240zM217 674l97 10c-25 -86 -67 -182 -102 -242l-58 -8c25 72 52 165 63 240z" />
    <glyph glyph-name="guillemotright" unicode="&#xbb;" horiz-adv-x="370" 
d="M119 252l-106 180h80l104 -180l-103 -180h-81zM272 252l-106 180h79l105 -180l-103 -180h-81z" />
    <glyph glyph-name="ellipsis" unicode="&#x2026;" horiz-adv-x="1000" 
d="M166 -8c-35 0 -64 29 -64 74c0 43 30 74 65 74c37 0 65 -28 65 -74c0 -45 -26 -74 -66 -74zM500 -8c-35 0 -64 29 -64 74c0 43 30 74 65 74c37 0 65 -28 65 -74c0 -45 -26 -74 -66 -74zM834 -8c-35 0 -64 29 -64 74c0 43 30 74 65 74c37 0 65 -28 65 -74
c0 -45 -26 -74 -66 -74z" />
    <glyph glyph-name="perthousand" unicode="&#x2030;" horiz-adv-x="947" 
d="M153 658c86 0 124 -94 124 -197c0 -137 -62 -199 -126 -199c-82 0 -127 88 -127 196c0 114 50 200 129 200zM150 598c-38 0 -51 -63 -51 -138c-1 -76 12 -138 52 -138s51 63 51 137c0 71 -10 139 -52 139zM181 -11h-60l348 672h60zM504 390c86 0 124 -94 124 -197
c0 -137 -62 -199 -126 -199c-82 0 -127 88 -127 196c0 114 50 200 129 200zM501 330c-38 0 -51 -63 -51 -138c-1 -76 12 -138 52 -138s51 63 51 137c0 71 -10 139 -52 139zM800 390c86 0 124 -94 124 -197c0 -137 -62 -199 -126 -199c-82 0 -127 88 -127 196
c0 114 50 200 129 200zM797 330c-38 0 -51 -63 -51 -138c-1 -76 12 -138 52 -138s51 63 51 137c0 71 -10 139 -52 139z" />
    <glyph glyph-name="questiondown" unicode="&#xbf;" horiz-adv-x="323" 
d="M185 494c36 0 63 -28 63 -70c0 -40 -25 -70 -63 -70s-65 30 -65 70c0 42 28 70 65 70zM136 287h91l2 -17c8 -59 -10 -117 -48 -179c-31 -49 -50 -83 -50 -128c0 -47 28 -71 71 -71c23 0 47 6 65 18l19 -82c-18 -13 -62 -28 -109 -28c-117 0 -155 78 -155 146
c0 71 40 128 74 181c29 47 44 85 40 140v20z" />
    <glyph glyph-name="grave" unicode="`" 
d="M33 686h99l72 -138h-68z" />
    <glyph glyph-name="acute" unicode="&#xb4;" 
d="M179 686h99l-103 -138h-68z" />
    <glyph glyph-name="circumflex" unicode="&#x2c6;" 
d="M114 686h74l82 -138h-75l-43 83h-2l-43 -83h-76z" />
    <glyph glyph-name="tilde" unicode="&#x2dc;" 
d="M86 559h-52c0 59 22 107 67 107c22 0 38 -10 54 -18c13 -8 25 -16 38 -16c14 0 22 6 23 37h50c0 -69 -24 -103 -67 -103c-18 0 -37 9 -51 16c-15 8 -25 17 -38 17c-14 0 -23 -14 -24 -40z" />
    <glyph glyph-name="macron" unicode="&#xaf;" 
d="M48 645h205v-64h-205v64z" />
    <glyph glyph-name="breve" unicode="&#x2d8;" 
d="M37 675h55c3 -35 26 -57 57 -57c38 0 60 25 60 57h54c3 -70 -44 -121 -115 -121c-70 0 -114 53 -111 121z" />
    <glyph glyph-name="dotaccent" unicode="&#x2d9;" 
d="M150 564c-28 0 -52 23 -52 55s24 55 53 55s52 -23 52 -55s-22 -55 -53 -55z" />
    <glyph glyph-name="dieresis" unicode="&#xa8;" 
d="M65 564c-28 0 -52 23 -52 55s24 55 53 55s52 -23 52 -55s-22 -55 -53 -55zM233 564c-28 0 -52 23 -52 55s24 55 53 55s52 -23 52 -55s-22 -55 -53 -55z" />
    <glyph glyph-name="ring" unicode="&#x2da;" 
d="M117 536c-63 0 -99 39 -99 87c0 51 34 92 100 92c62 0 96 -39 96 -90c0 -49 -37 -89 -97 -89zM116 576c32 0 44 26 44 50c0 23 -11 49 -45 49c-30 0 -42 -28 -42 -51c0 -20 12 -48 43 -48z" />
    <glyph glyph-name="cedilla" unicode="&#xb8;" 
d="M136 5h60l-26 -52c35 -5 66 -33 66 -72c0 -60 -51 -83 -101 -83c-26 0 -54 7 -72 18l18 49c16 -8 33 -14 51 -14s34 7 34 27c0 23 -27 37 -68 41z" />
    <glyph glyph-name="hungarumlaut" unicode="&#x2dd;" 
d="M117 686h84l-102 -138h-57zM248 686h84l-102 -138h-57z" />
    <glyph glyph-name="ogonek" unicode="&#x2db;" 
d="M107 5h68c-15 -25 -34 -63 -34 -92c0 -27 20 -44 41 -44c17 0 29 3 40 7l14 -55c-25 -19 -56 -24 -81 -24c-59 0 -91 35 -91 89c0 50 29 98 43 119z" />
    <glyph glyph-name="caron" unicode="&#x2c7;" 
d="M187 548h-74l-82 138h75l43 -83h2l43 83h76z" />
    <glyph glyph-name="emdash" unicode="&#x2014;" horiz-adv-x="1000" 
d="M30 297h940v-74h-940v74z" />
    <glyph glyph-name="AE" unicode="&#xc6;" horiz-adv-x="578" 
d="M104 0h-105l204 674h339v-93h-181l11 -193h166v-89h-158l12 -206h170v-93h-264l-12 201h-128zM178 285h99l-8 184c-2 41 -5 87 -7 131h-4c-12 -52 -28 -113 -38 -152z" />
    <glyph glyph-name="ordfeminine" unicode="&#xaa;" horiz-adv-x="289" 
d="M257 263h-61l-4 34h-2c-18 -25 -44 -39 -75 -39c-48 0 -85 36 -85 95c0 82 73 116 154 117v9c0 27 -16 50 -56 50c-26 0 -47 -8 -63 -19l-14 52c24 16 56 26 90 26c85 0 112 -60 112 -129v-121c0 -25 1 -52 4 -75zM185 360v60c-31 0 -88 -8 -88 -60c0 -29 20 -45 41 -45
c15 0 31 8 40 25c4 6 7 12 7 20z" />
    <glyph glyph-name="Lslash" unicode="&#x141;" horiz-adv-x="368" 
d="M350 0h-287v244l-64 -55v92l64 55v338h107v-259l99 85v-93l-99 -85v-232h180v-90z" />
    <glyph glyph-name="Oslash" unicode="&#xd8;" horiz-adv-x="465" 
d="M98 -44l-56 30l42 95c-39 62 -56 153 -56 257c0 201 76 344 206 344c36 0 69 -10 98 -33l31 70l59 -25l-42 -93c42 -65 57 -160 57 -255c0 -253 -88 -354 -204 -354c-37 0 -73 11 -102 38zM146 206l145 348c-14 21 -34 35 -57 35c-68 0 -101 -106 -101 -250
c0 -40 1 -88 11 -133h2zM319 472l-148 -347c14 -27 38 -40 63 -40c69 0 98 109 98 256c0 40 -1 86 -11 130z" />
    <glyph glyph-name="OE" unicode="&#x152;" horiz-adv-x="632" 
d="M604 93v-93h-256c-13 -1 -27 -2 -39 -4c-14 -2 -27 -4 -40 -4c-188 0 -241 168 -241 343c0 209 90 347 249 347c14 0 28 -2 41 -4s25 -3 36 -4h238v-93h-170v-185h160v-89h-160v-214h182zM315 93v485c-11 7 -25 11 -48 11c-61 0 -129 -67 -128 -250
c-1 -187 61 -254 133 -254c16 0 34 3 43 8z" />
    <glyph glyph-name="ordmasculine" unicode="&#xba;" horiz-adv-x="307" 
d="M155 588c75 0 117 -60 117 -164c0 -128 -65 -166 -119 -166c-73 0 -121 58 -121 165c0 111 58 165 123 165zM151 530c-37 0 -47 -67 -47 -107c0 -54 13 -107 48 -107c41 0 48 59 48 107c0 47 -8 107 -49 107z" />
    <glyph glyph-name="ae" unicode="&#xe6;" horiz-adv-x="600" 
d="M570 226h-229c0 -117 50 -153 110 -153c35 0 64 9 86 20l16 -74c-39 -21 -82 -27 -122 -27c-62 0 -121 30 -144 88h-3c-28 -56 -73 -88 -134 -88c-74 0 -128 60 -128 148c0 118 105 168 215 169v21c0 46 -25 83 -78 83c-31 0 -64 -12 -85 -26l-21 72c32 20 80 35 127 35
c54 0 101 -27 119 -82h2c26 54 73 82 126 82c94 0 145 -95 145 -223c0 -16 -1 -30 -2 -45zM239 157v83c-43 0 -120 -11 -120 -95c0 -51 29 -72 56 -72s52 20 60 56c3 9 4 19 4 28zM342 297h131c2 72 -22 120 -60 120c-48 0 -70 -66 -71 -120z" />
    <glyph glyph-name="dotlessi" unicode="&#x131;" horiz-adv-x="205" 
d="M156 0h-107v487h107v-487z" />
    <glyph glyph-name="lslash" unicode="&#x142;" horiz-adv-x="214" 
d="M161 0h-107v284l-58 -54v91l58 55v316h107v-247l59 56v-92l-59 -55v-354z" />
    <glyph glyph-name="oslash" unicode="&#xf8;" horiz-adv-x="410" 
d="M207 494c30 0 58 -9 84 -27l29 55l51 -27l-37 -70c28 -42 45 -103 45 -181c0 -196 -101 -252 -173 -252c-32 0 -61 9 -86 26l-29 -55l-48 31l34 65c-29 42 -46 103 -46 183c0 176 87 252 176 252zM142 158l108 226c-8 17 -22 28 -45 28c-64 0 -74 -108 -74 -168
c0 -24 1 -54 8 -83zM268 321l-105 -219c8 -17 22 -28 43 -28c58 0 73 89 73 160c0 25 -1 55 -7 86z" />
    <glyph glyph-name="oe" unicode="&#x153;" horiz-adv-x="640" 
d="M610 218h-229c4 -112 51 -144 108 -144c36 0 65 9 89 18l16 -73c-37 -22 -82 -27 -122 -27c-59 0 -114 27 -142 91h-2c-25 -64 -80 -91 -129 -91c-97 0 -168 86 -168 250c0 173 86 252 176 252c51 0 102 -27 125 -89h2c29 57 74 89 132 89c95 0 146 -95 146 -222
c0 -25 -1 -43 -2 -54zM208 412c-61 0 -71 -102 -71 -169c0 -81 14 -169 72 -169c60 0 70 91 70 171c0 73 -11 167 -71 167zM383 290h130c2 77 -23 124 -58 124c-48 0 -70 -65 -72 -124z" />
    <glyph glyph-name="germandbls" unicode="&#xdf;" horiz-adv-x="464" 
d="M156 0h-107v440c0 107 23 168 65 208c35 34 82 52 136 52c99 0 165 -65 165 -163c0 -30 -11 -63 -24 -80c-35 -16 -57 -43 -57 -74c0 -30 16 -51 41 -80c45 -50 65 -92 65 -153c0 -99 -74 -158 -165 -158c-33 0 -63 6 -82 14l14 82c18 -9 40 -12 63 -12c45 0 69 30 69 65
c0 37 -19 63 -47 96c-34 40 -59 74 -59 129c0 52 31 96 72 117c7 16 8 34 8 48c0 59 -37 83 -71 83c-49 0 -86 -41 -86 -170v-444z" />
    <glyph glyph-name="onesuperior" unicode="&#xb9;" horiz-adv-x="227" 
d="M176 417h-79v319h-2l-72 -36l-14 59l97 48h70v-390z" />
    <glyph glyph-name="logicalnot" unicode="&#xac;" horiz-adv-x="596" 
d="M40 411h516v-299h-71v229h-445v70z" />
    <glyph glyph-name="mu" unicode="&#xb5;" horiz-adv-x="429" 
d="M293 49l-3 1c-12 -24 -42 -52 -79 -52c-24 0 -45 7 -60 29v-53c0 -67 4 -134 10 -166h-97c-9 24 -15 82 -15 171v508h107v-314c0 -56 15 -94 54 -94c34 0 51 29 57 48c3 11 5 28 5 44v316h107v-362c0 -38 7 -54 32 -53l-10 -76c-8 -3 -20 -4 -33 -4c-39 0 -62 18 -75 57z
" />
    <glyph glyph-name="trademark" unicode="&#x2122;" horiz-adv-x="525" 
d="M25 674h185v-55h-60v-217h-65v217h-60v55zM509 402h-59l-6 137c-1 26 -1 57 -2 93h-2c-6 -38 -12 -71 -17 -95l-28 -131h-60l-26 134c-3 23 -9 61 -14 92h-2c-1 -32 -1 -64 -3 -93l-6 -137h-57l14 272h94l22 -94c4 -25 7 -42 12 -79h1c4 29 9 55 13 78l24 95h88z" />
    <glyph glyph-name="Eth" unicode="&#xd0;" horiz-adv-x="475" 
d="M0 312v76h64v276c31 8 74 13 120 13c78 0 134 -19 174 -56c55 -49 89 -137 89 -273c0 -145 -36 -236 -87 -286c-45 -46 -111 -68 -198 -68c-37 0 -74 3 -98 7v311h-64zM257 388v-76h-87v-228c9 -2 19 -2 26 -2c74 0 141 62 141 268c0 153 -43 241 -136 241
c-12 0 -22 -1 -31 -3v-200h87z" />
    <glyph glyph-name="onehalf" unicode="&#xbd;" horiz-adv-x="643" 
d="M177 263h-79v319h-2l-72 -36l-14 59l97 48h70v-390zM147 -8h-60l345 666h59zM372 0v42l43 54c51 62 101 120 101 173c0 42 -23 59 -55 59c-26 0 -49 -13 -64 -25l-19 58c20 17 58 34 104 34c87 0 118 -56 118 -110c0 -73 -56 -136 -104 -188l-23 -27v-3h132v-67h-233z
" />
    <glyph glyph-name="plusminus" unicode="&#xb1;" horiz-adv-x="596" 
d="M262 567h72v-182h222v-70h-222v-187h-72v187h-222v70h222v182zM40 70h516v-70h-516v70z" />
    <glyph glyph-name="Thorn" unicode="&#xde;" horiz-adv-x="428" 
d="M59 0v674h104v-123c12 1 28 2 46 2c56 0 103 -12 142 -47c39 -36 54 -88 54 -144c0 -153 -107 -213 -204 -213c-14 0 -28 1 -38 3v-152h-104zM163 463v-223c9 -2 20 -3 32 -3c66 0 105 46 105 118c0 62 -25 111 -99 111c-15 0 -28 -1 -38 -3z" />
    <glyph glyph-name="onequarter" unicode="&#xbc;" horiz-adv-x="643" 
d="M190 263h-79v319h-2l-72 -36l-14 59l97 48h70v-390zM172 -8h-60l346 666h59zM567 0h-72v97h-148v49l142 246h78v-236h44v-59h-44v-97zM495 156v83c0 29 2 53 3 70h-2c-11 -22 -17 -38 -29 -60l-50 -91v-2h78z" />
    <glyph glyph-name="divide" unicode="&#xf7;" horiz-adv-x="596" 
d="M297 386c-31 0 -51 24 -51 54c0 32 21 55 52 55c32 0 52 -23 52 -55c0 -30 -18 -54 -53 -54zM555 232h-515v70h515v-70zM297 39c-31 0 -51 24 -51 54c0 32 21 55 52 55c32 0 52 -23 52 -55c0 -30 -18 -54 -53 -54z" />
    <glyph glyph-name="brokenbar" unicode="&#xa6;" horiz-adv-x="210" 
d="M64 174h82v-350h-82v350zM64 674h82v-350h-82v350z" />
    <glyph glyph-name="degree" unicode="&#xb0;" horiz-adv-x="284" 
d="M150 684c72 0 120 -56 120 -123c0 -79 -63 -127 -123 -127c-69 0 -120 53 -120 122c0 72 58 128 123 128zM147 637c-36 0 -67 -36 -67 -80c0 -42 31 -76 69 -76s68 33 68 77c0 41 -24 79 -70 79z" />
    <glyph glyph-name="thorn" unicode="&#xfe;" horiz-adv-x="425" 
d="M49 667h106v-240h2c21 45 56 67 98 67c90 0 139 -105 139 -250c0 -176 -76 -252 -147 -252c-49 0 -77 28 -90 55h-2v-239h-106v859zM155 306v-128c0 -17 3 -32 7 -42c12 -46 37 -56 54 -56c54 0 72 76 72 162c0 95 -23 162 -71 162c-27 0 -50 -29 -56 -61
c-4 -11 -6 -23 -6 -37z" />
    <glyph glyph-name="threequarters" unicode="&#xbe;" horiz-adv-x="643" 
d="M57 578l-14 55c20 13 54 25 91 25c76 0 110 -46 110 -93c0 -42 -24 -73 -64 -90v-2c39 -8 76 -45 76 -95c0 -68 -55 -120 -145 -120c-34 0 -64 8 -83 20l13 59c15 -9 40 -18 69 -18c36 0 64 23 64 60c0 44 -33 66 -81 66h-10v53h7c31 0 76 15 76 54c0 29 -20 45 -48 45
c-26 0 -44 -8 -61 -19zM189 -8h-60l345 666h59zM571 0h-72v97h-147v49l142 246h77v-236h44v-59h-44v-97zM499 156v83c0 29 2 53 3 70h-2c-10 -22 -17 -38 -29 -60l-50 -91v-2h78z" />
    <glyph glyph-name="twosuperior" unicode="&#xb2;" horiz-adv-x="261" 
d="M5 417v42l44 54c51 62 101 120 101 173c0 42 -23 59 -55 59c-26 0 -49 -13 -64 -25l-19 58c20 17 58 34 104 34c87 0 118 -56 118 -110c0 -73 -57 -136 -104 -189l-23 -27v-2h132v-67h-234z" />
    <glyph glyph-name="registered" unicode="&#xae;" horiz-adv-x="373" 
d="M165 505v-58h-38v151c11 2 32 6 58 6c29 0 42 -5 53 -13c9 -6 16 -17 16 -32c0 -16 -14 -29 -33 -35v-2c16 -5 24 -17 29 -38c4 -22 7 -31 10 -37h-41c-5 6 -8 19 -11 35s-11 23 -28 23h-15zM166 573v-39h15c17 0 30 6 30 20c0 13 -9 20 -28 20c-8 0 -13 -1 -17 -1z
M188 684c87 0 157 -70 157 -158c0 -89 -70 -160 -158 -160s-159 71 -159 160c0 88 71 158 160 158zM185 648c-65 0 -114 -55 -114 -122c0 -69 49 -123 116 -123c65 -1 115 54 115 123c0 67 -50 122 -117 122z" />
    <glyph glyph-name="minus" unicode="&#x2212;" horiz-adv-x="596" 
d="M40 302h516v-70h-516v70z" />
    <glyph glyph-name="eth" unicode="&#xf0;" horiz-adv-x="409" 
d="M206 74c55 0 66 92 66 165c0 49 -1 95 -12 129c-8 26 -23 46 -54 46c-59 0 -69 -108 -69 -170c0 -82 15 -170 69 -170zM82 505l-24 39l82 45c-17 20 -41 40 -66 61l62 56c27 -22 57 -47 85 -75l91 51l25 -41l-82 -44c35 -39 61 -82 82 -125c29 -60 41 -132 41 -218
c0 -205 -100 -262 -176 -262c-103 0 -171 87 -171 250c0 159 74 233 148 242c19 2 37 1 55 -10l2 3c-15 29 -37 58 -58 80z" />
    <glyph glyph-name="multiply" unicode="&#xd7;" horiz-adv-x="596" 
d="M40 475l47 51l211 -214l210 214l48 -51l-209 -212l208 -211l-49 -52l-208 213l-209 -213l-49 52l208 211z" />
    <glyph glyph-name="threesuperior" unicode="&#xb3;" horiz-adv-x="249" 
d="M33 732l-14 55c20 13 54 25 91 25c76 0 110 -46 110 -93c0 -42 -24 -73 -64 -90v-2c39 -8 76 -45 76 -95c0 -68 -55 -120 -144 -120c-35 0 -65 8 -84 20l14 59c15 -9 39 -18 68 -18c36 0 64 23 64 60c0 44 -33 66 -81 66h-10v53h7c31 0 76 15 76 54c0 29 -20 45 -48 45
c-26 0 -44 -8 -61 -19z" />
    <glyph glyph-name="copyright" unicode="&#xa9;" horiz-adv-x="677" 
d="M341 648c170 0 304 -138 304 -308c0 -172 -134 -310 -305 -310c-172 0 -308 138 -308 310c0 170 136 308 309 308zM338 599c-139 0 -248 -116 -248 -261c0 -144 109 -258 249 -259c139 -1 248 115 248 260c0 144 -109 260 -249 260zM474 495l-14 -48c-13 6 -48 21 -95 21
c-83 0 -132 -53 -132 -132c0 -76 49 -131 130 -131c40 0 75 10 98 22l13 -45c-35 -21 -74 -29 -121 -29c-115 0 -182 80 -182 181c0 114 85 186 196 186c48 0 93 -15 107 -25z" />
    <glyph glyph-name="Aacute" unicode="&#xc1;" horiz-adv-x="448" 
d="M287 175h-133l-37 -175h-103l150 674h124l139 -674h-104zM166 259h110l-28 155c-8 44 -17 106 -24 153h-3c-8 -47 -18 -112 -26 -154zM259 821h114l-123 -111h-79z" />
    <glyph glyph-name="Acircumflex" unicode="&#xc2;" horiz-adv-x="448" 
d="M287 175h-133l-37 -175h-103l150 674h124l139 -674h-104zM166 259h110l-28 155c-8 44 -17 106 -24 153h-3c-8 -47 -18 -112 -26 -154zM182 814h86l86 -104h-83l-45 53h-2l-44 -53h-81z" />
    <glyph glyph-name="Adieresis" unicode="&#xc4;" horiz-adv-x="448" 
d="M287 175h-133l-37 -175h-103l150 674h124l139 -674h-104zM166 259h110l-28 155c-8 44 -17 106 -24 153h-3c-8 -47 -18 -112 -26 -154zM141 715c-28 0 -51 24 -51 56s24 56 52 56c29 0 52 -24 52 -56s-23 -56 -53 -56zM315 715c-28 0 -51 24 -51 56s24 56 52 56
c30 0 52 -24 52 -56s-22 -56 -53 -56z" />
    <glyph glyph-name="Agrave" unicode="&#xc0;" horiz-adv-x="448" 
d="M287 175h-133l-37 -175h-103l150 674h124l139 -674h-104zM166 259h110l-28 155c-8 44 -17 106 -24 153h-3c-8 -47 -18 -112 -26 -154zM84 821h114l88 -111h-79z" />
    <glyph glyph-name="Aring" unicode="&#xc5;" horiz-adv-x="448" 
d="M287 175h-133l-37 -175h-103l150 674h124l139 -674h-104zM166 259h110l-28 155c-8 44 -17 106 -24 153h-3c-8 -47 -18 -112 -26 -154zM227 878c67 0 99 -42 99 -90c0 -47 -35 -90 -100 -90c-67 0 -100 43 -100 88c0 47 35 92 101 92zM225 836c-28 0 -40 -26 -40 -49
c0 -22 13 -46 41 -46s41 22 41 47c0 24 -13 48 -42 48z" />
    <glyph glyph-name="Atilde" unicode="&#xc3;" horiz-adv-x="448" 
d="M288 175h-134l-37 -175h-103l150 674h125l139 -674h-104zM166 259h111l-29 155c-8 44 -17 106 -24 153h-3c-8 -47 -18 -112 -26 -154zM168 718h-51c-2 66 24 106 63 106c21 0 36 -9 50 -18s26 -17 38 -17c15 0 22 9 25 37h50c2 -71 -21 -103 -66 -103c-21 0 -38 8 -51 16
c-14 9 -24 16 -36 16s-20 -12 -22 -37z" />
    <glyph glyph-name="Ccedilla" unicode="&#xc7;" horiz-adv-x="399" 
d="M356 100l13 -90c-19 -8 -52 -15 -86 -16l-21 -40c35 -6 66 -34 66 -73c0 -60 -51 -83 -102 -83c-25 0 -53 7 -71 18l17 49c17 -8 34 -14 52 -14c17 0 34 7 34 28c0 23 -28 36 -69 40l37 79c-127 23 -198 136 -198 329c0 260 137 353 257 353c44 0 74 -9 88 -17l-20 -91
c-16 8 -32 14 -64 14c-73 0 -148 -67 -148 -251c0 -182 68 -247 149 -247c24 0 50 6 66 12z" />
    <glyph glyph-name="Eacute" unicode="&#xc9;" horiz-adv-x="376" 
d="M326 396v-89h-160v-214h182v-93h-289v674h277v-93h-170v-185h160zM238 821h114l-123 -111h-79z" />
    <glyph glyph-name="Ecircumflex" unicode="&#xca;" horiz-adv-x="376" 
d="M326 396v-89h-160v-214h182v-93h-289v674h277v-93h-170v-185h160zM156 814h86l86 -104h-83l-45 53h-2l-44 -53h-81z" />
    <glyph glyph-name="Edieresis" unicode="&#xcb;" horiz-adv-x="376" 
d="M326 396v-89h-160v-214h181v-93h-288v674h276v-93h-169v-185h160zM111 719c-28 0 -51 24 -51 56s24 56 52 56c29 0 52 -24 52 -56s-23 -56 -53 -56zM285 719c-28 0 -51 24 -51 56s24 56 52 56c30 0 52 -24 52 -56s-22 -56 -53 -56z" />
    <glyph glyph-name="Egrave" unicode="&#xc8;" horiz-adv-x="376" 
d="M326 396v-89h-160v-214h182v-93h-289v674h277v-93h-170v-185h160zM59 821h114l88 -111h-79z" />
    <glyph glyph-name="Iacute" unicode="&#xcd;" horiz-adv-x="226" 
d="M59 674h107v-674h-107v674zM142 821h114l-123 -111h-79z" />
    <glyph glyph-name="Icircumflex" unicode="&#xce;" horiz-adv-x="226" 
d="M59 674h107v-674h-107v674zM69 814h86l86 -104h-83l-45 53h-2l-44 -53h-81z" />
    <glyph glyph-name="Idieresis" unicode="&#xcf;" horiz-adv-x="226" 
d="M59 674h107v-674h-107v674zM25 719c-28 0 -51 24 -51 56s24 56 52 56c29 0 52 -24 52 -56s-23 -56 -53 -56zM199 719c-28 0 -51 24 -51 56s24 56 52 56c30 0 52 -24 52 -56s-22 -56 -53 -56z" />
    <glyph glyph-name="Igrave" unicode="&#xcc;" horiz-adv-x="226" 
d="M59 674h107v-674h-107v674zM-35 821h114l88 -111h-79z" />
    <glyph glyph-name="Ntilde" unicode="&#xd1;" horiz-adv-x="493" 
d="M153 0h-94v674h98l114 -288c24 -61 58 -148 79 -213h2c-6 86 -12 190 -12 311v190h94v-674h-98l-115 287c-25 62 -55 143 -74 214h-2c5 -78 8 -173 8 -313v-188zM187 718h-51c-2 66 24 106 63 106c21 0 37 -9 50 -18c15 -9 27 -17 39 -17c15 0 22 9 25 37h50
c2 -71 -21 -103 -66 -103c-21 0 -38 8 -52 16c-13 9 -24 16 -35 16c-13 0 -21 -12 -23 -37z" />
    <glyph glyph-name="Oacute" unicode="&#xd3;" horiz-adv-x="465" 
d="M240 682c141 0 197 -155 197 -336c0 -254 -89 -354 -208 -354c-134 0 -201 142 -201 346c0 202 76 344 212 344zM234 589c-67 0 -95 -111 -95 -252c0 -147 28 -252 96 -252c69 0 91 121 91 256c0 122 -20 248 -92 248zM268 821h114l-123 -111h-79z" />
    <glyph glyph-name="Ocircumflex" unicode="&#xd4;" horiz-adv-x="465" 
d="M240 682c141 0 197 -155 197 -336c0 -254 -89 -354 -208 -354c-134 0 -201 142 -201 346c0 202 76 344 212 344zM234 589c-67 0 -95 -111 -95 -252c0 -147 28 -252 96 -252c69 0 91 121 91 256c0 122 -20 248 -92 248zM189 814h86l86 -104h-83l-45 53h-2l-44 -53h-81z
" />
    <glyph glyph-name="Odieresis" unicode="&#xd6;" horiz-adv-x="465" 
d="M240 682c141 0 197 -155 197 -336c0 -254 -89 -354 -208 -354c-134 0 -201 142 -201 346c0 202 76 344 212 344zM234 589c-67 0 -95 -111 -95 -252c0 -147 28 -252 96 -252c69 0 91 121 91 256c0 122 -20 248 -92 248zM144 719c-28 0 -51 24 -51 56s24 56 52 56
c29 0 52 -24 52 -56s-23 -56 -53 -56zM318 719c-28 0 -51 24 -51 56s24 56 52 56c30 0 52 -24 52 -56s-22 -56 -53 -56z" />
    <glyph glyph-name="Ograve" unicode="&#xd2;" horiz-adv-x="465" 
d="M240 682c141 0 197 -155 197 -336c0 -254 -89 -354 -208 -354c-134 0 -201 142 -201 346c0 202 76 344 212 344zM234 589c-67 0 -95 -111 -95 -252c0 -147 28 -252 96 -252c69 0 91 121 91 256c0 122 -20 248 -92 248zM88 821h114l88 -111h-79z" />
    <glyph glyph-name="Otilde" unicode="&#xd5;" horiz-adv-x="465" 
d="M240 682c141 0 197 -155 197 -336c0 -254 -89 -354 -208 -354c-134 0 -201 142 -201 346c0 202 76 344 212 344zM234 589c-67 0 -95 -111 -95 -252c0 -147 28 -252 96 -252c69 0 91 121 91 256c0 122 -20 248 -92 248zM170 714h-51c-2 66 24 106 63 106
c21 0 37 -9 51 -17c14 -9 26 -17 38 -17c15 0 22 9 25 37h50c2 -71 -21 -103 -66 -103c-21 0 -38 8 -52 15c-14 9 -24 16 -35 16c-13 0 -21 -12 -23 -37z" />
    <glyph glyph-name="Scaron" unicode="&#x160;" horiz-adv-x="379" 
d="M26 22l18 92c25 -15 69 -27 104 -27c66 0 102 38 102 94c0 54 -33 85 -88 123c-75 48 -127 115 -127 188c0 105 71 188 197 188c43 0 82 -13 100 -24l-19 -92c-19 12 -47 23 -83 23c-61 0 -90 -41 -90 -82c0 -52 27 -76 96 -120c85 -56 119 -121 119 -193
c0 -121 -86 -198 -207 -198c-50 0 -101 14 -122 28zM247 710h-86l-86 104h83l45 -55h2l44 55h81z" />
    <glyph glyph-name="Uacute" unicode="&#xda;" horiz-adv-x="481" 
d="M56 674h107v-444c0 -109 34 -144 76 -144c47 0 78 34 78 144v444h107v-426c0 -174 -69 -256 -185 -256c-123 0 -183 83 -183 251v431zM270 821h114l-123 -111h-79z" />
    <glyph glyph-name="Ucircumflex" unicode="&#xdb;" horiz-adv-x="481" 
d="M56 674h107v-444c0 -109 34 -144 76 -144c47 0 78 34 78 144v444h107v-426c0 -174 -69 -256 -185 -256c-123 0 -183 83 -183 251v431zM198 814h86l86 -104h-83l-45 53h-2l-44 -53h-81z" />
    <glyph glyph-name="Udieresis" unicode="&#xdc;" horiz-adv-x="481" 
d="M56 674h107v-444c0 -109 34 -144 76 -144c47 0 78 34 78 144v444h107v-426c0 -174 -69 -256 -185 -256c-123 0 -183 83 -183 251v431zM151 719c-28 0 -51 24 -51 56s24 56 52 56c29 0 52 -24 52 -56s-23 -56 -53 -56zM325 719c-28 0 -51 24 -51 56s24 56 52 56
c30 0 52 -24 52 -56s-22 -56 -53 -56z" />
    <glyph glyph-name="Ugrave" unicode="&#xd9;" horiz-adv-x="481" 
d="M56 674h107v-444c0 -109 34 -144 76 -144c47 0 78 34 78 144v444h107v-426c0 -174 -69 -256 -185 -256c-123 0 -183 83 -183 251v431zM95 821h114l88 -111h-79z" />
    <glyph glyph-name="Yacute" unicode="&#xdd;" horiz-adv-x="398" 
d="M251 0h-107v270l-148 404h113l52 -164c15 -45 30 -97 42 -148h2c11 50 25 101 40 151l47 161h111l-152 -400v-274zM240 821h114l-123 -111h-79z" />
    <glyph glyph-name="Ydieresis" unicode="&#x178;" horiz-adv-x="398" 
d="M251 0h-107v270l-148 404h113l52 -164c15 -45 30 -97 42 -148h2c11 50 25 101 40 151l47 161h111l-152 -400v-274zM116 715c-28 0 -51 24 -51 56s24 56 52 56c29 0 52 -24 52 -56s-23 -56 -53 -56zM290 715c-28 0 -51 24 -51 56s24 56 52 56c30 0 52 -24 52 -56
s-22 -56 -53 -56z" />
    <glyph glyph-name="Zcaron" unicode="&#x17d;" horiz-adv-x="374" 
d="M15 0v63l221 516v2h-201v93h322v-77l-215 -501v-3h214v-93h-341zM240 710h-86l-86 104h83l45 -55h2l44 55h81z" />
    <glyph glyph-name="aacute" unicode="&#xe1;" horiz-adv-x="396" 
d="M346 305v-194c0 -38 1 -79 6 -111h-96l-6 50h-2c-25 -38 -61 -58 -103 -58c-70 0 -123 58 -123 144c0 125 106 178 216 179v13c0 50 -20 85 -73 85c-35 0 -64 -10 -91 -26l-20 72c24 15 75 35 134 35c126 0 158 -86 158 -189zM241 153v91c-42 -1 -117 -12 -117 -97
c0 -55 29 -75 53 -75c27 0 52 18 61 56c2 8 3 16 3 25zM224 686h99l-103 -138h-68z" />
    <glyph glyph-name="acircumflex" unicode="&#xe2;" horiz-adv-x="396" 
d="M346 305v-194c0 -38 1 -79 6 -111h-96l-6 50h-2c-25 -38 -61 -58 -103 -58c-70 0 -123 58 -123 144c0 125 106 178 216 179v13c0 50 -20 85 -73 85c-35 0 -64 -10 -91 -26l-20 72c24 15 75 35 134 35c126 0 158 -86 158 -189zM241 153v91c-42 -1 -117 -12 -117 -97
c0 -55 29 -75 53 -75c27 0 52 18 61 56c2 8 3 16 3 25zM160 686h74l82 -138h-75l-44 83h-2l-42 -83h-76z" />
    <glyph glyph-name="adieresis" unicode="&#xe4;" horiz-adv-x="396" 
d="M346 305v-194c0 -38 1 -79 6 -111h-96l-6 50h-2c-25 -38 -61 -58 -103 -58c-70 0 -123 58 -123 144c0 125 106 178 216 179v13c0 50 -20 85 -73 85c-35 0 -64 -10 -91 -26l-20 72c24 15 75 35 134 35c126 0 158 -86 158 -189zM241 153v91c-42 -1 -117 -12 -117 -97
c0 -55 29 -75 53 -75c27 0 52 18 61 56c2 8 3 16 3 25zM113 564c-28 0 -52 23 -52 55s24 55 53 55s52 -23 52 -55s-22 -55 -53 -55zM280 564c-28 0 -52 23 -52 55s24 55 53 55s52 -23 52 -55s-22 -55 -53 -55z" />
    <glyph glyph-name="agrave" unicode="&#xe0;" horiz-adv-x="396" 
d="M346 305v-194c0 -38 1 -79 6 -111h-96l-6 50h-2c-25 -38 -61 -58 -103 -58c-70 0 -123 58 -123 144c0 125 106 178 216 179v13c0 50 -20 85 -73 85c-35 0 -64 -10 -91 -26l-20 72c24 15 75 35 134 35c126 0 158 -86 158 -189zM241 153v91c-42 -1 -117 -12 -117 -97
c0 -55 29 -75 53 -75c27 0 52 18 61 56c2 8 3 16 3 25zM69 686h99l72 -138h-68z" />
    <glyph glyph-name="aring" unicode="&#xe5;" horiz-adv-x="396" 
d="M346 305v-194c0 -38 1 -79 6 -111h-96l-6 50h-2c-25 -38 -61 -58 -103 -58c-70 0 -123 58 -123 144c0 125 106 178 216 179v13c0 50 -20 85 -73 85c-35 0 -64 -10 -91 -26l-20 72c24 15 75 35 134 35c126 0 158 -86 158 -189zM241 153v91c-41 -1 -117 -12 -117 -97
c0 -55 29 -75 53 -75c27 0 53 18 61 56c2 8 3 16 3 25zM199 536c-63 0 -99 39 -99 87c0 51 34 92 100 92c62 0 96 -39 96 -90c0 -49 -37 -89 -97 -89zM198 576c32 0 44 26 44 50c0 23 -11 49 -45 49c-30 0 -42 -28 -42 -51c0 -20 12 -48 43 -48z" />
    <glyph glyph-name="atilde" unicode="&#xe3;" horiz-adv-x="396" 
d="M346 305v-194c0 -38 1 -79 6 -111h-96l-6 50h-2c-25 -38 -61 -58 -103 -58c-70 0 -123 58 -123 144c0 125 106 178 216 179v13c0 50 -20 85 -73 85c-35 0 -64 -10 -91 -26l-20 72c24 15 75 35 134 35c126 0 158 -86 158 -189zM241 153v91c-42 -1 -117 -12 -117 -97
c0 -55 29 -75 53 -75c27 0 52 18 61 56c2 8 3 16 3 25zM134 559h-52c0 59 22 107 67 107c22 0 38 -10 53 -18c13 -8 25 -16 38 -16c14 0 22 6 23 37h50c0 -69 -24 -103 -67 -103c-18 0 -36 9 -50 16c-15 8 -25 17 -38 17c-14 0 -23 -14 -24 -40z" />
    <glyph glyph-name="ccedilla" unicode="&#xe7;" horiz-adv-x="313" 
d="M294 94l12 -84c-16 -8 -46 -15 -78 -16l-21 -40c35 -6 66 -33 66 -73c0 -60 -51 -83 -101 -83c-26 0 -53 7 -71 18l17 49c16 -8 34 -14 51 -14c18 0 34 7 34 28c0 23 -26 36 -68 40l36 81c-86 22 -140 103 -140 239c0 146 80 254 209 254c28 0 56 -7 69 -14l-16 -85
c-10 5 -28 11 -51 11c-69 0 -105 -74 -105 -164c0 -99 40 -159 105 -159c19 0 38 4 52 12z" />
    <glyph glyph-name="eacute" unicode="&#xe9;" horiz-adv-x="394" 
d="M363 215h-229c1 -109 52 -139 109 -139c36 0 66 8 87 17l16 -76c-31 -14 -78 -23 -123 -23c-126 0 -193 91 -193 242c0 160 77 258 182 258c102 0 154 -92 154 -222c0 -28 -1 -44 -3 -57zM134 291h133c1 77 -25 123 -63 123c-47 0 -68 -66 -70 -123zM242 686h98
l-103 -138h-68z" />
    <glyph glyph-name="ecircumflex" unicode="&#xea;" horiz-adv-x="394" 
d="M363 215h-229c1 -109 52 -139 109 -139c36 0 66 8 87 17l16 -76c-31 -14 -78 -23 -123 -23c-126 0 -193 91 -193 242c0 160 77 258 182 258c102 0 154 -92 154 -222c0 -28 -1 -44 -3 -57zM134 291h133c1 77 -25 123 -63 123c-47 0 -68 -66 -70 -123zM174 686h74l82 -138
h-75l-43 83h-2l-43 -83h-76z" />
    <glyph glyph-name="edieresis" unicode="&#xeb;" horiz-adv-x="394" 
d="M363 215h-229c1 -109 52 -139 109 -139c36 0 66 8 87 17l16 -76c-31 -14 -78 -23 -123 -23c-126 0 -193 91 -193 242c0 160 77 258 182 258c102 0 154 -92 154 -222c0 -28 -1 -44 -3 -57zM134 291h133c1 77 -25 123 -63 123c-47 0 -68 -66 -70 -123zM130 564
c-28 0 -52 23 -52 55s24 55 53 55s52 -23 52 -55s-22 -55 -53 -55zM297 564c-28 0 -52 23 -52 55s24 55 53 55s52 -23 52 -55s-22 -55 -53 -55z" />
    <glyph glyph-name="egrave" unicode="&#xe8;" horiz-adv-x="394" 
d="M363 215h-229c1 -109 52 -139 109 -139c36 0 66 8 87 17l16 -76c-31 -14 -78 -23 -123 -23c-126 0 -193 91 -193 242c0 160 77 258 182 258c102 0 154 -92 154 -222c0 -28 -1 -44 -3 -57zM134 291h133c1 77 -25 123 -63 123c-47 0 -68 -66 -70 -123zM85 686h99l72 -138
h-68z" />
    <glyph glyph-name="iacute" unicode="&#xed;" horiz-adv-x="205" 
d="M156 0h-107v487h107v-487zM132 686h99l-103 -138h-68z" />
    <glyph glyph-name="icircumflex" unicode="&#xee;" horiz-adv-x="205" 
d="M156 0h-107v487h107v-487zM67 686h74l82 -138h-75l-43 83h-2l-43 -83h-76z" />
    <glyph glyph-name="idieresis" unicode="&#xef;" horiz-adv-x="205" 
d="M156 0h-107v487h107v-487zM18 564c-28 0 -52 23 -52 55s24 55 53 55s52 -23 52 -55s-22 -55 -53 -55zM186 564c-28 0 -52 23 -52 55s24 55 53 55s52 -23 52 -55s-22 -55 -53 -55z" />
    <glyph glyph-name="igrave" unicode="&#xec;" horiz-adv-x="205" 
d="M156 0h-107v487h107v-487zM-26 686h99l72 -138h-68z" />
    <glyph glyph-name="ntilde" unicode="&#xf1;" horiz-adv-x="434" 
d="M49 0v350c0 55 -2 94 -4 137h93l5 -58h2c23 39 64 65 115 65c82 0 125 -63 125 -176v-318h-107v308c0 49 -10 96 -57 96c-26 0 -50 -20 -60 -59c-3 -11 -5 -27 -5 -45v-300h-107zM156 559h-52c0 59 22 107 67 107c22 0 38 -10 53 -18c13 -8 25 -16 38 -16
c14 0 22 6 23 37h50c0 -69 -24 -103 -67 -103c-18 0 -37 9 -50 16c-15 8 -25 17 -38 17c-14 0 -23 -14 -24 -40z" />
    <glyph glyph-name="oacute" unicode="&#xf3;" horiz-adv-x="410" 
d="M208 494c102 0 171 -90 171 -250c0 -196 -101 -252 -175 -252c-103 0 -173 86 -173 250c0 176 86 252 177 252zM206 412c-57 0 -69 -98 -69 -168c0 -82 14 -170 71 -170c53 0 65 96 65 170c0 70 -12 168 -67 168zM237 686h99l-103 -138h-68z" />
    <glyph glyph-name="ocircumflex" unicode="&#xf4;" horiz-adv-x="410" 
d="M208 494c102 0 171 -90 171 -250c0 -196 -101 -252 -175 -252c-103 0 -173 86 -173 250c0 176 86 252 177 252zM206 412c-57 0 -69 -98 -69 -168c0 -82 14 -170 71 -170c53 0 65 96 65 170c0 70 -12 168 -67 168zM169 686h74l82 -138h-75l-43 83h-2l-43 -83h-76z" />
    <glyph glyph-name="odieresis" unicode="&#xf6;" horiz-adv-x="410" 
d="M208 494c102 0 171 -90 171 -250c0 -196 -101 -252 -175 -252c-103 0 -173 86 -173 250c0 176 86 252 177 252zM206 412c-57 0 -69 -98 -69 -168c0 -82 14 -170 71 -170c53 0 65 96 65 170c0 70 -12 168 -67 168zM120 564c-28 0 -52 23 -52 55s24 55 53 55s52 -23 52 -55
s-22 -55 -53 -55zM288 564c-28 0 -52 23 -52 55s24 55 53 55s52 -23 52 -55s-22 -55 -53 -55z" />
    <glyph glyph-name="ograve" unicode="&#xf2;" horiz-adv-x="410" 
d="M208 494c102 0 171 -90 171 -250c0 -196 -101 -252 -175 -252c-103 0 -173 86 -173 250c0 176 86 252 177 252zM206 412c-57 0 -69 -98 -69 -168c0 -82 14 -170 71 -170c53 0 65 96 65 170c0 70 -12 168 -67 168zM81 686h99l72 -138h-68z" />
    <glyph glyph-name="otilde" unicode="&#xf5;" horiz-adv-x="410" 
d="M208 494c102 0 171 -90 171 -250c0 -196 -101 -252 -175 -252c-103 0 -173 86 -173 250c0 176 86 252 177 252zM206 412c-57 0 -69 -98 -69 -168c0 -82 14 -170 71 -170c53 0 65 96 65 170c0 70 -12 168 -67 168zM141 559h-52c0 59 22 107 67 107c22 0 38 -10 54 -18
c13 -8 24 -16 38 -16s22 6 23 37h50c0 -69 -24 -103 -67 -103c-18 0 -37 9 -51 16c-15 8 -25 17 -38 17c-14 0 -23 -14 -24 -40z" />
    <glyph glyph-name="scaron" unicode="&#x161;" horiz-adv-x="308" 
d="M20 22l21 79c18 -12 51 -26 84 -26c38 0 61 20 61 56c0 30 -14 50 -59 78c-73 44 -99 90 -99 140c0 83 61 145 149 145c39 0 70 -11 93 -24l-21 -79c-19 12 -41 21 -67 21c-37 0 -55 -24 -55 -50c0 -27 12 -42 58 -72c65 -38 100 -86 100 -147c0 -99 -69 -149 -161 -149
c-38 0 -83 11 -104 28zM192 548h-74l-82 138h75l43 -83h2l43 83h76z" />
    <glyph glyph-name="uacute" unicode="&#xfa;" horiz-adv-x="428" 
d="M377 487v-345c0 -53 2 -101 4 -142h-93l-6 51h-2c-19 -29 -58 -59 -109 -59c-89 0 -125 67 -125 194v301h107v-288c0 -69 12 -118 56 -118c33 0 50 29 55 48c4 11 6 26 6 42v316h107zM248 686h99l-103 -138h-68z" />
    <glyph glyph-name="ucircumflex" unicode="&#xfb;" horiz-adv-x="428" 
d="M377 487v-345c0 -53 2 -101 4 -142h-93l-6 51h-2c-19 -29 -58 -59 -109 -59c-89 0 -125 67 -125 194v301h107v-288c0 -69 12 -118 56 -118c33 0 50 29 55 48c4 11 6 26 6 42v316h107zM177 686h75l82 -138h-75l-44 83h-2l-42 -83h-76z" />
    <glyph glyph-name="udieresis" unicode="&#xfc;" horiz-adv-x="428" 
d="M377 487v-345c0 -53 2 -101 4 -142h-93l-6 51h-2c-19 -29 -58 -59 -109 -59c-89 0 -125 67 -125 194v301h107v-288c0 -69 12 -118 56 -118c33 0 50 29 55 48c4 11 6 26 6 42v316h107zM132 564c-28 0 -52 23 -52 55s24 55 53 55s52 -23 52 -55s-22 -55 -53 -55zM300 564
c-28 0 -52 23 -52 55s24 55 53 55s52 -23 52 -55s-22 -55 -53 -55z" />
    <glyph glyph-name="ugrave" unicode="&#xf9;" horiz-adv-x="428" 
d="M377 487v-345c0 -53 2 -101 4 -142h-93l-6 51h-2c-19 -29 -58 -59 -109 -59c-89 0 -125 67 -125 194v301h107v-288c0 -69 12 -118 56 -118c33 0 50 29 55 48c4 11 6 26 6 42v316h107zM92 686h99l72 -138h-68z" />
    <glyph glyph-name="yacute" unicode="&#xfd;" horiz-adv-x="370" 
d="M9 487h114l55 -265c7 -33 11 -62 16 -90h2c5 26 11 58 16 89l48 266h105l-90 -348c-27 -105 -60 -210 -114 -277c-38 -46 -82 -69 -100 -76l-35 92c22 10 46 28 66 50c19 20 34 46 43 68c4 10 6 16 6 23c0 6 -1 12 -3 18zM218 686h99l-103 -138h-68z" />
    <glyph glyph-name="ydieresis" unicode="&#xff;" horiz-adv-x="370" 
d="M9 487h114l55 -265c7 -33 11 -62 16 -90h2c5 26 11 58 16 89l48 266h105l-90 -348c-27 -105 -60 -210 -114 -277c-38 -46 -82 -69 -100 -76l-35 92c22 10 46 28 66 50c19 20 34 46 43 68c4 10 6 16 6 23c0 6 -1 12 -3 18zM104 564c-28 0 -52 23 -52 55s24 55 53 55
s52 -23 52 -55s-22 -55 -53 -55zM272 564c-28 0 -52 23 -52 55s24 55 53 55s52 -23 52 -55s-22 -55 -53 -55z" />
    <glyph glyph-name="zcaron" unicode="&#x17e;" horiz-adv-x="334" 
d="M17 0v66l135 255c14 26 32 55 42 76v2h-161v88h278v-72l-132 -248c-15 -27 -32 -56 -43 -77v-2h177v-88h-296zM213 548h-74l-82 138h75l43 -83h2l43 83h76z" />
    <glyph glyph-name="Dcroat" unicode="&#x110;" horiz-adv-x="475" 
d="M0 312v76h64v276c31 8 74 13 120 13c78 0 134 -19 174 -56c55 -49 89 -137 89 -273c0 -145 -36 -236 -87 -286c-45 -46 -111 -68 -198 -68c-37 0 -74 3 -98 7v311h-64zM257 388v-76h-87v-228c9 -2 19 -2 26 -2c74 0 141 62 141 268c0 153 -43 241 -136 241
c-12 0 -22 -1 -31 -3v-200h87z" />
    <glyph glyph-name="Eng" unicode="&#x14a;" horiz-adv-x="493" 
d="M153 0h-94v674h98l114 -288c24 -61 58 -148 79 -213h2c-6 86 -12 190 -12 311v190h94v-647c0 -120 -43 -200 -155 -222l-26 81c55 16 85 50 85 103l-117 298c-25 62 -55 143 -74 214h-2c5 -78 8 -173 8 -313v-188z" />
    <glyph glyph-name="Hbar" unicode="&#x126;" horiz-adv-x="492" 
d="M478 476h-45v-476h-107v283h-160v-283h-107v476h-45v74h45v124h107v-124h160v124h107v-124h45v-74zM326 381v95h-160v-95h160z" />
    <glyph glyph-name="Tbar" unicode="&#x166;" horiz-adv-x="376" 
d="M362 576h-121v-190h82v-75h-82v-311h-107v311h-82v75h82v190h-121v98h349v-98z" />
    <glyph glyph-name="uni021C" unicode="&#x21c;" horiz-adv-x="367" 
d="M34 -116l-14 86c98 16 211 90 211 207c0 56 -32 114 -99 114c-21 0 -45 -4 -68 -12l-15 78c71 14 150 79 150 162c0 44 -31 76 -76 75c-31 0 -62 -11 -81 -20l-19 77c24 15 76 31 124 31c93 0 154 -69 154 -147c0 -83 -46 -143 -98 -172v-3c72 -15 137 -75 137 -178
c0 -177 -177 -288 -306 -298z" />
    <glyph glyph-name="dcroat" unicode="&#x111;" horiz-adv-x="425" 
d="M435 537h-59v-406c0 -39 2 -94 4 -131h-91l-7 58h-3c-16 -35 -54 -66 -101 -66c-94 0 -147 103 -147 250c0 170 73 252 152 252c40 0 69 -19 85 -53h2v96h-130v69h130v86h106v-86h59v-69zM270 171v129c0 10 0 20 -2 30c-4 39 -26 74 -58 74c-54 0 -73 -77 -73 -164
c0 -97 26 -160 71 -160c20 0 45 10 58 60c3 9 4 19 4 31z" />
    <glyph glyph-name="eng" unicode="&#x14b;" horiz-adv-x="434" 
d="M49 0v350c0 55 -2 94 -4 137h93l5 -58h2c23 39 64 65 115 65c82 0 125 -63 125 -176v-284c0 -144 -70 -201 -157 -216l-23 83c45 11 73 38 73 121v286c0 49 -10 96 -57 96c-26 0 -50 -20 -60 -59c-3 -11 -5 -27 -5 -45v-300h-107z" />
    <glyph glyph-name="hbar" unicode="&#x127;" horiz-adv-x="434" 
d="M385 0h-107v303c0 53 -11 101 -56 101c-28 0 -51 -18 -62 -60c-2 -9 -4 -25 -4 -36v-308h-107v537h-60v69h60v86h107v-86h133v-69h-133v-102h2c11 17 26 31 42 41c18 11 40 18 65 18c77 0 120 -64 120 -187v-307z" />
    <glyph glyph-name="kgreenlandic" unicode="&#x138;" horiz-adv-x="386" 
d="M155 487v-219h2c9 24 17 43 25 62l78 157h115l-122 -204l131 -283h-119l-85 213l-25 -43v-170h-106v487h106z" />
    <glyph glyph-name="napostrophe" unicode="&#x149;" horiz-adv-x="434" 
d="M49 0v350c0 55 -2 94 -4 137h93l5 -58h2c23 39 64 65 115 65c82 0 125 -63 125 -176v-318h-107v308c0 49 -10 96 -57 96c-26 0 -50 -20 -60 -59c-3 -11 -5 -27 -5 -45v-300h-107zM53 523l-48 27c13 16 30 47 30 79c0 27 -15 50 -30 61l76 11c17 -11 34 -34 34 -66
c0 -58 -44 -97 -62 -112z" />
    <glyph glyph-name="tbar" unicode="&#x167;" horiz-adv-x="286" 
d="M271 410h-94v-92h74v-69h-74v-92c0 -60 23 -75 50 -75c12 0 22 1 33 3l2 -83c-16 -5 -40 -8 -70 -8c-34 0 -65 9 -86 30c-24 24 -36 59 -36 132v93h-56v69h56v92h-58v77h58v84l107 37v-121h94v-77z" />
    <glyph glyph-name="uni021D" unicode="&#x21d;" horiz-adv-x="339" 
d="M24 -200l-9 87c80 5 198 53 198 163c0 41 -23 90 -94 90c-19 0 -40 -5 -62 -11l-14 78c70 17 140 51 140 122c0 49 -30 77 -71 77c-32 0 -55 -11 -75 -20l-20 77c24 15 68 31 117 31c91 0 148 -61 148 -139c0 -71 -38 -119 -89 -145v-3c70 -14 126 -63 126 -150
c0 -160 -165 -253 -295 -257z" />
    <glyph glyph-name="IJ" unicode="&#x132;" horiz-adv-x="508" 
d="M59 674h107v-674h-107v674zM350 200v474h107v-470c0 -175 -79 -212 -175 -212c-24 0 -45 3 -59 8l9 90c11 -3 24 -4 40 -4c46 0 78 18 78 114z" />
    <glyph glyph-name="ij" unicode="&#x133;" horiz-adv-x="414" 
d="M156 0h-107v487h107v-487zM101 676c34 0 58 -24 58 -62c0 -37 -24 -62 -59 -62c-31 0 -56 25 -56 62c0 38 26 62 57 62zM181 -200l-10 85c23 4 48 10 64 31c18 23 23 59 23 141v430h107v-454c0 -105 -19 -155 -58 -189c-33 -29 -87 -43 -126 -44zM312 676
c33 0 57 -24 57 -62c0 -37 -24 -62 -59 -62c-31 0 -56 25 -56 62c0 38 26 62 58 62z" />
    <glyph glyph-name="zero.slash" unicode="&#xf638;" horiz-adv-x="408" 
d="M135 213l123 307c-11 28 -28 47 -53 47c-53 0 -79 -89 -79 -242c0 -40 3 -77 9 -112zM273 439l-122 -312c11 -27 28 -44 52 -44c54 0 79 90 79 242c0 40 -3 78 -9 114zM376 652l-38 -77c33 -62 45 -153 45 -248c0 -235 -80 -335 -180 -335c-41 0 -76 16 -102 45l-26 -53
l-42 25l37 72c-31 55 -45 146 -45 242c0 210 62 335 184 335c39 0 72 -14 97 -40l27 57z" />
    <glyph glyph-name="Euro" unicode="&#x20ac;" horiz-adv-x="408" 
d="M377 104l14 -87c-19 -10 -60 -25 -103 -25c-53 0 -109 19 -150 69c-33 39 -58 97 -67 184h-50v58h46v13c0 14 1 28 0 39h-46v58h52c9 74 34 127 62 163c40 55 94 82 163 82c40 0 70 -12 88 -22l-19 -88c-13 8 -41 18 -67 18c-32 0 -59 -10 -80 -40
c-19 -22 -33 -58 -40 -113h161v-58h-166c-1 -11 -1 -24 -1 -37v-15h167v-58h-163c5 -56 17 -92 34 -116c23 -34 56 -45 88 -45c28 0 61 12 77 20z" />
    <glyph glyph-name="Aringacute" unicode="&#x1fa;" horiz-adv-x="448" 
d="M231 689c-65 0 -93 37 -93 76s32 78 94 78c63 0 91 -36 91 -77c0 -39 -30 -77 -92 -77zM230 728c28 0 40 18 40 39c0 17 -12 38 -41 38c-27 0 -38 -21 -38 -39s12 -38 39 -38zM287 948h118l-142 -87h-81zM288 175h-134l-37 -175h-103l150 674h125l139 -674h-104zM166 259
h111l-29 155c-8 44 -17 106 -24 153h-3c-8 -47 -18 -112 -26 -154z" />
    <glyph glyph-name="estimated" unicode="&#x212e;" horiz-adv-x="817" 
d="M782 316h-605c-3 0 -5 -1 -5 -4v-183c0 -8 4 -15 9 -21c57 -61 139 -99 229 -99c96 0 182 43 240 111h55c-68 -79 -176 -131 -296 -131c-206 0 -374 150 -374 336s168 336 374 336s373 -150 373 -336v-9zM646 340v184c0 9 -4 16 -10 22c-58 58 -138 95 -226 95
c-90 0 -170 -38 -228 -98c-6 -6 -10 -14 -10 -23v-180c0 -3 2 -5 5 -5h464c3 0 5 2 5 5z" />
    <glyph glyph-name="zero.oldstyle" unicode="&#xf730;" horiz-adv-x="411" 
d="M204 -8c-86 0 -174 72 -174 253s89 253 175 253c87 0 176 -72 176 -253s-89 -253 -177 -253zM206 75c52 0 75 68 75 170s-24 170 -76 170s-75 -68 -75 -170s25 -170 76 -170z" />
    <glyph glyph-name="one.oldstyle" unicode="&#xf731;" horiz-adv-x="296" 
d="M232 0h-105v390h-2l-93 -50l-19 81l136 68h83v-489z" />
    <glyph glyph-name="two.oldstyle" unicode="&#xf732;" horiz-adv-x="351" 
d="M326 0h-309v62l44 44c72 71 142 148 142 224c0 55 -31 83 -78 83c-31 0 -59 -12 -80 -26l-27 69c31 22 84 45 141 45c83 0 145 -57 145 -152c0 -89 -51 -154 -122 -226l-34 -36v-2c21 1 58 4 81 4h97v-89z" />
    <glyph glyph-name="three.oldstyle" unicode="&#xf733;" horiz-adv-x="344" 
d="M16 -105l11 82c13 -3 38 -6 60 -6c75 0 126 43 126 103c0 56 -42 92 -106 92c-14 0 -30 0 -40 -1l-1 82l22 2c58 6 110 39 110 94c0 43 -29 67 -73 67c-31 0 -61 -9 -81 -18l-16 78c24 15 70 28 119 28c92 0 151 -58 151 -135c0 -72 -49 -123 -103 -139v-2
c71 -13 124 -68 124 -147c0 -120 -106 -191 -219 -191c-35 0 -66 5 -84 11z" />
    <glyph glyph-name="four.oldstyle" unicode="&#xf734;" horiz-adv-x="398" 
d="M383 47h-67v-165h-93v165h-211v72l201 372h103v-360h67v-84zM223 131v148c0 35 0 67 4 104h-3c-12 -35 -29 -75 -47 -110l-73 -140v-2h119z" />
    <glyph glyph-name="five.oldstyle" unicode="&#xf735;" horiz-adv-x="347" 
d="M23 -105l9 82c13 -3 31 -6 59 -6c58 0 121 38 121 110c0 30 -9 57 -30 76c-28 26 -88 39 -145 37l47 295h231l-12 -91h-147l-23 -131c55 -5 107 -24 142 -59c28 -28 44 -67 44 -117c0 -126 -99 -207 -224 -207c-26 0 -58 5 -72 11z" />
    <glyph glyph-name="six.oldstyle" unicode="&#xf736;" horiz-adv-x="411" 
d="M342 610l10 -81c-130 -18 -187 -97 -206 -186h3c19 31 55 51 92 51c70 0 139 -65 139 -190c0 -133 -80 -212 -174 -212c-97 0 -175 78 -175 242c0 200 112 357 311 376zM209 70c32 0 65 33 65 124c0 82 -29 123 -68 123c-18 0 -33 -10 -45 -24c-15 -17 -24 -48 -24 -86
c0 -103 35 -137 72 -137z" />
    <glyph glyph-name="seven.oldstyle" unicode="&#xf737;" horiz-adv-x="346" 
d="M327 489v-60c-21 -93 -137 -389 -215 -539l-99 13c74 135 179 384 207 491v3h-199v92h306z" />
    <glyph glyph-name="eight.oldstyle" unicode="&#xf738;" horiz-adv-x="418" 
d="M287 324v-4c52 -30 99 -79 99 -153c0 -112 -83 -175 -179 -175c-107 0 -175 74 -175 164c0 73 45 123 99 158v3c-53 35 -81 82 -81 134c0 102 77 162 168 162c79 0 152 -53 152 -152c0 -58 -30 -102 -83 -137zM215 543c-40 1 -66 -37 -66 -85c0 -44 26 -77 74 -103
c28 23 51 54 51 104c0 59 -32 84 -59 84zM211 65c41 0 73 35 73 90c0 62 -39 98 -85 124c-39 -25 -65 -66 -65 -117c0 -52 29 -97 77 -97z" />
    <glyph glyph-name="nine.oldstyle" unicode="&#xf739;" horiz-adv-x="411" 
d="M54 -117l-10 80c131 15 197 84 216 178h-2c-16 -25 -47 -43 -89 -43c-68 0 -139 65 -139 191c0 129 79 209 174 209c96 0 173 -86 173 -235c0 -216 -117 -368 -323 -380zM208 170c15 0 29 8 40 22c14 15 23 48 23 88c0 90 -30 139 -71 139c-31 0 -65 -30 -65 -122
c0 -91 34 -127 73 -127z" />
    <glyph glyph-name="percent.oldstyle" unicode="&#xf642;" horiz-adv-x="675" 
d="M153 613c86 0 124 -94 124 -197c0 -137 -62 -200 -126 -200c-82 0 -127 88 -127 197c0 114 50 200 129 200zM150 553c-38 0 -51 -63 -51 -138c-1 -77 12 -139 52 -139s51 63 51 138c0 71 -10 139 -52 139zM205 -11h-60l325 627h59zM527 390c86 0 124 -94 124 -197
c0 -137 -62 -199 -126 -199c-82 0 -127 88 -127 196c0 114 50 200 129 200zM524 330c-38 0 -51 -63 -51 -138c-1 -76 14 -138 52 -138c40 0 51 63 51 137c0 71 -10 139 -52 139z" />
    <glyph glyph-name="zero.fitted" unicode="&#xf639;" horiz-adv-x="408" 
d="M209 658c130 0 174 -152 174 -331c0 -235 -80 -335 -181 -335c-123 0 -177 143 -177 331c0 201 62 335 184 335zM206 567c-50 0 -75 -89 -74 -242c-1 -155 21 -242 75 -242c49 0 69 90 69 242c0 145 -18 242 -70 242z" />
    <glyph glyph-name="one.fitted" unicode="&#xf6dc;" horiz-adv-x="295" 
d="M128 0v547h-2l-109 -59l-19 83l143 79h92v-650h-105z" />
    <glyph glyph-name="two.fitted" unicode="&#xf63a;" horiz-adv-x="358" 
d="M335 0h-335v71l60 79c81 107 160 211 160 317c0 61 -30 101 -87 101c-44 0 -76 -21 -96 -34l-21 82c26 19 77 42 136 42c127 0 173 -88 173 -184c0 -122 -78 -229 -155 -326l-41 -52v-2h206v-94z" />
    <glyph glyph-name="three.fitted" unicode="&#xf63b;" horiz-adv-x="349" 
d="M-1 21l18 85c23 -14 59 -26 95 -26c66 0 105 43 105 110c0 78 -55 117 -126 117h-18v79h13c48 0 113 27 113 98c0 55 -32 86 -80 86c-30 0 -59 -13 -81 -28l-18 80c26 19 75 36 126 36c105 0 160 -70 160 -153c0 -66 -35 -121 -95 -149v-2c61 -19 113 -74 113 -168
c0 -102 -73 -194 -204 -194c-48 0 -94 13 -121 29z" />
    <glyph glyph-name="four.fitted" unicode="&#xf63c;" horiz-adv-x="399" 
d="M323 0h-95v166h-220v73l212 411h103v-398h67v-86h-67v-166zM102 252h126v156c0 39 3 78 6 116h-3c-18 -43 -32 -73 -50 -111l-79 -159v-2z" />
    <glyph glyph-name="five.fitted" unicode="&#xf63d;" horiz-adv-x="364" 
d="M327 650v-93h-173l-20 -142c7 1 14 1 22 1c31 0 87 -14 123 -49c35 -34 55 -83 55 -149c0 -128 -82 -226 -213 -226c-43 0 -91 11 -117 27l19 85c22 -12 57 -24 92 -24c65 0 114 45 114 128c0 95 -64 130 -144 130c-20 0 -35 -1 -48 -3l38 315h252z" />
    <glyph glyph-name="six.fitted" unicode="&#xf63e;" horiz-adv-x="408" 
d="M338 658v-88c-14 0 -31 -2 -50 -6c-96 -23 -139 -112 -155 -201h3c25 33 59 56 105 56c85 0 144 -77 144 -200c0 -119 -57 -227 -174 -227c-119 0 -185 110 -185 267c0 134 40 231 96 298c41 50 103 83 159 94c25 5 45 6 57 7zM211 71c43 0 68 52 68 145
c-1 75 -26 125 -73 125c-26 0 -52 -17 -67 -55c-3 -7 -6 -24 -6 -49c0 -107 32 -166 78 -166z" />
    <glyph glyph-name="seven.fitted" unicode="&#xf63f;" horiz-adv-x="334" 
d="M0 650h336v-68l-207 -582h-104l202 554v2h-227v94z" />
    <glyph glyph-name="eight.fitted" unicode="&#xf640;" horiz-adv-x="408" 
d="M126 343l-1 2c-54 37 -82 93 -82 146c0 104 78 167 170 167c93 0 155 -70 155 -157c0 -49 -22 -106 -87 -148v-3c60 -36 102 -95 102 -173c0 -112 -79 -185 -182 -185c-110 0 -177 78 -177 172c0 86 49 144 102 179zM205 66c44 0 74 39 74 106c0 68 -40 108 -82 134
c-42 -27 -69 -74 -69 -128c0 -64 27 -112 77 -112zM207 584c-40 0 -63 -40 -63 -89c0 -55 32 -87 71 -110c33 21 54 62 54 105c0 53 -19 94 -62 94z" />
    <glyph glyph-name="nine.fitted" unicode="&#xf641;" horiz-adv-x="408" 
d="M71 -8v90c21 0 35 1 54 5c29 7 59 22 83 45c31 32 57 85 68 155h-2c-23 -27 -55 -47 -99 -47c-83 0 -148 75 -148 194c0 114 66 224 180 224c117 0 175 -113 175 -264c0 -139 -41 -241 -97 -308c-40 -48 -96 -79 -157 -90c-20 -4 -39 -4 -57 -4zM201 579
c-36 0 -70 -43 -69 -136c1 -78 27 -127 73 -127c27 0 53 19 64 44c5 12 6 24 6 57c0 109 -31 162 -74 162z" />
    <glyph glyph-name="zero.slashfitted" unicode="&#xe008;" horiz-adv-x="408" 
d="M135 213l123 307c-11 28 -28 47 -53 47c-53 0 -79 -89 -79 -242c0 -40 3 -77 9 -112zM273 439l-122 -312c11 -27 28 -44 52 -44c54 0 79 90 79 242c0 40 -3 78 -9 114zM376 652l-38 -77c33 -62 45 -153 45 -248c0 -235 -80 -335 -180 -335c-41 0 -76 16 -102 45l-26 -53
l-42 25l37 72c-31 55 -45 146 -45 242c0 210 62 335 184 335c39 0 72 -14 97 -40l27 57z" />
    <glyph glyph-name="zero.taboldstyle" unicode="&#xf643;" horiz-adv-x="411" 
d="M204 -8c-86 0 -174 72 -174 253s89 253 175 253c87 0 176 -72 176 -253s-89 -253 -177 -253zM206 75c52 0 75 68 75 170s-24 170 -76 170s-75 -68 -75 -170s25 -170 76 -170z" />
    <glyph glyph-name="one.taboldstyle" unicode="&#xf644;" horiz-adv-x="411" 
d="M300 0h-105v395h-2l-140 -58l-15 80l179 72h83v-489z" />
    <glyph glyph-name="two.taboldstyle" unicode="&#xf645;" horiz-adv-x="411" 
d="M357 0h-309v62l44 44c72 71 142 148 142 224c0 55 -31 83 -78 83c-31 0 -59 -12 -80 -26l-27 69c31 22 84 45 141 45c83 0 145 -57 145 -152c0 -89 -51 -154 -122 -226l-34 -36v-2c21 1 58 4 81 4h97v-89z" />
    <glyph glyph-name="three.taboldstyle" unicode="&#xf646;" horiz-adv-x="411" 
d="M48 -105l11 82c13 -3 38 -6 60 -6c75 0 126 43 126 103c0 56 -42 92 -106 92c-14 0 -30 0 -40 -1l-1 82l22 2c58 6 110 39 110 94c0 43 -29 67 -73 67c-31 0 -61 -9 -81 -18l-16 78c24 15 70 28 119 28c92 0 151 -58 151 -135c0 -72 -49 -123 -103 -139v-2
c71 -13 124 -68 124 -147c0 -120 -106 -191 -219 -191c-35 0 -66 5 -84 11z" />
    <glyph glyph-name="four.taboldstyle" unicode="&#xf647;" horiz-adv-x="411" 
d="M390 47h-67v-165h-93v165h-211v72l201 372h103v-360h67v-84zM230 131v148c0 35 0 67 4 104h-3c-12 -35 -29 -75 -47 -110l-73 -140v-2h119z" />
    <glyph glyph-name="five.taboldstyle" unicode="&#xf648;" horiz-adv-x="411" 
d="M52 -105l9 82c13 -3 31 -6 59 -6c58 0 121 38 121 110c0 30 -9 57 -30 76c-28 26 -88 39 -145 37l47 295h231l-12 -91h-147l-23 -131c55 -5 107 -24 142 -59c28 -28 44 -67 44 -117c0 -126 -99 -207 -224 -207c-26 0 -58 5 -72 11z" />
    <glyph glyph-name="six.taboldstyle" unicode="&#xf649;" horiz-adv-x="411" 
d="M344 610l10 -81c-131 -18 -188 -97 -207 -186h3c19 31 55 51 92 51c71 0 140 -65 140 -190c0 -133 -80 -212 -174 -212c-98 0 -176 78 -176 242c0 200 112 357 312 376zM210 70c33 0 66 33 66 124c0 82 -30 123 -68 123c-18 0 -34 -10 -46 -24c-15 -17 -24 -48 -24 -86
c0 -103 35 -137 72 -137z" />
    <glyph glyph-name="seven.taboldstyle" unicode="&#xf64a;" horiz-adv-x="411" 
d="M362 489v-60c-21 -93 -137 -389 -215 -539l-99 13c74 135 179 384 207 491v3h-199v92h306z" />
    <glyph glyph-name="eight.taboldstyle" unicode="&#xf64b;" horiz-adv-x="411" 
d="M282 324v-4c52 -30 99 -79 99 -153c0 -112 -83 -175 -179 -175c-107 0 -175 74 -175 164c0 73 45 123 99 158v3c-53 35 -81 82 -81 134c0 102 77 162 168 162c79 0 152 -53 152 -152c0 -58 -30 -102 -83 -137zM210 543c-40 1 -66 -37 -66 -85c0 -44 26 -77 74 -103
c28 23 51 54 51 104c0 59 -32 84 -59 84zM206 65c41 0 73 35 73 90c0 62 -39 98 -85 124c-39 -25 -65 -66 -65 -117c0 -52 29 -97 77 -97z" />
    <glyph glyph-name="nine.taboldstyle" unicode="&#xf64c;" horiz-adv-x="411" 
d="M56 -117l-10 80c131 15 197 84 216 178h-2c-16 -25 -47 -43 -89 -43c-68 0 -139 65 -139 191c0 129 79 209 174 209c96 0 173 -86 173 -235c0 -216 -117 -368 -323 -380zM210 170c15 0 29 8 40 22c14 15 23 48 23 88c0 90 -30 139 -71 139c-31 0 -65 -30 -65 -122
c0 -91 34 -127 73 -127z" />
    <glyph glyph-name="dollar.taboldstyle" unicode="&#xf653;" horiz-adv-x="411" 
d="M233 -69h-70v72c-44 1 -85 15 -111 29l21 77c26 -16 70 -28 104 -28c49 0 80 22 80 58c0 30 -22 53 -84 81c-77 35 -117 73 -117 135c0 60 45 110 117 126v82h70v-75c43 -1 73 -12 96 -24l-23 -75c-21 12 -49 21 -83 21c-49 0 -77 -22 -77 -50c0 -29 20 -46 89 -75
c73 -32 112 -77 112 -139c0 -74 -53 -124 -124 -138v-77z" />
    <glyph glyph-name="cent.taboldstyle" unicode="&#xf654;" horiz-adv-x="411" 
d="M315 143l11 -73c-15 -7 -40 -14 -69 -15v-67h-65v70c-95 19 -139 99 -139 198c0 103 56 179 139 199v69h65v-64c26 -2 49 -7 64 -15l-14 -73c-16 7 -37 12 -65 12c-58 0 -92 -54 -92 -129c0 -80 38 -125 95 -125c27 0 50 5 70 13z" />
    <glyph glyph-name="Euro.taboldstyle" unicode="&#xf64e;" horiz-adv-x="411" 
d="M366 96l13 -84c-18 -10 -51 -20 -90 -20c-50 0 -103 17 -140 54c-31 31 -54 76 -64 134h-47v54h41c-1 8 -1 16 -1 21c0 8 0 21 1 31h-41v54h48c10 56 34 101 65 133c38 38 89 57 144 57c33 0 62 -8 82 -16l-18 -84c-14 5 -35 11 -59 11c-25 0 -51 -8 -71 -26
c-17 -17 -30 -42 -35 -75h143v-54h-151c-1 -9 -1 -21 -1 -29c0 -5 0 -14 1 -23h152v-54h-143c5 -31 18 -55 34 -71c19 -20 49 -28 75 -28c24 0 48 7 62 15z" />
    <glyph glyph-name="florin.taboldstyle" unicode="&#xf64f;" horiz-adv-x="411" 
d="M77 268v83h77l5 58c11 109 62 204 177 204c22 0 44 -5 59 -12l-15 -79c-13 4 -26 6 -40 6c-50 0 -71 -51 -78 -115l-7 -62h91v-83h-98l-20 -194c-12 -111 -47 -196 -161 -196c-26 0 -52 7 -68 16l17 77c12 -5 29 -9 42 -9c34 0 59 28 70 122l19 184h-70z" />
    <glyph glyph-name="sterling.taboldstyle" unicode="&#xf651;" horiz-adv-x="411" 
d="M372 0h-336v65c54 23 86 65 86 112c0 14 -2 29 -5 45h-74v64h61c-5 24 -9 48 -9 70c0 109 70 184 172 184c38 0 64 -10 80 -19l-18 -85c-13 7 -32 14 -58 14c-46 0 -74 -33 -74 -93c0 -21 4 -47 9 -71h111v-64h-100c2 -12 3 -22 3 -31c0 -46 -23 -80 -51 -100v-2h203v-89
z" />
    <glyph glyph-name="yen.taboldstyle" unicode="&#xf652;" horiz-adv-x="411" 
d="M252 0h-98v113h-120v57h120v49h-120v57h96l-116 246h108l55 -142c13 -35 23 -65 30 -92h2c8 27 17 57 30 93l56 141h102l-121 -246h97v-57h-121v-49h121v-57h-121v-113z" />
    <glyph glyph-name="numbersign.taboldstyle" unicode="&#xf650;" horiz-adv-x="411" 
d="M159 220h74l16 132h-74zM128 -23h-64l23 178h-69v65h77l17 132h-73v64h81l23 174h63l-23 -174h75l23 174h63l-23 -174h68v-64h-76l-16 -132h72v-64h-81l-22 -179h-65l23 179h-74z" />
    <glyph glyph-name="zero.superior" unicode="&#x2070;" horiz-adv-x="279" 
d="M139 412c-87 0 -122 92 -122 198c0 115 41 202 126 202c92 0 120 -97 120 -198c0 -135 -51 -202 -124 -202zM142 477c28 0 42 43 42 135c0 87 -13 135 -42 135s-46 -44 -46 -135c0 -92 15 -135 46 -135z" />
    <glyph glyph-name="one.superior" horiz-adv-x="227" 
d="M176 417h-79v319h-2l-72 -36l-14 59l97 48h70v-390z" />
    <glyph glyph-name="two.superior" horiz-adv-x="261" 
d="M5 417v42l44 54c51 62 101 120 101 173c0 42 -23 59 -55 59c-26 0 -49 -13 -64 -25l-19 58c20 17 58 34 104 34c87 0 118 -56 118 -110c0 -73 -57 -136 -104 -189l-23 -27v-2h132v-67h-234z" />
    <glyph glyph-name="three.superior" horiz-adv-x="249" 
d="M33 732l-14 55c20 13 54 25 91 25c76 0 110 -46 110 -93c0 -42 -24 -73 -64 -90v-2c39 -8 76 -45 76 -95c0 -68 -55 -120 -144 -120c-35 0 -65 8 -84 20l14 59c15 -9 39 -18 68 -18c36 0 64 23 64 60c0 44 -33 66 -81 66h-10v53h7c31 0 76 15 76 54c0 29 -20 45 -48 45
c-26 0 -44 -8 -61 -19z" />
    <glyph glyph-name="four.superior" unicode="&#x2074;" horiz-adv-x="287" 
d="M229 417h-72v97h-147v49l142 246h77v-236h44v-59h-44v-97zM157 573v83c0 29 2 53 3 70h-2c-10 -22 -17 -38 -29 -60l-50 -91v-2h78z" />
    <glyph glyph-name="five.superior" unicode="&#x2075;" horiz-adv-x="262" 
d="M231 807v-67h-117l-9 -72h16c23 0 58 -8 81 -28c24 -20 38 -50 38 -91c0 -76 -53 -137 -143 -137c-33 0 -65 8 -82 17l13 61c15 -7 39 -14 64 -14c39 0 69 23 69 66c0 50 -37 71 -92 71c-14 0 -25 -1 -35 -2l23 196h174z" />
    <glyph glyph-name="six.superior" unicode="&#x2076;" horiz-adv-x="282" 
d="M231 812v-63c-10 0 -21 -1 -33 -3c-61 -10 -89 -56 -99 -105h1c16 19 38 32 67 32c57 0 98 -47 98 -123c0 -71 -42 -138 -119 -138c-81 0 -127 67 -127 163c0 82 27 140 64 179c29 30 70 49 109 55c18 2 31 3 39 3zM145 470c28 0 41 33 41 80c0 37 -14 68 -44 68
c-17 0 -33 -11 -41 -30c-2 -5 -4 -15 -4 -31c0 -51 18 -87 48 -87z" />
    <glyph glyph-name="seven.superior" unicode="&#x2077;" horiz-adv-x="245" 
d="M11 807h227v-51l-134 -339h-78l131 320v2h-146v68z" />
    <glyph glyph-name="eight.superior" unicode="&#x2078;" horiz-adv-x="285" 
d="M147 812c65 0 107 -42 107 -97c0 -29 -13 -63 -53 -87v-1c36 -19 64 -53 64 -100c0 -72 -54 -115 -125 -115c-76 0 -121 46 -121 106c0 48 27 82 62 103v1c-34 21 -50 55 -50 86c0 64 51 104 116 104zM144 465c27 0 44 24 44 57c0 38 -25 61 -52 72
c-24 -12 -41 -38 -41 -68c0 -35 18 -61 49 -61zM143 760c-25 0 -39 -24 -39 -50c0 -29 19 -47 45 -59c19 9 33 33 33 57c0 27 -11 52 -39 52z" />
    <glyph glyph-name="nine.superior" unicode="&#x2079;" horiz-adv-x="278" 
d="M47 412v64c14 0 23 0 37 2c20 4 39 12 55 25c20 17 34 46 41 80h-1c-14 -15 -35 -26 -63 -26c-55 0 -99 46 -99 118c0 70 46 137 122 137c79 0 120 -69 120 -162c0 -86 -28 -147 -65 -185c-27 -29 -65 -46 -109 -52c-13 -1 -26 -1 -38 -1zM135 754c-22 0 -41 -27 -41 -74
c0 -38 15 -69 43 -69c18 0 33 10 39 23c3 7 4 14 4 35c0 52 -16 85 -45 85z" />
    <glyph glyph-name="period.superior" unicode="&#xf6e8;" horiz-adv-x="141" 
d="M70 412c-25 0 -45 21 -45 51c0 31 22 52 47 52c26 0 46 -20 46 -52c0 -30 -19 -51 -48 -51z" />
    <glyph glyph-name="comma.superior" unicode="&#xf6e2;" horiz-adv-x="141" 
d="M53 348l-51 -5c17 50 33 112 40 160l81 6c-18 -55 -43 -118 -70 -161z" />
    <glyph glyph-name="dollar.superior" unicode="&#xf6e4;" horiz-adv-x="259" 
d="M149 366h-51v61c-29 1 -56 8 -73 17l14 62c19 -11 42 -19 69 -19c31 0 49 16 49 41c0 24 -12 39 -51 61c-51 27 -79 55 -79 104c0 47 29 84 78 99v61h51v-55c29 -1 50 -8 65 -17l-14 -59c-12 7 -35 16 -59 16c-34 0 -46 -18 -46 -37c0 -23 10 -34 54 -57
c55 -29 76 -64 76 -109c0 -53 -33 -92 -83 -104v-65z" />
    <glyph glyph-name="cent.superior" unicode="&#xf6e0;" horiz-adv-x="256" 
d="M176 412h-51v60c-30 6 -53 19 -71 42c-19 23 -30 56 -30 98c0 71 39 127 101 141v60h52v-57c18 -1 35 -5 46 -11l-11 -59c-15 7 -30 10 -48 10c-38 0 -61 -36 -61 -84c0 -52 27 -82 64 -82c22 0 36 3 51 9l7 -58c-12 -6 -27 -10 -49 -11v-58z" />
    <glyph glyph-name="hyphen.superior" unicode="&#xf6e6;" horiz-adv-x="163" 
d="M18 633h127v-56h-127v56z" />
    <glyph glyph-name="parenleft.superior" unicode="&#x207d;" horiz-adv-x="161" 
d="M101 846h57c-35 -54 -64 -133 -64 -244c0 -109 29 -186 64 -243h-57c-33 46 -69 126 -69 243c0 116 36 198 69 244z" />
    <glyph glyph-name="parenright.superior" unicode="&#x207e;" horiz-adv-x="161" 
d="M60 359h-57c35 56 64 136 64 245c0 108 -29 186 -64 242h57c33 -45 70 -124 70 -243c0 -115 -37 -197 -70 -244z" />
    <glyph glyph-name="zero.inferior" unicode="&#x2080;" horiz-adv-x="279" 
d="M139 -152c-87 0 -122 92 -122 198c0 116 41 202 126 202c92 0 120 -97 120 -198c0 -135 -51 -202 -124 -202zM142 -87c28 0 42 43 42 135c0 87 -13 135 -42 135s-46 -44 -46 -135c0 -92 15 -135 46 -135z" />
    <glyph glyph-name="one.inferior" unicode="&#x2081;" horiz-adv-x="227" 
d="M176 -147h-79v319h-2l-72 -36l-14 59l97 48h70v-390z" />
    <glyph glyph-name="two.inferior" unicode="&#x2082;" horiz-adv-x="261" 
d="M5 -147v42l44 54c51 62 101 120 101 173c0 42 -23 59 -55 59c-26 0 -49 -13 -64 -25l-19 58c20 17 58 34 104 34c87 0 118 -55 118 -110c0 -73 -57 -136 -104 -188l-23 -27v-3h132v-67h-234z" />
    <glyph glyph-name="three.inferior" unicode="&#x2083;" horiz-adv-x="249" 
d="M33 168l-14 55c20 13 54 25 91 25c76 0 110 -46 110 -93c0 -42 -24 -73 -64 -90v-2c39 -8 76 -45 76 -95c0 -68 -55 -120 -144 -120c-35 0 -65 8 -84 20l14 59c15 -9 39 -18 68 -18c36 0 64 23 64 60c0 44 -33 66 -81 66h-10v53h7c31 0 76 15 76 54c0 29 -20 45 -48 45
c-26 0 -44 -8 -61 -19z" />
    <glyph glyph-name="four.inferior" unicode="&#x2084;" horiz-adv-x="287" 
d="M229 -147h-72v97h-147v49l142 246h77v-236h44v-59h-44v-97zM157 9v83c0 29 2 53 3 70h-2c-10 -22 -17 -38 -29 -60l-50 -91v-2h78z" />
    <glyph glyph-name="five.inferior" unicode="&#x2085;" horiz-adv-x="262" 
d="M231 243v-67h-117l-9 -72h16c23 0 58 -8 81 -28c24 -20 38 -50 38 -91c0 -76 -53 -137 -143 -137c-33 0 -65 8 -82 17l13 61c15 -7 39 -14 64 -14c39 0 69 23 69 66c0 50 -37 71 -92 71c-14 0 -25 -1 -35 -2l23 196h174z" />
    <glyph glyph-name="six.inferior" unicode="&#x2086;" horiz-adv-x="282" 
d="M231 248v-63c-10 0 -21 -1 -33 -3c-61 -10 -89 -56 -99 -105h1c16 19 38 32 67 32c57 0 98 -47 98 -123c0 -71 -42 -138 -119 -138c-81 0 -127 67 -127 163c0 82 27 140 64 179c29 30 70 49 109 55c18 2 31 3 39 3zM145 -94c28 0 41 33 41 80c0 37 -14 68 -44 68
c-17 0 -33 -11 -41 -30c-2 -5 -4 -15 -4 -31c0 -51 18 -87 48 -87z" />
    <glyph glyph-name="seven.inferior" unicode="&#x2087;" horiz-adv-x="245" 
d="M11 243h227v-51l-134 -339h-78l131 321v1h-146v68z" />
    <glyph glyph-name="eight.inferior" unicode="&#x2088;" horiz-adv-x="285" 
d="M147 248c65 0 107 -42 107 -97c0 -29 -13 -63 -53 -87v-1c36 -19 64 -53 64 -100c0 -72 -54 -115 -125 -115c-76 0 -121 46 -121 106c0 48 27 82 62 103v1c-34 21 -50 55 -50 86c0 64 51 104 116 104zM144 -99c27 0 44 24 44 57c0 38 -25 61 -52 72
c-24 -12 -41 -38 -41 -68c0 -35 18 -61 49 -61zM143 196c-25 0 -39 -24 -39 -50c0 -29 19 -47 45 -59c19 9 33 33 33 57c0 27 -11 52 -39 52z" />
    <glyph glyph-name="nine.inferior" unicode="&#x2089;" horiz-adv-x="278" 
d="M47 -152v64c14 0 23 0 37 2c20 4 39 12 55 25c20 17 34 45 41 80h-1c-14 -16 -35 -26 -63 -26c-55 0 -99 45 -99 118c0 70 46 137 122 137c79 0 120 -69 120 -162c0 -86 -28 -147 -65 -185c-27 -29 -65 -46 -109 -52c-13 -1 -26 -1 -38 -1zM135 190
c-22 0 -41 -27 -41 -74c0 -39 15 -69 43 -69c18 0 33 10 39 23c3 7 4 14 4 35c0 52 -16 85 -45 85z" />
    <glyph glyph-name="period.inferior" unicode="&#xf6e7;" horiz-adv-x="141" 
d="M70 -152c-25 0 -45 21 -45 51c0 31 22 52 47 52c26 0 46 -20 46 -52c0 -30 -19 -51 -48 -51z" />
    <glyph glyph-name="comma.inferior" unicode="&#xf6e1;" horiz-adv-x="141" 
d="M53 -216l-51 -5c17 50 33 112 40 160l81 6c-18 -55 -43 -118 -70 -161z" />
    <glyph glyph-name="dollar.inferior" unicode="&#xf6e3;" horiz-adv-x="259" 
d="M149 -198h-51v61c-29 1 -56 8 -73 17l14 62c19 -11 42 -19 69 -19c31 0 49 17 49 42c0 23 -12 39 -51 60c-51 27 -79 55 -79 104c0 47 29 84 78 99v61h51v-55c29 -1 50 -8 65 -17l-14 -59c-12 7 -35 16 -59 16c-34 0 -46 -18 -46 -37c0 -23 10 -33 54 -57
c55 -29 76 -64 76 -109c0 -53 -33 -92 -83 -104v-65z" />
    <glyph glyph-name="cent.inferior" unicode="&#xf6df;" horiz-adv-x="256" 
d="M176 -152h-51v60c-30 6 -53 19 -71 42c-19 23 -30 56 -30 98c0 71 39 127 101 141v60h52v-57c18 -1 35 -5 46 -11l-11 -59c-15 7 -30 10 -48 10c-38 0 -61 -36 -61 -84c0 -52 27 -82 64 -82c22 0 36 3 51 9l7 -58c-12 -6 -27 -10 -49 -11v-58z" />
    <glyph glyph-name="hyphen.inferior" unicode="&#xf6e5;" horiz-adv-x="163" 
d="M18 69h127v-56h-127v56z" />
    <glyph glyph-name="parenleft.inferior" unicode="&#x208d;" horiz-adv-x="161" 
d="M101 282h57c-35 -54 -64 -133 -64 -244c0 -109 29 -186 64 -243h-57c-33 46 -69 126 -69 243c0 116 36 198 69 244z" />
    <glyph glyph-name="parenright.inferior" unicode="&#x208e;" horiz-adv-x="161" 
d="M60 -205h-57c35 56 64 136 64 245c0 108 -29 186 -64 242h57c33 -45 70 -124 70 -243c0 -115 -37 -197 -70 -244z" />
    <glyph glyph-name="zero.numerator" unicode="&#xf661;" horiz-adv-x="279" 
d="M139 258c-87 0 -122 92 -122 198c0 116 41 202 126 202c92 0 120 -97 120 -198c0 -135 -51 -202 -124 -202zM142 323c28 0 42 43 42 135c0 87 -13 135 -42 135s-46 -44 -46 -135c0 -92 15 -135 46 -135z" />
    <glyph glyph-name="one.numerator" unicode="&#xf662;" horiz-adv-x="227" 
d="M176 263h-79v319h-2l-72 -36l-14 59l97 48h70v-390z" />
    <glyph glyph-name="two.numerator" unicode="&#xf663;" horiz-adv-x="261" 
d="M5 263v42l44 54c51 62 101 120 101 173c0 42 -23 59 -55 59c-26 0 -49 -13 -64 -25l-19 58c20 17 58 34 104 34c87 0 118 -55 118 -110c0 -73 -57 -136 -104 -188l-23 -27v-3h132v-67h-234z" />
    <glyph glyph-name="three.numerator" unicode="&#xf664;" horiz-adv-x="249" 
d="M33 578l-14 55c20 13 54 25 91 25c76 0 110 -46 110 -93c0 -42 -24 -73 -64 -90v-2c39 -8 76 -45 76 -95c0 -68 -55 -120 -144 -120c-35 0 -65 8 -84 20l14 59c15 -9 39 -18 68 -18c36 0 64 23 64 60c0 44 -33 66 -81 66h-10v53h7c31 0 76 15 76 54c0 29 -20 45 -48 45
c-26 0 -44 -8 -61 -19z" />
    <glyph glyph-name="four.numerator" unicode="&#xf665;" horiz-adv-x="287" 
d="M229 263h-72v97h-147v49l142 246h77v-236h44v-59h-44v-97zM157 419v83c0 29 2 53 3 70h-2c-10 -22 -17 -38 -29 -60l-50 -91v-2h78z" />
    <glyph glyph-name="five.numerator" unicode="&#xf666;" horiz-adv-x="262" 
d="M231 653v-67h-117l-9 -72h16c23 0 58 -8 81 -28c24 -20 38 -50 38 -91c0 -76 -53 -137 -143 -137c-33 0 -65 8 -82 17l13 61c15 -7 39 -14 64 -14c39 0 69 23 69 66c0 50 -37 71 -92 71c-14 0 -25 -1 -35 -2l23 196h174z" />
    <glyph glyph-name="six.numerator" unicode="&#xf667;" horiz-adv-x="282" 
d="M231 658v-63c-10 0 -21 -1 -33 -3c-61 -10 -89 -56 -99 -105h1c16 19 38 32 67 32c57 0 98 -47 98 -123c0 -71 -42 -138 -119 -138c-81 0 -127 67 -127 163c0 82 27 140 64 179c29 30 70 49 109 55c18 2 31 3 39 3zM145 316c28 0 41 33 41 80c0 37 -14 68 -44 68
c-17 0 -33 -11 -41 -30c-2 -5 -4 -15 -4 -31c0 -51 18 -87 48 -87z" />
    <glyph glyph-name="seven.numerator" unicode="&#xf668;" horiz-adv-x="245" 
d="M11 653h227v-51l-134 -339h-78l131 321v1h-146v68z" />
    <glyph glyph-name="eight.numerator" unicode="&#xf669;" horiz-adv-x="285" 
d="M147 658c65 0 107 -42 107 -97c0 -29 -13 -63 -53 -87v-1c36 -19 64 -53 64 -100c0 -72 -54 -115 -125 -115c-76 0 -121 46 -121 106c0 48 27 82 62 103v1c-34 21 -50 55 -50 86c0 64 51 104 116 104zM144 311c27 0 44 24 44 57c0 38 -25 61 -52 72
c-24 -12 -41 -38 -41 -68c0 -35 18 -61 49 -61zM143 606c-25 0 -39 -24 -39 -50c0 -29 19 -47 45 -59c19 9 33 33 33 57c0 27 -11 52 -39 52z" />
    <glyph glyph-name="nine.numerator" unicode="&#xf66a;" horiz-adv-x="278" 
d="M47 258v64c14 0 23 0 37 2c20 4 39 12 55 25c20 17 34 46 41 80h-1c-14 -15 -35 -26 -63 -26c-55 0 -99 46 -99 118c0 70 46 137 122 137c79 0 120 -69 120 -162c0 -86 -28 -147 -65 -185c-27 -29 -65 -46 -109 -52c-13 -1 -26 -1 -38 -1zM135 600c-22 0 -41 -27 -41 -74
c0 -38 15 -69 43 -69c18 0 33 10 39 23c3 7 4 14 4 35c0 52 -16 85 -45 85z" />
    <glyph glyph-name="period.numerator" unicode="&#xf66c;" horiz-adv-x="141" 
d="M70 258c-25 0 -45 21 -45 51c0 31 22 52 47 52c26 0 46 -20 46 -52c0 -30 -19 -51 -48 -51z" />
    <glyph glyph-name="comma.numerator" unicode="&#xf66b;" horiz-adv-x="141" 
d="M53 194l-51 -5c17 50 33 112 40 160l81 6c-18 -55 -43 -118 -70 -161z" />
    <glyph glyph-name="dollar.numerator" unicode="&#xf62f;" horiz-adv-x="259" 
d="M149 212h-51v61c-29 1 -56 8 -73 17l14 62c19 -11 42 -19 69 -19c31 0 49 17 49 42c0 23 -12 39 -51 60c-51 27 -79 55 -79 104c0 47 29 84 78 99v61h51v-55c29 -1 50 -8 65 -17l-14 -59c-12 7 -35 16 -59 16c-34 0 -46 -18 -46 -37c0 -23 10 -33 54 -57
c55 -29 76 -64 76 -109c0 -53 -33 -92 -83 -104v-65z" />
    <glyph glyph-name="cent.numerator" unicode="&#xf62e;" horiz-adv-x="256" 
d="M176 258h-51v60c-30 6 -53 19 -71 42c-19 23 -30 56 -30 98c0 71 39 127 101 141v60h52v-57c18 -1 35 -5 46 -11l-11 -59c-15 7 -30 10 -48 10c-38 0 -61 -36 -61 -84c0 -52 27 -82 64 -82c22 0 36 3 51 9l7 -58c-12 -6 -27 -10 -49 -11v-58z" />
    <glyph glyph-name="hyphen.numerator" unicode="&#xf630;" horiz-adv-x="163" 
d="M18 480h127v-56h-127v56z" />
    <glyph glyph-name="parenleft.numerator" unicode="&#xf631;" horiz-adv-x="161" 
d="M101 692h57c-35 -54 -64 -133 -64 -244c0 -109 29 -186 64 -243h-57c-33 46 -69 126 -69 243c0 116 36 198 69 244z" />
    <glyph glyph-name="parenright.numerator" unicode="&#xf632;" horiz-adv-x="161" 
d="M60 205h-57c35 56 64 136 64 245c0 108 -29 186 -64 242h57c33 -45 70 -124 70 -243c0 -115 -37 -197 -70 -244z" />
    <glyph glyph-name="zero.denominator" unicode="&#xf655;" horiz-adv-x="279" 
d="M139 -5c-87 0 -122 92 -122 198c0 115 41 202 126 202c92 0 120 -97 120 -198c0 -135 -51 -202 -124 -202zM142 60c28 0 42 43 42 135c0 87 -13 135 -42 135s-46 -44 -46 -135c0 -92 15 -135 46 -135z" />
    <glyph glyph-name="one.denominator" unicode="&#xf656;" horiz-adv-x="227" 
d="M176 0h-79v319h-2l-72 -36l-14 59l97 48h70v-390z" />
    <glyph glyph-name="two.denominator" unicode="&#xf657;" horiz-adv-x="261" 
d="M5 0v42l44 54c51 62 101 120 101 173c0 42 -23 59 -55 59c-26 0 -49 -13 -64 -25l-19 58c20 17 58 34 104 34c87 0 118 -56 118 -110c0 -73 -57 -136 -104 -188l-23 -27v-3h132v-67h-234z" />
    <glyph glyph-name="three.denominator" unicode="&#xf658;" horiz-adv-x="249" 
d="M33 315l-14 55c20 13 54 25 91 25c76 0 110 -46 110 -93c0 -42 -24 -73 -64 -90v-2c39 -8 76 -45 76 -95c0 -68 -55 -120 -144 -120c-35 0 -65 8 -84 20l14 59c15 -9 39 -18 68 -18c36 0 64 23 64 60c0 44 -33 66 -81 66h-10v53h7c31 0 76 15 76 54c0 29 -20 45 -48 45
c-26 0 -44 -8 -61 -19z" />
    <glyph glyph-name="four.denominator" unicode="&#xf659;" horiz-adv-x="287" 
d="M229 0h-72v97h-147v49l142 246h77v-236h44v-59h-44v-97zM157 156v83c0 29 2 53 3 70h-2c-10 -22 -17 -38 -29 -60l-50 -91v-2h78z" />
    <glyph glyph-name="five.denominator" unicode="&#xf65a;" horiz-adv-x="262" 
d="M231 390v-67h-117l-9 -72h16c23 0 58 -8 81 -28c24 -20 38 -50 38 -91c0 -76 -53 -137 -143 -137c-33 0 -65 8 -82 17l13 61c15 -7 39 -14 64 -14c39 0 69 23 69 66c0 50 -37 71 -92 71c-14 0 -25 -1 -35 -2l23 196h174z" />
    <glyph glyph-name="six.denominator" unicode="&#xf65b;" horiz-adv-x="282" 
d="M231 395v-63c-10 0 -21 -1 -33 -3c-61 -10 -89 -56 -99 -105h1c16 19 38 32 67 32c57 0 98 -47 98 -123c0 -71 -42 -138 -119 -138c-81 0 -127 67 -127 163c0 82 27 140 64 179c29 30 70 49 109 55c18 2 31 3 39 3zM145 53c28 0 41 33 41 80c0 37 -14 68 -44 68
c-17 0 -33 -11 -41 -30c-2 -5 -4 -15 -4 -31c0 -51 18 -87 48 -87z" />
    <glyph glyph-name="seven.denominator" unicode="&#xf65c;" horiz-adv-x="245" 
d="M11 390h227v-51l-134 -339h-78l131 320v2h-146v68z" />
    <glyph glyph-name="eight.denominator" unicode="&#xf65d;" horiz-adv-x="285" 
d="M147 395c65 0 107 -42 107 -97c0 -29 -13 -63 -53 -87v-1c36 -19 64 -53 64 -100c0 -72 -54 -115 -125 -115c-76 0 -121 46 -121 106c0 48 27 82 62 103v1c-34 21 -50 55 -50 86c0 64 51 104 116 104zM144 48c27 0 44 24 44 57c0 38 -25 61 -52 72
c-24 -12 -41 -38 -41 -68c0 -35 18 -61 49 -61zM143 343c-25 0 -39 -24 -39 -50c0 -29 19 -47 45 -59c19 9 33 33 33 57c0 27 -11 52 -39 52z" />
    <glyph glyph-name="nine.denominator" unicode="&#xf65e;" horiz-adv-x="278" 
d="M47 -5v64c14 0 23 0 37 2c20 4 39 12 55 25c20 17 34 46 41 80h-1c-14 -15 -35 -26 -63 -26c-55 0 -99 46 -99 118c0 70 46 137 122 137c79 0 120 -69 120 -162c0 -86 -28 -147 -65 -185c-27 -29 -65 -46 -109 -52c-13 -1 -26 -1 -38 -1zM135 337c-22 0 -41 -27 -41 -74
c0 -38 15 -69 43 -69c18 0 33 10 39 23c3 7 4 14 4 35c0 52 -16 85 -45 85z" />
    <glyph glyph-name="period.denominator" unicode="&#xf660;" horiz-adv-x="141" 
d="M70 -5c-25 0 -45 21 -45 51c0 31 22 52 47 52c26 0 46 -20 46 -52c0 -30 -19 -51 -48 -51z" />
    <glyph glyph-name="comma.denominator" unicode="&#xf65f;" horiz-adv-x="141" 
d="M53 -69l-51 -5c17 50 33 112 40 160l81 6c-18 -55 -43 -118 -70 -161z" />
    <glyph glyph-name="dollar.denominator" unicode="&#xf62a;" horiz-adv-x="259" 
d="M149 -51h-51v61c-29 1 -56 8 -73 17l14 62c19 -11 42 -19 69 -19c31 0 49 17 49 42c0 23 -12 39 -51 60c-51 27 -79 55 -79 104c0 47 29 84 78 99v61h51v-55c29 -1 50 -8 65 -17l-14 -59c-12 7 -35 16 -59 16c-34 0 -46 -18 -46 -37c0 -23 10 -33 54 -57
c55 -29 76 -64 76 -109c0 -53 -33 -92 -83 -104v-65z" />
    <glyph glyph-name="cent.denominator" unicode="&#xf629;" horiz-adv-x="256" 
d="M176 -5h-51v60c-30 6 -53 19 -71 42c-19 23 -30 56 -30 98c0 71 39 127 101 141v60h52v-57c18 -1 35 -5 46 -11l-11 -59c-15 7 -30 10 -48 10c-38 0 -61 -36 -61 -84c0 -52 27 -82 64 -82c22 0 36 3 51 9l7 -58c-12 -6 -27 -10 -49 -11v-58z" />
    <glyph glyph-name="hyphen.denominator" unicode="&#xf62b;" horiz-adv-x="163" 
d="M18 216h127v-56h-127v56z" />
    <glyph glyph-name="parenleft.denominator" unicode="&#xf62c;" horiz-adv-x="161" 
d="M101 429h57c-35 -54 -64 -133 -64 -244c0 -109 29 -186 64 -243h-57c-33 46 -69 126 -69 243c0 116 36 198 69 244z" />
    <glyph glyph-name="parenright.denominator" unicode="&#xf62d;" horiz-adv-x="161" 
d="M60 -58h-57c35 56 64 136 64 245c0 108 -29 186 -64 242h57c33 -45 70 -124 70 -243c0 -115 -37 -197 -70 -244z" />
    <glyph glyph-name="at.cap" unicode="&#xf633;" horiz-adv-x="607" 
d="M348 323l25 137c-7 4 -15 5 -27 5c-60 0 -116 -91 -116 -191c0 -39 14 -59 38 -59c35 0 70 56 80 108zM418 68l14 -39c-49 -28 -99 -39 -154 -39c-130 0 -245 98 -245 295c0 210 132 399 320 399c149 0 224 -114 224 -251c0 -180 -63 -278 -156 -278c-45 0 -69 29 -67 83
h-3c-28 -58 -71 -83 -110 -83c-50 0 -83 42 -83 115c0 119 75 248 210 248c30 0 63 -7 83 -18l-37 -192c-13 -72 -3 -103 25 -103c44 0 88 77 88 212c0 132 -56 225 -183 225c-136 0 -261 -145 -261 -358c0 -167 85 -250 208 -250c48 0 88 12 127 34z" />
    <glyph glyph-name="emdash.cap" unicode="&#xf6bc;" horiz-adv-x="1000" 
d="M30 372h940v-74h-940v74z" />
    <glyph glyph-name="endash.cap" unicode="&#xf6bb;" horiz-adv-x="500" 
d="M30 372h440v-74h-440v74z" />
    <glyph glyph-name="exclamdown.cap" unicode="&#xf6b4;" horiz-adv-x="222" 
d="M169 0h-116l13 469h90zM112 685c36 0 62 -28 62 -70c0 -39 -23 -68 -62 -68c-37 0 -64 29 -64 68c0 42 28 70 64 70z" />
    <glyph glyph-name="guillemotleft.cap" unicode="&#xf6b6;" horiz-adv-x="370" 
d="M204 507l-106 -180l106 -180h-80l-104 180l104 180h80zM357 507l-106 -180l106 -180h-80l-104 180l104 180h80z" />
    <glyph glyph-name="guillemotright.cap" unicode="&#xf6b7;" horiz-adv-x="370" 
d="M119 327l-106 180h80l104 -180l-103 -180h-81zM272 327l-106 180h79l105 -180l-103 -180h-81z" />
    <glyph glyph-name="guilsinglleft.cap" unicode="&#xf6b8;" horiz-adv-x="216" 
d="M204 507l-106 -180l106 -180h-80l-104 180l104 180h80z" />
    <glyph glyph-name="guilsinglright.cap" unicode="&#xf6b9;" horiz-adv-x="216" 
d="M118 327l-106 180h79l105 -180l-103 -180h-81z" />
    <glyph glyph-name="hyphen.cap" unicode="&#xf6ba;" horiz-adv-x="268" 
d="M30 383h208v-78h-208v78z" />
    <glyph glyph-name="questiondown.cap" unicode="&#xf6b5;" horiz-adv-x="323" 
d="M185 685c36 0 63 -28 63 -70c0 -40 -25 -70 -63 -70s-65 30 -65 70c0 42 28 70 65 70zM136 477h91l2 -16c8 -59 -10 -117 -48 -179c-31 -50 -50 -83 -50 -129s28 -70 71 -70c23 0 47 6 65 18l19 -82c-18 -13 -62 -28 -109 -28c-117 0 -155 77 -155 146
c0 71 40 128 74 181c29 46 44 84 40 140v19z" />
    <glyph glyph-name="braceleft.cap" unicode="&#xf6b2;" horiz-adv-x="256" 
d="M18 295v66c55 0 67 33 68 63c0 28 -3 54 -7 81c-3 27 -6 55 -6 84c0 94 57 138 140 138h16v-68h-15c-40 -4 -56 -30 -56 -71c0 -25 2 -49 6 -72c2 -23 4 -44 4 -66c1 -71 -26 -106 -73 -120v-2c46 -14 73 -48 73 -121c0 -23 -2 -45 -5 -68s-5 -46 -5 -69
c0 -41 12 -68 57 -73h14v-68h-17c-75 0 -139 35 -139 137c0 29 3 56 7 85c3 27 6 54 6 81c0 28 -13 63 -68 63z" />
    <glyph glyph-name="braceright.cap" unicode="&#xf6b3;" horiz-adv-x="256" 
d="M238 361v-66c-55 0 -67 -35 -68 -63c0 -27 3 -54 6 -81c3 -29 6 -56 6 -85c0 -102 -64 -137 -139 -137h-17v68h14c45 5 57 32 57 73c0 23 -2 46 -4 69c-3 23 -5 45 -5 68c-1 73 26 107 73 121v2c-46 14 -73 49 -73 120c0 22 2 43 5 66c2 23 4 47 4 72c0 41 -16 67 -56 71
h-15v68h16c83 0 140 -44 140 -138c0 -29 -3 -57 -6 -84s-6 -53 -6 -81c0 -30 13 -63 68 -63z" />
    <glyph glyph-name="bracketleft.cap" unicode="&#xf6b0;" horiz-adv-x="256" 
d="M229 -71h-168v798h168v-70h-86v-658h86v-70z" />
    <glyph glyph-name="bracketright.cap" unicode="&#xf6b1;" horiz-adv-x="256" 
d="M27 727h168v-798h-168v70h85v658h-85v70z" />
    <glyph glyph-name="parenleft.cap" unicode="&#xf6ae;" horiz-adv-x="256" 
d="M156 733h79c-57 -90 -105 -223 -105 -407c0 -180 48 -313 105 -405h-79c-54 75 -112 211 -112 405c3 196 58 331 112 407z" />
    <glyph glyph-name="parenright.cap" unicode="&#xf6af;" horiz-adv-x="256" 
d="M100 -79h-79c57 91 105 226 105 408c0 180 -48 313 -105 404h79c54 -74 112 -207 112 -405c-3 -197 -58 -330 -112 -407z" />
    <glyph glyph-name="periodcentered.cap" unicode="&#xf6bd;" horiz-adv-x="216" 
d="M107 267c-35 0 -64 29 -64 73c0 42 30 73 65 73c37 0 65 -28 65 -73c0 -44 -26 -73 -66 -73z" />
    <glyph glyph-name="lessequal" unicode="&#x2264;" horiz-adv-x="596" 
d="M533 105l-469 187v70l469 187v-77l-374 -144v-2l374 -145v-76zM533 0h-469v66h469v-66z" />
    <glyph glyph-name="greaterequal" unicode="&#x2265;" horiz-adv-x="596" 
d="M533 292l-469 -187v76l373 145v2l-373 144v77l469 -187v-70zM533 0h-469v66h469v-66z" />
    <glyph glyph-name="approxequal" unicode="&#x2248;" horiz-adv-x="596" 
d="M537 417l34 -53c-33 -35 -90 -72 -152 -72c-61 0 -97 22 -129 36c-30 13 -63 34 -115 34c-46 0 -92 -30 -119 -55l-34 54c33 34 90 71 153 71c61 0 96 -22 129 -36c30 -13 63 -34 115 -34c45 0 92 30 118 55zM541 214l34 -53c-33 -35 -90 -72 -153 -72
c-61 0 -96 22 -129 36c-30 13 -63 34 -115 34c-46 0 -92 -30 -118 -55l-35 54c33 34 90 71 153 71c61 0 97 -22 129 -36c30 -13 63 -34 115 -34c46 0 92 30 119 55z" />
    <glyph glyph-name="notequal" unicode="&#x2260;" horiz-adv-x="596" 
d="M556 132h-309l-72 -116h-75l74 116h-134v70h178l85 133h-263v70h308l72 116h74l-73 -116h135v-70h-180l-85 -133h265v-70z" />
    <glyph glyph-name="infinity" unicode="&#x221e;" horiz-adv-x="736" 
d="M545 110c-73 0 -129 58 -178 105c-49 -48 -101 -105 -185 -105c-88 0 -149 65 -149 153c0 84 65 155 157 155c74 0 130 -58 179 -106c49 49 101 106 185 106c88 0 149 -65 149 -155c0 -82 -65 -153 -158 -153zM546 179c47 0 83 39 83 84c0 50 -34 86 -81 86
c-54 0 -98 -48 -134 -85c37 -35 76 -85 132 -85zM189 179c53 0 97 47 133 83c-37 35 -76 87 -131 87c-48 0 -84 -39 -84 -86c0 -48 34 -84 82 -84z" />
    <glyph glyph-name="lozenge" unicode="&#x25ca;" horiz-adv-x="488" 
d="M444 325l-163 -349h-75l-163 349l163 349h75zM358 323l-104 235c-3 8 -8 20 -11 31h-2c-3 -11 -8 -23 -11 -31l-101 -231l104 -235c3 -8 8 -20 10 -31h3c3 11 8 23 11 31z" />
    <glyph glyph-name="integral" unicode="&#x222b;" horiz-adv-x="330" 
d="M307 792l-12 -69c-8 2 -19 4 -30 4c-15 0 -28 -8 -39 -26c-16 -24 -21 -71 -21 -152c0 -149 8 -298 8 -459c0 -93 -10 -153 -33 -190c-23 -39 -57 -55 -102 -55c-24 0 -42 5 -52 9l14 72c8 -2 19 -5 28 -5c14 0 29 6 38 20c14 22 21 61 21 147c0 162 -8 314 -8 468
c0 106 13 163 49 203c25 28 61 40 94 40c18 0 35 -3 45 -7z" />
    <glyph glyph-name="partialdiff" unicode="&#x2202;" horiz-adv-x="375" 
d="M74 615l-31 72c32 21 77 45 140 45c113 0 224 -110 224 -343c0 -279 -112 -397 -222 -397c-99 0 -161 80 -161 209c0 155 84 250 181 250c46 0 77 -21 96 -49h1v14c0 153 -65 226 -136 226c-44 0 -74 -14 -92 -27zM195 80c52 0 96 108 100 230c-14 34 -38 56 -68 56
c-55 0 -97 -76 -97 -170c0 -84 30 -116 65 -116z" />
    <glyph glyph-name="product" unicode="&#x220f;" horiz-adv-x="475" 
d="M465 557h-62v-647h-98v647h-141v-647h-98v647h-62v93h461v-93z" />
    <glyph glyph-name="radical" unicode="&#x221a;" horiz-adv-x="536" 
d="M522 831l-192 -915h-75l-125 417l-73 -26l-17 54l144 53l85 -302c10 -35 18 -73 20 -90h1c2 18 7 56 15 93l143 716h74z" />
    <glyph glyph-name="summation" unicode="&#x2211;" horiz-adv-x="398" 
d="M392 -90h-380v67l170 304l-164 301v68h356v-92h-227v-3l143 -268l-157 -280v-4h259v-93z" />
    <glyph glyph-name="Delta" unicode="&#x2206;" horiz-adv-x="434" 
d="M416 0h-397v56l145 597h115l137 -595v-58zM311 91l-57 263c-12 55 -27 135 -34 182h-3c-7 -47 -23 -121 -35 -177l-59 -268h188z" />
    <glyph glyph-name="Omega" unicode="&#x2126;" horiz-adv-x="505" 
d="M380 92v-4h96v-88h-197v67c41 51 76 162 75 291c0 112 -28 231 -101 231c-72 0 -103 -115 -103 -231c0 -120 38 -243 76 -291v-67h-197v88h95v4c-45 66 -85 167 -85 284c0 180 87 306 220 306c140 0 205 -140 205 -299c0 -121 -40 -228 -84 -291z" />
    <glyph glyph-name="pi" unicode="&#x3c0;" horiz-adv-x="439" 
d="M418 401h-46v-285c0 -55 4 -91 10 -116h-100c-10 19 -16 63 -16 116v285h-82c-1 -110 -17 -293 -49 -401h-100c31 113 47 287 46 401c-28 0 -48 -3 -60 -5l-14 65c17 14 65 26 138 26h282z" />
    <glyph glyph-name="aringacute" unicode="&#x1fb;" horiz-adv-x="396" 
d="M242 817h99l-116 -98h-70zM346 305v-194c0 -38 1 -79 6 -111h-96l-6 50h-3c-24 -38 -60 -58 -102 -58c-70 0 -123 58 -123 144c0 125 106 178 216 179v13c0 50 -20 85 -73 85c-35 0 -64 -10 -91 -26l-20 72c24 15 75 35 134 35c126 0 158 -86 158 -189zM241 153v91
c-42 -1 -117 -12 -117 -97c0 -55 29 -75 52 -75c27 0 53 18 62 56c2 7 3 16 3 25zM200 519c-63 0 -98 39 -98 87c0 50 33 91 99 91c62 0 97 -39 97 -89c0 -49 -38 -89 -98 -89zM199 559c32 0 45 26 45 49c0 24 -12 49 -46 49c-29 0 -41 -27 -41 -50c0 -20 12 -48 42 -48z
" />
    <glyph glyph-name="Abreve" unicode="&#x102;" horiz-adv-x="448" 
d="M287 175h-133l-37 -175h-103l150 674h124l139 -674h-104zM166 259h110l-28 155c-8 44 -17 106 -24 153h-3c-8 -47 -18 -112 -26 -154zM110 816h59c3 -26 23 -43 55 -43s53 15 56 43h59c0 -64 -40 -107 -114 -107c-75 0 -115 42 -115 107z" />
    <glyph glyph-name="Amacron" unicode="&#x100;" horiz-adv-x="448" 
d="M287 175h-133l-37 -175h-103l150 674h124l139 -674h-104zM166 259h110l-28 155c-8 44 -17 106 -24 153h-3c-8 -47 -18 -112 -26 -154zM112 803h225v-67h-225v67z" />
    <glyph glyph-name="Aogonek" unicode="&#x104;" horiz-adv-x="448" 
d="M289 674l139 -674h-37c-15 -22 -34 -58 -34 -87c0 -27 20 -44 41 -44c17 0 29 3 40 7l14 -55c-25 -19 -56 -24 -81 -24c-59 0 -91 35 -91 90c0 50 29 95 43 116l-35 172h-134l-36 -175h-104l150 674h125zM166 259h111l-28 155c-8 44 -17 106 -25 153h-2
c-8 -47 -18 -112 -26 -154z" />
    <glyph glyph-name="i.dot" horiz-adv-x="205" 
d="M156 0h-107v487h107v-487zM101 676c34 0 58 -24 58 -62c0 -37 -24 -62 -59 -62c-31 0 -56 25 -56 62c0 38 26 62 57 62z" />
    <glyph glyph-name="Cacute" unicode="&#x106;" horiz-adv-x="385" 
d="M356 101l13 -90c-20 -10 -55 -17 -99 -17c-154 0 -242 126 -242 334c0 259 137 352 257 352c44 0 75 -9 88 -17l-20 -91c-16 8 -32 14 -64 14c-73 0 -148 -67 -148 -251c0 -181 68 -246 149 -246c25 0 50 5 66 12zM282 821h114l-123 -111h-79z" />
    <glyph glyph-name="Ccaron" unicode="&#x10c;" horiz-adv-x="385" 
d="M356 101l13 -90c-20 -10 -55 -17 -99 -17c-154 0 -242 126 -242 334c0 259 137 352 257 352c44 0 75 -9 88 -17l-20 -91c-16 8 -32 14 -64 14c-73 0 -148 -67 -148 -251c0 -181 68 -246 149 -246c25 0 50 5 66 12zM297 710h-86l-86 104h83l45 -55h2l44 55h81z" />
    <glyph glyph-name="Ccircumflex" unicode="&#x108;" horiz-adv-x="385" 
d="M356 101l13 -90c-20 -10 -55 -17 -99 -17c-154 0 -242 126 -242 334c0 259 137 352 257 352c44 0 75 -9 88 -17l-20 -91c-16 8 -32 14 -64 14c-73 0 -148 -67 -148 -251c0 -181 68 -246 149 -246c25 0 50 5 66 12zM200 814h86l86 -104h-83l-45 53h-2l-44 -53h-81z" />
    <glyph glyph-name="Cdotaccent" unicode="&#x10a;" horiz-adv-x="385" 
d="M356 101l13 -90c-20 -10 -55 -17 -99 -17c-154 0 -242 126 -242 334c0 259 137 352 257 352c44 0 75 -9 88 -17l-20 -91c-16 8 -32 14 -64 14c-73 0 -148 -67 -148 -251c0 -181 68 -246 149 -246c25 0 50 5 66 12zM248 716c-29 0 -54 25 -54 55c0 31 25 55 55 55
s54 -24 54 -55c0 -30 -24 -55 -55 -55z" />
    <glyph glyph-name="Dcaron" unicode="&#x10e;" horiz-adv-x="470" 
d="M59 2v662c31 8 74 13 120 13c78 0 134 -19 174 -56c55 -49 89 -137 89 -272c0 -145 -36 -236 -87 -286c-45 -46 -111 -68 -198 -68c-37 0 -74 3 -98 7zM165 588v-503c9 -2 19 -2 26 -2c74 0 141 62 141 267c0 153 -43 241 -136 241c-11 0 -22 -1 -31 -3zM251 710h-86
l-86 104h83l45 -55h2l44 55h81z" />
    <glyph glyph-name="Ebreve" unicode="&#x114;" horiz-adv-x="376" 
d="M326 396v-89h-160v-214h182v-93h-289v674h277v-93h-170v-185h160zM85 819h59c3 -26 23 -43 55 -43s53 15 56 43h59c0 -64 -40 -107 -114 -107c-75 0 -115 42 -115 107z" />
    <glyph glyph-name="Ecaron" unicode="&#x11a;" horiz-adv-x="376" 
d="M326 396v-89h-160v-214h182v-93h-289v674h277v-93h-170v-185h160zM242 710h-86l-86 104h83l45 -55h2l44 55h81z" />
    <glyph glyph-name="Edotaccent" unicode="&#x116;" horiz-adv-x="376" 
d="M326 396v-89h-160v-214h182v-93h-289v674h277v-93h-170v-185h160zM198 721c-29 0 -54 25 -54 55c0 31 25 55 55 55s54 -24 54 -55c0 -30 -24 -55 -55 -55z" />
    <glyph glyph-name="Emacron" unicode="&#x112;" horiz-adv-x="376" 
d="M326 396v-89h-160v-214h182v-93h-289v674h277v-93h-170v-185h160zM85 803h225v-67h-225v67z" />
    <glyph glyph-name="Eogonek" unicode="&#x118;" horiz-adv-x="376" 
d="M344 -125l13 -56c-26 -18 -59 -23 -86 -23c-54 0 -86 32 -86 82c0 48 36 93 73 122h-199v674h277v-93h-170v-185h160v-89h-160v-214h182v-93c-5 0 -9 -1 -14 -2c-41 -30 -70 -64 -70 -95c0 -25 18 -35 38 -35c15 0 30 2 42 7z" />
    <glyph glyph-name="Gbreve" unicode="&#x11e;" horiz-adv-x="456" 
d="M414 366v-348c-29 -12 -84 -24 -131 -24c-69 0 -126 19 -171 66c-53 55 -85 151 -84 270c2 254 140 350 272 350c47 0 83 -9 104 -20l-21 -92c-18 10 -43 16 -77 16c-87 0 -167 -64 -167 -255c0 -182 70 -244 141 -244c18 0 29 2 35 5v188h-72v88h171zM151 816h59
c3 -26 23 -43 55 -43s53 15 56 43h59c0 -64 -40 -107 -114 -107c-75 0 -115 42 -115 107z" />
    <glyph glyph-name="Gcircumflex" unicode="&#x11c;" horiz-adv-x="456" 
d="M414 366v-348c-29 -12 -84 -24 -131 -24c-69 0 -126 19 -171 66c-53 55 -85 151 -84 270c2 254 140 350 272 350c47 0 83 -9 104 -20l-21 -92c-18 10 -43 16 -77 16c-87 0 -167 -64 -167 -255c0 -182 70 -244 141 -244c18 0 29 2 35 5v188h-72v88h171zM219 814h86
l86 -104h-83l-45 53h-2l-44 -53h-81z" />
    <glyph glyph-name="Gcommaaccent" unicode="&#x122;" horiz-adv-x="456" 
d="M414 366v-348c-29 -12 -84 -24 -131 -24c-69 0 -126 19 -171 66c-53 55 -85 151 -84 270c2 254 140 350 272 350c47 0 83 -9 104 -20l-21 -92c-18 10 -43 16 -77 16c-87 0 -167 -64 -167 -255c0 -182 70 -244 141 -244c18 0 29 2 35 5v188h-72v88h171zM206 -219l-19 48
c28 8 61 26 61 57c0 25 -18 48 -33 61l80 12c17 -11 36 -36 36 -71c0 -67 -58 -99 -125 -107z" />
    <glyph glyph-name="Gdotaccent" unicode="&#x120;" horiz-adv-x="456" 
d="M414 366v-348c-29 -12 -84 -24 -131 -24c-69 0 -126 19 -171 66c-53 55 -85 151 -84 270c2 254 140 350 272 350c47 0 83 -9 104 -20l-21 -92c-18 10 -43 16 -77 16c-87 0 -167 -64 -167 -255c0 -182 70 -244 141 -244c18 0 29 2 35 5v188h-72v88h171zM264 716
c-29 0 -54 25 -54 55c0 31 25 55 55 55s54 -24 54 -55c0 -30 -24 -55 -55 -55z" />
    <glyph glyph-name="G_tildecomb" unicode="&#xe000;" horiz-adv-x="456" 
d="M414 366v-348c-29 -12 -84 -24 -131 -24c-69 0 -126 19 -171 66c-53 55 -85 151 -84 270c2 254 140 350 272 350c47 0 83 -9 104 -20l-21 -92c-18 10 -43 16 -77 16c-87 0 -167 -64 -167 -255c0 -182 70 -244 141 -244c18 0 29 2 35 5v188h-72v88h171zM208 718h-51
c-2 66 24 106 63 106c21 0 37 -9 50 -18c14 -9 26 -17 38 -17c15 0 22 9 25 37h50c2 -71 -21 -103 -66 -103c-21 0 -38 8 -51 16c-14 9 -24 16 -35 16c-13 0 -21 -12 -23 -37z" />
    <glyph glyph-name="Hcircumflex" unicode="&#x124;" horiz-adv-x="492" 
d="M59 674h107v-279h160v279h107v-674h-107v297h-160v-297h-107v674zM203 814h86l86 -104h-83l-45 53h-2l-44 -53h-81z" />
    <glyph glyph-name="Ibreve" unicode="&#x12c;" horiz-adv-x="226" 
d="M59 674h107v-674h-107v674zM-2 820h59c3 -26 23 -43 55 -43s53 15 56 43h59c0 -64 -40 -107 -114 -107c-75 0 -115 42 -115 107z" />
    <glyph glyph-name="Idotaccent" unicode="&#x130;" horiz-adv-x="226" 
d="M59 674h107v-674h-107v674zM113 721c-29 0 -54 25 -54 55c0 31 25 55 55 55s54 -24 54 -55c0 -30 -24 -55 -55 -55z" />
    <glyph glyph-name="Imacron" unicode="&#x12a;" horiz-adv-x="226" 
d="M59 674h107v-674h-107v674zM1 803h225v-67h-225v67z" />
    <glyph glyph-name="Iogonek" unicode="&#x12e;" horiz-adv-x="226" 
d="M166 674v-674h-39c-15 -23 -32 -58 -32 -89c0 -30 20 -45 41 -45c18 0 31 3 40 7l14 -56c-26 -18 -56 -23 -81 -23c-59 0 -91 35 -91 88c0 51 28 96 41 118v674h107z" />
    <glyph glyph-name="Itilde" unicode="&#x128;" horiz-adv-x="226" 
d="M59 674h107v-674h-107v674zM51 718h-51c-2 66 24 106 63 106c21 0 37 -9 50 -18c15 -9 27 -17 39 -17c15 0 22 9 25 37h50c2 -71 -21 -103 -66 -103c-21 0 -38 8 -52 16c-14 9 -24 16 -35 16c-13 0 -21 -12 -23 -37z" />
    <glyph glyph-name="Jcircumflex" unicode="&#x134;" horiz-adv-x="282" 
d="M124 200v474h107v-470c0 -175 -79 -212 -175 -212c-24 0 -45 3 -59 8l9 90c11 -3 25 -4 40 -4c46 0 78 18 78 114zM131 814h86l86 -104h-83l-45 53h-2l-44 -53h-81z" />
    <glyph glyph-name="Kcommaaccent" unicode="&#x136;" horiz-adv-x="434" 
d="M59 0v674h106v-311h3c12 28 24 57 36 85l106 226h118l-157 -291l160 -383h-116l-116 300l-34 -60v-240h-106zM167 -215l-19 48c28 8 61 26 61 57c0 25 -18 48 -33 61l80 12c17 -11 36 -36 36 -71c0 -67 -58 -99 -125 -107z" />
    <glyph glyph-name="Lacute" unicode="&#x139;" horiz-adv-x="364" 
d="M59 0v674h107v-584h180v-90h-287zM159 821h114l-123 -111h-79z" />
    <glyph glyph-name="Lcaron" unicode="&#x13d;" horiz-adv-x="364" 
d="M59 0v674h107v-584h180v-90h-287zM220 496l-19 48c28 8 61 26 61 57c0 25 -18 47 -33 61l80 12c17 -12 36 -36 36 -71c0 -67 -58 -99 -125 -107z" />
    <glyph glyph-name="Lcommaaccent" unicode="&#x13b;" horiz-adv-x="364" 
d="M59 0v674h107v-584h180v-90h-287zM126 -219l-19 48c28 8 61 26 61 57c0 25 -18 48 -33 61l80 12c17 -11 36 -36 36 -71c0 -67 -58 -99 -125 -107z" />
    <glyph glyph-name="Ldot" unicode="&#x13f;" horiz-adv-x="364" 
d="M59 0v674h107v-584h180v-90h-287zM270 308c-29 0 -54 25 -54 55c0 31 25 55 55 55s54 -24 54 -55c0 -30 -24 -55 -55 -55z" />
    <glyph glyph-name="M_uni0302" unicode="&#xe001;" horiz-adv-x="620" 
d="M482 0l-13 260c-4 76 -8 168 -7 242h-3c-13 -74 -31 -155 -47 -220l-70 -274h-73l-66 267c-18 68 -36 152 -48 227h-3c-1 -76 -5 -165 -9 -245l-12 -257h-93l45 674h113l65 -273c21 -87 38 -158 51 -234h2c12 76 27 146 47 234l63 273h115l40 -674h-97zM265 814h86
l86 -104h-83l-45 53h-2l-44 -53h-81z" />
    <glyph glyph-name="Nacute" unicode="&#x143;" horiz-adv-x="493" 
d="M153 0h-94v674h98l114 -288c24 -61 58 -148 79 -213h2c-6 86 -12 190 -12 311v190h94v-674h-98l-115 287c-25 62 -55 143 -74 214h-2c5 -78 8 -173 8 -313v-188zM289 821h114l-123 -111h-79z" />
    <glyph glyph-name="Ncaron" unicode="&#x147;" horiz-adv-x="493" 
d="M153 0h-94v674h98l114 -288c24 -61 58 -148 79 -213h2c-6 86 -12 190 -12 311v190h94v-674h-98l-115 287c-25 62 -55 143 -74 214h-2c5 -78 8 -173 8 -313v-188zM290 710h-86l-86 104h83l45 -55h2l44 55h81z" />
    <glyph glyph-name="N_uni0302" unicode="&#xe002;" horiz-adv-x="493" 
d="M153 0h-94v674h98l114 -288c24 -61 58 -148 79 -213h2c-6 86 -12 190 -12 311v190h94v-674h-98l-115 287c-25 62 -55 143 -74 214h-2c5 -78 8 -173 8 -313v-188zM202 814h86l86 -104h-83l-45 53h-2l-44 -53h-81z" />
    <glyph glyph-name="Ncommaaccent" unicode="&#x145;" horiz-adv-x="493" 
d="M153 0h-94v674h98l114 -288c24 -61 58 -148 79 -213h2c-6 86 -12 190 -12 311v190h94v-674h-98l-115 287c-25 62 -55 143 -74 214h-2c5 -78 8 -173 8 -313v-188zM186 -214l-19 48c27 8 61 26 61 57c0 25 -18 48 -33 61l80 12c17 -11 36 -36 36 -71
c0 -67 -58 -99 -125 -107z" />
    <glyph glyph-name="Obreve" unicode="&#x14e;" horiz-adv-x="465" 
d="M240 682c141 0 197 -155 197 -336c0 -254 -89 -354 -208 -354c-134 0 -201 142 -201 346c0 202 76 344 212 344zM234 589c-67 0 -95 -111 -95 -252c0 -147 28 -252 96 -252c69 0 91 121 91 256c0 122 -20 248 -92 248zM117 821h59c3 -26 23 -43 55 -43s53 15 56 43h59
c0 -64 -40 -107 -114 -107c-75 0 -115 42 -115 107z" />
    <glyph glyph-name="Ohungarumlaut" unicode="&#x150;" horiz-adv-x="465" 
d="M240 682c141 0 197 -155 197 -336c0 -254 -89 -354 -208 -354c-134 0 -201 142 -201 346c0 202 76 344 212 344zM234 589c-67 0 -95 -111 -95 -252c0 -147 28 -252 96 -252c69 0 91 121 91 256c0 122 -20 248 -92 248zM197 821h96l-96 -105h-64zM335 821h95l-95 -105h-64
z" />
    <glyph glyph-name="Omacron" unicode="&#x14c;" horiz-adv-x="465" 
d="M240 682c141 0 197 -155 197 -336c0 -254 -89 -354 -208 -354c-134 0 -201 142 -201 346c0 202 76 344 212 344zM234 589c-67 0 -95 -111 -95 -252c0 -147 28 -252 96 -252c69 0 91 121 91 256c0 122 -20 248 -92 248zM121 803h225v-67h-225v67z" />
    <glyph glyph-name="Oslashacute" unicode="&#x1fe;" horiz-adv-x="465" 
d="M98 -44l-56 30l42 95c-39 62 -56 153 -56 257c0 201 76 344 206 344c36 0 69 -10 98 -33l31 70l59 -25l-42 -93c42 -65 57 -160 57 -255c0 -253 -88 -354 -204 -354c-37 0 -73 11 -102 38zM146 206l145 348c-14 21 -34 35 -57 35c-68 0 -101 -106 -101 -250
c0 -40 1 -88 11 -133h2zM319 472l-148 -347c14 -27 38 -40 63 -40c69 0 98 109 98 256c0 40 -1 86 -11 130zM272 821h114l-123 -111h-79z" />
    <glyph glyph-name="Racute" unicode="&#x154;" horiz-adv-x="443" 
d="M59 0v664c37 9 84 13 128 13c70 0 128 -12 167 -49c38 -36 51 -81 51 -137c0 -78 -38 -139 -106 -170v-2c48 -17 72 -62 86 -142c14 -82 30 -154 41 -177h-111c-8 19 -23 85 -34 164c-13 88 -38 116 -92 116h-24v-280h-106zM165 589v-227h28c64 0 104 50 104 119
c0 66 -27 111 -96 112c-14 0 -27 -1 -36 -4zM248 821h114l-123 -111h-79z" />
    <glyph glyph-name="Rcaron" unicode="&#x158;" horiz-adv-x="443" 
d="M59 0v664c37 9 84 13 128 13c70 0 128 -12 167 -49c38 -36 51 -81 51 -137c0 -78 -38 -139 -106 -170v-2c48 -17 72 -62 86 -142c14 -82 30 -154 41 -177h-111c-8 19 -23 85 -34 164c-13 88 -38 116 -92 116h-24v-280h-106zM165 589v-227h28c64 0 104 50 104 119
c0 66 -27 111 -96 112c-14 0 -27 -1 -36 -4zM260 710h-86l-86 104h83l45 -55h2l44 55h81z" />
    <glyph glyph-name="Rcommaaccent" unicode="&#x156;" horiz-adv-x="443" 
d="M59 0v664c37 9 84 13 128 13c70 0 128 -12 167 -49c38 -36 51 -81 51 -137c0 -78 -38 -139 -106 -170v-2c48 -17 72 -62 86 -142c14 -82 30 -154 41 -177h-111c-8 19 -23 85 -34 164c-13 88 -38 116 -92 116h-24v-280h-106zM165 589v-227h28c64 0 104 50 104 119
c0 66 -27 111 -96 112c-14 0 -27 -1 -36 -4zM165 -215l-19 48c28 8 61 26 61 57c0 25 -18 48 -33 61l80 12c17 -11 36 -36 36 -71c0 -67 -58 -99 -125 -107z" />
    <glyph glyph-name="Sacute" unicode="&#x15a;" horiz-adv-x="379" 
d="M26 22l18 92c25 -15 69 -27 104 -27c66 0 102 38 102 94c0 54 -33 85 -88 123c-75 48 -127 115 -127 188c0 105 71 188 197 188c43 0 82 -13 100 -24l-19 -92c-19 12 -47 23 -83 23c-61 0 -90 -41 -90 -82c0 -52 27 -76 96 -120c85 -56 119 -121 119 -193
c0 -121 -86 -198 -207 -198c-50 0 -101 14 -122 28zM227 821h114l-123 -111h-79z" />
    <glyph glyph-name="Scedilla" unicode="&#x15e;" horiz-adv-x="379" 
d="M26 22l18 92c25 -15 69 -27 104 -27c66 0 102 38 102 94c0 54 -33 85 -88 123c-75 48 -127 115 -127 188c0 105 71 188 197 188c43 0 82 -13 101 -24l-20 -92c-19 12 -47 23 -83 23c-61 0 -90 -41 -90 -82c0 -52 27 -76 96 -120c85 -56 119 -121 119 -193
c0 -96 -55 -165 -138 -189l-25 -50c35 -5 66 -33 66 -72c0 -60 -51 -83 -102 -83c-26 0 -53 7 -71 18l17 49c16 -8 34 -14 52 -14c17 0 34 7 34 28c0 23 -28 36 -69 40l34 75h-5c-50 0 -101 14 -122 28z" />
    <glyph glyph-name="Scircumflex" unicode="&#x15c;" horiz-adv-x="379" 
d="M26 22l18 92c25 -15 69 -27 104 -27c66 0 102 38 102 94c0 54 -33 85 -88 123c-75 48 -127 115 -127 188c0 105 71 188 197 188c43 0 82 -13 100 -24l-19 -92c-19 12 -47 23 -83 23c-61 0 -90 -41 -90 -82c0 -52 27 -76 96 -120c85 -56 119 -121 119 -193
c0 -121 -86 -198 -207 -198c-50 0 -101 14 -122 28zM154 814h86l86 -104h-83l-45 53h-2l-44 -53h-81z" />
    <glyph glyph-name="Scommaaccent" unicode="&#x218;" horiz-adv-x="379" 
d="M26 22l18 92c25 -15 69 -27 104 -27c66 0 102 38 102 94c0 54 -33 85 -88 123c-75 48 -127 115 -127 188c0 105 71 188 197 188c43 0 82 -13 100 -24l-19 -92c-19 12 -47 23 -83 23c-61 0 -90 -41 -90 -82c0 -52 27 -76 96 -120c85 -56 119 -121 119 -193
c0 -121 -86 -198 -207 -198c-50 0 -101 14 -122 28zM122 -219l-19 48c28 8 61 26 61 57c0 25 -18 48 -33 61l80 12c17 -11 36 -36 36 -71c0 -67 -58 -99 -125 -107z" />
    <glyph glyph-name="Tcaron" unicode="&#x164;" horiz-adv-x="376" 
d="M134 0v576h-121v98h349v-98h-121v-576h-107zM231 710h-86l-86 104h83l45 -55h2l44 55h81z" />
    <glyph glyph-name="Tcommaaccent" unicode="&#x162;" horiz-adv-x="376" 
d="M134 0v576h-121v98h349v-98h-121v-576h-107zM127 -219l-19 48c28 8 61 26 61 57c0 25 -18 48 -33 61l80 12c17 -11 36 -36 36 -71c0 -67 -58 -99 -125 -107z" />
    <glyph glyph-name="Ubreve" unicode="&#x16c;" horiz-adv-x="481" 
d="M56 674h107v-444c0 -109 34 -144 76 -144c47 0 78 34 78 144v444h107v-426c0 -174 -69 -256 -185 -256c-123 0 -183 83 -183 251v431zM125 815h59c3 -26 23 -43 55 -43s53 15 56 43h59c0 -64 -40 -107 -114 -107c-75 0 -115 42 -115 107z" />
    <glyph glyph-name="Uhungarumlaut" unicode="&#x170;" horiz-adv-x="481" 
d="M56 674h107v-444c0 -109 34 -144 76 -144c47 0 78 34 78 144v444h107v-426c0 -174 -69 -256 -185 -256c-123 0 -183 83 -183 251v431zM195 821h96l-96 -105h-64zM333 821h95l-95 -105h-64z" />
    <glyph glyph-name="Umacron" unicode="&#x16a;" horiz-adv-x="481" 
d="M56 674h107v-444c0 -109 34 -144 76 -144c47 0 78 34 78 144v444h107v-426c0 -174 -69 -256 -185 -256c-123 0 -183 83 -183 251v431zM127 803h225v-67h-225v67z" />
    <glyph glyph-name="Uogonek" unicode="&#x172;" horiz-adv-x="481" 
d="M339 -118l14 -55c-25 -17 -56 -25 -81 -25c-59 0 -91 33 -91 81c0 44 27 85 48 111h-10c-106 8 -163 89 -163 249v431h107v-444c0 -109 34 -144 76 -144c46 0 78 35 78 144v444h107v-426c0 -129 -38 -211 -111 -239c-31 -27 -55 -67 -55 -97c0 -28 18 -39 38 -39
c16 0 31 3 43 9z" />
    <glyph glyph-name="Uring" unicode="&#x16e;" horiz-adv-x="481" 
d="M56 674h107v-444c0 -109 34 -144 76 -144c47 0 78 34 78 144v444h107v-426c0 -174 -69 -256 -185 -256c-123 0 -183 83 -183 251v431zM241 871c67 0 99 -42 99 -90s-35 -91 -100 -91c-67 0 -100 43 -100 88c0 48 35 93 101 93zM239 829c-28 0 -40 -26 -40 -50
c0 -22 13 -46 41 -46s41 22 41 48c0 24 -13 48 -42 48z" />
    <glyph glyph-name="Utilde" unicode="&#x168;" horiz-adv-x="481" 
d="M56 674h107v-444c0 -109 34 -144 76 -144c47 0 78 34 78 144v444h107v-426c0 -174 -69 -256 -185 -256c-123 0 -183 83 -183 251v431zM178 718h-51c-2 66 24 106 63 106c21 0 36 -9 50 -18s26 -17 38 -17c15 0 22 9 25 37h50c2 -71 -21 -103 -66 -103c-21 0 -38 8 -51 16
c-14 9 -24 16 -36 16s-20 -12 -22 -37z" />
    <glyph glyph-name="Wacute" unicode="&#x1e82;" horiz-adv-x="668" 
d="M241 0h-103l-122 674h111l43 -294c12 -81 20 -157 28 -240h3c9 84 24 158 39 241l55 293h88l52 -289c14 -78 27 -154 36 -245h2c10 92 20 165 30 243l43 291h105l-124 -674h-109l-51 269c-12 66 -23 143 -32 221h-2c-11 -79 -22 -153 -37 -223zM373 821h114l-123 -111
h-79z" />
    <glyph glyph-name="Wcircumflex" unicode="&#x174;" horiz-adv-x="668" 
d="M241 0h-103l-122 674h111l43 -294c12 -81 20 -157 28 -240h3c9 84 24 158 39 241l55 293h88l52 -289c14 -78 27 -154 36 -245h2c10 92 20 165 30 243l43 291h105l-124 -674h-109l-51 269c-12 66 -23 143 -32 221h-2c-11 -79 -22 -153 -37 -223zM295 814h86l86 -104h-83
l-45 53h-2l-44 -53h-81z" />
    <glyph glyph-name="Wdieresis" unicode="&#x1e84;" horiz-adv-x="668" 
d="M241 0h-103l-122 674h111l43 -294c12 -81 20 -157 28 -240h3c9 84 24 158 39 241l55 293h88l52 -289c14 -78 27 -154 36 -245h2c10 92 20 165 30 243l43 291h105l-124 -674h-109l-51 269c-12 66 -23 143 -32 221h-2c-11 -79 -22 -153 -37 -223zM250 719
c-28 0 -51 24 -51 56s24 56 52 56c29 0 52 -24 52 -56s-23 -56 -53 -56zM424 719c-28 0 -51 24 -51 56s24 56 52 56c30 0 52 -24 52 -56s-22 -56 -53 -56z" />
    <glyph glyph-name="Wgrave" unicode="&#x1e80;" horiz-adv-x="668" 
d="M241 0h-103l-122 674h111l43 -294c12 -81 20 -157 28 -240h3c9 84 24 158 39 241l55 293h88l52 -289c14 -78 27 -154 36 -245h2c10 92 20 165 30 243l43 291h105l-124 -674h-109l-51 269c-12 66 -23 143 -32 221h-2c-11 -79 -22 -153 -37 -223zM191 821h114l88 -111h-79z
" />
    <glyph glyph-name="Ycircumflex" unicode="&#x176;" horiz-adv-x="398" 
d="M251 0h-107v270l-148 404h113l52 -164c15 -45 30 -97 42 -148h2c11 50 25 101 40 151l47 161h111l-152 -400v-274zM157 814h86l86 -104h-83l-45 53h-2l-44 -53h-81z" />
    <glyph glyph-name="Ygrave" unicode="&#x1ef2;" horiz-adv-x="398" 
d="M251 0h-107v270l-148 404h113l52 -164c15 -45 30 -97 42 -148h2c11 50 25 101 40 151l47 161h111l-152 -400v-274zM57 817h114l88 -111h-79z" />
    <glyph glyph-name="uni0232" unicode="&#x232;" horiz-adv-x="398" 
d="M251 0h-107v270l-148 404h113l52 -164c15 -45 30 -97 42 -148h2c11 50 25 101 40 151l47 161h111l-152 -400v-274zM87 803h225v-67h-225v67z" />
    <glyph glyph-name="Zacute" unicode="&#x179;" horiz-adv-x="374" 
d="M15 0v63l221 516v2h-201v93h322v-77l-215 -501v-3h214v-93h-341zM229 821h113l-123 -111h-79z" />
    <glyph glyph-name="Zdotaccent" unicode="&#x17b;" horiz-adv-x="374" 
d="M15 0v63l221 516v2h-201v93h322v-77l-215 -501v-3h214v-93h-341zM199 717c-29 0 -54 25 -54 55c0 31 25 55 55 55s54 -24 54 -55c0 -30 -24 -55 -55 -55z" />
    <glyph glyph-name="AEacute" unicode="&#x1fc;" horiz-adv-x="578" 
d="M104 0h-105l204 674h339v-93h-181l11 -193h166v-89h-158l12 -206h170v-93h-264l-12 201h-128zM178 285h99l-8 184c-2 41 -5 87 -7 131h-4c-12 -52 -28 -113 -38 -152zM376 821h115l-123 -111h-79z" />
    <glyph glyph-name="abreve" unicode="&#x103;" horiz-adv-x="396" 
d="M346 305v-194c0 -38 1 -79 6 -111h-96l-6 50h-2c-25 -38 -61 -58 -103 -58c-70 0 -123 58 -123 144c0 125 106 178 216 179v13c0 50 -20 85 -73 85c-35 0 -64 -10 -91 -26l-20 72c24 15 75 35 134 35c126 0 158 -86 158 -189zM241 153v91c-42 -1 -117 -12 -117 -97
c0 -55 29 -75 53 -75c27 0 52 18 61 56c2 8 3 16 3 25zM85 675h55c3 -35 26 -57 57 -57c37 0 59 25 59 57h54c3 -70 -44 -121 -114 -121s-114 53 -111 121z" />
    <glyph glyph-name="amacron" unicode="&#x101;" horiz-adv-x="396" 
d="M346 305v-194c0 -38 1 -79 6 -111h-96l-6 50h-2c-25 -38 -61 -58 -103 -58c-70 0 -123 58 -123 144c0 125 106 178 216 179v13c0 50 -20 85 -73 85c-35 0 -64 -10 -91 -26l-20 72c24 15 75 35 134 35c126 0 158 -86 158 -189zM241 153v91c-42 -1 -117 -12 -117 -97
c0 -55 29 -75 53 -75c27 0 52 18 61 56c2 8 3 16 3 25zM96 645h205v-64h-205v64z" />
    <glyph glyph-name="aogonek" unicode="&#x105;" horiz-adv-x="396" 
d="M346 305v-194c0 -47 2 -81 8 -111h-29c-15 -23 -32 -58 -32 -90c0 -27 20 -44 41 -44c18 0 31 3 40 7l14 -56c-26 -18 -56 -23 -81 -23c-59 0 -91 35 -91 90c0 49 28 94 40 116l-6 50h-2c-25 -38 -61 -58 -103 -58c-70 0 -123 58 -123 144c0 125 106 178 216 179v13
c0 50 -20 85 -73 85c-35 0 -64 -10 -91 -26l-20 72c24 15 75 35 134 35c126 0 158 -86 158 -189zM241 153v91c-42 -1 -117 -12 -117 -97c0 -55 29 -75 53 -75c27 0 52 18 61 56c2 7 3 16 3 25z" />
    <glyph glyph-name="a.superior" horiz-adv-x="289" 
d="M257 263h-61l-4 34h-2c-18 -25 -44 -39 -75 -39c-48 0 -85 36 -85 95c0 82 73 116 154 117v9c0 27 -16 50 -56 50c-26 0 -47 -8 -63 -19l-14 52c24 16 56 26 90 26c85 0 112 -60 112 -129v-121c0 -25 1 -52 4 -75zM185 360v60c-31 0 -88 -8 -88 -60c0 -29 20 -45 41 -45
c15 0 31 8 40 25c4 6 7 12 7 20z" />
    <glyph glyph-name="cacute" unicode="&#x107;" horiz-adv-x="313" 
d="M294 93l11 -83c-15 -8 -46 -16 -82 -16c-116 0 -192 86 -192 245c0 146 80 254 209 254c29 0 57 -7 70 -14l-16 -85c-11 5 -28 11 -52 11c-69 0 -105 -74 -105 -164c0 -99 40 -159 105 -159c20 0 37 3 52 11zM232 686h98l-103 -138h-68z" />
    <glyph glyph-name="ccaron" unicode="&#x10d;" horiz-adv-x="313" 
d="M294 93l11 -83c-15 -8 -46 -16 -82 -16c-116 0 -192 86 -192 245c0 146 80 254 209 254c29 0 57 -7 70 -14l-16 -85c-11 5 -28 11 -52 11c-69 0 -105 -74 -105 -164c0 -99 40 -159 105 -159c20 0 37 3 52 11zM234 548h-74l-82 138h75l43 -83h2l43 83h76z" />
    <glyph glyph-name="ccircumflex" unicode="&#x109;" horiz-adv-x="313" 
d="M294 93l11 -83c-15 -8 -46 -16 -82 -16c-116 0 -192 86 -192 245c0 146 80 254 209 254c29 0 57 -7 70 -14l-16 -85c-11 5 -28 11 -52 11c-69 0 -105 -74 -105 -164c0 -99 40 -159 105 -159c20 0 37 3 52 11zM162 686h74l82 -138h-75l-43 83h-2l-43 -83h-76z" />
    <glyph glyph-name="cdotaccent" unicode="&#x10b;" horiz-adv-x="313" 
d="M294 93l11 -83c-15 -8 -46 -16 -82 -16c-116 0 -192 86 -192 245c0 146 80 254 209 254c29 0 57 -7 70 -14l-16 -85c-11 5 -28 11 -52 11c-69 0 -105 -74 -105 -164c0 -99 40 -159 105 -159c20 0 37 3 52 11zM197 564c-28 0 -52 23 -52 55s24 55 53 55s52 -23 52 -55
s-22 -55 -53 -55z" />
    <glyph glyph-name="dcaron" unicode="&#x10f;" horiz-adv-x="435" 
d="M270 692h106v-561c0 -39 2 -94 4 -131h-91l-7 58h-3c-16 -35 -54 -66 -101 -66c-94 0 -147 103 -147 250c0 170 73 252 152 252c40 0 69 -19 85 -53h2v251zM270 171v129c0 10 0 20 -2 30c-4 39 -26 74 -58 74c-54 0 -73 -77 -73 -164c0 -97 26 -160 71 -160
c20 0 45 10 58 60c3 9 4 19 4 31zM461 497l-43 30c13 19 30 52 30 89c0 30 -15 55 -30 68l70 12c17 -12 34 -38 34 -73c0 -65 -44 -109 -61 -126z" />
    <glyph glyph-name="ebreve" unicode="&#x115;" horiz-adv-x="394" 
d="M363 215h-229c1 -109 52 -139 109 -139c36 0 66 8 87 17l16 -76c-31 -14 -78 -23 -123 -23c-126 0 -193 91 -193 242c0 160 77 258 182 258c102 0 154 -92 154 -222c0 -28 -1 -44 -3 -57zM134 291h133c1 77 -25 123 -63 123c-47 0 -68 -66 -70 -123zM91 675h55
c3 -35 26 -57 57 -57c37 0 59 25 59 57h54c3 -70 -44 -121 -114 -121s-114 53 -111 121z" />
    <glyph glyph-name="ecaron" unicode="&#x11b;" horiz-adv-x="394" 
d="M363 215h-229c1 -109 52 -139 109 -139c36 0 66 8 87 17l16 -76c-31 -14 -78 -23 -123 -23c-126 0 -193 91 -193 242c0 160 77 258 182 258c102 0 154 -92 154 -222c0 -28 -1 -44 -3 -57zM134 291h133c1 77 -25 123 -63 123c-47 0 -68 -66 -70 -123zM239 548h-74l-82 138
h75l43 -83h2l43 83h76z" />
    <glyph glyph-name="edotaccent" unicode="&#x117;" horiz-adv-x="394" 
d="M363 215h-229c1 -109 52 -139 109 -139c36 0 66 8 87 17l16 -76c-31 -14 -78 -23 -123 -23c-126 0 -193 91 -193 242c0 160 77 258 182 258c102 0 154 -92 154 -222c0 -28 -1 -44 -3 -57zM134 291h133c1 77 -25 123 -63 123c-47 0 -68 -66 -70 -123zM205 564
c-28 0 -52 23 -52 55s24 55 53 55s52 -23 52 -55s-22 -55 -53 -55z" />
    <glyph glyph-name="emacron" unicode="&#x113;" horiz-adv-x="394" 
d="M363 215h-229c1 -109 52 -139 109 -139c36 0 66 8 87 17l16 -76c-31 -14 -78 -23 -123 -23c-126 0 -193 91 -193 242c0 160 77 258 182 258c102 0 154 -92 154 -222c0 -28 -1 -44 -3 -57zM134 291h133c1 77 -25 123 -63 123c-47 0 -68 -66 -70 -123zM98 645h205v-64h-205
v64z" />
    <glyph glyph-name="eogonek" unicode="&#x119;" horiz-adv-x="394" 
d="M305 -120l19 -54c-28 -22 -61 -29 -86 -29c-57 0 -88 34 -88 79c0 48 38 93 71 117v1h-4c-122 3 -187 93 -187 242c0 160 77 258 182 258c102 0 154 -92 154 -222c0 -27 -1 -45 -3 -57h-229c1 -109 52 -139 109 -139c35 0 65 8 87 17l15 -76c-11 -5 -26 -10 -33 -12
c-49 -28 -85 -70 -85 -103c0 -24 16 -34 32 -34s32 5 46 12zM135 291h132c1 77 -25 123 -63 123c-46 0 -67 -66 -69 -123z" />
    <glyph glyph-name="gbreve" unicode="&#x11f;" horiz-adv-x="425" 
d="M377 334v-276c0 -115 -18 -168 -54 -205c-33 -34 -82 -53 -145 -53c-44 0 -85 9 -116 24l22 82c22 -11 53 -21 92 -21c64 0 95 41 95 132v38h-2c-17 -34 -51 -53 -90 -53c-99 0 -148 109 -148 238c0 169 77 254 159 254c45 0 73 -27 90 -59h2l6 52h94
c-3 -40 -5 -87 -5 -153zM271 178v135c0 13 -2 26 -5 36c-7 26 -22 55 -54 55c-51 0 -75 -69 -75 -161c0 -106 32 -156 73 -156c20 0 43 10 55 50c5 13 6 28 6 41zM105 675h55c3 -35 26 -57 57 -57c37 0 59 25 59 57h54c3 -70 -44 -121 -114 -121s-114 53 -111 121z" />
    <glyph glyph-name="gcircumflex" unicode="&#x11d;" horiz-adv-x="425" 
d="M377 334v-276c0 -115 -18 -168 -54 -205c-33 -34 -82 -53 -145 -53c-44 0 -85 9 -116 24l22 82c22 -11 53 -21 92 -21c64 0 95 41 95 132v38h-2c-17 -34 -51 -53 -90 -53c-99 0 -148 109 -148 238c0 169 77 254 159 254c45 0 73 -27 90 -59h2l6 52h94
c-3 -40 -5 -87 -5 -153zM271 178v135c0 13 -2 26 -5 36c-7 26 -22 55 -54 55c-51 0 -75 -69 -75 -161c0 -106 32 -156 73 -156c20 0 43 10 55 50c5 13 6 28 6 41zM178 686h74l82 -138h-75l-43 83h-2l-43 -83h-76z" />
    <glyph glyph-name="gcommaaccent" unicode="&#x123;" horiz-adv-x="425" 
d="M377 334v-276c0 -115 -18 -168 -54 -205c-33 -34 -82 -53 -145 -53c-44 0 -85 9 -116 24l22 82c22 -11 53 -21 92 -21c64 0 95 41 95 132v38h-2c-17 -34 -51 -53 -90 -53c-99 0 -148 109 -148 238c0 169 77 254 159 254c45 0 73 -27 90 -59h2l6 52h94
c-3 -40 -5 -87 -5 -153zM271 178v135c0 13 -2 26 -5 36c-7 26 -22 55 -54 55c-51 0 -75 -69 -75 -161c0 -106 32 -156 73 -156c20 0 43 10 55 50c5 13 6 28 6 41zM280 713l19 -44c-36 -8 -67 -26 -67 -61c0 -27 18 -48 36 -62l-77 -12c-17 13 -36 40 -36 72
c0 69 59 99 125 107z" />
    <glyph glyph-name="gdotaccent" unicode="&#x121;" horiz-adv-x="425" 
d="M377 334v-276c0 -115 -18 -168 -54 -205c-33 -34 -82 -53 -145 -53c-44 0 -85 9 -116 24l22 82c22 -11 53 -21 92 -21c64 0 95 41 95 132v38h-2c-17 -34 -51 -53 -90 -53c-99 0 -148 109 -148 238c0 169 77 254 159 254c45 0 73 -27 90 -59h2l6 52h94
c-3 -40 -5 -87 -5 -153zM271 178v135c0 13 -2 26 -5 36c-7 26 -22 55 -54 55c-51 0 -75 -69 -75 -161c0 -106 32 -156 73 -156c20 0 43 10 55 50c5 13 6 28 6 41zM216 564c-28 0 -52 23 -52 55s24 55 53 55s52 -23 52 -55s-22 -55 -53 -55z" />
    <glyph glyph-name="g_tildecomb" unicode="&#xe005;" horiz-adv-x="425" 
d="M348 334v-276c0 -115 -18 -168 -54 -205c-33 -34 -82 -53 -145 -53c-44 0 -85 9 -116 24l22 82c22 -11 53 -21 92 -21c64 0 95 41 95 132v38h-2c-17 -34 -51 -53 -90 -53c-99 0 -148 109 -148 238c0 169 77 254 159 254c45 0 73 -27 90 -59h2l6 52h94
c-3 -40 -5 -87 -5 -153zM242 178v135c0 13 -2 26 -5 36c-7 26 -22 55 -54 55c-51 0 -75 -69 -75 -161c0 -106 32 -156 73 -156c20 0 43 10 55 50c5 13 6 28 6 41zM148 559h-52c0 59 22 107 67 107c23 0 39 -10 54 -18c13 -8 25 -16 38 -16c14 0 22 6 23 37h50
c0 -69 -24 -103 -67 -103c-18 0 -37 9 -51 16c-15 8 -25 17 -38 17c-14 0 -23 -14 -24 -40z" />
    <glyph glyph-name="hcircumflex" unicode="&#x125;" horiz-adv-x="434" 
d="M49 0v692h107v-257h2c11 17 26 31 42 41c18 11 40 18 65 18c77 0 120 -64 120 -187v-307h-107v303c0 53 -11 101 -56 101c-28 0 -51 -18 -62 -60c-2 -9 -4 -25 -4 -36v-308h-107zM60 827h86l86 -104h-83l-45 53h-2l-44 -53h-81z" />
    <glyph glyph-name="ibreve" unicode="&#x12d;" horiz-adv-x="205" 
d="M156 0h-107v487h107v-487zM-10 675h55c3 -35 26 -57 57 -57c38 0 60 25 60 57h54c3 -70 -44 -121 -115 -121c-70 0 -114 53 -111 121z" />
    <glyph glyph-name="imacron" unicode="&#x12b;" horiz-adv-x="205" 
d="M156 0h-107v487h107v-487zM1 645h205v-64h-205v64z" />
    <glyph glyph-name="iogonek" unicode="&#x12f;" horiz-adv-x="205" 
d="M100 552c-31 0 -56 25 -55 62c-1 38 25 62 57 62c33 0 57 -24 57 -62c1 -37 -24 -62 -59 -62zM156 487v-487h-38c-15 -23 -32 -58 -32 -90c0 -27 20 -44 41 -44c18 0 31 3 40 7l14 -56c-26 -18 -56 -23 -81 -23c-59 0 -91 35 -91 90c0 49 28 94 40 116v487h107z" />
    <glyph glyph-name="itilde" unicode="&#x129;" horiz-adv-x="205" 
d="M156 0h-107v487h107v-487zM39 559h-52c0 59 22 107 67 107c22 0 38 -10 54 -18c13 -8 25 -16 38 -16c14 0 22 6 23 37h50c0 -69 -24 -103 -67 -103c-18 0 -37 9 -51 16c-15 8 -25 17 -38 17c-14 0 -23 -14 -24 -40z" />
    <glyph glyph-name="jcircumflex" unicode="&#x135;" horiz-adv-x="208" 
d="M-24 -200l-10 85c23 4 48 10 64 31c18 23 23 59 23 141v430h107v-454c0 -105 -19 -155 -58 -189c-33 -29 -87 -43 -126 -44zM67 681h74l82 -138h-75l-43 83h-2l-43 -83h-76z" />
    <glyph glyph-name="kcommaaccent" unicode="&#x137;" horiz-adv-x="386" 
d="M155 692v-424h2c9 24 17 43 25 62l78 157h115l-122 -204l131 -283h-119l-85 213l-25 -43v-170h-106v692h106zM137 -219l-19 48c28 8 61 26 61 57c0 25 -18 48 -33 61l80 12c17 -11 36 -36 36 -71c0 -67 -58 -99 -125 -107z" />
    <glyph glyph-name="lacute" unicode="&#x13a;" horiz-adv-x="210" 
d="M49 0v692h107v-692h-107zM138 833h114l-123 -111h-79z" />
    <glyph glyph-name="lcaron" unicode="&#x13e;" horiz-adv-x="215" 
d="M49 0v692h107v-692h-107zM239 498l-43 30c13 19 30 52 30 89c0 29 -15 54 -30 67l70 12c17 -11 34 -38 34 -73c0 -65 -44 -108 -61 -125z" />
    <glyph glyph-name="lcommaaccent" unicode="&#x13c;" horiz-adv-x="210" 
d="M49 0v692h107v-692h-107zM46 -219l-19 48c28 8 61 26 61 57c0 25 -18 48 -33 61l80 12c17 -11 36 -36 36 -71c0 -67 -58 -99 -125 -107z" />
    <glyph glyph-name="ldot" unicode="&#x140;" horiz-adv-x="282" 
d="M49 0v692h107v-692h-107zM245 352c-27 0 -49 23 -49 54s23 54 50 54s48 -22 48 -54c0 -31 -21 -54 -49 -54z" />
    <glyph glyph-name="m_uni0302" unicode="&#xe006;" horiz-adv-x="653" 
d="M49 0v350c0 55 -2 94 -4 137h93l5 -59h2c24 37 63 66 114 66s87 -24 105 -70h2c12 21 30 40 48 52c20 12 43 18 68 18c78 0 122 -60 122 -180v-314h-106v294c0 59 -8 111 -55 111c-28 0 -50 -21 -59 -57c-3 -9 -4 -24 -4 -38v-310h-106v311c0 43 -6 94 -55 94
c-25 0 -51 -20 -60 -59c-2 -11 -4 -25 -4 -39v-307h-106zM290 686h74l82 -138h-75l-43 83h-2l-43 -83h-76z" />
    <glyph glyph-name="nacute" unicode="&#x144;" horiz-adv-x="434" 
d="M49 0v350c0 55 -2 94 -4 137h93l5 -58h2c23 39 64 65 115 65c82 0 125 -63 125 -176v-318h-107v308c0 49 -10 96 -57 96c-26 0 -50 -20 -60 -59c-3 -11 -5 -27 -5 -45v-300h-107zM250 686h99l-103 -138h-68z" />
    <glyph glyph-name="ncaron" unicode="&#x148;" horiz-adv-x="434" 
d="M49 0v350c0 55 -2 94 -4 137h93l5 -58h2c23 39 64 65 115 65c82 0 125 -63 125 -176v-318h-107v308c0 49 -10 96 -57 96c-26 0 -50 -20 -60 -59c-3 -11 -5 -27 -5 -45v-300h-107zM254 548h-74l-82 138h75l43 -83h2l43 83h76z" />
    <glyph glyph-name="n_uni0302" unicode="&#xe007;" horiz-adv-x="434" 
d="M181 686h74l82 -138h-75l-43 83h-2l-43 -83h-76zM49 0v350c0 55 -2 94 -4 137h93l5 -58h2c23 39 64 65 115 65c82 0 125 -63 125 -176v-318h-107v308c0 49 -10 96 -57 96c-26 0 -50 -20 -60 -59c-3 -11 -5 -27 -5 -45v-300h-107z" />
    <glyph glyph-name="ncommaaccent" unicode="&#x146;" horiz-adv-x="434" 
d="M49 0v350c0 55 -2 94 -4 137h93l5 -58h2c23 39 64 65 115 65c82 0 125 -63 125 -176v-318h-107v308c0 49 -10 96 -57 96c-26 0 -50 -20 -60 -59c-3 -11 -5 -27 -5 -45v-300h-107zM162 -216l-19 48c28 8 61 26 61 57c0 25 -18 48 -33 61l80 12c17 -11 36 -36 36 -71
c0 -67 -58 -99 -125 -107z" />
    <glyph glyph-name="obreve" unicode="&#x14f;" horiz-adv-x="410" 
d="M208 494c102 0 171 -90 171 -250c0 -196 -101 -252 -175 -252c-103 0 -173 86 -173 250c0 176 86 252 177 252zM206 412c-57 0 -69 -98 -69 -168c0 -82 14 -170 71 -170c53 0 65 96 65 170c0 70 -12 168 -67 168zM91 675h55c3 -35 26 -57 57 -57c38 0 60 25 60 57h54
c3 -70 -44 -121 -115 -121c-70 0 -114 53 -111 121z" />
    <glyph glyph-name="ohungarumlaut" unicode="&#x151;" horiz-adv-x="410" 
d="M208 494c102 0 171 -90 171 -250c0 -196 -101 -252 -175 -252c-103 0 -173 86 -173 250c0 176 86 252 177 252zM206 412c-57 0 -69 -98 -69 -168c0 -82 14 -170 71 -170c53 0 65 96 65 170c0 70 -12 168 -67 168zM181 686h84l-102 -138h-57zM312 686h84l-102 -138h-57z
" />
    <glyph glyph-name="omacron" unicode="&#x14d;" horiz-adv-x="410" 
d="M208 494c102 0 171 -90 171 -250c0 -196 -101 -252 -175 -252c-103 0 -173 86 -173 250c0 176 86 252 177 252zM206 412c-57 0 -69 -98 -69 -168c0 -82 14 -170 71 -170c53 0 65 96 65 170c0 70 -12 168 -67 168zM103 645h205v-64h-205v64z" />
    <glyph glyph-name="oslashacute" unicode="&#x1ff;" horiz-adv-x="410" 
d="M207 494c30 0 58 -9 84 -27l29 56l51 -28l-37 -70c28 -42 45 -103 45 -181c0 -196 -101 -252 -173 -252c-32 0 -61 9 -86 26l-29 -55l-48 31l34 65c-29 42 -46 103 -46 183c0 176 87 252 176 252zM142 158l108 226c-8 17 -22 28 -45 28c-64 0 -74 -108 -74 -168
c0 -24 1 -54 8 -83zM268 321l-105 -219c8 -17 22 -28 43 -28c58 0 73 89 73 160c0 25 -1 55 -7 86zM234 686h99l-103 -138h-68z" />
    <glyph glyph-name="racute" unicode="&#x155;" horiz-adv-x="273" 
d="M49 0v350c0 45 -2 96 -4 137h93l6 -74h3c19 49 59 81 99 81c10 0 16 -1 23 -2v-106c-7 1 -14 1 -23 1c-37 0 -74 -31 -86 -84c-2 -11 -4 -28 -4 -46v-257h-107zM178 686h98l-103 -138h-68z" />
    <glyph glyph-name="rcaron" unicode="&#x159;" horiz-adv-x="273" 
d="M49 0v350c0 45 -2 96 -4 137h93l6 -74h3c19 49 59 81 99 81c10 0 16 -1 23 -2v-106c-7 1 -14 1 -23 1c-37 0 -74 -31 -86 -84c-2 -11 -4 -28 -4 -46v-257h-107zM185 548h-75l-82 138h75l43 -83h2l43 83h76z" />
    <glyph glyph-name="rcommaaccent" unicode="&#x157;" horiz-adv-x="273" 
d="M49 0v350c0 45 -2 96 -4 137h93l6 -74h3c19 49 59 81 99 81c10 0 16 -1 23 -2v-106c-7 1 -14 1 -23 1c-37 0 -74 -31 -86 -84c-2 -11 -4 -28 -4 -46v-257h-107zM63 -219l-19 48c28 8 61 26 61 57c0 25 -18 48 -33 61l80 12c17 -11 36 -36 36 -71c0 -67 -58 -99 -125 -107
z" />
    <glyph glyph-name="sacute" unicode="&#x15b;" horiz-adv-x="308" 
d="M20 22l21 79c18 -12 51 -26 84 -26c38 0 61 20 61 56c0 30 -14 50 -59 78c-73 44 -99 90 -99 140c0 83 61 145 149 145c39 0 70 -11 93 -24l-21 -79c-19 12 -41 21 -67 21c-37 0 -55 -24 -55 -50c0 -27 12 -42 58 -72c65 -38 100 -86 100 -147c0 -99 -69 -149 -161 -149
c-38 0 -83 11 -104 28zM187 686h99l-103 -138h-68z" />
    <glyph glyph-name="scedilla" unicode="&#x15f;" horiz-adv-x="308" 
d="M21 22l20 79c18 -12 51 -26 84 -26c38 0 61 20 61 56c0 30 -14 50 -59 78c-73 44 -99 90 -99 140c0 83 61 145 149 145c39 0 70 -11 93 -24l-21 -79c-19 12 -41 21 -67 21c-37 0 -55 -24 -55 -50c0 -27 12 -42 58 -72c65 -38 100 -86 100 -147c0 -76 -42 -123 -103 -141
l-24 -48c35 -6 66 -33 66 -73c0 -60 -51 -83 -101 -83c-26 0 -54 7 -72 18l18 49c16 -8 33 -14 51 -14s34 7 34 27c0 23 -27 37 -68 41l33 75h-2c-25 0 -67 8 -96 28z" />
    <glyph glyph-name="scircumflex" unicode="&#x15d;" horiz-adv-x="308" 
d="M20 22l21 79c18 -12 51 -26 84 -26c38 0 61 20 61 56c0 30 -14 50 -59 78c-73 44 -99 90 -99 140c0 83 61 145 149 145c39 0 70 -11 93 -24l-21 -79c-19 12 -41 21 -67 21c-37 0 -55 -24 -55 -50c0 -27 12 -42 58 -72c65 -38 100 -86 100 -147c0 -99 -69 -149 -161 -149
c-38 0 -83 11 -104 28zM117 686h75l82 -138h-75l-44 83h-2l-42 -83h-76z" />
    <glyph glyph-name="scommaaccent" unicode="&#x219;" horiz-adv-x="308" 
d="M20 22l21 79c18 -12 51 -26 84 -26c38 0 61 20 61 56c0 30 -14 50 -59 78c-73 44 -99 90 -99 140c0 83 61 145 149 145c39 0 70 -11 93 -24l-21 -79c-19 12 -41 21 -67 21c-37 0 -55 -24 -55 -50c0 -27 12 -42 58 -72c65 -38 100 -86 100 -147c0 -99 -69 -149 -161 -149
c-38 0 -83 11 -104 28zM89 -219l-19 48c28 8 61 26 61 57c0 25 -18 48 -33 61l80 12c17 -11 36 -36 36 -71c0 -67 -58 -99 -125 -107z" />
    <glyph glyph-name="tcaron" unicode="&#x165;" horiz-adv-x="296" 
d="M70 571l107 37v-121h94v-77h-94v-253c0 -60 23 -75 50 -75c12 0 22 1 33 3l2 -83c-16 -5 -40 -8 -70 -8c-34 0 -65 9 -86 30c-24 24 -36 59 -36 132v254h-58v77h58v84zM293 540l-47 27c14 17 29 49 29 82c0 27 -13 50 -25 62l75 11c15 -11 33 -32 33 -67
c0 -59 -46 -99 -65 -115z" />
    <glyph glyph-name="tcommaaccent" unicode="&#x163;" horiz-adv-x="286" 
d="M70 571l107 37v-121h94v-77h-94v-253c0 -60 23 -75 50 -75c12 0 22 1 33 3l2 -83c-16 -5 -40 -8 -70 -8c-34 0 -65 9 -86 30c-24 24 -36 59 -36 132v254h-58v77h58v84zM92 -219l-19 48c28 8 61 26 61 57c0 25 -18 48 -33 61l80 12c17 -11 36 -36 36 -71
c0 -67 -58 -99 -125 -107z" />
    <glyph glyph-name="ubreve" unicode="&#x16d;" horiz-adv-x="428" 
d="M377 487v-345c0 -53 2 -101 4 -142h-93l-6 51h-2c-19 -29 -58 -59 -109 -59c-89 0 -125 67 -125 194v301h107v-288c0 -69 12 -118 56 -118c33 0 50 29 55 48c4 11 6 26 6 42v316h107zM101 675h55c3 -35 26 -57 57 -57c37 0 59 25 59 57h54c3 -70 -44 -121 -114 -121
s-114 53 -111 121z" />
    <glyph glyph-name="uhungarumlaut" unicode="&#x171;" horiz-adv-x="428" 
d="M377 487v-345c0 -53 2 -101 4 -142h-93l-6 51h-2c-19 -29 -58 -59 -109 -59c-89 0 -125 67 -125 194v301h107v-288c0 -69 12 -118 56 -118c33 0 50 29 55 48c4 11 6 26 6 42v316h107zM190 686h85l-102 -138h-57zM322 686h84l-102 -138h-57z" />
    <glyph glyph-name="umacron" unicode="&#x16b;" horiz-adv-x="428" 
d="M377 487v-345c0 -53 2 -101 4 -142h-93l-6 51h-2c-19 -29 -58 -59 -109 -59c-89 0 -125 67 -125 194v301h107v-288c0 -69 12 -118 56 -118c33 0 50 29 55 48c4 11 6 26 6 42v316h107zM111 645h205v-64h-205v64z" />
    <glyph glyph-name="uogonek" unicode="&#x173;" horiz-adv-x="428" 
d="M377 487v-346c0 -53 2 -102 6 -141h-26c-15 -23 -32 -58 -32 -90c0 -27 20 -44 41 -44c18 0 31 3 40 7l14 -56c-26 -18 -56 -23 -81 -23c-59 0 -91 35 -91 90c0 49 28 94 40 116l-6 51h-2c-19 -29 -58 -59 -109 -59c-89 0 -125 67 -125 194v301h107v-288
c0 -69 12 -118 56 -118c33 0 50 29 55 48c4 11 6 26 6 42v316h107z" />
    <glyph glyph-name="uring" unicode="&#x16f;" horiz-adv-x="428" 
d="M377 487v-345c0 -53 2 -101 4 -142h-93l-6 51h-2c-19 -29 -58 -59 -109 -59c-89 0 -125 67 -125 194v301h107v-288c0 -69 12 -118 56 -118c33 0 50 29 55 48c4 11 6 26 6 42v316h107zM215 536c-63 0 -99 39 -99 87c0 51 34 92 100 92c62 0 96 -39 96 -90
c0 -49 -37 -89 -97 -89zM214 576c32 0 44 26 44 50c0 23 -11 49 -45 49c-30 0 -42 -28 -42 -51c0 -20 12 -48 43 -48z" />
    <glyph glyph-name="utilde" unicode="&#x169;" horiz-adv-x="428" 
d="M377 487v-345c0 -53 2 -101 4 -142h-93l-6 51h-2c-19 -29 -58 -59 -109 -59c-89 0 -125 67 -125 194v301h107v-288c0 -69 12 -118 56 -118c33 0 50 29 55 48c4 11 6 26 6 42v316h107zM150 559h-52c0 59 22 107 67 107c22 0 38 -10 53 -18c14 -8 25 -16 39 -16s22 6 23 37
h50c0 -69 -24 -103 -67 -103c-19 0 -37 9 -51 16c-15 8 -25 17 -38 17c-14 0 -23 -14 -24 -40z" />
    <glyph glyph-name="wacute" unicode="&#x1e83;" horiz-adv-x="594" 
d="M8 487h114l35 -223c8 -52 16 -103 21 -151h3c8 48 19 103 29 149l49 225h82l46 -219c12 -55 21 -104 29 -155h2c5 48 13 99 22 153l37 221h106l-124 -487h-90l-45 199c-11 47 -19 94 -26 150h-2c-7 -57 -18 -105 -29 -151l-48 -198h-92zM330 686h99l-103 -138h-68z" />
    <glyph glyph-name="wcircumflex" unicode="&#x175;" horiz-adv-x="594" 
d="M8 487h114l35 -223c8 -52 16 -103 21 -151h3c8 48 19 103 29 149l49 225h82l46 -219c12 -55 21 -104 29 -155h2c5 48 13 99 22 153l37 221h106l-124 -487h-90l-45 199c-11 47 -19 94 -26 150h-2c-7 -57 -18 -105 -29 -151l-48 -198h-92zM260 686h74l82 -138h-75l-43 83
h-2l-43 -83h-76z" />
    <glyph glyph-name="wdieresis" unicode="&#x1e85;" horiz-adv-x="594" 
d="M8 487h114l35 -223c8 -52 16 -103 21 -151h3c8 48 19 103 29 149l49 225h82l46 -219c12 -55 21 -104 29 -155h2c5 48 13 99 22 153l37 221h106l-124 -487h-90l-45 199c-11 47 -19 94 -26 150h-2c-7 -57 -18 -105 -29 -151l-48 -198h-92zM212 564c-28 0 -52 23 -52 55
s24 55 53 55s52 -23 52 -55s-22 -55 -53 -55zM379 564c-28 0 -52 23 -52 55s24 55 53 55s52 -23 52 -55s-22 -55 -53 -55z" />
    <glyph glyph-name="wgrave" unicode="&#x1e81;" horiz-adv-x="594" 
d="M8 487h114l35 -223c8 -52 16 -103 21 -151h3c8 48 19 103 29 149l49 225h82l46 -219c12 -55 21 -104 29 -155h2c5 48 13 99 22 153l37 221h106l-124 -487h-90l-45 199c-11 47 -19 94 -26 150h-2c-7 -57 -18 -105 -29 -151l-48 -198h-92zM177 686h99l72 -138h-68z" />
    <glyph glyph-name="ycircumflex" unicode="&#x177;" horiz-adv-x="370" 
d="M9 487h114l55 -265c7 -33 11 -62 16 -90h2c5 26 11 58 16 89l48 266h105l-90 -348c-27 -105 -60 -210 -114 -277c-38 -46 -82 -69 -100 -76l-35 92c22 10 46 28 66 50c19 20 34 46 43 68c4 10 6 16 6 23c0 6 -1 12 -3 18zM152 686h73l82 -138h-75l-43 83h-2l-43 -83h-76z
" />
    <glyph glyph-name="ygrave" unicode="&#x1ef3;" horiz-adv-x="370" 
d="M9 487h114l55 -265c7 -33 11 -62 16 -90h2c5 26 11 58 16 89l48 266h105l-90 -348c-27 -105 -60 -210 -114 -277c-38 -46 -82 -69 -100 -76l-35 92c22 10 46 28 66 50c19 20 34 46 43 68c4 10 6 16 6 23c0 6 -1 12 -3 18zM69 686h99l72 -138h-68z" />
    <glyph glyph-name="uni0233" unicode="&#x233;" horiz-adv-x="370" 
d="M9 487h114l55 -265c7 -33 11 -62 16 -90h2c5 26 11 58 16 89l48 266h105l-90 -348c-27 -105 -60 -210 -114 -277c-38 -46 -82 -69 -100 -76l-35 92c22 10 46 28 66 50c19 20 34 46 43 68c4 10 6 16 6 23c0 6 -1 12 -3 18zM83 645h205v-64h-205v64z" />
    <glyph glyph-name="zacute" unicode="&#x17a;" horiz-adv-x="334" 
d="M17 0v66l135 255c14 26 32 55 42 76v2h-161v88h278v-72l-132 -248c-15 -27 -32 -56 -43 -77v-2h177v-88h-296zM203 686h99l-103 -138h-68z" />
    <glyph glyph-name="zdotaccent" unicode="&#x17c;" horiz-adv-x="334" 
d="M17 0v66l135 255c14 26 32 55 42 76v2h-161v88h278v-72l-132 -248c-15 -27 -32 -56 -43 -77v-2h177v-88h-296zM168 564c-28 0 -52 23 -52 55s24 55 53 55s52 -23 52 -55s-22 -55 -53 -55z" />
    <glyph glyph-name="aeacute" unicode="&#x1fd;" horiz-adv-x="600" 
d="M570 226h-229c0 -117 50 -153 110 -153c35 0 64 9 86 20l16 -74c-39 -21 -82 -27 -122 -27c-62 0 -121 30 -144 88h-3c-28 -56 -73 -88 -134 -88c-74 0 -128 60 -128 148c0 118 105 168 215 169v21c0 46 -25 83 -78 83c-31 0 -64 -12 -85 -26l-21 72c32 20 80 35 127 35
c54 0 101 -27 119 -82h2c26 54 73 82 126 82c94 0 145 -95 145 -223c0 -16 -1 -30 -2 -45zM239 157v83c-43 0 -120 -11 -120 -95c0 -51 29 -72 56 -72s52 20 60 56c3 9 4 19 4 28zM342 297h131c2 72 -22 120 -60 120c-48 0 -70 -66 -71 -120zM337 686h99l-103 -138h-68z" />
    <glyph glyph-name="space_uni0326" unicode="&#xf6c3;" 
d="M94 -219l-19 48c28 8 61 26 61 57c0 25 -18 48 -33 61l80 12c17 -11 36 -36 36 -71c0 -67 -58 -99 -125 -107z" />
    <glyph glyph-name="acute.cap" unicode="&#xf6c9;" 
d="M189 821h114l-123 -111h-79z" />
    <glyph glyph-name="breve.cap" unicode="&#xefee;" 
d="M35 824h59c3 -26 23 -43 55 -43s53 15 56 43h59c0 -64 -40 -107 -114 -107c-75 0 -115 42 -115 107z" />
    <glyph glyph-name="caron.cap" unicode="&#xf6ca;" 
d="M194 710h-86l-86 104h83l45 -55h2l44 55h81z" />
    <glyph glyph-name="cedilla.cap" unicode="&#xeff2;" 
d="M136 5h60l-26 -52c35 -5 66 -33 66 -72c0 -60 -51 -83 -101 -83c-26 0 -54 7 -72 18l18 49c16 -8 33 -14 51 -14c17 0 34 7 34 28c0 23 -28 36 -68 40z" />
    <glyph glyph-name="circumflex.cap" unicode="&#xeff7;" 
d="M106 814h86l86 -104h-83l-45 53h-2l-44 -53h-81z" />
    <glyph glyph-name="space_uni0326.cap" unicode="&#xf634;" 
d="M94 -219l-19 48c28 8 61 26 61 57c0 25 -18 48 -33 61l80 12c17 -11 36 -36 36 -71c0 -67 -58 -99 -125 -107z" />
    <glyph glyph-name="dieresis.cap" unicode="&#xf6cb;" 
d="M61 719c-28 0 -51 24 -51 56s24 56 52 56c29 0 52 -24 52 -56s-23 -56 -53 -56zM235 719c-28 0 -51 24 -51 56s24 56 52 56c30 0 52 -24 52 -56s-22 -56 -53 -56z" />
    <glyph glyph-name="dotaccent.cap" unicode="&#xefed;" 
d="M150 721c-29 0 -54 25 -54 55c0 31 25 55 55 55s54 -24 54 -55c0 -30 -24 -55 -55 -55z" />
    <glyph glyph-name="grave.cap" unicode="&#xf6ce;" 
d="M13 821h114l88 -111h-79z" />
    <glyph glyph-name="hungarumlaut.cap" unicode="&#xf6cf;" 
d="M98 821h96l-96 -105h-64zM236 821h95l-95 -105h-64z" />
    <glyph glyph-name="macron.cap" unicode="&#xf6d0;" 
d="M38 803h225v-67h-225v67z" />
    <glyph glyph-name="ogonek.cap" unicode="&#xeff1;" 
d="M107 5h68c-15 -25 -34 -63 -34 -92c0 -27 20 -44 41 -44c17 0 29 3 40 7l14 -55c-25 -19 -56 -24 -81 -24c-59 0 -91 35 -91 89c0 50 29 98 43 119z" />
    <glyph glyph-name="ring.cap" unicode="&#xeff3;" horiz-adv-x="400" 
d="M203 875c67 0 99 -42 99 -90c0 -47 -35 -90 -100 -90c-67 0 -100 43 -100 88c0 47 35 92 101 92zM201 833c-28 0 -40 -26 -40 -49c0 -22 13 -46 41 -46s41 22 41 47c0 24 -13 48 -42 48z" />
    <glyph glyph-name="tilde.cap" unicode="&#xeff5;" 
d="M88 718h-51c-2 66 24 106 63 106c21 0 36 -9 50 -18s26 -17 38 -17c15 0 22 9 25 37h50c2 -71 -21 -103 -66 -103c-21 0 -38 8 -51 16c-14 9 -24 16 -36 16s-20 -12 -22 -37z" />
    <glyph glyph-name="Alpha" unicode="&#x391;" horiz-adv-x="448" 
d="M287 175h-133l-37 -175h-103l150 674h124l139 -674h-104zM166 259h110l-28 155c-8 44 -17 106 -24 153h-3c-8 -47 -18 -112 -26 -154z" />
    <glyph glyph-name="Beta" unicode="&#x392;" horiz-adv-x="453" 
d="M59 2v662c36 9 82 13 133 13c61 0 119 -10 160 -47c33 -29 48 -72 48 -120c0 -63 -34 -120 -99 -148v-3c77 -21 121 -85 121 -166c0 -56 -18 -100 -49 -133c-39 -44 -105 -65 -202 -65c-50 0 -86 3 -112 7zM165 592v-199h31c55 0 99 44 99 105c0 56 -26 98 -92 98
c-16 0 -29 -1 -38 -4zM165 313v-232c9 -2 20 -3 34 -3c65 0 113 39 113 116c0 79 -55 119 -116 119h-31z" />
    <glyph glyph-name="Gamma" unicode="&#x393;" horiz-adv-x="347" 
d="M59 674h279v-90h-172v-584h-107v674z" />
    <glyph glyph-name="uni0394" unicode="&#x394;" horiz-adv-x="454" 
d="M17 0v56l150 618h124l142 -616v-58h-416zM124 94h202l-65 286c-12 56 -26 140 -34 187h-2c-8 -47 -23 -126 -35 -182z" />
    <glyph glyph-name="Epsilon" unicode="&#x395;" horiz-adv-x="376" 
d="M326 396v-89h-160v-214h182v-93h-289v674h277v-93h-170v-185h160z" />
    <glyph glyph-name="Zeta" unicode="&#x396;" horiz-adv-x="374" 
d="M15 0v63l221 516v2h-201v93h322v-77l-215 -501v-3h214v-93h-341z" />
    <glyph glyph-name="Eta" unicode="&#x397;" horiz-adv-x="492" 
d="M59 674h107v-279h160v279h107v-674h-107v297h-160v-297h-107v674z" />
    <glyph glyph-name="Theta" unicode="&#x398;" horiz-adv-x="471" 
d="M232 -8c-136 0 -204 142 -204 346c0 202 78 344 215 344c141 0 199 -155 199 -337c0 -253 -90 -353 -210 -353zM238 84c71 0 95 121 95 257c0 123 -22 249 -96 249s-100 -125 -100 -251c0 -134 26 -255 101 -255zM171 393h129v-98h-129v98z" />
    <glyph glyph-name="Iota" unicode="&#x399;" horiz-adv-x="226" 
d="M59 674h107v-674h-107v674z" />
    <glyph glyph-name="Kappa" unicode="&#x39a;" horiz-adv-x="434" 
d="M59 0v674h106v-311h3c12 28 24 57 36 85l106 226h118l-157 -291l160 -383h-116l-116 300l-34 -60v-240h-106z" />
    <glyph glyph-name="Lambda" unicode="&#x39b;" horiz-adv-x="445" 
d="M431 0h-111l-68 357c-11 63 -22 127 -31 193h-3c-8 -67 -17 -131 -28 -195l-67 -355h-109l150 674h118z" />
    <glyph glyph-name="Mu" unicode="&#x39c;" horiz-adv-x="620" 
d="M482 0l-13 260c-4 76 -8 168 -7 242h-3c-13 -74 -31 -155 -47 -220l-70 -274h-73l-66 267c-18 68 -36 152 -48 227h-3c-1 -76 -5 -165 -9 -245l-12 -257h-93l45 674h113l65 -273c21 -87 38 -158 51 -234h2c12 76 27 146 47 234l63 273h115l40 -674h-97z" />
    <glyph glyph-name="Nu" unicode="&#x39d;" horiz-adv-x="493" 
d="M153 0h-94v674h98l114 -288c24 -61 58 -148 79 -213h2c-6 86 -12 190 -12 311v190h94v-674h-98l-115 287c-25 62 -55 143 -74 214h-2c5 -78 8 -173 8 -313v-188z" />
    <glyph glyph-name="Xi" unicode="&#x39e;" horiz-adv-x="393" 
d="M37 674h318v-93h-318v93zM54 392h281v-91h-281v91zM31 93h330v-93h-330v93z" />
    <glyph glyph-name="Omicron" unicode="&#x39f;" horiz-adv-x="465" 
d="M229 -8c-134 0 -201 142 -201 346c0 202 76 344 212 344c141 0 197 -155 197 -336c0 -254 -89 -354 -208 -354zM235 85c69 0 91 121 91 256c0 122 -20 248 -92 248c-71 0 -96 -125 -95 -250c-1 -133 24 -254 96 -254z" />
    <glyph glyph-name="Pi" unicode="&#x3a0;" horiz-adv-x="485" 
d="M426 674v-674h-107v576h-153v-576h-107v674h367z" />
    <glyph glyph-name="Rho" unicode="&#x3a1;" horiz-adv-x="431" 
d="M59 0v664c34 8 78 13 125 13c71 0 129 -13 168 -51c36 -34 54 -86 54 -144c0 -68 -19 -114 -50 -150c-39 -48 -104 -70 -161 -70c-12 0 -20 0 -30 1v-263h-106zM165 585v-235c8 -1 15 -1 26 -1c70 0 109 48 109 125c0 63 -26 116 -98 116c-15 0 -28 -2 -37 -5z" />
    <glyph glyph-name="Sigma" unicode="&#x3a3;" horiz-adv-x="414" 
d="M138 97v-4h248v-93h-370v67l157 271l-151 268v68h346v-92h-217v-3l130 -235z" />
    <glyph glyph-name="Tau" unicode="&#x3a4;" horiz-adv-x="376" 
d="M134 0v576h-121v98h349v-98h-121v-576h-107z" />
    <glyph glyph-name="Upsilon" unicode="&#x3a5;" horiz-adv-x="445" 
d="M3 587l21 93c14 -1 59 -15 93 -45c56 -51 97 -147 106 -267h5c12 113 56 199 102 250c35 38 83 60 93 62l22 -96c-75 -34 -141 -155 -163 -304c-5 -41 -9 -78 -9 -118v-162h-107v162c0 43 -2 76 -6 116c-18 160 -71 279 -157 309z" />
    <glyph glyph-name="Phi" unicode="&#x3a6;" horiz-adv-x="548" 
d="M321 34v-52h-95v52c-105 18 -201 109 -201 305c0 193 104 288 202 304v49h95v-49c113 -16 201 -122 201 -299c0 -194 -91 -293 -202 -310zM227 115v448c-47 -12 -95 -87 -95 -227c0 -128 46 -206 95 -221zM321 563v-448c53 13 95 91 95 227c0 142 -52 212 -95 221z" />
    <glyph glyph-name="Chi" unicode="&#x3a7;" horiz-adv-x="400" 
d="M396 0h-111l-51 141c-13 38 -25 75 -38 119h-3c-13 -44 -24 -84 -35 -121l-47 -139h-106l131 344l-126 330h111l48 -139c12 -33 22 -67 35 -108h2c13 44 22 75 32 110l44 137h107l-129 -332z" />
    <glyph glyph-name="Psi" unicode="&#x3a8;" horiz-adv-x="548" 
d="M510 674v-176c0 -188 -72 -276 -189 -294v-204h-95v204c-119 18 -189 90 -189 262v208h98v-205c0 -120 28 -172 92 -182v387h93v-387c63 8 92 73 92 212v175h98z" />
    <glyph glyph-name="uni03A9" unicode="&#x3a9;" horiz-adv-x="505" 
d="M380 92v-4h96v-88h-197v67c41 51 76 162 75 291c0 112 -28 231 -101 231c-72 0 -103 -115 -103 -231c0 -120 38 -243 76 -291v-67h-197v88h95v4c-45 66 -85 167 -85 284c0 180 87 306 220 306c140 0 205 -140 205 -299c0 -121 -40 -228 -84 -291z" />
    <glyph glyph-name="Alphatonos" unicode="&#x386;" horiz-adv-x="465" 
d="M305 175h-134l-37 -175h-103l150 674h124l140 -674h-105zM183 259h110l-28 155c-8 44 -17 106 -24 153h-3c-7 -47 -17 -112 -26 -154zM27 674h85l-32 -158h-55z" />
    <glyph glyph-name="Epsilontonos" unicode="&#x388;" horiz-adv-x="445" 
d="M395 396v-89h-161v-214h182v-93h-289v674h277v-93h-170v-185h161zM3 674h85l-32 -158h-55z" />
    <glyph glyph-name="Etatonos" unicode="&#x389;" horiz-adv-x="561" 
d="M128 674h107v-279h160v279h107v-674h-107v297h-160v-297h-107v674zM3 674h85l-32 -158h-55z" />
    <glyph glyph-name="Iotatonos" unicode="&#x38a;" horiz-adv-x="293" 
d="M127 674h107v-674h-107v674zM3 674h85l-32 -158h-55z" />
    <glyph glyph-name="Iotadieresis" unicode="&#x3aa;" horiz-adv-x="226" 
d="M29 710c-28 0 -51 23 -51 54s24 54 52 54c29 0 51 -22 51 -54c0 -31 -21 -54 -52 -54zM195 710c-28 0 -51 23 -51 54s24 54 52 54c29 0 51 -22 51 -54c0 -31 -21 -54 -52 -54zM59 674h107v-674h-107v674z" />
    <glyph glyph-name="Omicrontonos" unicode="&#x38c;" horiz-adv-x="518" 
d="M282 -8c-134 0 -201 142 -201 346c0 202 76 344 212 344c141 0 197 -155 197 -336c0 -254 -89 -354 -208 -354zM288 85c69 0 91 121 91 256c0 122 -20 248 -92 248c-71 0 -96 -125 -95 -250c-1 -133 24 -254 96 -254zM3 674h85l-32 -158h-55z" />
    <glyph glyph-name="Upsilontonos" unicode="&#x38e;" horiz-adv-x="554" 
d="M112 587l20 93c15 -1 60 -15 93 -45c56 -51 97 -147 106 -267h5c12 113 56 199 102 250c35 38 83 60 93 62l22 -96c-75 -33 -141 -155 -163 -304c-5 -41 -9 -78 -9 -118v-162h-107v162c0 43 -2 76 -6 116c-18 160 -71 279 -156 309zM3 674h85l-32 -158h-55z" />
    <glyph glyph-name="Upsilondieresis" unicode="&#x3ab;" horiz-adv-x="445" 
d="M145 694c-28 0 -51 23 -51 54s24 54 52 54c29 0 51 -22 51 -54c0 -31 -21 -54 -52 -54zM310 694c-28 0 -51 23 -51 54s24 54 52 54c29 0 51 -22 51 -54c0 -31 -21 -54 -52 -54zM3 587l21 93c14 -1 59 -15 93 -45c56 -51 97 -147 106 -267h5c12 113 56 199 102 250
c35 38 83 60 93 62l22 -96c-75 -34 -141 -155 -163 -304c-5 -41 -9 -78 -9 -118v-162h-107v162c0 43 -2 76 -6 116c-18 160 -71 279 -157 309z" />
    <glyph glyph-name="Omegatonos" unicode="&#x38f;" horiz-adv-x="549" 
d="M424 92v-4h96v-88h-197v67c41 51 76 162 76 291c0 112 -28 231 -101 231s-104 -115 -104 -231c0 -120 38 -243 76 -291v-67h-197v88h95v4c-45 66 -84 167 -85 284c0 180 87 306 221 306c140 0 205 -140 205 -299c0 -121 -40 -228 -85 -291zM3 674h84l-31 -158h-55z" />
    <glyph glyph-name="alpha" unicode="&#x3b1;" horiz-adv-x="424" 
d="M300 487h80c-5 -32 -12 -210 -12 -362c0 -37 9 -53 35 -53l-10 -77c-8 -3 -19 -3 -26 -3c-40 0 -69 19 -77 76h-3c-15 -37 -51 -76 -105 -76c-97 0 -151 102 -151 237c0 173 84 265 163 265c40 0 73 -20 90 -67h4c3 22 8 43 12 60zM137 238v-2c0 -88 26 -156 66 -156
c27 0 51 31 59 85c3 26 4 51 4 79c0 31 0 48 -2 70c-3 55 -26 92 -55 92c-45 0 -72 -80 -72 -168z" />
    <glyph glyph-name="beta" unicode="&#x3b2;" horiz-adv-x="432" 
d="M155 27h-2v-53c0 -67 4 -134 11 -166h-98c-11 24 -18 76 -18 159v475c0 117 17 170 56 212c28 31 65 46 113 46c100 0 150 -82 150 -175c0 -78 -37 -127 -76 -148v-5c53 -17 110 -74 110 -181c0 -122 -67 -199 -157 -199c-35 0 -68 12 -89 35zM153 467v-347
c19 -31 44 -40 67 -40c47 0 76 49 76 118c0 71 -38 119 -88 125c-6 2 -11 2 -16 2v79c5 0 9 1 14 2c36 11 62 48 62 114c0 40 -16 92 -54 92c-43 0 -61 -51 -61 -145z" />
    <glyph glyph-name="gamma" unicode="&#x3b3;" horiz-adv-x="373" 
d="M229 -192h-104c3 152 0 227 -23 329c-35 151 -80 277 -110 350h113c25 -67 66 -208 86 -358h3c28 86 59 212 58 312c0 17 0 31 -1 46h97c2 -9 3 -21 3 -37c0 -110 -43 -263 -119 -418c-4 -7 -6 -12 -6 -20c2 -64 3 -134 3 -204z" />
    <glyph glyph-name="delta" unicode="&#x3b4;" horiz-adv-x="417" 
d="M362 660l-25 -70c-18 12 -52 29 -89 29c-30 0 -44 -16 -44 -33c0 -18 18 -42 43 -74l58 -71c43 -53 81 -122 81 -208c0 -162 -89 -241 -180 -241c-103 0 -176 91 -176 233c0 119 68 199 128 237v4l-12 17c-18 23 -49 67 -49 107c0 54 45 110 138 110
c61 0 104 -20 127 -40zM232 373l-23 30c-47 -37 -72 -93 -72 -180c0 -98 37 -149 73 -149c48 0 70 68 70 147c0 64 -16 113 -48 152z" />
    <glyph glyph-name="epsilon" unicode="&#x3b5;" horiz-adv-x="349" 
d="M130 258v5c-45 11 -79 50 -78 102c0 65 55 129 167 129c41 0 79 -9 98 -24l-17 -74c-17 9 -42 16 -73 16c-47 0 -73 -27 -73 -58c0 -45 53 -60 105 -60h15v-75h-19c-61 -1 -115 -21 -115 -73c0 -45 39 -70 85 -70c41 0 81 13 93 21l12 -78c-32 -18 -81 -27 -129 -27
c-89 0 -171 42 -171 145c0 65 52 112 100 121z" />
    <glyph glyph-name="zeta" unicode="&#x3b6;" horiz-adv-x="333" 
d="M268 -135l-71 22c19 36 28 74 31 96c-29 7 -60 17 -90 33c-57 29 -108 88 -108 196c0 139 78 289 179 390v3h-38c-33 0 -70 3 -94 10l11 74c27 -2 71 -2 113 -3h120l16 -74c-96 -61 -199 -232 -199 -373c0 -94 33 -134 86 -158c29 -13 66 -21 97 -27c5 -1 8 -6 8 -12
c0 -73 -36 -146 -61 -177z" />
    <glyph glyph-name="eta" unicode="&#x3b7;" horiz-adv-x="434" 
d="M143 430l2 -1c23 39 64 65 115 65c82 0 125 -63 125 -176v-344c0 -67 4 -134 8 -166h-98c-11 24 -17 76 -17 160v340c0 49 -10 96 -57 96c-26 0 -50 -20 -60 -59c-3 -10 -5 -26 -5 -44v-301h-107v350c0 56 -5 111 -14 137h94c6 -13 12 -36 14 -57z" />
    <glyph glyph-name="theta" unicode="&#x3b8;" horiz-adv-x="409" 
d="M204 -8c-98 0 -173 87 -173 360c0 262 93 348 177 348c97 0 171 -95 171 -348c0 -297 -88 -360 -175 -360zM134 397h142c-1 145 -29 223 -72 223c-38 0 -70 -77 -70 -223zM276 312h-143c0 -165 30 -240 73 -240c46 0 70 80 70 240z" />
    <glyph glyph-name="iota" unicode="&#x3b9;" horiz-adv-x="213" 
d="M156 487v-364c0 -40 12 -51 38 -50l-8 -77c-11 -3 -26 -4 -39 -4c-48 0 -98 16 -98 122v373h107z" />
    <glyph glyph-name="kappa" unicode="&#x3ba;" horiz-adv-x="402" 
d="M246 264v-3c44 -18 74 -96 99 -156l46 -105h-117l-42 107c-23 60 -43 105 -68 105h-8v-212h-106v368c0 54 -3 96 -9 119h103c8 -12 12 -36 12 -83v-129h4c38 62 94 169 118 212h114v-4c-42 -63 -87 -132 -146 -219z" />
    <glyph glyph-name="lambda" unicode="&#x3bb;" horiz-adv-x="365" 
d="M253 0l-51 233c-5 27 -11 56 -20 105h-4c-5 -35 -10 -67 -18 -104l-49 -234h-106l123 454c2 7 3 13 3 20c0 6 -3 17 -6 27c-22 75 -54 100 -84 100c-3 0 -7 0 -12 -1l9 87c7 2 20 3 29 3c100 0 137 -98 168 -215l125 -475h-107z" />
    <glyph glyph-name="uni03BC" unicode="&#x3bc;" horiz-adv-x="429" 
d="M293 49l-3 1c-12 -24 -42 -52 -79 -52c-24 0 -45 7 -60 29v-53c0 -67 4 -134 10 -166h-97c-9 24 -15 82 -15 171v508h107v-314c0 -56 15 -94 54 -94c34 0 51 29 57 48c3 11 5 28 5 44v316h107v-362c0 -38 7 -54 32 -53l-10 -76c-8 -3 -20 -4 -33 -4c-39 0 -62 18 -75 57z
" />
    <glyph glyph-name="nu" unicode="&#x3bd;" horiz-adv-x="363" 
d="M2 487h109l46 -243c7 -38 13 -81 21 -129h3c25 81 62 239 63 339v33h95c2 -11 3 -23 3 -34c0 -119 -67 -310 -128 -453h-97z" />
    <glyph glyph-name="xi" unicode="&#x3be;" horiz-adv-x="350" 
d="M299 417v-81h-16c-84 -2 -144 -47 -144 -129c0 -71 45 -106 96 -126c27 -10 54 -18 98 -27c9 -2 13 -6 13 -13c0 -69 -38 -145 -61 -175l-73 21c19 37 28 75 31 97c-106 25 -212 74 -212 212c0 96 58 160 129 185v6c-56 24 -92 78 -91 141c0 99 70 172 182 172
c37 0 66 -8 87 -19l-14 -78c-14 6 -34 13 -63 13c-62 0 -87 -52 -87 -92c0 -69 53 -101 109 -106c5 0 11 -1 16 -1z" />
    <glyph glyph-name="omicron" unicode="&#x3bf;" horiz-adv-x="410" 
d="M204 -8c-103 0 -173 86 -173 250c0 176 86 252 177 252c102 0 171 -90 171 -250c0 -196 -101 -252 -175 -252zM208 74c53 0 65 96 65 170c0 70 -12 168 -67 168c-57 0 -69 -98 -69 -168c0 -82 14 -170 71 -170z" />
    <glyph glyph-name="rho" unicode="&#x3c1;" horiz-adv-x="422" 
d="M154 36h-2v-62c0 -67 4 -134 8 -166h-99c-9 24 -14 76 -15 159v267c0 123 29 180 65 214c30 31 70 46 107 46c118 0 173 -105 173 -249c0 -176 -77 -253 -158 -253c-37 0 -65 21 -79 44zM152 255v-86c0 -14 2 -28 6 -38c11 -41 35 -51 52 -51c54 0 75 80 75 165
c0 92 -22 157 -69 157c-35 0 -64 -38 -64 -147z" />
    <glyph glyph-name="sigma" unicode="&#x3c3;" horiz-adv-x="413" 
d="M315 420v-3c41 -37 60 -112 60 -173c0 -194 -100 -252 -172 -252c-102 0 -172 86 -172 250c0 175 86 252 179 252h42h55h96l-5 -80c-17 -1 -48 1 -83 6zM207 74c51 0 63 96 63 169c0 71 -15 169 -65 169c-56 0 -68 -98 -68 -169c0 -81 14 -169 70 -169z" />
    <glyph glyph-name="tau" unicode="&#x3c4;" horiz-adv-x="334" 
d="M270 75l-3 -77c-11 -4 -25 -6 -47 -6c-87 0 -111 65 -111 149v260h-36c-29 0 -47 -4 -60 -8l-15 68c9 9 43 26 108 26h222l-10 -86h-102v-255c0 -54 18 -71 38 -71h16z" />
    <glyph glyph-name="upsilon" unicode="&#x3c5;" horiz-adv-x="407" 
d="M246 487h100c14 -39 28 -108 28 -184c0 -159 -36 -311 -180 -311c-90 0 -149 58 -149 164v180c0 61 -1 119 -7 151h103c7 -14 10 -52 10 -100v-227c0 -51 23 -78 52 -78c53 0 67 87 67 199c0 90 -12 172 -24 206z" />
    <glyph glyph-name="phi" unicode="&#x3c6;" horiz-adv-x="538" 
d="M148 491l55 -49c-37 -43 -67 -106 -67 -192c0 -89 31 -158 86 -178v272c0 109 57 147 113 147c87 0 173 -88 173 -238c0 -166 -102 -246 -189 -258v-187h-97v187c-76 11 -191 72 -191 249c0 144 81 224 117 247zM318 368v-297c57 12 86 88 86 180c0 102 -37 160 -61 160
c-14 0 -25 -11 -25 -43z" />
    <glyph glyph-name="chi" unicode="&#x3c7;" horiz-adv-x="369" 
d="M8 487h107l77 -239h4c8 34 15 61 25 95l43 144h100l-123 -331l119 -341l-98 -23l-86 266h-3c-8 -33 -18 -73 -29 -112l-47 -154l-94 21l124 345z" />
    <glyph glyph-name="psi" unicode="&#x3c8;" horiz-adv-x="535" 
d="M221 -192v184c-82 12 -177 51 -177 231v141c0 48 -1 93 -6 123h93c6 -14 9 -52 9 -100v-153c0 -119 35 -157 82 -165v520h97v-520c60 5 85 105 85 231c0 87 -12 161 -21 187h89c15 -35 29 -102 29 -176c0 -172 -41 -305 -181 -319v-184h-99z" />
    <glyph glyph-name="omega" unicode="&#x3c9;" horiz-adv-x="562" 
d="M330 345l-2 -189c0 -33 13 -75 41 -75c31 0 57 54 57 167c0 99 -27 185 -64 236v3h96c35 -36 73 -129 73 -240c0 -160 -63 -255 -152 -255c-50 0 -81 32 -96 69h-3c-16 -37 -51 -69 -102 -69c-77 0 -147 78 -147 245c0 122 42 214 75 250h95v-3
c-38 -50 -67 -133 -67 -242c0 -111 26 -161 56 -161s42 44 42 75l-2 189h100z" />
    <glyph glyph-name="uni03C2" unicode="&#x3c2;" horiz-adv-x="332" 
d="M320 480l-18 -84c-14 5 -30 8 -45 8c-79 0 -119 -82 -119 -168c0 -71 20 -125 88 -154c22 -10 47 -18 85 -28c4 -2 6 -5 6 -10c0 -76 -35 -149 -59 -180l-73 22c20 36 29 74 32 96c-25 8 -51 17 -72 28c-60 30 -115 102 -115 219c0 142 85 265 225 265c27 0 51 -5 65 -14
z" />
    <glyph glyph-name="alphatonos" unicode="&#x3ac;" horiz-adv-x="425" 
d="M214 681h88l-59 -138h-61zM300 487h80c-5 -32 -12 -210 -12 -362c0 -37 9 -53 35 -53l-10 -77c-8 -3 -19 -3 -26 -3c-40 0 -69 19 -77 76h-3c-15 -37 -51 -76 -105 -76c-97 0 -151 102 -151 237c0 173 84 265 163 265c40 0 73 -20 90 -67h4c3 22 8 43 12 60zM137 238v-2
c0 -88 26 -156 66 -156c27 0 51 31 59 85c3 26 4 51 4 79c0 31 0 48 -2 70c-3 55 -26 92 -55 92c-45 0 -72 -80 -72 -168z" />
    <glyph glyph-name="epsilontonos" unicode="&#x3ad;" horiz-adv-x="349" 
d="M189 681h88l-59 -138h-61zM130 258v4c-46 12 -79 51 -78 103c0 65 55 129 167 129c41 0 79 -9 98 -24l-17 -74c-17 9 -42 16 -73 16c-47 0 -73 -27 -73 -58c0 -45 53 -60 105 -60h15v-75h-19c-61 -1 -115 -21 -115 -73c0 -45 39 -70 85 -70c41 0 81 13 93 20l12 -77
c-32 -18 -81 -27 -129 -27c-89 0 -171 42 -171 145c0 65 52 111 100 121z" />
    <glyph glyph-name="etatonos" unicode="&#x3ae;" horiz-adv-x="434" 
d="M214 681h88l-59 -138h-61zM143 430l2 -1c23 39 64 65 115 65c82 0 125 -63 125 -176v-344c0 -67 4 -134 8 -166h-98c-11 24 -17 76 -17 160v340c0 49 -10 96 -57 96c-26 0 -50 -20 -60 -59c-3 -10 -5 -26 -5 -44v-301h-107v350c0 56 -5 111 -14 137h94
c6 -13 12 -36 14 -57z" />
    <glyph glyph-name="iotatonos" unicode="&#x3af;" horiz-adv-x="213" 
d="M99 684h94l-59 -138h-67zM156 487v-364c0 -40 12 -51 38 -50l-8 -77c-11 -3 -26 -4 -39 -4c-48 0 -98 16 -98 122v373h107z" />
    <glyph glyph-name="iotadieresis" unicode="&#x3ca;" horiz-adv-x="213" 
d="M20 557c-29 0 -53 24 -53 56c0 33 24 56 54 56c29 0 52 -23 52 -56c0 -32 -22 -56 -53 -56zM185 557c-29 0 -53 24 -53 56c0 33 24 56 54 56c29 0 52 -23 52 -56c0 -32 -22 -56 -53 -56zM157 487v-364c0 -40 12 -51 38 -50l-8 -77c-11 -3 -26 -4 -39 -4
c-48 0 -98 16 -98 122v373h107z" />
    <glyph glyph-name="omicrontonos" unicode="&#x3cc;" horiz-adv-x="410" 
d="M203 681h88l-59 -138h-61zM204 -8c-103 0 -173 86 -173 250c0 176 86 252 177 252c102 0 171 -90 171 -250c0 -196 -101 -252 -175 -252zM208 74c53 0 65 96 65 170c0 70 -12 168 -67 168c-57 0 -69 -98 -69 -168c0 -82 14 -170 71 -170z" />
    <glyph glyph-name="upsilontonos" unicode="&#x3cd;" horiz-adv-x="407" 
d="M196 684h94l-59 -138h-67zM246 487h100c14 -39 28 -108 28 -184c0 -159 -36 -311 -180 -311c-90 0 -149 58 -149 164v180c0 61 -1 119 -7 151h103c7 -14 10 -52 10 -100v-227c0 -51 23 -78 52 -78c53 0 67 87 67 199c0 90 -12 172 -24 206z" />
    <glyph glyph-name="upsilondieresis" unicode="&#x3cb;" horiz-adv-x="407" 
d="M114 557c-29 0 -53 24 -53 56c0 33 24 56 54 56c29 0 52 -23 52 -56c0 -32 -22 -56 -53 -56zM279 557c-29 0 -53 24 -53 56c0 33 24 56 54 56c29 0 52 -23 52 -56c0 -32 -22 -56 -53 -56zM246 487h100c14 -39 28 -108 28 -184c0 -159 -36 -311 -180 -311
c-90 0 -149 58 -149 164v180c0 61 -1 119 -7 151h103c7 -14 10 -52 10 -100v-227c0 -51 23 -78 52 -78c53 0 67 87 67 199c0 90 -12 172 -24 206z" />
    <glyph glyph-name="omegatonos" unicode="&#x3ce;" horiz-adv-x="562" 
d="M280 681h88l-59 -138h-60zM330 345l-2 -189c0 -33 13 -75 41 -75c31 0 57 54 57 167c0 99 -27 185 -64 236v3h96c35 -36 73 -129 73 -240c0 -160 -63 -255 -152 -255c-50 0 -81 32 -96 69h-3c-16 -37 -51 -69 -102 -69c-77 0 -147 78 -147 245c0 122 42 214 75 250h95v-3
c-38 -50 -67 -133 -67 -242c0 -111 26 -161 56 -161s42 44 42 75l-2 189h100z" />
    <glyph glyph-name="iotadieresistonos" unicode="&#x390;" horiz-adv-x="213" 
d="M157 487v-364c0 -40 12 -51 39 -50l-8 -77c-12 -3 -27 -4 -40 -4c-47 0 -98 16 -98 122v373h107zM85 694h83l-39 -150h-55zM0 562c-25 0 -48 21 -48 50c0 28 24 49 49 49s47 -20 47 -49s-21 -50 -48 -50zM225 562c-24 0 -47 21 -47 50c0 28 24 49 48 49
c26 0 48 -20 48 -49s-21 -50 -49 -50z" />
    <glyph glyph-name="upsilondieresistonos" unicode="&#x3b0;" horiz-adv-x="407" 
d="M246 487h100c14 -39 28 -108 28 -184c0 -159 -36 -311 -180 -311c-90 0 -149 58 -149 164v180c0 61 -1 119 -7 151h103c7 -14 10 -52 10 -100v-227c0 -51 23 -78 52 -78c53 0 67 87 67 199c0 90 -12 172 -24 206zM171 691h82l-39 -150h-54zM84 559c-25 0 -48 21 -48 51
c0 28 24 49 49 49s47 -20 47 -50c0 -29 -21 -50 -48 -50zM313 559c-24 0 -47 21 -47 51c0 28 24 49 48 49c26 0 48 -20 48 -50c0 -29 -21 -50 -49 -50z" />
    <glyph glyph-name="uni037E" unicode="&#x37e;" horiz-adv-x="227" 
d="M97 -117l-67 -8c19 72 42 177 47 251l109 4c-21 -80 -59 -187 -89 -247zM122 307c-36 0 -65 31 -65 75c0 43 30 77 67 77c39 0 67 -31 67 -77c0 -44 -26 -75 -69 -75z" />
    <glyph glyph-name="anoteleia" unicode="&#x387;" horiz-adv-x="227" 
d="M113 237c-38 0 -70 32 -70 80c0 47 33 81 71 81c40 0 71 -31 71 -81c0 -48 -29 -80 -72 -80z" />
    <glyph glyph-name="tonos" unicode="&#x384;" horiz-adv-x="309" 
d="M115 686h88l-59 -138h-61z" />
    <glyph glyph-name="dieresistonos" unicode="&#x385;" horiz-adv-x="394" 
d="M163 703h85l-39 -155h-57zM76 565c-26 0 -49 22 -49 51s24 50 50 50c25 0 47 -21 47 -50s-21 -51 -48 -51zM308 565c-25 0 -48 22 -48 51s24 50 49 50c26 0 48 -21 48 -50s-21 -51 -49 -51z" />
    <glyph glyph-name="dieresis_acutecomb" unicode="&#xf6d7;" horiz-adv-x="301" 
d="M15 559c-27 0 -50 23 -50 54s24 54 52 54c29 0 51 -22 51 -54c0 -30 -20 -54 -53 -54zM282 559c-27 0 -50 23 -50 54s24 54 52 54c29 0 51 -22 51 -54c0 -30 -20 -54 -53 -54zM146 686h95l-103 -138h-64z" />
    <glyph glyph-name="dieresis_gravecomb" unicode="&#xf6d8;" horiz-adv-x="301" 
d="M15 559c-27 0 -50 23 -50 54s24 54 52 54c29 0 51 -22 51 -54c0 -30 -20 -54 -53 -54zM282 559c-27 0 -50 23 -50 54s24 54 52 54c29 0 51 -22 51 -54c0 -30 -20 -54 -53 -54zM62 686h95l72 -137h-64z" />
    <glyph glyph-name="space_uni030F" unicode="&#xf6d6;" 
d="M-26 679h87l78 -136h-56zM117 679h87l79 -136h-57z" />
    <glyph glyph-name="dieresis_acutecomb.cap" unicode="&#xf6cc;" horiz-adv-x="301" 
d="M17 720c-24 0 -46 22 -46 51c0 30 22 52 48 52c27 0 48 -22 48 -52c0 -28 -20 -51 -50 -51zM284 720c-24 0 -46 22 -46 51c0 30 22 52 48 52c27 0 48 -22 48 -52c0 -28 -20 -51 -50 -51zM142 829h100l-109 -119h-71z" />
    <glyph glyph-name="dieresis_gravecomb.cap" unicode="&#xf6cd;" horiz-adv-x="301" 
d="M17 720c-24 0 -46 22 -46 51c0 30 22 52 48 52c27 0 48 -22 48 -52c0 -28 -20 -51 -50 -51zM283 720c-24 0 -46 22 -46 51c0 30 22 52 48 52c27 0 48 -22 48 -52c0 -28 -20 -51 -50 -51zM60 829h100l80 -119h-71z" />
    <glyph glyph-name="space_uni030F.cap" unicode="&#xf6d3;" 
d="M-52 829h105l94 -119h-69zM127 829h105l94 -119h-70z" />
    <glyph glyph-name="o.superior" horiz-adv-x="307" 
d="M155 588c75 0 117 -60 117 -164c0 -128 -65 -166 -119 -166c-73 0 -121 58 -121 165c0 111 58 165 123 165zM151 530c-37 0 -47 -67 -47 -107c0 -54 13 -107 48 -107c41 0 48 59 48 107c0 47 -8 107 -49 107z" />
    <glyph glyph-name="uni0401" unicode="&#x401;" horiz-adv-x="376" 
d="M326 396v-89h-160v-214h182v-93h-289v674h277v-93h-170v-185h160zM111 719c-28 0 -51 24 -51 56s24 56 52 56c29 0 52 -24 52 -56s-23 -56 -53 -56zM285 719c-28 0 -51 24 -51 56s24 56 52 56c30 0 52 -24 52 -56s-22 -56 -53 -56z" />
    <glyph glyph-name="uni0402" unicode="&#x402;" horiz-adv-x="515" 
d="M13 674h388v-98h-162v-159h2c19 11 48 21 78 21c63 0 112 -39 140 -98c27 -59 31 -113 31 -176c0 -75 -16 -151 -57 -206c-39 -54 -88 -83 -127 -92l-24 92c27 10 49 28 67 56s30 79 30 153c0 60 -7 99 -23 132c-14 29 -40 47 -70 47c-17 0 -33 -5 -47 -14v-332h-107v576
h-119v98z" />
    <glyph glyph-name="uni0403" unicode="&#x403;" horiz-adv-x="362" 
d="M59 674h290v-93h-183v-581h-107v674zM226 821h114l-123 -111h-79z" />
    <glyph glyph-name="uni0404" unicode="&#x404;" horiz-adv-x="395" 
d="M372 658l-20 -92c-14 10 -41 20 -68 20c-110 0 -144 -121 -147 -200h193v-93h-191c6 -88 37 -204 144 -204c27 0 63 8 82 17l15 -88c-21 -11 -59 -25 -108 -25c-156 0 -244 139 -244 341c0 158 63 347 249 347c50 0 75 -14 95 -23z" />
    <glyph glyph-name="uni0405" unicode="&#x405;" horiz-adv-x="379" 
d="M26 22l18 92c25 -15 69 -27 104 -27c66 0 102 38 102 94c0 54 -33 85 -88 123c-75 48 -127 115 -127 188c0 105 71 188 197 188c43 0 82 -13 100 -24l-19 -92c-19 12 -47 23 -83 23c-61 0 -90 -41 -90 -82c0 -52 27 -76 96 -120c85 -56 119 -121 119 -193
c0 -121 -86 -198 -207 -198c-50 0 -101 14 -122 28z" />
    <glyph glyph-name="uni0406" unicode="&#x406;" horiz-adv-x="226" 
d="M59 674h107v-674h-107v674z" />
    <glyph glyph-name="uni0407" unicode="&#x407;" horiz-adv-x="226" 
d="M59 674h107v-674h-107v674zM25 719c-28 0 -51 24 -51 56s24 56 52 56c29 0 52 -24 52 -56s-23 -56 -53 -56zM199 719c-28 0 -51 24 -51 56s24 56 52 56c30 0 52 -24 52 -56s-22 -56 -53 -56z" />
    <glyph glyph-name="uni0408" unicode="&#x408;" horiz-adv-x="282" 
d="M124 200v474h107v-470c0 -175 -79 -212 -175 -212c-24 0 -45 3 -59 8l9 90c11 -3 25 -4 40 -4c46 0 78 18 78 114z" />
    <glyph glyph-name="uni0409" unicode="&#x409;" horiz-adv-x="677" 
d="M82 674h311v-259c15 2 34 4 52 4c124 0 206 -81 206 -204c0 -63 -19 -113 -52 -149c-43 -47 -110 -71 -200 -71c-49 0 -86 3 -112 8v578h-107v-201c0 -164 -10 -302 -90 -363c-21 -16 -50 -26 -75 -26l-22 90c13 4 30 12 41 23c37 38 48 118 48 267v303zM393 329v-245
c11 -3 22 -3 34 -3c74 0 114 56 114 129c0 72 -43 122 -114 122c-11 0 -22 -1 -34 -3z" />
    <glyph glyph-name="uni040A" unicode="&#x40a;" horiz-adv-x="701" 
d="M59 674h107v-270h145v270h105v-262c16 2 34 4 53 4c123 0 205 -78 205 -201c0 -63 -19 -113 -52 -149c-43 -47 -110 -71 -199 -71c-50 0 -86 3 -112 7v308h-145v-310h-107v674zM417 327v-243c11 -3 21 -3 33 -3c75 0 114 57 114 128c0 73 -44 120 -113 120
c-12 0 -23 -1 -34 -2z" />
    <glyph glyph-name="uni040B" unicode="&#x40b;" horiz-adv-x="532" 
d="M13 674h373v-98h-151v-171h2c27 21 65 38 107 38c48 0 83 -19 104 -51c23 -34 33 -82 33 -137v-255h-106v252c0 35 -5 61 -20 79c-11 14 -28 22 -50 22c-28 0 -54 -13 -70 -26v-327h-107v576h-115v98z" />
    <glyph glyph-name="uni040C" unicode="&#x40c;" horiz-adv-x="425" 
d="M59 674h104v-299h11l126 299h116l-159 -313c76 -23 100 -89 118 -171c14 -65 25 -130 45 -190h-106c-17 46 -27 107 -38 161c-17 81 -37 136 -102 136h-11v-297h-104v674zM252 816h114l-123 -111h-79z" />
    <glyph glyph-name="uni040E" unicode="&#x40e;" horiz-adv-x="384" 
d="M-4 674h115l70 -266c11 -41 19 -79 26 -112h3c6 32 12 74 20 114l52 264h108l-91 -336c-22 -80 -49 -186 -89 -258c-31 -55 -78 -92 -132 -92c-19 0 -34 2 -45 5l4 87c6 -1 15 -2 27 -2c43 0 75 54 87 94c4 13 4 25 -1 39zM77 806h71c3 -33 15 -57 49 -57
c32 0 48 23 51 57h71c-10 -77 -52 -107 -122 -107c-66 0 -114 30 -120 107z" />
    <glyph glyph-name="uni040F" unicode="&#x40f;" horiz-adv-x="488" 
d="M59 674h107v-581h156v581h107v-674h-136l-6 -149h-87l-5 149h-136v674z" />
    <glyph glyph-name="uni0410" unicode="&#x410;" horiz-adv-x="448" 
d="M287 175h-133l-37 -175h-103l150 674h124l139 -674h-104zM166 259h110l-28 155c-8 44 -17 106 -24 153h-3c-8 -47 -18 -112 -26 -154z" />
    <glyph glyph-name="uni0411" unicode="&#x411;" horiz-adv-x="450" 
d="M59 674h317v-92h-211v-168c19 3 34 5 52 5c59 0 110 -18 145 -52c38 -34 61 -86 61 -152c0 -63 -19 -114 -52 -150c-43 -46 -110 -70 -200 -70c-49 0 -86 3 -112 7v672zM165 329v-245c11 -3 22 -3 34 -3c38 0 67 15 86 39c18 22 28 54 28 88c0 35 -11 66 -30 88
c-20 22 -48 36 -84 36c-11 0 -22 -1 -34 -3z" />
    <glyph glyph-name="uni0412" unicode="&#x412;" horiz-adv-x="453" 
d="M59 2v662c36 9 82 13 133 13c61 0 119 -10 160 -47c33 -29 48 -72 48 -120c0 -63 -34 -120 -99 -148v-3c77 -21 121 -85 121 -166c0 -56 -18 -100 -49 -133c-39 -44 -105 -65 -202 -65c-50 0 -86 3 -112 7zM165 592v-199h31c55 0 99 44 99 105c0 56 -26 98 -92 98
c-16 0 -29 -1 -38 -4zM165 313v-232c9 -2 20 -3 34 -3c65 0 113 39 113 116c0 79 -55 119 -116 119h-31z" />
    <glyph glyph-name="uni0413" unicode="&#x413;" horiz-adv-x="362" 
d="M59 674h290v-93h-183v-581h-107v674z" />
    <glyph glyph-name="uni0414" unicode="&#x414;" horiz-adv-x="509" 
d="M126 674h313v-583l49 -2l-5 -232h-81l-6 143h-294l-5 -143h-82l-5 232l47 2c23 56 39 111 49 168c15 82 20 165 20 253v162zM224 581v-88c0 -85 -5 -169 -18 -246c-8 -54 -23 -107 -40 -154h167v488h-109z" />
    <glyph glyph-name="uni0415" unicode="&#x415;" horiz-adv-x="376" 
d="M326 396v-89h-160v-214h182v-93h-289v674h277v-93h-170v-185h160z" />
    <glyph glyph-name="uni0416" unicode="&#x416;" horiz-adv-x="649" 
d="M10 674h120l134 -298h11v298h98v-298h12l133 298h120l-177 -311c90 -16 120 -104 138 -186c13 -59 24 -120 45 -177h-104c-16 40 -28 107 -38 150c-16 70 -39 147 -118 147h-11v-297h-98v297h-10c-81 0 -104 -77 -120 -147c-10 -43 -21 -110 -38 -150h-103
c21 57 33 118 45 177c18 82 50 170 139 186z" />
    <glyph glyph-name="uni0417" unicode="&#x417;" horiz-adv-x="392" 
d="M46 559l-22 82c30 22 82 41 144 41c118 0 178 -74 178 -165c0 -70 -48 -137 -115 -156v-2c82 -15 136 -78 136 -170c0 -125 -98 -197 -219 -197c-51 0 -102 12 -133 32l19 87c28 -17 65 -29 105 -29c76 0 117 46 117 109c0 82 -64 119 -142 119h-20v82h14
c64 0 128 40 128 107c0 55 -34 91 -94 91c-33 0 -70 -15 -96 -31z" />
    <glyph glyph-name="uni0418" unicode="&#x418;" horiz-adv-x="491" 
d="M59 674h95v-190c0 -121 -6 -224 -11 -310h2c20 65 56 154 79 215l110 285h97v-674h-94v188c0 140 3 232 8 310h-2c-19 -71 -50 -149 -74 -211l-111 -287h-99v674z" />
    <glyph glyph-name="uni0419" unicode="&#x419;" horiz-adv-x="491" 
d="M59 674h95v-190c0 -121 -6 -224 -11 -310h2c20 65 56 154 79 215l110 285h97v-674h-94v188c0 140 3 232 8 310h-2c-19 -71 -50 -149 -74 -211l-111 -287h-99v674zM124 806h71c3 -33 15 -57 49 -57c32 0 48 23 51 57h71c-10 -77 -52 -107 -122 -107
c-66 0 -114 30 -120 107z" />
    <glyph glyph-name="uni041A" unicode="&#x41a;" horiz-adv-x="425" 
d="M59 674h104v-299h11l126 299h116l-159 -313c76 -23 100 -89 118 -171c14 -65 25 -130 45 -190h-106c-17 46 -27 107 -38 161c-17 81 -37 136 -102 136h-11v-297h-104v674z" />
    <glyph glyph-name="uni041B" unicode="&#x41b;" horiz-adv-x="466" 
d="M83 674h323v-674h-107v581h-118v-201c0 -164 -8 -301 -89 -362c-21 -16 -48 -27 -77 -27l-23 90c15 3 30 10 42 20c39 39 49 121 49 268v305z" />
    <glyph glyph-name="uni041C" unicode="&#x41c;" horiz-adv-x="620" 
d="M482 0l-13 260c-4 76 -8 168 -7 242h-3c-13 -74 -31 -155 -47 -220l-70 -274h-73l-66 267c-18 68 -36 152 -48 227h-3c-1 -76 -5 -165 -9 -245l-12 -257h-93l45 674h113l65 -273c21 -87 38 -158 51 -234h2c12 76 27 146 47 234l63 273h115l40 -674h-97z" />
    <glyph glyph-name="uni041D" unicode="&#x41d;" horiz-adv-x="492" 
d="M59 674h107v-279h160v279h107v-674h-107v297h-160v-297h-107v674z" />
    <glyph glyph-name="uni041E" unicode="&#x41e;" horiz-adv-x="465" 
d="M240 682c141 0 197 -155 197 -336c0 -254 -89 -354 -208 -354c-134 0 -201 142 -201 346c0 202 76 344 212 344zM234 589c-67 0 -95 -111 -95 -252c0 -147 28 -252 96 -252c69 0 91 121 91 256c0 122 -20 248 -92 248z" />
    <glyph glyph-name="uni041F" unicode="&#x41f;" horiz-adv-x="488" 
d="M59 674h370v-674h-107v581h-156v-581h-107v674z" />
    <glyph glyph-name="uni0420" unicode="&#x420;" horiz-adv-x="431" 
d="M59 0v664c34 8 78 13 125 13c71 0 129 -13 168 -51c36 -34 54 -86 54 -144c0 -68 -19 -114 -50 -150c-39 -48 -104 -70 -161 -70c-11 0 -20 0 -30 1v-263h-106zM165 585v-235c8 -1 15 -1 26 -1c70 0 109 48 109 125c0 63 -26 116 -98 116c-15 0 -28 -2 -37 -5z" />
    <glyph glyph-name="uni0421" unicode="&#x421;" horiz-adv-x="385" 
d="M356 101l13 -90c-20 -10 -55 -17 -99 -17c-154 0 -242 126 -242 334c0 259 137 352 257 352c44 0 75 -9 88 -17l-20 -91c-16 8 -32 14 -64 14c-73 0 -148 -67 -148 -251c0 -181 68 -246 149 -246c25 0 50 5 66 12z" />
    <glyph glyph-name="uni0422" unicode="&#x422;" horiz-adv-x="376" 
d="M134 0v576h-121v98h349v-98h-121v-576h-107z" />
    <glyph glyph-name="uni0423" unicode="&#x423;" horiz-adv-x="384" 
d="M-4 674h115l70 -266c11 -41 19 -79 26 -112h3c6 32 12 74 20 114l52 264h108l-91 -336c-22 -80 -49 -186 -89 -258c-31 -55 -78 -92 -132 -92c-19 0 -34 2 -45 5l4 87c6 -1 15 -2 27 -2c43 0 75 54 87 94c4 13 4 25 -1 39z" />
    <glyph glyph-name="uni0424" unicode="&#x424;" horiz-adv-x="554" 
d="M230 696h95v-52c113 -14 201 -106 201 -302c0 -216 -94 -294 -202 -308v-55h-95v55c-110 15 -201 90 -201 305c0 205 104 292 202 305v52zM230 113v453c-47 -10 -95 -68 -95 -229c0 -150 46 -214 95 -224zM324 566v-453c53 10 95 69 95 229c0 162 -52 217 -95 224z" />
    <glyph glyph-name="uni0425" unicode="&#x425;" horiz-adv-x="400" 
d="M396 0h-111l-51 141c-13 38 -25 75 -38 119h-3c-13 -44 -24 -84 -35 -121l-46 -139h-107l131 344l-126 330h111l48 -139c12 -33 22 -67 35 -108h2c13 44 22 75 32 110l44 137h107l-129 -332z" />
    <glyph glyph-name="uni0426" unicode="&#x426;" horiz-adv-x="498" 
d="M59 674h107v-581h155v581h107v-583l49 -1l-5 -233h-82l-5 143h-326v674z" />
    <glyph glyph-name="uni0427" unicode="&#x427;" horiz-adv-x="470" 
d="M53 674h106v-228c0 -59 21 -104 82 -104c22 0 48 7 64 17v315h106v-681h-105v282h-4c-31 -14 -63 -23 -98 -23c-103 0 -151 66 -151 179v243z" />
    <glyph glyph-name="uni0428" unicode="&#x428;" horiz-adv-x="680" 
d="M59 674h105v-581h124v581h105v-581h124v581h105v-674h-563v674z" />
    <glyph glyph-name="uni0429" unicode="&#x429;" horiz-adv-x="691" 
d="M59 674h105v-581h124v581h105v-581h123v581h105v-583l49 -1l-5 -233h-82l-5 143h-519v674z" />
    <glyph glyph-name="uni042A" unicode="&#x42a;" horiz-adv-x="544" 
d="M13 674h247v-259c15 2 34 4 52 4c124 0 206 -81 206 -204c0 -63 -19 -114 -52 -150c-43 -46 -110 -70 -200 -70c-49 0 -86 3 -112 7v581h-141v91zM260 329v-245c11 -2 22 -3 34 -3c74 0 114 56 114 127c0 74 -43 124 -114 124c-11 0 -22 -1 -34 -3z" />
    <glyph glyph-name="uni042B" unicode="&#x42b;" horiz-adv-x="638" 
d="M59 674h106v-259c16 3 34 4 49 4c120 0 202 -79 202 -202c0 -65 -19 -114 -52 -151c-43 -46 -110 -71 -199 -71c-44 0 -80 3 -106 7v672zM165 329v-246c11 -2 20 -2 30 -2c69 0 111 56 111 127c0 74 -43 124 -108 124c-11 0 -23 -1 -33 -3zM472 674h107v-674h-107v674z
" />
    <glyph glyph-name="uni042C" unicode="&#x42c;" horiz-adv-x="449" 
d="M59 674h106v-259c12 3 28 4 52 4c126 0 206 -77 206 -204c0 -64 -19 -112 -52 -149c-43 -46 -110 -71 -200 -71c-50 0 -86 3 -112 7v672zM165 329v-246c11 -2 20 -2 31 -2c76 0 117 57 117 128s-41 123 -114 123c-12 0 -24 -1 -34 -3z" />
    <glyph glyph-name="uni042D" unicode="&#x42d;" horiz-adv-x="398" 
d="M69 296v95h193c-1 80 -35 195 -136 195c-27 0 -54 -6 -75 -16l-26 86c27 12 64 25 112 25c191 0 234 -193 234 -344c0 -191 -87 -344 -248 -344c-47 0 -87 13 -109 24l21 89c20 -10 44 -17 77 -17c112 0 144 122 148 207h-191z" />
    <glyph glyph-name="uni042E" unicode="&#x42e;" horiz-adv-x="645" 
d="M59 674h105v-279h67c13 176 86 287 198 287c132 0 188 -155 188 -337c0 -253 -86 -353 -197 -353c-115 0 -183 117 -190 308h-66v-300h-105v674zM424 85c65 0 85 121 85 256c0 122 -20 248 -86 248c-65 0 -88 -125 -88 -250c0 -133 23 -254 89 -254z" />
    <glyph glyph-name="uni042F" unicode="&#x42f;" horiz-adv-x="439" 
d="M121 0h-112c9 21 18 46 24 71c18 69 19 164 67 217c12 14 31 25 49 31v2c-68 20 -115 74 -115 162c0 69 26 118 64 149c39 30 92 45 155 45c43 0 90 -4 127 -13v-664h-106v280h-20c-27 0 -49 -8 -65 -27c-32 -40 -37 -139 -50 -194c-4 -20 -9 -40 -18 -59zM274 363v227
c-9 2 -19 3 -32 3c-70 0 -100 -52 -100 -113c0 -73 45 -118 109 -118c10 0 14 0 23 1z" />
    <glyph glyph-name="uni0430" unicode="&#x430;" horiz-adv-x="396" 
d="M346 305v-194c0 -38 1 -79 6 -111h-96l-6 50h-2c-25 -38 -61 -58 -103 -58c-70 0 -123 58 -123 144c0 125 106 178 216 179v13c0 50 -20 85 -73 85c-35 0 -64 -10 -91 -26l-20 72c24 15 75 35 134 35c126 0 158 -86 158 -189zM241 153v91c-42 -1 -117 -12 -117 -97
c0 -55 29 -75 53 -75c27 0 52 18 61 56c2 8 3 16 3 25z" />
    <glyph glyph-name="uni0431" unicode="&#x431;" horiz-adv-x="423" 
d="M358 700l-7 -91c-19 -9 -50 -14 -81 -20c-68 -12 -98 -38 -118 -76c-16 -31 -24 -69 -28 -105h3c18 43 62 79 115 79c87 0 151 -75 151 -240c0 -155 -63 -257 -177 -257c-148 0 -181 169 -181 300c0 110 13 204 52 271c32 59 83 98 159 113c32 8 89 16 112 26zM288 241
c0 63 -13 162 -75 162c-31 0 -51 -23 -61 -52c-12 -31 -14 -68 -14 -93c0 -57 11 -183 77 -183c64 0 73 110 73 166z" />
    <glyph glyph-name="uni0432" unicode="&#x432;" horiz-adv-x="426" 
d="M49 -1v485c36 6 83 10 128 10c84 0 200 -18 200 -122c0 -59 -42 -100 -95 -113v-2c71 -11 115 -57 115 -118c0 -123 -140 -146 -237 -146c-46 0 -87 2 -111 6zM153 419v-132h32c45 0 92 26 92 70c0 46 -38 65 -88 65c-13 0 -25 -1 -36 -3zM152 216v-148c9 -2 23 -3 36 -3
c52 0 103 18 103 74c0 55 -52 77 -107 77h-32z" />
    <glyph glyph-name="uni0433" unicode="&#x433;" horiz-adv-x="312" 
d="M49 487h250v-89h-144v-398h-106v487z" />
    <glyph glyph-name="uni0434" unicode="&#x434;" horiz-adv-x="453" 
d="M104 487h286v-407l43 -2l-5 -210h-80l-6 132h-243l-6 -132h-80l-5 210l37 2c18 29 32 66 41 101c12 53 18 110 18 169v137zM198 403v-54c0 -57 -4 -115 -16 -168c-7 -35 -18 -69 -34 -99h137v321h-87z" />
    <glyph glyph-name="uni0435" unicode="&#x435;" horiz-adv-x="394" 
d="M363 215h-229c1 -109 52 -139 109 -139c36 0 66 8 87 17l16 -76c-31 -14 -78 -23 -123 -23c-126 0 -193 91 -193 242c0 160 77 258 182 258c102 0 154 -92 154 -222c0 -28 -1 -44 -3 -57zM134 291h133c1 77 -25 123 -63 123c-47 0 -68 -66 -70 -123z" />
    <glyph glyph-name="uni0436" unicode="&#x436;" horiz-adv-x="571" 
d="M8 487h112l96 -206h18v206h102v-206h18l96 206h112l-132 -220c52 -15 80 -68 94 -132c10 -43 26 -104 40 -135h-104c-12 24 -22 66 -32 112c-16 68 -44 100 -82 100h-10v-212h-102v212h-10c-50 0 -66 -37 -83 -103c-11 -46 -18 -83 -32 -109h-103c15 33 31 94 41 133
c14 59 41 119 94 134z" />
    <glyph glyph-name="uni0437" unicode="&#x437;" horiz-adv-x="359" 
d="M82 216v72h35c47 0 87 26 87 69c0 39 -28 61 -73 61c-30 0 -61 -10 -86 -24l-18 67c33 20 82 33 135 33c95 0 149 -51 149 -122c0 -59 -42 -97 -99 -111v-2c69 -10 118 -54 118 -121c0 -99 -95 -146 -195 -146c-47 0 -91 10 -124 28l20 72c23 -11 60 -22 93 -22
c64 0 97 34 97 71c0 55 -52 75 -103 75h-36z" />
    <glyph glyph-name="uni0438" unicode="&#x438;" horiz-adv-x="433" 
d="M49 487h97v-133c0 -87 -4 -167 -9 -229h3c19 57 43 118 62 165l77 197h104v-487h-97v131c0 101 4 157 8 227h-2c-17 -56 -33 -102 -53 -152c-14 -36 -55 -138 -87 -206h-103v487z" />
    <glyph glyph-name="uni0439" unicode="&#x439;" horiz-adv-x="433" 
d="M49 487h97v-133c0 -87 -4 -167 -9 -229h3c19 57 43 118 62 165l77 197h104v-487h-97v131c0 101 4 157 8 227h-2c-17 -56 -33 -102 -53 -152c-14 -36 -55 -138 -87 -206h-103v487zM96 673h68c3 -41 21 -64 52 -64c34 0 50 25 53 64h68c-6 -79 -49 -119 -123 -119
c-72 0 -113 40 -118 119z" />
    <glyph glyph-name="uni043A" unicode="&#x43a;" horiz-adv-x="393" 
d="M50 487h104v-202h13l103 202h114l-137 -214c57 -14 85 -74 100 -139c10 -38 26 -99 42 -134h-107c-14 29 -24 70 -36 116c-14 57 -37 93 -83 93h-9v-209h-104v487z" />
    <glyph glyph-name="uni043B" unicode="&#x43b;" horiz-adv-x="413" 
d="M69 487h295v-487h-107v400h-88v-127c0 -133 -11 -231 -92 -268c-18 -9 -40 -14 -60 -14l-17 85c21 5 33 16 42 29c23 30 27 94 27 164v218z" />
    <glyph glyph-name="uni043C" unicode="&#x43c;" horiz-adv-x="568" 
d="M35 0l35 487h130l49 -182c13 -48 23 -86 37 -148h3c14 62 22 100 34 148l47 182h131l32 -487h-100l-7 188c-2 54 -4 107 -6 205h-2c-10 -46 -26 -121 -44 -195l-51 -192h-83l-50 190c-15 60 -32 143 -44 197h-2c-2 -90 -3 -151 -6 -208l-6 -185h-97z" />
    <glyph glyph-name="uni043D" unicode="&#x43d;" horiz-adv-x="433" 
d="M49 487h107v-195h121v195h107v-487h-107v202h-121v-202h-107v487z" />
    <glyph glyph-name="uni043E" unicode="&#x43e;" horiz-adv-x="410" 
d="M208 494c102 0 171 -90 171 -250c0 -196 -101 -252 -175 -252c-103 0 -173 86 -173 250c0 176 86 252 177 252zM206 412c-57 0 -69 -98 -69 -168c0 -82 14 -170 71 -170c53 0 65 96 65 170c0 70 -12 168 -67 168z" />
    <glyph glyph-name="uni043F" unicode="&#x43f;" horiz-adv-x="431" 
d="M49 487h333v-487h-107v399h-119v-399h-107v487z" />
    <glyph glyph-name="uni0440" unicode="&#x440;" horiz-adv-x="425" 
d="M49 -192v526c0 66 -2 112 -4 153h93l6 -60h2c23 45 60 67 102 67c97 0 146 -104 146 -250c0 -177 -75 -252 -154 -252c-43 0 -69 26 -83 51h-2v-235h-106zM155 306v-128c0 -15 2 -30 5 -41c13 -47 38 -57 55 -57c55 0 73 77 73 162c0 97 -23 162 -72 162
c-27 0 -51 -30 -57 -62c-3 -11 -4 -23 -4 -36z" />
    <glyph glyph-name="uni0441" unicode="&#x441;" horiz-adv-x="313" 
d="M294 93l11 -83c-15 -8 -46 -16 -82 -16c-116 0 -192 86 -192 245c0 146 80 254 209 254c29 0 57 -7 70 -14l-16 -85c-11 5 -28 11 -52 11c-69 0 -105 -74 -105 -164c0 -99 40 -159 105 -159c20 0 37 3 52 11z" />
    <glyph glyph-name="uni0442" unicode="&#x442;" horiz-adv-x="346" 
d="M10 487h327v-88h-110v-399h-107v399h-110v88z" />
    <glyph glyph-name="uni0443" unicode="&#x443;" horiz-adv-x="370" 
d="M9 487h114l55 -265c7 -33 11 -62 16 -90h2c5 26 11 58 16 89l48 266h105l-90 -348c-27 -105 -60 -210 -114 -277c-38 -46 -82 -69 -100 -76l-35 92c22 10 46 28 66 50c19 20 34 46 43 68c4 10 6 16 6 23c0 6 -1 12 -3 18z" />
    <glyph glyph-name="uni0444" unicode="&#x444;" horiz-adv-x="521" 
d="M212 677h96l-1 -182c115 -17 183 -104 183 -253s-63 -236 -183 -251l1 -183h-96l1 183c-119 14 -182 100 -182 251c0 147 66 234 182 252zM213 59v369c-70 -24 -86 -113 -86 -184c0 -78 18 -164 86 -185zM307 427v-369c67 23 86 106 86 186c0 71 -16 158 -86 183z" />
    <glyph glyph-name="uni0445" unicode="&#x445;" horiz-adv-x="370" 
d="M10 487h115l37 -95c11 -28 19 -57 28 -83h2c8 27 18 57 27 83l35 95h108l-113 -240l114 -247h-116l-39 100c-10 25 -18 50 -28 78h-2c-8 -26 -17 -52 -26 -78l-37 -100h-107l112 243z" />
    <glyph glyph-name="uni0446" unicode="&#x446;" horiz-adv-x="443" 
d="M49 487h107v-399h118v399h106v-407l43 -2l-5 -210h-80l-6 132h-283v487z" />
    <glyph glyph-name="uni0447" unicode="&#x447;" horiz-adv-x="423" 
d="M43 487h107v-182c0 -44 14 -75 60 -75c23 0 42 7 57 17v240h107v-490h-106v178h-3c-22 -15 -58 -24 -91 -24c-87 0 -131 53 -131 145v191z" />
    <glyph glyph-name="uni0448" unicode="&#x448;" horiz-adv-x="631" 
d="M49 487h105v-399h109v399h105v-399h109v399h105v-487h-533v487z" />
    <glyph glyph-name="uni0449" unicode="&#x449;" horiz-adv-x="644" 
d="M49 487h105v-399h109v399h105v-399h109v399h105v-407l43 -2l-5 -210h-80l-6 132h-485v487z" />
    <glyph glyph-name="uni044A" unicode="&#x44a;" horiz-adv-x="500" 
d="M11 487h221v-164c19 3 34 4 49 4c101 0 193 -48 193 -159c0 -58 -24 -99 -58 -125c-46 -35 -112 -48 -175 -48c-38 0 -80 4 -115 8v397h-115v87zM232 245v-168c10 -2 20 -2 33 -2c52 0 101 27 101 87c0 61 -50 86 -105 86c-11 0 -20 -1 -29 -3z" />
    <glyph glyph-name="uni044B" unicode="&#x44b;" horiz-adv-x="583" 
d="M49 487h106v-164c12 3 29 4 48 4c95 0 181 -52 181 -159c0 -58 -24 -99 -58 -125c-46 -35 -111 -48 -162 -48c-38 0 -80 4 -115 8v484zM155 245v-168c9 -2 20 -2 30 -2c45 0 91 30 91 87c0 59 -47 86 -92 86c-11 0 -20 0 -29 -3zM429 487h105v-487h-105v487z" />
    <glyph glyph-name="uni044C" unicode="&#x44c;" horiz-adv-x="424" 
d="M49 487h106v-164c19 3 34 4 49 4c104 0 193 -48 193 -162c0 -55 -24 -96 -58 -122c-46 -35 -112 -48 -175 -48c-38 0 -80 4 -115 8v484zM155 245v-169c10 -1 20 -1 30 -1c55 0 104 27 104 87c0 61 -50 86 -105 86c-11 0 -20 -1 -29 -3z" />
    <glyph glyph-name="uni044D" unicode="&#x44d;" horiz-adv-x="352" 
d="M49 211v74h164c-3 64 -35 127 -109 127c-32 0 -54 -7 -71 -14l-17 73c21 13 64 23 106 23c60 0 110 -25 143 -65c37 -46 57 -112 57 -182c0 -147 -82 -254 -215 -254c-35 0 -76 9 -97 21l15 77c21 -8 43 -14 73 -14c65 0 112 57 115 134h-164z" />
    <glyph glyph-name="uni044E" unicode="&#x44e;" horiz-adv-x="571" 
d="M49 487h105v-194h52c16 140 90 201 167 201c101 0 168 -89 168 -250c0 -196 -98 -252 -170 -252c-91 0 -157 73 -166 216h-51v-208h-105v487zM374 74c50 0 63 96 63 170c0 70 -13 168 -65 168c-55 0 -67 -98 -67 -168c0 -82 14 -170 69 -170z" />
    <glyph glyph-name="uni044F" unicode="&#x44f;" horiz-adv-x="411" 
d="M361 482v-482h-103v199h-17c-24 0 -40 -7 -51 -16c-35 -25 -43 -88 -59 -147c-3 -13 -8 -25 -13 -36h-111c9 15 17 32 23 52c13 45 25 110 57 146c13 14 34 27 60 33v2c-59 12 -111 49 -111 120c0 46 20 78 53 103c31 23 90 35 150 35c48 0 92 -3 122 -9zM259 266v153
c-10 2 -20 3 -30 3c-49 0 -86 -24 -86 -75c0 -50 43 -82 92 -82c9 0 18 0 24 1z" />
    <glyph glyph-name="uni0451" unicode="&#x451;" horiz-adv-x="394" 
d="M363 215h-229c1 -109 52 -139 109 -139c36 0 66 8 87 17l16 -76c-31 -14 -78 -23 -123 -23c-126 0 -193 91 -193 242c0 160 77 258 182 258c102 0 154 -92 154 -222c0 -28 -1 -44 -3 -57zM134 291h133c1 77 -25 123 -63 123c-47 0 -68 -66 -70 -123zM130 564
c-28 0 -52 23 -52 55s24 55 53 55s52 -23 52 -55s-22 -55 -53 -55zM297 564c-28 0 -52 23 -52 55s24 55 53 55s52 -23 52 -55s-22 -55 -53 -55z" />
    <glyph glyph-name="uni0452" unicode="&#x452;" horiz-adv-x="440" 
d="M6 621h53v71h107v-71h170v-68h-170v-120h2c21 32 58 57 100 57s80 -23 103 -70c24 -45 35 -115 35 -199c0 -146 -29 -234 -81 -290c-29 -31 -69 -52 -97 -56l-24 88c17 4 40 16 56 41c28 44 40 127 40 213c0 41 -2 94 -18 137c-10 28 -26 46 -52 46
c-20 0 -37 -13 -47 -29c-12 -20 -17 -44 -17 -64v-307h-107v553h-53v68z" />
    <glyph glyph-name="uni0453" unicode="&#x453;" horiz-adv-x="312" 
d="M49 487h250v-89h-144v-398h-106v487zM195 686h99l-103 -138h-68z" />
    <glyph glyph-name="uni0454" unicode="&#x454;" horiz-adv-x="353" 
d="M346 472l-20 -76c-14 8 -36 18 -69 18c-77 0 -114 -67 -118 -129h168v-74h-168c5 -81 49 -137 120 -137c25 0 51 6 69 15l16 -75c-22 -12 -55 -21 -101 -21c-135 0 -213 107 -213 248c0 136 75 253 223 253c39 0 75 -10 93 -22z" />
    <glyph glyph-name="uni0455" unicode="&#x455;" horiz-adv-x="308" 
d="M20 22l21 79c18 -12 51 -26 84 -26c38 0 61 20 61 56c0 30 -14 50 -59 78c-73 44 -99 90 -99 140c0 83 61 145 149 145c39 0 70 -11 93 -24l-21 -79c-19 12 -41 21 -67 21c-37 0 -55 -24 -55 -50c0 -27 12 -42 58 -72c65 -38 100 -86 100 -147c0 -99 -69 -149 -161 -149
c-38 0 -83 11 -104 28z" />
    <glyph glyph-name="uni0456" unicode="&#x456;" horiz-adv-x="205" 
d="M156 0h-107v487h107v-487zM101 676c34 0 58 -24 58 -62c0 -37 -24 -62 -59 -62c-31 0 -56 25 -56 62c0 38 26 62 57 62z" />
    <glyph glyph-name="uni0457" unicode="&#x457;" horiz-adv-x="205" 
d="M156 0h-107v487h107v-487zM18 564c-28 0 -52 23 -52 55s24 55 53 55s52 -23 52 -55s-22 -55 -53 -55zM186 564c-28 0 -52 23 -52 55s24 55 53 55s52 -23 52 -55s-22 -55 -53 -55z" />
    <glyph glyph-name="uni0458" unicode="&#x458;" horiz-adv-x="208" 
d="M-24 -200l-10 85c23 4 48 10 64 31c18 23 23 59 23 141v430h107v-454c0 -105 -19 -155 -58 -189c-33 -29 -87 -43 -126 -44zM107 676c33 0 57 -24 57 -62c0 -37 -24 -62 -59 -62c-31 0 -56 25 -56 62c0 38 26 62 58 62z" />
    <glyph glyph-name="uni0459" unicode="&#x459;" horiz-adv-x="633" 
d="M69 487h296v-163c19 2 32 3 47 3c103 0 195 -49 195 -161c0 -55 -23 -95 -57 -122c-48 -36 -118 -49 -180 -49c-39 0 -76 4 -111 8v397h-90v-127c0 -135 -11 -231 -92 -268c-17 -9 -40 -14 -60 -14l-17 85c21 5 33 16 42 29c23 28 27 87 27 164v218zM365 245v-168
c10 -2 20 -2 30 -2c55 0 104 27 104 87c0 62 -49 86 -105 86c-11 0 -20 -1 -29 -3z" />
    <glyph glyph-name="uni045A" unicode="&#x45a;" horiz-adv-x="643" 
d="M49 487h107v-180h114v180h106v-166c19 2 33 4 50 4c102 0 191 -51 191 -163c0 -54 -23 -92 -57 -118c-48 -36 -117 -49 -179 -49c-39 0 -76 3 -111 8v218h-114v-221h-107v487zM376 243v-166c10 -2 20 -2 32 -2c55 0 101 26 101 86c0 61 -49 84 -105 84
c-10 0 -19 -1 -28 -2z" />
    <glyph glyph-name="uni045B" unicode="&#x45b;" horiz-adv-x="444" 
d="M6 621h53v71h107v-71h170v-68h-170v-122h2c11 17 26 31 42 41c18 11 40 18 65 18c77 0 120 -64 120 -183v-307h-107v299c0 53 -11 101 -56 101c-33 0 -53 -25 -62 -60c-2 -9 -4 -24 -4 -40v-300h-107v553h-53v68z" />
    <glyph glyph-name="uni045C" unicode="&#x45c;" horiz-adv-x="393" 
d="M50 487h104v-202h13l103 202h114l-137 -214c57 -14 85 -74 100 -139c10 -38 26 -99 42 -134h-107c-14 29 -24 70 -36 116c-14 57 -37 93 -83 93h-9v-209h-104v487zM226 686h98l-103 -138h-68z" />
    <glyph glyph-name="uni045E" unicode="&#x45e;" horiz-adv-x="370" 
d="M65 673h68c3 -41 21 -64 52 -64c34 0 50 25 53 64h68c-6 -79 -49 -119 -123 -119c-72 0 -113 40 -118 119zM9 487h114l55 -265c7 -33 11 -62 16 -90h2c5 26 11 58 16 89l48 266h105l-90 -348c-27 -105 -60 -210 -114 -277c-38 -46 -82 -69 -100 -76l-35 92
c22 10 46 28 66 50c19 20 34 46 43 68c4 10 6 16 6 23c0 6 -1 12 -3 18z" />
    <glyph glyph-name="uni045F" unicode="&#x45f;" horiz-adv-x="430" 
d="M49 487h107v-399h118v399h107v-487h-119l-6 -136h-82l-7 136h-118v487z" />
    <glyph glyph-name="uni0490" unicode="&#x490;" horiz-adv-x="356" 
d="M59 674h205l14 117h75l-10 -210h-178v-581h-106v674z" />
    <glyph glyph-name="uni0491" unicode="&#x491;" horiz-adv-x="310" 
d="M49 487h168l11 104h78l-8 -193h-143v-398h-106v487z" />
    <glyph glyph-name="breve.cyrcap" unicode="&#xf6d1;" 
d="M29 825h71c3 -33 15 -57 49 -57c32 0 48 23 51 57h71c-10 -77 -52 -107 -122 -107c-66 0 -114 30 -120 107z" />
    <glyph glyph-name="circumflex.cyrcap" unicode="&#xf6d2;" 
d="M271 717h-71c-3 33 -15 57 -49 57c-32 0 -48 -23 -51 -57h-71c10 77 52 107 122 107c66 0 114 -30 120 -107z" />
    <glyph glyph-name="breve.cyr" unicode="&#xf6d4;" 
d="M30 673h68c3 -41 21 -64 52 -64c34 0 50 25 53 64h68c-6 -79 -49 -119 -123 -119c-72 0 -113 40 -118 119z" />
    <glyph glyph-name="circumflex.cyr" unicode="&#xf6d5;" 
d="M98 568h-68c6 79 48 119 123 119c72 0 113 -40 118 -119h-68c-3 41 -21 64 -52 64c-34 0 -50 -25 -53 -64z" />
    <glyph glyph-name="Ohorn" unicode="&#x1a0;" horiz-adv-x="465" 
d="M235 85c69 0 91 121 91 256c0 122 -20 248 -92 248c-71 0 -96 -125 -95 -250c-1 -133 24 -254 96 -254zM372 726l78 12c10 -19 18 -46 18 -77c0 -48 -24 -84 -74 -88c24 -49 43 -120 43 -227c0 -254 -89 -354 -207 -354c-135 0 -202 142 -202 346c0 202 76 344 212 344
c23 0 52 -6 75 -18c29 -15 42 -28 54 -28c16 0 22 10 22 28c0 23 -10 44 -19 62z" />
    <glyph glyph-name="Uhorn" unicode="&#x1af;" horiz-adv-x="504" 
d="M416 761l77 11c10 -22 17 -47 17 -76c0 -48 -24 -80 -75 -85l-11 -1v-362c0 -174 -69 -256 -185 -256c-123 0 -183 83 -183 251v431h107v-444c0 -109 34 -144 76 -144c47 0 78 34 78 144v444h80c24 0 34 6 34 28c0 21 -6 42 -15 59z" />
    <glyph glyph-name="ohorn" unicode="&#x1a1;" horiz-adv-x="410" 
d="M206 412c-57 0 -69 -98 -69 -168c0 -82 14 -170 71 -170c53 0 65 96 65 170c0 71 -12 169 -67 168zM325 551l76 11c10 -19 19 -46 19 -77c0 -48 -26 -77 -73 -84c19 -35 32 -90 32 -157c0 -196 -101 -252 -175 -252c-103 0 -173 86 -173 250c0 176 86 252 177 252
c22 0 44 -6 60 -12c15 -5 32 -17 50 -17c14 0 23 9 24 28c0 20 -8 41 -17 58z" />
    <glyph glyph-name="uhorn" unicode="&#x1b0;" horiz-adv-x="428" 
d="M359 575l77 11c11 -21 19 -47 19 -75c0 -45 -25 -75 -73 -80l-5 -1v-289c0 -52 2 -100 4 -141h-93l-6 51h-2c-19 -29 -58 -59 -109 -59c-89 0 -125 67 -125 194v301h107v-288c0 -69 12 -118 56 -118c33 0 50 29 55 48c4 11 6 26 6 42v316h73c25 0 33 9 33 30
c0 19 -7 42 -17 58z" />
    <glyph glyph-name="dong" unicode="&#x20ab;" horiz-adv-x="408" 
d="M71 108h274v-69h-274v69zM250 657h92v-62h42v-58h-42v-286c0 -29 3 -68 4 -95h-80l-5 42h-3c-14 -24 -44 -47 -85 -47c-80 0 -125 74 -125 177c0 121 62 180 129 180c32 0 56 -14 72 -38h1v67h-92v58h92v62zM250 281v88c0 7 0 14 -1 21c-4 26 -23 49 -48 49
c-44 0 -60 -52 -60 -111c0 -67 21 -109 58 -109c16 0 37 7 48 40c2 6 3 13 3 22z" />
    <glyph glyph-name="dong.alt" unicode="&#xe184;" horiz-adv-x="408" 
d="M250 657h92v-62h42v-58h-42v-286c0 -29 3 -68 4 -95h-80l-5 42h-3c-14 -24 -45 -47 -85 -47c-80 0 -125 74 -125 177c0 121 62 180 129 180c32 0 56 -14 72 -38h1v67h-92v58h92v62zM250 281v88c0 7 0 14 -1 21c-4 26 -23 49 -49 49c-43 0 -59 -52 -59 -111
c0 -67 21 -109 57 -109c17 0 38 7 49 40c2 6 3 13 3 22z" />
    </font>
</defs>
</svg>
