<?xml version="1.0" standalone="no"?>
<!DOCTYPE svg PUBLIC "-//W3C//DTD SVG 1.1//EN" "http://www.w3.org/Graphics/SVG/1.1/DTD/svg11.dtd" >
<svg>
<metadata>
Created by FontForge 20110222 at Thu Feb 21 06:49:49 2013
 By www-data
Copyright (c) 2000 Adobe Systems Incorporated. All Rights Reserved.Myriad is a registered trademark of Adobe Systems Incorporated.
</metadata>
<defs>
<font id="MyriadPro-LightCondIt" horiz-adv-x="300" >
  <font-face 
    font-family="Myriad Pro"
    font-weight="300"
    font-style="italic"
    font-stretch="condensed"
    units-per-em="1000"
    panose-1="2 11 4 6 3 4 3 9 2 4"
    ascent="750"
    descent="-250"
    x-height="480"
    cap-height="674"
    bbox="-108 -250 987 863"
    underline-thickness="50"
    underline-position="-50"
    slope="-11"
    stemh="35"
    stemv="43"
    unicode-range="U+0020-FB04"
  />
<missing-glyph horiz-adv-x="500" 
d="M0 0v700h500v-700h-500zM250 395l170 255h-340zM280 350l170 -255v510zM80 50h340l-170 255zM50 605v-510l170 255z" />
    <glyph glyph-name="fi" unicode="fi" horiz-adv-x="359" 
d="M59 0h-39l84 444h-57l6 36h58l5 25c21 128 74 195 174 195c34 0 66 -13 77 -22l-16 -33c-12 8 -35 18 -71 18c-78 0 -113 -65 -128 -169l-2 -14h192l-91 -480h-39l84 444h-153z" />
    <glyph glyph-name="fl" unicode="fl" horiz-adv-x="359" 
d="M59 0h-39l84 444h-57l6 36h58l6 31c12 61 27 116 78 156c27 21 63 33 102 33c28 0 64 -10 82 -23l-128 -677h-39l123 652c-8 6 -27 11 -48 11c-76 0 -111 -54 -128 -139l-9 -44h91l-7 -36h-91z" />
    <glyph glyph-name="ff" unicode="ff" horiz-adv-x="398" 
d="M513 692l-10 -34c-9 3 -19 5 -35 5c-62 0 -97 -80 -109 -158l-4 -25h91l-7 -36h-91l-86 -444h-38l85 444h-166l-85 -444h-38l85 444h-57l6 36h58l5 25c11 57 30 114 65 149c22 22 50 35 86 35c17 0 33 -8 40 -14l-15 -33c-7 5 -19 10 -33 10c-64 0 -90 -70 -107 -157
l-3 -15h166l7 36c10 51 29 109 63 145c23 23 53 39 89 39c17 0 33 -4 38 -8z" />
    <glyph glyph-name="ffi" unicode="ffi" horiz-adv-x="563" 
d="M571 678l-16 -33c-12 8 -35 18 -71 18c-78 0 -113 -65 -128 -169l-2 -14h192l-91 -480h-39l84 444h-153l-84 -444h-39l84 444h-165l-85 -444h-38l85 444h-57l6 36h58l7 36c9 47 28 101 63 136c23 22 52 37 89 37c21 0 40 -7 52 -15l-17 -33c-12 7 -24 11 -41 11
c-23 0 -43 -9 -59 -25c-25 -25 -41 -67 -51 -120l-5 -27h165l5 25c25 127 74 195 174 195c34 0 66 -13 77 -22z" />
    <glyph glyph-name="ffl" unicode="ffl" horiz-adv-x="563" 
d="M324 674l-17 -33c-12 7 -24 11 -41 11c-24 0 -44 -9 -60 -26c-24 -25 -41 -66 -51 -119l-5 -27h165l6 31c12 61 27 116 78 156c27 21 63 33 102 33c28 0 64 -10 82 -23l-128 -677h-39l123 652c-8 6 -27 11 -48 11c-76 0 -111 -54 -128 -139l-9 -44h91l-7 -36h-91
l-84 -444h-39l84 444h-165l-85 -444h-38l85 444h-57l6 36h58l7 36c9 47 28 100 63 135c23 23 52 38 90 38c21 0 40 -7 52 -15z" />
    <glyph glyph-name="f_j" unicode="fj" horiz-adv-x="344" 
d="M366 678l-16 -33c-12 8 -35 18 -71 18c-78 0 -113 -65 -128 -169l-2 -14h192l-94 -498c-15 -80 -27 -116 -44 -139c-16 -22 -44 -43 -84 -43c-14 0 -27 1 -34 4l4 36c7 -1 19 -3 32 -3c31 0 62 13 82 117l92 490h-153l-84 -444h-39l84 444h-57l6 36h58l5 25
c25 127 74 195 174 195c34 0 66 -13 77 -22z" />
    <glyph glyph-name="f_f_j" unicode="ffj" horiz-adv-x="549" 
d="M571 678l-16 -33c-12 8 -35 18 -71 18c-78 0 -113 -65 -128 -169l-2 -14h192l-94 -498c-15 -80 -27 -116 -44 -139c-16 -22 -44 -43 -84 -43c-14 0 -27 1 -34 4l4 36c7 -1 19 -3 32 -3c31 0 62 13 82 117l92 490h-153l-84 -444h-39l84 444h-165l-85 -444h-38l85 444h-57
l6 36h58l7 36c9 47 28 101 63 136c23 22 52 37 89 37c21 0 40 -7 52 -15l-17 -33c-12 7 -24 11 -41 11c-23 0 -43 -9 -59 -25c-25 -25 -41 -67 -51 -120l-5 -27h165l5 25c25 127 74 195 174 195c34 0 66 -13 77 -22z" />
    <glyph glyph-name=".notdef" horiz-adv-x="500" 
d="M0 0v700h500v-700h-500zM250 395l170 255h-340zM280 350l170 -255v510zM80 50h340l-170 255zM50 605v-510l170 255z" />
    <glyph glyph-name="space" unicode=" " horiz-adv-x="150" 
 />
    <glyph glyph-name="space" unicode="&#xa0;" horiz-adv-x="150" 
 />
    <glyph glyph-name="exclam" unicode="!" horiz-adv-x="184" 
d="M91 168h-34l90 506h48zM44 -8h-1c-19 0 -31 15 -31 37c0 23 17 43 38 43c25 0 32 -19 32 -36c0 -21 -15 -44 -38 -44z" />
    <glyph glyph-name="quotedbl" unicode="&#x22;" horiz-adv-x="232" 
d="M108 683h50l-50 -217h-32zM234 683h50l-50 -217h-32z" />
    <glyph glyph-name="numbersign" unicode="#" horiz-adv-x="360" 
d="M128 240h81l50 175h-81zM60 0h-38l58 202h-59l6 38h64l50 175h-66l6 36h71l57 199h36l-57 -199h82l57 199h36l-57 -199h59l-6 -36h-63l-50 -175h67l-6 -36h-71l-58 -204h-38l59 204h-81z" />
    <glyph glyph-name="dollar" unicode="$" horiz-adv-x="360" 
d="M135 -83h-37l19 100c-45 4 -84 23 -98 38l15 33c19 -14 56 -37 100 -37c79 0 123 58 123 127s-24 102 -66 143c-46 43 -93 90 -93 159c0 77 49 145 134 155l18 90h37l-17 -91c37 -2 66 -19 82 -32l-20 -31c-17 14 -47 30 -83 30c-62 0 -109 -44 -109 -112
c0 -66 36 -96 78 -134c51 -48 81 -97 81 -158c0 -110 -62 -174 -144 -181z" />
    <glyph glyph-name="percent" unicode="%" horiz-adv-x="634" 
d="M218 658h1c66 0 89 -65 89 -131c0 -95 -46 -260 -156 -260c-67 0 -91 66 -91 127c0 102 44 264 157 264zM210 624h-1c-80 0 -108 -157 -108 -218c0 -59 13 -105 57 -105c79 0 110 156 110 219c0 46 -11 104 -58 104zM123 -16h-41l451 681h41zM509 385h1
c66 0 89 -65 89 -131c0 -95 -46 -260 -156 -260c-67 0 -91 66 -91 127c0 102 44 264 157 264zM501 351h-1c-80 0 -108 -157 -108 -218c0 -59 13 -105 57 -105c79 0 110 156 110 219c0 46 -11 104 -58 104z" />
    <glyph glyph-name="ampersand" unicode="&#x26;" horiz-adv-x="468" 
d="M390 0h-46c-12 21 -20 34 -39 71c-42 -50 -93 -79 -152 -79c-89 0 -138 71 -138 155c0 107 69 181 148 231v2c-9 22 -28 73 -28 123c0 91 47 179 135 179c68 0 97 -57 97 -112c0 -96 -80 -157 -157 -205v-2c15 -39 59 -141 104 -224c48 82 80 182 90 224h43
c-20 -72 -58 -174 -115 -259c6 -12 19 -39 58 -104zM158 30h1c46 0 90 24 129 74c-55 104 -86 174 -113 242c-69 -45 -117 -109 -117 -193c0 -77 45 -123 100 -123zM261 644h-1c-54 0 -84 -66 -84 -127c0 -56 10 -86 22 -120c73 46 126 98 126 166c0 56 -20 81 -63 81z" />
    <glyph glyph-name="quoteright" unicode="&#x2019;" horiz-adv-x="151" 
d="M152 673l58 10c-28 -75 -87 -189 -106 -217l-33 -5c22 42 64 150 81 212z" />
    <glyph glyph-name="parenleft" unicode="(" horiz-adv-x="250" 
d="M261 692h43c-133 -152 -199 -343 -199 -514c0 -126 12 -223 40 -298h-37c-33 84 -45 193 -45 290c0 187 73 379 198 522z" />
    <glyph glyph-name="parenright" unicode=")" horiz-adv-x="250" 
d="M-3 -120h-44c133 152 199 343 199 514c0 126 -12 223 -40 298h37c33 -84 45 -193 45 -290c0 -187 -73 -379 -197 -522z" />
    <glyph glyph-name="asterisk" unicode="*" horiz-adv-x="365" 
d="M307 682l38 -20l-91 -122v-2l133 13l-5 -43l-130 9v-2l69 -116l-37 -23l-56 124h-2l-74 -128l-36 24l90 120l1 2l-130 -10l5 43l126 -11v2l-63 116l41 20l46 -121h2z" />
    <glyph glyph-name="plus" unicode="+" horiz-adv-x="596" 
d="M281 532h40v-246h238v-38h-238v-248h-40v248h-238v38h238v246z" />
    <glyph glyph-name="comma" unicode="," horiz-adv-x="170" 
d="M-4 -121l-35 -5c21 42 59 150 74 212l60 10c-25 -75 -80 -189 -99 -217z" />
    <glyph glyph-name="hyphen" unicode="-" horiz-adv-x="291" 
d="M31 271h232l-7 -38h-232z" />
    <glyph glyph-name="hyphen" unicode="&#xad;" horiz-adv-x="291" 
d="M31 271h232l-7 -38h-232z" />
    <glyph glyph-name="period" unicode="." horiz-adv-x="170" 
d="M48 -8h-1c-19 0 -31 15 -31 37c0 23 17 43 38 43c25 0 32 -19 32 -36c0 -21 -15 -44 -38 -44z" />
    <glyph glyph-name="slash" unicode="/" horiz-adv-x="281" 
d="M10 -40h-43l341 722h43z" />
    <glyph glyph-name="zero" unicode="0" horiz-adv-x="360" 
d="M133 -8h-1c-90 0 -104 104 -104 185c0 151 65 481 229 481c94 0 103 -103 103 -170c0 -131 -56 -496 -227 -496zM140 29h1c124 0 177 350 177 465c0 51 -5 127 -63 127c-128 0 -185 -305 -185 -440c0 -91 10 -152 70 -152z" />
    <glyph glyph-name="one" unicode="1" horiz-adv-x="360" 
d="M143 0l112 600h-2l-117 -66l-5 34l144 82h30l-123 -650h-39z" />
    <glyph glyph-name="two" unicode="2" horiz-adv-x="360" 
d="M270 0h-273l4 24l61 72c88 104 244 284 244 418c0 69 -30 107 -86 107c-45 0 -74 -28 -86 -37l-14 30c19 16 57 44 108 44c81 0 120 -58 120 -137c0 -161 -168 -334 -267 -457l-21 -26l1 -2h214z" />
    <glyph glyph-name="three" unicode="3" horiz-adv-x="360" 
d="M7 13l12 34c16 -8 45 -18 77 -18c90 0 153 83 153 178s-57 138 -114 137h-16l6 31h14c59 2 148 57 148 155c0 66 -34 91 -83 91c-26 0 -56 -11 -70 -21l-11 33c21 13 56 25 95 25c68 0 111 -53 111 -121c0 -96 -64 -155 -127 -177v-2c52 -15 89 -72 89 -144
c0 -131 -90 -222 -200 -222c-30 0 -63 8 -84 21z" />
    <glyph glyph-name="four" unicode="4" horiz-adv-x="360" 
d="M223 0h-39l37 195h-209l6 28l288 427h41l-80 -419h74l-7 -36h-74zM67 231h161l41 215c10 51 22 93 32 141h-3c-36 -62 -54 -92 -95 -153l-136 -201v-2z" />
    <glyph glyph-name="five" unicode="5" horiz-adv-x="360" 
d="M369 650l-10 -38h-155l-64 -207c5 1 10 1 15 1c29 0 75 -14 102 -43s43 -71 43 -128c0 -129 -89 -243 -215 -243c-34 0 -65 8 -79 18l12 34c12 -6 41 -15 66 -15c107 0 173 97 173 202c0 109 -60 139 -127 139c-19 0 -31 -1 -40 -3l87 283h192z" />
    <glyph glyph-name="six" unicode="6" horiz-adv-x="360" 
d="M361 658v-38h-4c-96 -10 -212 -94 -265 -276h2c34 42 76 64 118 64c73 0 110 -66 110 -155c0 -98 -54 -261 -173 -261c-85 0 -122 80 -122 187c0 124 53 282 130 365c71 78 151 112 203 114h1zM149 29h1c96 0 129 142 129 224c0 83 -30 118 -81 118
c-34 0 -77 -26 -109 -77c-4 -7 -9 -17 -11 -25c-6 -27 -10 -52 -10 -94c0 -84 28 -146 81 -146z" />
    <glyph glyph-name="seven" unicode="7" horiz-adv-x="360" 
d="M110 650h288l-4 -22c-105 -209 -214 -419 -332 -628h-45c116 203 223 407 330 610l-2 2h-242z" />
    <glyph glyph-name="eight" unicode="8" horiz-adv-x="360" 
d="M245 658h1c77 0 105 -68 105 -118c0 -97 -59 -156 -119 -193v-3c37 -34 80 -85 80 -169c0 -94 -68 -183 -167 -183c-74 0 -126 57 -126 141c0 112 79 180 146 217v2c-48 46 -69 88 -69 138c0 82 60 168 149 168zM151 29h1c73 0 118 72 118 148c0 70 -33 112 -79 150
c-60 -28 -130 -101 -130 -187c0 -68 32 -111 90 -111zM240 621h-1c-58 0 -101 -55 -101 -129c0 -57 27 -90 66 -125c69 43 105 103 105 163c0 55 -21 91 -69 91z" />
    <glyph glyph-name="nine" unicode="9" horiz-adv-x="360" 
d="M40 -8l-4 37c6 2 17 5 31 9c35 11 72 33 102 60c49 44 93 114 121 209h-2c-29 -32 -66 -56 -109 -56c-75 0 -110 64 -110 151c0 108 70 256 182 256c80 0 110 -76 110 -160c0 -126 -52 -296 -129 -387c-46 -55 -106 -93 -155 -109c-15 -5 -27 -9 -37 -10zM244 621h-1
c-88 0 -132 -136 -132 -213c0 -96 36 -120 78 -120c38 0 80 26 105 71c4 7 8 14 12 26c7 25 12 57 12 105c0 74 -12 131 -74 131z" />
    <glyph glyph-name="colon" unicode=":" horiz-adv-x="170" 
d="M122 384h-1c-19 0 -31 15 -31 37c0 23 17 43 38 43c25 0 32 -19 32 -36c0 -21 -15 -44 -38 -44zM48 -8h-1c-19 0 -31 15 -31 37c0 23 17 43 38 43c25 0 32 -19 32 -36c0 -21 -15 -44 -38 -44z" />
    <glyph glyph-name="semicolon" unicode=";" horiz-adv-x="170" 
d="M-4 -121l-35 -5c21 42 59 150 74 212l60 10c-25 -75 -80 -189 -99 -217zM122 384h-1c-19 0 -31 15 -31 37c0 23 17 43 38 43c25 0 32 -19 32 -36c0 -21 -15 -44 -38 -44z" />
    <glyph glyph-name="less" unicode="&#x3c;" horiz-adv-x="596" 
d="M76 247v38l454 247v-45l-410 -220v-2l410 -220v-45z" />
    <glyph glyph-name="equal" unicode="=" horiz-adv-x="596" 
d="M564 346h-516v38h516v-38zM564 156h-516v38h516v-38z" />
    <glyph glyph-name="greater" unicode="&#x3e;" horiz-adv-x="596" 
d="M543 285v-38l-454 -247v45l410 220v2l-410 220v45z" />
    <glyph glyph-name="question" unicode="?" horiz-adv-x="294" 
d="M137 168h-39v12c1 60 19 132 79 212c32 42 99 95 99 187c0 46 -30 70 -71 70c-27 0 -55 -11 -69 -23l-12 31c19 13 51 29 93 29c68 0 102 -47 102 -113c0 -84 -69 -151 -113 -206c-46 -59 -64 -105 -68 -185c0 -4 0 -9 -1 -14zM86 -8h-1c-19 0 -31 15 -31 37
c0 23 17 43 38 43c25 0 32 -19 32 -36c0 -21 -15 -44 -38 -44z" />
    <glyph glyph-name="at" unicode="@" horiz-adv-x="560" 
d="M336 234l33 156c-8 3 -16 4 -29 4c-95 0 -159 -129 -159 -227c0 -51 20 -68 43 -68c48 0 98 71 112 135zM386 -36l11 -30c-40 -26 -89 -37 -141 -37c-134 0 -231 87 -231 281c0 235 141 417 312 417c119 0 191 -88 191 -229c0 -199 -67 -301 -151 -301
c-29 0 -55 22 -49 77h-2c-41 -68 -85 -77 -109 -77c-44 0 -78 31 -78 103c0 103 70 260 218 260c21 0 43 -4 57 -10l-44 -213c-15 -72 -7 -106 17 -106c52 0 102 108 102 245c0 143 -51 215 -157 215c-144 0 -267 -158 -267 -383c0 -158 70 -242 202 -242c51 0 84 13 119 30
z" />
    <glyph glyph-name="A" unicode="A" horiz-adv-x="413" 
d="M292 233h-167l-96 -233h-41l283 674h39l31 -674h-39zM140 269h151l-8 190c-2 52 -2 100 -3 152h-4c-19 -53 -37 -103 -58 -153z" />
    <glyph glyph-name="B" unicode="B" horiz-adv-x="370" 
d="M13 8l124 660c27 6 56 9 90 9c41 0 80 -12 105 -35c24 -23 38 -58 38 -101c0 -80 -53 -152 -139 -180v-2c76 -26 97 -91 97 -152c0 -72 -31 -125 -73 -161c-39 -35 -97 -49 -154 -49c-37 0 -71 4 -88 11zM171 636l-49 -257h35c91 0 170 64 170 161c0 63 -34 101 -111 101
c-18 0 -34 -1 -45 -5zM116 345l-58 -305c11 -4 29 -7 49 -7c116 0 180 78 180 176c0 78 -44 136 -139 136h-32z" />
    <glyph glyph-name="C" unicode="C" horiz-adv-x="340" 
d="M273 45l9 -34c-20 -11 -52 -17 -87 -17c-120 0 -161 108 -161 237c0 113 30 270 127 370c56 58 117 79 169 79c28 0 52 -5 61 -11l-13 -36c-14 6 -34 9 -51 9c-54 0 -102 -24 -139 -66c-70 -80 -112 -212 -112 -330c0 -126 28 -215 128 -215c28 0 54 7 69 14z" />
    <glyph glyph-name="D" unicode="D" horiz-adv-x="410" 
d="M11 5l125 663c30 6 58 9 84 9c65 0 114 -25 142 -64s41 -90 40 -158c0 -149 -53 -314 -129 -388c-55 -53 -120 -70 -176 -70c-37 0 -63 2 -86 8zM170 637l-113 -600c10 -2 26 -4 41 -4c56 0 107 19 158 74c58 62 104 213 104 348c0 127 -49 186 -146 186
c-22 0 -33 -2 -44 -4z" />
    <glyph glyph-name="E" unicode="E" horiz-adv-x="322" 
d="M297 372l-7 -36h-177l-56 -300h202l-7 -36h-241l127 674h229l-7 -36h-189l-51 -266h177z" />
    <glyph glyph-name="F" unicode="F" horiz-adv-x="309" 
d="M11 0l127 674h229l-7 -36h-189l-53 -278h177l-7 -36h-177l-61 -324h-39z" />
    <glyph glyph-name="G" unicode="G" horiz-adv-x="404" 
d="M372 336l-61 -322c-27 -13 -60 -20 -96 -20c-63 0 -108 28 -136 70c-29 43 -41 107 -41 171c0 115 34 271 134 369c57 56 123 76 179 76c32 0 51 -5 68 -12l-14 -36c-17 7 -36 10 -63 10c-51 0 -98 -18 -150 -70c-70 -70 -112 -217 -112 -329c0 -123 36 -212 142 -212
c22 0 42 4 55 10l48 259h-102l7 36h142z" />
    <glyph glyph-name="H" unicode="H" horiz-adv-x="421" 
d="M138 674h40l-58 -302h220l57 302h40l-128 -674h-39l63 336h-220l-63 -336h-39z" />
    <glyph glyph-name="I" unicode="I" horiz-adv-x="163" 
d="M138 674h40l-128 -674h-39z" />
    <glyph glyph-name="J" unicode="J" horiz-adv-x="239" 
d="M125 162l97 512h39l-99 -525c-25 -134 -79 -157 -141 -157c-21 0 -41 3 -56 10l9 35c11 -4 26 -8 44 -8c62 0 89 36 107 133z" />
    <glyph glyph-name="K" unicode="K" horiz-adv-x="352" 
d="M11 0l127 674h40l-64 -333h2c25 31 43 59 62 83l193 250h48l-227 -284l106 -390h-40l-97 355l-56 -65l-55 -290h-39z" />
    <glyph glyph-name="L" unicode="L" horiz-adv-x="305" 
d="M11 0l127 674h40l-121 -638h198l-7 -36h-237z" />
    <glyph glyph-name="M" unicode="M" horiz-adv-x="563" 
d="M464 0h-39l64 458c8 59 17 103 26 160h-5c-21 -59 -44 -118 -71 -177l-199 -441h-22l-32 453c-4 63 -5 108 -5 165h-3c-14 -59 -20 -101 -34 -161l-105 -457h-40l162 674h47l31 -433c4 -53 6 -89 5 -147h4c21 58 39 95 63 149l192 431h52z" />
    <glyph glyph-name="N" unicode="N" horiz-adv-x="423" 
d="M48 0h-37l127 674h41l80 -423c11 -56 23 -118 33 -183h2c10 71 17 128 28 186l80 420h37l-127 -674h-39l-81 412c-10 52 -23 123 -32 201h-2c-9 -71 -21 -140 -32 -198z" />
    <glyph glyph-name="O" unicode="O" horiz-adv-x="417" 
d="M165 -8h-1c-119 0 -129 137 -129 208c0 124 48 340 140 431c36 36 76 51 111 51c116 0 124 -132 124 -220c0 -115 -48 -332 -134 -418c-36 -36 -75 -52 -111 -52zM169 29h1c27 0 51 13 73 35c86 87 125 310 125 388c0 104 -5 193 -90 193c-27 0 -52 -13 -74 -35
c-83 -84 -127 -296 -127 -395c0 -70 2 -186 92 -186z" />
    <glyph glyph-name="P" unicode="P" horiz-adv-x="354" 
d="M11 0l125 668c27 6 59 9 88 9c40 0 87 -14 111 -43c24 -28 34 -63 34 -105c0 -62 -24 -124 -57 -166c-40 -48 -99 -73 -153 -73c-21 0 -39 2 -53 6l-56 -296h-39zM170 636l-58 -304c15 -4 28 -6 48 -6c111 0 167 110 167 197c0 70 -27 118 -114 118c-14 0 -30 -2 -43 -5z
" />
    <glyph glyph-name="Q" unicode="Q" horiz-adv-x="417" 
d="M326 -41l-24 -38c-43 18 -103 48 -125 62c-10 6 -15 9 -19 9c-109 4 -123 133 -123 208c0 125 46 336 137 428c37 38 78 54 114 54c118 0 124 -132 124 -220c0 -104 -44 -326 -136 -418c-18 -18 -36 -31 -58 -39v-2c36 -17 78 -33 110 -44zM169 29h1c27 0 51 13 73 35
c86 87 125 310 125 391c0 77 2 190 -90 190c-27 0 -52 -13 -74 -35c-85 -85 -127 -303 -127 -400c0 -71 6 -181 92 -181z" />
    <glyph glyph-name="R" unicode="R" horiz-adv-x="361" 
d="M11 0l125 668c29 6 59 9 89 9c50 0 85 -17 106 -40c23 -26 33 -60 33 -100c0 -92 -58 -181 -143 -208v-2c44 -16 66 -68 67 -164c1 -103 6 -144 10 -163h-40c-6 21 -6 82 -9 170c-4 102 -29 143 -102 143h-38l-59 -313h-39zM170 636l-55 -289h40c91 0 166 78 166 190
c0 62 -29 104 -105 104c-16 0 -33 -1 -46 -5z" />
    <glyph glyph-name="S" unicode="S" horiz-adv-x="322" 
d="M-6 22l15 36c19 -14 52 -26 88 -26c95 0 139 76 139 157c0 58 -26 104 -71 150c-47 48 -85 101 -85 168c0 93 68 173 172 173c34 0 67 -11 82 -22l-15 -34c-20 11 -42 18 -75 18c-75 0 -121 -59 -122 -131c0 -59 35 -104 74 -143c41 -41 82 -100 82 -172
c0 -111 -63 -202 -188 -202c-40 0 -82 15 -96 28z" />
    <glyph glyph-name="T" unicode="T" horiz-adv-x="323" 
d="M92 0l120 638h-124l7 36h287l-7 -36h-124l-120 -638h-39z" />
    <glyph glyph-name="U" unicode="U" horiz-adv-x="421" 
d="M138 674h40l-87 -460c-6 -29 -8 -54 -8 -82c0 -68 38 -103 88 -103c76 0 115 57 138 181l88 464h40l-88 -464c-31 -166 -91 -218 -184 -218c-64 0 -123 43 -123 133c0 24 2 52 8 84z" />
    <glyph glyph-name="V" unicode="V" horiz-adv-x="404" 
d="M164 0h-36l-26 674h40l17 -458c2 -63 6 -96 -1 -146h4c15 48 31 87 55 145l188 459h41z" />
    <glyph glyph-name="W" unicode="W" horiz-adv-x="634" 
d="M145 0h-34l-9 674h40l4 -458c0 -62 -4 -96 -7 -142h4c13 44 26 85 48 142l178 458h39l5 -458c1 -63 -3 -96 -4 -142h3c15 44 26 85 47 141l176 459h42l-264 -674h-36l-4 477c0 38 3 79 5 138h-2c-19 -59 -29 -100 -44 -138z" />
    <glyph glyph-name="X" unicode="X" horiz-adv-x="376" 
d="M302 0h-41l-39 185c-6 28 -12 59 -25 117h-3c-29 -50 -48 -85 -67 -118l-106 -184h-46l207 344l-77 330h42l39 -172c7 -30 13 -59 24 -114h2c25 50 38 72 63 115l100 171h47l-197 -324z" />
    <glyph glyph-name="Y" unicode="Y" horiz-adv-x="391" 
d="M161 0h-40l58 302l-77 372h42l43 -221c8 -41 15 -81 19 -109h2c20 36 38 70 62 112l127 218h46l-225 -370z" />
    <glyph glyph-name="Z" unicode="Z" horiz-adv-x="335" 
d="M-25 0l5 27l350 609v2h-216l6 36h268l-5 -25l-352 -611v-2h236l-7 -36h-285z" />
    <glyph glyph-name="bracketleft" unicode="[" horiz-adv-x="250" 
d="M144 -112h-126l152 798h126l-7 -34h-85l-139 -730h85z" />
    <glyph glyph-name="backslash" unicode="\" horiz-adv-x="281" 
d="M280 -40h-41l-202 722h41z" />
    <glyph glyph-name="bracketright" unicode="]" horiz-adv-x="250" 
d="M116 686h127l-152 -798h-127l6 34h87l139 730h-87z" />
    <glyph glyph-name="asciicircum" unicode="^" horiz-adv-x="596" 
d="M533 196h-43l-178 404h-2l-178 -404h-43l203 454h38z" />
    <glyph glyph-name="underscore" unicode="_" horiz-adv-x="500" 
d="M-64 -75h500l-10 -50h-500z" />
    <glyph glyph-name="quoteleft" unicode="&#x2018;" horiz-adv-x="151" 
d="M119 471l-58 -10c28 75 87 189 106 217l33 5c-22 -42 -63 -150 -81 -212z" />
    <glyph glyph-name="a" unicode="a" horiz-adv-x="352" 
d="M259 0h-39c1 28 5 55 9 98h-2c-53 -92 -93 -106 -127 -106c-47 0 -81 41 -81 130c0 146 81 366 254 366c24 0 50 -5 64 -13l-57 -279c-14 -71 -22 -141 -21 -196zM252 250l39 197c-9 3 -19 4 -32 4c-124 0 -195 -186 -198 -313c-2 -72 13 -109 49 -109
c58 0 122 120 142 221z" />
    <glyph glyph-name="b" unicode="b" horiz-adv-x="354" 
d="M139 692h40l-52 -273h2c39 54 72 69 107 69c68 0 91 -69 91 -135c0 -121 -66 -361 -227 -361c-54 0 -78 38 -78 76c0 16 2 34 4 46zM104 295l-35 -168c-2 -13 -4 -27 -4 -48c0 -29 12 -50 46 -50c116 0 174 222 174 319c0 64 -18 103 -61 103c-47 0 -101 -60 -120 -156z
" />
    <glyph glyph-name="c" unicode="c" horiz-adv-x="275" 
d="M209 44l7 -36c-20 -9 -45 -14 -74 -14c-90 0 -119 75 -119 171c0 120 67 323 228 323c15 0 31 -3 39 -8l-12 -36c-7 3 -18 7 -35 7c-118 0 -178 -172 -178 -284c0 -80 20 -136 86 -136c17 0 37 4 58 13z" />
    <glyph glyph-name="d" unicode="d" horiz-adv-x="354" 
d="M337 692h39l-97 -517c-10 -53 -21 -132 -21 -175h-37l6 78h-2c-21 -49 -65 -86 -115 -86c-56 0 -90 55 -90 140c0 161 83 356 219 356c21 0 43 -9 55 -21zM244 199l38 224c-10 17 -28 28 -53 28c-106 0 -167 -200 -167 -310c0 -65 15 -112 61 -112c39 0 99 48 121 170z
" />
    <glyph glyph-name="e" unicode="e" horiz-adv-x="310" 
d="M224 58l12 -32c-30 -20 -64 -32 -97 -32c-90 0 -116 77 -116 163c0 125 70 331 197 331c59 0 81 -46 81 -95c0 -107 -101 -157 -231 -160c-3 -14 -9 -86 -2 -123c10 -53 37 -79 78 -79c35 0 60 15 78 27zM260 392v1c0 37 -17 58 -48 58c-46 0 -99 -56 -134 -182
c84 2 182 28 182 123z" />
    <glyph glyph-name="f" unicode="f" horiz-adv-x="193" 
d="M57 0h-38l85 444h-57l6 36h58l7 36c9 51 29 109 63 145c23 23 53 39 89 39c17 0 33 -4 38 -8l-10 -34c-9 3 -19 5 -35 5c-62 0 -97 -80 -109 -158l-4 -25h91l-7 -36h-91z" />
    <glyph glyph-name="g" unicode="g" horiz-adv-x="352" 
d="M-10 -176l14 35c20 -12 50 -22 78 -22c74 0 102 56 124 158l19 87h-2c-45 -77 -86 -90 -118 -90c-49 0 -86 41 -86 140c0 136 67 356 236 356c27 0 60 -10 80 -20l-79 -420c-21 -111 -42 -172 -71 -202c-29 -31 -64 -46 -106 -46c-37 0 -68 10 -89 24zM244 212l45 229
c-12 7 -26 10 -51 10c-115 0 -174 -189 -177 -301c-2 -69 9 -121 55 -121c61 0 113 106 128 183z" />
    <glyph glyph-name="h" unicode="h" horiz-adv-x="363" 
d="M47 0h-39l130 692h40l-53 -284h2c37 57 75 80 119 80c56 0 78 -45 78 -91c0 -26 -2 -42 -8 -72l-61 -325h-39l62 330c4 22 6 37 6 66c0 34 -15 55 -49 55c-60 0 -120 -90 -136 -175z" />
    <glyph glyph-name="i" unicode="i" horiz-adv-x="156" 
d="M47 0h-39l92 480h39zM137 567h-1c-16 0 -26 13 -24 35c3 21 19 36 35 36c20 0 30 -15 27 -36c-3 -22 -18 -35 -37 -35z" />
    <glyph glyph-name="j" unicode="j" horiz-adv-x="164" 
d="M109 480h39l-94 -498c-15 -80 -27 -116 -44 -139c-16 -22 -44 -43 -84 -43c-14 0 -27 1 -34 4l4 36c7 -1 19 -3 32 -3c31 0 62 13 82 117zM146 567h-1c-16 0 -26 13 -24 35c3 21 19 36 35 36c20 0 30 -15 27 -36c-3 -22 -18 -35 -37 -35z" />
    <glyph glyph-name="k" unicode="k" horiz-adv-x="310" 
d="M47 0h-38l130 692h39l-80 -424h2c10 12 25 30 31 38l145 174h51l-170 -195l106 -285h-41l-94 256l-41 -48z" />
    <glyph glyph-name="l" unicode="l" horiz-adv-x="155" 
d="M47 0h-39l130 692h40z" />
    <glyph glyph-name="m" unicode="m" horiz-adv-x="555" 
d="M47 0h-39l58 311c15 78 21 135 25 169h36l-10 -84h2c41 67 83 92 122 92c53 0 75 -45 76 -91c40 66 85 91 124 91c53 0 75 -45 75 -91c0 -25 -4 -50 -10 -81l-59 -316h-39l60 320c5 25 8 47 8 76c0 34 -14 55 -46 55c-54 0 -113 -81 -131 -175l-52 -276h-39l60 320
c5 25 8 47 8 76c0 34 -14 55 -46 55c-50 0 -114 -85 -131 -175z" />
    <glyph glyph-name="n" unicode="n" horiz-adv-x="363" 
d="M47 0h-39l58 311c15 78 21 135 25 169h36l-10 -84h2c42 67 83 92 129 92c54 0 76 -45 76 -91c0 -28 -3 -46 -8 -71l-61 -326h-39l60 320c5 25 8 47 8 76c0 34 -14 55 -49 55c-56 0 -119 -85 -136 -175z" />
    <glyph glyph-name="o" unicode="o" horiz-adv-x="340" 
d="M119 -8h-1c-68 0 -97 67 -97 161c0 109 56 335 198 335c81 0 94 -86 94 -149c0 -103 -47 -347 -194 -347zM126 29h1c105 0 144 230 144 308c0 61 -9 114 -59 114c-96 0 -149 -189 -149 -290c0 -67 5 -132 63 -132z" />
    <glyph glyph-name="p" unicode="p" horiz-adv-x="353" 
d="M11 -192h-39l93 495c14 77 22 141 28 177h37l-12 -83h2c33 54 77 91 126 91c60 0 80 -58 80 -129c0 -142 -73 -367 -218 -367c-19 0 -44 7 -57 18h-2zM93 246l-36 -195c15 -13 33 -22 54 -22c133 0 175 256 175 327c0 55 -13 95 -53 95c-58 0 -120 -95 -140 -205z" />
    <glyph glyph-name="q" unicode="q" horiz-adv-x="354" 
d="M210 -192h-39l56 275h-2c-39 -76 -83 -91 -118 -91c-49 0 -88 41 -88 140c0 132 74 356 238 356c35 0 61 -10 81 -20zM246 212l46 230c-11 6 -28 9 -45 9c-101 0 -181 -155 -184 -305c-2 -65 9 -117 57 -117c59 0 111 106 126 183z" />
    <glyph glyph-name="r" unicode="r" horiz-adv-x="223" 
d="M47 0h-39l60 321c13 70 18 129 19 159h36c-1 -25 -2 -51 -8 -96h2c27 58 68 104 121 104h9l-8 -45h-3c-70 0 -125 -106 -138 -172z" />
    <glyph glyph-name="s" unicode="s" horiz-adv-x="260" 
d="M-16 21l16 34c13 -9 37 -24 73 -24c57 0 92 43 92 98c0 53 -26 84 -50 107c-28 27 -64 69 -64 117c0 77 53 135 132 135c26 0 52 -8 65 -18l-15 -34c-15 9 -35 15 -55 15c-56 0 -86 -40 -86 -88c0 -45 26 -71 49 -94c28 -28 65 -71 65 -126c0 -102 -63 -149 -139 -149
c-34 0 -72 16 -83 27z" />
    <glyph glyph-name="t" unicode="t" horiz-adv-x="213" 
d="M126 560l46 25l-22 -105h91l-7 -35h-91l-57 -307c-6 -31 -9 -58 -9 -73c0 -20 6 -34 31 -34c14 1 20 0 26 2v-33c-13 -4 -26 -6 -37 -6c-37 0 -62 22 -62 59c0 17 1 34 10 81l59 311h-59l6 35h60z" />
    <glyph glyph-name="u" unicode="u" horiz-adv-x="363" 
d="M306 480h39l-58 -311c-15 -78 -19 -135 -21 -169h-38l8 82h-2c-38 -65 -84 -90 -130 -90c-53 0 -75 45 -75 91c0 24 2 42 6 61l63 336h39l-60 -320c-5 -25 -8 -47 -8 -74c0 -33 14 -57 48 -57c58 0 119 80 137 175z" />
    <glyph glyph-name="v" unicode="v" horiz-adv-x="310" 
d="M56 480h39l16 -304c2 -43 5 -76 2 -106h4c10 28 26 67 43 107l129 303h41l-211 -480h-35z" />
    <glyph glyph-name="w" unicode="w" horiz-adv-x="525" 
d="M58 480h39l12 -304c2 -43 4 -76 2 -106h3c10 28 24 67 41 105l132 305h33l15 -304c2 -43 4 -76 0 -106h4c11 28 24 67 40 106l126 304h41l-206 -480h-32l-16 313c-2 35 -2 69 0 102h-2c-13 -35 -23 -70 -37 -102l-137 -313h-35z" />
    <glyph glyph-name="x" unicode="x" 
d="M58 480h42l32 -113c8 -28 15 -58 24 -85h2c22 36 38 61 54 85l72 113h47l-162 -237l69 -243h-42l-31 121c-6 23 -13 50 -23 89h-2c-19 -33 -37 -61 -55 -90l-75 -120h-47l166 245z" />
    <glyph glyph-name="y" unicode="y" horiz-adv-x="312" 
d="M52 480h40l23 -292c3 -43 4 -68 8 -123h2c14 43 31 83 46 121l117 294h42l-163 -397c-43 -105 -90 -193 -157 -248c-29 -23 -54 -38 -70 -43l-16 36c21 9 49 25 77 50c31 26 68 80 85 122c5 12 5 19 4 30z" />
    <glyph glyph-name="z" unicode="z" horiz-adv-x="282" 
d="M-34 0l2 26l219 324c32 47 48 69 62 91l1 3h-183l7 36h231l-3 -27l-222 -326c-29 -43 -44 -65 -60 -89v-2h200l-7 -36h-247z" />
    <glyph glyph-name="braceleft" unicode="{" horiz-adv-x="250" 
d="M42 271l6 32c56 0 78 43 85 80c12 61 12 121 23 185c15 89 58 118 119 118h21l-7 -34h-16c-45 0 -66 -27 -75 -76c-12 -63 -11 -117 -20 -172c-14 -86 -46 -106 -86 -116v-2c36 -10 49 -31 49 -70c0 -25 -13 -71 -27 -118c-14 -46 -27 -92 -27 -118c0 -30 7 -52 49 -58
h14l-6 -34h-6c-47 0 -92 27 -92 88c0 33 13 80 27 125c14 46 27 90 27 115c0 16 -2 55 -58 55z" />
    <glyph glyph-name="bar" unicode="|" horiz-adv-x="165" 
d="M76 750h40v-1000h-40v1000z" />
    <glyph glyph-name="braceright" unicode="}" horiz-adv-x="250" 
d="M218 303l-6 -32c-56 0 -78 -43 -85 -80c-12 -61 -12 -121 -23 -185c-15 -89 -58 -118 -119 -118h-21l7 34h16c45 0 66 27 75 76c12 63 11 117 20 172c14 86 46 106 86 116v2c-36 10 -49 31 -49 70c0 25 13 70 27 117c14 46 27 93 27 119c0 30 -7 52 -49 58h-14l6 34h6
c47 0 92 -27 92 -88c0 -34 -13 -81 -27 -126s-27 -88 -27 -114c0 -16 2 -55 58 -55z" />
    <glyph glyph-name="asciitilde" unicode="~" horiz-adv-x="596" 
d="M126 233h-35c-5 63 28 113 95 113c30 0 76 -15 126 -38c53 -24 94 -39 124 -39c40 0 53 40 51 75h35c5 -77 -34 -113 -91 -113c-33 0 -85 17 -135 40c-35 16 -80 37 -118 37c-34 0 -53 -29 -52 -75z" />
    <glyph glyph-name="exclamdown" unicode="&#xa1;" horiz-adv-x="184" 
d="M30 -188h-48l104 506h34zM133 498h1c19 0 31 -15 31 -37c0 -23 -17 -43 -38 -43c-25 0 -32 19 -32 36c0 21 15 44 38 44z" />
    <glyph glyph-name="cent" unicode="&#xa2;" horiz-adv-x="360" 
d="M176 -5h-37l18 97c-31 9 -56 33 -67 59c-11 24 -17 62 -17 95c0 120 63 289 176 312l17 90h37l-17 -87c17 0 43 -7 53 -18l-16 -31c-13 10 -35 14 -52 14c-96 0 -156 -162 -156 -282c0 -70 22 -120 78 -120c25 0 47 8 63 18l10 -29c-22 -15 -49 -22 -72 -23z" />
    <glyph glyph-name="sterling" unicode="&#xa3;" horiz-adv-x="360" 
d="M299 0h-300l6 25c35 20 113 95 130 191c8 44 10 74 12 104h-84l7 35h79c0 26 1 78 10 137c18 112 75 166 154 166c26 0 50 -10 63 -19l-16 -32c-12 7 -32 14 -52 14c-68 0 -98 -54 -109 -133c-8 -53 -8 -89 -8 -133h105l-7 -35h-99c-2 -25 -4 -50 -11 -90
c-9 -54 -36 -129 -111 -192l-1 -2h239z" />
    <glyph glyph-name="fraction" unicode="&#x2044;" horiz-adv-x="360" 
d="M-11 -8h-39l441 666h39z" />
    <glyph glyph-name="fraction" unicode="&#x2215;" horiz-adv-x="360" 
d="M-11 -8h-39l441 666h39z" />
    <glyph glyph-name="yen" unicode="&#xa5;" horiz-adv-x="360" 
d="M145 0h-39l38 201h-122l6 32h122l16 85h-122l7 32h109l-64 300h41l39 -198c7 -36 13 -69 17 -97h2c15 30 33 60 57 100l117 195h45l-189 -300h112l-7 -32h-125l-16 -85h125l-6 -32h-125z" />
    <glyph glyph-name="florin" unicode="&#x192;" horiz-adv-x="360" 
d="M96 373l4 35h87l3 12c35 141 59 238 164 238c16 0 35 -4 51 -16l-13 -32c-13 8 -28 11 -50 11c-55 0 -76 -54 -112 -201l-3 -12h92l-4 -35h-96l-63 -257c-31 -125 -61 -196 -145 -196c-24 0 -49 10 -60 19l12 32c14 -9 32 -14 50 -14c54 0 78 43 117 209l49 207h-83z" />
    <glyph glyph-name="section" unicode="&#xa7;" horiz-adv-x="382" 
d="M87 351v-1c0 -49 34 -72 70 -94c23 -14 60 -35 91 -62c47 19 72 60 72 105c0 43 -29 76 -80 104c-26 14 -49 30 -77 50c-46 -23 -76 -60 -76 -102zM383 648l-21 -33c-18 15 -51 30 -95 30c-71 0 -109 -43 -109 -92s34 -77 89 -106c61 -33 115 -74 115 -147
c0 -57 -37 -103 -91 -131c13 -20 24 -47 24 -77c0 -87 -66 -142 -160 -142c-54 0 -108 24 -131 45l19 36c18 -17 65 -44 122 -44c70 0 108 43 108 98c0 56 -36 87 -92 121c-47 28 -116 66 -116 134c0 59 33 100 95 136c-17 23 -24 43 -24 66c0 77 61 140 159 140
c42 0 90 -15 108 -34z" />
    <glyph glyph-name="currency" unicode="&#xa4;" horiz-adv-x="360" 
d="M194 524h1c30 0 69 -17 91 -44l60 71l30 -31l-69 -71c18 -35 25 -80 25 -119s-7 -84 -25 -119l69 -71l-30 -31l-60 71c-22 -27 -61 -44 -92 -44s-71 17 -91 44l-60 -71l-31 31l70 71c-18 35 -26 80 -26 119s8 84 26 119l-70 71l31 31l60 -71c20 27 60 44 91 44zM195 487
h-1c-56 0 -97 -55 -97 -157c0 -101 42 -157 97 -157c57 -2 97 61 97 157c0 98 -39 157 -96 157z" />
    <glyph glyph-name="quotesingle" unicode="'" horiz-adv-x="106" 
d="M108 683h50l-50 -217h-32z" />
    <glyph glyph-name="quotedblleft" unicode="&#x201c;" horiz-adv-x="272" 
d="M119 471l-58 -10c28 75 87 189 106 217l33 5c-22 -42 -63 -150 -81 -212zM240 471l-58 -10c28 75 87 189 106 217l33 5c-22 -42 -63 -150 -81 -212z" />
    <glyph glyph-name="guillemotleft" unicode="&#xab;" horiz-adv-x="336" 
d="M195 420l-124 -168l78 -168h-40l-81 168l125 168h42zM327 420l-124 -168l78 -168h-40l-81 168l125 168h42z" />
    <glyph glyph-name="guilsinglleft" unicode="&#x2039;" horiz-adv-x="204" 
d="M195 420l-124 -168l78 -168h-40l-81 168l125 168h42z" />
    <glyph glyph-name="guilsinglright" unicode="&#x203a;" horiz-adv-x="204" 
d="M129 252l-78 168h39l82 -168l-123 -168h-44z" />
    <glyph glyph-name="endash" unicode="&#x2013;" horiz-adv-x="500" 
d="M32 277h441l-6 -34h-441z" />
    <glyph glyph-name="dagger" unicode="&#x2020;" horiz-adv-x="353" 
d="M233 674h45l-45 -204l131 6l-9 -44l-128 7l-88 -489h-45l100 489l-132 -7l9 44l129 -6z" />
    <glyph glyph-name="daggerdbl" unicode="&#x2021;" horiz-adv-x="353" 
d="M233 674h45l-43 -204l129 6l-9 -44l-126 7l-46 -242l129 7l-8 -44l-127 6l-38 -216h-45l46 216l-129 -6l8 44l127 -7l46 242l-130 -7l9 44l127 -6z" />
    <glyph glyph-name="periodcentered" unicode="&#xb7;" horiz-adv-x="170" 
d="M76 217h-1c-19 0 -31 15 -31 37c0 23 17 43 38 43c25 0 32 -19 32 -36c0 -21 -15 -44 -38 -44z" />
    <glyph glyph-name="periodcentered" unicode="&#x2219;" horiz-adv-x="170" 
d="M76 217h-1c-19 0 -31 15 -31 37c0 23 17 43 38 43c25 0 32 -19 32 -36c0 -21 -15 -44 -38 -44z" />
    <glyph glyph-name="paragraph" unicode="&#xb6;" horiz-adv-x="382" 
d="M167 -50h-36l63 330c-2 1 -4 1 -6 1c-34 5 -118 47 -118 162c0 132 98 231 254 231c31 0 58 -3 77 -7l-138 -717h-36l132 688h-60z" />
    <glyph glyph-name="bullet" unicode="&#x2022;" horiz-adv-x="239" 
d="M122 184h-1c-48 0 -88 39 -88 89c-1 49 40 89 89 89c50 0 90 -40 90 -89s-40 -89 -90 -89z" />
    <glyph glyph-name="quotesinglbase" unicode="&#x201a;" horiz-adv-x="151" 
d="M-19 -121l-35 -5c22 42 64 150 81 212l60 10c-28 -75 -87 -189 -106 -217z" />
    <glyph glyph-name="quotedblbase" unicode="&#x201e;" horiz-adv-x="272" 
d="M-19 -121l-35 -5c22 42 64 150 81 212l60 10c-28 -75 -87 -189 -106 -217zM102 -121l-35 -5c22 42 64 150 81 212l60 10c-28 -75 -87 -189 -106 -217z" />
    <glyph glyph-name="quotedblright" unicode="&#x201d;" horiz-adv-x="272" 
d="M152 673l58 10c-28 -75 -87 -189 -106 -217l-33 -5c22 42 64 150 81 212zM273 673l58 10c-28 -75 -87 -189 -106 -217l-33 -5c22 42 64 150 81 212z" />
    <glyph glyph-name="guillemotright" unicode="&#xbb;" horiz-adv-x="336" 
d="M129 252l-78 168h39l82 -168l-123 -168h-44zM261 252l-78 168h39l82 -168l-123 -168h-44z" />
    <glyph glyph-name="ellipsis" unicode="&#x2026;" horiz-adv-x="1000" 
d="M114 -8h-1c-19 0 -31 15 -31 37c0 23 17 43 38 43c25 0 32 -19 32 -36c0 -21 -15 -44 -38 -44zM448 -8h-1c-19 0 -31 15 -31 37c0 23 17 43 38 43c25 0 32 -19 32 -36c0 -21 -15 -44 -38 -44zM782 -8h-1c-19 0 -31 15 -31 37c0 23 17 43 38 43c25 0 32 -19 32 -36
c0 -21 -15 -44 -38 -44z" />
    <glyph glyph-name="perthousand" unicode="&#x2030;" horiz-adv-x="918" 
d="M225 658h1c66 0 89 -65 89 -131c0 -95 -46 -260 -156 -260c-67 0 -91 66 -91 127c0 102 44 264 157 264zM217 624h-1c-80 0 -108 -157 -108 -218c0 -59 13 -105 57 -105c79 0 110 156 110 219c0 46 -11 104 -58 104zM126 -16h-41l451 681h41zM508 385h1
c66 0 89 -65 89 -131c0 -95 -46 -260 -156 -260c-67 0 -91 66 -91 127c0 102 44 264 157 264zM500 351h-1c-80 0 -108 -157 -108 -218c0 -59 13 -105 57 -105c79 0 110 156 110 219c0 46 -11 104 -58 104zM793 385h1c66 0 89 -65 89 -131c0 -95 -46 -260 -156 -260
c-67 0 -91 66 -91 127c0 102 44 264 157 264zM785 351h-1c-80 0 -108 -157 -108 -218c0 -59 13 -105 57 -105c79 0 110 156 110 219c0 46 -11 104 -58 104z" />
    <glyph glyph-name="questiondown" unicode="&#xbf;" horiz-adv-x="294" 
d="M153 318h39v-12c-1 -60 -19 -132 -79 -212c-32 -42 -99 -95 -99 -185c0 -46 32 -72 74 -72c26 0 54 11 68 21l13 -33c-20 -11 -52 -25 -93 -25c-69 0 -105 49 -105 115c0 82 69 149 113 204c46 59 64 105 68 185zM204 498h1c19 0 31 -15 31 -37c0 -23 -17 -43 -38 -43
c-25 0 -32 19 -32 36c0 21 15 44 38 44z" />
    <glyph glyph-name="grave" unicode="`" 
d="M101 667h57l82 -132h-32z" />
    <glyph glyph-name="acute" unicode="&#xb4;" 
d="M252 667h57l-107 -132h-32z" />
    <glyph glyph-name="circumflex" unicode="&#x2c6;" 
d="M211 667h28l55 -132h-37l-36 91h-2l-65 -91h-38z" />
    <glyph glyph-name="tilde" unicode="&#x2dc;" 
d="M147 564h-32c-1 42 20 76 56 76c18 0 31 -9 44 -17c15 -9 27 -18 41 -18c16 0 25 9 27 36h31c0 -36 -15 -71 -59 -71c-17 0 -33 9 -46 18c-13 8 -25 17 -37 17c-16 0 -22 -14 -25 -41z" />
    <glyph glyph-name="macron" unicode="&#xaf;" 
d="M125 619h187l-6 -36h-187z" />
    <glyph glyph-name="macron" unicode="&#x2c9;" 
d="M125 619h187l-6 -36h-187z" />
    <glyph glyph-name="breve" unicode="&#x2d8;" 
d="M129 659h30c-4 -38 17 -66 55 -66c42 0 72 26 81 66h30c-7 -61 -52 -104 -114 -104c-67 0 -93 47 -82 104z" />
    <glyph glyph-name="dotaccent" unicode="&#x2d9;" 
d="M213 565h-1c-18 0 -29 13 -29 33s16 38 36 38c23 0 30 -17 30 -32c0 -19 -14 -39 -36 -39z" />
    <glyph glyph-name="dieresis" unicode="&#xa8;" 
d="M140 565h-1c-18 0 -29 13 -29 33s16 38 36 38c23 0 30 -17 30 -32c0 -19 -14 -39 -36 -39zM278 565h-1c-18 0 -29 13 -29 33s16 38 36 38c23 0 30 -17 30 -32c0 -19 -14 -39 -36 -39z" />
    <glyph glyph-name="ring" unicode="&#x2da;" horiz-adv-x="307" 
d="M225 698h1c51 0 83 -29 83 -80c0 -60 -54 -89 -94 -89c-47 0 -82 31 -82 76c0 55 45 93 92 93zM225 668h-1c-27 0 -55 -22 -55 -59c0 -32 19 -50 50 -50c27 0 54 22 54 58c0 29 -17 51 -48 51z" />
    <glyph glyph-name="cedilla" unicode="&#xb8;" 
d="M101 5h35l-41 -61c29 -10 53 -33 53 -69c0 -43 -37 -73 -82 -73c-28 0 -51 8 -63 19l13 31c17 -10 33 -15 50 -15c26 0 45 13 46 37c-1 28 -34 43 -65 48z" />
    <glyph glyph-name="hungarumlaut" unicode="&#x2dd;" 
d="M162 667h57l-107 -132h-32zM277 667h57l-107 -132h-32z" />
    <glyph glyph-name="ogonek" unicode="&#x2db;" 
d="M110 2h36c-33 -33 -72 -83 -72 -124c0 -25 16 -40 39 -40c18 0 28 4 41 11l8 -27c-16 -13 -43 -20 -65 -20c-37 0 -64 23 -64 66c0 53 45 102 77 134z" />
    <glyph glyph-name="caron" unicode="&#x2c7;" 
d="M220 535h-28l-55 132h37l36 -91h2l65 91h38z" />
    <glyph glyph-name="emdash" unicode="&#x2014;" horiz-adv-x="1000" 
d="M32 277h941l-6 -34h-941z" />
    <glyph glyph-name="AE" unicode="&#xc6;" horiz-adv-x="522" 
d="M9 0h-42l329 674h257l-8 -36h-187l-37 -266h175l-7 -36h-172l-39 -300h186l-8 -36h-221l30 246h-138zM145 282h125l32 229c6 46 14 93 21 132h-5c-20 -39 -43 -86 -66 -135z" />
    <glyph glyph-name="ordfeminine" unicode="&#xaa;" horiz-adv-x="285" 
d="M246 263h-34c-1 13 2 27 4 59h-1c-31 -55 -60 -64 -86 -64c-35 0 -67 29 -67 101c0 97 55 229 174 229c15 0 41 -4 58 -14l-41 -225c-6 -35 -7 -60 -7 -86zM234 427l21 123c-7 4 -16 6 -35 6c-67 0 -117 -96 -119 -193c-2 -50 14 -73 39 -73c36 0 82 70 94 137z" />
    <glyph glyph-name="Lslash" unicode="&#x141;" horiz-adv-x="317" 
d="M260 0h-237l50 269l-86 -76l8 45l87 77l68 359h39l-59 -315l135 120l-9 -47l-135 -119l-52 -277h198z" />
    <glyph glyph-name="Oslash" unicode="&#xd8;" horiz-adv-x="417" 
d="M16 -28l-25 19l59 96c-13 39 -15 81 -15 121c0 131 45 314 111 397c43 54 89 77 136 77c48 0 79 -24 98 -59l48 79l28 -18l-61 -99c11 -38 13 -85 13 -123c0 -104 -41 -306 -108 -393c-42 -53 -86 -77 -136 -77c-47 0 -81 25 -99 60zM81 137l273 443
c-13 37 -36 65 -83 65c-84 0 -140 -126 -169 -248c-21 -90 -29 -157 -23 -260h2zM361 532l-270 -439c11 -34 36 -64 81 -64c85 0 138 121 167 237c21 84 33 166 25 266h-3z" />
    <glyph glyph-name="OE" unicode="&#x152;" horiz-adv-x="572" 
d="M509 36l-6 -36h-207c-19 0 -33 -3 -54 -6c-11 -1 -22 -2 -36 -2c-122 0 -169 102 -169 245c0 163 75 445 293 445c16 0 30 -1 45 -3c21 -3 34 -5 52 -5h190l-7 -36h-189l-51 -266h177l-7 -36h-177l-56 -300h202zM268 39l113 597c-15 5 -32 9 -63 9
c-160 0 -239 -250 -239 -398c0 -129 30 -218 139 -218c19 0 36 4 50 10z" />
    <glyph glyph-name="ordmasculine" unicode="&#xba;" horiz-adv-x="296" 
d="M204 588h1c59 0 90 -53 90 -116c0 -78 -32 -214 -141 -214c-58 0 -90 51 -90 119c0 86 41 211 140 211zM196 556h-1c-53 0 -89 -86 -91 -176c0 -55 16 -90 56 -90c68 0 95 102 95 176c0 55 -17 90 -59 90z" />
    <glyph glyph-name="ae" unicode="&#xe6;" horiz-adv-x="497" 
d="M410 59l12 -28c-35 -31 -70 -39 -104 -39c-57 0 -91 34 -106 90h-2c-24 -50 -59 -90 -114 -90c-66 0 -94 58 -94 106c0 134 103 199 226 196l7 34c14 67 -2 123 -71 123c-26 0 -47 -5 -69 -17l-9 29c22 17 61 25 90 25c46 0 95 -23 95 -93h2c31 60 74 93 130 93
c67 0 85 -53 85 -87c0 -119 -108 -144 -232 -143c-11 -54 -16 -114 -8 -156c10 -53 45 -73 83 -73c30 0 56 13 79 30zM207 181l14 77c-98 2 -177 -41 -177 -156c0 -42 22 -73 59 -73c33 0 82 32 104 152zM447 396v1c0 21 -10 54 -53 54c-62 0 -105 -75 -125 -157
c118 0 178 27 178 102z" />
    <glyph glyph-name="dotlessi" unicode="&#x131;" horiz-adv-x="156" 
d="M47 0h-39l92 480h39z" />
    <glyph glyph-name="lslash" unicode="&#x142;" horiz-adv-x="178" 
d="M61 0h-39l58 309l-79 -74l8 44l80 75l63 338h39l-54 -291l84 79l-9 -46l-84 -78z" />
    <glyph glyph-name="oslash" unicode="&#xf8;" horiz-adv-x="344" 
d="M17 -28l-26 20l43 68c-10 25 -14 57 -14 93c0 109 54 335 198 335c31 0 51 -12 66 -30l30 47l28 -17l-39 -62c10 -27 13 -59 13 -87c0 -103 -45 -347 -191 -347c-30 0 -55 12 -73 35zM67 109l194 312c-10 19 -26 30 -50 30c-105 0 -149 -193 -149 -290c0 -20 1 -36 3 -52
h2zM275 380l-198 -313c8 -23 24 -38 53 -38c113 0 146 230 146 308c0 14 -1 28 0 43h-1z" />
    <glyph glyph-name="oe" unicode="&#x153;" horiz-adv-x="542" 
d="M456 56l12 -32c-30 -20 -64 -32 -101 -32c-68 0 -95 48 -104 116h-1c-23 -64 -70 -116 -136 -116c-73 0 -105 67 -105 160c0 110 48 336 197 336c62 0 90 -63 90 -120h1c30 70 80 120 146 120c54 0 78 -45 78 -90c0 -112 -101 -156 -231 -165c-4 -27 -8 -86 -2 -123
c7 -46 31 -81 78 -81c35 0 60 15 78 27zM130 29h1c112 0 145 230 145 308c0 64 -17 114 -67 114c-94 0 -146 -185 -146 -288c0 -69 9 -134 67 -134zM492 393v1c0 33 -18 57 -46 57c-49 0 -102 -60 -137 -182c85 7 183 30 183 124z" />
    <glyph glyph-name="germandbls" unicode="&#xdf;" horiz-adv-x="383" 
d="M47 0h-39l89 465c24 125 70 235 187 235c79 0 108 -59 108 -114c0 -41 -14 -87 -45 -117c-44 -20 -82 -55 -82 -103c0 -36 12 -65 25 -87c24 -42 41 -83 41 -132c0 -82 -62 -155 -157 -155c-40 0 -65 10 -80 18l12 35c14 -8 47 -16 73 -16c65 0 110 51 110 115
c0 43 -17 79 -33 108c-20 35 -33 70 -33 103c0 64 39 109 99 141c18 17 27 48 28 94c-2 41 -23 73 -73 73c-62 0 -114 -50 -142 -199z" />
    <glyph glyph-name="onesuperior" unicode="&#xb9;" horiz-adv-x="179" 
d="M151 403h-37l67 349h-2l-83 -42l-1 34l101 49h30z" />
    <glyph glyph-name="logicalnot" unicode="&#xac;" horiz-adv-x="596" 
d="M43 384h516v-254h-40v216h-476v38z" />
    <glyph glyph-name="mu" unicode="&#xb5;" horiz-adv-x="359" 
d="M133 480l-61 -325c-13 -67 -8 -124 52 -124c63 0 106 102 117 138c5 15 8 27 11 42l48 269h39l-65 -359c-12 -67 -10 -93 9 -92l-12 -37h-11c-17 0 -38 13 -29 89h-2c-23 -47 -65 -86 -114 -86c-27 0 -54 14 -65 43l-17 -89c-10 -54 -19 -107 -16 -141h-36
c-4 18 -1 63 9 117l104 555h39z" />
    <glyph glyph-name="trademark" unicode="&#x2122;" horiz-adv-x="520" 
d="M100 674h171v-29h-70v-243h-31v243h-70v29zM540 402h-33l-10 185c-1 16 -2 36 -3 58h-1c-5 -16 -11 -44 -17 -65l-46 -174h-37l-47 179c-4 17 -11 43 -16 60h-1c0 -18 -1 -37 -2 -58l-10 -185h-31l17 272h48l46 -168c6 -20 10 -39 15 -57h1c5 19 10 41 14 55l46 170h48z
" />
    <glyph glyph-name="Eth" unicode="&#xd0;" horiz-adv-x="422" 
d="M14 336l7 36h72l55 295c31 7 58 10 84 10c66 0 115 -25 142 -64c28 -39 41 -90 40 -158c0 -149 -53 -314 -129 -387c-54 -51 -121 -71 -178 -71c-35 0 -61 2 -84 8l63 331h-72zM257 372l-7 -36h-124l-57 -299c10 -2 26 -4 42 -4c55 0 106 19 157 74
c58 62 104 213 104 348c0 128 -45 186 -146 186c-22 0 -33 -2 -44 -4l-49 -265h124z" />
    <glyph glyph-name="onehalf" unicode="&#xbd;" horiz-adv-x="600" 
d="M144 263h-37l67 349h-2l-83 -42l-1 34l101 49h30zM85 -8h-39l441 666h39zM527 0h-211l6 26l38 35c69 66 161 153 161 232c0 45 -23 67 -61 67c-26 0 -52 -14 -66 -25l-13 28c16 13 50 32 89 32c56 0 92 -37 92 -99c0 -85 -82 -161 -139 -218l-42 -41v-2h153z" />
    <glyph glyph-name="plusminus" unicode="&#xb1;" horiz-adv-x="596" 
d="M281 567h40v-208h238v-38h-238v-216h-40v216h-238v38h238v208zM43 38h516v-38h-516v38z" />
    <glyph glyph-name="Thorn" unicode="&#xde;" horiz-adv-x="352" 
d="M11 0l127 674h40l-28 -144c14 2 27 4 48 4c51 0 84 -14 110 -41c22 -23 35 -62 35 -106c0 -120 -82 -213 -211 -213c-21 0 -35 2 -48 4l-34 -178h-39zM143 494l-52 -280c12 -2 25 -4 41 -4c109 0 169 82 169 173c0 74 -33 115 -113 115c-19 0 -33 -2 -45 -4z" />
    <glyph glyph-name="onequarter" unicode="&#xbc;" horiz-adv-x="600" 
d="M476 0h-37l22 118h-145l4 20l193 257h38l-47 -246h49l-6 -31h-49zM467 149l23 119c7 34 15 60 19 77h-2c-21 -31 -34 -49 -55 -79l-81 -114l-1 -3h97zM154 263h-37l67 349h-2l-83 -42l-1 34l101 49h30zM108 -8h-39l441 666h39z" />
    <glyph glyph-name="divide" unicode="&#xf7;" horiz-adv-x="596" 
d="M301 409h-1c-21 0 -35 15 -35 37s14 38 36 38c23 0 36 -16 36 -38s-13 -37 -36 -37zM559 248h-516v38h516v-38zM301 50h-1c-21 0 -35 15 -35 37s14 38 36 38c23 0 36 -16 36 -38s-13 -37 -36 -37z" />
    <glyph glyph-name="brokenbar" unicode="&#xa6;" horiz-adv-x="165" 
d="M76 174h40v-350h-40v350zM76 674h40v-350h-40v350z" />
    <glyph glyph-name="degree" unicode="&#xb0;" horiz-adv-x="276" 
d="M211 686h1c66 0 118 -57 118 -131c0 -75 -57 -135 -126 -135c-68 0 -119 56 -119 131c-1 74 57 135 126 135zM212 652h-1c-48 0 -87 -47 -87 -101c0 -55 33 -97 80 -97c50 0 88 46 88 101c0 54 -33 97 -80 97z" />
    <glyph glyph-name="thorn" unicode="&#xfe;" horiz-adv-x="353" 
d="M-28 -192l160 853h40l-54 -264h2c36 56 74 91 126 91c60 0 80 -58 80 -129c0 -142 -73 -367 -218 -367c-19 0 -44 7 -57 18h-2l-38 -202h-39zM93 246l-36 -195c15 -13 33 -22 54 -22c133 0 175 256 175 327c0 55 -13 95 -53 95c-59 0 -120 -96 -140 -205z" />
    <glyph glyph-name="threequarters" unicode="&#xbe;" horiz-adv-x="600" 
d="M131 -8h-39l441 666h39zM121 599l-10 28c17 16 51 31 82 31c47 0 82 -27 82 -83c0 -43 -34 -77 -76 -95l-1 -2c34 -14 61 -44 61 -97c-6 -69 -54 -123 -135 -123c-35 0 -66 12 -84 25l15 31c14 -9 39 -22 73 -22c55 0 89 36 89 94c0 52 -35 75 -87 75h-5l5 29h6
c51 2 99 35 99 85c0 34 -21 50 -50 50c-27 0 -49 -13 -64 -26zM475 0h-37l22 118h-145l4 20l193 257h38l-47 -246h49l-6 -31h-49zM466 149l23 119c7 34 15 60 19 77h-2c-21 -31 -34 -49 -55 -79l-81 -114l-1 -3h97z" />
    <glyph glyph-name="twosuperior" unicode="&#xb2;" horiz-adv-x="235" 
d="M250 403h-211l6 26l38 35c70 65 161 153 161 232c0 45 -23 67 -61 67c-26 0 -52 -14 -66 -25l-13 28c16 13 50 32 89 32c56 0 92 -37 92 -99c0 -85 -81 -162 -139 -218l-42 -41v-2h153z" />
    <glyph glyph-name="registered" unicode="&#xae;" horiz-adv-x="360" 
d="M207 512v-68h-28v161c15 3 32 5 53 5c27 0 40 -5 51 -13c9 -6 16 -19 16 -34c0 -20 -15 -32 -32 -38v-2c15 -5 22 -18 27 -39c5 -24 8 -34 12 -40h-29c-5 6 -9 20 -13 42c-4 18 -15 26 -38 26h-19zM207 585v-50h20c22 0 42 6 42 25c0 16 -10 27 -39 27
c-11 0 -18 -1 -23 -2zM235 682h1c86 0 154 -67 154 -153c0 -87 -68 -155 -155 -155c-86 0 -155 68 -155 155c0 86 69 153 155 153zM235 655h-1c-69 0 -122 -57 -122 -126c0 -71 53 -127 124 -127c69 -1 121 56 121 126s-52 127 -122 127z" />
    <glyph glyph-name="minus" unicode="&#x2212;" horiz-adv-x="596" 
d="M43 286h516v-38h-516v38z" />
    <glyph glyph-name="eth" unicode="&#xf0;" horiz-adv-x="343" 
d="M131 29h1c107 0 142 228 142 309c0 28 0 48 -1 58c-2 25 -20 55 -62 55c-99 0 -148 -191 -148 -289c0 -50 8 -133 68 -133zM123 509l-14 27l98 53c-14 31 -37 61 -59 88l29 23c26 -32 47 -63 64 -91l95 52l16 -27l-95 -53c39 -80 58 -139 58 -240
c0 -87 -33 -349 -191 -349c-84 0 -103 98 -103 161c0 128 58 335 195 335c13 0 32 -4 43 -15l2 1c-8 31 -22 60 -39 90z" />
    <glyph glyph-name="multiply" unicode="&#xd7;" horiz-adv-x="596" 
d="M58 498l25 28l234 -237l234 237l27 -28l-235 -235l235 -234l-27 -29l-234 237l-234 -237l-25 29l233 234z" />
    <glyph glyph-name="threesuperior" unicode="&#xb3;" horiz-adv-x="219" 
d="M115 739l-10 28c17 16 51 31 82 31c47 0 82 -27 82 -83c0 -43 -34 -77 -76 -95l-1 -2c34 -14 64 -44 61 -97c-3 -69 -54 -123 -135 -123c-35 0 -66 12 -84 25l15 31c15 -9 39 -22 75 -22c53 0 87 36 87 94c0 52 -35 75 -87 75h-5l5 29h6c51 0 99 35 99 85
c0 34 -21 50 -50 50c-27 0 -49 -13 -64 -26z" />
    <glyph glyph-name="copyright" unicode="&#xa9;" horiz-adv-x="677" 
d="M355 648h1c167 0 296 -138 296 -308c0 -172 -129 -310 -297 -310c-169 0 -300 138 -300 310c0 170 131 308 300 308zM355 616h-1c-147 0 -259 -120 -259 -280c0 -155 112 -274 260 -274c145 -2 257 119 257 278c0 156 -112 276 -257 276zM489 493l-10 -31
c-14 9 -49 25 -99 25c-103 0 -149 -68 -149 -150s49 -151 151 -151c41 0 79 11 103 28l10 -29c-35 -25 -82 -32 -123 -32c-115 0 -182 79 -182 181c0 113 89 186 189 186c54 0 96 -15 110 -27z" />
    <glyph glyph-name="Aacute" unicode="&#xc1;" horiz-adv-x="413" 
d="M292 233h-167l-96 -233h-41l283 674h39l31 -674h-39zM140 269h151l-8 190c-2 52 -2 100 -3 152h-4c-19 -53 -37 -103 -58 -153zM363 815h65l-126 -105h-41z" />
    <glyph glyph-name="Acircumflex" unicode="&#xc2;" horiz-adv-x="413" 
d="M292 233h-167l-96 -233h-41l283 674h39l31 -674h-39zM140 269h151l-8 190c-2 52 -2 100 -3 152h-4c-19 -53 -37 -103 -58 -153zM287 815h40l62 -105h-42l-42 76h-2l-67 -76h-45z" />
    <glyph glyph-name="Adieresis" unicode="&#xc4;" horiz-adv-x="413" 
d="M292 233h-167l-96 -233h-41l283 674h39l31 -674h-39zM140 269h151l-8 190c-2 52 -2 100 -3 152h-4c-19 -53 -37 -103 -58 -153zM225 731h-1c-19 0 -31 13 -31 33s17 38 38 38c25 0 32 -17 32 -32c0 -19 -15 -39 -38 -39zM368 731h-1c-19 0 -31 13 -31 33s17 38 38 38
c25 0 32 -17 32 -32c0 -19 -15 -39 -38 -39z" />
    <glyph glyph-name="Agrave" unicode="&#xc0;" horiz-adv-x="413" 
d="M292 233h-167l-96 -233h-41l283 674h39l31 -674h-39zM140 269h151l-8 190c-2 52 -2 100 -3 152h-4c-19 -53 -37 -103 -58 -153zM164 815h65l102 -105h-41z" />
    <glyph glyph-name="Aring" unicode="&#xc5;" horiz-adv-x="413" 
d="M292 233h-167l-96 -233h-41l283 674h39l31 -674h-39zM140 269h151l-8 190c-2 52 -2 100 -3 152h-4c-19 -53 -37 -103 -58 -153zM305 863h1c51 0 83 -29 83 -80c0 -60 -54 -89 -94 -89c-47 0 -82 31 -82 76c0 55 45 93 92 93zM305 834h-1c-27 0 -55 -22 -55 -60
c0 -32 19 -50 49 -50c27 0 54 22 54 59c0 29 -17 51 -47 51z" />
    <glyph glyph-name="Atilde" unicode="&#xc3;" horiz-adv-x="413" 
d="M292 233h-167l-96 -233h-41l283 674h39l31 -674h-39zM140 269h151l-8 190c-2 52 -2 100 -3 152h-4c-19 -53 -37 -103 -58 -153zM223 718h-30c4 46 28 80 64 80c18 0 30 -9 42 -17c14 -9 24 -18 39 -18c17 0 27 9 33 36h29c-5 -40 -23 -75 -67 -75c-17 0 -32 9 -44 18
c-12 8 -23 17 -35 17c-18 0 -25 -14 -31 -41z" />
    <glyph glyph-name="Ccedilla" unicode="&#xc7;" horiz-adv-x="353" 
d="M273 45l9 -34c-19 -11 -58 -17 -75 -17l-32 -48c29 -10 53 -33 53 -69c0 -43 -37 -73 -82 -73c-28 0 -51 8 -63 19l13 31c17 -10 33 -15 50 -15c24 0 46 13 45 37c0 28 -33 43 -64 48l48 71c-106 12 -141 115 -141 239c0 107 30 268 128 368c57 58 117 78 170 78
c26 0 50 -5 59 -11l-13 -36c-15 6 -36 9 -51 9c-54 0 -102 -25 -139 -66c-71 -77 -112 -218 -112 -329c0 -126 29 -216 126 -216c29 0 56 7 71 14z" />
    <glyph glyph-name="Eacute" unicode="&#xc9;" horiz-adv-x="322" 
d="M297 372l-7 -36h-177l-56 -300h202l-7 -36h-241l127 674h229l-7 -36h-189l-51 -266h177zM331 815h65l-126 -105h-41z" />
    <glyph glyph-name="Ecircumflex" unicode="&#xca;" horiz-adv-x="322" 
d="M297 372l-7 -36h-177l-56 -300h202l-7 -36h-241l127 674h229l-7 -36h-189l-51 -266h177zM255 815h40l62 -105h-42l-42 76h-2l-67 -76h-45z" />
    <glyph glyph-name="Edieresis" unicode="&#xcb;" horiz-adv-x="322" 
d="M297 372l-7 -36h-177l-56 -300h202l-7 -36h-241l127 674h229l-7 -36h-189l-51 -266h177zM182 731h-1c-19 0 -31 13 -31 33s17 38 38 38c25 0 32 -17 32 -32c0 -19 -15 -39 -38 -39zM325 731h-1c-19 0 -31 13 -31 33s17 38 38 38c25 0 32 -17 32 -32
c0 -19 -15 -39 -38 -39z" />
    <glyph glyph-name="Egrave" unicode="&#xc8;" horiz-adv-x="322" 
d="M297 372l-7 -36h-177l-56 -300h202l-7 -36h-241l127 674h229l-7 -36h-189l-51 -266h177zM129 815h65l102 -105h-41z" />
    <glyph glyph-name="Iacute" unicode="&#xcd;" horiz-adv-x="163" 
d="M138 674h40l-128 -674h-39zM232 815h65l-126 -105h-41z" />
    <glyph glyph-name="Icircumflex" unicode="&#xce;" horiz-adv-x="163" 
d="M138 674h40l-128 -674h-39zM158 815h40l62 -105h-42l-42 76h-2l-67 -76h-45z" />
    <glyph glyph-name="Idieresis" unicode="&#xcf;" horiz-adv-x="163" 
d="M138 674h40l-128 -674h-39zM103 731h-1c-19 0 -31 13 -31 33s17 38 38 38c25 0 32 -17 32 -32c0 -19 -15 -39 -38 -39zM246 731h-1c-19 0 -31 13 -31 33s17 38 38 38c25 0 32 -17 32 -32c0 -19 -15 -39 -38 -39z" />
    <glyph glyph-name="Igrave" unicode="&#xcc;" horiz-adv-x="163" 
d="M138 674h40l-128 -674h-39zM35 815h65l102 -105h-41z" />
    <glyph glyph-name="Ntilde" unicode="&#xd1;" horiz-adv-x="423" 
d="M48 0h-37l127 674h41l80 -423c11 -56 23 -118 33 -183h2c10 71 17 128 28 186l80 420h37l-127 -674h-39l-81 412c-10 52 -23 123 -32 201h-2c-9 -71 -21 -140 -32 -198zM227 718h-30c4 46 28 80 64 80c18 0 30 -9 42 -17c14 -9 24 -18 39 -18c17 0 27 9 33 36h29
c-5 -40 -23 -75 -67 -75c-17 0 -32 9 -44 18c-12 8 -23 17 -35 17c-18 0 -25 -14 -31 -41z" />
    <glyph glyph-name="Oacute" unicode="&#xd3;" horiz-adv-x="417" 
d="M165 -8h-1c-119 0 -129 137 -129 208c0 124 48 340 140 431c36 36 76 51 111 51c116 0 124 -132 124 -220c0 -115 -48 -332 -134 -418c-36 -36 -75 -52 -111 -52zM169 29h1c27 0 51 13 73 35c86 87 125 310 125 388c0 104 -5 193 -90 193c-27 0 -52 -13 -74 -35
c-83 -84 -127 -296 -127 -395c0 -70 2 -186 92 -186zM360 815h65l-126 -105h-41z" />
    <glyph glyph-name="Ocircumflex" unicode="&#xd4;" horiz-adv-x="417" 
d="M165 -8h-1c-119 0 -129 137 -129 208c0 124 48 340 140 431c36 36 76 51 111 51c116 0 124 -132 124 -220c0 -115 -48 -332 -134 -418c-36 -36 -75 -52 -111 -52zM169 29h1c27 0 51 13 73 35c86 87 125 310 125 388c0 104 -5 193 -90 193c-27 0 -52 -13 -74 -35
c-83 -84 -127 -296 -127 -395c0 -70 2 -186 92 -186zM281 815h40l62 -105h-42l-42 76h-2l-67 -76h-45z" />
    <glyph glyph-name="Odieresis" unicode="&#xd6;" horiz-adv-x="417" 
d="M165 -8h-1c-119 0 -129 137 -129 208c0 124 48 340 140 431c36 36 76 51 111 51c116 0 124 -132 124 -220c0 -115 -48 -332 -134 -418c-36 -36 -75 -52 -111 -52zM169 29h1c27 0 51 13 73 35c86 87 125 310 125 388c0 104 -5 193 -90 193c-27 0 -52 -13 -74 -35
c-83 -84 -127 -296 -127 -395c0 -70 2 -186 92 -186zM220 731h-1c-19 0 -31 13 -31 33s17 38 38 38c25 0 32 -17 32 -32c0 -19 -15 -39 -38 -39zM363 731h-1c-19 0 -31 13 -31 33s17 38 38 38c25 0 32 -17 32 -32c0 -19 -15 -39 -38 -39z" />
    <glyph glyph-name="Ograve" unicode="&#xd2;" horiz-adv-x="417" 
d="M165 -8h-1c-119 0 -129 137 -129 208c0 124 48 340 140 431c36 36 76 51 111 51c116 0 124 -132 124 -220c0 -115 -48 -332 -134 -418c-36 -36 -75 -52 -111 -52zM169 29h1c27 0 51 13 73 35c86 87 125 310 125 388c0 104 -5 193 -90 193c-27 0 -52 -13 -74 -35
c-83 -84 -127 -296 -127 -395c0 -70 2 -186 92 -186zM161 815h65l102 -105h-41z" />
    <glyph glyph-name="Otilde" unicode="&#xd5;" horiz-adv-x="417" 
d="M165 -8h-1c-119 0 -129 137 -129 208c0 124 48 340 140 431c36 36 76 51 111 51c116 0 124 -132 124 -220c0 -115 -48 -332 -134 -418c-36 -36 -75 -52 -111 -52zM169 29h1c27 0 51 13 73 35c86 87 125 310 125 388c0 104 -5 193 -90 193c-27 0 -52 -13 -74 -35
c-83 -84 -127 -296 -127 -395c0 -70 2 -186 92 -186zM222 718h-30c4 46 28 80 64 80c18 0 30 -9 42 -17c14 -9 24 -18 39 -18c17 0 27 9 33 36h29c-5 -40 -23 -75 -67 -75c-17 0 -32 9 -44 18c-12 8 -23 17 -35 17c-18 0 -25 -14 -31 -41z" />
    <glyph glyph-name="Scaron" unicode="&#x160;" horiz-adv-x="322" 
d="M-6 22l15 36c19 -14 52 -26 88 -26c95 0 139 76 139 157c0 58 -26 104 -71 150c-47 48 -85 101 -85 168c0 93 68 173 172 173c34 0 67 -11 82 -22l-15 -34c-20 11 -42 18 -75 18c-75 0 -121 -59 -122 -131c0 -59 35 -104 74 -143c41 -41 82 -100 82 -172
c0 -111 -63 -202 -188 -202c-40 0 -82 15 -96 28zM258 710h-40l-62 105h42l42 -76h2l67 76h45z" />
    <glyph glyph-name="Uacute" unicode="&#xda;" horiz-adv-x="421" 
d="M138 674h40l-87 -460c-6 -29 -8 -54 -8 -82c0 -68 38 -103 88 -103c76 0 115 57 138 181l88 464h40l-88 -464c-31 -166 -91 -218 -184 -218c-64 0 -123 43 -123 133c0 24 2 52 8 84zM329 815h65l-126 -105h-41z" />
    <glyph glyph-name="Ucircumflex" unicode="&#xdb;" horiz-adv-x="421" 
d="M138 674h40l-87 -460c-6 -29 -8 -54 -8 -82c0 -68 38 -103 88 -103c76 0 115 57 138 181l88 464h40l-88 -464c-31 -166 -91 -218 -184 -218c-64 0 -123 43 -123 133c0 24 2 52 8 84zM288 815h40l62 -105h-42l-42 76h-2l-67 -76h-45z" />
    <glyph glyph-name="Udieresis" unicode="&#xdc;" horiz-adv-x="421" 
d="M138 674h40l-87 -460c-6 -29 -8 -54 -8 -82c0 -68 38 -103 88 -103c76 0 115 57 138 181l88 464h40l-88 -464c-31 -166 -91 -218 -184 -218c-64 0 -123 43 -123 133c0 24 2 52 8 84zM224 731h-1c-19 0 -31 13 -31 33s17 38 38 38c25 0 32 -17 32 -32
c0 -19 -15 -39 -38 -39zM367 731h-1c-19 0 -31 13 -31 33s17 38 38 38c25 0 32 -17 32 -32c0 -19 -15 -39 -38 -39z" />
    <glyph glyph-name="Ugrave" unicode="&#xd9;" horiz-adv-x="421" 
d="M138 674h40l-87 -460c-6 -29 -8 -54 -8 -82c0 -68 38 -103 88 -103c76 0 115 57 138 181l88 464h40l-88 -464c-31 -166 -91 -218 -184 -218c-64 0 -123 43 -123 133c0 24 2 52 8 84zM160 815h65l102 -105h-41z" />
    <glyph glyph-name="Yacute" unicode="&#xdd;" horiz-adv-x="391" 
d="M161 0h-40l58 302l-77 372h42l43 -221c8 -41 15 -81 19 -109h2c20 36 38 70 62 112l127 218h46l-225 -370zM345 815h65l-126 -105h-41z" />
    <glyph glyph-name="Ydieresis" unicode="&#x178;" horiz-adv-x="391" 
d="M161 0h-40l58 302l-77 372h42l43 -221c8 -41 15 -81 19 -109h2c20 36 38 70 62 112l127 218h46l-225 -370zM209 731h-1c-19 0 -31 13 -31 33s17 38 38 38c25 0 32 -17 32 -32c0 -19 -15 -39 -38 -39zM352 731h-1c-19 0 -31 13 -31 33s17 38 38 38c25 0 32 -17 32 -32
c0 -19 -15 -39 -38 -39z" />
    <glyph glyph-name="Zcaron" unicode="&#x17d;" horiz-adv-x="335" 
d="M-25 0l5 27l350 609v2h-216l6 36h268l-5 -25l-352 -611v-2h236l-7 -36h-285zM278 710h-40l-62 105h42l42 -76h2l67 76h45z" />
    <glyph glyph-name="aacute" unicode="&#xe1;" horiz-adv-x="352" 
d="M259 0h-39c1 28 5 55 9 98h-2c-53 -92 -93 -106 -127 -106c-47 0 -81 41 -81 130c0 146 81 366 254 366c24 0 50 -5 64 -13l-57 -279c-14 -71 -22 -141 -21 -196zM252 250l39 197c-9 3 -19 4 -32 4c-124 0 -195 -186 -198 -313c-2 -72 13 -109 49 -109
c58 0 122 120 142 221zM303 667h57l-107 -132h-32z" />
    <glyph glyph-name="acircumflex" unicode="&#xe2;" horiz-adv-x="352" 
d="M259 0h-39c1 28 5 55 9 98h-2c-53 -92 -93 -106 -127 -106c-47 0 -81 41 -81 130c0 146 81 366 254 366c24 0 50 -5 64 -13l-57 -279c-14 -71 -22 -141 -21 -196zM252 250l39 197c-9 3 -19 4 -32 4c-124 0 -195 -186 -198 -313c-2 -72 13 -109 49 -109
c58 0 122 120 142 221zM255 667h28l55 -132h-37l-36 91h-2l-65 -91h-38z" />
    <glyph glyph-name="adieresis" unicode="&#xe4;" horiz-adv-x="352" 
d="M259 0h-39c1 28 5 55 9 98h-2c-53 -92 -93 -106 -127 -106c-47 0 -81 41 -81 130c0 146 81 366 254 366c24 0 50 -5 64 -13l-57 -279c-14 -71 -22 -141 -21 -196zM252 250l39 197c-9 3 -19 4 -32 4c-124 0 -195 -186 -198 -313c-2 -72 13 -109 49 -109
c58 0 122 120 142 221zM186 565h-1c-18 0 -29 13 -29 33s16 38 36 38c23 0 30 -17 30 -32c0 -19 -14 -39 -36 -39zM324 565h-1c-18 0 -29 13 -29 33s16 38 36 38c23 0 30 -17 30 -32c0 -19 -14 -39 -36 -39z" />
    <glyph glyph-name="agrave" unicode="&#xe0;" horiz-adv-x="352" 
d="M259 0h-39c1 28 5 55 9 98h-2c-53 -92 -93 -106 -127 -106c-47 0 -81 41 -81 130c0 146 81 366 254 366c24 0 50 -5 64 -13l-57 -279c-14 -71 -22 -141 -21 -196zM252 250l39 197c-9 3 -19 4 -32 4c-124 0 -195 -186 -198 -313c-2 -72 13 -109 49 -109
c58 0 122 120 142 221zM142 667h57l82 -132h-32z" />
    <glyph glyph-name="aring" unicode="&#xe5;" horiz-adv-x="352" 
d="M259 0h-39c1 28 5 55 9 98h-2c-53 -92 -93 -106 -127 -106c-47 0 -81 41 -81 130c0 146 81 366 254 366c24 0 50 -5 64 -13l-57 -279c-14 -71 -22 -141 -21 -196zM252 250l39 197c-9 3 -19 4 -32 4c-124 0 -195 -186 -198 -313c-2 -72 13 -109 49 -109
c58 0 122 120 142 221zM258 698h1c51 0 83 -29 83 -80c0 -60 -54 -89 -94 -89c-47 0 -82 31 -82 76c0 55 45 93 92 93zM258 668h-1c-27 0 -55 -22 -55 -59c0 -32 19 -50 50 -50c27 0 54 22 54 58c0 29 -17 51 -48 51z" />
    <glyph glyph-name="atilde" unicode="&#xe3;" horiz-adv-x="352" 
d="M259 0h-39c1 28 5 55 9 98h-2c-53 -92 -93 -106 -127 -106c-47 0 -81 41 -81 130c0 146 81 366 254 366c24 0 50 -5 64 -13l-57 -279c-14 -71 -22 -141 -21 -196zM252 250l39 197c-9 3 -19 4 -32 4c-124 0 -195 -186 -198 -313c-2 -72 13 -109 49 -109
c58 0 122 120 142 221zM188 564h-32c-1 42 20 76 56 76c18 0 31 -9 44 -17c15 -9 27 -18 41 -18c16 0 25 9 27 36h31c0 -36 -15 -71 -59 -71c-17 0 -33 9 -46 18c-13 8 -25 17 -37 17c-16 0 -22 -14 -25 -41z" />
    <glyph glyph-name="ccedilla" unicode="&#xe7;" horiz-adv-x="275" 
d="M209 44l7 -31c-18 -9 -45 -19 -59 -19l-32 -48c29 -10 53 -33 53 -69c0 -43 -39 -73 -84 -73c-26 0 -49 8 -61 19l13 31c17 -10 33 -15 50 -15c25 0 46 13 45 37c0 28 -33 43 -64 48l45 70c-74 11 -99 86 -99 171c0 119 65 323 229 323c15 0 31 -4 38 -8l-12 -36
c-9 4 -19 7 -35 7c-118 0 -178 -172 -178 -284c0 -80 20 -136 85 -136c18 0 38 4 59 13z" />
    <glyph glyph-name="eacute" unicode="&#xe9;" horiz-adv-x="310" 
d="M224 58l12 -32c-30 -20 -64 -32 -97 -32c-90 0 -116 77 -116 163c0 125 70 331 197 331c59 0 81 -46 81 -95c0 -107 -101 -157 -231 -160c-3 -14 -9 -86 -2 -123c10 -53 37 -79 78 -79c35 0 60 15 78 27zM260 392v1c0 37 -17 58 -48 58c-46 0 -99 -56 -134 -182
c84 2 182 28 182 123zM277 667h57l-107 -132h-32z" />
    <glyph glyph-name="ecircumflex" unicode="&#xea;" horiz-adv-x="310" 
d="M224 58l12 -32c-30 -20 -64 -32 -97 -32c-90 0 -116 77 -116 163c0 125 70 331 197 331c59 0 81 -46 81 -95c0 -107 -101 -157 -231 -160c-3 -14 -9 -86 -2 -123c10 -53 37 -79 78 -79c35 0 60 15 78 27zM260 392v1c0 37 -17 58 -48 58c-46 0 -99 -56 -134 -182
c84 2 182 28 182 123zM228 667h28l55 -132h-37l-36 91h-2l-65 -91h-38z" />
    <glyph glyph-name="edieresis" unicode="&#xeb;" horiz-adv-x="310" 
d="M224 58l12 -32c-30 -20 -64 -32 -97 -32c-90 0 -116 77 -116 163c0 125 70 331 197 331c59 0 81 -46 81 -95c0 -107 -101 -157 -231 -160c-3 -14 -9 -86 -2 -123c10 -53 37 -79 78 -79c35 0 60 15 78 27zM260 392v1c0 37 -17 58 -48 58c-46 0 -99 -56 -134 -182
c84 2 182 28 182 123zM159 565h-1c-18 0 -29 13 -29 33s16 38 36 38c23 0 30 -17 30 -32c0 -19 -14 -39 -36 -39zM297 565h-1c-18 0 -29 13 -29 33s16 38 36 38c23 0 30 -17 30 -32c0 -19 -14 -39 -36 -39z" />
    <glyph glyph-name="egrave" unicode="&#xe8;" horiz-adv-x="310" 
d="M224 58l12 -32c-30 -20 -64 -32 -97 -32c-90 0 -116 77 -116 163c0 125 70 331 197 331c59 0 81 -46 81 -95c0 -107 -101 -157 -231 -160c-3 -14 -9 -86 -2 -123c10 -53 37 -79 78 -79c35 0 60 15 78 27zM260 392v1c0 37 -17 58 -48 58c-46 0 -99 -56 -134 -182
c84 2 182 28 182 123zM111 667h57l82 -132h-32z" />
    <glyph glyph-name="iacute" unicode="&#xed;" horiz-adv-x="156" 
d="M47 0h-39l92 480h39zM180 667h57l-107 -132h-32z" />
    <glyph glyph-name="icircumflex" unicode="&#xee;" horiz-adv-x="156" 
d="M47 0h-39l92 480h39zM134 667h28l55 -132h-37l-36 91h-2l-65 -91h-38z" />
    <glyph glyph-name="idieresis" unicode="&#xef;" horiz-adv-x="156" 
d="M47 0h-39l92 480h39zM68 565h-1c-18 0 -29 13 -29 33s16 38 36 38c23 0 30 -17 30 -32c0 -19 -14 -39 -36 -39zM206 565h-1c-18 0 -29 13 -29 33s16 38 36 38c23 0 30 -17 30 -32c0 -19 -14 -39 -36 -39z" />
    <glyph glyph-name="igrave" unicode="&#xec;" horiz-adv-x="156" 
d="M47 0h-39l92 480h39zM21 667h57l82 -132h-32z" />
    <glyph glyph-name="ntilde" unicode="&#xf1;" horiz-adv-x="363" 
d="M47 0h-39l58 311c15 78 21 135 25 169h36l-10 -84h2c42 67 83 92 129 92c54 0 76 -45 76 -91c0 -28 -3 -46 -8 -71l-61 -326h-39l60 320c5 25 8 47 8 76c0 34 -14 55 -49 55c-56 0 -119 -85 -136 -175zM169 564h-32c-1 42 20 76 56 76c18 0 31 -9 44 -17
c15 -9 27 -18 41 -18c16 0 25 9 27 36h31c0 -36 -15 -71 -59 -71c-17 0 -33 9 -46 18c-13 8 -25 17 -37 17c-16 0 -22 -14 -25 -41z" />
    <glyph glyph-name="oacute" unicode="&#xf3;" horiz-adv-x="340" 
d="M119 -8h-1c-68 0 -97 67 -97 161c0 109 56 335 198 335c81 0 94 -86 94 -149c0 -103 -47 -347 -194 -347zM126 29h1c105 0 144 230 144 308c0 61 -9 114 -59 114c-96 0 -149 -189 -149 -290c0 -67 5 -132 63 -132zM279 667h57l-107 -132h-32z" />
    <glyph glyph-name="ocircumflex" unicode="&#xf4;" horiz-adv-x="340" 
d="M119 -8h-1c-68 0 -97 67 -97 161c0 109 56 335 198 335c81 0 94 -86 94 -149c0 -103 -47 -347 -194 -347zM126 29h1c105 0 144 230 144 308c0 61 -9 114 -59 114c-96 0 -149 -189 -149 -290c0 -67 5 -132 63 -132zM231 667h28l55 -132h-37l-36 91h-2l-65 -91h-38z" />
    <glyph glyph-name="odieresis" unicode="&#xf6;" horiz-adv-x="340" 
d="M119 -8h-1c-68 0 -97 67 -97 161c0 109 56 335 198 335c81 0 94 -86 94 -149c0 -103 -47 -347 -194 -347zM126 29h1c105 0 144 230 144 308c0 61 -9 114 -59 114c-96 0 -149 -189 -149 -290c0 -67 5 -132 63 -132zM160 565h-1c-18 0 -29 13 -29 33s16 38 36 38
c23 0 30 -17 30 -32c0 -19 -14 -39 -36 -39zM298 565h-1c-18 0 -29 13 -29 33s16 38 36 38c23 0 30 -17 30 -32c0 -19 -14 -39 -36 -39z" />
    <glyph glyph-name="ograve" unicode="&#xf2;" horiz-adv-x="340" 
d="M119 -8h-1c-68 0 -97 67 -97 161c0 109 56 335 198 335c81 0 94 -86 94 -149c0 -103 -47 -347 -194 -347zM126 29h1c105 0 144 230 144 308c0 61 -9 114 -59 114c-96 0 -149 -189 -149 -290c0 -67 5 -132 63 -132zM108 667h57l82 -132h-32z" />
    <glyph glyph-name="otilde" unicode="&#xf5;" horiz-adv-x="340" 
d="M119 -8h-1c-68 0 -97 67 -97 161c0 109 56 335 198 335c81 0 94 -86 94 -149c0 -103 -47 -347 -194 -347zM126 29h1c105 0 144 230 144 308c0 61 -9 114 -59 114c-96 0 -149 -189 -149 -290c0 -67 5 -132 63 -132zM157 564h-32c-1 42 20 76 56 76c18 0 31 -9 44 -17
c15 -9 27 -18 41 -18c16 0 25 9 27 36h31c0 -36 -15 -71 -59 -71c-17 0 -33 9 -46 18c-13 8 -25 17 -37 17c-16 0 -22 -14 -25 -41z" />
    <glyph glyph-name="scaron" unicode="&#x161;" horiz-adv-x="260" 
d="M-16 21l16 34c13 -9 37 -24 73 -24c57 0 92 43 92 98c0 53 -26 84 -50 107c-28 27 -64 69 -64 117c0 77 53 135 132 135c26 0 52 -8 65 -18l-15 -34c-15 9 -35 15 -55 15c-56 0 -86 -40 -86 -88c0 -45 26 -71 49 -94c28 -28 65 -71 65 -126c0 -102 -63 -149 -139 -149
c-34 0 -72 16 -83 27zM187 535h-28l-55 132h37l36 -91h2l65 91h38z" />
    <glyph glyph-name="uacute" unicode="&#xfa;" horiz-adv-x="363" 
d="M306 480h39l-58 -311c-15 -78 -19 -135 -21 -169h-38l8 82h-2c-38 -65 -84 -90 -130 -90c-53 0 -75 45 -75 91c0 24 2 42 6 61l63 336h39l-60 -320c-5 -25 -8 -47 -8 -74c0 -33 14 -57 48 -57c58 0 119 80 137 175zM286 667h57l-107 -132h-32z" />
    <glyph glyph-name="ucircumflex" unicode="&#xfb;" horiz-adv-x="363" 
d="M306 480h39l-58 -311c-15 -78 -19 -135 -21 -169h-38l8 82h-2c-38 -65 -84 -90 -130 -90c-53 0 -75 45 -75 91c0 24 2 42 6 61l63 336h39l-60 -320c-5 -25 -8 -47 -8 -74c0 -33 14 -57 48 -57c58 0 119 80 137 175zM233 667h28l55 -132h-37l-36 91h-2l-65 -91h-38z" />
    <glyph glyph-name="udieresis" unicode="&#xfc;" horiz-adv-x="363" 
d="M306 480h39l-58 -311c-15 -78 -19 -135 -21 -169h-38l8 82h-2c-38 -65 -84 -90 -130 -90c-53 0 -75 45 -75 91c0 24 2 42 6 61l63 336h39l-60 -320c-5 -25 -8 -47 -8 -74c0 -33 14 -57 48 -57c58 0 119 80 137 175zM175 565h-1c-18 0 -29 13 -29 33s16 38 36 38
c23 0 30 -17 30 -32c0 -19 -14 -39 -36 -39zM313 565h-1c-18 0 -29 13 -29 33s16 38 36 38c23 0 30 -17 30 -32c0 -19 -14 -39 -36 -39z" />
    <glyph glyph-name="ugrave" unicode="&#xf9;" horiz-adv-x="363" 
d="M306 480h39l-58 -311c-15 -78 -19 -135 -21 -169h-38l8 82h-2c-38 -65 -84 -90 -130 -90c-53 0 -75 45 -75 91c0 24 2 42 6 61l63 336h39l-60 -320c-5 -25 -8 -47 -8 -74c0 -33 14 -57 48 -57c58 0 119 80 137 175zM113 667h57l82 -132h-32z" />
    <glyph glyph-name="yacute" unicode="&#xfd;" horiz-adv-x="312" 
d="M52 480h40l23 -292c3 -43 4 -68 8 -123h2c14 43 31 83 46 121l117 294h42l-163 -397c-43 -105 -90 -193 -157 -248c-29 -23 -54 -38 -70 -43l-16 36c21 9 49 25 77 50c31 26 68 80 85 122c5 12 5 19 4 30zM248 667h57l-107 -132h-32z" />
    <glyph glyph-name="ydieresis" unicode="&#xff;" horiz-adv-x="312" 
d="M52 480h40l23 -292c3 -43 4 -68 8 -123h2c14 43 31 83 46 121l117 294h42l-163 -397c-43 -105 -90 -193 -157 -248c-29 -23 -54 -38 -70 -43l-16 36c21 9 49 25 77 50c31 26 68 80 85 122c5 12 5 19 4 30zM135 565h-1c-18 0 -29 13 -29 33s16 38 36 38
c23 0 30 -17 30 -32c0 -19 -14 -39 -36 -39zM273 565h-1c-18 0 -29 13 -29 33s16 38 36 38c23 0 30 -17 30 -32c0 -19 -14 -39 -36 -39z" />
    <glyph glyph-name="zcaron" unicode="&#x17e;" horiz-adv-x="282" 
d="M-34 0l2 26l219 324c32 47 48 69 62 91l1 3h-183l7 36h231l-3 -27l-222 -326c-29 -43 -44 -65 -60 -89v-2h200l-7 -36h-247zM208 535h-28l-55 132h37l36 -91h2l65 91h38z" />
    <glyph glyph-name="dollarsuperior" unicode="&#xf6e4;" horiz-adv-x="217" 
d="M139 353h-30l11 60c-27 2 -53 12 -65 22l13 32c15 -10 36 -22 65 -22c45 0 74 31 74 70c0 33 -13 53 -43 75c-38 28 -62 56 -62 95c0 48 34 92 91 99l11 57h30l-11 -57c24 -1 45 -10 55 -18l-15 -31c-11 7 -29 18 -55 18c-39 0 -66 -26 -66 -62c0 -32 17 -48 50 -72
c38 -27 56 -58 56 -94c0 -66 -41 -106 -97 -112z" />
    <glyph glyph-name="parenleftsuperior" unicode="&#x207d;" horiz-adv-x="157" 
d="M218 832h36c-70 -78 -123 -192 -123 -315c0 -65 8 -120 29 -172h-32c-22 49 -33 109 -33 171c0 131 58 244 123 316z" />
    <glyph glyph-name="parenrightsuperior" unicode="&#x207e;" horiz-adv-x="157" 
d="M61 345h-36c70 79 123 192 123 316c0 65 -8 120 -29 171h32c22 -49 33 -108 33 -169c0 -131 -59 -246 -123 -318z" />
    <glyph glyph-name="zerooldstyle" unicode="&#xf730;" horiz-adv-x="368" 
d="M132 -8h-1c-57 0 -104 44 -104 153c0 118 59 351 200 351c57 0 106 -45 106 -156c0 -118 -60 -348 -201 -348zM139 29h1c108 0 151 220 151 311c0 64 -17 119 -71 119c-108 0 -151 -218 -151 -309c0 -65 16 -121 70 -121z" />
    <glyph glyph-name="oneoldstyle" unicode="&#xf731;" horiz-adv-x="258" 
d="M219 496l-94 -496h-39l83 446h-2l-108 -61l-5 34l135 77h30z" />
    <glyph glyph-name="twooldstyle" unicode="&#xf732;" horiz-adv-x="311" 
d="M232 37l-7 -37h-260l5 25l82 78c132 125 183 200 183 270c0 62 -39 86 -75 86c-32 0 -64 -18 -85 -33l-15 26c23 20 62 44 112 44c51 0 105 -36 105 -121c0 -82 -54 -154 -189 -284l-55 -53v-2c22 1 46 1 67 1h132z" />
    <glyph glyph-name="threeoldstyle" unicode="&#xf733;" horiz-adv-x="314" 
d="M-48 -77l10 36c13 -8 47 -18 85 -18c78 0 160 53 160 152c0 68 -50 111 -105 111c-14 0 -26 -1 -36 -1l4 34c2 1 6 1 10 1c69 9 155 66 155 142c0 55 -35 79 -76 79c-35 0 -58 -10 -76 -20l-10 29c23 17 60 28 97 28c58 0 107 -42 107 -111c0 -72 -58 -129 -127 -153v-2
c49 -13 99 -61 99 -133c0 -114 -88 -193 -205 -193c-48 0 -81 13 -92 19z" />
    <glyph glyph-name="fouroldstyle" unicode="&#xf734;" horiz-adv-x="370" 
d="M234 66l-32 -162h-39l32 162h-199l6 30l272 395h40l-73 -388h72l-7 -37h-72zM202 103l38 200c9 48 15 78 27 127h-4c-29 -52 -44 -78 -77 -126l-136 -198l1 -3h151z" />
    <glyph glyph-name="fiveoldstyle" unicode="&#xf735;" horiz-adv-x="320" 
d="M-33 -86l10 35c11 -4 39 -8 61 -8c81 0 174 44 174 157c0 41 -13 71 -37 94c-26 24 -70 39 -130 41l84 253h189l-14 -38h-150l-62 -185c50 -5 92 -21 117 -45c30 -30 45 -67 45 -114c0 -127 -108 -200 -213 -200c-33 0 -62 5 -74 10z" />
    <glyph glyph-name="sixoldstyle" unicode="&#xf736;" horiz-adv-x="367" 
d="M148 29h1c65 0 130 104 130 203c0 79 -38 107 -75 107c-31 0 -58 -16 -83 -43c-40 -41 -52 -93 -52 -141c0 -91 35 -126 79 -126zM361 596l10 -31c-66 -21 -121 -55 -165 -99c-43 -43 -76 -90 -104 -153h2c29 31 72 63 118 63c50 0 99 -47 99 -135
c0 -128 -86 -249 -181 -249c-71 0 -111 59 -111 160c0 99 49 238 147 334c54 54 116 93 185 110z" />
    <glyph glyph-name="sevenoldstyle" unicode="&#xf737;" horiz-adv-x="316" 
d="M326 486l-5 -23c-74 -164 -201 -394 -317 -559l-39 10c103 140 257 419 305 529l1 5h-212l7 38h260z" />
    <glyph glyph-name="eightoldstyle" unicode="&#xf738;" horiz-adv-x="392" 
d="M245 600h1c72 0 111 -60 111 -124c0 -77 -58 -122 -119 -163v-2c38 -35 86 -80 86 -149c0 -98 -82 -170 -167 -170c-75 0 -130 57 -130 144s79 138 139 182v2c-39 31 -68 74 -68 129c0 77 62 151 147 151zM236 563h-1c-49 0 -95 -42 -95 -109c0 -52 30 -90 72 -122
c70 48 103 92 103 145c0 54 -32 86 -79 86zM162 29h1c67 0 119 61 119 123c0 60 -38 102 -90 144c-54 -36 -123 -86 -123 -162c0 -62 35 -105 93 -105z" />
    <glyph glyph-name="nineoldstyle" unicode="&#xf739;" horiz-adv-x="364" 
d="M153 140h1c47 0 96 51 111 84c14 29 23 78 23 127c0 78 -34 108 -69 108c-81 0 -135 -125 -135 -213c0 -70 33 -106 69 -106zM0 -102l-8 34c12 2 26 5 36 8c107 30 190 99 234 228l-3 1c-31 -37 -72 -63 -115 -63c-51 0 -102 43 -102 134c0 102 66 256 185 256
c62 0 103 -61 103 -155c0 -222 -120 -393 -300 -438c-10 -2 -20 -4 -30 -5z" />
    <glyph glyph-name="commasuperior" unicode="&#xf6e2;" horiz-adv-x="115" 
d="M57 332l-31 -4c17 32 43 96 54 137l49 6c-19 -48 -54 -115 -72 -139z" />
    <glyph glyph-name="periodsuperior" unicode="&#xf6e8;" horiz-adv-x="115" 
d="M95 398h-1c-16 0 -26 12 -26 30c0 19 13 35 31 35c19 0 28 -14 28 -30c0 -19 -14 -35 -32 -35z" />
    <glyph glyph-name="centsuperior" unicode="&#xf6e0;" horiz-adv-x="217" 
d="M169 397h-30l11 60c-24 5 -42 19 -53 37c-10 17 -15 42 -15 65c0 83 51 169 124 182l11 57h30l-11 -55c15 0 34 -6 42 -13l-14 -30c-11 7 -26 10 -43 10c-55 0 -98 -76 -98 -149c0 -41 18 -73 58 -73c19 0 35 6 48 12l4 -30c-13 -8 -34 -14 -53 -14z" />
    <glyph glyph-name="parenleftinferior" unicode="&#x208d;" horiz-adv-x="157" 
d="M112 282h36c-70 -78 -123 -192 -123 -315c0 -65 8 -120 29 -172h-32c-22 49 -33 109 -33 171c0 131 58 244 123 316z" />
    <glyph glyph-name="parenrightinferior" unicode="&#x208e;" horiz-adv-x="157" 
d="M-45 -205h-36c70 79 123 192 123 316c0 65 -8 120 -29 171h32c22 -49 33 -108 33 -169c0 -131 -59 -246 -123 -318z" />
    <glyph glyph-name="hyphensuperior" unicode="&#xf6e6;" horiz-adv-x="174" 
d="M83 598h137l-6 -33h-137z" />
    <glyph glyph-name="hypheninferior" unicode="&#xf6e5;" horiz-adv-x="174" 
d="M-23 48h137l-6 -33h-137z" />
    <glyph glyph-name="zerosuperior" unicode="&#x2070;" horiz-adv-x="250" 
d="M154 398h-1c-63 0 -78 61 -78 120c0 113 53 280 152 280c66 0 78 -63 78 -111c0 -104 -46 -289 -151 -289zM160 432h1c70 0 104 187 104 257c0 30 -5 75 -42 75c-69 0 -108 -162 -108 -246c0 -46 7 -86 45 -86z" />
    <glyph glyph-name="foursuperior" unicode="&#x2074;" horiz-adv-x="246" 
d="M217 403h-37l22 118h-145l4 20l193 257h38l-47 -246h49l-6 -31h-49zM208 552l23 119c7 34 15 60 19 77h-2c-21 -31 -34 -49 -55 -79l-81 -114l-1 -3h97z" />
    <glyph glyph-name="fivesuperior" unicode="&#x2075;" horiz-adv-x="222" 
d="M295 793l-8 -36h-108l-34 -108c4 1 9 0 13 0c15 0 44 -7 63 -23c22 -18 33 -47 33 -80c0 -85 -64 -148 -144 -148c-28 0 -52 7 -62 14l12 33c10 -6 30 -12 52 -12c58 0 101 48 101 106c0 53 -30 78 -82 78c-13 0 -21 -1 -31 -2l52 178h143z" />
    <glyph glyph-name="sixsuperior" unicode="&#x2076;" horiz-adv-x="247" 
d="M301 798l-4 -35c-4 0 -11 -1 -18 -2c-65 -13 -122 -60 -150 -149h1c21 26 50 42 79 42c52 0 78 -44 78 -97c0 -70 -46 -159 -123 -159c-63 0 -89 51 -89 118c0 85 41 174 88 219c24 23 55 43 91 54c15 5 31 8 47 9zM166 430h1c52 0 78 74 78 125c0 44 -18 66 -51 66
c-24 0 -52 -17 -70 -48c-3 -5 -5 -11 -6 -16c-3 -14 -4 -29 -4 -47c0 -46 17 -80 52 -80z" />
    <glyph glyph-name="sevensuperior" unicode="&#x2077;" horiz-adv-x="219" 
d="M112 793h199l-5 -26c-35 -70 -167 -294 -207 -364h-43c39 68 169 285 205 353l-1 1h-155z" />
    <glyph glyph-name="eightsuperior" unicode="&#x2078;" horiz-adv-x="254" 
d="M228 798h1c52 0 80 -37 80 -79c0 -51 -32 -87 -73 -109v-1c31 -22 51 -55 51 -97c0 -67 -55 -114 -117 -114c-58 0 -95 38 -95 91c0 63 45 102 88 123v2c-29 25 -41 50 -41 79c0 56 46 105 106 105zM173 429h1c42 0 73 37 73 82c0 39 -20 64 -55 83
c-36 -14 -76 -51 -76 -101c0 -36 19 -64 57 -64zM224 767h-1c-35 0 -62 -32 -62 -72c0 -32 17 -52 46 -69c39 20 63 52 63 88c0 29 -12 53 -46 53z" />
    <glyph glyph-name="ninesuperior" unicode="&#x2079;" horiz-adv-x="243" 
d="M75 398l2 35c7 0 17 1 28 4c23 5 46 18 67 36c28 24 53 61 70 111h-1c-20 -22 -47 -36 -74 -36c-54 0 -78 44 -78 94c0 73 52 156 125 156c62 0 84 -52 84 -107c0 -90 -44 -185 -90 -231c-29 -30 -68 -50 -102 -58c-12 -3 -21 -4 -31 -4zM210 766h-1
c-48 0 -79 -69 -79 -119c0 -46 19 -67 49 -67c26 0 51 17 66 42c3 5 5 10 7 19c3 13 6 30 6 51c0 42 -11 74 -48 74z" />
    <glyph glyph-name="zeroinferior" unicode="&#x2080;" horiz-adv-x="250" 
d="M48 -152h-1c-63 0 -78 61 -78 120c0 113 53 280 152 280c66 0 78 -63 78 -111c0 -104 -46 -289 -151 -289zM54 -118h1c70 0 104 187 104 257c0 30 -5 75 -42 75c-69 0 -108 -162 -108 -246c0 -46 7 -86 45 -86z" />
    <glyph glyph-name="oneinferior" unicode="&#x2081;" horiz-adv-x="179" 
d="M45 -147h-37l67 349h-2l-83 -42l-1 34l101 49h30z" />
    <glyph glyph-name="twoinferior" unicode="&#x2082;" horiz-adv-x="235" 
d="M144 -147h-211l6 26l38 35c70 65 161 153 161 232c0 45 -23 67 -61 67c-26 0 -52 -14 -66 -25l-13 28c16 13 50 32 89 32c56 0 92 -37 92 -99c0 -85 -81 -162 -139 -218l-42 -41v-2h153z" />
    <glyph glyph-name="threeinferior" unicode="&#x2083;" horiz-adv-x="219" 
d="M9 189l-10 28c17 16 51 31 82 31c47 0 82 -27 82 -83c0 -43 -34 -77 -76 -95l-1 -2c34 -14 64 -44 61 -97c-3 -69 -54 -123 -135 -123c-35 0 -66 12 -84 25l15 31c15 -9 39 -22 75 -22c53 0 87 36 87 94c0 52 -35 75 -87 75h-5l5 29h6c51 0 99 35 99 85
c0 34 -21 50 -50 50c-27 0 -49 -13 -64 -26z" />
    <glyph glyph-name="fourinferior" unicode="&#x2084;" horiz-adv-x="246" 
d="M111 -147h-37l22 118h-145l4 20l193 257h38l-47 -246h49l-6 -31h-49zM102 2l23 119c7 34 15 60 19 77h-2c-21 -31 -34 -49 -55 -79l-81 -114l-1 -3h97z" />
    <glyph glyph-name="fiveinferior" unicode="&#x2085;" horiz-adv-x="222" 
d="M189 243l-8 -36h-108l-34 -108c4 1 9 0 13 0c15 0 44 -7 63 -23c22 -18 33 -47 33 -80c0 -85 -64 -148 -144 -148c-28 0 -52 7 -62 14l12 33c10 -6 30 -12 52 -12c58 0 101 48 101 106c0 53 -30 78 -82 78c-13 0 -21 -1 -31 -2l52 178h143z" />
    <glyph glyph-name="sixinferior" unicode="&#x2086;" horiz-adv-x="247" 
d="M195 248l-4 -35c-4 0 -11 -1 -18 -2c-65 -13 -122 -60 -150 -149h1c21 26 50 42 79 42c52 0 78 -44 78 -97c0 -70 -46 -159 -123 -159c-63 0 -89 51 -89 118c0 85 41 174 88 219c24 23 55 43 91 54c15 5 31 8 47 9zM60 -120h1c52 0 78 74 78 125c0 44 -18 66 -51 66
c-24 0 -52 -17 -70 -48c-3 -5 -5 -11 -6 -16c-3 -14 -4 -29 -4 -47c0 -46 17 -80 52 -80z" />
    <glyph glyph-name="seveninferior" unicode="&#x2087;" horiz-adv-x="219" 
d="M6 243h199l-5 -26c-35 -70 -167 -294 -207 -364h-43c39 68 169 285 205 353l-1 1h-155z" />
    <glyph glyph-name="eightinferior" unicode="&#x2088;" horiz-adv-x="254" 
d="M122 248h1c52 0 80 -37 80 -79c0 -51 -32 -87 -73 -109v-1c31 -22 51 -55 51 -97c0 -67 -55 -114 -117 -114c-58 0 -95 38 -95 91c0 63 45 102 88 123v2c-29 25 -41 50 -41 79c0 56 46 105 106 105zM67 -121h1c42 0 73 37 73 82c0 39 -20 64 -55 83
c-36 -14 -76 -51 -76 -101c0 -36 19 -64 57 -64zM118 217h-1c-35 0 -62 -32 -62 -72c0 -32 17 -52 46 -69c39 20 63 52 63 88c0 29 -12 53 -46 53z" />
    <glyph glyph-name="nineinferior" unicode="&#x2089;" horiz-adv-x="243" 
d="M-31 -152l2 35c7 0 17 1 28 4c23 5 46 18 67 36c28 24 53 61 70 111h-1c-20 -22 -47 -36 -74 -36c-54 0 -78 44 -78 94c0 73 52 156 125 156c62 0 84 -52 84 -107c0 -90 -44 -185 -90 -231c-29 -30 -68 -50 -102 -58c-12 -3 -21 -4 -31 -4zM104 216h-1
c-48 0 -79 -69 -79 -119c0 -46 19 -67 49 -67c26 0 51 17 66 42c3 5 5 10 7 19c3 13 6 30 6 51c0 42 -11 74 -48 74z" />
    <glyph glyph-name="centinferior" unicode="&#xf6df;" horiz-adv-x="217" 
d="M63 -153h-30l11 60c-24 5 -42 19 -53 37c-10 17 -15 42 -15 65c0 83 51 169 124 182l11 57h30l-11 -55c15 0 34 -6 42 -13l-14 -30c-11 7 -26 10 -43 10c-55 0 -98 -76 -98 -149c0 -41 18 -73 58 -73c19 0 35 6 48 12l4 -30c-13 -8 -34 -14 -53 -14z" />
    <glyph glyph-name="dollarinferior" unicode="&#xf6e3;" horiz-adv-x="217" 
d="M33 -197h-30l11 60c-27 2 -53 12 -65 22l13 32c15 -10 36 -22 65 -22c45 0 74 31 74 70c0 33 -13 53 -43 75c-38 28 -62 56 -62 95c0 48 34 92 91 99l11 57h30l-11 -57c24 -1 45 -10 55 -18l-15 -31c-11 7 -29 18 -55 18c-39 0 -66 -26 -66 -62c0 -32 17 -48 50 -72
c38 -27 56 -58 56 -94c0 -66 -41 -106 -97 -112z" />
    <glyph glyph-name="periodinferior" unicode="&#xf6e7;" horiz-adv-x="115" 
d="M-11 -152h-1c-16 0 -26 12 -26 30c0 19 13 35 31 35c19 0 28 -14 28 -30c0 -19 -14 -35 -32 -35z" />
    <glyph glyph-name="commainferior" unicode="&#xf6e1;" horiz-adv-x="115" 
d="M-49 -218l-31 -4c17 32 43 96 54 137l49 6c-19 -48 -54 -115 -72 -139z" />
    <glyph glyph-name="commaaccent" unicode="&#xf6c3;" 
d="M26 -207l-8 25c39 8 81 33 81 78c0 24 -13 43 -27 53l42 9c12 -9 26 -32 26 -55c0 -64 -52 -100 -114 -110z" />
    <glyph glyph-name="Abreve" unicode="&#x102;" horiz-adv-x="413" 
d="M292 233h-167l-96 -233h-41l283 674h39l31 -674h-39zM140 269h151l-8 190c-2 52 -2 100 -3 152h-4c-19 -53 -37 -103 -58 -153zM213 802h30c-2 -28 21 -54 59 -54c40 0 72 26 77 54h30c-5 -47 -43 -89 -110 -89s-95 42 -86 89z" />
    <glyph glyph-name="Amacron" unicode="&#x100;" horiz-adv-x="413" 
d="M292 233h-167l-96 -233h-41l283 674h39l31 -674h-39zM140 269h151l-8 190c-2 52 -2 100 -3 152h-4c-19 -53 -37 -103 -58 -153zM211 770h187l-7 -36h-187z" />
    <glyph glyph-name="Aogonek" unicode="&#x104;" horiz-adv-x="413" 
d="M310 674l31 -674h-7c-27 -31 -60 -80 -60 -121c0 -24 16 -41 39 -41c18 0 28 4 41 11l8 -27c-16 -13 -43 -20 -65 -20c-39 0 -64 26 -64 70c0 50 39 100 69 135l-10 226h-167l-96 -233h-41l283 674h39zM140 269h151l-8 190c-2 52 -2 100 -3 152h-4
c-19 -53 -37 -103 -58 -153z" />
    <glyph glyph-name="AEacute" unicode="&#x1fc;" horiz-adv-x="522" 
d="M9 0h-42l329 674h257l-8 -36h-187l-37 -266h175l-7 -36h-172l-39 -300h186l-8 -36h-221l30 246h-138zM145 282h125l32 229c6 46 14 93 21 132h-5c-20 -39 -43 -86 -66 -135zM457 815h65l-126 -105h-41z" />
    <glyph glyph-name="Cacute" unicode="&#x106;" horiz-adv-x="340" 
d="M273 45l9 -34c-20 -11 -52 -17 -87 -17c-120 0 -161 108 -161 237c0 113 30 270 127 370c56 58 117 79 169 79c28 0 52 -5 61 -11l-13 -36c-14 6 -34 9 -51 9c-54 0 -102 -24 -139 -66c-70 -80 -112 -212 -112 -330c0 -126 28 -215 128 -215c28 0 54 7 69 14zM351 815h65
l-126 -105h-41z" />
    <glyph glyph-name="Ccaron" unicode="&#x10c;" horiz-adv-x="340" 
d="M273 45l9 -34c-20 -11 -52 -17 -87 -17c-120 0 -161 108 -161 237c0 113 30 270 127 370c56 58 117 79 169 79c28 0 52 -5 61 -11l-13 -36c-14 6 -34 9 -51 9c-54 0 -102 -24 -139 -66c-70 -80 -112 -212 -112 -330c0 -126 28 -215 128 -215c28 0 54 7 69 14zM320 710
h-40l-62 105h42l42 -76h2l67 76h45z" />
    <glyph glyph-name="Ccircumflex" unicode="&#x108;" horiz-adv-x="340" 
d="M273 45l9 -34c-20 -11 -52 -17 -87 -17c-120 0 -161 108 -161 237c0 113 30 270 127 370c56 58 117 79 169 79c28 0 52 -5 61 -11l-13 -36c-14 6 -34 9 -51 9c-54 0 -102 -24 -139 -66c-70 -80 -112 -212 -112 -330c0 -126 28 -215 128 -215c28 0 54 7 69 14zM282 815h40
l62 -105h-42l-42 76h-2l-67 -76h-45z" />
    <glyph glyph-name="Cdotaccent" unicode="&#x10a;" horiz-adv-x="340" 
d="M273 45l9 -34c-20 -11 -52 -17 -87 -17c-120 0 -161 108 -161 237c0 113 30 270 127 370c56 58 117 79 169 79c28 0 52 -5 61 -11l-13 -36c-14 6 -34 9 -51 9c-54 0 -102 -24 -139 -66c-70 -80 -112 -212 -112 -330c0 -126 28 -215 128 -215c28 0 54 7 69 14zM303 731h-1
c-19 0 -31 13 -31 33s17 38 38 38c25 0 32 -17 32 -32c0 -19 -15 -39 -38 -39z" />
    <glyph glyph-name="Dcaron" unicode="&#x10e;" horiz-adv-x="410" 
d="M11 5l125 663c30 6 58 9 84 9c65 0 114 -25 142 -64s41 -90 40 -158c0 -149 -53 -314 -129 -388c-55 -53 -120 -70 -176 -70c-37 0 -63 2 -86 8zM170 637l-113 -600c10 -2 26 -4 41 -4c56 0 107 19 158 74c58 62 104 213 104 348c0 127 -49 186 -146 186
c-22 0 -33 -2 -44 -4zM270 710h-40l-62 105h42l42 -76h2l67 76h45z" />
    <glyph glyph-name="Dcroat" unicode="&#x110;" horiz-adv-x="422" 
d="M14 336l7 36h72l55 295c31 7 58 10 84 10c66 0 115 -25 142 -64c28 -39 41 -90 40 -158c0 -149 -53 -314 -129 -387c-54 -51 -121 -71 -178 -71c-35 0 -61 2 -84 8l63 331h-72zM257 372l-7 -36h-124l-57 -299c10 -2 26 -4 42 -4c55 0 106 19 157 74
c58 62 104 213 104 348c0 128 -45 186 -146 186c-22 0 -33 -2 -44 -4l-49 -265h124z" />
    <glyph glyph-name="Ebreve" unicode="&#x114;" horiz-adv-x="322" 
d="M297 372l-7 -36h-177l-56 -300h202l-7 -36h-241l127 674h229l-7 -36h-189l-51 -266h177zM173 808h30c-2 -28 21 -54 59 -54c40 0 72 26 77 54h30c-5 -47 -43 -89 -110 -89s-95 42 -86 89z" />
    <glyph glyph-name="Ecaron" unicode="&#x11a;" horiz-adv-x="322" 
d="M297 372l-7 -36h-177l-56 -300h202l-7 -36h-241l127 674h229l-7 -36h-189l-51 -266h177zM276 710h-40l-62 105h42l42 -76h2l67 76h45z" />
    <glyph glyph-name="Edotaccent" unicode="&#x116;" horiz-adv-x="322" 
d="M297 372l-7 -36h-177l-56 -300h202l-7 -36h-241l127 674h229l-7 -36h-189l-51 -266h177zM254 731h-1c-19 0 -31 13 -31 33s17 38 38 38c25 0 32 -17 32 -32c0 -19 -15 -39 -38 -39z" />
    <glyph glyph-name="Emacron" unicode="&#x112;" horiz-adv-x="322" 
d="M297 372l-7 -36h-177l-56 -300h202l-7 -36h-241l127 674h229l-7 -36h-189l-51 -266h177zM165 770h187l-7 -36h-187z" />
    <glyph glyph-name="Eng" unicode="&#x14a;" horiz-adv-x="423" 
d="M174 -161l-3 34c49 6 83 34 102 127l-81 412c-10 52 -23 123 -32 201h-2c-9 -71 -21 -140 -32 -198l-78 -415h-37l127 674h41l80 -423c11 -56 23 -118 33 -183h2c10 71 17 128 28 186l80 420h37l-121 -643c-26 -138 -69 -185 -144 -192z" />
    <glyph glyph-name="Eogonek" unicode="&#x118;" horiz-adv-x="322" 
d="M11 0l127 674h229l-7 -36h-189l-51 -266h177l-7 -36h-177l-56 -300h202l-7 -36h-10c-47 -36 -97 -83 -97 -126c0 -19 13 -36 36 -36c18 0 31 3 44 9l10 -27c-16 -11 -40 -18 -65 -18c-39 0 -66 23 -66 65c0 55 62 106 97 133h-190z" />
    <glyph glyph-name="Gbreve" unicode="&#x11e;" horiz-adv-x="404" 
d="M372 336l-61 -322c-27 -13 -60 -20 -96 -20c-63 0 -108 28 -136 70c-29 43 -41 107 -41 171c0 115 34 271 134 369c57 56 123 76 179 76c32 0 51 -5 68 -12l-14 -36c-17 7 -36 10 -63 10c-51 0 -98 -18 -150 -70c-70 -70 -112 -217 -112 -329c0 -123 36 -212 142 -212
c22 0 42 4 55 10l48 259h-102l7 36h142zM228 822h30c-2 -28 21 -54 59 -54c40 0 72 26 77 54h30c-5 -47 -43 -89 -110 -89s-95 42 -86 89z" />
    <glyph glyph-name="Gcircumflex" unicode="&#x11c;" horiz-adv-x="404" 
d="M372 336l-61 -322c-27 -13 -60 -20 -96 -20c-63 0 -108 28 -136 70c-29 43 -41 107 -41 171c0 115 34 271 134 369c57 56 123 76 179 76c32 0 51 -5 68 -12l-14 -36c-17 7 -36 10 -63 10c-51 0 -98 -18 -150 -70c-70 -70 -112 -217 -112 -329c0 -123 36 -212 142 -212
c22 0 42 4 55 10l48 259h-102l7 36h142zM314 815h40l62 -105h-42l-42 76h-2l-67 -76h-45z" />
    <glyph glyph-name="Gcommaaccent" unicode="&#x122;" horiz-adv-x="404" 
d="M372 336l-61 -322c-27 -13 -60 -20 -96 -20c-63 0 -108 28 -136 70c-29 43 -41 107 -41 171c0 115 34 271 134 369c57 56 123 76 179 76c32 0 51 -5 68 -12l-14 -36c-17 7 -36 10 -63 10c-51 0 -98 -18 -150 -70c-70 -70 -112 -217 -112 -329c0 -123 36 -212 142 -212
c22 0 42 4 55 10l48 259h-102l7 36h142zM108 -207l-8 25c39 8 81 33 81 78c0 24 -13 43 -27 53l42 9c12 -9 26 -32 26 -55c0 -64 -52 -100 -114 -110z" />
    <glyph glyph-name="Gdotaccent" unicode="&#x120;" horiz-adv-x="404" 
d="M372 336l-61 -322c-27 -13 -60 -20 -96 -20c-63 0 -108 28 -136 70c-29 43 -41 107 -41 171c0 115 34 271 134 369c57 56 123 76 179 76c32 0 51 -5 68 -12l-14 -36c-17 7 -36 10 -63 10c-51 0 -98 -18 -150 -70c-70 -70 -112 -217 -112 -329c0 -123 36 -212 142 -212
c22 0 42 4 55 10l48 259h-102l7 36h142zM325 731h-1c-19 0 -31 13 -31 33s17 38 38 38c25 0 32 -17 32 -32c0 -19 -15 -39 -38 -39z" />
    <glyph glyph-name="Hbar" unicode="&#x126;" horiz-adv-x="421" 
d="M362 486h-220l-22 -114h220zM54 520h55l29 154h40l-30 -154h220l29 154h40l-29 -154h45l-7 -34h-45l-92 -486h-39l63 336h-220l-63 -336h-39l92 486h-56z" />
    <glyph glyph-name="Hcircumflex" unicode="&#x124;" horiz-adv-x="421" 
d="M138 674h40l-58 -302h220l57 302h40l-128 -674h-39l63 336h-220l-63 -336h-39zM293 815h40l62 -105h-42l-42 76h-2l-67 -76h-45z" />
    <glyph glyph-name="Ibreve" unicode="&#x12c;" horiz-adv-x="163" 
d="M138 674h40l-128 -674h-39zM88 812h30c-2 -28 21 -54 59 -54c40 0 72 26 77 54h30c-5 -47 -43 -89 -110 -89s-95 42 -86 89z" />
    <glyph glyph-name="IJ" unicode="&#x132;" horiz-adv-x="402" 
d="M138 674h40l-128 -674h-39zM288 162l97 512h39l-99 -525c-25 -134 -79 -157 -141 -157c-21 0 -41 3 -56 10l9 35c11 -4 26 -8 44 -8c62 0 89 36 107 133z" />
    <glyph glyph-name="Imacron" unicode="&#x12a;" horiz-adv-x="163" 
d="M138 674h40l-128 -674h-39zM86 770h187l-7 -36h-187z" />
    <glyph glyph-name="Iogonek" unicode="&#x12e;" horiz-adv-x="163" 
d="M178 674l-128 -674h-6c-27 -31 -60 -80 -60 -121c0 -24 16 -41 39 -41c18 0 28 4 41 11l8 -27c-16 -13 -43 -20 -65 -20c-39 0 -64 26 -64 70c0 50 39 100 69 135l126 667h40z" />
    <glyph glyph-name="Itilde" unicode="&#x128;" horiz-adv-x="163" 
d="M138 674h40l-128 -674h-39zM105 718h-30c4 46 28 80 64 80c18 0 30 -9 42 -17c14 -9 24 -18 39 -18c17 0 27 9 33 36h29c-5 -40 -23 -75 -67 -75c-17 0 -32 9 -44 18c-12 8 -23 17 -35 17c-18 0 -25 -14 -31 -41z" />
    <glyph glyph-name="Jcircumflex" unicode="&#x134;" horiz-adv-x="239" 
d="M125 162l97 512h39l-99 -525c-25 -134 -79 -157 -141 -157c-21 0 -41 3 -56 10l9 35c11 -4 26 -8 44 -8c62 0 89 36 107 133zM231 815h40l62 -105h-42l-42 76h-2l-67 -76h-45z" />
    <glyph glyph-name="Kcommaaccent" unicode="&#x136;" horiz-adv-x="352" 
d="M11 0l127 674h40l-64 -333h2c25 31 43 59 62 83l193 250h48l-227 -284l106 -390h-40l-97 355l-56 -65l-55 -290h-39zM52 -207l-8 25c39 8 81 33 81 78c0 24 -13 43 -27 53l42 9c12 -9 26 -32 26 -55c0 -64 -52 -100 -114 -110z" />
    <glyph glyph-name="Lacute" unicode="&#x139;" horiz-adv-x="305" 
d="M11 0l127 674h40l-121 -638h198l-7 -36h-237zM250 815h65l-126 -105h-41z" />
    <glyph glyph-name="Lcaron" unicode="&#x13d;" horiz-adv-x="305" 
d="M11 0l127 674h40l-121 -638h198l-7 -36h-237zM209 511l-8 25c39 8 81 33 81 78c0 24 -13 43 -27 53l42 9c12 -9 26 -32 26 -55c0 -64 -52 -100 -114 -110z" />
    <glyph glyph-name="Lcommaaccent" unicode="&#x13b;" horiz-adv-x="305" 
d="M11 0l127 674h40l-121 -638h198l-7 -36h-237zM29 -207l-8 25c39 8 81 33 81 78c0 24 -13 43 -27 53l42 9c12 -9 26 -32 26 -55c0 -64 -52 -100 -114 -110z" />
    <glyph glyph-name="Ldot" unicode="&#x13f;" horiz-adv-x="305" 
d="M11 0l127 674h40l-121 -638h198l-7 -36h-237zM235 321h-1c-19 0 -31 13 -31 33s17 38 38 38c25 0 32 -17 32 -32c0 -19 -15 -39 -38 -39z" />
    <glyph glyph-name="Nacute" unicode="&#x143;" horiz-adv-x="423" 
d="M48 0h-37l127 674h41l80 -423c11 -56 23 -118 33 -183h2c10 71 17 128 28 186l80 420h37l-127 -674h-39l-81 412c-10 52 -23 123 -32 201h-2c-9 -71 -21 -140 -32 -198zM348 815h65l-126 -105h-41z" />
    <glyph glyph-name="Ncaron" unicode="&#x147;" horiz-adv-x="423" 
d="M48 0h-37l127 674h41l80 -423c11 -56 23 -118 33 -183h2c10 71 17 128 28 186l80 420h37l-127 -674h-39l-81 412c-10 52 -23 123 -32 201h-2c-9 -71 -21 -140 -32 -198zM307 710h-40l-62 105h42l42 -76h2l67 76h45z" />
    <glyph glyph-name="Ncommaaccent" unicode="&#x145;" horiz-adv-x="423" 
d="M48 0h-37l127 674h41l80 -423c11 -56 23 -118 33 -183h2c10 71 17 128 28 186l80 420h37l-127 -674h-39l-81 412c-10 52 -23 123 -32 201h-2c-9 -71 -21 -140 -32 -198zM88 -207l-8 25c39 8 81 33 81 78c0 24 -13 43 -27 53l42 9c12 -9 26 -32 26 -55
c0 -64 -52 -100 -114 -110z" />
    <glyph glyph-name="Obreve" unicode="&#x14e;" horiz-adv-x="417" 
d="M165 -8h-1c-119 0 -129 137 -129 208c0 124 48 340 140 431c36 36 76 51 111 51c116 0 124 -132 124 -220c0 -115 -48 -332 -134 -418c-36 -36 -75 -52 -111 -52zM169 29h1c27 0 51 13 73 35c86 87 125 310 125 388c0 104 -5 193 -90 193c-27 0 -52 -13 -74 -35
c-83 -84 -127 -296 -127 -395c0 -70 2 -186 92 -186zM215 822h30c-2 -28 21 -54 59 -54c40 0 72 26 77 54h30c-5 -47 -43 -89 -110 -89s-95 42 -86 89z" />
    <glyph glyph-name="Ohungarumlaut" unicode="&#x150;" horiz-adv-x="417" 
d="M165 -8h-1c-119 0 -129 137 -129 208c0 124 48 340 140 431c36 36 76 51 111 51c116 0 124 -132 124 -220c0 -115 -48 -332 -134 -418c-36 -36 -75 -52 -111 -52zM169 29h1c27 0 51 13 73 35c86 87 125 310 125 388c0 104 -5 193 -90 193c-27 0 -52 -13 -74 -35
c-83 -84 -127 -296 -127 -395c0 -70 2 -186 92 -186zM313 815h64l-122 -92h-42zM428 815h64l-122 -92h-42z" />
    <glyph glyph-name="Omacron" unicode="&#x14c;" horiz-adv-x="417" 
d="M165 -8h-1c-119 0 -129 137 -129 208c0 124 48 340 140 431c36 36 76 51 111 51c116 0 124 -132 124 -220c0 -115 -48 -332 -134 -418c-36 -36 -75 -52 -111 -52zM169 29h1c27 0 51 13 73 35c86 87 125 310 125 388c0 104 -5 193 -90 193c-27 0 -52 -13 -74 -35
c-83 -84 -127 -296 -127 -395c0 -70 2 -186 92 -186zM213 770h187l-7 -36h-187z" />
    <glyph glyph-name="Oslashacute" unicode="&#x1fe;" horiz-adv-x="417" 
d="M16 -28l-25 19l59 96c-13 39 -15 81 -15 121c0 131 45 314 111 397c43 54 89 77 136 77c48 0 79 -24 98 -59l48 79l28 -18l-61 -99c11 -38 13 -85 13 -123c0 -104 -41 -306 -108 -393c-42 -53 -86 -77 -136 -77c-47 0 -81 25 -99 60zM81 137l273 443
c-13 37 -36 65 -83 65c-84 0 -140 -126 -169 -248c-21 -90 -29 -157 -23 -260h2zM361 532l-270 -439c11 -34 36 -64 81 -64c85 0 138 121 167 237c21 84 33 166 25 266h-3zM360 815h65l-126 -105h-41z" />
    <glyph glyph-name="Racute" unicode="&#x154;" horiz-adv-x="361" 
d="M11 0l125 668c29 6 59 9 89 9c50 0 85 -17 106 -40c23 -26 33 -60 33 -100c0 -92 -58 -181 -143 -208v-2c44 -16 66 -68 67 -164c1 -103 6 -144 10 -163h-40c-6 21 -6 82 -9 170c-4 102 -29 143 -102 143h-38l-59 -313h-39zM170 636l-55 -289h40c91 0 166 78 166 190
c0 62 -29 104 -105 104c-16 0 -33 -1 -46 -5zM312 815h65l-126 -105h-41z" />
    <glyph glyph-name="Rcaron" unicode="&#x158;" horiz-adv-x="361" 
d="M11 0l125 668c29 6 59 9 89 9c50 0 85 -17 106 -40c23 -26 33 -60 33 -100c0 -92 -58 -181 -143 -208v-2c44 -16 66 -68 67 -164c1 -103 6 -144 10 -163h-40c-6 21 -6 82 -9 170c-4 102 -29 143 -102 143h-38l-59 -313h-39zM170 636l-55 -289h40c91 0 166 78 166 190
c0 62 -29 104 -105 104c-16 0 -33 -1 -46 -5zM261 710h-40l-62 105h42l42 -76h2l67 76h45z" />
    <glyph glyph-name="Rcommaaccent" unicode="&#x156;" horiz-adv-x="361" 
d="M11 0l125 668c29 6 59 9 89 9c50 0 85 -17 106 -40c23 -26 33 -60 33 -100c0 -92 -58 -181 -143 -208v-2c44 -16 66 -68 67 -164c1 -103 6 -144 10 -163h-40c-6 21 -6 82 -9 170c-4 102 -29 143 -102 143h-38l-59 -313h-39zM170 636l-55 -289h40c91 0 166 78 166 190
c0 62 -29 104 -105 104c-16 0 -33 -1 -46 -5zM57 -207l-8 25c39 8 81 33 81 78c0 24 -13 43 -27 53l42 9c12 -9 26 -32 26 -55c0 -64 -52 -100 -114 -110z" />
    <glyph glyph-name="Sacute" unicode="&#x15a;" horiz-adv-x="322" 
d="M-6 22l15 36c19 -14 52 -26 88 -26c95 0 139 76 139 157c0 58 -26 104 -71 150c-47 48 -85 101 -85 168c0 93 68 173 172 173c34 0 67 -11 82 -22l-15 -34c-20 11 -42 18 -75 18c-75 0 -121 -59 -122 -131c0 -59 35 -104 74 -143c41 -41 82 -100 82 -172
c0 -111 -63 -202 -188 -202c-40 0 -82 15 -96 28zM297 815h65l-126 -105h-41z" />
    <glyph glyph-name="Scedilla" unicode="&#x15e;" horiz-adv-x="322" 
d="M334 658l-15 -34c-20 11 -42 18 -75 18c-75 0 -121 -59 -122 -131c0 -59 35 -104 74 -143c41 -41 82 -100 82 -172c0 -95 -46 -176 -138 -197l-37 -55c29 -10 53 -33 53 -69c0 -43 -37 -73 -82 -73c-28 0 -51 8 -63 19l13 31c17 -10 33 -15 50 -15c26 0 46 13 46 37
c0 28 -34 43 -65 48l47 72h-12c-40 0 -82 15 -96 28l15 36c19 -14 52 -26 88 -26c95 0 139 76 139 157c0 58 -26 104 -71 150c-47 48 -85 101 -85 168c0 93 68 173 172 173c34 0 67 -11 82 -22z" />
    <glyph glyph-name="Scedilla" unicode="&#xf6c1;" horiz-adv-x="322" 
d="M334 658l-15 -34c-20 11 -42 18 -75 18c-75 0 -121 -59 -122 -131c0 -59 35 -104 74 -143c41 -41 82 -100 82 -172c0 -95 -46 -176 -138 -197l-37 -55c29 -10 53 -33 53 -69c0 -43 -37 -73 -82 -73c-28 0 -51 8 -63 19l13 31c17 -10 33 -15 50 -15c26 0 46 13 46 37
c0 28 -34 43 -65 48l47 72h-12c-40 0 -82 15 -96 28l15 36c19 -14 52 -26 88 -26c95 0 139 76 139 157c0 58 -26 104 -71 150c-47 48 -85 101 -85 168c0 93 68 173 172 173c34 0 67 -11 82 -22z" />
    <glyph glyph-name="Scircumflex" unicode="&#x15c;" horiz-adv-x="322" 
d="M-6 22l15 36c19 -14 52 -26 88 -26c95 0 139 76 139 157c0 58 -26 104 -71 150c-47 48 -85 101 -85 168c0 93 68 173 172 173c34 0 67 -11 82 -22l-15 -34c-20 11 -42 18 -75 18c-75 0 -121 -59 -122 -131c0 -59 35 -104 74 -143c41 -41 82 -100 82 -172
c0 -111 -63 -202 -188 -202c-40 0 -82 15 -96 28zM243 815h40l62 -105h-42l-42 76h-2l-67 -76h-45z" />
    <glyph glyph-name="Scommaaccent" unicode="&#x218;" horiz-adv-x="322" 
d="M-6 22l15 36c19 -14 52 -26 88 -26c95 0 139 76 139 157c0 58 -26 104 -71 150c-47 48 -85 101 -85 168c0 93 68 173 172 173c34 0 67 -11 82 -22l-15 -34c-20 11 -42 18 -75 18c-75 0 -121 -59 -122 -131c0 -59 35 -104 74 -143c41 -41 82 -100 82 -172
c0 -111 -63 -202 -188 -202c-40 0 -82 15 -96 28zM37 -207l-8 25c39 8 81 33 81 78c0 24 -13 43 -27 53l42 9c12 -9 26 -32 26 -55c0 -64 -52 -100 -114 -110z" />
    <glyph glyph-name="Tbar" unicode="&#x166;" horiz-adv-x="323" 
d="M284 338h-89l-64 -338h-39l64 338h-87l7 35h86l50 265h-124l7 36h287l-7 -36h-124l-50 -265h90z" />
    <glyph glyph-name="Tcaron" unicode="&#x164;" horiz-adv-x="323" 
d="M92 0l120 638h-124l7 36h287l-7 -36h-124l-120 -638h-39zM267 710h-40l-62 105h42l42 -76h2l67 76h45z" />
    <glyph glyph-name="Tcommaaccent" unicode="&#x162;" horiz-adv-x="323" 
d="M92 0l120 638h-124l7 36h287l-7 -36h-124l-120 -638h-39zM32 -207l-8 25c39 8 81 33 81 78c0 24 -13 43 -27 53l42 9c12 -9 26 -32 26 -55c0 -64 -52 -100 -114 -110z" />
    <glyph glyph-name="Tcommaaccent" unicode="&#x21a;" horiz-adv-x="323" 
d="M92 0l120 638h-124l7 36h287l-7 -36h-124l-120 -638h-39zM32 -207l-8 25c39 8 81 33 81 78c0 24 -13 43 -27 53l42 9c12 -9 26 -32 26 -55c0 -64 -52 -100 -114 -110z" />
    <glyph glyph-name="Ubreve" unicode="&#x16c;" horiz-adv-x="421" 
d="M138 674h40l-87 -460c-6 -29 -8 -54 -8 -82c0 -68 38 -103 88 -103c76 0 115 57 138 181l88 464h40l-88 -464c-31 -166 -91 -218 -184 -218c-64 0 -123 43 -123 133c0 24 2 52 8 84zM207 812h30c-2 -28 21 -54 59 -54c40 0 72 26 77 54h30c-5 -47 -43 -89 -110 -89
s-95 42 -86 89z" />
    <glyph glyph-name="Uhungarumlaut" unicode="&#x170;" horiz-adv-x="421" 
d="M138 674h40l-87 -460c-6 -29 -8 -54 -8 -82c0 -68 38 -103 88 -103c76 0 115 57 138 181l88 464h40l-88 -464c-31 -166 -91 -218 -184 -218c-64 0 -123 43 -123 133c0 24 2 52 8 84zM299 815h64l-122 -92h-42zM414 815h64l-122 -92h-42z" />
    <glyph glyph-name="Umacron" unicode="&#x16a;" horiz-adv-x="421" 
d="M138 674h40l-87 -460c-6 -29 -8 -54 -8 -82c0 -68 38 -103 88 -103c76 0 115 57 138 181l88 464h40l-88 -464c-31 -166 -91 -218 -184 -218c-64 0 -123 43 -123 133c0 24 2 52 8 84zM209 770h187l-7 -36h-187z" />
    <glyph glyph-name="Uogonek" unicode="&#x172;" horiz-adv-x="421" 
d="M222 -137l10 -27c-16 -13 -40 -20 -65 -20c-39 0 -66 28 -66 70c0 39 37 80 73 106h-9c-64 0 -123 43 -123 133c0 24 2 52 8 84l88 465h40l-87 -460c-6 -29 -8 -54 -8 -82c0 -68 38 -103 88 -103c76 0 115 57 138 181l88 464h40l-88 -464c-22 -114 -56 -174 -107 -201
c-21 -11 -47 -31 -64 -48c-20 -20 -36 -44 -36 -68s13 -41 36 -41c18 0 31 4 44 11z" />
    <glyph glyph-name="Uring" unicode="&#x16e;" horiz-adv-x="421" 
d="M138 674h40l-87 -460c-6 -29 -8 -54 -8 -82c0 -68 38 -103 88 -103c76 0 115 57 138 181l88 464h40l-88 -464c-31 -166 -91 -218 -184 -218c-64 0 -123 43 -123 133c0 24 2 52 8 84zM306 863h1c51 0 83 -29 83 -80c0 -60 -54 -89 -94 -89c-47 0 -82 31 -82 76
c0 55 45 93 92 93zM306 834h-1c-27 0 -55 -22 -55 -60c0 -32 19 -50 49 -50c27 0 54 22 54 59c0 29 -17 51 -47 51z" />
    <glyph glyph-name="Utilde" unicode="&#x168;" horiz-adv-x="421" 
d="M138 674h40l-87 -460c-6 -29 -8 -54 -8 -82c0 -68 38 -103 88 -103c76 0 115 57 138 181l88 464h40l-88 -464c-31 -166 -91 -218 -184 -218c-64 0 -123 43 -123 133c0 24 2 52 8 84zM234 718h-30c4 46 28 80 64 80c18 0 30 -9 42 -17c14 -9 24 -18 39 -18
c17 0 27 9 33 36h29c-5 -40 -23 -75 -67 -75c-17 0 -32 9 -44 18c-12 8 -23 17 -35 17c-18 0 -25 -14 -31 -41z" />
    <glyph glyph-name="Wacute" unicode="&#x1e82;" horiz-adv-x="634" 
d="M145 0h-34l-9 674h40l4 -458c0 -62 -4 -96 -7 -142h4c13 44 26 85 48 142l178 458h39l5 -458c1 -63 -3 -96 -4 -142h3c15 44 26 85 47 141l176 459h42l-264 -674h-36l-4 477c0 38 3 79 5 138h-2c-19 -59 -29 -100 -44 -138zM458 815h65l-126 -105h-41z" />
    <glyph glyph-name="Wcircumflex" unicode="&#x174;" horiz-adv-x="634" 
d="M145 0h-34l-9 674h40l4 -458c0 -62 -4 -96 -7 -142h4c13 44 26 85 48 142l178 458h39l5 -458c1 -63 -3 -96 -4 -142h3c15 44 26 85 47 141l176 459h42l-264 -674h-36l-4 477c0 38 3 79 5 138h-2c-19 -59 -29 -100 -44 -138zM391 815h40l62 -105h-42l-42 76h-2l-67 -76
h-45z" />
    <glyph glyph-name="Wdieresis" unicode="&#x1e84;" horiz-adv-x="634" 
d="M145 0h-34l-9 674h40l4 -458c0 -62 -4 -96 -7 -142h4c13 44 26 85 48 142l178 458h39l5 -458c1 -63 -3 -96 -4 -142h3c15 44 26 85 47 141l176 459h42l-264 -674h-36l-4 477c0 38 3 79 5 138h-2c-19 -59 -29 -100 -44 -138zM328 731h-1c-19 0 -31 13 -31 33s17 38 38 38
c25 0 32 -17 32 -32c0 -19 -15 -39 -38 -39zM471 731h-1c-19 0 -31 13 -31 33s17 38 38 38c25 0 32 -17 32 -32c0 -19 -15 -39 -38 -39z" />
    <glyph glyph-name="Wgrave" unicode="&#x1e80;" horiz-adv-x="634" 
d="M145 0h-34l-9 674h40l4 -458c0 -62 -4 -96 -7 -142h4c13 44 26 85 48 142l178 458h39l5 -458c1 -63 -3 -96 -4 -142h3c15 44 26 85 47 141l176 459h42l-264 -674h-36l-4 477c0 38 3 79 5 138h-2c-19 -59 -29 -100 -44 -138zM276 815h65l102 -105h-41z" />
    <glyph glyph-name="Ycircumflex" unicode="&#x176;" horiz-adv-x="391" 
d="M161 0h-40l58 302l-77 372h42l43 -221c8 -41 15 -81 19 -109h2c20 36 38 70 62 112l127 218h46l-225 -370zM268 815h40l62 -105h-42l-42 76h-2l-67 -76h-45z" />
    <glyph glyph-name="Ygrave" unicode="&#x1ef2;" horiz-adv-x="391" 
d="M161 0h-40l58 302l-77 372h42l43 -221c8 -41 15 -81 19 -109h2c20 36 38 70 62 112l127 218h46l-225 -370zM145 815h65l102 -105h-41z" />
    <glyph glyph-name="Zacute" unicode="&#x179;" horiz-adv-x="335" 
d="M-25 0l5 27l350 609v2h-216l6 36h268l-5 -25l-352 -611v-2h236l-7 -36h-285zM319 815h65l-126 -105h-41z" />
    <glyph glyph-name="Zdotaccent" unicode="&#x17b;" horiz-adv-x="335" 
d="M-25 0l5 27l350 609v2h-216l6 36h268l-5 -25l-352 -611v-2h236l-7 -36h-285zM261 731h-1c-19 0 -31 13 -31 33s17 38 38 38c25 0 32 -17 32 -32c0 -19 -15 -39 -38 -39z" />
    <glyph glyph-name="Idotaccent" unicode="&#x130;" horiz-adv-x="163" 
d="M138 674h40l-128 -674h-39zM175 731h-1c-19 0 -31 13 -31 33s17 38 38 38c25 0 32 -17 32 -32c0 -19 -15 -39 -38 -39z" />
    <glyph glyph-name="abreve" unicode="&#x103;" horiz-adv-x="352" 
d="M259 0h-39c1 28 5 55 9 98h-2c-53 -92 -93 -106 -127 -106c-47 0 -81 41 -81 130c0 146 81 366 254 366c24 0 50 -5 64 -13l-57 -279c-14 -71 -22 -141 -21 -196zM252 250l39 197c-9 3 -19 4 -32 4c-124 0 -195 -186 -198 -313c-2 -72 13 -109 49 -109
c58 0 122 120 142 221zM155 659h30c-4 -38 17 -66 55 -66c42 0 72 26 81 66h30c-7 -61 -52 -104 -114 -104c-67 0 -93 47 -82 104z" />
    <glyph glyph-name="amacron" unicode="&#x101;" horiz-adv-x="352" 
d="M259 0h-39c1 28 5 55 9 98h-2c-53 -92 -93 -106 -127 -106c-47 0 -81 41 -81 130c0 146 81 366 254 366c24 0 50 -5 64 -13l-57 -279c-14 -71 -22 -141 -21 -196zM252 250l39 197c-9 3 -19 4 -32 4c-124 0 -195 -186 -198 -313c-2 -72 13 -109 49 -109
c58 0 122 120 142 221zM151 619h187l-6 -36h-187z" />
    <glyph glyph-name="aogonek" unicode="&#x105;" horiz-adv-x="352" 
d="M337 475l-57 -279c-14 -71 -22 -141 -21 -196h-7c-27 -31 -60 -80 -60 -121c0 -24 16 -41 39 -41c18 0 28 4 41 11l8 -27c-16 -13 -43 -20 -65 -20c-39 0 -64 26 -64 70c0 50 39 100 69 135c1 25 5 50 9 91h-2c-53 -92 -93 -106 -127 -106c-47 0 -81 41 -81 130
c0 146 81 366 254 366c24 0 50 -5 64 -13zM252 250l39 197c-9 3 -19 4 -32 4c-124 0 -195 -186 -198 -313c-2 -72 13 -109 49 -109c58 0 122 120 142 221z" />
    <glyph glyph-name="aeacute" unicode="&#x1fd;" horiz-adv-x="497" 
d="M410 59l12 -28c-35 -31 -70 -39 -104 -39c-57 0 -91 34 -106 90h-2c-24 -50 -59 -90 -114 -90c-66 0 -94 58 -94 106c0 134 103 199 226 196l7 34c14 67 -2 123 -71 123c-26 0 -47 -5 -69 -17l-9 29c22 17 61 25 90 25c46 0 95 -23 95 -93h2c31 60 74 93 130 93
c67 0 85 -53 85 -87c0 -119 -108 -144 -232 -143c-11 -54 -16 -114 -8 -156c10 -53 45 -73 83 -73c30 0 56 13 79 30zM207 181l14 77c-98 2 -177 -41 -177 -156c0 -42 22 -73 59 -73c33 0 82 32 104 152zM447 396v1c0 21 -10 54 -53 54c-62 0 -105 -75 -125 -157
c118 0 178 27 178 102zM351 667h57l-107 -132h-32z" />
    <glyph glyph-name="cacute" unicode="&#x107;" horiz-adv-x="275" 
d="M209 44l7 -36c-20 -9 -45 -14 -74 -14c-90 0 -119 75 -119 171c0 120 67 323 228 323c15 0 31 -3 39 -8l-12 -36c-7 3 -18 7 -35 7c-118 0 -178 -172 -178 -284c0 -80 20 -136 86 -136c17 0 37 4 58 13zM260 667h57l-107 -132h-32z" />
    <glyph glyph-name="ccaron" unicode="&#x10d;" horiz-adv-x="275" 
d="M209 44l7 -36c-20 -9 -45 -14 -74 -14c-90 0 -119 75 -119 171c0 120 67 323 228 323c15 0 31 -3 39 -8l-12 -36c-7 3 -18 7 -35 7c-118 0 -178 -172 -178 -284c0 -80 20 -136 86 -136c17 0 37 4 58 13zM228 535h-28l-55 132h37l36 -91h2l65 91h38z" />
    <glyph glyph-name="ccircumflex" unicode="&#x109;" horiz-adv-x="275" 
d="M209 44l7 -36c-20 -9 -45 -14 -74 -14c-90 0 -119 75 -119 171c0 120 67 323 228 323c15 0 31 -3 39 -8l-12 -36c-7 3 -18 7 -35 7c-118 0 -178 -172 -178 -284c0 -80 20 -136 86 -136c17 0 37 4 58 13zM219 667h28l55 -132h-37l-36 91h-2l-65 -91h-38z" />
    <glyph glyph-name="cdotaccent" unicode="&#x10b;" horiz-adv-x="275" 
d="M209 44l7 -36c-20 -9 -45 -14 -74 -14c-90 0 -119 75 -119 171c0 120 67 323 228 323c15 0 31 -3 39 -8l-12 -36c-7 3 -18 7 -35 7c-118 0 -178 -172 -178 -284c0 -80 20 -136 86 -136c17 0 37 4 58 13zM231 565h-1c-18 0 -29 13 -29 33s16 38 36 38c23 0 30 -17 30 -32
c0 -19 -14 -39 -36 -39z" />
    <glyph glyph-name="dcaron" unicode="&#x10f;" horiz-adv-x="364" 
d="M337 692h39l-97 -517c-10 -53 -21 -132 -21 -175h-37l6 78h-2c-21 -49 -65 -86 -115 -86c-56 0 -90 55 -90 140c0 161 83 356 219 356c21 0 43 -9 55 -21zM244 199l38 224c-10 17 -28 28 -53 28c-106 0 -167 -200 -167 -310c0 -65 15 -112 61 -112c39 0 99 48 121 170z
M386 533l-8 25c29 13 61 33 61 78c0 24 -13 43 -27 53l42 9c12 -9 26 -32 26 -58c0 -61 -52 -97 -94 -107z" />
    <glyph glyph-name="dcroat" unicode="&#x111;" horiz-adv-x="354" 
d="M244 199l38 224c-10 17 -28 28 -53 28c-106 0 -167 -200 -167 -310c0 -65 15 -112 61 -112c39 0 100 48 121 170zM183 586h134l20 106h39l-20 -106h59l-7 -35h-58l-71 -376c-10 -53 -21 -132 -21 -175h-37l6 78h-2c-21 -49 -65 -86 -115 -86c-56 0 -90 55 -90 140
c0 161 83 356 219 356c21 0 43 -9 55 -21l16 84h-134z" />
    <glyph glyph-name="ebreve" unicode="&#x115;" horiz-adv-x="310" 
d="M224 58l12 -32c-30 -20 -64 -32 -97 -32c-90 0 -116 77 -116 163c0 125 70 331 197 331c59 0 81 -46 81 -95c0 -107 -101 -157 -231 -160c-3 -14 -9 -86 -2 -123c10 -53 37 -79 78 -79c35 0 60 15 78 27zM260 392v1c0 37 -17 58 -48 58c-46 0 -99 -56 -134 -182
c84 2 182 28 182 123zM134 659h30c-4 -38 17 -66 55 -66c42 0 72 26 81 66h30c-7 -61 -52 -104 -114 -104c-67 0 -93 47 -82 104z" />
    <glyph glyph-name="ecaron" unicode="&#x11b;" horiz-adv-x="310" 
d="M224 58l12 -32c-30 -20 -64 -32 -97 -32c-90 0 -116 77 -116 163c0 125 70 331 197 331c59 0 81 -46 81 -95c0 -107 -101 -157 -231 -160c-3 -14 -9 -86 -2 -123c10 -53 37 -79 78 -79c35 0 60 15 78 27zM260 392v1c0 37 -17 58 -48 58c-46 0 -99 -56 -134 -182
c84 2 182 28 182 123zM225 535h-28l-55 132h37l36 -91h2l65 91h38z" />
    <glyph glyph-name="edotaccent" unicode="&#x117;" horiz-adv-x="310" 
d="M224 58l12 -32c-30 -20 -64 -32 -97 -32c-90 0 -116 77 -116 163c0 125 70 331 197 331c59 0 81 -46 81 -95c0 -107 -101 -157 -231 -160c-3 -14 -9 -86 -2 -123c10 -53 37 -79 78 -79c35 0 60 15 78 27zM260 392v1c0 37 -17 58 -48 58c-46 0 -99 -56 -134 -182
c84 2 182 28 182 123zM218 565h-1c-18 0 -29 13 -29 33s16 38 36 38c23 0 30 -17 30 -32c0 -19 -14 -39 -36 -39z" />
    <glyph glyph-name="emacron" unicode="&#x113;" horiz-adv-x="310" 
d="M224 58l12 -32c-30 -20 -64 -32 -97 -32c-90 0 -116 77 -116 163c0 125 70 331 197 331c59 0 81 -46 81 -95c0 -107 -101 -157 -231 -160c-3 -14 -9 -86 -2 -123c10 -53 37 -79 78 -79c35 0 60 15 78 27zM260 392v1c0 37 -17 58 -48 58c-46 0 -99 -56 -134 -182
c84 2 182 28 182 123zM130 619h187l-6 -36h-187z" />
    <glyph glyph-name="eng" unicode="&#x14b;" horiz-adv-x="363" 
d="M108 -158l-9 33c61 13 104 53 121 146l56 299c5 25 8 47 8 76c0 34 -14 55 -49 55c-56 0 -119 -85 -136 -175l-52 -276h-39l58 311c15 78 21 135 25 169h36l-10 -84h2c42 67 83 92 129 92c54 0 76 -45 76 -91c0 -28 -3 -46 -8 -71l-56 -298c-24 -130 -79 -171 -152 -186z
" />
    <glyph glyph-name="eogonek" unicode="&#x119;" horiz-adv-x="310" 
d="M260 392v1c0 37 -17 58 -48 58c-46 0 -99 -56 -134 -182c84 2 182 28 182 123zM184 -138l10 -27c-16 -13 -40 -20 -65 -20c-39 0 -66 28 -66 70c0 40 41 84 77 108v1h-1c-90 0 -116 77 -116 163c0 125 70 331 197 331c59 0 81 -46 81 -95c0 -107 -101 -157 -231 -160
c-3 -14 -9 -86 -2 -123c10 -53 37 -79 78 -79c35 0 60 15 78 27l12 -32c-7 -5 -15 -9 -23 -13c-40 -20 -109 -69 -109 -121c0 -24 13 -41 36 -41c18 0 31 4 44 11z" />
    <glyph glyph-name="gbreve" unicode="&#x11f;" horiz-adv-x="352" 
d="M-10 -176l14 35c20 -12 50 -22 78 -22c74 0 102 56 124 158l19 87h-2c-45 -77 -86 -90 -118 -90c-49 0 -86 41 -86 140c0 136 67 356 236 356c27 0 60 -10 80 -20l-79 -420c-21 -111 -42 -172 -71 -202c-29 -31 -64 -46 -106 -46c-37 0 -68 10 -89 24zM244 212l45 229
c-12 7 -26 10 -51 10c-115 0 -174 -189 -177 -301c-2 -69 9 -121 55 -121c61 0 113 106 128 183zM155 659h30c-4 -38 17 -66 55 -66c42 0 72 26 81 66h30c-7 -61 -52 -104 -114 -104c-67 0 -93 47 -82 104z" />
    <glyph glyph-name="gcircumflex" unicode="&#x11d;" horiz-adv-x="352" 
d="M-10 -176l14 35c20 -12 50 -22 78 -22c74 0 102 56 124 158l19 87h-2c-45 -77 -86 -90 -118 -90c-49 0 -86 41 -86 140c0 136 67 356 236 356c27 0 60 -10 80 -20l-79 -420c-21 -111 -42 -172 -71 -202c-29 -31 -64 -46 -106 -46c-37 0 -68 10 -89 24zM244 212l45 229
c-12 7 -26 10 -51 10c-115 0 -174 -189 -177 -301c-2 -69 9 -121 55 -121c61 0 113 106 128 183zM237 667h28l55 -132h-37l-36 91h-2l-65 -91h-38z" />
    <glyph glyph-name="gcommaaccent" unicode="&#x123;" horiz-adv-x="352" 
d="M-10 -176l14 35c20 -12 50 -22 78 -22c74 0 102 56 124 158l19 87h-2c-45 -77 -86 -90 -118 -90c-49 0 -86 41 -86 140c0 136 67 356 236 356c27 0 60 -10 80 -20l-79 -420c-21 -111 -42 -172 -71 -202c-29 -31 -64 -46 -106 -46c-37 0 -68 10 -89 24zM244 212l45 229
c-12 7 -26 10 -51 10c-115 0 -174 -189 -177 -301c-2 -69 9 -121 55 -121c61 0 113 106 128 183zM314 686l8 -25c-39 -8 -81 -33 -81 -78c0 -24 13 -43 27 -53l-39 -9c-12 9 -26 32 -26 55c0 64 52 100 111 110z" />
    <glyph glyph-name="gdotaccent" unicode="&#x121;" horiz-adv-x="352" 
d="M-10 -176l14 35c20 -12 50 -22 78 -22c74 0 102 56 124 158l19 87h-2c-45 -77 -86 -90 -118 -90c-49 0 -86 41 -86 140c0 136 67 356 236 356c27 0 60 -10 80 -20l-79 -420c-21 -111 -42 -172 -71 -202c-29 -31 -64 -46 -106 -46c-37 0 -68 10 -89 24zM244 212l45 229
c-12 7 -26 10 -51 10c-115 0 -174 -189 -177 -301c-2 -69 9 -121 55 -121c61 0 113 106 128 183zM239 565h-1c-18 0 -29 13 -29 33s16 38 36 38c23 0 30 -17 30 -32c0 -19 -14 -39 -36 -39z" />
    <glyph glyph-name="hbar" unicode="&#x127;" horiz-adv-x="363" 
d="M54 586h64l20 106h40l-20 -106h128l-7 -34h-127l-27 -144h2c37 57 75 80 119 80c56 0 78 -45 78 -91c0 -26 -2 -42 -8 -72l-61 -325h-39l62 330c4 22 6 37 6 66c0 34 -15 55 -49 55c-60 0 -120 -90 -136 -175l-52 -276h-39l104 552h-65z" />
    <glyph glyph-name="hcircumflex" unicode="&#x125;" horiz-adv-x="363" 
d="M47 0h-39l130 692h40l-53 -284h2c37 57 75 80 119 80c56 0 78 -45 78 -91c0 -26 -2 -42 -8 -72l-61 -325h-39l62 330c4 22 6 37 6 66c0 34 -15 55 -49 55c-60 0 -120 -90 -136 -175zM163 815h40l62 -105h-42l-42 76h-2l-67 -76h-45z" />
    <glyph glyph-name="ibreve" unicode="&#x12d;" horiz-adv-x="156" 
d="M47 0h-39l92 480h39zM57 659h30c-4 -38 17 -66 55 -66c42 0 72 26 81 66h30c-7 -61 -52 -104 -114 -104c-67 0 -93 47 -82 104z" />
    <glyph glyph-name="ij" unicode="&#x133;" horiz-adv-x="320" 
d="M47 0h-39l92 480h39zM137 567h-1c-16 0 -26 13 -24 35c3 21 19 36 35 36c20 0 30 -15 27 -36c-3 -22 -18 -35 -37 -35zM265 480h39l-94 -498c-15 -80 -27 -116 -44 -139c-16 -22 -44 -43 -84 -43c-14 0 -27 1 -34 4l4 36c7 -1 19 -3 32 -3c31 0 62 13 82 117zM302 567h-1
c-16 0 -26 13 -24 35c3 21 19 36 35 36c20 0 30 -15 27 -36c-3 -22 -18 -35 -37 -35z" />
    <glyph glyph-name="imacron" unicode="&#x12b;" horiz-adv-x="156" 
d="M47 0h-39l92 480h39zM53 619h187l-6 -36h-187z" />
    <glyph glyph-name="iogonek" unicode="&#x12f;" horiz-adv-x="156" 
d="M137 565h-1c-16 0 -27 13 -24 35c2 21 19 36 35 36c20 0 30 -15 27 -36c-3 -22 -18 -35 -37 -35zM139 480l-92 -480h-6c-27 -31 -60 -80 -60 -121c0 -24 16 -41 39 -41c18 0 28 4 41 11l8 -27c-16 -13 -43 -20 -65 -20c-39 0 -64 26 -64 70c0 50 39 100 69 135l91 473h39
z" />
    <glyph glyph-name="itilde" unicode="&#x129;" horiz-adv-x="156" 
d="M47 0h-39l92 480h39zM75 564h-32c-1 42 20 76 56 76c18 0 31 -9 44 -17c15 -9 27 -18 41 -18c16 0 25 9 27 36h31c0 -36 -15 -71 -59 -71c-17 0 -33 9 -46 18c-13 8 -25 17 -37 17c-16 0 -22 -14 -25 -41z" />
    <glyph glyph-name="jcircumflex" unicode="&#x135;" horiz-adv-x="164" 
d="M109 480h39l-94 -498c-15 -80 -27 -116 -44 -139c-16 -22 -44 -43 -84 -43c-14 0 -27 1 -34 4l4 36c7 -1 19 -3 32 -3c31 0 62 13 82 117zM138 667h28l55 -132h-37l-36 91h-2l-65 -91h-38z" />
    <glyph glyph-name="kcommaaccent" unicode="&#x137;" horiz-adv-x="310" 
d="M47 0h-38l130 692h39l-80 -424h2c10 12 25 30 31 38l145 174h51l-170 -195l106 -285h-41l-94 256l-41 -48zM31 -207l-8 25c39 8 81 33 81 78c0 24 -13 43 -27 53l42 9c12 -9 26 -32 26 -55c0 -64 -52 -100 -114 -110z" />
    <glyph glyph-name="lacute" unicode="&#x13a;" horiz-adv-x="155" 
d="M47 0h-39l130 692h40zM229 825h65l-126 -105h-41z" />
    <glyph glyph-name="lcaron" unicode="&#x13e;" horiz-adv-x="155" 
d="M47 0h-39l130 692h40zM196 533l-8 25c29 13 61 33 61 78c0 24 -13 43 -27 53l42 9c12 -9 26 -32 26 -58c0 -61 -52 -97 -94 -107z" />
    <glyph glyph-name="lcommaaccent" unicode="&#x13c;" horiz-adv-x="155" 
d="M47 0h-39l130 692h40zM-46 -207l-8 25c39 8 81 33 81 78c0 24 -13 43 -27 53l42 9c12 -9 26 -32 26 -55c0 -64 -52 -100 -114 -110z" />
    <glyph glyph-name="ldot" unicode="&#x140;" horiz-adv-x="165" 
d="M47 0h-39l130 692h40zM173 315h-1c-18 0 -29 13 -29 33s16 38 36 38c23 0 30 -17 30 -32c0 -19 -14 -39 -36 -39z" />
    <glyph glyph-name="nacute" unicode="&#x144;" horiz-adv-x="363" 
d="M47 0h-39l58 311c15 78 21 135 25 169h36l-10 -84h2c42 67 83 92 129 92c54 0 76 -45 76 -91c0 -28 -3 -46 -8 -71l-61 -326h-39l60 320c5 25 8 47 8 76c0 34 -14 55 -49 55c-56 0 -119 -85 -136 -175zM284 667h57l-107 -132h-32z" />
    <glyph glyph-name="ncaron" unicode="&#x148;" horiz-adv-x="363" 
d="M47 0h-39l58 311c15 78 21 135 25 169h36l-10 -84h2c42 67 83 92 129 92c54 0 76 -45 76 -91c0 -28 -3 -46 -8 -71l-61 -326h-39l60 320c5 25 8 47 8 76c0 34 -14 55 -49 55c-56 0 -119 -85 -136 -175zM227 535h-28l-55 132h37l36 -91h2l65 91h38z" />
    <glyph glyph-name="ncommaaccent" unicode="&#x146;" horiz-adv-x="363" 
d="M47 0h-39l58 311c15 78 21 135 25 169h36l-10 -84h2c42 67 83 92 129 92c54 0 76 -45 76 -91c0 -28 -3 -46 -8 -71l-61 -326h-39l60 320c5 25 8 47 8 76c0 34 -14 55 -49 55c-56 0 -119 -85 -136 -175zM58 -207l-8 25c39 8 81 33 81 78c0 24 -13 43 -27 53l42 9
c12 -9 26 -32 26 -55c0 -64 -52 -100 -114 -110z" />
    <glyph glyph-name="obreve" unicode="&#x14f;" horiz-adv-x="340" 
d="M119 -8h-1c-68 0 -97 67 -97 161c0 109 56 335 198 335c81 0 94 -86 94 -149c0 -103 -47 -347 -194 -347zM126 29h1c105 0 144 230 144 308c0 61 -9 114 -59 114c-96 0 -149 -189 -149 -290c0 -67 5 -132 63 -132zM149 659h30c-4 -38 17 -66 55 -66c42 0 72 26 81 66h30
c-7 -61 -52 -104 -114 -104c-67 0 -93 47 -82 104z" />
    <glyph glyph-name="ohungarumlaut" unicode="&#x151;" horiz-adv-x="340" 
d="M119 -8h-1c-68 0 -97 67 -97 161c0 109 56 335 198 335c81 0 94 -86 94 -149c0 -103 -47 -347 -194 -347zM126 29h1c105 0 144 230 144 308c0 61 -9 114 -59 114c-96 0 -149 -189 -149 -290c0 -67 5 -132 63 -132zM220 667h57l-107 -132h-32zM335 667h57l-107 -132h-32z
" />
    <glyph glyph-name="omacron" unicode="&#x14d;" horiz-adv-x="340" 
d="M119 -8h-1c-68 0 -97 67 -97 161c0 109 56 335 198 335c81 0 94 -86 94 -149c0 -103 -47 -347 -194 -347zM126 29h1c105 0 144 230 144 308c0 61 -9 114 -59 114c-96 0 -149 -189 -149 -290c0 -67 5 -132 63 -132zM145 619h187l-6 -36h-187z" />
    <glyph glyph-name="oslashacute" unicode="&#x1ff;" horiz-adv-x="344" 
d="M17 -28l-26 20l43 68c-10 25 -14 57 -14 93c0 109 54 335 198 335c31 0 51 -12 66 -30l30 47l28 -17l-39 -62c10 -27 13 -59 13 -87c0 -103 -45 -347 -191 -347c-30 0 -55 12 -73 35zM67 109l194 312c-10 19 -26 30 -50 30c-105 0 -149 -193 -149 -290c0 -20 1 -36 3 -52
h2zM275 380l-198 -313c8 -23 24 -38 53 -38c113 0 146 230 146 308c0 14 -1 28 0 43h-1zM274 667h57l-107 -132h-32z" />
    <glyph glyph-name="racute" unicode="&#x155;" horiz-adv-x="223" 
d="M47 0h-39l60 321c13 70 18 129 19 159h36c-1 -25 -2 -51 -8 -96h2c27 58 68 104 121 104h9l-8 -45h-3c-70 0 -125 -106 -138 -172zM214 667h57l-107 -132h-32z" />
    <glyph glyph-name="rcaron" unicode="&#x159;" horiz-adv-x="223" 
d="M47 0h-39l60 321c13 70 18 129 19 159h36c-1 -25 -2 -51 -8 -96h2c27 58 68 104 121 104h9l-8 -45h-3c-70 0 -125 -106 -138 -172zM182 535h-28l-55 132h37l36 -91h2l65 91h38z" />
    <glyph glyph-name="rcommaaccent" unicode="&#x157;" horiz-adv-x="223" 
d="M47 0h-39l60 321c13 70 18 129 19 159h36c-1 -25 -2 -51 -8 -96h2c27 58 68 104 121 104h9l-8 -45h-3c-70 0 -125 -106 -138 -172zM-12 -207l-8 25c39 8 81 33 81 78c0 24 -13 43 -27 53l42 9c12 -9 26 -32 26 -55c0 -64 -52 -100 -114 -110z" />
    <glyph glyph-name="sacute" unicode="&#x15b;" horiz-adv-x="260" 
d="M-16 21l16 34c13 -9 37 -24 73 -24c57 0 92 43 92 98c0 53 -26 84 -50 107c-28 27 -64 69 -64 117c0 77 53 135 132 135c26 0 52 -8 65 -18l-15 -34c-15 9 -35 15 -55 15c-56 0 -86 -40 -86 -88c0 -45 26 -71 49 -94c28 -28 65 -71 65 -126c0 -102 -63 -149 -139 -149
c-34 0 -72 16 -83 27zM232 667h57l-107 -132h-32z" />
    <glyph glyph-name="scedilla" unicode="&#x15f;" horiz-adv-x="260" 
d="M248 470l-15 -34c-15 9 -35 15 -55 15c-56 0 -86 -40 -86 -88c0 -45 26 -71 49 -94c28 -28 65 -71 65 -126c0 -81 -39 -127 -94 -143l-38 -56c29 -10 53 -33 53 -69c0 -43 -37 -73 -82 -73c-28 0 -51 8 -63 19l13 31c17 -10 33 -15 50 -15c26 0 46 13 46 37
c0 28 -34 43 -65 48l47 72h-6c-34 0 -72 16 -83 27l16 34c13 -9 37 -24 73 -24c57 0 92 43 92 98c0 53 -26 84 -50 107c-28 27 -64 69 -64 117c0 77 53 135 132 135c26 0 52 -8 65 -18z" />
    <glyph glyph-name="scedilla" unicode="&#xf6c2;" horiz-adv-x="260" 
d="M248 470l-15 -34c-15 9 -35 15 -55 15c-56 0 -86 -40 -86 -88c0 -45 26 -71 49 -94c28 -28 65 -71 65 -126c0 -81 -39 -127 -94 -143l-38 -56c29 -10 53 -33 53 -69c0 -43 -37 -73 -82 -73c-28 0 -51 8 -63 19l13 31c17 -10 33 -15 50 -15c26 0 46 13 46 37
c0 28 -34 43 -65 48l47 72h-6c-34 0 -72 16 -83 27l16 34c13 -9 37 -24 73 -24c57 0 92 43 92 98c0 53 -26 84 -50 107c-28 27 -64 69 -64 117c0 77 53 135 132 135c26 0 52 -8 65 -18z" />
    <glyph glyph-name="scircumflex" unicode="&#x15d;" horiz-adv-x="260" 
d="M-16 21l16 34c13 -9 37 -24 73 -24c57 0 92 43 92 98c0 53 -26 84 -50 107c-28 27 -64 69 -64 117c0 77 53 135 132 135c26 0 52 -8 65 -18l-15 -34c-15 9 -35 15 -55 15c-56 0 -86 -40 -86 -88c0 -45 26 -71 49 -94c28 -28 65 -71 65 -126c0 -102 -63 -149 -139 -149
c-34 0 -72 16 -83 27zM181 667h28l55 -132h-37l-36 91h-2l-65 -91h-38z" />
    <glyph glyph-name="scommaaccent" unicode="&#x219;" horiz-adv-x="260" 
d="M-16 21l16 34c13 -9 37 -24 73 -24c57 0 92 43 92 98c0 53 -26 84 -50 107c-28 27 -64 69 -64 117c0 77 53 135 132 135c26 0 52 -8 65 -18l-15 -34c-15 9 -35 15 -55 15c-56 0 -86 -40 -86 -88c0 -45 26 -71 49 -94c28 -28 65 -71 65 -126c0 -102 -63 -149 -139 -149
c-34 0 -72 16 -83 27zM6 -207l-8 25c39 8 81 33 81 78c0 24 -13 43 -27 53l42 9c12 -9 26 -32 26 -55c0 -64 -52 -100 -114 -110z" />
    <glyph glyph-name="tbar" unicode="&#x167;" horiz-adv-x="213" 
d="M18 298h58l28 147h-59l6 35h60l15 80l46 25l-22 -105h91l-7 -35h-91l-27 -147h69l-7 -35h-69l-23 -125c-6 -31 -9 -58 -9 -73c0 -20 6 -35 31 -34c14 0 20 0 26 2v-33c-13 -4 -26 -6 -37 -6c-37 0 -62 22 -62 59c0 17 1 34 10 81l25 129h-59z" />
    <glyph glyph-name="tcaron" unicode="&#x165;" horiz-adv-x="213" 
d="M126 560l46 25l-22 -105h91l-7 -35h-91l-57 -307c-6 -31 -9 -58 -9 -73c0 -20 6 -34 31 -34c14 1 20 0 26 2v-33c-13 -4 -26 -6 -37 -6c-37 0 -62 22 -62 59c0 17 1 34 10 81l59 311h-59l6 35h60zM221 533l-8 25c29 13 61 33 61 78c0 24 -13 43 -27 53l42 9
c12 -9 26 -32 26 -58c0 -61 -52 -97 -94 -107z" />
    <glyph glyph-name="tcommaaccent" unicode="&#x163;" horiz-adv-x="213" 
d="M126 560l46 25l-22 -105h91l-7 -35h-91l-57 -307c-6 -31 -9 -58 -9 -73c0 -20 6 -34 31 -34c14 1 20 0 26 2v-33c-13 -4 -26 -6 -37 -6c-37 0 -62 22 -62 59c0 17 1 34 10 81l59 311h-59l6 35h60zM-8 -207l-8 25c39 8 81 33 81 78c0 24 -13 43 -27 53l42 9
c12 -9 26 -32 26 -55c0 -64 -52 -100 -114 -110z" />
    <glyph glyph-name="tcommaaccent" unicode="&#x21b;" horiz-adv-x="213" 
d="M126 560l46 25l-22 -105h91l-7 -35h-91l-57 -307c-6 -31 -9 -58 -9 -73c0 -20 6 -34 31 -34c14 1 20 0 26 2v-33c-13 -4 -26 -6 -37 -6c-37 0 -62 22 -62 59c0 17 1 34 10 81l59 311h-59l6 35h60zM-8 -207l-8 25c39 8 81 33 81 78c0 24 -13 43 -27 53l42 9
c12 -9 26 -32 26 -55c0 -64 -52 -100 -114 -110z" />
    <glyph glyph-name="ubreve" unicode="&#x16d;" horiz-adv-x="363" 
d="M306 480h39l-58 -311c-15 -78 -19 -135 -21 -169h-38l8 82h-2c-38 -65 -84 -90 -130 -90c-53 0 -75 45 -75 91c0 24 2 42 6 61l63 336h39l-60 -320c-5 -25 -8 -47 -8 -74c0 -33 14 -57 48 -57c58 0 119 80 137 175zM136 659h30c-4 -38 17 -66 55 -66c42 0 72 26 81 66h30
c-7 -61 -52 -104 -114 -104c-67 0 -93 47 -82 104z" />
    <glyph glyph-name="uhungarumlaut" unicode="&#x171;" horiz-adv-x="363" 
d="M306 480h39l-58 -311c-15 -78 -19 -135 -21 -169h-38l8 82h-2c-38 -65 -84 -90 -130 -90c-53 0 -75 45 -75 91c0 24 2 42 6 61l63 336h39l-60 -320c-5 -25 -8 -47 -8 -74c0 -33 14 -57 48 -57c58 0 119 80 137 175zM224 667h57l-107 -132h-32zM339 667h57l-107 -132h-32z
" />
    <glyph glyph-name="umacron" unicode="&#x16b;" horiz-adv-x="363" 
d="M306 480h39l-58 -311c-15 -78 -19 -135 -21 -169h-38l8 82h-2c-38 -65 -84 -90 -130 -90c-53 0 -75 45 -75 91c0 24 2 42 6 61l63 336h39l-60 -320c-5 -25 -8 -47 -8 -74c0 -33 14 -57 48 -57c58 0 119 80 137 175zM157 619h187l-6 -36h-187z" />
    <glyph glyph-name="uogonek" unicode="&#x173;" horiz-adv-x="363" 
d="M345 480l-58 -311c-15 -78 -19 -135 -21 -169h-6c-27 -31 -60 -80 -60 -121c0 -24 16 -41 39 -41c18 0 28 4 41 11l8 -27c-16 -13 -43 -20 -65 -20c-39 0 -64 26 -64 70c0 50 39 100 69 135l8 75h-2c-38 -65 -84 -90 -130 -90c-53 0 -75 45 -75 91c0 24 2 42 6 61l63 336
h39l-60 -320c-5 -25 -8 -47 -8 -74c0 -33 14 -57 48 -57c58 0 119 80 137 175l52 276h39z" />
    <glyph glyph-name="uring" unicode="&#x16f;" horiz-adv-x="363" 
d="M306 480h39l-58 -311c-15 -78 -19 -135 -21 -169h-38l8 82h-2c-38 -65 -84 -90 -130 -90c-53 0 -75 45 -75 91c0 24 2 42 6 61l63 336h39l-60 -320c-5 -25 -8 -47 -8 -74c0 -33 14 -57 48 -57c58 0 119 80 137 175zM253 698h1c51 0 83 -29 83 -80c0 -60 -54 -89 -94 -89
c-47 0 -82 31 -82 76c0 55 45 93 92 93zM253 668h-1c-27 0 -55 -22 -55 -59c0 -32 19 -50 50 -50c27 0 54 22 54 58c0 29 -17 51 -48 51z" />
    <glyph glyph-name="utilde" unicode="&#x169;" horiz-adv-x="363" 
d="M306 480h39l-58 -311c-15 -78 -19 -135 -21 -169h-38l8 82h-2c-38 -65 -84 -90 -130 -90c-53 0 -75 45 -75 91c0 24 2 42 6 61l63 336h39l-60 -320c-5 -25 -8 -47 -8 -74c0 -33 14 -57 48 -57c58 0 119 80 137 175zM179 564h-32c-1 42 20 76 56 76c18 0 31 -9 44 -17
c15 -9 27 -18 41 -18c16 0 25 9 27 36h31c0 -36 -15 -71 -59 -71c-17 0 -33 9 -46 18c-13 8 -25 17 -37 17c-16 0 -22 -14 -25 -41z" />
    <glyph glyph-name="wacute" unicode="&#x1e83;" horiz-adv-x="525" 
d="M58 480h39l12 -304c2 -43 4 -76 2 -106h3c10 28 24 67 41 105l132 305h33l15 -304c2 -43 4 -76 0 -106h4c11 28 24 67 40 106l126 304h41l-206 -480h-32l-16 313c-2 35 -2 69 0 102h-2c-13 -35 -23 -70 -37 -102l-137 -313h-35zM365 667h57l-107 -132h-32z" />
    <glyph glyph-name="wcircumflex" unicode="&#x175;" horiz-adv-x="525" 
d="M58 480h39l12 -304c2 -43 4 -76 2 -106h3c10 28 24 67 41 105l132 305h33l15 -304c2 -43 4 -76 0 -106h4c11 28 24 67 40 106l126 304h41l-206 -480h-32l-16 313c-2 35 -2 69 0 102h-2c-13 -35 -23 -70 -37 -102l-137 -313h-35zM324 667h28l55 -132h-37l-36 91h-2
l-65 -91h-38z" />
    <glyph glyph-name="wdieresis" unicode="&#x1e85;" horiz-adv-x="525" 
d="M58 480h39l12 -304c2 -43 4 -76 2 -106h3c10 28 24 67 41 105l132 305h33l15 -304c2 -43 4 -76 0 -106h4c11 28 24 67 40 106l126 304h41l-206 -480h-32l-16 313c-2 35 -2 69 0 102h-2c-13 -35 -23 -70 -37 -102l-137 -313h-35zM253 565h-1c-18 0 -29 13 -29 33
s16 38 36 38c23 0 30 -17 30 -32c0 -19 -14 -39 -36 -39zM391 565h-1c-18 0 -29 13 -29 33s16 38 36 38c23 0 30 -17 30 -32c0 -19 -14 -39 -36 -39z" />
    <glyph glyph-name="wgrave" unicode="&#x1e81;" horiz-adv-x="525" 
d="M58 480h39l12 -304c2 -43 4 -76 2 -106h3c10 28 24 67 41 105l132 305h33l15 -304c2 -43 4 -76 0 -106h4c11 28 24 67 40 106l126 304h41l-206 -480h-32l-16 313c-2 35 -2 69 0 102h-2c-13 -35 -23 -70 -37 -102l-137 -313h-35zM184 667h57l82 -132h-32z" />
    <glyph glyph-name="ycircumflex" unicode="&#x177;" horiz-adv-x="312" 
d="M52 480h40l23 -292c3 -43 4 -68 8 -123h2c14 43 31 83 46 121l117 294h42l-163 -397c-43 -105 -90 -193 -157 -248c-29 -23 -54 -38 -70 -43l-16 36c21 9 49 25 77 50c31 26 68 80 85 122c5 12 5 19 4 30zM202 667h28l55 -132h-37l-36 91h-2l-65 -91h-38z" />
    <glyph glyph-name="ygrave" unicode="&#x1ef3;" horiz-adv-x="312" 
d="M52 480h40l23 -292c3 -43 4 -68 8 -123h2c14 43 31 83 46 121l117 294h42l-163 -397c-43 -105 -90 -193 -157 -248c-29 -23 -54 -38 -70 -43l-16 36c21 9 49 25 77 50c31 26 68 80 85 122c5 12 5 19 4 30zM92 667h57l82 -132h-32z" />
    <glyph glyph-name="zacute" unicode="&#x17a;" horiz-adv-x="282" 
d="M-34 0l2 26l219 324c32 47 48 69 62 91l1 3h-183l7 36h231l-3 -27l-222 -326c-29 -43 -44 -65 -60 -89v-2h200l-7 -36h-247zM243 667h57l-107 -132h-32z" />
    <glyph glyph-name="zdotaccent" unicode="&#x17c;" horiz-adv-x="282" 
d="M-34 0l2 26l219 324c32 47 48 69 62 91l1 3h-183l7 36h231l-3 -27l-222 -326c-29 -43 -44 -65 -60 -89v-2h200l-7 -36h-247zM204 565h-1c-18 0 -29 13 -29 33s16 38 36 38c23 0 30 -17 30 -32c0 -19 -14 -39 -36 -39z" />
    <glyph glyph-name="kgreenlandic" unicode="&#x138;" horiz-adv-x="310" 
d="M47 0h-38l90 480h39l-40 -212h2c10 12 25 30 31 38l145 174h51l-170 -195l106 -285h-41l-94 256l-41 -48z" />
    <glyph glyph-name="napostrophe" unicode="&#x149;" horiz-adv-x="363" 
d="M47 0h-39l58 311c15 78 21 135 25 169h36l-10 -84h2c42 67 83 92 129 92c54 0 76 -45 76 -91c0 -28 -3 -46 -8 -71l-61 -326h-39l60 320c5 25 8 47 8 76c0 34 -14 55 -49 55c-56 0 -119 -85 -136 -175zM36 533l-8 25c29 13 61 33 61 78c0 24 -13 43 -27 53l42 9
c12 -9 26 -32 26 -58c0 -61 -52 -97 -94 -107z" />
    <glyph glyph-name="tonos" unicode="&#x384;" 
d="M252 667h57l-107 -132h-32z" />
    <glyph glyph-name="dieresistonos" unicode="&#x385;" 
d="M209 671h49l-76 -140h-24zM113 562h-1c-17 0 -28 11 -28 29s16 35 34 35c23 0 29 -16 29 -29c0 -17 -13 -35 -34 -35zM286 562h-1c-17 0 -28 11 -28 29s15 35 34 35c23 0 29 -16 29 -29c0 -17 -14 -35 -34 -35z" />
    <glyph glyph-name="Alpha" unicode="&#x391;" horiz-adv-x="413" 
d="M292 233h-167l-96 -233h-41l283 674h39l31 -674h-39zM140 269h151l-8 190c-2 52 -2 100 -3 152h-4c-19 -53 -37 -103 -58 -153z" />
    <glyph glyph-name="Beta" unicode="&#x392;" horiz-adv-x="368" 
d="M11 8l124 660c27 6 56 9 90 9c41 0 80 -12 105 -35c24 -23 38 -58 38 -101c0 -80 -53 -152 -139 -180v-2c76 -26 97 -91 97 -152c0 -72 -31 -125 -73 -161c-39 -35 -97 -49 -154 -49c-37 0 -71 4 -88 11zM169 636l-49 -257h35c91 0 170 64 170 161c0 63 -34 101 -111 101
c-18 0 -34 -1 -45 -5zM114 345l-58 -305c11 -4 29 -7 49 -7c116 0 180 78 180 176c0 78 -44 136 -139 136h-32z" />
    <glyph glyph-name="Gamma" unicode="&#x393;" horiz-adv-x="297" 
d="M138 674h230l-7 -36h-190l-120 -638h-40z" />
    <glyph glyph-name="Delta" unicode="&#x394;" horiz-adv-x="413" 
d="M-22 0l5 28l283 646h41l35 -646l-6 -28h-358zM29 36h274l-20 385c-3 54 -6 138 -6 195h-4c-20 -58 -41 -108 -67 -169z" />
    <glyph glyph-name="Delta" unicode="&#xe000;" horiz-adv-x="413" 
d="M-22 0l5 28l283 646h41l35 -646l-6 -28h-358zM29 36h274l-20 385c-3 54 -6 138 -6 195h-4c-20 -58 -41 -108 -67 -169z" />
    <glyph glyph-name="Epsilon" unicode="&#x395;" horiz-adv-x="322" 
d="M297 372l-7 -36h-177l-56 -300h202l-7 -36h-241l127 674h229l-7 -36h-189l-51 -266h177z" />
    <glyph glyph-name="Zeta" unicode="&#x396;" horiz-adv-x="335" 
d="M-25 0l5 27l350 609v2h-216l6 36h268l-5 -25l-352 -611v-2h236l-7 -36h-285z" />
    <glyph glyph-name="Eta" unicode="&#x397;" horiz-adv-x="421" 
d="M138 674h40l-58 -302h220l57 302h40l-128 -674h-39l63 336h-220l-63 -336h-39z" />
    <glyph glyph-name="Theta" unicode="&#x398;" horiz-adv-x="417" 
d="M165 -8h-1c-119 0 -129 137 -129 208c0 129 48 315 117 405c42 54 91 77 134 77c116 0 124 -132 124 -220c0 -104 -45 -306 -112 -393c-41 -53 -90 -77 -133 -77zM169 29h1c136 0 198 325 198 423c0 104 -5 193 -90 193c-131 0 -201 -305 -201 -430c0 -70 2 -186 92 -186
zM144 372h170l-6 -36h-170z" />
    <glyph glyph-name="Iota" unicode="&#x399;" horiz-adv-x="163" 
d="M138 674h40l-128 -674h-39z" />
    <glyph glyph-name="Kappa" unicode="&#x39a;" horiz-adv-x="352" 
d="M11 0l127 674h40l-64 -333h2c25 31 43 59 62 83l193 250h48l-227 -284l106 -390h-40l-97 355l-56 -65l-55 -290h-39z" />
    <glyph glyph-name="Lambda" unicode="&#x39b;" horiz-adv-x="418" 
d="M346 0h-39l-23 459c-3 52 -3 100 -2 157h-4c-19 -58 -37 -108 -58 -158l-190 -458h-43l285 674h39z" />
    <glyph glyph-name="Mu" unicode="&#x39c;" horiz-adv-x="563" 
d="M464 0h-39l64 458c8 59 17 103 26 160h-5c-21 -59 -44 -118 -71 -177l-199 -441h-22l-32 453c-4 63 -5 108 -5 165h-3c-14 -59 -20 -101 -34 -161l-105 -457h-40l162 674h47l31 -433c4 -53 6 -89 5 -147h4c21 58 39 95 63 149l192 431h52z" />
    <glyph glyph-name="Nu" unicode="&#x39d;" horiz-adv-x="423" 
d="M48 0h-37l127 674h41l80 -423c11 -56 23 -118 33 -183h2c10 71 17 128 28 186l80 420h37l-127 -674h-39l-81 412c-10 52 -23 123 -32 201h-2c-9 -71 -21 -140 -32 -198z" />
    <glyph glyph-name="Xi" unicode="&#x39e;" horiz-adv-x="345" 
d="M109 674h266l-6 -36h-266zM75 372h226l-7 -36h-226zM-11 36h277l-6 -36h-277z" />
    <glyph glyph-name="Omicron" unicode="&#x39f;" horiz-adv-x="417" 
d="M165 -8h-1c-119 0 -129 137 -129 208c0 129 48 315 117 405c42 54 91 77 134 77c116 0 124 -132 124 -220c0 -104 -45 -306 -112 -393c-41 -53 -90 -77 -133 -77zM169 29h1c136 0 198 325 198 423c0 104 -5 193 -90 193c-131 0 -201 -305 -201 -430c0 -70 2 -186 92 -186
z" />
    <glyph glyph-name="Pi" unicode="&#x3a0;" horiz-adv-x="411" 
d="M425 674l-125 -674h-40l119 638h-210l-118 -638h-39l125 674h288z" />
    <glyph glyph-name="Rho" unicode="&#x3a1;" horiz-adv-x="354" 
d="M11 0l125 668c27 6 59 9 88 9c40 0 87 -14 111 -43c24 -28 34 -63 34 -105c0 -62 -24 -124 -57 -166c-40 -48 -99 -73 -153 -73c-21 0 -39 2 -53 6l-56 -296h-39zM170 636l-58 -304c15 -4 28 -6 48 -6c111 0 167 110 167 197c0 70 -27 118 -114 118c-14 0 -30 -2 -43 -5z
" />
    <glyph glyph-name="Sigma" unicode="&#x3a3;" horiz-adv-x="380" 
d="M31 41l-1 -5h303l-7 -36h-355l5 33l269 301l-140 308l4 32h309l-7 -35h-259l-1 -4l139 -306z" />
    <glyph glyph-name="Tau" unicode="&#x3a4;" horiz-adv-x="323" 
d="M92 0l120 638h-124l7 36h287l-7 -36h-124l-120 -638h-39z" />
    <glyph glyph-name="Upsilon" unicode="&#x3a5;" horiz-adv-x="379" 
d="M68 646l12 34c13 -3 36 -16 56 -39c43 -50 78 -156 64 -304h3c41 144 113 241 165 288c38 35 65 50 78 55l8 -35c-66 -40 -159 -132 -229 -330c-11 -32 -23 -70 -31 -117l-37 -198h-40l37 198c7 42 13 87 14 117c8 222 -48 300 -100 331z" />
    <glyph glyph-name="Phi" unicode="&#x3a6;" horiz-adv-x="440" 
d="M146 -8l11 52c-51 10 -122 63 -122 205c0 178 95 383 239 383l9 50h38l-9 -50c71 -9 121 -82 121 -213c0 -175 -88 -367 -238 -375l-10 -52h-39zM165 79l100 518c-114 -3 -188 -195 -188 -344c0 -103 34 -164 88 -174zM303 597l-100 -518c123 7 188 201 188 345
c0 113 -42 169 -88 173z" />
    <glyph glyph-name="Chi" unicode="&#x3a7;" horiz-adv-x="376" 
d="M302 0h-41l-39 185c-6 28 -12 59 -25 117h-3c-29 -50 -48 -85 -67 -118l-106 -184h-46l207 344l-77 330h42l39 -172c7 -30 13 -59 24 -114h2c25 50 38 72 63 115l100 171h46l-196 -324z" />
    <glyph glyph-name="Psi" unicode="&#x3a8;" horiz-adv-x="435" 
d="M476 674l-37 -199c-27 -147 -77 -238 -207 -247l-43 -228h-40l43 228c-79 14 -126 69 -126 167c0 24 3 50 8 79l37 200h39l-36 -194c-5 -30 -7 -64 -7 -85c0 -90 43 -127 91 -133l76 412h39l-76 -412c96 4 139 83 164 218l36 194h39z" />
    <glyph glyph-name="Omega" unicode="&#x3a9;" horiz-adv-x="415" 
d="M92 37l1 4c-31 55 -49 139 -49 208c0 271 123 433 235 433c76 0 129 -60 129 -189c0 -214 -97 -381 -165 -452v-4h98l-8 -37h-149l7 34c89 77 175 269 175 449c0 86 -22 162 -92 162c-104 0 -188 -192 -188 -382c0 -94 17 -182 51 -229l-7 -34h-150l8 37h104z" />
    <glyph glyph-name="Omega" unicode="&#x2126;" horiz-adv-x="415" 
d="M92 37l1 4c-31 55 -49 139 -49 208c0 271 123 433 235 433c76 0 129 -60 129 -189c0 -214 -97 -381 -165 -452v-4h98l-8 -37h-149l7 34c89 77 175 269 175 449c0 86 -22 162 -92 162c-104 0 -188 -192 -188 -382c0 -94 17 -182 51 -229l-7 -34h-150l8 37h104z" />
    <glyph glyph-name="Alphatonos" unicode="&#x386;" horiz-adv-x="413" 
d="M292 233h-167l-96 -233h-41l283 674h39l31 -674h-39zM140 269h151l-8 190c-2 52 -2 100 -3 152h-4c-19 -53 -37 -103 -58 -153zM99 674h47l-34 -137h-25z" />
    <glyph glyph-name="Epsilontonos" unicode="&#x388;" horiz-adv-x="322" 
d="M297 372l-7 -36h-177l-56 -300h202l-7 -36h-241l127 674h229l-7 -36h-189l-51 -266h177zM37 674h47l-34 -137h-25z" />
    <glyph glyph-name="Etatonos" unicode="&#x389;" horiz-adv-x="421" 
d="M138 674h40l-58 -302h220l57 302h40l-128 -674h-39l63 336h-220l-63 -336h-39zM37 674h47l-34 -137h-25z" />
    <glyph glyph-name="Iotatonos" unicode="&#x38a;" horiz-adv-x="163" 
d="M138 674h40l-128 -674h-39zM37 674h47l-34 -137h-25z" />
    <glyph glyph-name="Iotadieresis" unicode="&#x3aa;" horiz-adv-x="163" 
d="M93 709h-1c-19 0 -31 13 -31 33s17 38 38 38c25 0 32 -17 32 -32c0 -19 -15 -39 -38 -39zM231 709h-1c-19 0 -31 13 -31 33s17 38 38 38c25 0 32 -17 32 -32c0 -19 -15 -39 -38 -39zM138 674h40l-128 -674h-39z" />
    <glyph glyph-name="Omicrontonos" unicode="&#x38c;" horiz-adv-x="417" 
d="M165 -8h-1c-119 0 -129 137 -129 208c0 129 48 315 117 405c42 54 91 77 134 77c116 0 124 -132 124 -220c0 -104 -45 -306 -112 -393c-41 -53 -90 -77 -133 -77zM169 29h1c136 0 198 325 198 423c0 104 -5 193 -90 193c-131 0 -201 -305 -201 -430c0 -70 2 -186 92 -186
zM37 674h47l-34 -137h-25z" />
    <glyph glyph-name="Upsilontonos" unicode="&#x38e;" horiz-adv-x="399" 
d="M88 646l12 34c13 -3 36 -16 56 -39c43 -50 78 -156 64 -304h3c41 144 113 241 165 288c38 35 65 50 78 55l8 -35c-66 -40 -159 -132 -229 -330c-11 -32 -23 -70 -31 -117l-37 -198h-40l37 198c7 42 13 87 14 117c8 222 -48 300 -100 331zM11 674h47l-34 -137h-25z" />
    <glyph glyph-name="Upsilondieresis" unicode="&#x3ab;" horiz-adv-x="379" 
d="M196 694h-1c-19 0 -31 13 -31 33s17 38 38 38c25 0 32 -17 32 -32c0 -19 -15 -39 -38 -39zM334 694h-1c-19 0 -31 13 -31 33s17 38 38 38c25 0 32 -17 32 -32c0 -19 -15 -39 -38 -39zM68 646l12 34c13 -3 36 -16 56 -39c43 -50 78 -156 64 -304h3c41 144 113 241 165 288
c38 35 65 50 78 55l8 -35c-66 -40 -159 -132 -229 -330c-11 -32 -23 -70 -31 -117l-37 -198h-40l37 198c7 42 13 87 14 117c8 222 -48 300 -100 331z" />
    <glyph glyph-name="Omegatonos" unicode="&#x38f;" horiz-adv-x="425" 
d="M102 37l1 4c-31 55 -49 139 -49 208c0 271 123 433 235 433c76 0 129 -60 129 -189c0 -216 -97 -382 -165 -452v-4h98l-8 -37h-149l7 34c89 77 175 269 175 449c0 86 -22 162 -92 162c-104 0 -188 -192 -188 -382c0 -94 17 -182 51 -229l-7 -34h-150l8 37h104zM37 674h47
l-34 -137h-25z" />
    <glyph glyph-name="alpha" unicode="&#x3b1;" horiz-adv-x="342" 
d="M221 73h-3c-22 -43 -64 -81 -113 -81c-53 0 -91 45 -91 134c0 202 99 362 189 362c57 0 73 -48 75 -78h3c8 33 12 50 21 70h33c-8 -22 -23 -85 -29 -117c-14 -77 -28 -153 -42 -230c-15 -80 -13 -105 10 -104l-11 -37h-8c-17 0 -43 8 -34 81zM56 131v-1
c0 -52 16 -101 60 -101c54 0 105 83 122 169c4 23 9 47 13 70c5 27 8 52 8 74c0 68 -22 109 -58 109c-79 0 -145 -169 -145 -320z" />
    <glyph glyph-name="beta" unicode="&#x3b2;" horiz-adv-x="356" 
d="M21 -192h-37c-7 23 -3 63 7 116l109 592c10 50 28 112 64 148c30 30 61 36 81 36c69 0 97 -61 97 -128c0 -90 -50 -171 -111 -193v-5c29 -8 86 -55 86 -149c0 -160 -99 -233 -175 -233c-39 0 -69 17 -89 45l-2 -2l-15 -86c-9 -54 -19 -107 -15 -141zM159 354l7 36
c8 0 15 1 22 3c57 19 112 74 112 174c0 52 -14 97 -60 97c-53 0 -85 -69 -99 -148l-79 -431c25 -47 60 -57 85 -57c69 0 128 83 128 185c0 80 -36 136 -102 140c-5 0 -8 1 -14 1z" />
    <glyph glyph-name="gamma" unicode="&#x3b3;" horiz-adv-x="285" 
d="M72 -192h-40c16 81 38 196 40 259c2 66 -16 287 -43 413h41c16 -80 36 -238 36 -385h4c61 114 122 231 142 343c1 8 4 32 4 42h38c1 -6 1 -26 -2 -41c-20 -111 -86 -246 -166 -376c-10 -17 -13 -21 -15 -34c-12 -73 -25 -148 -39 -221z" />
    <glyph glyph-name="delta" unicode="&#x3b4;" horiz-adv-x="334" 
d="M336 642l-23 -26c-23 29 -48 47 -85 47c-35 0 -53 -29 -53 -54c0 -32 16 -58 34 -86l48 -76c30 -48 49 -101 49 -177c0 -102 -56 -278 -177 -278c-59 0 -114 51 -114 171c0 151 87 269 173 316v4l-17 28c-18 30 -35 59 -35 95c0 46 37 94 95 94c49 0 84 -24 105 -58z
M231 412l-23 39c-90 -52 -151 -166 -151 -282c0 -115 44 -140 78 -140c89 0 130 161 130 244c0 59 -11 100 -34 139z" />
    <glyph glyph-name="epsilon" unicode="&#x3b5;" horiz-adv-x="276" 
d="M216 243h-32c-58 0 -139 -44 -139 -124c0 -58 41 -90 97 -90c39 0 64 11 77 19l8 -34c-21 -16 -65 -22 -93 -22c-68 0 -131 39 -131 120c0 77 64 140 122 152l1 5c-34 11 -60 43 -60 91c0 66 62 128 138 128c31 0 67 -8 82 -24l-14 -32c-11 8 -34 19 -72 19
c-58 0 -92 -48 -92 -91c0 -57 43 -79 101 -81h13z" />
    <glyph glyph-name="zeta" unicode="&#x3b6;" horiz-adv-x="291" 
d="M359 688l5 -31c-120 -77 -298 -305 -298 -466c0 -84 34 -119 90 -143c28 -12 51 -19 85 -26c4 -1 6 -5 6 -9c0 -37 -39 -109 -70 -137l-33 10c31 39 52 77 59 108c-16 3 -51 11 -77 24c-55 28 -102 66 -102 172c0 154 162 378 280 460v3h-62c-32 0 -65 1 -85 7l10 32
c21 -5 49 -4 78 -4h114z" />
    <glyph glyph-name="eta" unicode="&#x3b7;" horiz-adv-x="363" 
d="M117 396h2c42 67 83 92 129 92c54 0 76 -45 76 -91c0 -28 -3 -46 -8 -71l-70 -377c-10 -54 -19 -107 -17 -141h-36c-5 13 -1 63 9 117l74 395c5 25 8 47 8 76c0 34 -14 55 -49 55c-56 0 -119 -85 -136 -175l-52 -276h-39l58 311c15 78 21 135 18 169h36
c2 -28 1 -56 -3 -84z" />
    <glyph glyph-name="theta" unicode="&#x3b8;" horiz-adv-x="340" 
d="M126 -8h-1c-42 0 -96 38 -96 175c0 40 8 121 22 197c50 269 121 336 193 336c46 0 93 -48 93 -170c0 -67 -8 -131 -16 -176c-59 -320 -124 -362 -195 -362zM95 375h188c10 58 13 105 13 148c0 83 -16 140 -61 140c-63 0 -110 -123 -140 -288zM276 340h-188
c-12 -70 -18 -121 -18 -166c0 -87 20 -145 64 -145c71 0 108 124 142 311z" />
    <glyph glyph-name="iota" unicode="&#x3b9;" horiz-adv-x="156" 
d="M137 480l-76 -403c-7 -36 -2 -49 21 -49l-10 -35c-5 -1 -11 -1 -16 -1c-16 0 -37 9 -37 51c0 29 7 58 23 143l56 294h39z" />
    <glyph glyph-name="kappa" unicode="&#x3ba;" horiz-adv-x="315" 
d="M137 254l-1 -2c36 -13 64 -84 83 -137l45 -115h-42l-43 115c-20 52 -45 116 -79 116h-9l-43 -231h-39l69 369c10 58 12 95 9 111h36c5 -11 7 -37 -4 -98l-23 -125h2c88 102 157 180 196 223h45v-2c-60 -64 -109 -119 -202 -224z" />
    <glyph glyph-name="lambda" unicode="&#x3bb;" horiz-adv-x="295" 
d="M196 0l-14 288c-2 31 -3 69 -3 123h-3c-14 -41 -33 -88 -47 -119l-129 -292h-42l203 452c7 16 9 31 9 40c0 8 0 18 -1 30c-7 117 -35 140 -68 142h-5l8 36c4 0 9 0 18 -1c66 -9 78 -90 84 -190l30 -509h-40z" />
    <glyph glyph-name="uni03BC" unicode="&#x3bc;" horiz-adv-x="359" 
d="M133 480l-61 -325c-13 -67 -8 -124 52 -124c63 0 106 102 117 138c5 15 8 27 11 42l48 269h39l-65 -359c-12 -67 -10 -93 9 -92l-12 -37h-11c-17 0 -38 13 -29 89h-2c-23 -47 -65 -86 -114 -86c-27 0 -54 14 -65 43l-17 -89c-10 -54 -19 -107 -16 -141h-36
c-4 18 -1 63 9 117l104 555h39z" />
    <glyph glyph-name="nu" unicode="&#x3bd;" horiz-adv-x="305" 
d="M45 480h39c6 -92 11 -185 17 -277c3 -53 4 -96 5 -140h3c47 99 127 264 146 358c5 25 7 49 6 59h38c2 -7 2 -30 -3 -56c-19 -100 -108 -281 -187 -424h-33c-10 160 -21 320 -31 480z" />
    <glyph glyph-name="xi" unicode="&#x3be;" horiz-adv-x="311" 
d="M277 375h-18c-100 -3 -197 -79 -197 -194c0 -70 37 -110 102 -134c32 -12 55 -18 89 -25c4 -1 6 -5 6 -9c0 -37 -39 -109 -70 -137l-33 10c31 39 52 77 59 108c-16 2 -54 12 -80 23c-60 25 -115 72 -115 157c0 130 101 205 173 225v5c-50 21 -77 72 -77 125
c0 92 72 171 164 171c34 0 63 -10 76 -20l-13 -31c-9 5 -35 14 -70 14c-70 0 -115 -66 -115 -132c0 -67 43 -114 109 -119c5 -1 10 -1 15 -1z" />
    <glyph glyph-name="omicron" unicode="&#x3bf;" horiz-adv-x="340" 
d="M119 -8h-1c-68 0 -97 67 -97 161c0 109 56 335 198 335c81 0 94 -86 94 -149c0 -103 -47 -347 -194 -347zM126 29h1c105 0 144 230 144 308c0 61 -9 114 -59 114c-96 0 -149 -189 -149 -290c0 -67 5 -132 63 -132z" />
    <glyph glyph-name="pi" unicode="&#x3c0;" horiz-adv-x="349" 
d="M354 445h-47l-59 -314c-14 -76 -15 -113 -12 -131h-37c-4 15 -6 53 9 130l60 315h-114c-8 -36 -14 -72 -22 -108c-28 -132 -68 -277 -115 -337h-40c48 65 85 188 116 333c8 37 15 75 23 112c-46 0 -59 -5 -67 -10l-4 28c11 10 35 17 79 17h237z" />
    <glyph glyph-name="rho" unicode="&#x3c1;" horiz-adv-x="353" 
d="M14 -192h-36c-4 16 -1 63 9 115l59 317c19 106 47 161 74 195c32 40 68 53 106 53c54 0 102 -51 102 -150c0 -170 -75 -346 -187 -346c-44 0 -75 30 -87 69h-3l-20 -112c-10 -54 -20 -108 -17 -141zM85 236l-8 -43c-3 -14 -6 -39 -6 -60c0 -41 19 -104 74 -104
c75 0 141 143 141 316c0 55 -26 106 -71 106c-46 0 -100 -51 -130 -215z" />
    <glyph glyph-name="sigma" unicode="&#x3c3;" horiz-adv-x="345" 
d="M284 457v-3c22 -32 29 -74 29 -115c0 -103 -47 -347 -194 -347c-69 0 -98 67 -98 161c0 109 56 335 198 335h43h16h102l-7 -35c-22 0 -51 2 -89 4zM126 29h1c105 0 144 230 144 308c0 61 -9 114 -59 114c-96 0 -149 -189 -149 -290c0 -67 5 -132 63 -132z" />
    <glyph glyph-name="tau" unicode="&#x3c4;" horiz-adv-x="260" 
d="M164 29l-7 -33c-7 -3 -15 -4 -20 -4c-36 0 -68 24 -68 70c0 19 5 45 11 79l57 304h-48c-32 0 -50 -7 -60 -12l-2 28c10 10 34 19 67 19h202l-8 -35h-111l-58 -321c-6 -31 -8 -44 -8 -56c0 -29 17 -40 35 -40c6 0 12 0 18 1z" />
    <glyph glyph-name="upsilon" unicode="&#x3c5;" horiz-adv-x="339" 
d="M256 480h37c8 -15 14 -47 14 -81c0 -219 -76 -407 -195 -407c-48 0 -89 38 -89 99c0 9 2 23 5 43l32 174c14 72 27 144 23 172h36c6 -14 3 -51 -5 -95l-48 -257c-2 -13 -4 -26 -4 -34c0 -48 31 -68 56 -68c78 0 150 155 150 369c0 36 -5 65 -12 85z" />
    <glyph glyph-name="phi" unicode="&#x3c6;" horiz-adv-x="418" 
d="M146 27l65 360c11 61 31 101 79 101c51 0 98 -43 98 -162c0 -192 -101 -326 -210 -334l-36 -184h-39l37 184c-55 14 -114 61 -114 180c0 169 90 278 145 312l20 -25c-54 -37 -123 -140 -123 -279c0 -83 26 -138 78 -153zM251 396l-67 -368c88 9 162 142 162 300
c0 81 -23 125 -58 125c-16 0 -29 -15 -37 -57z" />
    <glyph glyph-name="chi" unicode="&#x3c7;" horiz-adv-x="285" 
d="M53 480h42l22 -164c5 -35 9 -79 13 -115h5c17 36 32 67 50 101c30 58 61 117 92 178h46c-61 -111 -120 -218 -180 -326l54 -342l-40 -10l-25 168c-7 48 -13 93 -19 145h-5c-19 -35 -35 -73 -54 -111c-33 -66 -65 -133 -99 -202l-38 15c61 119 121 236 182 350z" />
    <glyph glyph-name="psi" unicode="&#x3c8;" horiz-adv-x="422" 
d="M348 480h36c5 -17 10 -39 10 -69c0 -259 -99 -415 -214 -419l-34 -184h-39l34 184c-53 7 -107 37 -107 148c0 22 3 46 8 74l32 177c5 25 11 65 8 89h36c4 -14 1 -52 -4 -81l-29 -164c-6 -36 -10 -67 -10 -92c0 -76 25 -108 73 -115l103 552h39l-103 -552
c81 2 167 152 167 376c0 38 -4 64 -6 76z" />
    <glyph glyph-name="omega" unicode="&#x3c9;" horiz-adv-x="460" 
d="M341 480h38c29 -32 48 -101 48 -164c0 -177 -67 -324 -150 -324c-52 0 -71 32 -78 81h-3c-21 -50 -51 -81 -96 -81c-43 0 -86 38 -86 135c0 175 90 318 135 353h43v-2c-51 -43 -136 -186 -136 -348c0 -72 24 -100 53 -100c46 0 71 64 85 142l28 147h39l-28 -147
c-4 -19 -6 -39 -6 -58c0 -34 8 -84 52 -84c61 0 107 168 107 268c0 88 -21 148 -45 180v2z" />
    <glyph glyph-name="alphatonos" unicode="&#x3ac;" horiz-adv-x="342" 
d="M254 667h57l-107 -132h-32zM221 73h-3c-22 -43 -64 -81 -113 -81c-54 0 -91 44 -91 134c0 202 99 362 189 362c57 0 73 -48 75 -78h3c8 33 12 50 21 70h33c-8 -22 -23 -85 -29 -117c-14 -77 -28 -153 -42 -230c-15 -80 -13 -105 10 -104l-11 -37h-8c-17 0 -43 8 -34 81z
M56 131v-1c0 -52 15 -101 60 -101c54 0 105 83 122 169c4 23 9 47 13 70c5 27 8 52 8 74c0 68 -22 109 -58 109c-79 0 -145 -169 -145 -320z" />
    <glyph glyph-name="epsilontonos" unicode="&#x3ad;" horiz-adv-x="276" 
d="M266 667h57l-107 -132h-32zM216 243h-32c-58 0 -139 -44 -139 -124c0 -58 41 -90 97 -90c39 0 64 11 77 18l8 -32c-21 -15 -65 -23 -93 -23c-68 0 -131 39 -131 120c0 77 64 140 122 152l1 5c-34 11 -60 43 -60 91c0 66 62 128 138 128c31 0 68 -8 83 -23l-15 -33
c-11 8 -34 19 -72 19c-58 0 -92 -48 -92 -91c0 -57 43 -79 101 -81h13z" />
    <glyph glyph-name="etatonos" unicode="&#x3ae;" horiz-adv-x="363" 
d="M280 667h57l-107 -132h-32zM117 396h2c42 67 83 92 129 92c54 0 76 -45 76 -91c0 -28 -3 -46 -8 -71l-70 -377c-10 -54 -19 -107 -17 -141h-36c-5 13 -1 63 9 117l74 395c5 25 8 47 8 76c0 34 -14 55 -49 55c-56 0 -119 -85 -136 -175l-52 -276h-39l58 311
c15 78 21 135 18 169h36c2 -28 1 -56 -3 -84z" />
    <glyph glyph-name="iotatonos" unicode="&#x3af;" horiz-adv-x="156" 
d="M183 667h57l-107 -132h-32zM137 480l-76 -403c-7 -36 -2 -49 21 -49l-10 -35c-5 -1 -11 -1 -16 -1c-17 0 -37 10 -37 53c0 27 9 67 17 109l62 326h39z" />
    <glyph glyph-name="iotadieresis" unicode="&#x3ca;" horiz-adv-x="156" 
d="M59 562h-1c-19 0 -31 13 -31 33s17 38 38 38c25 0 32 -17 32 -32c0 -19 -15 -39 -38 -39zM197 562h-1c-19 0 -31 13 -31 33s17 38 38 38c25 0 32 -17 32 -32c0 -19 -15 -39 -38 -39zM137 480l-76 -403c-7 -36 -2 -49 21 -49l-10 -35c-5 -1 -11 -1 -16 -1
c-17 0 -37 11 -37 55c0 26 11 75 17 105l62 328h39z" />
    <glyph glyph-name="omicrontonos" unicode="&#x3cc;" horiz-adv-x="340" 
d="M258 667h57l-107 -132h-32zM119 -8h-1c-68 0 -97 67 -97 161c0 109 56 335 198 335c81 0 94 -86 94 -149c0 -103 -47 -347 -194 -347zM126 29h1c105 0 144 230 144 308c0 61 -9 114 -59 114c-96 0 -149 -189 -149 -290c0 -67 5 -132 63 -132z" />
    <glyph glyph-name="upsilontonos" unicode="&#x3cd;" horiz-adv-x="339" 
d="M242 667h57l-107 -132h-32zM256 480h37c8 -15 14 -47 14 -81c0 -219 -76 -407 -195 -407c-48 0 -89 38 -89 99c0 9 2 23 5 43l32 174c14 72 27 144 23 172h36c6 -14 3 -51 -5 -95l-48 -257c-2 -13 -4 -26 -4 -34c0 -48 31 -68 56 -68c78 0 150 155 150 369
c0 36 -5 65 -12 85z" />
    <glyph glyph-name="upsilondieresis" unicode="&#x3cb;" horiz-adv-x="339" 
d="M140 562h-1c-19 0 -31 13 -31 33s17 38 38 38c25 0 32 -17 32 -32c0 -19 -15 -39 -38 -39zM278 562h-1c-19 0 -31 13 -31 33s17 38 38 38c25 0 32 -17 32 -32c0 -19 -15 -39 -38 -39zM256 480h37c8 -15 14 -47 14 -81c0 -219 -76 -407 -195 -407c-48 0 -89 38 -89 99
c0 9 2 23 5 43l32 174c14 72 27 144 23 172h36c6 -14 3 -51 -5 -95l-48 -257c-2 -13 -4 -26 -4 -34c0 -48 31 -68 56 -68c78 0 150 155 150 369c0 36 -5 65 -12 85z" />
    <glyph glyph-name="omegatonos" unicode="&#x3ce;" horiz-adv-x="460" 
d="M326 667h57l-107 -132h-32zM341 480h38c29 -32 48 -101 48 -164c0 -177 -67 -324 -150 -324c-52 0 -71 32 -78 81h-3c-21 -50 -51 -81 -96 -81c-43 0 -86 38 -86 135c0 175 90 318 135 353h43v-2c-51 -43 -136 -186 -136 -348c0 -72 24 -100 53 -100c46 0 71 64 85 142
l28 147h39l-28 -147c-4 -19 -6 -39 -6 -58c0 -34 8 -84 52 -84c61 0 107 168 107 268c0 88 -21 148 -45 180v2z" />
    <glyph glyph-name="iotadieresistonos" unicode="&#x390;" horiz-adv-x="156" 
d="M137 480l-76 -403c-7 -36 -2 -49 21 -49l-10 -35c-5 -1 -11 -1 -16 -1c-17 0 -37 11 -37 54c0 28 11 77 18 113l61 321h39zM146 671h49l-76 -140h-24zM50 562h-1c-17 0 -28 11 -28 29s16 35 34 35c23 0 29 -16 29 -29c0 -17 -13 -35 -34 -35zM223 562h-1
c-17 0 -28 11 -28 29s15 35 34 35c23 0 29 -16 29 -29c0 -17 -14 -35 -34 -35z" />
    <glyph glyph-name="upsilondieresistonos" unicode="&#x3b0;" horiz-adv-x="339" 
d="M256 480h37c8 -15 14 -47 14 -81c0 -219 -76 -407 -195 -407c-48 0 -89 38 -89 99c0 9 2 23 5 43l32 174c14 72 27 144 23 172h36c6 -14 3 -51 -5 -95l-48 -257c-2 -13 -4 -26 -4 -34c0 -48 31 -68 56 -68c78 0 150 155 150 369c0 36 -5 65 -12 85zM209 671h49l-76 -140
h-24zM113 562h-1c-17 0 -28 11 -28 29s16 35 34 35c23 0 29 -16 29 -29c0 -17 -13 -35 -34 -35zM286 562h-1c-17 0 -28 11 -28 29s15 35 34 35c23 0 29 -16 29 -29c0 -17 -14 -35 -34 -35z" />
    <glyph glyph-name="uni03C2" unicode="&#x3c2;" horiz-adv-x="277" 
d="M152 -124l-33 10c31 40 52 77 59 108c-16 4 -44 13 -70 29c-54 34 -83 88 -83 164c0 164 107 301 206 301c25 0 47 -4 60 -15l-12 -31c-15 7 -28 9 -50 9c-83 0 -162 -118 -162 -259c0 -61 19 -107 67 -138c28 -18 55 -27 82 -34c4 -1 6 -5 6 -9c0 -37 -39 -106 -70 -135
z" />
    <glyph glyph-name="uni037E" unicode="&#x37e;" horiz-adv-x="170" 
d="M7 -121l-36 -5c17 42 52 150 67 212l59 4c-24 -69 -75 -183 -90 -211zM117 354h-1c-20 0 -33 16 -33 39c0 24 18 45 40 45c27 0 34 -20 34 -38c0 -22 -16 -46 -40 -46z" />
    <glyph glyph-name="anoteleia" unicode="&#x387;" horiz-adv-x="170" 
d="M89 280h-1c-20 0 -33 16 -33 39c0 24 18 45 40 45c27 0 34 -20 34 -38c0 -22 -16 -46 -40 -46z" />
    <glyph glyph-name="afii10017" unicode="&#x410;" horiz-adv-x="413" 
d="M292 233h-167l-96 -233h-41l283 674h39l31 -674h-39zM140 269h151l-8 190c-2 52 -2 100 -3 152h-4c-19 -53 -37 -103 -58 -153z" />
    <glyph glyph-name="afii10018" unicode="&#x411;" horiz-adv-x="358" 
d="M138 674h223l-6 -36h-184l-47 -247c14 4 30 7 52 7c97 0 144 -70 144 -162c0 -72 -23 -134 -66 -177c-39 -39 -95 -62 -164 -62c-46 0 -65 3 -79 6zM117 355l-61 -318c11 -2 23 -4 42 -4c111 0 181 89 181 195c0 79 -31 134 -115 134c-16 0 -39 -4 -47 -7z" />
    <glyph glyph-name="afii10019" unicode="&#x412;" horiz-adv-x="368" 
d="M11 8l124 660c27 6 56 9 90 9c41 0 80 -12 105 -35c24 -23 38 -58 38 -101c0 -80 -53 -152 -139 -180v-2c76 -26 97 -91 97 -152c0 -72 -31 -125 -73 -161c-39 -35 -97 -49 -154 -49c-37 0 -71 4 -88 11zM169 636l-49 -257h35c91 0 170 64 170 161c0 63 -34 101 -111 101
c-18 0 -34 -1 -45 -5zM114 345l-58 -305c11 -4 29 -7 49 -7c116 0 180 78 180 176c0 78 -44 136 -139 136h-32z" />
    <glyph glyph-name="afii10020" unicode="&#x413;" horiz-adv-x="303" 
d="M138 674h224l-7 -36h-184l-121 -638h-39z" />
    <glyph glyph-name="afii10050" unicode="&#x490;" horiz-adv-x="299" 
d="M137 674h181l39 104h33l-39 -140h-182l-119 -638h-39z" />
    <glyph glyph-name="afii10021" unicode="&#x414;" horiz-adv-x="407" 
d="M195 674h223l-121 -638h40l-37 -171h-35l23 135h-293l-30 -135h-35l30 171h36c39 63 70 129 95 198c35 97 58 198 77 299zM226 638l-22 -118c-17 -89 -41 -195 -75 -294c-24 -70 -58 -140 -89 -190h218l114 602h-146z" />
    <glyph glyph-name="afii10022" unicode="&#x415;" horiz-adv-x="322" 
d="M297 372l-7 -36h-177l-56 -300h202l-7 -36h-241l127 674h229l-7 -36h-189l-51 -266h177z" />
    <glyph glyph-name="afii10024" unicode="&#x416;" horiz-adv-x="512" 
d="M93 674h42l103 -318h17l60 318h38l-60 -317h19l221 317h46l-231 -322c84 -17 95 -90 96 -167c1 -62 -2 -125 8 -185h-41c-7 42 -5 116 -6 175c-1 83 -13 152 -104 152h-12l-63 -327h-38l61 327h-11c-97 0 -125 -69 -160 -152c-26 -62 -49 -121 -74 -175h-44
c27 51 55 121 81 181c34 81 70 167 162 173z" />
    <glyph glyph-name="afii10025" unicode="&#x417;" horiz-adv-x="327" 
d="M94 341l6 38h19c75 0 152 65 152 158c0 56 -27 108 -86 108c-32 0 -64 -12 -90 -30l-11 30c25 17 65 37 108 37c77 0 121 -60 121 -138c0 -96 -62 -156 -123 -180v-4c57 -20 94 -76 94 -156c0 -117 -84 -212 -201 -212c-34 0 -76 8 -109 29l18 37c16 -12 53 -28 92 -28
c91 0 158 72 158 176c0 79 -46 135 -125 135h-23z" />
    <glyph glyph-name="afii10026" unicode="&#x418;" horiz-adv-x="423" 
d="M138 674h38l-77 -404c-12 -61 -24 -119 -43 -202h2c40 82 93 174 141 258l200 348h40l-127 -674h-37l80 423c13 69 25 124 41 190h-2c-46 -99 -92 -177 -135 -252l-206 -361h-42z" />
    <glyph glyph-name="afii10027" unicode="&#x419;" horiz-adv-x="423" 
d="M138 674h38l-77 -404c-12 -61 -24 -119 -43 -202h2c40 82 93 174 141 258l200 348h40l-127 -674h-37l80 423c13 69 25 124 41 190h-2c-46 -99 -92 -177 -135 -252l-206 -361h-42zM206 807h37c1 -31 19 -57 57 -57c40 0 67 23 74 57h38c-7 -47 -48 -89 -115 -89
c-62 0 -92 42 -91 89z" />
    <glyph glyph-name="afii10028" unicode="&#x41a;" horiz-adv-x="343" 
d="M138 674h39l-60 -317h20l230 317h46l-241 -322c88 -17 100 -88 102 -167c1 -62 -2 -125 9 -185h-42c-8 42 -6 116 -7 175c-2 83 -14 152 -108 152h-13l-63 -327h-39z" />
    <glyph glyph-name="afii10029" unicode="&#x41b;" horiz-adv-x="405" 
d="M177 674h244l-129 -674h-39l121 638h-166l-51 -268c-26 -136 -45 -229 -77 -287c-24 -44 -61 -83 -112 -89l-3 35c34 4 63 36 82 70c26 46 45 124 71 263z" />
    <glyph glyph-name="afii10030" unicode="&#x41c;" horiz-adv-x="563" 
d="M464 0h-39l64 458c8 59 17 103 26 160h-5c-21 -59 -44 -118 -71 -177l-199 -441h-22l-32 453c-4 63 -5 108 -5 165h-3c-14 -59 -20 -101 -34 -161l-105 -457h-40l162 674h47l31 -433c4 -53 6 -89 5 -147h4c21 58 39 95 63 149l192 431h52z" />
    <glyph glyph-name="afii10031" unicode="&#x41d;" horiz-adv-x="421" 
d="M138 674h40l-58 -302h220l57 302h40l-128 -674h-39l63 336h-220l-63 -336h-39z" />
    <glyph glyph-name="afii10032" unicode="&#x41e;" horiz-adv-x="417" 
d="M165 -8h-1c-119 0 -129 137 -129 208c0 129 48 315 117 405c42 54 91 77 134 77c116 0 124 -132 124 -220c0 -104 -45 -306 -112 -393c-41 -53 -90 -77 -133 -77zM169 29h1c136 0 198 325 198 423c0 104 -5 193 -90 193c-131 0 -201 -305 -201 -430c0 -70 2 -186 92 -186
z" />
    <glyph glyph-name="afii10033" unicode="&#x41f;" horiz-adv-x="414" 
d="M138 674h292l-127 -674h-39l120 638h-214l-120 -638h-39z" />
    <glyph glyph-name="afii10034" unicode="&#x420;" horiz-adv-x="354" 
d="M11 0l125 668c27 6 59 9 88 9c40 0 87 -14 111 -43c24 -28 34 -63 34 -105c0 -62 -23 -125 -57 -166c-39 -49 -99 -73 -153 -73c-21 0 -39 2 -53 6l-56 -296h-39zM170 636l-58 -304c15 -4 28 -6 48 -6c111 0 167 110 167 197c0 70 -27 118 -114 118c-14 0 -30 -2 -43 -5z
" />
    <glyph glyph-name="afii10035" unicode="&#x421;" horiz-adv-x="340" 
d="M273 45l9 -34c-20 -11 -52 -17 -87 -17c-120 0 -161 108 -161 237c0 113 30 270 127 370c56 58 117 79 169 79c28 0 52 -5 61 -11l-13 -36c-14 6 -34 9 -51 9c-54 0 -102 -24 -139 -66c-70 -80 -112 -212 -112 -330c0 -126 28 -215 128 -215c28 0 54 7 69 14z" />
    <glyph glyph-name="afii10036" unicode="&#x422;" horiz-adv-x="322" 
d="M92 0l120 638h-124l7 36h287l-7 -36h-124l-120 -638h-39z" />
    <glyph glyph-name="afii10037" unicode="&#x423;" horiz-adv-x="328" 
d="M90 674h42l41 -291c6 -43 11 -92 17 -129h1c11 34 36 98 52 138l111 282h43l-147 -363c-42 -105 -85 -203 -124 -256c-32 -42 -70 -63 -102 -63c-18 0 -32 3 -43 8l10 37c10 -4 21 -6 33 -6c62 0 104 92 131 156c3 5 6 19 3 34z" />
    <glyph glyph-name="afii10038" unicode="&#x424;" horiz-adv-x="456" 
d="M155 -8l11 54c-51 11 -122 53 -122 203c0 203 95 383 239 383l9 50h38l-9 -53c71 -9 121 -74 121 -210c0 -152 -61 -366 -238 -375l-10 -52h-39zM174 82l100 515c-114 -3 -188 -185 -188 -344c0 -103 36 -160 88 -171zM312 594l-100 -515c142 8 188 222 188 345
c0 113 -42 166 -88 170z" />
    <glyph glyph-name="afii10039" unicode="&#x425;" horiz-adv-x="376" 
d="M302 0h-41l-39 185c-6 28 -12 59 -25 117h-3c-29 -50 -48 -85 -67 -118l-106 -184h-46l207 344l-77 330h42l39 -172c7 -30 13 -59 24 -114h2c25 50 38 72 63 115l100 171h47l-197 -324z" />
    <glyph glyph-name="afii10040" unicode="&#x426;" horiz-adv-x="417" 
d="M138 674h39l-120 -638h211l120 638h40l-120 -638h40l-37 -171h-36l23 135h-287z" />
    <glyph glyph-name="afii10041" unicode="&#x427;" horiz-adv-x="369" 
d="M119 674h39l-37 -190c-7 -34 -15 -73 -15 -109c0 -53 26 -83 79 -83c31 0 70 11 94 27l67 355h39l-127 -674h-39l52 280h-2c-22 -12 -60 -23 -92 -23c-77 0 -112 44 -112 109c0 40 10 84 17 117z" />
    <glyph glyph-name="afii10042" unicode="&#x428;" horiz-adv-x="558" 
d="M138 674h40l-121 -638h157l120 638h40l-121 -638h161l120 638h40l-128 -674h-435z" />
    <glyph glyph-name="afii10043" unicode="&#x429;" horiz-adv-x="562" 
d="M138 674h40l-121 -638h157l120 638h40l-121 -638h161l120 638h39l-120 -638h40l-37 -171h-36l23 135h-432z" />
    <glyph glyph-name="afii10044" unicode="&#x42a;" horiz-adv-x="441" 
d="M94 674h166l-55 -285c14 4 28 7 53 7c94 0 144 -63 144 -157c0 -68 -22 -133 -64 -176c-40 -42 -99 -66 -166 -66c-46 0 -65 3 -79 6l120 635h-125zM198 351l-60 -314c11 -2 23 -4 42 -4c113 0 181 93 181 198c0 82 -32 129 -110 129c-19 0 -42 -5 -53 -9z" />
    <glyph glyph-name="afii10045" unicode="&#x42b;" horiz-adv-x="493" 
d="M137 674h41l-55 -285c14 4 28 7 50 7c97 0 147 -63 147 -157c0 -68 -22 -133 -64 -176c-40 -42 -99 -66 -166 -66c-46 0 -65 3 -79 6zM116 354l-60 -317c11 -2 23 -4 42 -4c111 0 181 93 181 198c0 82 -32 129 -118 129c-16 0 -34 -3 -45 -6zM469 674h40l-128 -674h-39z
" />
    <glyph glyph-name="afii10046" unicode="&#x42c;" horiz-adv-x="359" 
d="M137 674h41l-55 -285c14 4 28 7 50 7c97 0 147 -63 147 -157c0 -73 -22 -133 -64 -176c-40 -42 -99 -66 -166 -66c-46 0 -65 3 -79 6zM116 353l-60 -316c11 -2 23 -4 42 -4c111 0 181 93 181 198c0 82 -32 129 -118 129c-16 0 -34 -4 -45 -7z" />
    <glyph glyph-name="afii10047" unicode="&#x42d;" horiz-adv-x="350" 
d="M89 325l7 38h194c4 26 5 51 5 80c0 86 -28 200 -124 200c-26 0 -53 -6 -73 -16l-7 33c22 10 53 20 88 20c109 0 158 -110 158 -248c0 -82 -17 -237 -108 -353c-40 -51 -95 -85 -164 -85c-37 0 -68 7 -94 23l14 34c19 -11 46 -20 80 -20c141 0 203 183 220 294h-196z" />
    <glyph glyph-name="afii10048" unicode="&#x42e;" horiz-adv-x="548" 
d="M138 674h40l-58 -302h88c19 90 51 179 90 233s85 77 125 77c108 0 118 -132 118 -220c0 -104 -43 -306 -105 -393c-38 -53 -85 -77 -125 -77c-112 0 -123 137 -123 208c0 41 5 88 13 136h-88l-63 -336h-39zM315 29h1c126 0 184 325 184 423c0 104 -5 193 -84 193
c-122 0 -187 -305 -187 -430c0 -70 2 -186 86 -186z" />
    <glyph glyph-name="afii10049" unicode="&#x42f;" horiz-adv-x="353" 
d="M369 666l-126 -666h-39l59 309h-31c-101 0 -134 -77 -161 -154c-16 -46 -33 -113 -57 -155h-42c30 51 47 115 65 172c19 59 55 136 122 156v2c-47 19 -85 70 -85 140s31 125 72 159c39 33 95 48 142 48c33 0 64 -5 81 -11zM269 343l56 293c-12 3 -25 4 -37 4
c-106 1 -171 -70 -171 -164c0 -80 45 -133 127 -133h25z" />
    <glyph glyph-name="afii10023" unicode="&#x401;" horiz-adv-x="322" 
d="M297 372l-7 -36h-177l-56 -300h202l-7 -36h-241l127 674h229l-7 -36h-189l-51 -266h177zM182 731h-1c-19 0 -31 13 -31 33s17 38 38 38c25 0 32 -17 32 -32c0 -19 -15 -39 -38 -39zM325 731h-1c-19 0 -31 13 -31 33s17 38 38 38c25 0 32 -17 32 -32
c0 -19 -15 -39 -38 -39z" />
    <glyph glyph-name="afii10051" unicode="&#x402;" horiz-adv-x="430" 
d="M94 674h306l-8 -36h-146l-44 -233h2c21 14 52 27 84 27c78 0 107 -89 107 -156c0 -102 -37 -247 -107 -324c-40 -45 -77 -66 -101 -76l-12 33c39 18 72 46 100 84c47 69 80 195 80 278c0 50 -21 124 -83 124c-27 0 -55 -11 -77 -27l-69 -368h-39l120 638h-121z" />
    <glyph glyph-name="afii10052" unicode="&#x403;" horiz-adv-x="303" 
d="M138 674h224l-7 -36h-184l-121 -638h-39zM318 815h65l-126 -105h-41z" />
    <glyph glyph-name="afii10053" unicode="&#x404;" horiz-adv-x="341" 
d="M392 668l-11 -36c-15 7 -35 10 -57 10c-145 0 -209 -163 -234 -276h214l-7 -37h-213c-5 -27 -7 -62 -7 -95c0 -78 22 -203 128 -203c29 0 53 6 74 16l8 -34c-28 -13 -57 -19 -90 -19c-132 0 -163 131 -163 246c0 105 32 239 98 330c45 62 109 110 199 110
c26 0 48 -5 61 -12z" />
    <glyph glyph-name="afii10054" unicode="&#x405;" horiz-adv-x="322" 
d="M-6 22l15 36c19 -14 52 -26 88 -26c95 0 139 76 139 157c0 58 -26 104 -71 150c-47 48 -85 101 -85 168c0 93 68 173 172 173c34 0 67 -11 82 -22l-15 -34c-20 11 -42 18 -75 18c-75 0 -121 -59 -122 -131c0 -59 35 -104 74 -143c41 -41 82 -100 82 -172
c0 -111 -63 -202 -188 -202c-40 0 -82 15 -96 28z" />
    <glyph glyph-name="afii10055" unicode="&#x406;" horiz-adv-x="163" 
d="M138 674h40l-128 -674h-39z" />
    <glyph glyph-name="afii10056" unicode="&#x407;" horiz-adv-x="163" 
d="M138 674h40l-128 -674h-39zM103 731h-1c-19 0 -31 13 -31 33s17 38 38 38c25 0 32 -17 32 -32c0 -19 -15 -39 -38 -39zM246 731h-1c-19 0 -31 13 -31 33s17 38 38 38c25 0 32 -17 32 -32c0 -19 -15 -39 -38 -39z" />
    <glyph glyph-name="afii10057" unicode="&#x408;" horiz-adv-x="239" 
d="M125 162l97 512h39l-99 -525c-25 -134 -79 -157 -141 -157c-21 0 -41 3 -56 10l9 35c11 -4 26 -8 44 -8c62 0 89 36 107 133z" />
    <glyph glyph-name="afii10058" unicode="&#x409;" horiz-adv-x="602" 
d="M177 674h244l-55 -285c14 4 33 7 55 7c92 0 142 -63 142 -157c0 -68 -22 -133 -64 -176c-40 -42 -99 -66 -166 -66c-46 0 -65 3 -79 6l120 635h-164l-51 -268c-26 -136 -50 -233 -80 -288c-24 -43 -56 -82 -111 -88l-3 35c34 4 62 36 79 69c24 47 48 125 74 264zM359 352
l-60 -315c11 -2 23 -4 42 -4c116 0 181 93 181 198c0 82 -32 129 -110 129c-19 0 -42 -4 -53 -8z" />
    <glyph glyph-name="afii10059" unicode="&#x40a;" horiz-adv-x="602" 
d="M138 674h40l-58 -294h205l55 294h41l-55 -285c14 4 28 7 50 7c97 0 147 -63 147 -162c0 -68 -22 -128 -64 -171c-40 -42 -99 -66 -166 -66c-46 0 -65 3 -79 6l64 341h-205l-63 -344h-39zM359 353l-60 -316c11 -2 23 -4 42 -4c111 0 181 87 181 195c0 82 -32 132 -118 132
c-16 0 -34 -4 -45 -7z" />
    <glyph glyph-name="afii10060" unicode="&#x40b;" horiz-adv-x="450" 
d="M95 674h310l-7 -36h-152l-43 -236h2c29 26 69 40 102 40c62 0 95 -48 95 -105c0 -32 -10 -88 -15 -113l-42 -224h-40l42 220c8 41 16 89 16 112c0 40 -21 73 -71 73c-35 0 -73 -19 -98 -48l-66 -357h-40l118 638h-118z" />
    <glyph glyph-name="afii10061" unicode="&#x40c;" horiz-adv-x="343" 
d="M138 674h39l-60 -317h20l230 317h46l-241 -322c88 -17 100 -88 102 -167c1 -62 -2 -125 9 -185h-42c-8 42 -6 116 -7 175c-2 83 -14 152 -108 152h-13l-63 -327h-39zM322 815h65l-126 -105h-41z" />
    <glyph glyph-name="afii10062" unicode="&#x40e;" horiz-adv-x="328" 
d="M90 674h42l41 -291c6 -43 11 -92 17 -129h1c11 34 36 98 52 138l111 282h43l-147 -363c-42 -105 -85 -203 -124 -256c-32 -42 -70 -63 -102 -63c-18 0 -32 3 -43 8l10 37c10 -4 21 -6 33 -6c62 0 104 92 131 156c3 5 6 19 3 34zM145 807h37c1 -31 19 -57 57 -57
c40 0 67 23 74 57h38c-7 -47 -48 -89 -115 -89c-62 0 -92 42 -91 89z" />
    <glyph glyph-name="afii10145" unicode="&#x40f;" horiz-adv-x="410" 
d="M139 674h38l-121 -638h211l121 638h38l-128 -674h-121l-33 -135h-33l21 135h-121z" />
    <glyph glyph-name="afii10065" unicode="&#x430;" horiz-adv-x="352" 
d="M259 0h-39c1 28 5 55 9 98h-2c-53 -92 -93 -106 -127 -106c-47 0 -81 41 -81 130c0 146 81 366 254 366c24 0 50 -5 64 -13l-57 -279c-14 -71 -22 -141 -21 -196zM252 250l39 197c-9 3 -19 4 -32 4c-124 0 -195 -186 -198 -313c-2 -72 13 -109 49 -109
c58 0 122 120 142 221z" />
    <glyph glyph-name="afii10066" unicode="&#x431;" horiz-adv-x="338" 
d="M383 700l-3 -39c-17 -7 -31 -11 -55 -16c-65 -14 -126 -50 -163 -114c-21 -36 -42 -84 -51 -122h4c24 39 60 71 107 71c70 0 89 -74 89 -135c0 -101 -41 -353 -186 -353c-71 0 -99 71 -99 158c0 127 47 286 88 364c55 107 123 151 209 170c20 4 41 9 60 16zM133 28h1
c96 0 135 235 135 311c0 38 -3 105 -56 105c-47 0 -91 -55 -110 -99c-21 -49 -35 -123 -35 -209c0 -57 21 -108 65 -108z" />
    <glyph glyph-name="afii10067" unicode="&#x432;" horiz-adv-x="343" 
d="M234 488h1c43 0 81 -35 81 -90c0 -71 -62 -109 -110 -132v-2c47 -11 82 -40 82 -114c0 -96 -79 -156 -155 -156c-82 0 -109 50 -109 130c0 73 38 258 111 322c23 23 57 42 99 42zM220 452h-1c-81 0 -121 -130 -133 -191c63 11 107 27 139 51c27 21 50 46 50 80
s-17 60 -55 60zM163 243h-1c-30 0 -54 -6 -84 -18c-5 -20 -13 -64 -13 -105c0 -45 15 -90 75 -90c57 0 106 43 106 120c0 70 -39 92 -83 93z" />
    <glyph glyph-name="afii10068" unicode="&#x433;" horiz-adv-x="264" 
d="M97 432l-11 30c17 12 49 26 81 26c62 0 93 -41 93 -97c0 -75 -63 -118 -120 -157c-45 -30 -98 -76 -98 -131c0 -37 16 -72 60 -72c36 0 65 16 82 25l11 -32c-14 -11 -56 -30 -97 -30c-59 0 -99 36 -99 105c0 81 58 123 123 170c38 28 98 65 98 121c0 33 -17 61 -60 61
c-20 0 -47 -11 -63 -19z" />
    <glyph glyph-name="afii10098" unicode="&#x491;" horiz-adv-x="274" 
d="M98 480h164l35 95h34l-39 -132h-162l-82 -443h-40z" />
    <glyph glyph-name="afii10069" unicode="&#x434;" horiz-adv-x="335" 
d="M109 662l-2 38c19 -6 48 -11 69 -14c55 -9 98 -25 125 -75c18 -34 25 -79 25 -136c0 -110 -50 -483 -214 -483c-79 0 -93 85 -93 155c0 105 57 333 191 333c45 0 68 -35 74 -73h1c2 16 4 36 4 61c0 42 -2 85 -22 123c-21 38 -49 51 -94 59c-19 3 -45 7 -64 12zM116 28h1
c93 0 149 233 149 309c0 57 -16 107 -62 107c-97 0 -143 -211 -143 -298c0 -44 5 -118 55 -118z" />
    <glyph glyph-name="afii10070" unicode="&#x435;" horiz-adv-x="310" 
d="M224 58l12 -32c-30 -20 -64 -32 -97 -32c-90 0 -116 77 -116 163c0 125 70 331 197 331c59 0 81 -46 81 -95c0 -107 -101 -157 -231 -160c-3 -14 -9 -86 -2 -123c10 -53 37 -79 78 -79c35 0 60 15 78 27zM260 392v1c0 37 -17 58 -48 58c-46 0 -99 -56 -134 -182
c84 2 182 28 182 123z" />
    <glyph glyph-name="afii10072" unicode="&#x436;" horiz-adv-x="426" 
d="M48 480h43l94 -223h8l44 223h36l-43 -223h8l180 223h45l-190 -225c56 -5 87 -49 87 -131c0 -32 -2 -95 10 -124h-37c-10 28 -9 93 -9 124c-1 78 -30 105 -91 105h-10l-44 -229h-37l45 229h-4c-74 0 -111 -43 -138 -118c-20 -53 -26 -75 -45 -111h-42c23 36 30 57 49 111
c29 79 65 140 145 143z" />
    <glyph glyph-name="afii10073" unicode="&#x437;" horiz-adv-x="298" 
d="M69 240l4 34h14c58 0 135 45 135 104c0 45 -28 73 -66 73c-36 0 -62 -11 -91 -29l-13 28c31 22 67 38 110 38c57 0 99 -40 99 -99c0 -69 -51 -113 -111 -131v-1c53 -12 94 -51 94 -115c0 -99 -86 -148 -171 -148c-40 0 -80 11 -104 30l16 33c20 -16 56 -26 90 -26
c65 0 130 35 130 110c0 61 -59 99 -117 99h-19z" />
    <glyph glyph-name="afii10074" unicode="&#x438;" horiz-adv-x="363" 
d="M98 480h39l-60 -320c-5 -25 -8 -47 -8 -74c0 -33 14 -57 48 -57c58 0 119 80 137 175l52 276h39l-58 -311c-15 -78 -19 -135 -21 -169h-38l8 82h-2c-38 -65 -84 -90 -130 -90c-53 0 -75 45 -75 91c0 24 2 42 6 61z" />
    <glyph glyph-name="afii10075" unicode="&#x439;" horiz-adv-x="363" 
d="M98 480h39l-60 -320c-5 -25 -8 -47 -8 -74c0 -33 14 -57 48 -57c58 0 119 80 137 175l52 276h39l-58 -311c-15 -78 -19 -135 -21 -169h-38l8 82h-2c-38 -65 -84 -90 -130 -90c-53 0 -75 45 -75 91c0 24 2 42 6 61zM155 659h38c-4 -42 17 -70 55 -70c42 0 66 26 75 70h38
c-12 -61 -54 -104 -116 -104c-70 0 -96 47 -90 104z" />
    <glyph glyph-name="afii10076" unicode="&#x43a;" horiz-adv-x="294" 
d="M101 480h38l-43 -223h11l174 223h46l-184 -225c50 -5 84 -49 85 -131c0 -32 -1 -95 12 -124h-40c-10 28 -9 93 -10 124c-2 78 -32 105 -88 105h-11l-44 -229h-39z" />
    <glyph glyph-name="afii10077" unicode="&#x43b;" horiz-adv-x="355" 
d="M132 480h207l-91 -480h-39l84 444h-129l-33 -171c-16 -82 -40 -221 -125 -263c-12 -6 -28 -10 -43 -10l-3 32c7 1 28 6 34 10c65 41 84 157 97 225z" />
    <glyph glyph-name="afii10078" unicode="&#x43c;" horiz-adv-x="512" 
d="M122 480h49l30 -249c10 -79 13 -119 18 -168h1c26 61 50 107 82 174l117 243h51l-59 -480h-39l31 230c10 74 19 150 31 207h-5c-24 -51 -47 -106 -81 -177l-126 -260h-32l-26 244c-7 65 -15 135 -18 193h-3c-11 -59 -30 -131 -49 -213l-52 -224h-39z" />
    <glyph glyph-name="afii10079" unicode="&#x43d;" horiz-adv-x="362" 
d="M100 480h39l-40 -208h168l40 208h39l-92 -480h-39l45 236h-168l-45 -236h-39z" />
    <glyph glyph-name="afii10080" unicode="&#x43e;" horiz-adv-x="340" 
d="M119 -8h-1c-68 0 -97 67 -97 161c0 109 56 335 198 335c81 0 94 -86 94 -149c0 -103 -47 -347 -194 -347zM126 29h1c105 0 144 230 144 308c0 61 -9 114 -59 114c-96 0 -149 -189 -149 -290c0 -67 5 -132 63 -132z" />
    <glyph glyph-name="afii10081" unicode="&#x43f;" horiz-adv-x="363" 
d="M47 0h-39l58 311c15 78 21 135 25 169h36l-10 -84h2c42 67 83 92 129 92c54 0 76 -45 76 -91c0 -28 -3 -46 -8 -71l-61 -326h-39l60 320c5 25 8 47 8 76c0 34 -14 55 -49 55c-56 0 -119 -85 -136 -175z" />
    <glyph glyph-name="afii10082" unicode="&#x440;" horiz-adv-x="353" 
d="M11 -192h-39l93 495c14 77 22 141 28 177h37l-12 -83h2c33 54 77 91 126 91c60 0 80 -58 80 -129c0 -142 -73 -367 -218 -367c-19 0 -44 7 -57 18h-2zM93 246l-36 -195c15 -13 33 -22 54 -22c133 0 175 256 175 327c0 55 -13 95 -53 95c-58 0 -120 -95 -140 -205z" />
    <glyph glyph-name="afii10083" unicode="&#x441;" horiz-adv-x="275" 
d="M209 44l7 -36c-20 -9 -45 -14 -74 -14c-90 0 -119 75 -119 171c0 120 67 323 228 323c15 0 31 -3 39 -8l-12 -36c-7 3 -18 7 -35 7c-118 0 -178 -172 -178 -284c0 -80 20 -136 86 -136c17 0 37 4 58 13z" />
    <glyph glyph-name="afii10084" unicode="&#x442;" horiz-adv-x="555" 
d="M47 0h-39l58 311c15 78 21 135 25 169h36l-10 -84h2c41 67 83 92 122 92c53 0 75 -45 76 -91c40 66 85 91 124 91c53 0 75 -45 75 -91c0 -25 -4 -50 -10 -81l-59 -316h-39l60 320c5 25 8 47 8 76c0 34 -14 55 -46 55c-54 0 -113 -81 -131 -175l-52 -276h-39l60 320
c5 25 8 47 8 76c0 34 -14 55 -46 55c-50 0 -114 -85 -131 -175z" />
    <glyph glyph-name="afii10085" unicode="&#x443;" horiz-adv-x="308" 
d="M50 480h40l25 -292c4 -43 6 -68 10 -123h2c18 46 32 83 46 121l111 294h42c-36 -94 -108 -282 -154 -397c-42 -105 -95 -193 -162 -248c-29 -23 -54 -38 -70 -43l-16 36c21 9 49 25 77 50c31 26 70 80 87 122c5 12 5 19 4 30z" />
    <glyph glyph-name="afii10086" unicode="&#x444;" horiz-adv-x="488" 
d="M136 -192l51 235h-1c-22 -26 -45 -51 -89 -51c-46 0 -77 43 -77 132c0 96 52 364 180 364c34 0 52 -29 57 -56h1l48 260h38l-54 -271h2c18 28 49 67 92 67c61 0 75 -79 75 -129c0 -99 -48 -367 -174 -367c-37 0 -58 29 -63 52h-1l-46 -236h-39zM197 453h-1
c-91 0 -135 -249 -135 -326c0 -50 9 -100 46 -100c58 0 82 66 92 114l36 175c2 12 8 41 8 73c-1 29 -19 64 -46 64zM374 452h-1c-31 0 -65 -36 -79 -68c-13 -29 -18 -52 -25 -86c-9 -49 -18 -99 -28 -149c-3 -16 -4 -27 -4 -41c0 -27 13 -81 50 -81c94 0 131 257 131 329
c0 70 -20 96 -44 96z" />
    <glyph glyph-name="afii10087" unicode="&#x445;" 
d="M58 480h42l32 -113c8 -28 15 -58 24 -85h2c22 36 38 61 54 85l72 113h47l-162 -237l69 -243h-42l-31 121c-6 23 -13 50 -23 89h-2c-19 -33 -37 -61 -55 -90l-75 -120h-47l166 245z" />
    <glyph glyph-name="afii10088" unicode="&#x446;" horiz-adv-x="368" 
d="M98 480h39l-60 -320c-5 -25 -8 -47 -8 -74c0 -33 14 -57 48 -57c58 0 119 80 137 175l52 276h39l-58 -311c-7 -39 -13 -74 -13 -97c0 -30 12 -47 45 -49l-48 -152h-32l33 129c-12 0 -24 11 -30 24c-9 16 -9 40 -6 58h-2c-38 -65 -84 -90 -130 -90c-53 0 -75 45 -75 91
c0 24 2 42 6 61z" />
    <glyph glyph-name="afii10089" unicode="&#x447;" horiz-adv-x="332" 
d="M82 480h39l-28 -150c-4 -22 -10 -53 -10 -76c0 -30 13 -55 59 -55c35 0 67 19 90 38l45 243h39l-92 -488h-39l39 205h-3c-23 -21 -58 -33 -90 -33c-49 0 -89 27 -89 83c0 26 7 56 12 82z" />
    <glyph glyph-name="afii10090" unicode="&#x448;" horiz-adv-x="555" 
d="M98 480h39l-60 -320c-5 -25 -8 -47 -8 -76c0 -34 14 -55 46 -55c54 0 113 81 131 175l52 276h39l-60 -320c-5 -25 -8 -47 -8 -76c0 -34 14 -55 46 -55c50 0 114 85 131 175l52 276h39l-58 -311c-11 -58 -17 -119 -21 -169h-38c3 28 6 56 8 84h-2
c-41 -67 -83 -92 -122 -92c-53 0 -75 45 -76 91c-40 -66 -85 -91 -124 -91c-53 0 -75 45 -75 91c0 25 4 50 10 81z" />
    <glyph glyph-name="afii10091" unicode="&#x449;" horiz-adv-x="560" 
d="M98 480h39l-60 -320c-5 -25 -8 -47 -8 -76c0 -34 14 -55 46 -55c54 0 113 81 131 175l52 276h39l-60 -320c-5 -25 -8 -47 -8 -76c0 -34 14 -55 46 -55c50 0 114 85 131 175l52 276h39l-57 -305c-7 -39 -14 -80 -14 -103c0 -30 12 -47 45 -49l-48 -152h-32l33 129
c-28 6 -40 54 -36 82h-2c-41 -67 -83 -90 -122 -90c-53 0 -75 45 -76 91c-40 -66 -85 -91 -124 -91c-53 0 -75 45 -75 91c0 25 4 50 10 81z" />
    <glyph glyph-name="afii10092" unicode="&#x44a;" horiz-adv-x="361" 
d="M53 480h187c-39 -68 -85 -145 -121 -238h2c38 45 72 63 111 63c57 0 84 -46 84 -103c0 -84 -61 -207 -177 -207c-50 0 -86 34 -86 104c0 87 68 252 126 345h-135zM150 29h1c65 0 123 86 123 161c0 48 -13 80 -56 80c-48 0 -87 -51 -106 -92c-14 -29 -19 -56 -19 -85
c0 -31 18 -64 57 -64z" />
    <glyph glyph-name="afii10093" unicode="&#x44b;" horiz-adv-x="442" 
d="M98 480h40l-49 -226h2c30 35 65 51 102 51c57 0 88 -46 88 -103c0 -84 -57 -207 -184 -207c-38 0 -79 20 -79 70c0 14 1 24 4 41zM106 29h1c79 0 132 86 132 161c0 48 -14 80 -56 80c-51 0 -93 -48 -111 -114c-5 -21 -14 -58 -14 -79c0 -29 16 -48 48 -48zM387 480h39
l-92 -480h-39z" />
    <glyph glyph-name="afii10094" unicode="&#x44c;" horiz-adv-x="326" 
d="M98 480h40l-50 -228h2c31 35 66 53 103 53c57 0 88 -46 88 -103c0 -84 -54 -207 -184 -207c-44 0 -79 27 -79 77c0 12 2 27 7 48zM101 29h1c89 0 137 86 137 161c0 48 -14 80 -56 80c-51 0 -98 -57 -114 -121c-6 -20 -11 -48 -11 -69c0 -32 16 -51 43 -51z" />
    <glyph glyph-name="afii10095" unicode="&#x44d;" horiz-adv-x="305" 
d="M58 230l5 34h164c1 12 2 25 2 39c0 80 -29 152 -103 152c-22 0 -42 -4 -61 -12l-8 33c17 8 44 16 76 16c91 0 138 -80 138 -192c0 -127 -56 -306 -213 -306c-34 0 -67 10 -88 23l15 35c21 -12 49 -22 79 -20c90 -2 147 96 159 198h-165z" />
    <glyph glyph-name="afii10096" unicode="&#x44e;" horiz-adv-x="479" 
d="M100 480h40l-40 -208h76c25 104 76 216 176 216c81 0 100 -89 100 -152c0 -103 -44 -344 -191 -344c-69 0 -101 67 -101 161c0 23 3 52 8 83h-75l-45 -236h-40zM268 28h1c105 0 141 228 141 306c0 62 -15 117 -65 117c-103 0 -143 -213 -143 -290c0 -45 2 -133 66 -133z
" />
    <glyph glyph-name="afii10097" unicode="&#x44f;" horiz-adv-x="334" 
d="M318 478l-93 -478h-39l42 218h-33c-78 0 -112 -34 -140 -102c-16 -40 -29 -79 -52 -116h-43c29 48 38 76 58 127c20 50 55 98 111 109v1c-45 18 -79 52 -79 111c0 94 81 140 176 140c41 0 78 -7 92 -10zM235 252l38 197c-9 2 -29 4 -51 4c-59 0 -130 -24 -130 -106
c0 -66 63 -95 121 -95h22z" />
    <glyph glyph-name="afii10071" unicode="&#x451;" horiz-adv-x="310" 
d="M224 58l12 -32c-30 -20 -64 -32 -97 -32c-90 0 -116 77 -116 163c0 125 70 331 197 331c59 0 81 -46 81 -95c0 -107 -101 -157 -231 -160c-3 -14 -9 -86 -2 -123c10 -53 37 -79 78 -79c35 0 60 15 78 27zM260 392v1c0 37 -17 58 -48 58c-46 0 -99 -56 -134 -182
c84 2 182 28 182 123zM159 565h-1c-18 0 -29 13 -29 33s16 38 36 38c23 0 30 -17 30 -32c0 -19 -14 -39 -36 -39zM297 565h-1c-18 0 -29 13 -29 33s16 38 36 38c23 0 30 -17 30 -32c0 -19 -14 -39 -36 -39z" />
    <glyph glyph-name="afii10099" unicode="&#x452;" horiz-adv-x="368" 
d="M139 692h40l-16 -87h178l-8 -36h-177l-27 -142h2c23 29 61 61 107 61c75 0 93 -69 93 -151c0 -134 -44 -315 -110 -389c-32 -35 -72 -62 -113 -71l-10 33c40 11 77 37 106 77c44 61 85 213 85 359c0 54 -9 105 -61 105c-60 0 -110 -88 -122 -141l-59 -310h-38l108 569
h-45l7 36h44z" />
    <glyph glyph-name="afii10100" unicode="&#x453;" horiz-adv-x="264" 
d="M97 432l-11 30c17 12 49 26 81 26c62 0 93 -41 93 -97c0 -75 -63 -118 -120 -157c-45 -30 -98 -76 -98 -131c0 -37 16 -72 60 -72c36 0 65 16 82 25l11 -32c-14 -11 -56 -30 -97 -30c-59 0 -99 36 -99 105c0 81 58 123 123 170c38 28 98 65 98 121c0 33 -17 61 -60 61
c-20 0 -47 -11 -63 -19zM262 667h57l-107 -132h-32z" />
    <glyph glyph-name="afii10101" unicode="&#x454;" horiz-adv-x="278" 
d="M301 474l-14 -34c-14 6 -29 11 -51 11c-93 0 -145 -107 -160 -186h165l-5 -35h-165c-3 -23 -5 -38 -5 -57c0 -61 20 -142 95 -142c19 0 39 5 56 13l10 -32c-18 -11 -45 -18 -79 -18c-96 0 -124 93 -124 178c0 74 21 166 66 230c35 50 83 86 151 86c20 0 45 -6 60 -14z
" />
    <glyph glyph-name="afii10102" unicode="&#x455;" horiz-adv-x="260" 
d="M-16 21l16 34c13 -9 37 -24 73 -24c57 0 92 43 92 98c0 53 -26 84 -50 107c-28 27 -64 69 -64 117c0 77 53 135 132 135c26 0 52 -8 65 -18l-15 -34c-15 9 -35 15 -55 15c-56 0 -86 -40 -86 -88c0 -45 26 -71 49 -94c28 -28 65 -71 65 -126c0 -102 -63 -149 -139 -149
c-34 0 -72 16 -83 27z" />
    <glyph glyph-name="afii10103" unicode="&#x456;" horiz-adv-x="156" 
d="M47 0h-39l92 480h39zM140 577h-1c-16 0 -27 13 -24 35c2 21 19 36 35 36c20 0 30 -15 27 -36c-3 -22 -18 -35 -37 -35z" />
    <glyph glyph-name="afii10104" unicode="&#x457;" horiz-adv-x="156" 
d="M47 0h-39l92 480h39zM68 565h-1c-18 0 -29 13 -29 33s16 38 36 38c23 0 30 -17 30 -32c0 -19 -14 -39 -36 -39zM206 565h-1c-18 0 -29 13 -29 33s16 38 36 38c23 0 30 -17 30 -32c0 -19 -14 -39 -36 -39z" />
    <glyph glyph-name="afii10105" unicode="&#x458;" horiz-adv-x="164" 
d="M109 480h39l-94 -498c-15 -80 -27 -116 -44 -139c-16 -22 -44 -43 -84 -43c-14 0 -27 1 -34 4l4 36c7 -1 19 -3 32 -3c31 0 62 13 82 117zM149 577h-1c-14 0 -24 11 -24 29c0 19 13 42 35 42c17 0 27 -11 27 -28c0 -22 -13 -43 -37 -43z" />
    <glyph glyph-name="afii10106" unicode="&#x459;" horiz-adv-x="531" 
d="M133 480h208l-47 -231h2c32 38 68 56 103 56c47 0 88 -33 88 -104c0 -106 -77 -206 -180 -206c-60 0 -83 31 -83 70c0 13 1 27 4 41l67 338h-130l-34 -176c-29 -152 -61 -226 -125 -257c-13 -6 -28 -11 -43 -11l-3 32c7 1 27 7 33 11c41 25 69 67 98 219zM308 29h1
c81 0 136 86 136 161c0 59 -24 80 -56 80c-51 0 -89 -55 -106 -98c-9 -23 -19 -65 -19 -97c0 -26 15 -46 44 -46z" />
    <glyph glyph-name="afii10107" unicode="&#x45a;" horiz-adv-x="531" 
d="M100 480h39l-37 -194h160l38 195l39 -1l-45 -228h2c28 35 67 53 102 53c55 0 88 -43 88 -103c0 -110 -76 -207 -186 -207c-55 0 -77 30 -77 70c0 14 2 29 5 45l27 140h-160l-48 -250h-39zM307 29h1c88 0 136 89 136 161c0 52 -17 80 -56 80c-51 0 -99 -58 -116 -132
c-5 -22 -9 -44 -9 -65c0 -24 12 -44 44 -44z" />
    <glyph glyph-name="afii10108" unicode="&#x45b;" horiz-adv-x="363" 
d="M139 692h40l-16 -87h176l-7 -36h-176l-30 -161h2c26 40 68 80 118 80c52 0 79 -42 79 -91c0 -26 -2 -42 -8 -72l-61 -325h-39l62 330c3 16 7 36 7 56c0 34 -10 66 -50 66c-60 0 -120 -91 -136 -176l-52 -276h-39l108 569h-46l7 36h45z" />
    <glyph glyph-name="afii10109" unicode="&#x45c;" horiz-adv-x="294" 
d="M101 480h38l-43 -223h11l174 223h46l-184 -225c50 -5 84 -49 85 -131c0 -32 -1 -95 12 -124h-40c-10 28 -9 93 -10 124c-2 78 -32 105 -88 105h-11l-44 -229h-39zM257 667h57l-107 -132h-32z" />
    <glyph glyph-name="afii10110" unicode="&#x45e;" horiz-adv-x="308" 
d="M50 480h40l25 -292c4 -43 6 -68 10 -123h2c18 46 32 83 46 121l111 294h42c-36 -94 -108 -282 -154 -397c-42 -105 -95 -193 -162 -248c-29 -23 -54 -38 -70 -43l-16 36c21 9 49 25 77 50c31 26 70 80 87 122c5 12 5 19 4 30zM110 659h38c-4 -42 17 -70 55 -70
c42 0 66 26 75 70h38c-12 -61 -54 -104 -116 -104c-70 0 -96 47 -90 104z" />
    <glyph glyph-name="afii10193" unicode="&#x45f;" horiz-adv-x="363" 
d="M98 480h39l-60 -320c-5 -25 -8 -47 -8 -74c0 -33 14 -57 48 -57c58 0 119 80 137 175l52 276h39l-58 -311c-15 -78 -19 -135 -21 -169h-38l8 82h-2c-38 -65 -84 -90 -130 -90c-53 0 -75 45 -75 91c0 24 2 42 6 61zM117 -173l-35 -5l26 138l42 5z" />
    <glyph glyph-name="afii10846" unicode="&#x4d9;" 
d="M70 424l-12 32c30 20 64 32 97 32c90 0 116 -77 116 -163c0 -125 -70 -331 -197 -331c-59 0 -81 46 -81 95c0 107 101 157 231 160c3 14 9 86 2 123c-10 53 -37 79 -78 79c-35 0 -60 -15 -78 -27zM82 31h1c45 0 98 56 133 182c-84 -2 -182 -28 -182 -123
c0 -38 17 -59 48 -59z" />
    <glyph glyph-name="afii10063" unicode="&#xf6c4;" horiz-adv-x="156" 
d="M47 0h-39l92 480h39zM45 606h187l-6 -36h-187z" />
    <glyph glyph-name="afii10192" unicode="&#xf6c6;" horiz-adv-x="352" 
d="M-10 -176l14 35c20 -12 50 -22 78 -22c74 0 102 56 124 158l19 87h-2c-45 -77 -86 -90 -118 -90c-49 0 -86 41 -86 140c0 136 67 356 236 356c27 0 60 -10 80 -20l-79 -420c-21 -111 -42 -172 -71 -202c-29 -31 -64 -46 -106 -46c-37 0 -68 10 -89 24zM244 212l45 229
c-12 7 -26 10 -51 10c-115 0 -174 -189 -177 -301c-2 -69 9 -121 55 -121c61 0 113 106 128 183z" />
    <glyph glyph-name="afii10831" unicode="&#xf6c7;" horiz-adv-x="363" 
d="M306 480h39l-58 -311c-15 -78 -19 -135 -21 -169h-38l8 82h-2c-38 -65 -84 -90 -130 -90c-53 0 -75 45 -75 91c0 24 2 42 6 61l63 336h39l-60 -320c-5 -25 -8 -47 -8 -74c0 -33 14 -57 48 -57c58 0 119 80 137 175zM141 606h199l-6 -36h-199z" />
    <glyph glyph-name="afii10832" unicode="&#xf6c8;" horiz-adv-x="555" 
d="M98 480h39l-60 -320c-5 -25 -8 -47 -8 -76c0 -34 14 -55 46 -55c54 0 113 81 131 175l52 276h39l-60 -320c-5 -25 -8 -47 -8 -76c0 -34 14 -55 46 -55c50 0 114 85 131 175l52 276h39l-58 -311c-11 -58 -17 -119 -21 -169h-38c3 28 6 56 8 84h-2
c-41 -67 -83 -92 -122 -92c-53 0 -75 45 -76 91c-40 -66 -85 -91 -124 -91c-53 0 -75 45 -75 91c0 25 4 50 10 81zM141 606h392l-6 -36h-392z" />
    <glyph glyph-name="Euro" unicode="&#x20ac;" horiz-adv-x="360" 
d="M290 50l12 -30c-17 -12 -59 -28 -97 -28c-146 0 -154 170 -141 275h-51l8 35h47c4 19 9 43 15 61h-47l7 35h50c32 108 112 260 240 260c34 0 54 -10 68 -19l-17 -32c-13 8 -33 14 -54 14c-104 0 -170 -136 -196 -223h179l-7 -35h-182c-6 -18 -11 -42 -14 -61h181l-8 -35
h-177c-10 -87 -15 -238 108 -238c34 0 59 11 76 21z" />
    <glyph glyph-name="afii61289" unicode="&#x2113;" horiz-adv-x="340" 
d="M169 518l-41 -215c80 83 169 209 169 317c0 40 -19 53 -35 53c-35 0 -71 -44 -93 -155zM270 81l18 -22c-18 -27 -65 -68 -131 -68c-82 0 -115 69 -94 178l8 40c-18 -13 -30 -23 -49 -35l-12 25c23 17 47 36 70 55l47 247c32 167 89 208 141 208c39 0 70 -26 70 -86
c0 -139 -127 -284 -220 -375l-10 -54c-26 -132 6 -164 60 -164c42 0 78 27 102 51z" />
    <glyph glyph-name="afii61352" unicode="&#x2116;" horiz-adv-x="645" 
d="M527 332h-1c-44 0 -84 34 -84 109c0 89 45 221 144 221c50 0 82 -36 82 -108c0 -75 -35 -222 -141 -222zM606 286l-6 -35h-185l7 35h184zM435 674l-129 -674h-41l-67 366c-14 75 -27 146 -36 245h-1c-14 -104 -29 -178 -57 -327l-54 -284h-39l129 674h41l63 -348
c15 -85 31 -176 40 -258h2c18 128 32 196 53 308l57 298h39zM533 363h1c71 0 95 121 95 185c0 46 -9 83 -50 83c-68 0 -96 -125 -96 -183c0 -43 11 -85 50 -85z" />
    <glyph glyph-name="estimated" unicode="&#x212e;" horiz-adv-x="817" 
d="M782 316h-605c-3 0 -5 -1 -5 -4v-183c0 -8 4 -15 9 -21c57 -61 139 -99 229 -99c96 0 182 43 240 111h55c-68 -79 -176 -131 -296 -131c-206 0 -374 150 -374 336s168 336 374 336s373 -150 373 -336v-9zM646 340v184c0 9 -4 16 -10 22c-58 58 -138 95 -226 95
c-90 0 -170 -38 -228 -98c-6 -6 -10 -14 -10 -23v-180c0 -3 2 -5 5 -5h464c3 0 5 2 5 5z" />
    <glyph glyph-name="partialdiff" unicode="&#x2202;" horiz-adv-x="378" 
d="M133 656l-11 30c31 21 65 38 104 38c80 0 149 -60 149 -220c0 -161 -73 -512 -258 -512c-57 0 -102 42 -102 140c0 131 75 304 215 304c44 0 77 -29 89 -67h1c8 40 14 88 14 130c0 131 -46 186 -112 186c-37 0 -73 -18 -89 -29zM127 30h1c79 0 152 131 181 286
c-10 51 -47 82 -86 82c-115 0 -165 -166 -165 -270c0 -62 28 -98 69 -98z" />
    <glyph glyph-name="uni2206" unicode="&#x2206;" horiz-adv-x="402" 
d="M327 0h-349l5 27l276 631h40l34 -631zM28 35h267l-19 376c-3 53 -6 135 -6 190h-4c-20 -56 -40 -105 -65 -165z" />
    <glyph glyph-name="product" unicode="&#x220f;" horiz-adv-x="430" 
d="M473 614h-54l-135 -704h-40l135 704h-192l-135 -704h-40l135 704h-54l7 36h380z" />
    <glyph glyph-name="summation" unicode="&#x2211;" horiz-adv-x="370" 
d="M293 -90h-337l6 33l249 337l-114 340l6 30h294l-6 -36h-249l-1 -4l114 -333l-241 -325l-1 -5h287z" />
    <glyph glyph-name="radical" unicode="&#x221a;" horiz-adv-x="440" 
d="M521 819l-342 -923h-33l-45 441l-66 -21l-6 31l105 37l33 -360c3 -24 4 -53 4 -67h1c4 14 11 43 20 67l290 795h39z" />
    <glyph glyph-name="infinity" unicode="&#x221e;" horiz-adv-x="713" 
d="M533 129h-1c-74 0 -128 63 -175 108c-47 -47 -103 -108 -184 -108c-76 0 -132 55 -132 134c0 74 61 136 140 136c75 0 129 -63 176 -110c47 49 103 110 184 110c76 0 132 -55 132 -136c0 -72 -61 -134 -140 -134zM535 167h1c56 0 97 45 97 96c0 56 -39 98 -95 98
c-65 0 -117 -58 -155 -98c44 -40 86 -96 152 -96zM176 167h1c64 0 116 56 154 96c-44 40 -86 98 -152 98c-57 0 -98 -45 -98 -98c0 -54 39 -96 95 -96z" />
    <glyph glyph-name="integral" unicode="&#x222b;" horiz-adv-x="210" 
d="M304 780l-12 -35c-6 2 -17 4 -26 4c-77 0 -91 -130 -101 -202c-17 -121 -40 -327 -59 -466c-15 -113 -51 -222 -142 -222c-12 0 -23 3 -30 7l9 35c7 -2 18 -4 28 -4c70 0 90 137 97 186c20 139 43 349 59 467c15 106 41 237 147 237c12 0 23 -3 30 -7z" />
    <glyph glyph-name="approxequal" unicode="&#x2248;" horiz-adv-x="596" 
d="M541 404l24 -29c-30 -31 -87 -65 -145 -65c-61 0 -98 23 -131 36c-30 12 -65 34 -117 34c-44 0 -93 -28 -121 -56l-24 29c30 31 87 65 145 65c61 0 98 -23 131 -36c30 -12 65 -34 117 -34c44 0 93 28 121 56zM547 214l24 -29c-30 -31 -87 -65 -145 -65
c-61 0 -98 23 -131 36c-30 12 -65 34 -117 34c-44 0 -93 -28 -121 -56l-24 29c30 31 87 65 145 65c61 0 98 -23 131 -36c30 -12 65 -34 117 -34c44 0 93 28 121 56z" />
    <glyph glyph-name="notequal" unicode="&#x2260;" horiz-adv-x="596" 
d="M556 156h-309l-86 -135h-43l86 135h-164v38h188l97 152h-285v38h309l86 135h43l-86 -135h164v-38h-188l-97 -152h285v-38z" />
    <glyph glyph-name="lessequal" unicode="&#x2264;" horiz-adv-x="596" 
d="M525 88l-454 203v38l454 203v-43l-404 -178v-2l404 -178v-43zM525 0h-454v38h454v-38z" />
    <glyph glyph-name="greaterequal" unicode="&#x2265;" horiz-adv-x="596" 
d="M525 291l-454 -203v43l404 178v2l-404 178v43l454 -203v-38zM525 0h-454v38h454v-38z" />
    <glyph glyph-name="lozenge" unicode="&#x25ca;" horiz-adv-x="398" 
d="M380 325l-216 -333h-38l-88 333l216 333h38zM336 324l-68 265c-2 6 -3 15 -4 24h-2c-3 -9 -8 -18 -12 -24l-168 -263l68 -265c2 -6 3 -15 4 -24h2c3 8 8 18 12 24z" />
    <glyph glyph-name="uniEFED" unicode="&#xefed;" 
d="M243 731h-1c-19 0 -31 13 -31 33s17 38 38 38c25 0 32 -17 32 -32c0 -19 -15 -39 -38 -39z" />
    <glyph glyph-name="uniEFEE" unicode="&#xefee;" 
d="M156 822h30c-2 -28 21 -54 59 -54c40 0 72 26 77 54h30c-5 -47 -43 -89 -110 -89s-95 42 -86 89z" />
    <glyph glyph-name="uniEFF1" unicode="&#xeff1;" 
d="M110 2h36c-33 -33 -72 -83 -72 -124c0 -25 16 -40 39 -40c18 0 28 4 41 11l8 -27c-16 -13 -43 -20 -65 -20c-37 0 -64 23 -64 66c0 53 45 102 77 134z" />
    <glyph glyph-name="uniEFF2" unicode="&#xeff2;" 
d="M101 5h35l-41 -61c29 -10 53 -33 53 -69c0 -43 -37 -73 -82 -73c-28 0 -51 8 -63 19l13 31c17 -10 33 -15 50 -15c25 0 45 13 45 37c0 28 -33 43 -64 48z" />
    <glyph glyph-name="uniEFF3" unicode="&#xeff3;" 
d="M250 863h1c51 0 83 -29 83 -80c0 -60 -54 -89 -94 -89c-47 0 -82 31 -82 76c0 55 45 93 92 93zM250 834h-1c-27 0 -55 -22 -55 -60c0 -32 19 -50 49 -50c27 0 54 22 54 59c0 29 -17 51 -47 51z" />
    <glyph glyph-name="uniEFF5" unicode="&#xeff5;" 
d="M173 718h-30c4 46 28 80 64 80c18 0 30 -9 42 -17c14 -9 24 -18 39 -18c17 0 27 9 33 36h29c-5 -40 -23 -75 -67 -75c-17 0 -32 9 -44 18c-12 8 -23 17 -35 17c-18 0 -25 -14 -31 -41z" />
    <glyph glyph-name="uniEFF7" unicode="&#xeff7;" 
d="M232 815h40l62 -105h-42l-42 76h-2l-67 -76h-45z" />
    <glyph glyph-name="Acute" unicode="&#xf6c9;" 
d="M276 815h65l-126 -105h-41z" />
    <glyph glyph-name="Caron" unicode="&#xf6ca;" 
d="M255 710h-40l-62 105h42l42 -76h2l67 76h45z" />
    <glyph glyph-name="Dieresis" unicode="&#xf6cb;" 
d="M171 731h-1c-19 0 -31 13 -31 33s17 38 38 38c25 0 32 -17 32 -32c0 -19 -15 -39 -38 -39zM314 731h-1c-19 0 -31 13 -31 33s17 38 38 38c25 0 32 -17 32 -32c0 -19 -15 -39 -38 -39z" />
    <glyph glyph-name="DieresisAcute" unicode="&#xf6cc;" 
d="M140 731h-1c-15 0 -31 10 -31 33c0 20 17 38 38 38c25 0 32 -17 32 -32c0 -24 -19 -39 -38 -39zM264 815h65l-126 -105h-41zM349 731h-1c-15 0 -31 10 -31 33c0 20 17 38 38 38c25 0 32 -17 32 -32c0 -24 -19 -39 -38 -39z" />
    <glyph glyph-name="DieresisGrave" unicode="&#xf6cd;" horiz-adv-x="301" 
d="M128 731h-1c-15 0 -31 10 -31 33c0 20 17 38 38 38c25 0 32 -17 32 -32c0 -24 -19 -39 -38 -39zM156 815h65l102 -105h-41zM337 731h-1c-15 0 -31 10 -31 33c0 20 17 38 38 38c25 0 32 -17 32 -32c0 -24 -19 -39 -38 -39z" />
    <glyph glyph-name="Grave" unicode="&#xf6ce;" 
d="M129 815h65l102 -105h-41z" />
    <glyph glyph-name="Hungarumlaut" unicode="&#xf6cf;" 
d="M208 815h64l-122 -92h-42zM323 815h64l-122 -92h-42z" />
    <glyph glyph-name="Macron" unicode="&#xf6d0;" 
d="M154 770h187l-7 -36h-187z" />
    <glyph glyph-name="cyrBreve" unicode="&#xf6d1;" 
d="M151 822h37c1 -31 19 -57 57 -57c40 0 67 23 74 57h38c-7 -47 -48 -89 -115 -89c-62 0 -92 42 -91 89z" />
    <glyph glyph-name="cyrFlex" unicode="&#xf6d2;" 
d="M345 739h-37c-1 31 -19 57 -57 57c-40 0 -67 -23 -74 -57h-38c7 47 48 89 115 89c62 0 92 -42 91 -89z" />
    <glyph glyph-name="dblGrave" unicode="&#xf6d3;" horiz-adv-x="323" 
d="M59 815h65l102 -105h-41zM182 815h65l102 -105h-41z" />
    <glyph glyph-name="cyrbreve" unicode="&#xf6d4;" horiz-adv-x="302" 
d="M124 659h38c-4 -42 17 -70 55 -70c42 0 66 26 75 70h38c-12 -61 -54 -104 -116 -104c-70 0 -96 47 -90 104z" />
    <glyph glyph-name="cyrflex" unicode="&#xf6d5;" 
d="M314 558h-38c4 42 -17 70 -55 70c-42 0 -66 -26 -75 -70h-38c12 61 54 104 116 104c70 0 96 -47 90 -104z" />
    <glyph glyph-name="dblgrave" unicode="&#xf6d6;" 
d="M24 661h69l91 -127h-38zM154 661h69l91 -127h-38z" />
    <glyph glyph-name="dieresisacute" unicode="&#xf6d7;" horiz-adv-x="301" 
d="M119 573h-1c-15 0 -31 10 -31 33c0 20 17 38 38 38c25 0 32 -17 32 -32c0 -25 -20 -39 -38 -39zM232 667h57l-107 -132h-32zM317 573h-1c-15 0 -31 10 -31 33c0 20 17 38 38 38c25 0 32 -17 32 -32c0 -25 -20 -39 -38 -39z" />
    <glyph glyph-name="dieresisgrave" unicode="&#xf6d8;" 
d="M79 573h-1c-15 0 -31 10 -31 33c0 20 17 38 38 38c25 0 32 -17 32 -32c0 -25 -19 -39 -38 -39zM112 667h57l82 -132h-32zM276 573h-1c-15 0 -31 10 -31 33c0 20 17 38 38 38c25 0 32 -17 32 -32c0 -25 -19 -39 -38 -39z" />
    <glyph glyph-name="uniF634" unicode="&#xf634;" 
d="M26 -207l-8 25c39 8 81 33 81 78c0 24 -13 43 -27 53l42 9c12 -9 26 -32 26 -55c0 -64 -52 -100 -114 -110z" />
    <glyph glyph-name="uniF638" unicode="&#xf638;" horiz-adv-x="360" 
d="M71 133l239 438c-8 28 -24 50 -55 50c-128 0 -185 -305 -185 -440c0 -17 0 -33 1 -48zM317 520l-238 -438c9 -33 27 -53 61 -53c125 0 178 350 178 465c0 8 -1 17 -1 26zM395 657l-45 -77c8 -30 10 -64 10 -92c0 -131 -56 -496 -227 -496c-38 0 -62 18 -78 45l-32 -58
l-29 18l45 78c-9 32 -11 69 -11 102c0 151 65 481 229 481c38 0 62 -16 77 -41l32 57z" />
    <glyph glyph-name="uniF639" unicode="&#xf639;" horiz-adv-x="360" 
d="M133 -8h-1c-90 0 -104 104 -104 185c0 151 65 481 229 481c94 0 103 -103 103 -170c0 -131 -56 -496 -227 -496zM140 29h1c124 0 177 350 177 465c0 51 -5 127 -63 127c-128 0 -185 -305 -185 -440c0 -91 10 -152 70 -152z" />
    <glyph glyph-name="uniF6DC" unicode="&#xf6dc;" horiz-adv-x="257" 
d="M90 0l112 600h-2l-117 -66l-5 34l144 82h30l-123 -650h-39z" />
    <glyph glyph-name="uniF63A" unicode="&#xf63a;" horiz-adv-x="317" 
d="M239 0h-273l4 24l61 72c88 104 244 284 244 418c0 69 -30 107 -86 107c-45 0 -74 -28 -86 -37l-14 30c19 16 57 44 108 44c81 0 120 -58 120 -137c0 -161 -168 -334 -267 -457l-21 -26l1 -2h214z" />
    <glyph glyph-name="uniF63B" unicode="&#xf63b;" horiz-adv-x="298" 
d="M-22 13l12 34c16 -8 45 -18 77 -18c90 0 153 83 153 178s-57 138 -114 137h-16l6 31h14c59 2 148 57 148 155c0 66 -34 91 -83 91c-26 0 -56 -11 -70 -21l-11 33c21 13 56 25 95 25c68 0 111 -53 111 -121c0 -96 -64 -155 -127 -177v-2c52 -15 89 -72 89 -144
c0 -131 -90 -222 -200 -222c-30 0 -63 8 -84 21z" />
    <glyph glyph-name="uniF63C" unicode="&#xf63c;" horiz-adv-x="360" 
d="M223 0h-39l37 195h-209l6 28l288 427h41l-80 -419h74l-7 -36h-74zM67 231h161l41 215c10 51 22 93 32 141h-3c-36 -62 -54 -92 -95 -153l-136 -201v-2z" />
    <glyph glyph-name="uniF63D" unicode="&#xf63d;" horiz-adv-x="312" 
d="M344 650l-10 -38h-155l-64 -207c5 1 10 1 15 1c29 0 75 -14 102 -43s43 -71 43 -128c0 -129 -89 -243 -215 -243c-34 0 -65 8 -79 18l12 34c12 -6 41 -15 66 -15c107 0 173 97 173 202c0 109 -60 139 -127 139c-19 0 -31 -1 -40 -3l87 283h192z" />
    <glyph glyph-name="uniF63E" unicode="&#xf63e;" horiz-adv-x="353" 
d="M361 658v-38h-4c-96 -10 -212 -94 -265 -276h2c34 42 76 64 118 64c73 0 110 -66 110 -155c0 -98 -54 -261 -173 -261c-85 0 -122 80 -122 187c0 124 53 282 130 365c71 78 151 112 203 114h1zM149 29h1c96 0 129 142 129 224c0 83 -30 118 -81 118
c-34 0 -77 -26 -109 -77c-4 -7 -9 -17 -11 -25c-6 -27 -10 -52 -10 -94c0 -84 28 -146 81 -146z" />
    <glyph glyph-name="uniF63F" unicode="&#xf63f;" horiz-adv-x="287" 
d="M72 650h288l-4 -22c-105 -209 -214 -419 -332 -628h-45c116 203 223 407 330 610l-2 2h-242z" />
    <glyph glyph-name="uniF640" unicode="&#xf640;" horiz-adv-x="360" 
d="M245 658h1c77 0 105 -68 105 -118c0 -97 -59 -156 -119 -193v-3c37 -34 80 -85 80 -169c0 -94 -68 -183 -167 -183c-74 0 -126 57 -126 141c0 112 79 180 146 217v2c-48 46 -69 88 -69 138c0 82 60 168 149 168zM151 29h1c73 0 118 72 118 148c0 70 -33 112 -79 150
c-60 -28 -130 -101 -130 -187c0 -68 32 -111 90 -111zM240 621h-1c-58 0 -101 -55 -101 -129c0 -57 27 -90 66 -125c69 43 105 103 105 163c0 55 -21 91 -69 91z" />
    <glyph glyph-name="uniF641" unicode="&#xf641;" horiz-adv-x="352" 
d="M32 -8l-4 37c6 2 17 5 31 9c35 11 72 33 102 60c49 44 93 114 121 209h-2c-29 -32 -66 -56 -109 -56c-75 0 -110 64 -110 151c0 108 70 256 182 256c80 0 110 -76 110 -160c0 -126 -52 -296 -129 -387c-46 -55 -106 -93 -155 -109c-15 -5 -27 -9 -37 -10zM236 621h-1
c-88 0 -132 -136 -132 -213c0 -96 36 -120 78 -120c38 0 80 26 105 71c4 7 8 14 12 26c7 25 12 57 12 105c0 74 -12 131 -74 131z" />
    <glyph glyph-name="uniF642" unicode="&#xf642;" horiz-adv-x="642" 
d="M185 600h1c66 0 89 -65 89 -131c0 -95 -46 -260 -156 -260c-67 0 -91 66 -91 127c0 102 44 264 157 264zM177 566h-1c-80 0 -108 -157 -108 -218c0 -59 13 -105 57 -105c79 0 110 156 110 219c0 46 -11 104 -58 104zM131 -16h-41l408 616h41zM517 385h1
c66 0 89 -65 89 -131c0 -95 -46 -260 -156 -260c-67 0 -91 66 -91 127c0 102 44 264 157 264zM509 351h-1c-80 0 -108 -157 -108 -218c0 -59 13 -105 57 -105c79 0 110 156 110 219c0 46 -11 104 -58 104z" />
    <glyph glyph-name="uniF643" unicode="&#xf643;" horiz-adv-x="368" 
d="M132 -8h-1c-57 0 -104 44 -104 153c0 118 59 351 200 351c57 0 106 -45 106 -156c0 -118 -60 -348 -201 -348zM139 29h1c108 0 151 220 151 311c0 64 -17 119 -71 119c-108 0 -151 -218 -151 -309c0 -65 16 -121 70 -121z" />
    <glyph glyph-name="uniF644" unicode="&#xf644;" horiz-adv-x="368" 
d="M281 496l-94 -496h-39l84 450h-2l-151 -64l-3 34l175 76h30z" />
    <glyph glyph-name="uniF645" unicode="&#xf645;" horiz-adv-x="368" 
d="M267 37l-7 -37h-260l5 25l82 78c132 125 183 200 183 270c0 62 -39 86 -75 86c-32 0 -64 -18 -85 -33l-15 26c23 20 62 44 112 44c51 0 105 -36 105 -121c0 -82 -54 -154 -189 -284l-55 -53v-2c22 1 46 1 67 1h132z" />
    <glyph glyph-name="uniF646" unicode="&#xf646;" horiz-adv-x="368" 
d="M-14 -77l10 36c13 -8 47 -18 85 -18c78 0 160 53 160 152c0 68 -50 111 -105 111c-14 0 -26 -1 -36 -1l4 34c2 1 6 1 10 1c69 9 155 66 155 142c0 55 -35 79 -76 79c-35 0 -58 -10 -76 -20l-10 29c23 17 60 28 97 28c58 0 107 -42 107 -111c0 -72 -58 -129 -127 -153v-2
c49 -13 99 -61 99 -133c0 -114 -88 -193 -205 -193c-48 0 -81 13 -92 19z" />
    <glyph glyph-name="uniF647" unicode="&#xf647;" horiz-adv-x="368" 
d="M240 66l-32 -162h-39l32 162h-199l6 30l272 395h40l-73 -388h72l-7 -37h-72zM208 103l38 200c9 48 15 78 27 127h-4c-29 -52 -44 -78 -77 -126l-136 -198l1 -3h151z" />
    <glyph glyph-name="uniF648" unicode="&#xf648;" horiz-adv-x="368" 
d="M-3 -86l10 35c11 -4 39 -8 61 -8c81 0 174 44 174 157c0 41 -13 71 -37 94c-26 24 -70 39 -130 41l84 253h189l-14 -38h-150l-62 -185c50 -5 92 -21 117 -45c30 -30 45 -67 45 -114c0 -127 -108 -200 -213 -200c-33 0 -62 5 -74 10z" />
    <glyph glyph-name="uniF649" unicode="&#xf649;" horiz-adv-x="368" 
d="M147 29h1c65 0 130 104 130 203c0 79 -38 107 -75 107c-31 0 -58 -16 -83 -43c-40 -41 -52 -93 -52 -141c0 -91 35 -126 79 -126zM360 596l10 -31c-66 -21 -121 -55 -165 -99c-43 -43 -76 -90 -104 -153h2c29 31 72 63 118 63c50 0 99 -47 99 -135
c0 -128 -86 -249 -181 -249c-71 0 -111 59 -111 160c0 99 49 238 147 334c54 54 116 93 185 110z" />
    <glyph glyph-name="uniF64A" unicode="&#xf64a;" horiz-adv-x="368" 
d="M358 486l-5 -23c-74 -164 -201 -394 -317 -559l-39 10c103 140 257 419 305 529l1 5h-212l7 38h260z" />
    <glyph glyph-name="uniF64B" unicode="&#xf64b;" horiz-adv-x="368" 
d="M243 600h1c72 0 111 -60 111 -124c0 -77 -58 -122 -119 -163v-2c38 -35 86 -80 86 -149c0 -98 -82 -170 -167 -170c-75 0 -130 57 -130 144s79 138 139 182v2c-39 31 -68 74 -68 129c0 77 62 151 147 151zM234 563h-1c-49 0 -95 -42 -95 -109c0 -52 30 -90 72 -122
c70 48 103 92 103 145c0 54 -32 86 -79 86zM160 29h1c67 0 119 61 119 123c0 60 -38 102 -90 144c-54 -36 -123 -86 -123 -162c0 -62 35 -105 93 -105z" />
    <glyph glyph-name="uniF64C" unicode="&#xf64c;" horiz-adv-x="368" 
d="M156 140h1c47 0 96 51 111 84c14 29 23 78 23 127c0 78 -34 108 -69 108c-81 0 -135 -125 -135 -213c0 -70 33 -106 69 -106zM3 -102l-8 34c12 2 26 5 36 8c107 30 190 99 234 228l-3 1c-31 -37 -72 -63 -115 -63c-51 0 -102 43 -102 134c0 102 66 256 185 256
c62 0 103 -61 103 -155c0 -222 -120 -393 -300 -438c-10 -2 -20 -4 -30 -5z" />
    <glyph glyph-name="uniF64E" unicode="&#xf64e;" horiz-adv-x="368" 
d="M273 44l9 -30c-16 -11 -48 -22 -89 -22c-106 0 -145 104 -137 195h-38l6 34h36c3 21 6 38 12 61h-39l7 34h42c32 101 103 194 219 194c26 0 48 -7 63 -15l-14 -34c-15 7 -32 12 -55 12c-92 0 -148 -83 -172 -157h166l-6 -34h-170c-6 -23 -10 -40 -12 -61h172l-6 -34h-170
c-7 -72 14 -158 106 -158c27 0 54 7 70 15z" />
    <glyph glyph-name="uniF64F" unicode="&#xf64f;" horiz-adv-x="368" 
d="M385 589l-14 -33c-11 4 -23 7 -38 7c-57 0 -84 -59 -105 -141l-18 -72h89l-5 -34h-93l-59 -232c-32 -125 -74 -196 -148 -196c-21 0 -48 8 -56 18l12 31c11 -7 25 -12 41 -12c51 0 83 41 117 183l51 208h-80l4 34h85l15 60c22 87 55 190 154 190c15 0 37 -5 48 -11z" />
    <glyph glyph-name="uniF650" unicode="&#xf650;" horiz-adv-x="368" 
d="M124 215h81l50 175h-81zM63 0h-38l51 177h-59l6 38h64l50 175h-66l6 36h71l50 174h36l-50 -174h82l50 174h36l-50 -174h59l-6 -36h-63l-50 -175h67l-6 -36h-71l-51 -179h-38l52 179h-81z" />
    <glyph glyph-name="uniF651" unicode="&#xf651;" horiz-adv-x="368" 
d="M330 494l-14 -32c-11 5 -29 11 -56 11c-83 0 -117 -85 -117 -193v-23h112l-6 -35h-105c1 -69 -19 -137 -75 -182v-3h221l-6 -37h-297l4 27c92 39 114 108 112 195h-74l6 35h67v27c0 109 46 226 164 226c24 0 45 -5 64 -16z" />
    <glyph glyph-name="uniF652" unicode="&#xf652;" horiz-adv-x="368" 
d="M147 0h-39l24 124h-119l6 32h119l11 59h-119l6 32h109l-70 255h41l40 -164c8 -32 14 -56 19 -80h3c14 24 32 49 54 82l108 162h45l-179 -255h109l-6 -32h-122l-11 -59h121l-6 -32h-121z" />
    <glyph glyph-name="uniF653" unicode="&#xf653;" horiz-adv-x="368" 
d="M132 -66h-32l13 66c-44 2 -81 16 -104 35l20 31c24 -17 53 -29 92 -29c62 0 121 43 121 103c0 37 -31 72 -72 99c-64 42 -95 77 -95 125c0 60 52 113 129 122l14 72h32l-13 -71c39 -4 69 -17 87 -30l-20 -32c-18 12 -49 25 -81 25c-53 0 -102 -29 -102 -83
c0 -36 18 -57 75 -95c56 -37 88 -76 88 -126c0 -77 -59 -132 -139 -144z" />
    <glyph glyph-name="uniF654" unicode="&#xf654;" horiz-adv-x="368" 
d="M240 114l6 -34c-19 -9 -44 -16 -71 -18l-13 -69h-35l13 72c-60 15 -91 67 -91 125c0 101 54 226 162 248l12 66h35l-12 -63c25 -1 48 -8 61 -14l-19 -32c-9 4 -28 10 -48 10c-91 0 -149 -99 -149 -210c0 -55 28 -97 82 -97c22 0 50 8 67 16z" />
    <glyph glyph-name="uniF655" unicode="&#xf655;" horiz-adv-x="250" 
d="M74 -5h-1c-63 0 -78 61 -78 120c0 113 53 280 152 280c66 0 78 -63 78 -111c0 -104 -46 -289 -151 -289zM80 29h1c70 0 104 187 104 257c0 30 -5 75 -42 75c-69 0 -108 -162 -108 -246c0 -46 7 -86 45 -86z" />
    <glyph glyph-name="uniF656" unicode="&#xf656;" horiz-adv-x="179" 
d="M71 0h-37l67 349h-2l-83 -42l-1 34l101 49h30z" />
    <glyph glyph-name="uniF657" unicode="&#xf657;" horiz-adv-x="235" 
d="M170 0h-211l6 26l38 35c70 65 161 153 161 232c0 45 -23 67 -61 67c-26 0 -52 -14 -66 -25l-13 28c16 13 50 32 89 32c56 0 92 -37 92 -99c0 -85 -81 -162 -139 -218l-42 -41v-2h153z" />
    <glyph glyph-name="uniF658" unicode="&#xf658;" horiz-adv-x="219" 
d="M35 336l-10 28c17 16 51 31 82 31c47 0 82 -27 82 -83c0 -43 -34 -77 -76 -95l-1 -2c34 -14 64 -44 61 -97c-3 -69 -54 -123 -135 -123c-35 0 -66 12 -84 25l15 31c15 -9 39 -22 75 -22c53 0 87 36 87 94c0 52 -35 75 -87 75h-5l5 29h6c51 0 99 35 99 85
c0 34 -21 50 -50 50c-27 0 -49 -13 -64 -26z" />
    <glyph glyph-name="uniF659" unicode="&#xf659;" horiz-adv-x="246" 
d="M137 0h-37l22 118h-145l4 20l193 257h38l-47 -246h49l-6 -31h-49zM128 149l23 119c7 34 15 60 19 77h-2c-21 -31 -34 -49 -55 -79l-81 -114l-1 -3h97z" />
    <glyph glyph-name="uniF65A" unicode="&#xf65a;" horiz-adv-x="222" 
d="M215 390l-8 -36h-108l-34 -108c4 1 9 0 13 0c15 0 44 -7 63 -23c22 -18 33 -47 33 -80c0 -85 -64 -148 -144 -148c-28 0 -52 7 -62 14l12 33c10 -6 30 -12 52 -12c58 0 101 48 101 106c0 53 -30 78 -82 78c-13 0 -21 -1 -31 -2l52 178h143z" />
    <glyph glyph-name="uniF65B" unicode="&#xf65b;" horiz-adv-x="247" 
d="M221 395l-4 -35c-4 0 -11 -1 -18 -2c-65 -13 -122 -60 -150 -149h1c21 26 50 42 79 42c52 0 78 -44 78 -97c0 -70 -46 -159 -123 -159c-63 0 -89 51 -89 118c0 85 41 174 88 219c24 23 55 43 91 54c15 5 31 8 47 9zM86 27h1c52 0 78 74 78 125c0 44 -18 66 -51 66
c-24 0 -52 -17 -70 -48c-3 -5 -5 -11 -6 -16c-3 -14 -4 -29 -4 -47c0 -46 17 -80 52 -80z" />
    <glyph glyph-name="uniF65C" unicode="&#xf65c;" horiz-adv-x="219" 
d="M32 390h199l-5 -26c-35 -70 -167 -294 -207 -364h-43c39 68 169 285 205 353l-1 1h-155z" />
    <glyph glyph-name="uniF65D" unicode="&#xf65d;" horiz-adv-x="254" 
d="M148 395h1c52 0 80 -37 80 -79c0 -51 -32 -87 -73 -109v-1c31 -22 51 -55 51 -97c0 -67 -55 -114 -117 -114c-58 0 -95 38 -95 91c0 63 45 102 88 123v2c-29 25 -41 50 -41 79c0 56 46 105 106 105zM93 26h1c42 0 73 37 73 82c0 39 -20 64 -55 83
c-36 -14 -76 -51 -76 -101c0 -36 19 -64 57 -64zM144 364h-1c-35 0 -62 -32 -62 -72c0 -32 17 -52 46 -69c39 20 63 52 63 88c0 29 -12 53 -46 53z" />
    <glyph glyph-name="uniF65E" unicode="&#xf65e;" horiz-adv-x="243" 
d="M-5 -5l2 35c7 0 17 1 28 4c23 5 46 18 67 36c28 24 53 61 70 111h-1c-20 -22 -47 -36 -74 -36c-54 0 -78 44 -78 94c0 73 52 156 125 156c62 0 84 -52 84 -107c0 -90 -44 -185 -90 -231c-29 -30 -68 -50 -102 -58c-12 -3 -21 -4 -31 -4zM130 363h-1
c-48 0 -79 -69 -79 -119c0 -46 19 -67 49 -67c26 0 51 17 66 42c3 5 5 10 7 19c3 13 6 30 6 51c0 42 -11 74 -48 74z" />
    <glyph glyph-name="uniF65F" unicode="&#xf65f;" horiz-adv-x="115" 
d="M-23 -71l-31 -4c17 32 43 96 54 137l49 6c-19 -48 -54 -115 -72 -139z" />
    <glyph glyph-name="uniF660" unicode="&#xf660;" horiz-adv-x="115" 
d="M15 -5h-1c-16 0 -26 12 -26 30c0 19 13 35 31 35c19 0 28 -14 28 -30c0 -19 -14 -35 -32 -35z" />
    <glyph glyph-name="uniF629" unicode="&#xf629;" horiz-adv-x="217" 
d="M89 -6h-30l11 60c-24 5 -42 19 -53 37c-10 17 -15 42 -15 65c0 83 51 169 124 182l11 57h30l-11 -55c15 0 34 -6 42 -13l-14 -30c-11 7 -26 10 -43 10c-55 0 -98 -76 -98 -149c0 -41 18 -73 58 -73c19 0 35 6 48 12l4 -30c-13 -8 -34 -14 -53 -14z" />
    <glyph glyph-name="uniF62A" unicode="&#xf62a;" horiz-adv-x="217" 
d="M59 -50h-30l11 60c-27 2 -53 12 -65 22l13 32c15 -10 36 -22 65 -22c45 0 74 31 74 70c0 33 -13 53 -43 75c-38 28 -62 56 -62 95c0 48 34 92 91 99l11 57h30l-11 -57c24 -1 45 -10 55 -18l-15 -31c-11 7 -29 18 -55 18c-39 0 -66 -26 -66 -62c0 -32 17 -48 50 -72
c38 -27 56 -58 56 -94c0 -66 -41 -106 -97 -112z" />
    <glyph glyph-name="uniF62B" unicode="&#xf62b;" horiz-adv-x="174" 
d="M3 195h137l-6 -33h-137z" />
    <glyph glyph-name="uniF62C" unicode="&#xf62c;" horiz-adv-x="157" 
d="M138 429h36c-70 -78 -123 -192 -123 -315c0 -65 8 -120 29 -172h-32c-22 49 -33 109 -33 171c0 131 58 244 123 316z" />
    <glyph glyph-name="uniF62D" unicode="&#xf62d;" horiz-adv-x="157" 
d="M-19 -58h-36c70 79 123 192 123 316c0 65 -8 120 -29 171h32c22 -49 33 -108 33 -169c0 -131 -59 -246 -123 -318z" />
    <glyph glyph-name="uniF661" unicode="&#xf661;" horiz-adv-x="250" 
d="M126 258h-1c-63 0 -78 61 -78 120c0 113 53 280 152 280c66 0 78 -63 78 -111c0 -104 -46 -289 -151 -289zM132 292h1c70 0 104 187 104 257c0 30 -5 75 -42 75c-69 0 -108 -162 -108 -246c0 -46 7 -86 45 -86z" />
    <glyph glyph-name="uniF662" unicode="&#xf662;" horiz-adv-x="179" 
d="M123 263h-37l67 349h-2l-83 -42l-1 34l101 49h30z" />
    <glyph glyph-name="uniF663" unicode="&#xf663;" horiz-adv-x="235" 
d="M222 263h-211l6 26l38 35c70 65 161 153 161 232c0 45 -23 67 -61 67c-26 0 -52 -14 -66 -25l-13 28c16 13 50 32 89 32c56 0 92 -37 92 -99c0 -85 -81 -162 -139 -218l-42 -41v-2h153z" />
    <glyph glyph-name="uniF664" unicode="&#xf664;" horiz-adv-x="219" 
d="M87 599l-10 28c17 16 51 31 82 31c47 0 82 -27 82 -83c0 -43 -34 -77 -76 -95l-1 -2c34 -14 64 -44 61 -97c-3 -69 -54 -123 -135 -123c-35 0 -66 12 -84 25l15 31c15 -9 39 -22 75 -22c53 0 87 36 87 94c0 52 -35 75 -87 75h-5l5 29h6c51 0 99 35 99 85
c0 34 -21 50 -50 50c-27 0 -49 -13 -64 -26z" />
    <glyph glyph-name="uniF665" unicode="&#xf665;" horiz-adv-x="246" 
d="M189 263h-37l22 118h-145l4 20l193 257h38l-47 -246h49l-6 -31h-49zM180 412l23 119c7 34 15 60 19 77h-2c-21 -31 -34 -49 -55 -79l-81 -114l-1 -3h97z" />
    <glyph glyph-name="uniF666" unicode="&#xf666;" horiz-adv-x="222" 
d="M267 653l-8 -36h-108l-34 -108c4 1 9 0 13 0c15 0 44 -7 63 -23c22 -18 33 -47 33 -80c0 -85 -64 -148 -144 -148c-28 0 -52 7 -62 14l12 33c10 -6 30 -12 52 -12c58 0 101 48 101 106c0 53 -30 78 -82 78c-13 0 -21 -1 -31 -2l52 178h143z" />
    <glyph glyph-name="uniF667" unicode="&#xf667;" horiz-adv-x="247" 
d="M273 658l-4 -35c-4 0 -11 -1 -18 -2c-65 -13 -122 -60 -150 -149h1c21 26 50 42 79 42c52 0 78 -44 78 -97c0 -70 -46 -159 -123 -159c-63 0 -89 51 -89 118c0 85 41 174 88 219c24 23 55 43 91 54c15 5 31 8 47 9zM138 290h1c52 0 78 74 78 125c0 44 -18 66 -51 66
c-24 0 -52 -17 -70 -48c-3 -5 -5 -11 -6 -16c-3 -14 -4 -29 -4 -47c0 -46 17 -80 52 -80z" />
    <glyph glyph-name="uniF668" unicode="&#xf668;" horiz-adv-x="219" 
d="M84 653h199l-5 -26c-35 -70 -167 -294 -207 -364h-43c39 68 169 285 205 353l-1 1h-155z" />
    <glyph glyph-name="uniF669" unicode="&#xf669;" horiz-adv-x="254" 
d="M200 658h1c52 0 80 -37 80 -79c0 -51 -32 -87 -73 -109v-1c31 -22 51 -55 51 -97c0 -67 -55 -114 -117 -114c-58 0 -95 38 -95 91c0 63 45 102 88 123v2c-29 25 -41 50 -41 79c0 56 46 105 106 105zM145 289h1c42 0 73 37 73 82c0 39 -20 64 -55 83
c-36 -14 -76 -51 -76 -101c0 -36 19 -64 57 -64zM196 627h-1c-35 0 -62 -32 -62 -72c0 -32 17 -52 46 -69c39 20 63 52 63 88c0 29 -12 53 -46 53z" />
    <glyph glyph-name="uniF66A" unicode="&#xf66a;" horiz-adv-x="243" 
d="M47 258l2 35c7 0 17 1 28 4c23 5 46 18 67 36c28 24 53 61 70 111h-1c-20 -22 -47 -36 -74 -36c-54 0 -78 44 -78 94c0 73 52 156 125 156c62 0 84 -52 84 -107c0 -90 -44 -185 -90 -231c-29 -30 -68 -50 -102 -58c-12 -3 -21 -4 -31 -4zM182 626h-1
c-48 0 -79 -69 -79 -119c0 -46 19 -67 49 -67c26 0 51 17 66 42c3 5 5 10 7 19c3 13 6 30 6 51c0 42 -11 74 -48 74z" />
    <glyph glyph-name="uniF66B" unicode="&#xf66b;" horiz-adv-x="115" 
d="M29 192l-31 -4c17 32 43 96 54 137l49 6c-19 -48 -54 -115 -72 -139z" />
    <glyph glyph-name="uniF66C" unicode="&#xf66c;" horiz-adv-x="115" 
d="M67 258h-1c-16 0 -26 12 -26 30c0 19 13 35 31 35c19 0 28 -14 28 -30c0 -19 -14 -35 -32 -35z" />
    <glyph glyph-name="uniF62E" unicode="&#xf62e;" horiz-adv-x="217" 
d="M141 257h-30l11 60c-24 5 -42 19 -53 37c-10 17 -15 42 -15 65c0 83 51 169 124 182l11 57h30l-11 -55c15 0 34 -6 42 -13l-14 -30c-11 7 -26 10 -43 10c-55 0 -98 -76 -98 -149c0 -41 18 -73 58 -73c19 0 35 6 48 12l4 -30c-13 -8 -34 -14 -53 -14z" />
    <glyph glyph-name="uniF62F" unicode="&#xf62f;" horiz-adv-x="217" 
d="M111 213h-30l11 60c-27 2 -53 12 -65 22l13 32c15 -10 36 -22 65 -22c45 0 74 31 74 70c0 33 -13 53 -43 75c-38 28 -62 56 -62 95c0 48 34 92 91 99l11 57h30l-11 -57c24 -1 45 -10 55 -18l-15 -31c-11 7 -29 18 -55 18c-39 0 -66 -26 -66 -62c0 -32 17 -48 50 -72
c38 -27 56 -58 56 -94c0 -66 -41 -106 -97 -112z" />
    <glyph glyph-name="uniF630" unicode="&#xf630;" horiz-adv-x="174" 
d="M55 458h137l-6 -33h-137z" />
    <glyph glyph-name="uniF631" unicode="&#xf631;" horiz-adv-x="157" 
d="M190 692h36c-70 -78 -123 -192 -123 -315c0 -65 8 -120 29 -172h-32c-22 49 -33 109 -33 171c0 131 58 244 123 316z" />
    </font>
</defs>
</svg>
