<?xml version="1.0" standalone="no"?>
<!DOCTYPE svg PUBLIC "-//W3C//DTD SVG 1.1//EN" "http://www.w3.org/Graphics/SVG/1.1/DTD/svg11.dtd" >
<svg>
<metadata>
Created by FontForge 20110222 at Thu Feb 21 06:49:33 2013
 By www-data
Copyright 1992, 1994, 1997, 2000, 2004 Adobe Systems Incorporated. All rights reserved. Protected by U.S. Patents D454,582. Myriad is either a registered trademark or a trademark of Adobe Systems Incorporated in the United States and/or other countries.
</metadata>
<defs>
<font id="MyriadPro-LightSemiCnIt" horiz-adv-x="352" >
  <font-face 
    font-family="Myriad Pro"
    font-weight="300"
    font-style="italic"
    font-stretch="semi-condensed"
    units-per-em="1000"
    panose-1="2 11 4 3 3 4 3 9 2 4"
    ascent="750"
    descent="-250"
    x-height="480"
    cap-height="674"
    bbox="-171 -250 992 924"
    underline-thickness="50"
    underline-position="-50"
    slope="-11"
    stemh="37"
    stemv="46"
    unicode-range="U+0020-FB04"
  />
<missing-glyph horiz-adv-x="500" 
d="M0 0v700h500v-700h-500zM250 395l170 255h-340zM280 350l170 -255v510zM80 50h340l-170 255zM50 605v-510l170 255z" />
    <glyph glyph-name="f_f" unicode="ff" horiz-adv-x="482" 
d="M604 703l-12 -36c-12 5 -28 9 -46 9c-73 0 -107 -80 -123 -173l-4 -23h108l-8 -37h-108l-84 -443h-43l84 443h-202l-85 -443h-42l84 443h-63l7 37h64l4 24c11 59 32 121 71 160c24 24 55 39 96 39c20 0 38 -7 51 -15l-16 -35c-10 6 -26 11 -41 11
c-73 0 -103 -78 -119 -165l-4 -19h203l5 29c12 66 35 128 73 165c25 23 59 40 96 41c28 0 47 -6 54 -12z" />
    <glyph glyph-name="f_f_i" unicode="ffi" horiz-adv-x="675" 
d="M666 691l-17 -36c-17 11 -47 21 -84 21c-85 0 -126 -75 -142 -175l-4 -21h229l-92 -480h-43l84 443h-186l-84 -443h-43l84 443h-203l-84 -443h-43l85 443h-63l7 37h63l6 29c9 53 31 112 69 151c27 26 60 43 104 43c28 0 50 -10 64 -19l-18 -36c-15 9 -33 16 -53 16
c-28 0 -51 -10 -69 -28c-28 -28 -45 -74 -56 -132l-4 -24h203l5 27c23 129 86 208 196 208c37 0 76 -12 89 -24z" />
    <glyph glyph-name="f_f_j" unicode="ffj" horiz-adv-x="650" 
d="M666 691l-17 -36c-17 11 -47 21 -84 21c-85 0 -126 -75 -142 -175l-4 -21h229l-93 -491c-15 -78 -30 -124 -54 -152c-23 -26 -56 -43 -93 -43c-19 0 -32 1 -43 5l5 37c8 -2 22 -4 39 -4c43 0 77 26 98 132l90 479h-186l-84 -443h-43l84 443h-203l-84 -443h-43l85 443h-63
l7 37h63l6 29c9 53 31 112 69 151c27 26 60 43 104 43c28 0 50 -10 64 -19l-18 -36c-15 9 -33 16 -53 16c-28 0 -51 -10 -69 -28c-28 -28 -45 -74 -56 -132l-4 -24h203l5 27c23 129 86 208 196 208c37 0 76 -12 89 -24z" />
    <glyph glyph-name="f_f_l" unicode="ffl" horiz-adv-x="675" 
d="M376 684l-19 -35c-15 9 -33 15 -53 15c-29 0 -52 -11 -70 -30c-30 -30 -47 -78 -57 -130l-4 -24h202l5 24c12 71 35 130 87 171c32 25 77 40 121 40c39 0 79 -11 99 -24l-131 -691h-43l126 663c-13 8 -31 13 -64 13c-89 0 -132 -68 -150 -161l-7 -35h107l-8 -37h-106
l-84 -443h-44l85 443h-203l-84 -443h-43l85 443h-63l7 37h63l6 29c9 54 31 112 70 150c27 27 61 44 105 44c27 0 51 -10 65 -19z" />
    <glyph glyph-name="f_i" unicode="fi" horiz-adv-x="429" 
d="M81 0h-42l84 443h-63l7 37h63l6 27c22 130 86 208 196 208c37 0 76 -12 89 -24l-18 -36c-17 11 -47 21 -84 21c-85 0 -126 -75 -142 -175l-4 -21h229l-91 -480h-44l84 443h-186z" />
    <glyph glyph-name="f_j" unicode="fj" horiz-adv-x="404" 
d="M420 691l-17 -36c-17 11 -47 21 -84 21c-85 0 -126 -75 -142 -175l-4 -21h229l-93 -491c-15 -78 -30 -124 -54 -152c-23 -26 -56 -43 -93 -43c-19 0 -32 1 -42 5l6 37c7 -2 21 -4 38 -4c42 0 76 26 97 132l91 479h-187l-83 -443h-43l84 443h-63l7 37h63l5 27
c23 129 86 208 196 208c37 0 77 -12 89 -24z" />
    <glyph glyph-name="f_l" unicode="fl" horiz-adv-x="429" 
d="M82 0h-43l84 443h-63l7 37h64l4 24c14 71 35 130 87 171c32 25 77 40 121 40c39 0 79 -11 99 -25l-131 -690h-43l126 663c-13 8 -31 13 -64 13c-88 0 -132 -68 -150 -161l-7 -35h107l-8 -37h-106z" />
    <glyph glyph-name=".notdef" horiz-adv-x="500" 
d="M0 0v700h500v-700h-500zM250 395l170 255h-340zM280 350l170 -255v510zM80 50h340l-170 255zM50 605v-510l170 255z" />
    <glyph glyph-name="space" unicode=" " horiz-adv-x="171" 
 />
    <glyph glyph-name="exclam" unicode="!" horiz-adv-x="206" 
d="M109 174h-38l89 500h53zM59 -10c-21 0 -36 19 -36 42c0 25 18 45 41 45c25 0 37 -20 37 -42s-16 -45 -42 -45z" />
    <glyph glyph-name="quotedbl" unicode="&#x22;" horiz-adv-x="247" 
d="M120 689h55l-53 -220h-32zM244 689h55l-53 -220h-32z" />
    <glyph glyph-name="numbersign" unicode="#" horiz-adv-x="431" 
d="M162 243h88l51 169h-89zM88 0h-39l62 205h-76l7 38h80l51 169h-81l6 37h86l62 201h38l-61 -201h89l62 201h38l-61 -201h76l-7 -37h-80l-50 -169h82l-7 -37h-87l-62 -206h-39l62 206h-89z" />
    <glyph glyph-name="dollar" unicode="$" horiz-adv-x="431" 
d="M171 -84h-39l20 103c-42 2 -90 20 -111 38l16 36c26 -18 63 -38 112 -38c80 0 141 55 141 133c0 56 -22 95 -79 132c-75 45 -112 93 -112 155c0 80 64 152 153 160l20 99h39l-19 -100c42 -2 77 -18 92 -31l-19 -33c-17 10 -46 29 -95 29c-76 0 -126 -50 -126 -118
c0 -56 26 -85 91 -125c68 -45 99 -94 99 -153c0 -105 -68 -174 -163 -184z" />
    <glyph glyph-name="percent" unicode="%" horiz-adv-x="690" 
d="M237 660c73 0 99 -67 99 -128c0 -129 -60 -268 -164 -268c-70 0 -102 61 -102 135c0 114 58 261 167 261zM228 626c-74 0 -117 -131 -117 -224c0 -54 13 -104 67 -104c74 0 117 133 117 226c0 43 -11 102 -67 102zM140 -13h-43l483 676h43zM555 390c73 0 99 -67 99 -128
c0 -128 -60 -267 -164 -267c-70 0 -102 61 -102 135c0 113 58 260 167 260zM546 356c-74 0 -117 -131 -117 -223c0 -54 13 -104 67 -104c74 0 117 133 117 225c0 43 -11 102 -67 102z" />
    <glyph glyph-name="ampersand" unicode="&#x26;" horiz-adv-x="519" 
d="M457 0h-51c-17 22 -29 41 -48 72c-58 -59 -117 -82 -183 -82c-104 0 -158 76 -158 160c0 108 83 183 164 226v3c-20 40 -34 83 -34 126c0 94 61 179 151 179c78 0 109 -60 109 -119c0 -86 -63 -150 -170 -203v-3c35 -64 87 -157 129 -223c42 61 76 139 102 222h44
c-32 -99 -72 -187 -126 -254c18 -27 38 -58 71 -104zM185 28c58 0 111 28 153 76c-38 65 -93 153 -141 242c-58 -35 -135 -94 -135 -190c0 -75 47 -128 123 -128zM291 647c-58 0 -101 -60 -101 -134c0 -45 10 -81 30 -121c92 48 143 98 143 169c0 48 -19 86 -72 86z" />
    <glyph glyph-name="quoteright" unicode="&#x2019;" horiz-adv-x="155" 
d="M155 679l59 10c-31 -75 -92 -189 -113 -217l-34 -5c23 42 69 150 88 212z" />
    <glyph glyph-name="parenleft" unicode="(" horiz-adv-x="260" 
d="M282 692h46c-114 -125 -215 -309 -215 -529c0 -98 16 -192 57 -283h-39c-41 84 -61 177 -61 285c0 227 110 414 212 527z" />
    <glyph glyph-name="parenright" unicode=")" horiz-adv-x="260" 
d="M-3 -120h-47c114 126 215 310 215 530c0 98 -16 192 -57 282h39c41 -84 61 -176 61 -284c0 -227 -110 -414 -211 -528z" />
    <glyph glyph-name="asterisk" unicode="*" horiz-adv-x="383" 
d="M324 684l40 -23l-98 -122v-2l141 12l-9 -45l-136 11v-3l73 -118l-43 -25l-54 130h-2l-80 -132l-35 26l97 120l1 3l-139 -12l8 45l133 -11v2l-70 118l44 24l51 -127h2z" />
    <glyph glyph-name="plus" unicode="+" horiz-adv-x="596" 
d="M286 532h40v-246h230v-38h-230v-248h-40v248h-230v38h230v246z" />
    <glyph glyph-name="comma" unicode="," horiz-adv-x="178" 
d="M2 -121l-38 -5c23 42 67 150 84 212l63 10c-29 -75 -89 -189 -109 -217z" />
    <glyph glyph-name="hyphen" unicode="-" horiz-adv-x="296" 
d="M45 289h228l-8 -41h-228z" />
    <glyph glyph-name="period" unicode="." horiz-adv-x="178" 
d="M57 -10c-21 0 -36 19 -36 42c0 25 18 45 41 45c25 0 37 -20 37 -42s-16 -45 -42 -45z" />
    <glyph glyph-name="slash" unicode="/" horiz-adv-x="313" 
d="M-9 -40h-45l407 724h46z" />
    <glyph glyph-name="zero" unicode="0" horiz-adv-x="431" 
d="M299 660c108 0 132 -102 132 -186c0 -192 -88 -484 -257 -484c-104 0 -134 98 -134 206c0 202 102 464 259 464zM296 622c-126 0 -211 -248 -211 -427c0 -83 15 -167 97 -167c133 0 204 298 204 443c0 55 -7 151 -90 151z" />
    <glyph glyph-name="one" unicode="1" horiz-adv-x="431" 
d="M169 0l113 598h-2l-105 -58l-10 35l132 75h38l-123 -650h-43z" />
    <glyph glyph-name="two" unicode="2" horiz-adv-x="431" 
d="M334 0h-334l5 30l68 65c167 153 293 288 293 416c0 54 -24 110 -101 110c-55 0 -96 -30 -118 -48l-16 33c34 29 89 54 141 54c106 0 140 -76 140 -144c0 -148 -147 -295 -303 -440l-40 -36v-2h272z" />
    <glyph glyph-name="three" unicode="3" horiz-adv-x="431" 
d="M17 24l16 35c22 -13 55 -30 104 -30c117 0 173 94 173 176c0 95 -67 134 -134 133h-31l7 36h31c59 1 165 50 165 152c0 62 -33 95 -95 95c-39 0 -78 -15 -102 -33l-15 34c32 21 77 38 125 38c96 0 133 -67 133 -128c0 -91 -70 -153 -138 -175v-2c67 -17 101 -81 101 -148
c0 -119 -93 -217 -225 -217c-52 0 -96 17 -115 34z" />
    <glyph glyph-name="four" unicode="4" horiz-adv-x="431" 
d="M278 0h-42l36 193h-260l7 30l344 427h39l-80 -419h89l-7 -38h-90zM74 231h206l47 249c7 36 16 70 24 105h-3c-29 -44 -44 -72 -74 -112l-200 -240v-2z" />
    <glyph glyph-name="five" unicode="5" horiz-adv-x="431" 
d="M433 650l-9 -40h-200l-64 -205c10 1 19 2 29 2c25 0 69 -9 101 -31c49 -29 70 -84 70 -138c0 -147 -111 -248 -237 -248c-48 0 -92 16 -109 29l16 35c19 -11 57 -25 100 -25c107 0 184 95 184 199c0 87 -43 140 -146 140c-22 0 -40 -1 -60 -3l88 285h237z" />
    <glyph glyph-name="six" unicode="6" horiz-adv-x="431" 
d="M419 660l-4 -42c-12 0 -27 0 -45 -5c-111 -21 -222 -120 -273 -284h2c38 54 102 90 158 90c97 0 140 -76 140 -167c0 -114 -82 -262 -210 -262c-104 0 -153 83 -153 199c0 144 76 292 155 365c64 61 133 93 190 101c16 4 30 5 40 5zM191 29c97 0 160 121 160 223
c0 86 -38 128 -106 128c-51 0 -110 -36 -149 -98c-5 -8 -10 -18 -11 -29c-4 -19 -7 -40 -7 -71c0 -90 37 -153 113 -153z" />
    <glyph glyph-name="seven" unicode="7" horiz-adv-x="431" 
d="M133 650h336l-6 -31c-121 -206 -244 -413 -372 -619h-48c126 203 249 406 370 609l-1 2h-287z" />
    <glyph glyph-name="eight" unicode="8" horiz-adv-x="431" 
d="M286 660c85 0 134 -62 134 -134c0 -85 -56 -145 -129 -182v-3c62 -37 94 -94 94 -163c0 -111 -93 -188 -196 -188c-101 0 -164 65 -164 153c0 107 78 174 156 207v3c-53 41 -72 84 -72 133c0 91 75 174 177 174zM192 28c87 0 148 65 148 149c0 72 -37 117 -117 151
c-73 -22 -153 -84 -153 -180c0 -64 39 -120 122 -120zM277 622c-72 0 -125 -61 -125 -133c0 -57 29 -96 95 -126c75 31 128 87 128 156c0 49 -21 103 -98 103z" />
    <glyph glyph-name="nine" unicode="9" horiz-adv-x="431" 
d="M56 -10l2 41c14 0 33 2 52 7c43 10 90 34 132 73c48 43 94 111 125 206h-3c-41 -49 -95 -77 -147 -77c-99 0 -136 83 -136 160c0 121 90 260 212 260c102 0 140 -87 140 -182c0 -154 -85 -315 -157 -386c-48 -47 -107 -80 -160 -94c-20 -5 -42 -8 -60 -8zM286 621
c-93 0 -160 -114 -160 -216c0 -80 35 -126 101 -126c54 0 106 33 140 87c5 8 9 16 12 27c5 21 9 50 9 85c0 82 -24 143 -102 143z" />
    <glyph glyph-name="colon" unicode=":" horiz-adv-x="178" 
d="M129 368c-21 0 -36 19 -36 42c0 25 18 45 41 45c25 0 37 -20 37 -42s-16 -45 -42 -45zM57 -10c-21 0 -36 19 -36 42c0 25 18 45 41 45c25 0 37 -20 37 -42s-16 -45 -42 -45z" />
    <glyph glyph-name="semicolon" unicode=";" horiz-adv-x="178" 
d="M2 -121l-38 -5c23 42 67 150 84 212l63 10c-29 -75 -89 -189 -109 -217zM132 368c-21 0 -36 19 -36 42c0 25 18 45 41 45c25 0 37 -20 37 -42s-16 -45 -42 -45z" />
    <glyph glyph-name="less" unicode="&#x3c;" horiz-adv-x="596" 
d="M89 249v34l439 249v-45l-393 -220v-2l393 -220v-45z" />
    <glyph glyph-name="equal" unicode="=" horiz-adv-x="596" 
d="M560 347h-500v38h500v-38zM560 155h-500v38h500v-38z" />
    <glyph glyph-name="greater" unicode="&#x3e;" horiz-adv-x="596" 
d="M537 283v-34l-439 -249v45l393 220v2l-393 220v45z" />
    <glyph glyph-name="question" unicode="?" horiz-adv-x="334" 
d="M160 173h-42c1 8 1 15 1 22c3 56 29 124 94 198c44 48 94 99 94 174c0 42 -23 79 -82 79c-32 0 -63 -10 -87 -26l-13 34c32 20 70 32 110 32c89 0 119 -64 119 -117c0 -79 -53 -141 -110 -203c-53 -58 -77 -105 -81 -168c-1 -8 -2 -16 -3 -25zM109 -10h-2
c-21 0 -36 19 -36 42c0 25 18 45 41 45c25 0 37 -20 37 -42s-16 -45 -40 -45z" />
    <glyph glyph-name="at" unicode="@" horiz-adv-x="659" 
d="M412 251l28 133c-11 4 -27 8 -52 8c-100 0 -178 -105 -178 -211c0 -48 25 -79 67 -79c64 0 122 85 135 149zM458 -30l13 -34c-47 -30 -104 -41 -161 -41c-162 0 -280 111 -280 303c0 215 139 396 345 396c157 0 256 -113 256 -272c0 -166 -80 -256 -164 -256
c-34 0 -69 26 -63 89h-3c-39 -65 -85 -89 -137 -89c-51 0 -97 41 -97 116c0 119 93 246 232 246c36 0 65 -7 88 -16l-39 -189c-17 -82 -5 -120 28 -121c55 -1 112 85 112 207c0 151 -78 248 -220 248c-161 0 -295 -143 -295 -357c0 -164 94 -267 245 -267
c52 0 101 14 140 37z" />
    <glyph glyph-name="A" unicode="A" horiz-adv-x="500" 
d="M369 236h-230l-116 -236h-44l337 674h42l81 -674h-43zM159 274h205l-26 214c-4 40 -8 87 -11 129h-3c-18 -43 -35 -83 -56 -127z" />
    <glyph glyph-name="B" unicode="B" horiz-adv-x="447" 
d="M32 5l125 661c34 7 71 12 115 12c60 0 106 -16 135 -48c23 -25 32 -58 32 -95c0 -84 -66 -154 -147 -176v-2c64 -20 108 -73 108 -152c0 -68 -33 -123 -73 -155c-48 -39 -112 -54 -184 -54c-43 0 -84 3 -111 9zM195 634l-49 -257h60c102 0 187 61 187 159
c0 71 -49 105 -131 105c-29 0 -54 -2 -67 -7zM139 341l-57 -301c20 -4 45 -6 68 -6c112 -1 205 56 205 175c0 84 -64 132 -149 132h-67z" />
    <glyph glyph-name="C" unicode="C" horiz-adv-x="479" 
d="M410 57l10 -37c-33 -15 -86 -29 -147 -29c-151 0 -229 108 -229 264c0 112 38 246 127 333c66 63 146 95 232 95c61 0 106 -16 120 -28l-18 -36c-24 15 -64 25 -112 25c-71 0 -141 -30 -194 -83c-68 -71 -110 -185 -110 -295c0 -128 45 -236 193 -236c45 0 96 10 128 27z
" />
    <glyph glyph-name="D" unicode="D" horiz-adv-x="561" 
d="M31 2l125 664c43 8 88 12 135 12c101 0 177 -33 217 -89c25 -35 45 -90 45 -163c0 -127 -47 -265 -132 -342c-71 -63 -159 -88 -259 -88c-43 0 -90 2 -131 6zM193 633l-112 -594c30 -4 61 -5 83 -5c105 0 178 29 238 90c67 66 105 185 105 298c0 127 -55 218 -223 218
c-30 0 -67 -2 -91 -7z" />
    <glyph glyph-name="E" unicode="E" horiz-adv-x="405" 
d="M372 374l-8 -38h-226l-56 -298h256l-7 -38h-300l128 674h285l-8 -38h-241l-50 -262h227z" />
    <glyph glyph-name="F" unicode="F" horiz-adv-x="399" 
d="M31 0l128 674h285l-8 -38h-241l-52 -272h222l-8 -38h-221l-62 -326h-43z" />
    <glyph glyph-name="G" unicode="G" horiz-adv-x="536" 
d="M499 334l-58 -311c-30 -14 -86 -30 -149 -30c-87 0 -151 29 -194 84c-43 57 -52 127 -52 185c0 106 39 239 130 325c66 61 150 94 238 94c66 0 107 -16 124 -26l-17 -37c-30 16 -66 24 -117 24c-76 0 -147 -31 -207 -91c-67 -67 -106 -186 -106 -284
c0 -135 56 -235 211 -235c37 0 76 8 101 19l46 245h-140l7 38h183z" />
    <glyph glyph-name="H" unicode="H" horiz-adv-x="549" 
d="M159 674h44l-58 -299h311l57 299h44l-128 -674h-44l64 337h-311l-64 -337h-43z" />
    <glyph glyph-name="I" unicode="I" horiz-adv-x="194" 
d="M158 674h44l-129 -674h-43z" />
    <glyph glyph-name="J" unicode="J" horiz-adv-x="311" 
d="M191 191l92 483h43l-93 -490c-27 -145 -85 -194 -181 -194c-34 0 -67 8 -82 16l11 38c19 -9 43 -14 74 -14c72 0 113 39 136 161z" />
    <glyph glyph-name="K" unicode="K" horiz-adv-x="434" 
d="M31 0l128 674h44l-65 -341l4 1c25 29 47 54 67 77l246 263h54l-271 -288l160 -386h-46l-147 354l-77 -74l-54 -280h-43z" />
    <glyph glyph-name="L" unicode="L" horiz-adv-x="381" 
d="M31 0l128 674h43l-121 -636h255l-8 -38h-297z" />
    <glyph glyph-name="M" unicode="M" horiz-adv-x="697" 
d="M593 0h-42l56 429c7 59 20 144 29 193h-4c-25 -57 -56 -125 -90 -189l-227 -433h-30l-55 429c-10 75 -16 136 -20 193h-2c-12 -50 -29 -134 -44 -193l-107 -429h-43l173 674h51l60 -457c7 -53 13 -101 15 -142h3c18 41 41 87 68 140l240 459h54z" />
    <glyph glyph-name="N" unicode="N" horiz-adv-x="555" 
d="M73 0h-42l128 674h42l160 -448c25 -66 38 -115 50 -168l2 1c6 60 12 109 27 190l81 425h42l-128 -674h-40l-157 439c-28 70 -41 119 -52 179l-3 -1c-8 -64 -17 -120 -31 -196z" />
    <glyph glyph-name="O" unicode="O" horiz-adv-x="577" 
d="M361 684c163 0 208 -137 208 -257c0 -114 -44 -273 -127 -356c-51 -52 -115 -81 -187 -81c-158 0 -210 136 -210 252c0 118 47 280 133 365c50 48 118 77 183 77zM354 645c-57 0 -107 -25 -147 -65c-75 -75 -117 -228 -117 -329c0 -104 37 -222 171 -222
c55 0 107 24 148 65c75 76 115 232 115 328c0 102 -24 223 -170 223z" />
    <glyph glyph-name="P" unicode="P" horiz-adv-x="439" 
d="M30 0l127 666c32 7 74 12 116 12c59 0 114 -18 143 -52c23 -29 34 -63 34 -108c0 -67 -33 -130 -69 -166c-48 -46 -118 -68 -184 -68c-25 0 -47 2 -68 6l-55 -290h-44zM194 633l-58 -304c24 -6 43 -7 66 -7c125 0 203 89 203 193c0 84 -53 125 -142 125
c-29 0 -54 -3 -69 -7z" />
    <glyph glyph-name="Q" unicode="Q" horiz-adv-x="577" 
d="M492 -37l-21 -41c-74 18 -173 48 -194 57c-25 9 -33 11 -37 11c-120 6 -195 112 -195 251c0 119 46 278 131 363c50 50 119 80 185 80c164 0 208 -137 208 -257c0 -106 -42 -270 -126 -354c-34 -34 -80 -62 -120 -71v-3c59 -14 120 -28 169 -36zM354 645
c-56 0 -106 -24 -145 -63c-77 -77 -119 -233 -119 -333c0 -102 35 -221 167 -221c59 0 110 24 150 64c78 77 117 237 117 331c0 90 -21 222 -170 222z" />
    <glyph glyph-name="R" unicode="R" horiz-adv-x="448" 
d="M30 0l126 666c36 8 79 12 116 12c63 0 110 -19 137 -50c23 -27 34 -63 34 -100c0 -95 -74 -178 -158 -201v-2c49 -15 73 -68 76 -149c6 -104 10 -152 16 -176h-45c-4 15 -9 88 -12 166c-5 101 -39 145 -112 145h-75l-59 -311h-44zM194 633l-54 -285h70
c113 0 187 81 187 177c0 77 -50 116 -134 116c-31 0 -53 -3 -69 -8z" />
    <glyph glyph-name="S" unicode="S" horiz-adv-x="403" 
d="M12 31l18 37c30 -22 72 -38 120 -38c90 0 160 63 160 156c0 58 -27 103 -94 147c-81 50 -117 104 -117 169c0 105 86 181 194 181c50 0 94 -17 112 -32l-18 -35c-20 12 -54 28 -101 28c-87 0 -143 -65 -143 -133c0 -63 31 -101 99 -143c71 -44 112 -98 112 -179
c0 -100 -69 -198 -213 -198c-48 0 -107 19 -129 40z" />
    <glyph glyph-name="T" unicode="T" horiz-adv-x="405" 
d="M134 0l120 636h-183l8 38h409l-8 -38h-183l-120 -636h-43z" />
    <glyph glyph-name="U" unicode="U" horiz-adv-x="546" 
d="M158 674h44l-81 -423c-6 -30 -8 -59 -8 -85c0 -95 54 -137 126 -137c94 0 160 66 190 220l81 425h44l-83 -430c-36 -190 -128 -254 -239 -254c-85 0 -163 50 -163 172c0 27 3 59 9 89z" />
    <glyph glyph-name="V" unicode="V" horiz-adv-x="468" 
d="M199 0h-43l-65 674h43l48 -487c6 -67 10 -92 7 -127h3c13 33 28 70 62 138l234 476h46z" />
    <glyph glyph-name="W" unicode="W" horiz-adv-x="755" 
d="M172 0h-42l-29 674h44l17 -465c3 -82 0 -112 -1 -147h3c12 34 24 67 59 142l212 470h44l18 -446c4 -83 4 -131 3 -166h3c17 49 32 91 56 146l208 466h46l-305 -674h-42l-19 458c-4 66 -3 92 1 164h-3c-20 -60 -33 -99 -55 -144z" />
    <glyph glyph-name="X" unicode="X" horiz-adv-x="457" 
d="M395 0h-46l-64 186c-16 41 -30 80 -41 119h-3c-22 -35 -48 -72 -79 -115l-135 -190h-51l251 343l-115 331h46l66 -191c14 -37 23 -67 33 -102h2c21 33 43 65 69 101l142 192h52l-248 -328z" />
    <glyph glyph-name="Y" unicode="Y" horiz-adv-x="456" 
d="M196 0h-43l55 289l-113 385h46l68 -239c17 -56 23 -85 27 -108h2c16 27 39 64 70 112l159 235h50l-266 -385z" />
    <glyph glyph-name="Z" unicode="Z" horiz-adv-x="453" 
d="M-19 0l6 30l453 603v3h-310l7 38h368l-6 -30l-454 -603l1 -3h342l-8 -38h-399z" />
    <glyph glyph-name="bracketleft" unicode="[" horiz-adv-x="260" 
d="M176 -111h-149l152 797h149l-7 -35h-107l-138 -727h107z" />
    <glyph glyph-name="backslash" unicode="\" horiz-adv-x="311" 
d="M299 -40h-43l-198 724h43z" />
    <glyph glyph-name="bracketright" unicode="]" horiz-adv-x="260" 
d="M104 686h150l-152 -797h-150l7 35h108l138 727h-108z" />
    <glyph glyph-name="asciicircum" unicode="^" horiz-adv-x="596" 
d="M529 196h-43l-176 407h-2l-176 -407h-43l200 454l41 -1z" />
    <glyph glyph-name="underscore" unicode="_" horiz-adv-x="500" 
d="M-51 -75h500l-10 -50h-500z" />
    <glyph glyph-name="quoteleft" unicode="&#x2018;" horiz-adv-x="155" 
d="M132 477l-59 -10c31 75 92 189 113 217l34 5c-23 -42 -69 -150 -88 -212z" />
    <glyph glyph-name="a" unicode="a" horiz-adv-x="458" 
d="M359 0h-42c-1 29 5 74 12 129h-2c-55 -106 -116 -139 -179 -139c-73 0 -117 60 -117 146c0 163 117 354 303 354c34 0 72 -6 97 -14l-51 -259c-17 -89 -23 -166 -21 -217zM347 269l34 175c-11 4 -28 7 -58 7c-138 0 -246 -154 -247 -305c-1 -62 17 -118 82 -118
c78 0 166 117 189 241z" />
    <glyph glyph-name="b" unicode="b" horiz-adv-x="458" 
d="M158 705h44l-63 -317l2 -1c44 71 101 103 159 103c96 0 129 -84 129 -163c0 -136 -96 -337 -269 -337c-62 0 -117 30 -117 105c0 18 3 43 6 60zM113 252l-20 -92c-3 -15 -5 -33 -5 -60c0 -45 24 -72 78 -72c141 0 218 185 218 298c0 67 -26 125 -95 125
c-73 0 -151 -79 -176 -199z" />
    <glyph glyph-name="c" unicode="c" horiz-adv-x="374" 
d="M302 55l10 -37c-20 -10 -63 -27 -121 -27c-116 0 -157 86 -157 176c0 148 101 323 266 323c38 0 73 -12 83 -20l-15 -37c-17 8 -42 17 -75 17c-134 0 -214 -154 -214 -277c0 -84 34 -143 121 -143c42 0 78 14 102 25z" />
    <glyph glyph-name="d" unicode="d" horiz-adv-x="458" 
d="M431 705h43l-107 -561c-8 -46 -17 -103 -19 -144h-40l13 97h-2c-38 -64 -94 -107 -163 -107c-86 0 -125 75 -125 161c0 170 116 339 272 339c32 0 66 -9 84 -20zM340 225l37 202c-17 14 -44 24 -81 24c-126 0 -220 -157 -220 -294c0 -61 16 -129 93 -129
c65 0 149 78 171 197z" />
    <glyph glyph-name="e" unicode="e" horiz-adv-x="389" 
d="M302 62l13 -35c-25 -16 -71 -36 -131 -36c-112 0 -151 88 -151 180c0 138 96 319 234 319c79 0 112 -52 112 -105c0 -122 -140 -156 -297 -155c-5 -22 -6 -85 4 -119c17 -55 54 -81 105 -81c53 0 89 19 111 32zM334 383c0 45 -30 68 -75 68c-74 0 -141 -80 -170 -183
c125 -1 245 20 245 115z" />
    <glyph glyph-name="f" unicode="f" horiz-adv-x="236" 
d="M80 0h-42l84 443h-63l7 37h64l5 29c12 67 35 128 73 166c25 24 59 40 96 40c28 0 47 -6 54 -12l-12 -36c-12 6 -28 9 -46 9c-73 0 -107 -80 -123 -173l-4 -23h108l-8 -37h-108z" />
    <glyph glyph-name="g" unicode="g" horiz-adv-x="458" 
d="M3 -174l16 37c27 -18 65 -31 113 -31c84 0 141 50 171 186l20 90h-2c-45 -80 -105 -112 -165 -112c-83 0 -125 71 -125 156c0 158 106 338 277 338c41 0 94 -15 121 -29l-76 -405c-21 -110 -46 -174 -87 -211c-40 -39 -94 -51 -141 -51c-50 0 -96 13 -122 32zM342 239
l38 194c-16 9 -45 18 -83 18c-134 0 -220 -158 -221 -286c-1 -61 15 -131 93 -131c79 0 155 111 173 205z" />
    <glyph glyph-name="h" unicode="h" horiz-adv-x="470" 
d="M73 0h-43l133 705h44l-61 -316h2c41 64 96 101 164 101c46 0 106 -30 106 -117c0 -27 -3 -51 -7 -76l-56 -297h-43l57 300c3 18 6 39 6 69c0 46 -23 82 -78 82c-69 0 -156 -85 -176 -191z" />
    <glyph glyph-name="i" unicode="i" horiz-adv-x="191" 
d="M72 0h-43l92 480h43zM163 574c-19 0 -31 17 -30 39c1 21 17 39 36 39c22 0 34 -17 33 -39c-2 -22 -16 -39 -39 -39z" />
    <glyph glyph-name="j" unicode="j" horiz-adv-x="187" 
d="M122 480h44l-94 -491c-15 -78 -29 -124 -53 -152c-23 -26 -56 -43 -93 -43c-19 0 -32 1 -43 5l6 37c7 -2 21 -4 38 -4c43 0 77 26 97 132zM162 574c-19 0 -31 17 -30 39c1 21 17 39 36 39c22 0 34 -17 33 -39c-2 -22 -16 -39 -39 -39z" />
    <glyph glyph-name="k" unicode="k" horiz-adv-x="380" 
d="M73 0h-43l134 705h43l-85 -448h2c13 15 31 33 41 43l182 180h55l-200 -196l136 -284h-46l-123 257l-58 -54z" />
    <glyph glyph-name="l" unicode="l" horiz-adv-x="191" 
d="M72 0h-43l133 705h44z" />
    <glyph glyph-name="m" unicode="m" horiz-adv-x="722" 
d="M73 0h-44l64 339c12 57 18 104 22 141h40l-14 -93h3c44 69 100 103 157 103c66 0 98 -45 101 -109c42 72 99 108 165 109c47 0 104 -33 104 -114c0 -24 -3 -52 -8 -81l-56 -295h-43l56 296c4 20 7 45 7 69c0 53 -20 86 -75 86c-64 0 -142 -75 -162 -183l-50 -268h-43
l57 301c5 24 7 43 7 66c0 42 -12 84 -76 84c-62 0 -145 -87 -164 -188z" />
    <glyph glyph-name="n" unicode="n" horiz-adv-x="470" 
d="M73 0h-44l64 339c12 57 18 104 22 141h40l-13 -98h2c42 70 102 108 167 108c47 0 107 -30 107 -121c0 -24 -4 -48 -9 -74l-55 -295h-43l56 295c4 22 7 45 7 70c0 50 -20 86 -79 86c-64 0 -154 -80 -175 -196z" />
    <glyph glyph-name="o" unicode="o" horiz-adv-x="452" 
d="M270 490c115 0 153 -98 153 -185c0 -123 -81 -315 -237 -315c-104 0 -153 87 -153 186c0 140 91 314 237 314zM266 452c-112 0 -188 -149 -188 -272c0 -84 39 -152 115 -152c109 0 185 162 185 277c0 63 -24 147 -112 147z" />
    <glyph glyph-name="p" unicode="p" horiz-adv-x="458" 
d="M29 -196h-43l96 511c12 64 21 121 27 165h41l-15 -97h2c43 65 103 107 167 107c91 0 125 -78 125 -156c0 -162 -111 -344 -264 -344c-47 0 -78 11 -96 21h-2zM107 220l-31 -165c22 -17 54 -27 93 -27c127 0 215 180 215 303c0 57 -22 120 -93 120
c-68 0 -157 -86 -184 -231z" />
    <glyph glyph-name="q" unicode="q" horiz-adv-x="458" 
d="M303 -196h-43l57 290h-2c-41 -71 -104 -104 -160 -104c-85 0 -124 72 -124 161c0 155 112 339 276 339c53 0 97 -14 122 -29zM341 233l39 201c-15 9 -44 17 -80 17c-117 0 -222 -134 -223 -292c-1 -80 29 -131 85 -131c85 0 161 108 179 205z" />
    <glyph glyph-name="r" unicode="r" horiz-adv-x="268" 
d="M73 0h-44l61 323c12 61 19 115 23 157h40c-4 -31 -8 -63 -14 -104h2c30 64 77 114 137 114c6 0 14 -1 18 -2l-8 -45c-5 1 -10 2 -17 2c-63 0 -133 -95 -153 -201z" />
    <glyph glyph-name="s" unicode="s" horiz-adv-x="320" 
d="M7 20l16 36c18 -12 49 -26 85 -26c63 0 105 45 105 99c0 48 -20 77 -65 106c-47 31 -73 74 -73 118c0 75 60 137 144 137c33 0 66 -11 80 -22l-16 -37c-15 9 -41 20 -69 20c-58 0 -96 -40 -96 -90c0 -45 25 -70 65 -96c46 -31 74 -75 74 -123c0 -97 -71 -151 -153 -151
c-43 0 -81 16 -97 29z" />
    <glyph glyph-name="t" unicode="t" horiz-adv-x="268" 
d="M153 566l48 20l-21 -106h113l-8 -37h-113l-53 -286c-6 -32 -10 -57 -10 -83c0 -28 13 -45 43 -45c16 0 26 1 35 4l3 -35c-13 -4 -30 -7 -47 -7c-57 0 -79 38 -79 78c0 26 3 51 11 88l54 286h-69l7 37h70z" />
    <glyph glyph-name="u" unicode="u" horiz-adv-x="463" 
d="M391 480h44l-65 -339c-10 -57 -16 -104 -19 -141h-41l13 94h-2c-39 -64 -99 -104 -160 -104c-52 0 -112 28 -112 127c0 22 3 44 8 71l55 292h43l-55 -288c-5 -28 -8 -50 -8 -74c0 -53 22 -88 81 -88c65 0 148 78 168 185z" />
    <glyph glyph-name="v" unicode="v" horiz-adv-x="387" 
d="M56 480h43l42 -310c7 -50 13 -86 13 -109h3c9 22 22 54 47 102l163 317h46l-250 -480h-40z" />
    <glyph glyph-name="w" unicode="w" horiz-adv-x="641" 
d="M64 480h42l22 -309c5 -57 6 -82 6 -112h2c9 22 23 59 47 104l161 317h41l33 -314c6 -48 9 -84 8 -107h3c11 29 23 62 41 102l149 319h46l-230 -480h-38l-35 318c-5 39 -7 76 -7 109h-2c-15 -34 -29 -70 -49 -109l-162 -318h-40z" />
    <glyph glyph-name="x" unicode="x" horiz-adv-x="373" 
d="M68 480h46l50 -121c12 -27 20 -53 31 -78h2c20 30 31 47 54 74l99 125h51l-190 -235l101 -245h-47l-51 126c-14 33 -21 51 -33 86h-2c-16 -26 -32 -49 -52 -75l-108 -137h-51l199 246z" />
    <glyph glyph-name="y" unicode="y" horiz-adv-x="378" 
d="M51 480h44l48 -290c10 -54 15 -87 20 -131h2c14 35 31 72 54 121l137 300h46l-179 -383c-43 -94 -88 -179 -154 -242c-45 -45 -90 -65 -113 -71l-13 38c19 8 54 23 87 51c32 26 71 74 97 126c5 9 4 15 3 24z" />
    <glyph glyph-name="z" unicode="z" horiz-adv-x="360" 
d="M-23 0l4 28l263 319c38 47 60 69 81 93v3h-245l8 37h297l-6 -31l-261 -317c-39 -47 -59 -69 -80 -92v-3h264l-7 -37h-318z" />
    <glyph glyph-name="braceleft" unicode="{" horiz-adv-x="260" 
d="M36 271l6 34c65 -1 85 40 92 79c11 59 7 116 18 177c16 90 70 125 141 125h17l-7 -35h-18c-53 0 -81 -32 -92 -90c-11 -57 -5 -111 -15 -165c-11 -68 -42 -97 -83 -108v-2c36 -10 47 -38 47 -69c0 -33 -13 -76 -27 -117c-15 -41 -28 -80 -28 -108c0 -36 14 -65 61 -68h17
l-6 -35h-10c-60 0 -104 34 -104 96c0 38 14 81 28 121c14 41 28 80 28 109c0 14 0 57 -65 56z" />
    <glyph glyph-name="bar" unicode="|" horiz-adv-x="191" 
d="M93 750h40v-1000h-40v1000z" />
    <glyph glyph-name="braceright" unicode="}" horiz-adv-x="260" 
d="M237 303l-6 -34c-65 1 -85 -40 -92 -79c-11 -58 -7 -116 -18 -176c-16 -90 -70 -125 -141 -125h-17l7 35h18c53 0 81 32 92 89c11 58 5 111 15 165c11 67 42 97 83 108v2c-36 11 -47 39 -47 69c0 32 14 74 28 116s27 82 27 110c0 36 -14 65 -61 68h-17l6 35h10
c60 0 104 -34 104 -96c0 -40 -14 -83 -28 -124c-15 -40 -28 -77 -28 -107c0 -14 0 -57 65 -56z" />
    <glyph glyph-name="asciitilde" unicode="~" horiz-adv-x="596" 
d="M115 227h-37c-5 72 40 121 102 121c30 0 72 -11 131 -40c51 -25 95 -42 135 -42c42 0 60 35 59 80h37c5 -86 -45 -121 -100 -121c-31 0 -77 12 -136 40c-43 21 -88 42 -131 42c-35 0 -61 -29 -60 -80z" />
    <glyph glyph-name="exclamdown" unicode="&#xa1;" horiz-adv-x="206" 
d="M47 -194h-53l103 497h38zM147 489c21 0 36 -19 36 -42c0 -25 -18 -45 -41 -45c-25 0 -37 20 -37 42s16 45 42 45z" />
    <glyph glyph-name="cent" unicode="&#xa2;" horiz-adv-x="431" 
d="M223 -13h-38l19 102c-47 9 -79 33 -99 65c-19 30 -27 72 -27 109c0 141 95 286 221 303l19 100h39l-19 -98c29 0 68 -12 81 -25l-18 -34c-21 12 -49 22 -88 22c-97 0 -190 -128 -190 -268c0 -77 36 -138 117 -138c41 0 74 12 96 23l9 -33c-19 -13 -63 -25 -102 -26z" />
    <glyph glyph-name="sterling" unicode="&#xa3;" horiz-adv-x="431" 
d="M374 0h-353l7 30c60 32 118 105 133 187c6 33 7 64 9 98h-87l7 37h83c0 31 1 80 10 133c20 111 84 175 179 175c32 0 62 -11 76 -21l-16 -35c-16 9 -42 17 -69 17c-74 0 -115 -55 -128 -138c-8 -50 -9 -91 -10 -131h141l-7 -37h-135c-2 -27 -4 -56 -10 -91
c-12 -66 -45 -131 -109 -183l-1 -2h288z" />
    <glyph glyph-name="fraction" unicode="&#x2044;" horiz-adv-x="138" 
d="M-128 -10h-43l473 670h43z" />
    <glyph glyph-name="yen" unicode="&#xa5;" horiz-adv-x="431" 
d="M186 0h-42l35 191h-137l7 34h137l15 80h-137l7 34h122l-90 311h43l63 -224c8 -33 15 -58 22 -86h3c14 27 32 56 54 89l152 221h48l-220 -311h121l-7 -34h-138l-16 -80h139l-7 -34h-138z" />
    <glyph glyph-name="florin" unicode="&#x192;" horiz-adv-x="431" 
d="M120 362l6 37h93l12 42c34 132 73 219 180 219c27 -1 44 -6 57 -15l-15 -35c-15 7 -31 12 -54 12c-69 0 -101 -73 -129 -190l-7 -33h115l-6 -37h-117l-59 -230c-33 -131 -72 -212 -165 -212c-25 0 -53 9 -65 18l13 33c14 -9 36 -13 56 -13c60 0 91 63 121 183l55 221h-91
z" />
    <glyph glyph-name="section" unicode="&#xa7;" horiz-adv-x="442" 
d="M120 356c0 -43 19 -69 82 -103c36 -19 65 -38 89 -58c41 23 67 63 67 105c0 34 -15 69 -84 106c-26 14 -56 32 -81 52c-46 -25 -73 -64 -73 -102zM422 652l-19 -34c-20 15 -53 30 -99 30c-62 0 -113 -40 -113 -95c0 -52 37 -75 99 -107c66 -35 110 -72 110 -138
c0 -63 -37 -106 -85 -137c13 -20 21 -46 21 -73c0 -98 -79 -148 -171 -148c-54 0 -104 20 -126 38l18 36c22 -15 59 -38 115 -38c72 0 123 43 123 105c0 45 -23 78 -99 118c-68 36 -119 75 -119 136c0 53 33 99 93 136c-14 19 -22 39 -22 63c0 80 70 140 164 140
c47 0 93 -17 110 -32z" />
    <glyph glyph-name="currency" unicode="&#xa4;" horiz-adv-x="431" 
d="M236 524c41 0 84 -17 108 -43l65 69l30 -32l-70 -66c21 -31 33 -76 33 -120c0 -49 -13 -94 -32 -122l69 -68l-31 -32l-64 70c-28 -29 -72 -44 -109 -44c-39 0 -83 15 -107 41l-61 -67l-32 32l67 65c-20 30 -34 73 -34 120c0 48 14 93 37 125l-70 66l32 32l62 -69
c25 27 67 43 107 43zM234 487c-77 0 -123 -70 -123 -158c0 -109 66 -156 124 -156c64 -1 124 48 124 158c0 82 -41 156 -125 156z" />
    <glyph glyph-name="quotesingle" unicode="'" horiz-adv-x="134" 
d="M126 689h55l-53 -220h-32z" />
    <glyph glyph-name="quotedblleft" unicode="&#x201c;" horiz-adv-x="275" 
d="M132 477l-59 -10c31 75 92 189 113 217l34 5c-23 -42 -68 -150 -88 -212zM252 477l-59 -10c31 75 93 189 113 217l34 5c-23 -42 -68 -150 -88 -212z" />
    <glyph glyph-name="guillemotleft" unicode="&#xab;" horiz-adv-x="364" 
d="M230 429l-147 -178l97 -175h-44l-100 177l146 176h48zM371 429l-147 -178l97 -175h-44l-100 177l147 176h47z" />
    <glyph glyph-name="guilsinglleft" unicode="&#x2039;" horiz-adv-x="223" 
d="M230 429l-147 -178l97 -175h-44l-100 177l147 176h47z" />
    <glyph glyph-name="guilsinglright" unicode="&#x203a;" horiz-adv-x="223" 
d="M155 254l-97 175h44l100 -176l-146 -177h-48z" />
    <glyph glyph-name="fi" unicode="&#xfb01;" horiz-adv-x="429" 
d="M81 0h-42l84 443h-63l7 37h63l6 27c22 130 86 208 196 208c37 0 76 -12 89 -24l-18 -36c-17 11 -47 21 -84 21c-85 0 -126 -75 -142 -175l-4 -21h229l-91 -480h-44l84 443h-186z" />
    <glyph glyph-name="fl" unicode="&#xfb02;" horiz-adv-x="429" 
d="M82 0h-43l84 443h-63l7 37h64l4 24c14 71 35 130 87 171c32 25 77 40 121 40c39 0 79 -11 99 -25l-131 -690h-43l126 663c-13 8 -31 13 -64 13c-88 0 -132 -68 -150 -161l-7 -35h107l-8 -37h-106z" />
    <glyph glyph-name="endash" unicode="&#x2013;" horiz-adv-x="500" 
d="M37 274h441l-7 -37h-441z" />
    <glyph glyph-name="dagger" unicode="&#x2020;" horiz-adv-x="428" 
d="M275 674h46l-46 -213l155 5l-9 -44l-153 5l-86 -477h-46l97 477l-155 -5l9 44l152 -5z" />
    <glyph glyph-name="daggerdbl" unicode="&#x2021;" horiz-adv-x="428" 
d="M275 674h45l-44 -208l154 5l-9 -44l-151 5l-44 -234l153 5l-8 -44l-152 5l-37 -214h-46l45 214l-153 -5l9 44l151 -5l44 234l-153 -5l8 44l152 -5z" />
    <glyph glyph-name="periodcentered" unicode="&#xb7;" horiz-adv-x="178" 
d="M89 217c-21 0 -36 19 -36 42c0 25 18 45 41 45c25 0 37 -20 37 -42s-16 -45 -42 -45z" />
    <glyph glyph-name="paragraph" unicode="&#xb6;" horiz-adv-x="442" 
d="M197 -51h-39l61 320h-7c-48 2 -137 51 -137 171c0 126 99 234 282 234c38 0 66 -3 85 -7l-138 -718h-39l132 687h-69z" />
    <glyph glyph-name="bullet" unicode="&#x2022;" horiz-adv-x="240" 
d="M126 180c-48 0 -88 39 -88 89c-1 49 40 89 89 89c50 0 90 -40 90 -89s-40 -89 -91 -89z" />
    <glyph glyph-name="quotesinglbase" unicode="&#x201a;" horiz-adv-x="155" 
d="M-17 -121l-35 -5c23 42 69 150 88 212l59 10c-30 -75 -92 -189 -112 -217z" />
    <glyph glyph-name="quotedblbase" unicode="&#x201e;" horiz-adv-x="275" 
d="M-18 -121l-35 -5c23 42 69 150 88 212l59 10c-30 -75 -92 -189 -112 -217zM103 -121l-35 -5c23 42 69 150 87 212l60 10c-30 -75 -92 -189 -112 -217z" />
    <glyph glyph-name="quotedblright" unicode="&#x201d;" horiz-adv-x="275" 
d="M155 679l59 10c-31 -75 -92 -189 -113 -217l-34 -5c23 42 69 150 88 212zM276 679l58 10c-31 -75 -92 -189 -113 -217l-34 -5c23 42 69 150 89 212z" />
    <glyph glyph-name="guillemotright" unicode="&#xbb;" horiz-adv-x="364" 
d="M155 254l-97 175h43l101 -176l-146 -177h-48zM296 254l-97 175h44l100 -176l-146 -177h-48z" />
    <glyph glyph-name="ellipsis" unicode="&#x2026;" horiz-adv-x="1000" 
d="M123 -10c-21 0 -36 19 -36 42c0 25 18 45 41 45c25 0 37 -20 37 -42s-16 -45 -42 -45zM456 -10c-21 0 -36 19 -36 42c0 25 18 45 41 45c25 0 37 -20 37 -42s-16 -45 -42 -45zM789 -10c-21 0 -36 19 -36 42c0 25 18 45 41 45c25 0 37 -20 37 -42s-16 -45 -42 -45z" />
    <glyph glyph-name="perthousand" unicode="&#x2030;" horiz-adv-x="1003" 
d="M241 660c73 0 99 -67 99 -128c0 -129 -60 -268 -165 -268c-70 0 -102 61 -102 135c0 114 58 261 168 261zM232 626c-75 0 -118 -131 -118 -224c0 -54 14 -104 68 -104c74 0 117 133 117 226c0 43 -12 102 -67 102zM142 -13h-44l483 676h44zM555 390c73 0 99 -67 99 -128
c0 -128 -60 -267 -165 -267c-70 0 -102 61 -102 135c0 113 58 260 168 260zM546 356c-75 0 -118 -131 -118 -223c0 -54 14 -104 68 -104c74 0 117 133 117 225c0 43 -12 102 -67 102zM871 390c73 0 99 -67 99 -128c0 -128 -60 -267 -165 -267c-70 0 -102 61 -102 135
c0 113 58 260 168 260zM862 356c-75 0 -118 -131 -118 -223c0 -54 14 -104 68 -104c74 0 117 133 117 225c0 43 -12 102 -67 102z" />
    <glyph glyph-name="questiondown" unicode="&#xbf;" horiz-adv-x="334" 
d="M188 305h42c0 -8 -1 -15 -1 -22c-2 -57 -30 -125 -96 -198c-44 -48 -92 -101 -92 -173c0 -43 24 -81 83 -81c30 0 61 9 86 25l14 -36c-32 -17 -71 -29 -108 -29c-93 0 -122 68 -122 123c0 71 53 137 110 198c53 58 76 105 81 167zM237 489h2c21 0 36 -19 36 -42
c0 -25 -18 -45 -41 -45c-25 0 -37 20 -37 42s16 45 40 45z" />
    <glyph glyph-name="grave" unicode="`" 
d="M142 674h63l68 -136h-33z" />
    <glyph glyph-name="acute" unicode="&#xb4;" 
d="M298 674h68l-126 -136h-38z" />
    <glyph glyph-name="circumflex" unicode="&#x2c6;" 
d="M241 674h33l62 -136h-41l-42 97h-2l-73 -97h-44z" />
    <glyph glyph-name="tilde" unicode="&#x2dc;" 
d="M171 572h-33c3 43 24 81 62 81c23 0 35 -10 55 -22c15 -8 27 -16 41 -16c17 0 25 9 28 40h33c-4 -44 -19 -78 -62 -78c-20 0 -38 10 -54 20c-13 8 -26 18 -42 18c-19 0 -24 -17 -28 -43z" />
    <glyph glyph-name="macron" unicode="&#xaf;" 
d="M155 631h197l-7 -38h-197z" />
    <glyph glyph-name="breve" unicode="&#x2d8;" 
d="M153 672h34c-4 -40 19 -72 59 -72c49 0 77 35 86 72h36c-11 -67 -62 -111 -122 -111c-81 0 -102 57 -93 111z" />
    <glyph glyph-name="dotaccent" unicode="&#x2d9;" 
d="M246 575c-20 0 -33 16 -33 37c0 20 17 39 37 39c23 0 34 -18 34 -36c0 -20 -14 -40 -38 -40z" />
    <glyph glyph-name="dieresis" unicode="&#xa8;" 
d="M166 575c-20 0 -33 17 -33 37s17 39 37 39c22 0 34 -18 34 -36c0 -20 -14 -40 -38 -40zM325 575c-21 0 -33 17 -33 37s16 39 37 39c23 0 34 -18 34 -36c0 -20 -14 -40 -38 -40z" />
    <glyph glyph-name="ring" unicode="&#x2da;" horiz-adv-x="356" 
d="M255 707c50 0 86 -35 86 -87c0 -55 -48 -89 -92 -89c-50 0 -87 36 -87 83c0 54 42 93 93 93zM252 677c-29 0 -52 -25 -52 -61c0 -31 20 -55 50 -55c29 0 53 25 53 62c0 30 -19 54 -51 54z" />
    <glyph glyph-name="cedilla" unicode="&#xb8;" 
d="M127 2h37l-42 -57c30 -8 51 -31 51 -65c0 -45 -40 -78 -94 -78c-25 0 -48 8 -60 16l15 34c15 -10 32 -14 51 -14c26 0 47 15 47 40c0 24 -28 38 -63 42z" />
    <glyph glyph-name="hungarumlaut" unicode="&#x2dd;" 
d="M242 674h63l-122 -136h-35zM365 674h63l-122 -136h-35z" />
    <glyph glyph-name="ogonek" unicode="&#x2db;" 
d="M134 2h45c-40 -30 -86 -83 -86 -126c0 -24 14 -37 36 -37c16 0 29 3 43 10l8 -28c-20 -14 -42 -19 -66 -19c-39 0 -65 26 -65 64c0 60 56 111 85 136z" />
    <glyph glyph-name="caron" unicode="&#x2c7;" 
d="M254 538h-33l-63 136h41l42 -97h3l75 97h43z" />
    <glyph glyph-name="emdash" unicode="&#x2014;" horiz-adv-x="1000" 
d="M37 274h941l-7 -37h-941z" />
    <glyph glyph-name="AE" unicode="&#xc6;" horiz-adv-x="666" 
d="M-1 0h-46l427 674h299l-8 -38h-230l-32 -263h217l-7 -38h-215l-36 -297h238l-8 -38h-276l30 263h-185zM191 301h167l28 218c4 37 10 85 16 121h-4c-20 -34 -44 -76 -70 -118z" />
    <glyph glyph-name="ordfeminine" unicode="&#xaa;" horiz-adv-x="309" 
d="M283 265h-36c0 17 2 40 5 68l-1 -1c-29 -49 -69 -72 -110 -72c-51 0 -83 43 -83 109c0 106 70 221 196 221c21 0 57 -6 75 -14l-39 -214c-6 -37 -7 -69 -7 -97zM266 429l22 120c-11 5 -26 7 -47 7c-75 0 -142 -78 -143 -182c-1 -43 13 -80 55 -80c47 0 101 64 113 135z
" />
    <glyph glyph-name="Lslash" unicode="&#x141;" horiz-adv-x="387" 
d="M334 0h-298l54 284l-97 -70l9 44l97 71l66 345h43l-59 -308l142 104l-9 -46l-141 -103l-54 -283h255z" />
    <glyph glyph-name="Oslash" unicode="&#xd8;" horiz-adv-x="577" 
d="M33 -28l-25 23l74 91c-27 48 -38 95 -38 160c0 120 45 263 118 344c55 61 128 94 199 94c68 0 116 -22 149 -64l69 82l27 -22l-75 -92c28 -48 37 -104 37 -157c0 -113 -44 -266 -116 -349c-53 -59 -124 -92 -197 -92c-66 0 -117 24 -153 66zM115 127l368 456
c-26 38 -64 62 -131 62c-113 0 -205 -112 -242 -248c-24 -89 -27 -180 3 -270h2zM498 544l-367 -453c28 -38 67 -62 134 -62c103 0 194 103 234 236c24 84 35 185 1 279h-2z" />
    <glyph glyph-name="OE" unicode="&#x152;" horiz-adv-x="760" 
d="M691 38l-7 -38h-275c-20 0 -40 -2 -63 -4c-16 -1 -34 -2 -57 -2c-174 0 -244 126 -244 272c0 184 112 414 372 414c21 0 40 0 62 -2c26 -3 41 -4 63 -4h255l-8 -38h-249l-50 -263h235l-8 -38h-234l-56 -297h264zM384 41l112 592c-20 5 -39 8 -86 8
c-214 0 -320 -198 -320 -370c0 -129 49 -238 215 -238c30 0 53 3 79 8z" />
    <glyph glyph-name="ordmasculine" unicode="&#xba;" horiz-adv-x="314" 
d="M216 590c83 0 117 -63 117 -128c0 -98 -62 -202 -162 -202c-80 0 -116 64 -116 127c0 105 69 203 161 203zM209 556c-62 0 -112 -75 -113 -166c0 -61 31 -96 78 -96c64 0 117 73 117 168c0 45 -16 94 -82 94z" />
    <glyph glyph-name="ae" unicode="&#xe6;" horiz-adv-x="632" 
d="M544 62l14 -32c-27 -21 -71 -40 -133 -40c-74 0 -125 41 -141 111h-2c-33 -69 -93 -111 -163 -111c-77 0 -112 57 -113 114c0 123 112 194 288 187l5 26c11 62 -7 134 -91 134c-39 0 -70 -10 -105 -31l-12 32c45 30 93 38 124 38c70 0 118 -37 123 -109h2
c40 74 106 109 172 109c76 0 110 -51 110 -99c0 -127 -140 -142 -295 -138c-11 -51 -15 -103 -1 -147c16 -53 58 -77 107 -77c56 0 88 18 111 33zM275 188l12 65c-101 5 -236 -24 -236 -146c0 -47 29 -78 75 -78c60 0 128 47 149 159zM577 389c0 30 -23 63 -72 63
c-88 0 -148 -89 -168 -161c134 -2 240 9 240 98z" />
    <glyph glyph-name="dotlessi" unicode="&#x131;" horiz-adv-x="191" 
d="M72 0h-43l92 480h43z" />
    <glyph glyph-name="lslash" unicode="&#x142;" horiz-adv-x="202" 
d="M79 0h-43l60 315l-78 -60l8 43l78 61l66 346h43l-58 -306l80 64l-9 -44l-79 -63z" />
    <glyph glyph-name="oslash" unicode="&#xf8;" horiz-adv-x="454" 
d="M39 -27l-24 22l50 63c-24 35 -32 78 -32 123c0 137 91 309 235 309c47 0 80 -15 102 -37l44 53l27 -20l-49 -61c25 -38 32 -82 32 -117c0 -142 -94 -318 -231 -318c-49 0 -82 15 -108 41zM98 99l245 319c-16 21 -43 34 -80 34c-115 0 -185 -154 -185 -267
c0 -37 5 -61 18 -87zM362 384l-249 -318c18 -24 46 -38 84 -38c101 0 182 156 182 275c0 30 -6 56 -16 81h-1z" />
    <glyph glyph-name="oe" unicode="&#x153;" horiz-adv-x="712" 
d="M624 62l14 -35c-25 -17 -73 -37 -130 -37c-79 0 -129 46 -142 127h-2c-38 -80 -105 -127 -180 -127c-99 0 -151 85 -151 185c0 139 85 315 237 315c82 0 129 -59 137 -131h1c42 84 116 131 186 131c83 0 107 -56 107 -100c0 -128 -144 -149 -295 -154
c-7 -37 -7 -90 4 -126c14 -49 49 -81 106 -81c49 0 87 19 108 33zM192 28c116 0 181 177 181 281c0 72 -25 143 -109 143c-113 0 -186 -150 -186 -270c0 -87 39 -154 114 -154zM657 387c0 39 -29 65 -72 65c-79 0 -143 -82 -172 -179c117 4 244 16 244 114z" />
    <glyph glyph-name="germandbls" unicode="&#xdf;" horiz-adv-x="474" 
d="M72 0h-43l89 467c25 130 79 248 212 248c88 0 129 -61 129 -126c0 -44 -20 -90 -43 -113c-49 -16 -92 -50 -92 -101c0 -36 15 -59 38 -89c30 -42 50 -82 50 -131c0 -94 -78 -165 -178 -165c-36 0 -67 8 -89 22l15 36c22 -13 54 -20 78 -20c73 0 129 51 129 124
c0 34 -12 69 -41 105c-33 43 -47 76 -47 108c0 67 47 113 109 139c14 13 26 43 26 85c-1 44 -24 87 -91 87c-78 0 -134 -65 -160 -198z" />
    <glyph glyph-name="onesuperior" unicode="&#xb9;" horiz-adv-x="194" 
d="M166 405h-39l67 350h-2l-72 -36l-4 33l90 43h34z" />
    <glyph glyph-name="logicalnot" unicode="&#xac;" horiz-adv-x="596" 
d="M55 384h500v-255h-41v217h-459v38z" />
    <glyph glyph-name="mu" unicode="&#xb5;" horiz-adv-x="461" 
d="M156 480l-58 -303c-15 -81 3 -147 85 -147c61 0 113 73 138 124c10 20 18 42 22 64l48 262h43l-66 -355c-13 -71 -7 -95 22 -97l-12 -38h-13c-28 0 -53 19 -43 100h-2c-28 -52 -83 -99 -146 -99c-44 0 -84 21 -100 66l-15 -82c-10 -53 -23 -132 -19 -171h-39
c-5 27 0 88 14 160l98 516h43z" />
    <glyph glyph-name="trademark" unicode="&#x2122;" horiz-adv-x="612" 
d="M102 674h206v-31h-86v-240h-34v240h-86v31zM622 403h-37l-12 184c-1 16 -2 36 -3 58h-1c-7 -16 -14 -44 -21 -65l-58 -174h-40l-58 179c-5 17 -14 43 -20 60h-1c0 -18 -1 -37 -2 -58l-12 -184h-35l21 271h52l58 -172c7 -20 12 -39 18 -57h1c6 19 12 41 17 55l58 174h52z
" />
    <glyph glyph-name="Eth" unicode="&#xd0;" horiz-adv-x="567" 
d="M16 336l8 38h83l55 292c47 8 94 12 140 12c96 0 172 -33 212 -89c25 -35 45 -90 45 -163c0 -123 -50 -264 -137 -340c-68 -60 -158 -89 -255 -89c-42 0 -89 2 -130 7l63 332h-84zM320 374l-8 -38h-169l-56 -296c30 -4 61 -5 87 -5c92 0 170 31 230 90
c68 66 109 188 109 299c0 125 -53 216 -223 216c-30 0 -61 -1 -90 -5l-49 -261h169z" />
    <glyph glyph-name="onehalf" unicode="&#xbd;" horiz-adv-x="673" 
d="M160 265h-39l67 350h-2l-73 -36l-4 33l91 43h34zM103 -10h-43l473 670h43zM587 0h-230l5 28l62 51c90 78 164 145 164 217c0 34 -17 64 -65 64c-31 0 -62 -18 -77 -30l-14 28c24 19 62 37 101 37c66 0 97 -45 97 -97c0 -82 -83 -155 -167 -225l-42 -36v-2h173z" />
    <glyph glyph-name="plusminus" unicode="&#xb1;" horiz-adv-x="596" 
d="M291 567h40v-208h230v-38h-230v-216h-40v216h-230v38h230v208zM61 38h500v-38h-500v38z" />
    <glyph glyph-name="Thorn" unicode="&#xde;" horiz-adv-x="438" 
d="M30 0l128 674h44l-27 -140c23 5 47 8 75 8c64 0 109 -17 139 -51c23 -26 35 -63 35 -104c0 -133 -113 -219 -248 -219c-23 0 -48 1 -70 5l-33 -173h-43zM167 496l-53 -284c23 -5 46 -6 66 -6c110 0 199 74 199 177c0 83 -54 121 -139 121c-29 0 -58 -4 -73 -8z" />
    <glyph glyph-name="onequarter" unicode="&#xbc;" horiz-adv-x="673" 
d="M541 0h-39l21 113h-177l4 23l230 259h36l-47 -249h57l-6 -33h-57zM529 145l27 138c5 26 10 47 15 62h-2c-17 -23 -28 -40 -44 -60l-122 -138l-1 -2h127zM164 265h-40l67 350h-2l-72 -36l-4 33l91 43h34zM121 -10h-43l472 670h44z" />
    <glyph glyph-name="divide" unicode="&#xf7;" horiz-adv-x="596" 
d="M306 401c-22 0 -38 19 -38 42c0 24 16 42 40 42s39 -18 39 -42c0 -23 -15 -42 -41 -42zM557 248h-500v38h500v-38zM306 49c-22 0 -38 19 -38 42c0 24 16 42 40 42s39 -18 39 -42c0 -23 -15 -42 -41 -42z" />
    <glyph glyph-name="brokenbar" unicode="&#xa6;" horiz-adv-x="191" 
d="M93 174h40v-350h-40v350zM93 674h40v-350h-40v350z" />
    <glyph glyph-name="degree" unicode="&#xb0;" horiz-adv-x="289" 
d="M217 686c71 0 116 -57 116 -120c0 -76 -61 -128 -121 -128c-69 0 -116 55 -116 122c0 70 55 126 121 126zM215 653c-51 0 -81 -50 -81 -93c0 -50 34 -89 78 -89c47 0 83 41 83 94c0 38 -24 88 -80 88z" />
    <glyph glyph-name="thorn" unicode="&#xfe;" horiz-adv-x="458" 
d="M-14 -196l162 860h44l-56 -281h2c45 68 102 107 166 107c90 0 125 -76 125 -158c0 -163 -115 -342 -264 -342c-32 0 -72 7 -95 21h-3l-38 -207h-43zM108 223l-32 -169c21 -17 58 -26 93 -26c127 0 215 180 215 301c0 59 -22 122 -91 122c-68 0 -157 -83 -185 -228z" />
    <glyph glyph-name="threequarters" unicode="&#xbe;" horiz-adv-x="673" 
d="M154 -10h-43l472 670h43zM128 599l-10 29c19 16 57 32 91 32c63 0 91 -38 91 -83s-36 -80 -83 -98l-1 -2c41 -13 65 -49 65 -93c-3 -70 -56 -124 -145 -124c-39 0 -74 13 -90 25l15 31c14 -9 42 -23 79 -23c65 0 100 42 100 92c0 54 -45 75 -93 75h-16l5 31h18
c49 1 105 34 105 83c0 31 -17 52 -59 52c-27 0 -55 -13 -72 -27zM549 0h-39l22 113h-178l5 23l229 259h36l-47 -249h57l-6 -33h-57zM538 145l26 138c5 26 11 47 15 62h-2c-17 -23 -28 -40 -44 -60l-122 -138l-1 -2h128z" />
    <glyph glyph-name="twosuperior" unicode="&#xb2;" horiz-adv-x="261" 
d="M276 405h-230l5 28l62 51c90 77 164 145 164 217c0 34 -17 64 -65 64c-31 0 -62 -18 -77 -30l-14 28c24 19 62 37 101 37c66 0 97 -45 97 -97c0 -82 -83 -155 -167 -225l-42 -36v-2h173z" />
    <glyph glyph-name="registered" unicode="&#xae;" horiz-adv-x="378" 
d="M215 507v-70h-30v166c17 3 34 5 57 5c28 0 41 -5 52 -13c10 -7 17 -20 17 -35c0 -21 -15 -33 -33 -39v-2c15 -6 23 -19 28 -40c5 -25 8 -36 12 -42h-31c-5 6 -9 21 -13 44c-4 18 -16 26 -39 26h-20zM215 582v-51h21c22 0 43 6 43 26c0 16 -10 27 -40 27
c-12 0 -19 -1 -24 -2zM245 682c89 0 159 -69 159 -157c0 -90 -70 -160 -160 -160c-89 0 -160 70 -160 160c0 88 71 157 161 157zM243 654c-71 0 -125 -58 -125 -129c0 -73 54 -131 127 -131c71 -1 124 58 124 130s-53 130 -126 130z" />
    <glyph glyph-name="minus" unicode="&#x2212;" horiz-adv-x="596" 
d="M57 286h500v-38h-500v38z" />
    <glyph glyph-name="eth" unicode="&#xf0;" horiz-adv-x="446" 
d="M189 28c111 0 184 166 184 295c0 25 -2 52 -15 73c-14 29 -42 56 -93 56c-115 0 -187 -156 -187 -276c0 -73 32 -148 111 -148zM158 520l-14 30l122 60c-22 29 -52 54 -83 75l25 30c38 -27 65 -54 94 -85l115 57l16 -30l-107 -54c58 -78 91 -155 91 -263
c0 -181 -103 -350 -232 -350c-115 0 -152 100 -152 180c0 154 96 320 235 320c29 0 72 -9 97 -48h4c-17 54 -43 99 -82 143z" />
    <glyph glyph-name="multiply" unicode="&#xd7;" horiz-adv-x="596" 
d="M74 496l28 30l219 -236l219 236l29 -28l-221 -235l221 -233l-29 -30l-221 237l-219 -237l-26 31l218 232z" />
    <glyph glyph-name="threesuperior" unicode="&#xb3;" horiz-adv-x="250" 
d="M133 739l-10 29c19 16 57 32 91 32c63 0 91 -38 91 -83s-36 -80 -83 -98l-1 -2c41 -13 66 -49 65 -93c-1 -70 -56 -124 -145 -124c-39 0 -74 13 -90 25l15 31c15 -9 42 -23 79 -23c65 0 100 42 100 92c0 54 -45 75 -93 75h-16l5 31h18c49 0 105 34 105 83
c0 31 -17 52 -59 52c-27 0 -55 -13 -72 -27z" />
    <glyph glyph-name="copyright" unicode="&#xa9;" horiz-adv-x="677" 
d="M368 648c167 0 296 -138 296 -308c0 -172 -129 -310 -297 -310c-169 0 -300 138 -300 310c0 170 131 308 301 308zM366 616c-147 0 -259 -120 -259 -280c0 -155 112 -274 260 -274c145 -2 257 119 257 278c0 156 -112 276 -258 276zM501 493l-10 -31c-14 9 -49 25 -99 25
c-103 0 -149 -68 -149 -150s49 -151 151 -151c41 0 79 11 103 28l10 -29c-35 -25 -82 -32 -123 -32c-115 0 -182 79 -182 181c0 113 89 186 189 186c54 0 96 -15 110 -27z" />
    <glyph glyph-name="Aacute" unicode="&#xc1;" horiz-adv-x="500" 
d="M369 236h-230l-116 -236h-44l337 674h42l81 -674h-43zM159 274h205l-26 214c-4 40 -8 87 -11 129h-3c-18 -43 -35 -83 -56 -127zM408 820h73l-135 -110h-43z" />
    <glyph glyph-name="Acircumflex" unicode="&#xc2;" horiz-adv-x="500" 
d="M369 236h-229l-116 -236h-45l337 674h43l80 -674h-42zM160 274h204l-26 214c-4 40 -8 87 -10 129h-3c-19 -43 -35 -83 -57 -127zM334 820h38l75 -110h-46l-51 77h-2l-76 -77h-50z" />
    <glyph glyph-name="Adieresis" unicode="&#xc4;" horiz-adv-x="500" 
d="M369 236h-230l-116 -236h-44l337 674h42l81 -674h-42zM159 274h205l-26 214c-4 40 -8 87 -11 129h-3c-18 -43 -35 -83 -56 -127zM263 727c-20 0 -34 17 -34 37s17 40 39 40c23 0 35 -20 35 -37c0 -19 -16 -40 -40 -40zM425 727c-20 0 -34 17 -34 37s17 40 39 40
c23 0 35 -20 35 -37c0 -19 -16 -40 -40 -40z" />
    <glyph glyph-name="Agrave" unicode="&#xc0;" horiz-adv-x="500" 
d="M369 236h-230l-116 -236h-44l337 674h42l81 -674h-43zM159 274h205l-26 214c-4 40 -8 87 -11 129h-3c-18 -43 -35 -83 -56 -127zM217 820h68l82 -110h-38z" />
    <glyph glyph-name="Aring" unicode="&#xc5;" horiz-adv-x="500" 
d="M369 236h-230l-116 -236h-44l337 674h42l81 -674h-42zM159 274h205l-26 214c-4 40 -8 87 -11 129h-3c-18 -43 -35 -83 -56 -127zM349 863c52 0 85 -34 85 -83c0 -53 -45 -86 -91 -86c-50 0 -86 34 -86 80c0 50 40 89 92 89zM346 835c-28 0 -50 -25 -50 -59
c0 -30 19 -53 48 -53c28 0 51 24 51 58c0 30 -18 54 -49 54z" />
    <glyph glyph-name="Atilde" unicode="&#xc3;" horiz-adv-x="500" 
d="M369 236h-230l-116 -236h-44l337 674h42l81 -674h-42zM159 274h205l-26 214c-4 40 -8 87 -11 129h-3c-18 -43 -35 -83 -56 -127zM259 716l-32 1c7 44 32 83 69 83c24 0 37 -8 54 -20c15 -9 28 -17 44 -17s28 12 34 38h31c-8 -45 -29 -79 -71 -79c-21 0 -34 7 -53 19
c-16 10 -26 19 -42 18c-17 0 -28 -17 -34 -43z" />
    <glyph glyph-name="Ccedilla" unicode="&#xc7;" horiz-adv-x="485" 
d="M411 56l10 -36c-31 -15 -81 -27 -129 -29l-33 -45c31 -9 50 -33 50 -64c0 -48 -42 -79 -92 -79c-26 0 -49 8 -61 17l14 33c15 -9 31 -14 49 -14c25 0 49 13 48 38c0 26 -27 40 -62 44l52 71c-141 8 -213 112 -213 264c0 109 38 245 128 332c67 64 146 95 232 95
c61 0 105 -16 119 -28l-17 -36c-25 15 -66 25 -113 25c-71 0 -141 -31 -193 -83c-70 -70 -111 -189 -111 -295c0 -128 45 -237 193 -237c45 0 96 10 129 27z" />
    <glyph glyph-name="Eacute" unicode="&#xc9;" horiz-adv-x="405" 
d="M372 374l-8 -38h-226l-56 -298h256l-7 -38h-300l128 674h285l-8 -38h-241l-50 -262h227zM379 820h73l-135 -110h-43z" />
    <glyph glyph-name="Ecircumflex" unicode="&#xca;" horiz-adv-x="405" 
d="M372 374l-8 -38h-226l-56 -298h256l-7 -38h-300l128 674h285l-8 -38h-241l-50 -262h227zM305 820h38l75 -110h-46l-51 77h-2l-76 -77h-49z" />
    <glyph glyph-name="Edieresis" unicode="&#xcb;" horiz-adv-x="405" 
d="M371 374l-7 -38h-227l-56 -298h256l-7 -38h-300l128 674h285l-7 -38h-241l-50 -262h226zM230 727c-20 0 -34 17 -34 37s17 40 39 40c23 0 35 -20 35 -37c0 -19 -16 -40 -40 -40zM392 727c-20 0 -34 17 -34 37s17 40 39 40c23 0 35 -20 35 -37c0 -19 -16 -40 -40 -40z" />
    <glyph glyph-name="Egrave" unicode="&#xc8;" horiz-adv-x="405" 
d="M372 374l-8 -38h-226l-56 -298h256l-7 -38h-300l128 674h285l-8 -38h-241l-50 -262h227zM197 820h68l82 -110h-38z" />
    <glyph glyph-name="Iacute" unicode="&#xcd;" horiz-adv-x="194" 
d="M158 674h44l-129 -674h-43zM250 820h73l-136 -110h-43z" />
    <glyph glyph-name="Icircumflex" unicode="&#xce;" horiz-adv-x="194" 
d="M158 674h44l-129 -674h-43zM179 820h37l75 -110h-46l-51 77h-2l-76 -77h-49z" />
    <glyph glyph-name="Idieresis" unicode="&#xcf;" horiz-adv-x="194" 
d="M158 674h44l-129 -674h-43zM114 727c-20 0 -34 17 -34 37s17 40 39 40c23 0 35 -20 35 -37c0 -19 -16 -40 -40 -40zM277 727c-20 0 -34 17 -34 37s17 40 39 40c23 0 35 -20 35 -37c0 -19 -16 -40 -40 -40z" />
    <glyph glyph-name="Igrave" unicode="&#xcc;" horiz-adv-x="194" 
d="M158 674h44l-129 -674h-43zM74 820h68l82 -110h-38z" />
    <glyph glyph-name="Ntilde" unicode="&#xd1;" horiz-adv-x="555" 
d="M72 0h-42l128 674h42l161 -448c25 -66 38 -115 50 -168l2 1c6 60 12 109 27 190l81 425h42l-128 -674h-40l-158 439c-27 70 -40 119 -52 179l-3 -1c-8 -64 -16 -120 -31 -196zM291 716h-32c7 45 32 84 70 84c23 0 36 -8 53 -20c15 -9 28 -17 44 -17s28 12 34 38h31
c-8 -45 -29 -79 -71 -79c-21 0 -34 7 -53 19c-16 10 -26 19 -42 18c-17 0 -28 -17 -34 -43z" />
    <glyph glyph-name="Oacute" unicode="&#xd3;" horiz-adv-x="577" 
d="M255 -10c-158 0 -210 136 -210 252c0 118 47 280 133 365c50 48 118 77 183 77c163 0 208 -137 208 -257c0 -114 -44 -273 -127 -356c-51 -52 -115 -81 -187 -81zM261 29c55 0 107 24 148 65c75 76 115 232 115 328c0 102 -24 223 -170 223c-57 0 -107 -25 -147 -65
c-75 -75 -117 -228 -117 -329c0 -104 37 -222 171 -222zM445 820h73l-135 -110h-43z" />
    <glyph glyph-name="Ocircumflex" unicode="&#xd4;" horiz-adv-x="577" 
d="M255 -10c-158 0 -210 136 -210 252c0 118 47 280 133 365c50 48 118 77 183 77c163 0 208 -137 208 -257c0 -114 -44 -273 -127 -356c-51 -52 -115 -81 -187 -81zM261 29c55 0 107 24 148 65c75 76 115 232 115 328c0 102 -24 223 -170 223c-57 0 -107 -25 -147 -65
c-75 -75 -117 -228 -117 -329c0 -104 37 -222 171 -222zM370 820h38l74 -110h-45l-51 77h-2l-77 -77h-49z" />
    <glyph glyph-name="Odieresis" unicode="&#xd6;" horiz-adv-x="577" 
d="M255 -10c-158 0 -210 136 -210 252c0 118 47 280 134 365c49 48 118 77 182 77c163 0 208 -137 208 -257c0 -114 -44 -273 -127 -356c-51 -52 -115 -81 -187 -81zM261 29c55 0 107 24 148 65c75 76 115 232 115 328c0 102 -24 223 -170 223c-56 0 -107 -25 -146 -65
c-76 -75 -118 -228 -118 -329c0 -104 37 -222 171 -222zM301 727c-20 0 -34 17 -34 37s17 40 39 40c23 0 35 -20 35 -37c0 -19 -16 -40 -40 -40zM465 727h-2c-20 0 -34 17 -34 37s17 40 39 40c23 0 35 -20 35 -37c0 -19 -16 -40 -38 -40z" />
    <glyph glyph-name="Ograve" unicode="&#xd2;" horiz-adv-x="577" 
d="M255 -10c-158 0 -210 136 -210 252c0 118 47 280 133 365c50 48 118 77 183 77c163 0 208 -137 208 -257c0 -114 -44 -273 -127 -356c-51 -52 -115 -81 -187 -81zM261 29c55 0 107 24 148 65c75 76 115 232 115 328c0 102 -24 223 -170 223c-57 0 -107 -25 -147 -65
c-75 -75 -117 -228 -117 -329c0 -104 37 -222 171 -222zM260 820h68l82 -110h-38z" />
    <glyph glyph-name="Otilde" unicode="&#xd5;" horiz-adv-x="577" 
d="M254 -10c-157 0 -209 136 -209 252c0 118 47 280 133 365c49 48 118 77 183 77c163 0 208 -137 208 -257c0 -114 -44 -273 -127 -356c-52 -52 -115 -81 -188 -81zM260 29c55 0 107 24 148 65c75 76 116 232 116 328c0 102 -24 223 -171 223c-56 0 -106 -25 -146 -65
c-75 -75 -117 -228 -117 -329c0 -104 37 -222 170 -222zM301 716h-32c7 45 32 84 70 84c23 0 37 -8 53 -20c15 -9 28 -17 44 -17s28 12 34 38h31c-8 -45 -29 -79 -71 -79c-21 0 -34 7 -53 19c-16 10 -26 19 -42 18c-17 0 -28 -17 -34 -43z" />
    <glyph glyph-name="Scaron" unicode="&#x160;" horiz-adv-x="403" 
d="M12 31l18 37c30 -22 72 -38 120 -38c90 0 160 63 160 156c0 58 -27 103 -94 147c-81 50 -117 104 -117 169c0 105 86 181 194 181c50 0 94 -17 112 -32l-18 -35c-20 12 -54 28 -101 28c-87 0 -143 -65 -143 -133c0 -63 31 -101 99 -143c71 -44 112 -98 112 -179
c0 -100 -69 -198 -213 -198c-48 0 -107 19 -129 40zM304 710h-38l-75 110h47l49 -77h3l76 77h49z" />
    <glyph glyph-name="Uacute" unicode="&#xda;" horiz-adv-x="546" 
d="M158 674h44l-81 -423c-6 -30 -8 -59 -8 -85c0 -95 54 -137 126 -137c94 0 160 66 190 220l81 425h44l-83 -430c-36 -190 -128 -254 -239 -254c-85 0 -163 50 -163 172c0 27 3 59 9 89zM408 820h73l-135 -110h-43z" />
    <glyph glyph-name="Ucircumflex" unicode="&#xdb;" horiz-adv-x="546" 
d="M158 674h44l-81 -423c-6 -30 -8 -59 -8 -85c0 -95 54 -137 126 -137c94 0 160 66 190 220l81 425h44l-83 -430c-36 -190 -128 -254 -239 -254c-85 0 -163 50 -163 172c0 27 3 59 9 89zM363 820h38l75 -110h-46l-51 77h-2l-76 -77h-50z" />
    <glyph glyph-name="Udieresis" unicode="&#xdc;" horiz-adv-x="546" 
d="M158 674h44l-81 -423c-6 -30 -8 -59 -8 -85c0 -95 54 -137 126 -137c94 0 161 66 190 220l81 425h44l-82 -430c-36 -190 -129 -254 -240 -254c-85 0 -163 50 -163 172c0 27 3 59 9 89zM284 727c-20 0 -35 17 -35 37s17 40 39 40c24 0 35 -20 35 -37
c0 -19 -15 -40 -39 -40zM446 727c-20 0 -34 17 -34 37s17 40 39 40c23 0 35 -20 35 -37c0 -19 -16 -40 -40 -40z" />
    <glyph glyph-name="Ugrave" unicode="&#xd9;" horiz-adv-x="546" 
d="M158 674h44l-81 -423c-6 -30 -8 -59 -8 -85c0 -95 54 -137 126 -137c94 0 160 66 190 220l81 425h44l-83 -430c-36 -190 -128 -254 -239 -254c-85 0 -163 50 -163 172c0 27 3 59 9 89zM248 820h68l82 -110h-38z" />
    <glyph glyph-name="Yacute" unicode="&#xdd;" horiz-adv-x="456" 
d="M196 0h-43l55 289l-113 385h46l68 -239c17 -56 23 -85 27 -108h2c16 27 39 64 70 112l159 235h50l-266 -385zM378 820h73l-135 -110h-43z" />
    <glyph glyph-name="Ydieresis" unicode="&#x178;" horiz-adv-x="456" 
d="M197 0h-44l55 289l-113 385h46l69 -239c16 -56 22 -85 26 -108h2c16 27 39 64 71 112l158 235h50l-266 -385zM236 727c-20 0 -34 17 -34 37s17 40 39 40c23 0 35 -20 35 -37c0 -19 -16 -40 -40 -40zM398 727c-20 0 -34 17 -34 37s17 40 39 40c23 0 35 -20 35 -37
c0 -19 -16 -40 -40 -40z" />
    <glyph glyph-name="Zcaron" unicode="&#x17d;" horiz-adv-x="453" 
d="M-19 0l6 30l453 603v3h-310l7 38h368l-6 -30l-454 -603l1 -3h342l-8 -38h-399zM345 710h-38l-74 110h47l49 -77h3l76 77h49z" />
    <glyph glyph-name="aacute" unicode="&#xe1;" horiz-adv-x="458" 
d="M359 0h-42c-1 29 5 74 12 129h-2c-55 -106 -116 -139 -179 -139c-73 0 -117 60 -117 146c0 163 117 354 303 354c34 0 72 -6 97 -14l-51 -259c-17 -89 -23 -166 -21 -217zM347 269l34 175c-11 4 -28 7 -58 7c-138 0 -246 -154 -247 -305c-1 -62 17 -118 82 -118
c78 0 166 117 189 241zM370 674h68l-126 -136h-38z" />
    <glyph glyph-name="acircumflex" unicode="&#xe2;" horiz-adv-x="458" 
d="M359 0h-42c-1 29 5 74 12 129h-2c-55 -106 -116 -139 -179 -139c-73 0 -117 60 -117 146c0 163 117 354 303 354c34 0 72 -6 97 -14l-51 -259c-17 -89 -23 -166 -21 -217zM347 269l34 175c-11 4 -28 7 -58 7c-138 0 -246 -154 -247 -305c-1 -62 17 -118 82 -118
c78 0 166 117 189 241zM307 674h33l62 -136h-41l-42 97h-2l-73 -97h-44z" />
    <glyph glyph-name="adieresis" unicode="&#xe4;" horiz-adv-x="458" 
d="M359 0h-42c-1 29 5 74 12 129h-2c-55 -106 -116 -139 -179 -139c-73 0 -117 60 -117 146c0 163 117 354 303 354c34 0 72 -6 97 -14l-51 -259c-17 -89 -23 -166 -21 -217zM347 269l34 175c-11 4 -28 7 -58 7c-138 0 -246 -154 -247 -305c-1 -62 17 -118 82 -118
c78 0 166 117 189 241zM228 575c-20 0 -33 17 -33 37s17 39 37 39c22 0 34 -18 34 -36c0 -20 -14 -40 -38 -40zM388 575c-21 0 -33 17 -33 37s16 39 37 39c23 0 34 -18 34 -36c0 -20 -14 -40 -38 -40z" />
    <glyph glyph-name="agrave" unicode="&#xe0;" horiz-adv-x="458" 
d="M359 0h-42c-1 29 5 74 12 129h-2c-55 -106 -116 -139 -179 -139c-73 0 -117 60 -117 146c0 163 117 354 303 354c34 0 72 -6 97 -14l-51 -259c-17 -89 -23 -166 -21 -217zM347 269l34 175c-11 4 -28 7 -58 7c-138 0 -246 -154 -247 -305c-1 -62 17 -118 82 -118
c78 0 166 117 189 241zM212 674h64l67 -136h-33z" />
    <glyph glyph-name="aring" unicode="&#xe5;" horiz-adv-x="458" 
d="M359 0h-42c-1 29 5 74 12 129h-2c-55 -106 -116 -139 -179 -139c-73 0 -117 60 -117 146c0 163 117 354 303 354c34 0 72 -6 97 -14l-51 -259c-17 -89 -23 -166 -21 -217zM347 269l34 175c-11 4 -29 7 -58 7c-138 0 -246 -154 -247 -305c-1 -62 17 -118 82 -118
c78 0 166 117 189 241zM312 707c50 0 86 -35 86 -87c0 -55 -48 -89 -92 -89c-50 0 -87 36 -87 83c0 54 42 93 93 93zM309 677c-29 0 -52 -25 -52 -61c0 -31 20 -55 50 -55c29 0 53 25 53 62c0 30 -19 54 -51 54z" />
    <glyph glyph-name="atilde" unicode="&#xe3;" horiz-adv-x="458" 
d="M359 0h-42c-1 29 5 74 12 129h-2c-55 -106 -116 -139 -179 -139c-73 0 -117 60 -117 146c0 163 117 354 303 354c34 0 72 -6 97 -14l-51 -259c-17 -89 -23 -166 -21 -217zM347 269l34 175c-11 4 -28 7 -58 7c-138 0 -246 -154 -247 -305c-1 -62 17 -118 82 -118
c78 0 166 117 189 241zM230 572h-33c3 43 24 81 62 81c23 0 36 -10 56 -22c15 -8 27 -16 41 -16c17 0 25 9 28 40h33c-4 -44 -19 -78 -62 -78c-20 0 -39 10 -54 20c-13 8 -27 18 -42 18c-20 0 -25 -17 -29 -43z" />
    <glyph glyph-name="ccedilla" unicode="&#xe7;" horiz-adv-x="374" 
d="M302 55l10 -35c-18 -9 -54 -25 -97 -28l-34 -46c30 -8 51 -32 51 -65c0 -45 -41 -78 -94 -78c-25 0 -48 8 -59 16l14 34c15 -10 32 -14 51 -14c25 0 48 15 47 40c0 24 -28 38 -63 42l50 70c-106 6 -144 91 -144 176c0 147 100 323 267 323c37 0 73 -13 82 -20l-15 -37
c-18 8 -42 17 -75 17c-134 0 -214 -154 -214 -279c0 -81 34 -142 120 -142c45 0 79 14 103 26z" />
    <glyph glyph-name="eacute" unicode="&#xe9;" horiz-adv-x="389" 
d="M302 62l13 -35c-25 -16 -71 -36 -131 -36c-112 0 -151 88 -151 180c0 138 96 319 234 319c79 0 112 -52 112 -105c0 -122 -140 -156 -297 -155c-5 -22 -6 -85 4 -119c17 -55 54 -81 105 -81c53 0 89 19 111 32zM334 383c0 45 -30 68 -75 68c-74 0 -141 -80 -170 -183
c125 -1 245 20 245 115zM328 674h69l-127 -136h-38z" />
    <glyph glyph-name="ecircumflex" unicode="&#xea;" horiz-adv-x="389" 
d="M302 62l13 -35c-25 -16 -71 -36 -131 -36c-112 0 -151 88 -151 180c0 138 96 319 234 319c79 0 112 -52 112 -105c0 -122 -140 -156 -297 -155c-5 -22 -6 -85 4 -119c17 -55 54 -81 105 -81c53 0 89 19 111 32zM334 383c0 45 -30 68 -75 68c-74 0 -141 -80 -170 -183
c125 -1 245 20 245 115zM278 674h33l62 -136h-41l-42 97h-2l-73 -97h-44z" />
    <glyph glyph-name="edieresis" unicode="&#xeb;" horiz-adv-x="389" 
d="M302 62l13 -35c-25 -16 -71 -36 -131 -36c-112 0 -151 88 -151 180c0 138 96 319 234 319c79 0 112 -52 112 -105c0 -122 -140 -156 -297 -155c-5 -22 -6 -85 4 -119c17 -55 54 -81 105 -81c53 0 89 19 111 32zM334 383c0 45 -30 68 -75 68c-74 0 -141 -80 -170 -183
c125 -1 245 20 245 115zM201 575c-20 0 -33 17 -33 37s17 39 37 39c22 0 34 -18 34 -36c0 -20 -14 -40 -38 -40zM361 575c-21 0 -33 17 -33 37s16 39 37 39c23 0 34 -18 34 -36c0 -20 -14 -40 -38 -40z" />
    <glyph glyph-name="egrave" unicode="&#xe8;" horiz-adv-x="389" 
d="M302 62l13 -35c-25 -16 -71 -36 -131 -36c-112 0 -151 88 -151 180c0 138 96 319 234 319c79 0 112 -52 112 -105c0 -122 -140 -156 -297 -155c-5 -22 -6 -85 4 -119c17 -55 54 -81 105 -81c53 0 89 19 111 32zM334 383c0 45 -30 68 -75 68c-74 0 -141 -80 -170 -183
c125 -1 245 20 245 115zM176 674h63l67 -136h-32z" />
    <glyph glyph-name="iacute" unicode="&#xed;" horiz-adv-x="191" 
d="M72 0h-43l92 480h43zM211 674h69l-126 -136h-38z" />
    <glyph glyph-name="icircumflex" unicode="&#xee;" horiz-adv-x="191" 
d="M72 0h-43l92 480h43zM153 674h33l62 -136h-41l-42 97h-2l-73 -97h-44z" />
    <glyph glyph-name="idieresis" unicode="&#xef;" horiz-adv-x="191" 
d="M73 0h-43l91 480h43zM80 575c-20 0 -33 17 -33 37s17 39 37 39c22 0 34 -18 34 -36c0 -20 -14 -40 -38 -40zM239 575c-21 0 -33 17 -33 37s16 39 37 39c23 0 34 -18 34 -36c0 -20 -14 -40 -38 -40z" />
    <glyph glyph-name="igrave" unicode="&#xec;" horiz-adv-x="191" 
d="M72 0h-43l92 480h43zM49 674h63l67 -136h-32z" />
    <glyph glyph-name="ntilde" unicode="&#xf1;" horiz-adv-x="470" 
d="M73 0h-44l64 339c12 57 18 104 22 141h40l-13 -98h2c42 70 102 108 167 108c47 0 107 -30 107 -121c0 -24 -4 -48 -9 -74l-55 -295h-43l56 295c4 22 7 45 7 70c0 50 -20 86 -79 86c-64 0 -154 -80 -175 -196zM220 572h-33c3 43 24 81 62 81c23 0 35 -10 56 -22
c15 -8 27 -16 41 -16c17 0 25 9 28 40h33c-4 -44 -19 -78 -62 -78c-21 0 -39 10 -55 20c-13 8 -26 18 -41 18c-20 0 -25 -17 -29 -43z" />
    <glyph glyph-name="oacute" unicode="&#xf3;" horiz-adv-x="452" 
d="M186 -10c-104 0 -153 87 -153 186c0 140 91 314 237 314c115 0 153 -98 153 -185c0 -123 -81 -315 -237 -315zM193 28c109 0 185 162 185 277c0 63 -24 147 -112 147c-112 0 -188 -149 -188 -272c0 -84 39 -152 115 -152zM343 674h69l-127 -136h-37z" />
    <glyph glyph-name="ocircumflex" unicode="&#xf4;" horiz-adv-x="452" 
d="M186 -10c-104 0 -153 87 -153 186c0 140 91 314 237 314c115 0 153 -98 153 -185c0 -123 -81 -315 -237 -315zM193 28c109 0 185 162 185 277c0 63 -24 147 -112 147c-112 0 -188 -149 -188 -272c0 -84 39 -152 115 -152zM292 674h33l62 -136h-41l-42 97h-2l-74 -97h-44z
" />
    <glyph glyph-name="odieresis" unicode="&#xf6;" horiz-adv-x="452" 
d="M186 -10c-104 0 -153 87 -153 186c0 140 91 314 237 314c115 0 153 -98 153 -185c0 -123 -81 -315 -237 -315zM193 28c109 0 185 162 185 277c0 63 -24 147 -112 147c-112 0 -188 -149 -188 -272c0 -84 39 -152 115 -152zM216 575c-20 0 -33 17 -33 37s17 39 37 39
c22 0 34 -18 34 -36c0 -20 -14 -40 -38 -40zM375 575c-21 0 -33 17 -33 37s16 39 37 39c23 0 34 -18 34 -36c0 -20 -14 -40 -38 -40z" />
    <glyph glyph-name="ograve" unicode="&#xf2;" horiz-adv-x="452" 
d="M186 -10c-104 0 -153 87 -153 186c0 140 91 314 237 314c115 0 153 -98 153 -185c0 -123 -81 -315 -237 -315zM193 28c109 0 185 162 185 277c0 63 -24 147 -112 147c-112 0 -188 -149 -188 -272c0 -84 39 -152 115 -152zM178 674h63l68 -136h-33z" />
    <glyph glyph-name="otilde" unicode="&#xf5;" horiz-adv-x="452" 
d="M186 -10c-104 0 -153 87 -153 186c0 140 91 314 237 314c115 0 153 -98 153 -185c0 -123 -81 -315 -237 -315zM193 28c109 0 185 162 185 277c0 63 -24 147 -112 147c-112 0 -188 -149 -188 -272c0 -84 39 -152 115 -152zM205 572h-33c3 43 24 81 62 81
c23 0 36 -10 56 -22c15 -8 27 -16 41 -16c17 0 25 9 28 40h33c-4 -44 -19 -78 -62 -78c-21 0 -39 10 -54 20c-13 8 -27 18 -42 18c-19 0 -25 -17 -29 -43z" />
    <glyph glyph-name="scaron" unicode="&#x161;" horiz-adv-x="320" 
d="M7 20l16 36c18 -12 49 -26 85 -26c63 0 105 45 105 99c0 48 -20 77 -65 106c-47 31 -73 74 -73 118c0 75 60 137 144 137c33 0 66 -11 80 -22l-16 -37c-15 9 -41 20 -69 20c-58 0 -96 -40 -96 -90c0 -45 25 -70 65 -96c46 -31 74 -75 74 -123c0 -97 -71 -151 -153 -151
c-43 0 -81 16 -97 29zM231 538h-33l-63 136h41l43 -97h2l75 97h43z" />
    <glyph glyph-name="uacute" unicode="&#xfa;" horiz-adv-x="463" 
d="M391 480h44l-65 -339c-10 -57 -16 -104 -19 -141h-41l13 94h-2c-39 -64 -99 -104 -160 -104c-52 0 -112 28 -112 127c0 22 3 44 8 71l55 292h43l-55 -288c-5 -28 -8 -50 -8 -74c0 -53 22 -88 81 -88c65 0 148 78 168 185zM339 674h68l-126 -136h-38z" />
    <glyph glyph-name="ucircumflex" unicode="&#xfb;" horiz-adv-x="463" 
d="M391 480h44l-65 -339c-11 -57 -16 -104 -19 -141h-41l12 94h-2c-38 -64 -98 -104 -159 -104c-52 0 -112 28 -112 127c0 22 3 44 8 71l55 292h43l-55 -288c-5 -28 -8 -50 -8 -74c0 -53 22 -88 80 -88c65 0 149 78 169 185zM292 674h33l62 -136h-41l-42 97h-2l-73 -97h-44z
" />
    <glyph glyph-name="udieresis" unicode="&#xfc;" horiz-adv-x="463" 
d="M391 480h44l-65 -339c-10 -57 -16 -104 -19 -141h-41l13 94h-2c-39 -64 -99 -104 -160 -104c-52 0 -112 28 -112 127c0 22 3 44 8 71l55 292h43l-55 -288c-5 -28 -8 -50 -8 -74c0 -53 22 -88 81 -88c65 0 148 78 168 185zM219 575h-2c-20 0 -33 17 -33 37s17 39 37 39
c22 0 34 -18 34 -36c0 -20 -14 -40 -36 -40zM377 575c-21 0 -33 17 -33 37s16 39 37 39c23 0 34 -18 34 -36c0 -20 -14 -40 -38 -40z" />
    <glyph glyph-name="ugrave" unicode="&#xf9;" horiz-adv-x="463" 
d="M391 480h44l-65 -339c-10 -57 -16 -104 -19 -141h-41l13 94h-2c-39 -64 -99 -104 -160 -104c-52 0 -112 28 -112 127c0 22 3 44 8 71l55 292h43l-55 -288c-5 -28 -8 -50 -8 -74c0 -53 22 -88 81 -88c65 0 148 78 168 185zM178 674h63l68 -136h-33z" />
    <glyph glyph-name="yacute" unicode="&#xfd;" horiz-adv-x="378" 
d="M51 480h44l48 -290c10 -54 15 -87 20 -131h2c14 35 31 72 54 121l137 300h46l-179 -383c-43 -94 -88 -179 -154 -242c-45 -45 -90 -65 -113 -71l-13 38c19 8 54 23 87 51c32 26 71 74 97 126c5 9 4 15 3 24zM294 674h69l-127 -136h-37z" />
    <glyph glyph-name="ydieresis" unicode="&#xff;" horiz-adv-x="378" 
d="M51 480h44l48 -290c10 -54 15 -87 20 -131h2c15 35 31 72 54 121l137 300h47l-179 -383c-44 -94 -89 -179 -155 -242c-45 -45 -90 -65 -113 -71l-13 38c19 8 54 23 87 51c32 26 71 74 97 126c5 9 4 15 3 24zM168 575c-20 0 -33 17 -33 37s17 39 37 39c22 0 34 -18 34 -36
c0 -20 -14 -40 -38 -40zM328 575c-21 0 -33 17 -33 37s16 39 37 39c23 0 34 -18 34 -36c0 -20 -14 -40 -38 -40z" />
    <glyph glyph-name="zcaron" unicode="&#x17e;" horiz-adv-x="360" 
d="M-23 0l4 28l263 319c38 47 60 69 81 93v3h-245l8 37h297l-6 -31l-261 -317c-39 -47 -59 -69 -80 -92v-3h264l-7 -37h-318zM261 538h-33l-63 136h41l43 -97h2l75 97h43z" />
    <glyph glyph-name="Dcroat" unicode="&#x110;" horiz-adv-x="567" 
d="M16 336l8 38h83l55 292c47 8 94 12 140 12c96 0 172 -33 212 -89c25 -35 45 -90 45 -163c0 -123 -50 -264 -137 -340c-68 -60 -158 -89 -255 -89c-42 0 -89 2 -130 7l63 332h-84zM320 374l-8 -38h-169l-56 -296c30 -4 61 -5 87 -5c92 0 170 31 230 90
c68 66 109 188 109 299c0 125 -53 216 -223 216c-30 0 -61 -1 -90 -5l-49 -261h169z" />
    <glyph glyph-name="Eng" unicode="&#x14a;" horiz-adv-x="555" 
d="M257 -178l-1 36c72 6 115 39 138 144l-156 437c-28 70 -41 119 -52 179l-3 -1c-8 -64 -17 -120 -31 -196l-79 -421h-42l128 674h42l160 -448c25 -66 38 -115 50 -168l2 1c6 60 12 109 27 190l81 425h42l-124 -654c-29 -156 -95 -194 -182 -198z" />
    <glyph glyph-name="Hbar" unicode="&#x126;" horiz-adv-x="549" 
d="M477 486h-311l-22 -115h311zM65 521h65l29 153h44l-30 -153h311l29 153h44l-29 -153h56l-7 -35h-56l-92 -486h-44l63 333h-311l-63 -333h-43l93 486h-66z" />
    <glyph glyph-name="Tbar" unicode="&#x166;" horiz-adv-x="405" 
d="M364 339h-123l-64 -339h-43l64 339h-117l8 37h116l49 260h-183l8 38h409l-8 -38h-183l-49 -260h123z" />
    <glyph glyph-name="uni021C" unicode="&#x21c;" horiz-adv-x="390" 
d="M-27 -103l-5 37c177 22 340 120 340 277c0 69 -48 124 -136 124c-24 0 -49 -6 -76 -14l-7 33c111 26 227 98 227 201c0 59 -46 90 -98 90c-47 0 -92 -22 -112 -33l-12 32c27 16 81 40 134 40c79 0 135 -53 135 -125c0 -89 -75 -158 -146 -190v-3c67 -12 138 -59 138 -154
c0 -151 -147 -288 -382 -315z" />
    <glyph glyph-name="dcroat" unicode="&#x111;" horiz-adv-x="458" 
d="M340 225l37 202c-17 14 -44 24 -81 24c-126 0 -220 -157 -220 -294c0 -61 16 -129 93 -129c65 0 149 78 171 197zM229 592h181l21 112h43l-22 -112h75l-7 -36h-74l-79 -412c-8 -46 -17 -103 -19 -144h-40l13 97h-2c-38 -64 -94 -107 -163 -107c-86 0 -125 75 -125 161
c0 170 116 339 272 339c32 0 66 -9 84 -20l16 86h-181z" />
    <glyph glyph-name="eng" unicode="&#x14b;" horiz-adv-x="470" 
d="M172 -165l-6 37c72 14 130 47 155 178l46 245c4 22 7 45 7 70c0 50 -20 86 -79 86c-64 0 -154 -80 -175 -196l-47 -255h-44l64 339c11 57 18 104 22 141h40l-13 -98h2c42 70 102 108 167 108c47 0 107 -30 107 -121c0 -24 -4 -48 -9 -74l-47 -251
c-27 -143 -95 -194 -190 -209z" />
    <glyph glyph-name="hbar" unicode="&#x127;" horiz-adv-x="470" 
d="M64 593h78l21 111h44l-21 -111h176l-7 -35h-176l-33 -169h2c41 64 96 101 164 101c46 0 106 -30 106 -117c0 -27 -3 -51 -7 -76l-56 -297h-43l57 300c3 18 6 39 6 69c0 46 -23 82 -78 82c-69 0 -156 -85 -176 -191l-48 -260h-43l106 558h-79z" />
    <glyph glyph-name="kgreenlandic" unicode="&#x138;" horiz-adv-x="380" 
d="M73 0h-43l91 480h43l-42 -223h2c13 15 31 33 41 43l182 180h55l-200 -196l136 -284h-46l-123 257l-58 -54z" />
    <glyph glyph-name="napostrophe" unicode="&#x149;" horiz-adv-x="470" 
d="M73 0h-44l64 339c12 57 18 104 22 141h40l-13 -98h2c42 70 102 108 167 108c47 0 107 -30 107 -121c0 -24 -4 -48 -9 -74l-55 -295h-43l56 295c4 22 7 45 7 70c0 50 -20 86 -79 86c-64 0 -154 -80 -175 -196zM66 542l-8 26c28 11 59 32 59 76c0 23 -12 43 -26 54l41 10
c13 -9 28 -34 28 -59c0 -65 -52 -99 -94 -107z" />
    <glyph glyph-name="tbar" unicode="&#x167;" horiz-adv-x="268" 
d="M39 299h62l28 144h-69l7 37h70l16 86l48 20l-21 -106h113l-8 -37h-113l-27 -144h86l-7 -36h-86l-19 -106c-6 -31 -10 -57 -10 -82c0 -29 13 -47 43 -46c16 0 26 1 35 4l3 -35c-13 -4 -30 -7 -47 -7c-57 0 -79 38 -79 78c0 26 3 51 11 88l20 106h-63z" />
    <glyph glyph-name="uni021D" unicode="&#x21d;" horiz-adv-x="335" 
d="M-65 -205l-5 35c99 14 322 74 322 239c0 63 -52 107 -127 106c-21 0 -41 -4 -73 -13l-7 34c107 28 210 84 210 175c0 47 -36 80 -95 80c-46 0 -86 -20 -105 -31l-10 30c27 16 73 40 130 40c73 0 123 -50 123 -112c0 -82 -64 -138 -129 -167l-1 -2
c67 -11 128 -58 128 -139c0 -144 -143 -253 -361 -275z" />
    <glyph glyph-name="IJ" unicode="&#x132;" horiz-adv-x="505" 
d="M159 674h44l-129 -674h-43zM386 190l92 484h43l-93 -490c-27 -145 -85 -194 -181 -194c-34 0 -68 8 -82 16l11 38c19 -9 43 -14 74 -14c72 0 113 39 136 160z" />
    <glyph glyph-name="ij" unicode="&#x133;" horiz-adv-x="378" 
d="M72 0h-43l92 480h43zM165 574h-2c-19 0 -31 17 -30 39c1 21 17 39 36 39c22 0 34 -17 33 -39c-2 -22 -16 -39 -37 -39zM314 480h43l-94 -491c-15 -78 -29 -124 -53 -152c-23 -26 -56 -43 -93 -43c-18 0 -32 1 -43 5l6 37c7 -2 22 -4 39 -4c42 0 76 26 96 132zM353 574
c-19 0 -31 17 -30 39c1 21 17 39 36 39c22 0 34 -17 33 -39c-2 -22 -16 -39 -39 -39z" />
    <glyph glyph-name="zero.slash" unicode="&#xf638;" horiz-adv-x="431" 
d="M91 128l281 439c-12 31 -35 55 -76 55c-126 0 -211 -248 -211 -427c0 -22 2 -45 6 -67zM382 520l-280 -438c14 -32 38 -54 79 -54c134 0 205 298 205 443c0 14 -1 32 -4 49zM472 654l-55 -80c10 -31 14 -67 14 -100c0 -192 -88 -484 -256 -484c-47 0 -78 19 -99 50
l-41 -63l-30 23l52 76c-12 35 -17 77 -17 121c0 202 102 463 259 463c48 0 80 -20 100 -49l42 65z" />
    <glyph glyph-name="Euro" unicode="&#x20ac;" horiz-adv-x="431" 
d="M365 55l12 -32c-22 -15 -70 -33 -120 -33c-151 0 -202 144 -192 273h-58l8 37h54c3 21 7 45 14 65h-55l8 37h58c41 128 146 258 285 258c46 0 79 -14 100 -26l-17 -34c-22 12 -51 22 -87 22c-120 0 -204 -119 -236 -220h252l-7 -37h-257c-6 -18 -11 -42 -13 -65h256
l-8 -37h-252c-8 -107 27 -235 155 -235c42 0 79 15 100 27z" />
    <glyph glyph-name="Aringacute" unicode="&#x1fa;" horiz-adv-x="500" 
d="M347 690c-48 0 -76 29 -76 66c0 42 38 75 86 75c41 0 72 -27 72 -66c0 -46 -38 -75 -82 -75zM348 718c28 0 47 19 47 45c0 22 -15 40 -42 40s-46 -21 -46 -45s17 -40 41 -40zM436 924h75l-123 -74h-47zM369 236h-230l-116 -236h-45l338 674h42l81 -674h-42zM159 274h205
l-26 214c-4 40 -8 87 -11 129h-3c-18 -43 -35 -83 -56 -127z" />
    <glyph glyph-name="estimated" unicode="&#x212e;" horiz-adv-x="817" 
d="M782 316h-605c-3 0 -5 -1 -5 -4v-183c0 -8 4 -15 9 -21c57 -61 139 -99 229 -99c96 0 182 43 240 111h55c-68 -79 -176 -131 -296 -131c-206 0 -374 150 -374 336s168 336 374 336s373 -150 373 -336v-9zM646 340v184c0 9 -4 16 -10 22c-58 58 -138 95 -226 95
c-90 0 -170 -38 -228 -98c-6 -6 -10 -14 -10 -23v-180c0 -3 2 -5 5 -5h464c3 0 5 2 5 5z" />
    <glyph glyph-name="zero.oldstyle" unicode="&#xf730;" horiz-adv-x="451" 
d="M183 -10c-78 0 -147 62 -147 182c0 134 84 322 233 322c76 0 149 -63 149 -184c0 -135 -84 -320 -235 -320zM193 28c117 0 180 172 180 280c0 86 -40 148 -111 148c-120 0 -181 -172 -181 -280c0 -86 39 -148 112 -148z" />
    <glyph glyph-name="one.oldstyle" unicode="&#xf731;" horiz-adv-x="303" 
d="M253 488l-93 -488h-42l83 440h-2l-132 -69l-7 37l155 80h38z" />
    <glyph glyph-name="two.oldstyle" unicode="&#xf732;" horiz-adv-x="387" 
d="M324 38l-7 -38h-337l5 26l103 78c151 116 207 184 207 258c0 67 -44 96 -93 96c-47 0 -91 -27 -114 -43l-16 27c30 24 79 54 141 54c67 0 127 -44 127 -133c0 -85 -62 -156 -215 -275l-63 -49v-2c21 1 48 1 67 1h195z" />
    <glyph glyph-name="three.oldstyle" unicode="&#xf733;" horiz-adv-x="378" 
d="M-31 -81l12 36c21 -12 61 -21 99 -21c104 0 188 59 188 151c0 73 -60 112 -126 112c-22 0 -39 -1 -54 -2l5 36c4 1 9 1 14 1c82 7 181 59 181 145c0 53 -40 79 -91 79c-45 0 -79 -15 -101 -27l-13 29c26 18 74 36 125 36c63 0 125 -38 125 -116c0 -76 -62 -131 -137 -153
v-2c65 -13 117 -59 117 -133c0 -124 -117 -194 -230 -194c-51 0 -96 12 -114 23z" />
    <glyph glyph-name="four.oldstyle" unicode="&#xf734;" horiz-adv-x="438" 
d="M292 63l-32 -167h-41l32 167h-252l7 31l329 397h38l-73 -389h88l-8 -39h-88zM258 102l43 227c7 35 13 65 22 99h-4c-23 -37 -42 -65 -66 -96l-192 -227l1 -3h196z" />
    <glyph glyph-name="five.oldstyle" unicode="&#xf735;" horiz-adv-x="376" 
d="M-17 -87l11 37c21 -9 56 -15 88 -15c99 0 191 55 191 160c0 36 -12 65 -35 87c-39 37 -113 44 -179 40l84 261h229l-15 -39h-187l-61 -185c62 2 127 -13 166 -51c28 -28 43 -65 43 -108c0 -126 -112 -204 -235 -204c-43 0 -83 9 -100 17z" />
    <glyph glyph-name="six.oldstyle" unicode="&#xf736;" horiz-adv-x="450" 
d="M200 28c79 0 156 91 156 195c0 81 -48 121 -104 121c-63 0 -106 -33 -132 -73c-26 -30 -33 -64 -33 -99c0 -90 44 -144 113 -144zM428 597l7 -35c-104 -16 -176 -57 -227 -107c-46 -45 -76 -92 -96 -147h2c31 37 84 74 152 74c69 0 135 -55 135 -151
c0 -130 -96 -241 -209 -241c-83 0 -149 60 -149 187c0 81 38 207 130 297c63 62 145 110 255 123z" />
    <glyph glyph-name="seven.oldstyle" unicode="&#xf737;" horiz-adv-x="391" 
d="M393 483l-6 -29c-72 -153 -230 -398 -355 -558l-44 13c103 123 292 410 348 532v3h-269l6 39h320z" />
    <glyph glyph-name="eight.oldstyle" unicode="&#xf738;" horiz-adv-x="459" 
d="M281 600c84 0 141 -59 141 -132s-55 -115 -128 -155v-2c61 -37 103 -85 103 -149c0 -104 -98 -172 -195 -172c-98 0 -166 60 -166 152c0 86 81 137 154 176v2c-50 29 -81 72 -81 125c0 86 77 155 172 155zM271 563c-61 0 -119 -41 -119 -109c0 -58 42 -94 105 -123
c71 36 120 76 120 137c0 51 -35 95 -106 95zM204 28c83 0 148 58 148 126c0 65 -47 106 -125 145c-66 -30 -146 -79 -146 -159c0 -67 50 -112 123 -112z" />
    <glyph glyph-name="nine.oldstyle" unicode="&#xf739;" horiz-adv-x="450" 
d="M200 135c57 0 116 44 145 90c12 20 21 56 21 94c0 94 -50 137 -110 137c-85 0 -156 -98 -156 -199c0 -80 45 -122 100 -122zM32 -107l-6 37c23 2 45 5 65 9c147 33 220 128 256 237l-3 1c-31 -41 -90 -79 -153 -79c-76 0 -136 56 -136 152c0 120 91 244 213 244
c82 0 143 -68 143 -184c0 -183 -104 -367 -326 -411c-17 -3 -35 -5 -53 -6z" />
    <glyph glyph-name="percent.oldstyle" unicode="&#xf642;" horiz-adv-x="699" 
d="M203 600c73 0 99 -67 99 -128c0 -129 -60 -268 -165 -268c-70 0 -102 61 -102 135c0 114 58 261 168 261zM194 566c-75 0 -118 -131 -118 -224c0 -54 14 -104 68 -104c74 0 117 133 117 226c0 43 -12 102 -67 102zM150 -13h-44l438 613h44zM565 390c73 0 99 -67 99 -128
c0 -128 -60 -267 -165 -267c-70 0 -102 61 -102 135c0 113 58 260 168 260zM556 356c-75 0 -118 -131 -118 -223c0 -54 14 -104 68 -104c74 0 117 133 117 225c0 43 -12 102 -67 102z" />
    <glyph glyph-name="zero.fitted" unicode="&#xf639;" horiz-adv-x="431" 
d="M174 -10c-104 0 -134 98 -134 206c0 202 102 464 259 464c108 0 132 -102 132 -186c0 -192 -88 -484 -257 -484zM182 28c133 0 204 298 204 443c0 55 -7 151 -90 151c-126 0 -211 -248 -211 -427c0 -83 15 -167 97 -167z" />
    <glyph glyph-name="one.fitted" unicode="&#xf6dc;" horiz-adv-x="297" 
d="M108 0l113 598h-2l-105 -58l-10 35l132 75h38l-123 -650h-43z" />
    <glyph glyph-name="two.fitted" unicode="&#xf63a;" horiz-adv-x="383" 
d="M306 0h-334l5 30l68 65c167 153 293 288 293 416c0 54 -24 110 -101 110c-55 0 -96 -30 -118 -48l-16 33c34 29 89 54 141 54c106 0 140 -76 140 -144c0 -148 -147 -295 -303 -440l-40 -36v-2h272z" />
    <glyph glyph-name="three.fitted" unicode="&#xf63b;" horiz-adv-x="364" 
d="M-15 24l16 35c22 -13 55 -30 104 -30c117 0 173 94 173 176c0 95 -67 134 -134 133h-31l7 36h31c59 1 165 50 165 152c0 62 -33 95 -95 95c-39 0 -78 -15 -102 -33l-15 34c32 21 77 38 125 38c96 0 133 -67 133 -128c0 -91 -70 -153 -138 -175v-2
c67 -17 101 -81 101 -148c0 -119 -93 -217 -225 -217c-52 0 -96 17 -115 34z" />
    <glyph glyph-name="four.fitted" unicode="&#xf63c;" horiz-adv-x="431" 
d="M278 0h-42l36 193h-260l7 30l344 427h39l-80 -419h89l-7 -38h-90zM74 231h206l47 249c7 36 16 70 24 105h-3c-29 -44 -44 -72 -74 -112l-200 -240v-2z" />
    <glyph glyph-name="five.fitted" unicode="&#xf63d;" horiz-adv-x="376" 
d="M408 650l-9 -40h-200l-64 -205c10 1 19 2 29 2c25 0 69 -9 101 -31c49 -29 70 -84 70 -138c0 -147 -111 -248 -237 -248c-48 0 -92 16 -109 29l16 35c19 -11 57 -25 100 -25c107 0 184 95 184 199c0 87 -43 140 -146 140c-22 0 -40 -1 -60 -3l88 285h237z" />
    <glyph glyph-name="six.fitted" unicode="&#xf63e;" horiz-adv-x="428" 
d="M419 660l-4 -42c-12 0 -27 0 -45 -5c-111 -21 -222 -120 -273 -284h2c38 54 102 90 158 90c97 0 140 -76 140 -167c0 -114 -82 -262 -210 -262c-104 0 -153 83 -153 199c0 144 76 292 155 365c64 61 133 93 190 101c16 4 30 5 40 5zM191 29c97 0 160 121 160 223
c0 86 -38 128 -106 128c-51 0 -110 -36 -149 -98c-5 -8 -10 -18 -11 -29c-4 -19 -7 -40 -7 -71c0 -90 37 -153 113 -153z" />
    <glyph glyph-name="seven.fitted" unicode="&#xf63f;" horiz-adv-x="345" 
d="M85 650h336l-6 -31c-121 -206 -244 -413 -372 -619h-48c126 203 249 406 370 609l-1 2h-287z" />
    <glyph glyph-name="eight.fitted" unicode="&#xf640;" horiz-adv-x="429" 
d="M284 660h2c85 0 134 -62 134 -134c0 -85 -56 -145 -130 -182v-3c62 -37 94 -94 94 -163c0 -111 -92 -188 -195 -188c-101 0 -164 65 -164 153c0 107 78 174 155 207v3c-53 41 -72 84 -72 133c0 91 75 174 176 174zM191 28c87 0 148 65 148 149c0 72 -37 117 -116 151
c-73 -22 -153 -84 -153 -180c0 -64 39 -120 121 -120zM276 622c-71 0 -125 -61 -125 -133c0 -57 29 -96 95 -126c76 31 129 87 129 156c0 49 -21 103 -99 103z" />
    <glyph glyph-name="nine.fitted" unicode="&#xf641;" horiz-adv-x="428" 
d="M52 -10l2 41c14 0 33 2 52 7c43 10 90 34 132 73c48 43 95 111 126 206h-3c-41 -49 -95 -77 -148 -77c-99 0 -136 83 -136 160c0 121 90 260 213 260c102 0 140 -87 140 -182c0 -154 -85 -315 -157 -386c-49 -47 -108 -80 -161 -94c-20 -5 -42 -8 -60 -8zM283 621
c-93 0 -161 -114 -161 -216c0 -80 35 -126 101 -126c55 0 107 33 141 87c5 8 9 16 12 27c5 21 9 50 9 85c0 82 -25 143 -102 143z" />
    <glyph glyph-name="zero.slashfitted" unicode="&#xe008;" horiz-adv-x="431" 
d="M91 128l281 439c-12 31 -35 55 -76 55c-126 0 -211 -248 -211 -427c0 -22 2 -45 6 -67zM382 520l-280 -438c14 -32 38 -54 79 -54c134 0 205 298 205 443c0 14 -1 32 -4 49zM472 654l-55 -80c10 -31 14 -67 14 -100c0 -192 -88 -484 -256 -484c-47 0 -78 19 -99 50
l-41 -63l-30 23l52 76c-12 35 -17 77 -17 121c0 202 102 463 259 463c48 0 80 -20 100 -49l42 65z" />
    <glyph glyph-name="zero.taboldstyle" unicode="&#xf643;" horiz-adv-x="451" 
d="M183 -10c-78 0 -147 62 -147 182c0 134 84 322 233 322c76 0 149 -63 149 -184c0 -135 -84 -320 -235 -320zM193 28c117 0 180 172 180 280c0 86 -40 148 -111 148c-120 0 -181 -172 -181 -280c0 -86 39 -148 112 -148z" />
    <glyph glyph-name="one.taboldstyle" unicode="&#xf644;" horiz-adv-x="451" 
d="M338 488l-93 -488h-42l84 444h-2l-182 -73l-4 37l201 80h38z" />
    <glyph glyph-name="two.taboldstyle" unicode="&#xf645;" horiz-adv-x="451" 
d="M362 38l-7 -38h-337l5 26l103 78c151 116 207 184 207 258c0 67 -44 96 -93 96c-47 0 -91 -27 -114 -43l-16 27c30 24 79 54 141 54c67 0 127 -44 127 -133c0 -85 -62 -156 -215 -275l-63 -49v-2c21 1 48 1 67 1h195z" />
    <glyph glyph-name="three.taboldstyle" unicode="&#xf646;" horiz-adv-x="451" 
d="M15 -81l12 36c21 -12 61 -21 99 -21c104 0 188 59 188 151c0 73 -60 112 -126 112c-22 0 -39 -1 -54 -2l5 36c4 1 9 1 14 1c82 7 181 59 181 145c0 53 -40 79 -91 79c-45 0 -79 -15 -101 -27l-13 29c26 18 74 36 125 36c63 0 125 -38 125 -116c0 -76 -62 -131 -137 -153
v-2c65 -13 117 -59 117 -133c0 -124 -117 -194 -230 -194c-51 0 -96 12 -114 23z" />
    <glyph glyph-name="four.taboldstyle" unicode="&#xf647;" horiz-adv-x="451" 
d="M304 63l-33 -167h-41l32 167h-251l7 31l328 397h38l-73 -389h88l-8 -39h-87zM269 102l43 227c7 35 13 65 22 99h-4c-22 -37 -42 -65 -66 -96l-191 -227l1 -3h195z" />
    <glyph glyph-name="five.taboldstyle" unicode="&#xf648;" horiz-adv-x="451" 
d="M23 -87l11 37c21 -9 56 -15 88 -15c99 0 191 55 191 160c0 36 -12 65 -35 87c-39 37 -113 44 -179 40l84 261h229l-15 -39h-187l-61 -185c62 2 127 -13 166 -51c28 -28 43 -65 43 -108c0 -126 -112 -204 -235 -204c-43 0 -83 9 -100 17z" />
    <glyph glyph-name="six.taboldstyle" unicode="&#xf649;" horiz-adv-x="451" 
d="M204 28c79 0 156 91 156 195c0 81 -48 121 -104 121c-63 0 -106 -33 -132 -73c-26 -30 -33 -64 -33 -99c0 -90 44 -144 113 -144zM432 597l7 -35c-104 -16 -176 -57 -227 -107c-46 -45 -76 -92 -96 -147h2c31 37 84 74 152 74c69 0 135 -55 135 -151
c0 -130 -96 -241 -209 -241c-83 0 -149 60 -149 187c0 81 38 207 130 297c63 62 145 110 255 123z" />
    <glyph glyph-name="seven.taboldstyle" unicode="&#xf64a;" horiz-adv-x="451" 
d="M422 483l-6 -29c-72 -153 -230 -398 -355 -558l-44 13c103 123 292 410 348 532v3h-269l6 39h320z" />
    <glyph glyph-name="eight.taboldstyle" unicode="&#xf64b;" horiz-adv-x="451" 
d="M282 600c84 0 141 -59 141 -132s-55 -115 -127 -155v-2c61 -37 103 -85 103 -149c0 -104 -98 -172 -195 -172c-98 0 -167 60 -167 152c0 86 81 137 154 176v2c-50 29 -81 72 -81 125c0 86 77 155 172 155zM272 563c-61 0 -119 -41 -119 -109c0 -58 42 -94 105 -123
c71 36 120 76 120 137c0 51 -35 95 -106 95zM204 28h2c83 0 148 58 148 126c0 65 -48 106 -126 145c-66 -30 -146 -79 -146 -159c0 -67 50 -112 122 -112z" />
    <glyph glyph-name="nine.taboldstyle" unicode="&#xf64c;" horiz-adv-x="451" 
d="M201 135c57 0 116 44 145 90c12 20 21 56 21 94c0 94 -50 137 -110 137c-85 0 -156 -98 -156 -199c0 -80 45 -122 100 -122zM33 -107l-6 37c23 2 45 5 65 9c147 33 220 128 256 237l-3 1c-31 -41 -90 -79 -153 -79c-76 0 -136 56 -136 152c0 120 91 244 213 244
c82 0 143 -68 143 -184c0 -183 -104 -367 -326 -411c-17 -3 -35 -5 -53 -6z" />
    <glyph glyph-name="dollar.taboldstyle" unicode="&#xf653;" horiz-adv-x="451" 
d="M184 -74h-35l14 74c-47 2 -91 19 -118 39l23 32c20 -16 58 -33 107 -33c71 0 133 40 133 99c0 34 -22 68 -91 99c-76 37 -104 71 -104 118c0 69 67 121 146 127l15 78h35l-15 -77c41 -4 77 -20 97 -36l-21 -33c-23 17 -58 31 -97 31c-65 0 -113 -34 -113 -85
c0 -37 19 -56 90 -90c66 -32 103 -73 103 -124c0 -83 -73 -136 -155 -144z" />
    <glyph glyph-name="cent.taboldstyle" unicode="&#xf654;" horiz-adv-x="451" 
d="M311 115l8 -35c-20 -10 -56 -23 -97 -26l-13 -70h-35l14 71c-77 11 -126 68 -126 143c0 113 80 226 199 243l12 66h35l-12 -64c36 -2 69 -16 85 -27l-20 -33c-16 10 -44 22 -76 22c-106 0 -178 -97 -178 -200c0 -68 39 -113 112 -113c35 0 68 12 92 23z" />
    <glyph glyph-name="Euro.taboldstyle" unicode="&#xf64e;" horiz-adv-x="451" 
d="M364 55l10 -33c-23 -17 -71 -32 -128 -32c-111 0 -177 89 -177 197h-47l7 35h43c3 19 6 37 11 58h-45l7 35h49c41 113 133 196 255 196c46 0 78 -12 100 -24l-16 -35c-21 11 -50 21 -86 21c-100 0 -175 -72 -210 -158h234l-6 -35h-239c-5 -20 -9 -38 -10 -58h239l-7 -35
h-234c2 -89 48 -158 145 -158c40 0 85 14 105 26z" />
    <glyph glyph-name="florin.taboldstyle" unicode="&#xf64f;" horiz-adv-x="451" 
d="M465 587l-15 -35c-14 6 -26 9 -45 9c-72 0 -107 -65 -130 -161l-15 -61h114l-5 -37h-119l-50 -204c-33 -132 -81 -210 -170 -210c-24 0 -50 8 -62 17l14 34c15 -8 32 -12 50 -12c52 0 94 43 125 171l49 204h-90l4 37h96l13 56c25 102 72 205 182 205c20 0 42 -7 54 -13z
" />
    <glyph glyph-name="sterling.taboldstyle" unicode="&#xf651;" horiz-adv-x="451" 
d="M397 490l-15 -35c-12 7 -39 17 -73 17c-85 0 -133 -76 -130 -196v-17h140l-6 -37h-132c3 -72 -17 -137 -78 -182v-2h266l-6 -38h-349l5 29c89 38 124 98 118 193h-83l6 37h75v14c-3 130 58 238 182 238c36 0 64 -11 80 -21z" />
    <glyph glyph-name="yen.taboldstyle" unicode="&#xf652;" horiz-adv-x="451" 
d="M198 0h-42l24 122h-139l7 35h138l12 62h-139l7 35h124l-91 247h47l57 -169c9 -28 16 -50 22 -71h3c14 22 33 47 53 74l127 166h51l-195 -247h122l-7 -35h-140l-12 -62h140l-7 -35h-139z" />
    <glyph glyph-name="numbersign.taboldstyle" unicode="&#xf650;" horiz-adv-x="451" 
d="M167 218h88l51 169h-89zM101 0h-40l55 180h-76l7 38h80l51 169h-81l6 37h86l54 176h38l-53 -176h89l54 176h38l-53 -176h76l-7 -37h-80l-50 -169h82l-7 -37h-87l-54 -181h-40l55 181h-89z" />
    <glyph glyph-name="zero.superior" unicode="&#x2070;" horiz-adv-x="283" 
d="M177 399c-68 0 -91 58 -91 130c0 130 68 272 166 272c71 0 91 -61 91 -118c0 -126 -60 -284 -166 -284zM185 432c75 0 117 165 117 248c0 32 -5 88 -54 88c-71 0 -121 -138 -121 -241c0 -44 9 -95 58 -95z" />
    <glyph glyph-name="one.superior" horiz-adv-x="194" 
d="M166 405h-39l67 350h-2l-72 -36l-4 33l90 43h34z" />
    <glyph glyph-name="two.superior" horiz-adv-x="261" 
d="M276 405h-230l5 28l62 51c90 77 164 145 164 217c0 34 -17 64 -65 64c-31 0 -62 -18 -77 -30l-14 28c24 19 62 37 101 37c66 0 97 -45 97 -97c0 -82 -83 -155 -167 -225l-42 -36v-2h173z" />
    <glyph glyph-name="three.superior" horiz-adv-x="250" 
d="M133 739l-10 29c19 16 57 32 91 32c63 0 91 -38 91 -83s-36 -80 -83 -98l-1 -2c41 -13 66 -49 65 -93c-1 -70 -56 -124 -145 -124c-39 0 -74 13 -90 25l15 31c15 -9 42 -23 79 -23c65 0 100 42 100 92c0 54 -45 75 -93 75h-16l5 31h18c49 0 105 34 105 83
c0 31 -17 52 -59 52c-27 0 -55 -13 -72 -27z" />
    <glyph glyph-name="four.superior" unicode="&#x2074;" horiz-adv-x="276" 
d="M248 405h-38l22 114h-167l5 24l214 255h39l-47 -246h55l-7 -33h-54zM238 551l26 137c5 25 11 47 15 63h-2c-17 -24 -28 -42 -45 -64l-112 -134l-1 -2h119z" />
    <glyph glyph-name="five.superior" unicode="&#x2075;" horiz-adv-x="255" 
d="M329 795l-7 -35h-129l-34 -109c6 1 12 1 19 1c15 0 43 -5 64 -18c32 -18 46 -52 46 -85c0 -93 -73 -150 -154 -150c-35 0 -65 11 -77 20l13 31c13 -8 39 -17 69 -17c58 0 107 49 107 107c0 45 -22 79 -92 79c-15 0 -27 -1 -41 -2l53 178h163z" />
    <glyph glyph-name="six.superior" unicode="&#x2076;" horiz-adv-x="282" 
d="M336 801l-5 -35c-9 0 -22 -1 -35 -4c-73 -16 -130 -70 -158 -154h1c23 31 62 52 97 52c62 0 92 -47 92 -104c0 -74 -57 -157 -138 -157c-71 0 -104 52 -104 124c0 91 49 176 97 218c29 24 62 42 101 52c16 5 34 7 52 8zM194 432c53 0 92 64 92 122c0 48 -23 73 -64 73
c-31 0 -65 -21 -87 -56c-3 -6 -6 -13 -7 -19c-2 -9 -2 -22 -2 -35c0 -50 22 -85 68 -85z" />
    <glyph glyph-name="seven.superior" unicode="&#x2077;" horiz-adv-x="248" 
d="M122 795h222l-5 -29c-49 -81 -168 -268 -227 -361h-44c61 95 172 269 225 354l-1 1h-177z" />
    <glyph glyph-name="eight.superior" unicode="&#x2078;" horiz-adv-x="284" 
d="M251 801c55 0 92 -34 92 -85c0 -48 -31 -83 -77 -105v-1c40 -23 57 -58 57 -94c0 -74 -65 -117 -129 -117c-69 0 -112 41 -112 95c0 61 45 101 93 120v2c-31 23 -43 49 -43 77c0 61 52 108 119 108zM196 430c48 0 86 34 86 82c0 41 -22 67 -71 85
c-42 -12 -87 -44 -87 -98c0 -35 23 -69 72 -69zM243 770c-40 0 -72 -35 -72 -74c0 -32 18 -55 59 -70c41 15 73 45 73 85c0 27 -12 59 -60 59z" />
    <glyph glyph-name="nine.superior" unicode="&#x2079;" horiz-adv-x="276" 
d="M86 399l4 35c10 -1 23 0 37 3c27 5 55 18 82 41c28 25 55 61 73 112h-1c-26 -29 -61 -45 -92 -45c-63 0 -90 51 -90 99c0 78 60 157 138 157c71 0 99 -55 99 -118c0 -98 -56 -189 -101 -228c-32 -28 -71 -46 -107 -53c-16 -2 -30 -3 -42 -3zM232 768
c-50 0 -92 -59 -92 -119c0 -41 20 -71 61 -71c33 0 62 20 82 49c3 5 6 10 7 17c3 11 5 27 5 43c0 47 -17 81 -63 81z" />
    <glyph glyph-name="period.superior" unicode="&#xf6e8;" horiz-adv-x="119" 
d="M102 399c-17 0 -28 14 -28 31c0 19 13 35 32 35c18 0 29 -14 29 -32c0 -19 -13 -34 -33 -34z" />
    <glyph glyph-name="comma.superior" unicode="&#xf6e2;" horiz-adv-x="119" 
d="M64 334l-32 -4c17 32 45 96 57 137l50 6c-20 -49 -57 -115 -75 -139z" />
    <glyph glyph-name="dollar.superior" unicode="&#xf6e4;" horiz-adv-x="242" 
d="M160 355h-31l12 60c-27 1 -59 13 -74 25l14 32c18 -13 42 -24 74 -24c46 0 82 29 82 72c0 29 -13 51 -50 71c-49 27 -73 56 -73 94c0 51 42 96 101 102l12 59h31l-12 -59c27 -1 51 -11 61 -19l-14 -31c-12 6 -30 18 -64 18c-45 0 -73 -28 -73 -64c0 -29 15 -45 57 -69
c45 -25 66 -56 66 -93c0 -65 -45 -106 -107 -114z" />
    <glyph glyph-name="cent.superior" unicode="&#xf6e0;" horiz-adv-x="252" 
d="M198 396h-31l12 63c-31 5 -52 18 -66 39c-14 20 -20 46 -20 71c0 90 65 168 144 178l11 61h31l-12 -59c20 0 45 -8 54 -16l-15 -31c-13 8 -31 14 -57 14c-57 0 -114 -64 -114 -145c0 -45 25 -81 75 -81c26 0 47 8 61 15l5 -31c-12 -8 -40 -16 -66 -16z" />
    <glyph glyph-name="hyphen.superior" unicode="&#xf6e6;" horiz-adv-x="180" 
d="M92 602h140l-7 -33h-139z" />
    <glyph glyph-name="parenleft.superior" unicode="&#x207d;" horiz-adv-x="164" 
d="M232 831h36c-64 -70 -128 -181 -128 -320c0 -54 10 -108 35 -166h-32c-25 50 -39 103 -39 168c0 144 69 255 128 318z" />
    <glyph glyph-name="parenright.superior" unicode="&#x207e;" horiz-adv-x="164" 
d="M72 345h-37c64 72 129 181 129 321c0 54 -10 108 -35 165h32c25 -49 39 -102 39 -167c0 -143 -70 -255 -128 -319z" />
    <glyph glyph-name="zero.inferior" unicode="&#x2080;" horiz-adv-x="283" 
d="M71 -151c-68 0 -91 58 -91 130c0 130 68 272 166 272c71 0 91 -61 91 -118c0 -126 -60 -284 -166 -284zM79 -118c75 0 117 165 117 248c0 32 -5 88 -54 88c-71 0 -121 -138 -121 -241c0 -44 9 -95 58 -95z" />
    <glyph glyph-name="one.inferior" unicode="&#x2081;" horiz-adv-x="194" 
d="M60 -145h-39l67 350h-2l-72 -36l-4 33l90 43h34z" />
    <glyph glyph-name="two.inferior" unicode="&#x2082;" horiz-adv-x="261" 
d="M170 -145h-230l5 28l62 51c90 77 164 145 164 217c0 34 -17 64 -65 64c-31 0 -62 -18 -77 -30l-14 28c24 19 62 37 101 37c66 0 97 -45 97 -97c0 -82 -83 -155 -167 -225l-42 -36v-2h173z" />
    <glyph glyph-name="three.inferior" unicode="&#x2083;" horiz-adv-x="250" 
d="M27 189l-10 29c19 16 57 32 91 32c63 0 91 -38 91 -83s-36 -80 -83 -98l-1 -2c41 -13 66 -49 65 -93c-1 -70 -56 -124 -145 -124c-39 0 -74 13 -90 25l15 31c15 -9 42 -23 79 -23c65 0 100 42 100 92c0 54 -45 75 -93 75h-16l5 31h18c49 0 105 34 105 83
c0 31 -17 52 -59 52c-27 0 -55 -13 -72 -27z" />
    <glyph glyph-name="four.inferior" unicode="&#x2084;" horiz-adv-x="276" 
d="M142 -145h-38l22 114h-167l5 24l214 254h39l-47 -245h55l-7 -33h-54zM132 1l26 137c5 24 11 46 15 62h-2c-17 -24 -28 -42 -45 -64l-112 -133l-1 -2h119z" />
    <glyph glyph-name="five.inferior" unicode="&#x2085;" horiz-adv-x="255" 
d="M223 245l-7 -35h-129l-34 -109c6 1 12 1 19 1c15 0 43 -5 64 -18c32 -18 46 -52 46 -85c0 -93 -73 -150 -154 -150c-35 0 -65 11 -77 20l13 31c13 -8 39 -17 69 -17c58 0 107 49 107 107c0 45 -22 79 -92 79c-15 0 -27 -1 -41 -2l53 178h163z" />
    <glyph glyph-name="six.inferior" unicode="&#x2086;" horiz-adv-x="282" 
d="M230 251l-5 -35c-9 0 -22 -1 -35 -4c-73 -16 -130 -70 -158 -154h1c23 31 62 52 97 52c62 0 92 -47 92 -104c0 -74 -57 -157 -138 -157c-71 0 -104 52 -104 124c0 91 49 176 97 218c29 24 62 42 101 52c16 5 34 7 52 8zM88 -118c53 0 92 64 92 122c0 48 -23 73 -64 73
c-31 0 -65 -21 -87 -56c-3 -6 -6 -13 -7 -19c-2 -9 -2 -22 -2 -35c0 -50 22 -85 68 -85z" />
    <glyph glyph-name="seven.inferior" unicode="&#x2087;" horiz-adv-x="248" 
d="M16 245h222l-5 -29c-49 -81 -168 -268 -227 -361h-44c61 95 172 269 225 354l-1 1h-177z" />
    <glyph glyph-name="eight.inferior" unicode="&#x2088;" horiz-adv-x="284" 
d="M145 251c55 0 92 -34 92 -85c0 -48 -31 -83 -77 -105v-1c40 -23 57 -58 57 -94c0 -74 -65 -117 -129 -117c-69 0 -112 41 -112 95c0 61 45 101 93 120v2c-31 23 -43 49 -43 77c0 61 52 108 119 108zM90 -120c48 0 86 34 86 82c0 41 -22 67 -71 85
c-42 -12 -87 -44 -87 -98c0 -35 23 -69 72 -69zM137 220c-40 0 -72 -35 -72 -74c0 -32 18 -55 59 -70c41 15 73 45 73 85c0 27 -12 59 -60 59z" />
    <glyph glyph-name="nine.inferior" unicode="&#x2089;" horiz-adv-x="276" 
d="M-20 -151l4 35c10 -1 23 0 37 3c27 5 55 18 82 41c28 25 55 61 73 112h-1c-26 -29 -61 -45 -92 -45c-63 0 -90 51 -90 99c0 78 60 157 138 157c71 0 99 -55 99 -118c0 -98 -56 -189 -101 -228c-32 -28 -71 -46 -107 -53c-16 -2 -30 -3 -42 -3zM126 218
c-50 0 -92 -59 -92 -119c0 -41 20 -71 61 -71c33 0 62 20 82 49c3 5 6 10 7 17c3 11 5 27 5 43c0 47 -17 81 -63 81z" />
    <glyph glyph-name="period.inferior" unicode="&#xf6e7;" horiz-adv-x="119" 
d="M-4 -151c-17 0 -28 14 -28 31c0 19 13 35 32 35c18 0 29 -14 29 -32c0 -19 -13 -34 -33 -34z" />
    <glyph glyph-name="comma.inferior" unicode="&#xf6e1;" horiz-adv-x="119" 
d="M-42 -216l-32 -4c17 32 45 96 57 137l50 6c-20 -49 -57 -115 -75 -139z" />
    <glyph glyph-name="dollar.inferior" unicode="&#xf6e3;" horiz-adv-x="242" 
d="M54 -195h-31l12 60c-27 1 -59 13 -74 25l14 32c18 -13 42 -24 74 -24c46 0 82 29 82 72c0 29 -13 51 -50 72c-49 26 -73 55 -73 93c0 51 42 96 101 102l12 59h31l-12 -59c27 -1 51 -11 61 -19l-14 -31c-12 6 -30 18 -64 18c-45 0 -73 -28 -73 -64c0 -29 15 -45 57 -69
c45 -25 66 -56 66 -93c0 -65 -45 -106 -107 -114z" />
    <glyph glyph-name="cent.inferior" unicode="&#xf6df;" horiz-adv-x="252" 
d="M92 -154h-31l12 63c-31 5 -52 18 -66 39c-14 20 -20 46 -20 71c0 90 65 168 144 178l11 61h31l-12 -59c20 0 45 -8 54 -15l-15 -31c-13 8 -31 14 -57 14c-57 0 -114 -64 -114 -146c0 -45 25 -81 75 -81c26 0 47 8 61 15l5 -31c-12 -8 -40 -16 -66 -16z" />
    <glyph glyph-name="hyphen.inferior" unicode="&#xf6e5;" horiz-adv-x="180" 
d="M-14 52h140l-7 -33h-139z" />
    <glyph glyph-name="parenleft.inferior" unicode="&#x208d;" horiz-adv-x="164" 
d="M126 281h36c-64 -70 -128 -181 -128 -320c0 -54 10 -108 35 -166h-32c-25 50 -39 103 -39 168c0 144 69 255 128 318z" />
    <glyph glyph-name="parenright.inferior" unicode="&#x208e;" horiz-adv-x="164" 
d="M-34 -205h-37c64 72 129 181 129 321c0 54 -10 108 -35 165h32c25 -49 39 -102 39 -167c0 -143 -70 -255 -128 -319z" />
    <glyph glyph-name="zero.numerator" unicode="&#xf661;" horiz-adv-x="283" 
d="M149 259c-68 0 -91 58 -91 130c0 130 68 272 166 272c71 0 91 -61 91 -118c0 -126 -60 -284 -166 -284zM157 292c75 0 117 165 117 248c0 32 -5 88 -54 88c-71 0 -121 -138 -121 -241c0 -44 9 -95 58 -95z" />
    <glyph glyph-name="one.numerator" unicode="&#xf662;" horiz-adv-x="194" 
d="M138 265h-39l67 350h-2l-72 -36l-4 33l90 43h34z" />
    <glyph glyph-name="two.numerator" unicode="&#xf663;" horiz-adv-x="261" 
d="M248 265h-230l5 28l62 51c90 77 164 145 164 217c0 34 -17 64 -65 64c-31 0 -62 -18 -77 -30l-14 28c24 19 62 37 101 37c66 0 97 -45 97 -97c0 -82 -83 -155 -167 -225l-42 -36v-2h173z" />
    <glyph glyph-name="three.numerator" unicode="&#xf664;" horiz-adv-x="250" 
d="M105 599l-10 29c19 16 57 32 91 32c63 0 91 -38 91 -83s-36 -80 -83 -98l-1 -2c41 -13 66 -49 65 -93c-1 -70 -56 -124 -145 -124c-39 0 -74 13 -90 25l15 31c15 -9 42 -23 79 -23c65 0 100 42 100 92c0 54 -45 75 -93 75h-16l5 31h18c49 0 105 34 105 83
c0 31 -17 52 -59 52c-27 0 -55 -13 -72 -27z" />
    <glyph glyph-name="four.numerator" unicode="&#xf665;" horiz-adv-x="276" 
d="M220 265h-38l22 114h-167l5 24l214 255h39l-47 -246h55l-7 -33h-54zM210 411l26 138c5 24 11 46 15 62h-2c-17 -24 -28 -42 -45 -64l-112 -134l-1 -2h119z" />
    <glyph glyph-name="five.numerator" unicode="&#xf666;" horiz-adv-x="255" 
d="M301 655l-7 -35h-129l-34 -109c6 1 12 1 19 1c15 0 43 -5 64 -18c32 -18 46 -52 46 -85c0 -93 -73 -150 -154 -150c-35 0 -65 11 -77 20l13 31c13 -8 39 -17 69 -17c58 0 107 49 107 107c0 45 -22 79 -92 79c-15 0 -27 -1 -41 -2l53 178h163z" />
    <glyph glyph-name="six.numerator" unicode="&#xf667;" horiz-adv-x="282" 
d="M308 661l-5 -35c-9 0 -22 -1 -35 -4c-73 -16 -130 -70 -158 -154h1c23 31 62 52 97 52c62 0 92 -47 92 -104c0 -74 -57 -157 -138 -157c-71 0 -104 52 -104 124c0 91 49 176 97 218c29 24 62 42 101 52c16 5 34 7 52 8zM166 292c53 0 92 64 92 122c0 48 -23 73 -64 73
c-31 0 -65 -21 -87 -56c-3 -6 -6 -13 -7 -19c-2 -9 -2 -22 -2 -35c0 -50 22 -85 68 -85z" />
    <glyph glyph-name="seven.numerator" unicode="&#xf668;" horiz-adv-x="248" 
d="M94 655h222l-5 -29c-49 -81 -168 -268 -227 -361h-44c61 95 172 269 225 354l-1 1h-177z" />
    <glyph glyph-name="eight.numerator" unicode="&#xf669;" horiz-adv-x="284" 
d="M223 661c55 0 92 -34 92 -85c0 -47 -31 -83 -77 -104v-2c40 -22 57 -57 57 -94c0 -74 -65 -117 -129 -117c-69 0 -112 41 -112 95c0 61 45 101 93 120v2c-31 23 -43 49 -43 78c0 60 52 107 119 107zM168 290c48 0 86 34 86 83c0 40 -22 66 -71 84
c-42 -11 -87 -44 -87 -98c0 -35 23 -69 72 -69zM215 630c-40 0 -72 -34 -72 -74c0 -32 18 -54 59 -69c41 14 73 44 73 84c0 27 -12 59 -60 59z" />
    <glyph glyph-name="nine.numerator" unicode="&#xf66a;" horiz-adv-x="276" 
d="M58 259l4 35c10 -1 23 0 37 3c27 5 55 18 82 41c28 25 55 61 73 112h-1c-26 -29 -61 -45 -92 -45c-63 0 -90 51 -90 99c0 78 60 157 138 157c71 0 99 -55 99 -118c0 -98 -56 -189 -101 -228c-32 -28 -71 -46 -107 -53c-16 -2 -30 -3 -42 -3zM204 628
c-50 0 -92 -59 -92 -119c0 -41 20 -71 61 -71c33 0 62 20 82 49c3 5 6 10 7 17c3 11 5 27 5 43c0 47 -17 81 -63 81z" />
    <glyph glyph-name="period.numerator" unicode="&#xf66c;" horiz-adv-x="119" 
d="M74 259c-17 0 -28 14 -28 31c0 19 13 35 32 35c18 0 29 -14 29 -32c0 -19 -13 -34 -33 -34z" />
    <glyph glyph-name="comma.numerator" unicode="&#xf66b;" horiz-adv-x="119" 
d="M36 194l-32 -4c17 32 45 96 57 137l50 6c-20 -49 -57 -115 -75 -139z" />
    <glyph glyph-name="dollar.numerator" unicode="&#xf62f;" horiz-adv-x="242" 
d="M132 215h-31l12 60c-27 1 -59 13 -74 25l14 32c18 -13 42 -24 74 -24c46 0 82 29 82 72c0 29 -13 51 -50 71c-49 27 -73 56 -73 94c0 51 42 96 101 102l12 60h31l-12 -60c27 -1 51 -11 61 -19l-14 -30c-12 6 -30 18 -64 18c-45 0 -73 -29 -73 -65c0 -28 15 -44 57 -69
c45 -25 66 -56 66 -93c0 -65 -45 -106 -107 -114z" />
    <glyph glyph-name="cent.numerator" unicode="&#xf62e;" horiz-adv-x="252" 
d="M170 256h-31l12 63c-31 5 -52 18 -66 39c-14 20 -20 46 -20 71c0 90 65 168 144 178l11 61h31l-12 -59c20 0 45 -8 54 -15l-15 -31c-13 8 -31 14 -57 14c-57 0 -114 -64 -114 -146c0 -45 25 -81 75 -81c26 0 47 8 61 15l5 -31c-12 -8 -40 -16 -66 -16z" />
    <glyph glyph-name="hyphen.numerator" unicode="&#xf630;" horiz-adv-x="180" 
d="M64 462h140l-7 -33h-139z" />
    <glyph glyph-name="parenleft.numerator" unicode="&#xf631;" horiz-adv-x="164" 
d="M204 692h36c-64 -70 -128 -181 -128 -320c0 -55 10 -109 35 -167h-32c-25 50 -39 104 -39 169c0 143 69 255 128 318z" />
    <glyph glyph-name="parenright.numerator" unicode="&#xf632;" horiz-adv-x="164" 
d="M44 205h-37c64 72 129 182 129 322c0 54 -10 108 -35 165h32c25 -49 39 -102 39 -167c0 -144 -70 -255 -128 -320z" />
    <glyph glyph-name="zero.denominator" unicode="&#xf655;" horiz-adv-x="283" 
d="M96 -6c-68 0 -91 58 -91 130c0 130 68 272 166 272c71 0 91 -61 91 -118c0 -126 -60 -284 -166 -284zM104 27c75 0 117 165 117 248c0 32 -5 88 -54 88c-71 0 -121 -138 -121 -241c0 -44 9 -95 58 -95z" />
    <glyph glyph-name="one.denominator" unicode="&#xf656;" horiz-adv-x="194" 
d="M86 0h-39l67 350h-2l-72 -36l-4 33l90 43h34z" />
    <glyph glyph-name="two.denominator" unicode="&#xf657;" horiz-adv-x="261" 
d="M195 0h-230l5 28l62 51c90 77 164 145 164 217c0 34 -17 64 -65 64c-31 0 -62 -18 -77 -30l-14 28c24 19 62 37 101 37c66 0 97 -45 97 -97c0 -82 -83 -155 -167 -225l-42 -36v-2h173z" />
    <glyph glyph-name="three.denominator" unicode="&#xf658;" horiz-adv-x="250" 
d="M52 334l-10 29c19 16 57 32 91 32c63 0 91 -38 91 -83s-36 -80 -83 -98l-1 -2c41 -13 66 -49 65 -93c-1 -70 -56 -124 -145 -124c-39 0 -74 13 -90 25l15 31c15 -9 42 -23 79 -23c65 0 100 42 100 92c0 54 -45 75 -93 75h-16l5 31h18c49 0 105 34 105 83
c0 31 -17 52 -59 52c-27 0 -55 -13 -72 -27z" />
    <glyph glyph-name="four.denominator" unicode="&#xf659;" horiz-adv-x="276" 
d="M168 0h-38l21 114h-166l5 24l213 254h40l-47 -245h55l-7 -33h-55zM158 146l26 137c5 24 11 46 15 62h-2c-18 -24 -28 -42 -45 -64l-113 -133v-2h119z" />
    <glyph glyph-name="five.denominator" unicode="&#xf65a;" horiz-adv-x="255" 
d="M248 390l-7 -35h-129l-34 -109c6 1 12 1 19 1c15 0 43 -5 64 -18c32 -18 46 -52 46 -85c0 -93 -73 -150 -154 -150c-35 0 -65 11 -77 20l13 31c13 -8 39 -17 69 -17c58 0 107 49 107 107c0 45 -22 79 -92 79c-15 0 -27 -1 -41 -2l53 178h163z" />
    <glyph glyph-name="six.denominator" unicode="&#xf65b;" horiz-adv-x="282" 
d="M255 396l-5 -35c-9 0 -22 -1 -35 -4c-73 -16 -129 -70 -157 -154h1c23 31 62 52 97 52c61 0 91 -47 91 -104c0 -74 -57 -157 -138 -157c-70 0 -103 52 -103 124c0 91 49 176 97 218c28 24 61 42 100 52c16 5 34 7 52 8zM113 27c54 0 92 64 92 122c0 48 -23 73 -63 73
c-31 0 -65 -21 -87 -56c-3 -6 -6 -13 -7 -19c-2 -9 -2 -22 -2 -35c0 -50 22 -85 67 -85z" />
    <glyph glyph-name="seven.denominator" unicode="&#xf65c;" horiz-adv-x="248" 
d="M42 390h222l-5 -29c-49 -81 -168 -268 -227 -361h-44c61 95 172 269 225 354l-1 1h-177z" />
    <glyph glyph-name="eight.denominator" unicode="&#xf65d;" horiz-adv-x="284" 
d="M171 396c55 0 92 -34 92 -85c0 -48 -31 -83 -77 -105v-1c40 -23 57 -58 57 -94c0 -74 -65 -117 -129 -117c-69 0 -112 41 -112 95c0 61 45 101 92 120v2c-31 23 -43 49 -43 77c0 61 52 108 120 108zM116 25c48 0 86 34 86 82c0 41 -22 67 -71 85c-42 -12 -87 -44 -87 -98
c0 -35 23 -69 72 -69zM163 365c-41 0 -73 -35 -73 -74c0 -32 18 -55 59 -70c42 15 74 45 74 85c0 27 -13 59 -60 59z" />
    <glyph glyph-name="nine.denominator" unicode="&#xf65e;" horiz-adv-x="276" 
d="M5 -6l4 35c10 -1 23 0 37 3c27 5 55 18 82 41c28 25 55 61 73 112h-1c-26 -29 -61 -45 -92 -45c-63 0 -90 51 -90 99c0 78 60 157 138 157c71 0 99 -55 99 -118c0 -98 -56 -189 -101 -228c-32 -28 -71 -46 -107 -53c-16 -2 -30 -3 -42 -3zM151 363
c-50 0 -92 -59 -92 -119c0 -41 20 -71 61 -71c33 0 62 20 82 49c3 5 6 10 7 17c3 11 5 27 5 43c0 47 -17 81 -63 81z" />
    <glyph glyph-name="period.denominator" unicode="&#xf660;" horiz-adv-x="119" 
d="M21 -6c-17 0 -28 14 -28 31c0 19 13 35 32 35c18 0 29 -14 29 -32c0 -19 -13 -34 -33 -34z" />
    <glyph glyph-name="comma.denominator" unicode="&#xf65f;" horiz-adv-x="119" 
d="M-17 -71l-32 -4c17 32 45 96 57 137l50 6c-20 -49 -57 -115 -75 -139z" />
    <glyph glyph-name="dollar.denominator" unicode="&#xf62a;" horiz-adv-x="242" 
d="M79 -50h-31l12 60c-27 1 -59 13 -74 25l14 32c18 -13 42 -24 74 -24c46 0 82 29 82 72c0 29 -13 51 -50 71c-49 27 -73 56 -73 94c0 51 42 96 101 102l12 59h31l-12 -59c27 -1 51 -11 61 -19l-14 -31c-12 6 -30 18 -64 18c-45 0 -73 -28 -73 -64c0 -29 15 -45 57 -69
c45 -25 66 -56 66 -93c0 -65 -45 -106 -107 -114z" />
    <glyph glyph-name="cent.denominator" unicode="&#xf629;" horiz-adv-x="252" 
d="M118 -9h-31l12 62c-31 5 -52 18 -66 39c-14 20 -20 46 -20 71c0 91 65 169 144 179l11 61h31l-12 -59c20 0 45 -8 54 -16l-15 -31c-13 8 -31 14 -57 14c-57 0 -114 -64 -114 -145c0 -46 25 -82 75 -82c26 0 47 8 61 15l5 -31c-12 -8 -40 -16 -66 -16z" />
    <glyph glyph-name="hyphen.denominator" unicode="&#xf62b;" horiz-adv-x="180" 
d="M11 197h140l-7 -33h-139z" />
    <glyph glyph-name="parenleft.denominator" unicode="&#xf62c;" horiz-adv-x="164" 
d="M152 426h36c-64 -70 -128 -181 -128 -320c0 -54 10 -108 35 -166h-32c-25 50 -39 103 -39 168c0 144 69 255 128 318z" />
    <glyph glyph-name="parenright.denominator" unicode="&#xf62d;" horiz-adv-x="164" 
d="M-8 -60h-37c64 72 129 181 129 321c0 54 -10 108 -35 165h32c25 -49 39 -102 39 -167c0 -143 -70 -255 -128 -319z" />
    <glyph glyph-name="at.cap" unicode="&#xf633;" horiz-adv-x="659" 
d="M430 343l27 134c-11 4 -27 8 -52 8c-100 0 -178 -105 -178 -211c0 -49 25 -80 68 -80c63 0 122 85 135 149zM475 62l13 -33c-47 -30 -104 -41 -161 -41c-162 0 -279 111 -279 302c0 216 138 395 344 395c157 0 256 -112 256 -270c0 -167 -80 -257 -164 -257
c-34 0 -69 26 -63 89h-3c-39 -65 -85 -89 -137 -89c-51 0 -97 41 -97 117c0 118 93 246 232 246c36 0 65 -7 88 -16l-39 -189c-17 -83 -5 -121 28 -122c55 -1 112 85 112 208c0 151 -78 246 -220 246c-161 0 -294 -141 -294 -356c0 -164 93 -266 244 -266
c52 0 101 13 140 36z" />
    <glyph glyph-name="emdash.cap" unicode="&#xf6bc;" horiz-adv-x="1000" 
d="M51 349h941l-7 -37h-941z" />
    <glyph glyph-name="endash.cap" unicode="&#xf6bb;" horiz-adv-x="500" 
d="M51 349h441l-7 -37h-441z" />
    <glyph glyph-name="exclamdown.cap" unicode="&#xf6b4;" horiz-adv-x="206" 
d="M83 0h-53l103 497h38zM183 683c21 0 36 -19 36 -42c0 -25 -18 -45 -41 -45c-25 0 -37 20 -37 42c0 23 16 45 42 45z" />
    <glyph glyph-name="guillemotleft.cap" unicode="&#xf6b6;" horiz-adv-x="364" 
d="M244 504l-147 -178l97 -175h-44l-100 177l146 176h48zM385 504l-147 -178l97 -175h-44l-100 177l147 176h47z" />
    <glyph glyph-name="guillemotright.cap" unicode="&#xf6b7;" horiz-adv-x="364" 
d="M169 329l-97 175h43l101 -176l-146 -177h-48zM310 329l-97 175h44l100 -176l-146 -177h-48z" />
    <glyph glyph-name="guilsinglleft.cap" unicode="&#xf6b8;" horiz-adv-x="223" 
d="M244 504l-147 -178l97 -175h-44l-100 177l147 176h47z" />
    <glyph glyph-name="guilsinglright.cap" unicode="&#xf6b9;" horiz-adv-x="223" 
d="M169 329l-97 175h44l100 -176l-146 -177h-48z" />
    <glyph glyph-name="hyphen.cap" unicode="&#xf6ba;" horiz-adv-x="296" 
d="M59 364h228l-8 -41h-228z" />
    <glyph glyph-name="questiondown.cap" unicode="&#xf6b5;" horiz-adv-x="334" 
d="M224 499h42c0 -7 -1 -15 -1 -22c-2 -57 -30 -125 -96 -198c-44 -48 -92 -101 -92 -173c0 -43 24 -81 83 -81c30 0 61 9 86 25l14 -36c-32 -17 -71 -29 -108 -29c-93 0 -122 68 -122 123c0 71 53 137 110 198c53 58 76 105 81 167zM273 683h2c21 0 36 -19 36 -42
c0 -25 -18 -45 -41 -45c-25 0 -37 20 -37 42c0 23 16 45 40 45z" />
    <glyph glyph-name="braceleft.cap" unicode="&#xf6b2;" horiz-adv-x="260" 
d="M44 312l6 34c65 -1 85 40 92 79c11 59 7 116 18 177c16 90 70 125 141 125h17l-7 -35h-18c-53 0 -81 -32 -92 -90c-11 -57 -5 -111 -15 -165c-11 -68 -42 -97 -83 -108v-2c36 -10 47 -38 47 -69c0 -33 -13 -76 -27 -117c-15 -41 -28 -80 -28 -108c0 -36 14 -65 61 -68h17
l-6 -35h-10c-60 0 -104 34 -104 96c0 38 14 81 28 121c14 41 28 80 28 109c0 14 0 57 -65 56z" />
    <glyph glyph-name="braceright.cap" unicode="&#xf6b3;" horiz-adv-x="260" 
d="M245 344l-6 -34c-65 1 -85 -40 -92 -79c-11 -58 -7 -116 -18 -176c-16 -90 -70 -125 -141 -125h-17l7 35h18c53 0 81 32 92 89c11 58 5 111 15 165c11 67 42 97 83 108v2c-36 11 -47 39 -47 69c0 32 14 74 28 116s27 82 27 110c0 36 -14 65 -61 68h-17l6 35h10
c60 0 104 -34 104 -96c0 -40 -14 -83 -28 -124c-15 -40 -28 -77 -28 -107c0 -14 0 -57 65 -56z" />
    <glyph glyph-name="bracketleft.cap" unicode="&#xf6b0;" horiz-adv-x="260" 
d="M184 -70h-149l152 797h149l-7 -35h-107l-138 -727h107z" />
    <glyph glyph-name="bracketright.cap" unicode="&#xf6b1;" horiz-adv-x="260" 
d="M112 727h150l-152 -797h-150l7 35h108l138 727h-108z" />
    <glyph glyph-name="parenleft.cap" unicode="&#xf6ae;" horiz-adv-x="260" 
d="M290 733h46c-114 -125 -215 -309 -215 -529c0 -98 16 -192 57 -283h-39c-41 85 -61 177 -61 285c0 227 110 414 212 527z" />
    <glyph glyph-name="parenright.cap" unicode="&#xf6af;" horiz-adv-x="260" 
d="M5 -79h-47c114 126 215 310 215 530c0 98 -16 192 -57 282h39c41 -84 61 -176 61 -284c0 -227 -110 -414 -211 -528z" />
    <glyph glyph-name="periodcentered.cap" unicode="&#xf6bd;" horiz-adv-x="178" 
d="M103 292c-21 0 -36 19 -36 42c0 25 18 45 41 45c25 0 37 -20 37 -42s-16 -45 -42 -45z" />
    <glyph glyph-name="lessequal" unicode="&#x2264;" horiz-adv-x="596" 
d="M525 88l-454 203v38l454 203v-45l-402 -176v-2l402 -177v-44zM525 0h-452v39h452v-39z" />
    <glyph glyph-name="greaterequal" unicode="&#x2265;" horiz-adv-x="596" 
d="M525 291l-454 -203v44l402 177v2l-402 176v45l454 -203v-38zM523 0h-452v39h452v-39z" />
    <glyph glyph-name="approxequal" unicode="&#x2248;" horiz-adv-x="596" 
d="M541 405l25 -30c-30 -31 -88 -65 -146 -65c-61 0 -98 23 -130 36c-30 12 -65 34 -117 34c-44 0 -93 -28 -121 -56l-25 30c30 31 88 65 146 65c61 0 98 -23 130 -36c30 -12 65 -34 117 -34c44 0 93 28 121 56zM547 215l25 -30c-30 -31 -88 -65 -146 -65
c-61 0 -98 23 -130 36c-30 12 -65 34 -117 34c-44 0 -93 -28 -121 -56l-25 30c30 31 88 65 146 65c61 0 98 -23 130 -36c30 -12 65 -34 117 -34c44 0 93 28 121 56z" />
    <glyph glyph-name="notequal" unicode="&#x2260;" horiz-adv-x="596" 
d="M556 156h-310l-85 -134h-44l86 134h-163v39h188l97 151h-285v39h310l85 134h44l-86 -134h163v-39h-188l-97 -151h285v-39z" />
    <glyph glyph-name="infinity" unicode="&#x221e;" horiz-adv-x="713" 
d="M533 129c-74 0 -127 62 -175 108c-50 -50 -105 -108 -185 -108c-76 0 -132 55 -132 134c0 75 61 137 140 137c75 0 128 -62 177 -110c49 52 104 110 184 110c76 0 132 -55 132 -137c0 -72 -61 -134 -141 -134zM537 168c55 0 96 45 96 95c0 56 -39 98 -94 98
c-64 0 -116 -56 -155 -98c44 -40 87 -95 153 -95zM177 168c63 0 115 54 154 95c-44 40 -87 98 -152 98c-56 0 -97 -45 -97 -98c0 -54 39 -95 95 -95z" />
    <glyph glyph-name="lozenge" unicode="&#x25ca;" horiz-adv-x="452" 
d="M428 325l-232 -346h-41l-106 346l232 346h41zM382 324l-84 284c-2 5 -3 12 -4 20h-2c-3 -8 -8 -15 -12 -20l-185 -282l84 -284c2 -5 4 -12 5 -20h2c3 7 7 15 11 20z" />
    <glyph glyph-name="integral" unicode="&#x222b;" horiz-adv-x="247" 
d="M333 780l-14 -35c-7 2 -17 4 -27 4c-79 0 -97 -126 -107 -191c-21 -132 -44 -338 -67 -477c-15 -99 -48 -222 -150 -222c-17 0 -30 4 -38 8l10 35c8 -3 19 -5 32 -5c77 0 97 133 106 186c22 139 46 349 66 478c15 95 46 226 155 226c15 0 26 -3 34 -7z" />
    <glyph glyph-name="partialdiff" unicode="&#x2202;" horiz-adv-x="455" 
d="M127 646l-14 31c35 25 83 47 142 47c103 0 196 -87 196 -270c0 -205 -103 -464 -281 -464c-92 0 -141 72 -141 166c0 139 96 278 236 278c64 0 117 -45 133 -88h1c6 34 10 72 10 107c0 161 -79 230 -157 230c-56 0 -99 -19 -125 -37zM178 30c102 0 180 122 209 262
c-15 57 -69 102 -129 102c-110 0 -182 -118 -182 -238c0 -77 38 -126 102 -126z" />
    <glyph glyph-name="product" unicode="&#x220f;" horiz-adv-x="545" 
d="M584 611h-70l-141 -701h-43l140 701h-259l-141 -701h-43l141 701h-72l8 39h488z" />
    <glyph glyph-name="radical" unicode="&#x221a;" horiz-adv-x="498" 
d="M582 819l-365 -923h-37l-67 439l-71 -27l-8 31l113 45l53 -372c3 -18 5 -41 5 -56h1c5 15 13 38 20 56l315 807h41z" />
    <glyph glyph-name="summation" unicode="&#x2211;" horiz-adv-x="475" 
d="M393 -90h-430l6 32l296 339l-164 337l6 32h384l-7 -39h-331l-1 -3l161 -330l-283 -325l-1 -4h371z" />
    <glyph glyph-name="Delta" unicode="&#x2206;" horiz-adv-x="453" 
d="M453 0h-456l6 31l321 627h44l91 -627zM53 38h361l-56 395c-8 52 -17 125 -21 173h-3c-18 -43 -43 -96 -69 -150z" />
    <glyph glyph-name="Omega" unicode="&#x2126;" horiz-adv-x="583" 
d="M133 39l1 4c-45 51 -81 140 -81 230c0 238 137 411 307 411c129 0 212 -100 212 -243c0 -187 -100 -331 -188 -398v-4h131l-8 -39h-197l6 34c98 63 211 222 211 399c0 105 -51 213 -172 213c-163 0 -257 -199 -257 -359c0 -120 42 -208 93 -253l-7 -34h-197l8 39h138z
" />
    <glyph glyph-name="pi" unicode="&#x3c0;" horiz-adv-x="455" 
d="M463 443h-64l-57 -305c-15 -86 -15 -117 -11 -138h-41c-4 14 -8 47 8 133l58 310h-162c-8 -34 -15 -70 -25 -108c-32 -128 -79 -274 -124 -335h-44c46 68 92 197 125 332c9 38 18 76 26 111c-49 0 -76 -4 -95 -11l-3 29c17 12 46 19 103 19h315z" />
    <glyph glyph-name="aringacute" unicode="&#x1fb;" horiz-adv-x="458" 
d="M359 0h-42c-1 29 5 74 12 129h-2c-55 -106 -116 -139 -178 -139c-74 0 -118 60 -118 146c0 163 117 354 303 354c34 0 72 -6 97 -14l-51 -259c-17 -89 -23 -166 -21 -217zM347 269l34 175c-11 4 -28 7 -57 7c-139 0 -247 -154 -248 -305c-1 -62 17 -118 83 -118
c77 0 165 117 188 241zM416 829h74l-147 -112h-42zM326 694c50 0 86 -35 86 -87c0 -55 -48 -89 -91 -89c-50 0 -87 36 -87 83c0 53 41 93 92 93zM323 664c-28 0 -52 -25 -52 -61c0 -31 21 -55 50 -55s54 25 54 62c0 30 -20 54 -52 54z" />
    <glyph glyph-name="Abreve" unicode="&#x102;" horiz-adv-x="500" 
d="M369 236h-230l-116 -236h-44l337 674h42l81 -674h-43zM159 274h205l-26 214c-4 40 -8 87 -11 129h-3c-18 -43 -35 -83 -56 -127zM253 826h34c-1 -29 17 -55 64 -55c45 0 72 25 80 55h35c-8 -48 -47 -93 -117 -93c-75 0 -103 45 -96 93z" />
    <glyph glyph-name="Amacron" unicode="&#x100;" horiz-adv-x="500" 
d="M369 236h-230l-116 -236h-44l337 674h42l81 -674h-43zM159 274h205l-26 214c-4 40 -8 87 -11 129h-3c-18 -43 -35 -83 -56 -127zM246 771h208l-7 -38h-208z" />
    <glyph glyph-name="Aogonek" unicode="&#x104;" horiz-adv-x="500" 
d="M358 674l81 -674h-9c-33 -37 -63 -83 -63 -121c0 -24 16 -40 38 -40c15 0 27 3 41 11l9 -28c-17 -15 -43 -20 -65 -20c-42 0 -67 28 -67 70c0 53 51 109 72 134l-26 230h-230l-116 -236h-44l337 674h42zM159 274h204l-26 214c-3 40 -7 87 -10 129h-3
c-18 -43 -35 -83 -56 -127z" />
    <glyph glyph-name="i.dot" horiz-adv-x="191" 
d="M72 0h-43l92 480h43zM163 574c-19 0 -31 17 -30 39c1 21 17 39 36 39c22 0 34 -17 33 -39c-2 -22 -16 -39 -39 -39z" />
    <glyph glyph-name="Cacute" unicode="&#x106;" horiz-adv-x="479" 
d="M410 57l10 -37c-33 -15 -86 -29 -147 -29c-151 0 -229 108 -229 264c0 112 38 246 127 333c66 63 146 95 232 95c61 0 106 -16 120 -28l-18 -36c-24 15 -64 25 -112 25c-71 0 -141 -30 -194 -83c-68 -71 -110 -185 -110 -295c0 -128 45 -236 193 -236c45 0 96 10 128 27z
M435 823h74l-136 -110h-43z" />
    <glyph glyph-name="Ccaron" unicode="&#x10c;" horiz-adv-x="479" 
d="M410 57l10 -37c-33 -15 -86 -29 -147 -29c-151 0 -229 108 -229 264c0 112 38 246 127 333c66 63 146 95 232 95c61 0 106 -16 120 -28l-18 -36c-24 15 -64 25 -112 25c-71 0 -141 -30 -194 -83c-68 -71 -110 -185 -110 -295c0 -128 45 -236 193 -236c45 0 96 10 128 27z
M396 713h-38l-75 110h48l49 -77h3l75 77h50z" />
    <glyph glyph-name="Ccircumflex" unicode="&#x108;" horiz-adv-x="479" 
d="M410 57l10 -37c-33 -15 -86 -29 -147 -29c-151 0 -229 108 -229 264c0 112 38 246 127 333c66 63 146 95 232 95c61 0 106 -16 120 -28l-18 -36c-24 15 -64 25 -112 25c-71 0 -141 -30 -194 -83c-68 -71 -110 -185 -110 -295c0 -128 45 -236 193 -236c45 0 96 10 128 27z
M369 820h38l75 -110h-46l-51 77h-2l-76 -77h-49z" />
    <glyph glyph-name="Cdotaccent" unicode="&#x10a;" horiz-adv-x="479" 
d="M411 57l10 -37c-34 -15 -86 -29 -148 -29c-151 0 -229 108 -229 264c0 112 38 246 127 333c66 63 146 95 232 95c62 0 106 -16 120 -28l-17 -36c-24 15 -65 25 -113 25c-70 0 -141 -30 -193 -83c-69 -71 -111 -185 -111 -295c0 -128 45 -236 193 -236c46 0 96 10 129 27z
M388 727c-20 0 -34 17 -34 37s17 40 39 40c23 0 35 -20 35 -37c0 -19 -16 -40 -40 -40z" />
    <glyph glyph-name="Dcaron" unicode="&#x10e;" horiz-adv-x="561" 
d="M31 2l125 664c43 8 88 12 135 12c101 0 177 -33 217 -89c25 -35 45 -90 45 -163c0 -127 -47 -265 -132 -342c-71 -63 -159 -88 -259 -88c-43 0 -90 2 -131 6zM193 633l-112 -594c30 -4 61 -5 83 -5c105 0 178 29 238 90c67 66 105 185 105 298c0 127 -55 218 -223 218
c-30 0 -67 -2 -91 -7zM350 710h-37l-75 110h47l49 -77h3l76 77h49z" />
    <glyph glyph-name="Ebreve" unicode="&#x114;" horiz-adv-x="405" 
d="M372 374l-8 -38h-226l-56 -298h256l-7 -38h-300l128 674h285l-8 -38h-241l-50 -262h227zM211 820h34c-1 -29 17 -56 64 -56c45 0 72 25 80 56h35c-8 -49 -47 -93 -117 -94c-75 0 -103 45 -96 94z" />
    <glyph glyph-name="Ecaron" unicode="&#x11a;" horiz-adv-x="405" 
d="M372 374l-8 -38h-226l-56 -298h256l-7 -38h-300l128 674h285l-8 -38h-241l-50 -262h227zM318 710h-38l-74 110h47l49 -77h3l76 77h49z" />
    <glyph glyph-name="Edotaccent" unicode="&#x116;" horiz-adv-x="405" 
d="M371 374l-7 -38h-227l-56 -298h257l-8 -38h-300l128 674h285l-7 -38h-242l-50 -262h227zM306 727c-20 0 -34 17 -34 37s17 40 39 40c23 0 35 -20 35 -37c0 -19 -16 -40 -40 -40z" />
    <glyph glyph-name="Emacron" unicode="&#x112;" horiz-adv-x="405" 
d="M372 374l-8 -38h-226l-56 -298h256l-7 -38h-300l128 674h285l-8 -38h-241l-50 -262h227zM207 771h208l-7 -38h-208z" />
    <glyph glyph-name="Eogonek" unicode="&#x118;" horiz-adv-x="405" 
d="M31 0l128 674h284l-7 -38h-241l-50 -262h226l-7 -38h-227l-56 -298h257l-8 -38h-14c-46 -32 -95 -83 -95 -127c0 -21 13 -35 35 -35c16 0 30 3 44 9l9 -28c-20 -13 -41 -18 -66 -18c-40 0 -66 26 -66 64c0 60 64 113 94 135h-240z" />
    <glyph glyph-name="Gbreve" unicode="&#x11e;" horiz-adv-x="536" 
d="M499 334l-58 -311c-30 -14 -86 -30 -149 -30c-87 0 -151 29 -194 84c-43 57 -52 127 -52 185c0 106 39 239 130 325c66 61 150 94 238 94c66 0 107 -16 124 -26l-17 -37c-30 16 -66 24 -117 24c-76 0 -147 -31 -207 -91c-67 -67 -106 -186 -106 -284
c0 -135 56 -235 211 -235c37 0 76 8 101 19l46 245h-140l7 38h183zM287 823h33c-1 -29 17 -55 64 -55c46 0 73 25 80 55h36c-8 -48 -47 -93 -117 -93c-76 0 -104 45 -96 93z" />
    <glyph glyph-name="Gcircumflex" unicode="&#x11c;" horiz-adv-x="536" 
d="M499 334l-58 -311c-30 -14 -86 -30 -149 -30c-87 0 -151 29 -194 84c-43 57 -52 127 -52 185c0 106 39 239 130 325c66 61 150 94 238 94c66 0 107 -16 124 -26l-17 -37c-30 16 -66 24 -117 24c-76 0 -147 -31 -207 -91c-67 -67 -106 -186 -106 -284
c0 -135 56 -235 211 -235c37 0 76 8 101 19l46 245h-140l7 38h183zM388 820h38l74 -110h-45l-51 77h-2l-77 -77h-49z" />
    <glyph glyph-name="Gcommaaccent" unicode="&#x122;" horiz-adv-x="536" 
d="M499 334l-58 -311c-30 -14 -86 -30 -149 -30c-87 0 -151 29 -194 84c-43 57 -52 127 -52 185c0 106 39 239 130 325c66 61 150 94 238 94c66 0 107 -16 124 -26l-17 -37c-30 16 -66 24 -117 24c-76 0 -147 -31 -207 -91c-67 -67 -106 -186 -106 -284
c0 -135 56 -235 211 -235c37 0 76 8 101 19l46 245h-140l7 38h183zM151 -209l-7 26c43 7 90 31 90 79c0 22 -12 40 -26 51l41 10c13 -9 28 -32 28 -56c0 -67 -62 -102 -126 -110z" />
    <glyph glyph-name="Gdotaccent" unicode="&#x120;" horiz-adv-x="536" 
d="M499 334l-58 -311c-30 -14 -86 -30 -150 -30c-86 0 -151 29 -193 84c-43 57 -52 127 -52 185c0 106 39 239 130 325c65 61 150 94 238 94c66 0 107 -16 124 -26l-17 -37c-30 16 -66 24 -117 24c-76 0 -148 -31 -207 -91c-67 -67 -106 -186 -106 -284
c0 -135 56 -235 211 -235c37 0 76 8 101 19l46 245h-140l7 38h183zM397 727c-20 0 -34 17 -34 37s17 40 39 40c23 0 35 -20 35 -37c0 -19 -16 -40 -40 -40z" />
    <glyph glyph-name="G_tildecomb" unicode="&#xe000;" horiz-adv-x="536" 
d="M500 334l-59 -311c-30 -14 -85 -30 -149 -30c-87 0 -151 29 -194 84c-43 57 -52 127 -52 185c0 106 39 239 130 325c65 61 150 94 239 94c65 0 106 -16 123 -26l-16 -37c-31 16 -67 24 -118 24c-76 0 -148 -31 -207 -91c-67 -67 -106 -186 -106 -284
c0 -135 56 -235 211 -235c38 0 77 8 101 19l46 245h-140l7 38h184zM285 717h-32c7 44 32 83 70 83c23 0 36 -8 53 -20c15 -9 28 -17 44 -17s28 12 34 38h31c-8 -45 -29 -79 -71 -79c-21 0 -34 7 -53 19c-16 10 -26 19 -42 18c-17 0 -28 -16 -34 -42z" />
    <glyph glyph-name="Hcircumflex" unicode="&#x124;" horiz-adv-x="549" 
d="M159 674h44l-58 -299h311l57 299h44l-128 -674h-44l64 337h-311l-64 -337h-43zM365 820h38l74 -110h-45l-51 77h-2l-77 -77h-49z" />
    <glyph glyph-name="Ibreve" unicode="&#x12c;" horiz-adv-x="194" 
d="M158 674h44l-129 -674h-43zM102 821h34c-1 -29 17 -55 64 -55c45 0 72 25 80 55h35c-8 -48 -47 -93 -117 -93c-75 0 -103 45 -96 93z" />
    <glyph glyph-name="Idotaccent" unicode="&#x130;" horiz-adv-x="194" 
d="M159 674h43l-128 -674h-43zM196 727c-20 0 -34 17 -34 37s17 40 39 40c23 0 35 -20 35 -37c0 -19 -16 -40 -40 -40z" />
    <glyph glyph-name="Imacron" unicode="&#x12a;" horiz-adv-x="194" 
d="M158 674h44l-129 -674h-43zM96 771h208l-7 -38h-208z" />
    <glyph glyph-name="Iogonek" unicode="&#x12e;" horiz-adv-x="194" 
d="M202 674l-129 -674h-7c-33 -37 -63 -83 -63 -121c0 -24 16 -40 38 -40c15 0 27 3 41 11l9 -28c-17 -15 -43 -20 -65 -20c-42 0 -67 28 -67 70c0 53 51 109 72 134l127 668h44z" />
    <glyph glyph-name="Itilde" unicode="&#x128;" horiz-adv-x="194" 
d="M158 674h44l-129 -674h-43zM115 716h-32c7 45 32 84 70 84c23 0 36 -8 53 -20c15 -9 28 -17 44 -17s28 12 34 38h31c-8 -45 -29 -79 -71 -79c-21 0 -34 7 -53 19c-16 10 -26 19 -42 18c-17 0 -28 -17 -34 -43z" />
    <glyph glyph-name="Jcircumflex" unicode="&#x134;" horiz-adv-x="311" 
d="M191 191l92 483h43l-93 -490c-27 -145 -85 -194 -181 -194c-34 0 -67 8 -82 16l11 38c19 -9 43 -14 75 -14c71 0 113 39 135 161zM307 820h37l75 -110h-46l-51 77h-2l-76 -77h-49z" />
    <glyph glyph-name="Kcommaaccent" unicode="&#x136;" horiz-adv-x="434" 
d="M31 0l128 674h43l-65 -341l4 1c25 29 48 54 68 77l246 263h54l-271 -288l160 -386h-47l-147 354l-77 -74l-53 -280h-43zM81 -209l-8 27c43 7 90 30 90 79c0 22 -12 40 -26 50l41 11c13 -9 28 -32 28 -56c0 -68 -62 -102 -125 -111z" />
    <glyph glyph-name="Lacute" unicode="&#x139;" horiz-adv-x="381" 
d="M31 0l128 674h44l-122 -636h255l-7 -38h-298zM277 820h73l-135 -110h-43z" />
    <glyph glyph-name="Lcaron" unicode="&#x13d;" horiz-adv-x="381" 
d="M30 0l128 674h44l-121 -636h255l-8 -38h-298zM245 510l-8 26c43 8 90 31 90 79c0 23 -12 41 -26 51l41 11c13 -10 28 -32 28 -56c0 -68 -62 -102 -125 -111z" />
    <glyph glyph-name="Lcommaaccent" unicode="&#x13b;" horiz-adv-x="381" 
d="M31 0l128 674h43l-121 -636h255l-8 -38h-297zM68 -208l-8 26c43 7 90 30 90 79c0 22 -12 40 -26 51l41 10c13 -9 28 -32 28 -56c0 -68 -62 -102 -125 -110z" />
    <glyph glyph-name="Ldot" unicode="&#x13f;" horiz-adv-x="381" 
d="M31 0l128 674h44l-122 -636h255l-7 -38h-298zM284 321c-20 0 -34 17 -34 37s17 40 39 40c23 0 35 -20 35 -37c0 -20 -16 -40 -40 -40z" />
    <glyph glyph-name="M_uni0302" unicode="&#xe001;" horiz-adv-x="697" 
d="M593 0h-42l56 429c7 59 20 144 29 193h-4c-25 -57 -56 -125 -90 -189l-227 -433h-30l-55 429c-10 75 -16 136 -20 193h-2c-12 -50 -29 -134 -44 -193l-107 -429h-43l173 674h51l60 -457c7 -53 13 -101 15 -142h3c18 41 41 87 68 140l240 459h54zM438 820h37l75 -110h-46
l-51 77h-1l-77 -77h-49z" />
    <glyph glyph-name="Nacute" unicode="&#x143;" horiz-adv-x="555" 
d="M73 0h-42l128 674h42l160 -448c25 -66 38 -115 50 -168l2 1c6 60 12 109 27 190l81 425h42l-128 -674h-40l-157 439c-28 70 -41 119 -52 179l-3 -1c-8 -64 -17 -120 -31 -196zM426 820h74l-136 -110h-43z" />
    <glyph glyph-name="Ncaron" unicode="&#x147;" horiz-adv-x="555" 
d="M73 0h-42l128 674h42l160 -448c25 -66 38 -115 50 -168l2 1c6 60 12 109 27 190l81 425h42l-128 -674h-40l-157 439c-28 70 -41 119 -52 179l-3 -1c-8 -64 -17 -120 -31 -196zM383 710h-37l-75 110h47l49 -77h3l76 77h49z" />
    <glyph glyph-name="N_uni0302" unicode="&#xe002;" horiz-adv-x="555" 
d="M73 0h-42l128 674h42l160 -448c25 -66 38 -115 50 -168l2 1c6 60 12 109 27 190l81 425h42l-128 -674h-40l-157 439c-28 70 -41 119 -52 179l-3 -1c-8 -64 -17 -120 -31 -196zM367 820h37l75 -110h-46l-51 77h-1l-77 -77h-49z" />
    <glyph glyph-name="Ncommaaccent" unicode="&#x145;" horiz-adv-x="555" 
d="M72 0h-42l128 674h42l160 -448c26 -66 39 -115 51 -168l2 1c5 60 11 109 27 190l81 425h41l-128 -674h-40l-157 439c-27 70 -40 119 -52 179l-3 -1c-8 -64 -16 -120 -31 -196zM149 -209l-8 27c43 7 90 30 90 79c0 22 -12 40 -26 50l41 11c13 -9 28 -32 28 -56
c0 -68 -62 -102 -125 -111z" />
    <glyph glyph-name="Obreve" unicode="&#x14e;" horiz-adv-x="577" 
d="M255 -10c-158 0 -210 136 -210 252c0 118 47 280 133 365c50 48 118 77 183 77c163 0 208 -137 208 -257c0 -114 -44 -273 -127 -356c-51 -52 -115 -81 -187 -81zM261 29c55 0 107 24 148 65c75 76 115 232 115 328c0 102 -24 223 -170 223c-57 0 -107 -25 -147 -65
c-75 -75 -117 -228 -117 -329c0 -104 37 -222 171 -222zM294 826h34c-1 -29 16 -55 63 -55c46 0 73 25 80 55h36c-8 -48 -47 -93 -117 -93c-75 0 -103 45 -96 93z" />
    <glyph glyph-name="Ohungarumlaut" unicode="&#x150;" horiz-adv-x="577" 
d="M255 -10c-158 0 -210 136 -210 252c0 118 47 280 133 365c50 48 118 77 183 77c163 0 208 -137 208 -257c0 -114 -44 -273 -127 -356c-51 -52 -115 -81 -187 -81zM261 29c55 0 107 24 148 65c75 76 115 232 115 328c0 102 -24 223 -170 223c-57 0 -107 -25 -147 -65
c-75 -75 -117 -228 -117 -329c0 -104 37 -222 171 -222zM386 820h66l-128 -104h-40zM508 820h67l-128 -104h-40z" />
    <glyph glyph-name="Omacron" unicode="&#x14c;" horiz-adv-x="577" 
d="M255 -10c-158 0 -210 136 -210 252c0 118 47 280 133 365c50 48 118 77 183 77c163 0 208 -137 208 -257c0 -114 -44 -273 -127 -356c-51 -52 -115 -81 -187 -81zM261 29c55 0 107 24 148 65c75 76 115 232 115 328c0 102 -24 223 -170 223c-57 0 -107 -25 -147 -65
c-75 -75 -117 -228 -117 -329c0 -104 37 -222 171 -222zM288 771h208l-7 -38h-208z" />
    <glyph glyph-name="Oslashacute" unicode="&#x1fe;" horiz-adv-x="577" 
d="M33 -28l-25 23l74 91c-27 48 -38 95 -38 160c0 120 45 263 118 344c55 61 128 94 199 94c68 0 116 -22 149 -64l69 82l27 -22l-75 -92c28 -48 37 -104 37 -157c0 -113 -44 -266 -116 -349c-53 -59 -124 -92 -197 -92c-66 0 -117 24 -153 66zM115 127l368 456
c-26 38 -64 62 -131 62c-113 0 -205 -112 -242 -248c-24 -89 -27 -180 3 -270h2zM498 544l-367 -453c28 -38 67 -62 134 -62c103 0 194 103 234 236c24 84 35 185 1 279h-2zM445 823h73l-136 -110h-43z" />
    <glyph glyph-name="Racute" unicode="&#x154;" horiz-adv-x="448" 
d="M30 0l126 666c36 8 79 12 116 12c63 0 110 -19 137 -50c23 -27 34 -63 34 -100c0 -95 -74 -178 -158 -201v-2c49 -15 73 -68 76 -149c6 -104 10 -152 16 -176h-45c-4 15 -9 88 -12 166c-5 101 -39 145 -112 145h-75l-59 -311h-44zM194 633l-54 -285h70
c113 0 187 81 187 177c0 77 -50 116 -134 116c-31 0 -53 -3 -69 -8zM360 820h73l-135 -110h-43z" />
    <glyph glyph-name="Rcaron" unicode="&#x158;" horiz-adv-x="448" 
d="M30 0l126 666c36 8 79 12 116 12c63 0 110 -19 137 -50c23 -27 34 -63 34 -100c0 -95 -74 -178 -158 -201v-2c49 -15 73 -68 76 -149c6 -104 10 -152 16 -176h-45c-4 15 -9 88 -12 166c-5 101 -39 145 -112 145h-75l-59 -311h-44zM194 633l-54 -285h70
c113 0 187 81 187 177c0 77 -50 116 -134 116c-31 0 -53 -3 -69 -8zM304 710h-38l-75 110h48l49 -77h3l76 77h49z" />
    <glyph glyph-name="Rcommaaccent" unicode="&#x156;" horiz-adv-x="448" 
d="M30 0l126 666c36 8 78 12 115 12c64 0 111 -19 138 -50c23 -27 34 -63 34 -100c0 -95 -74 -178 -158 -201v-2c49 -15 73 -68 76 -149c6 -104 10 -152 16 -176h-45c-4 15 -9 88 -12 166c-5 101 -39 145 -112 145h-76l-59 -311h-43zM194 633l-55 -285h71
c112 0 187 81 187 177c0 77 -51 116 -135 116c-31 0 -52 -3 -68 -8zM88 -209l-8 27c43 7 90 30 90 79c0 22 -12 40 -26 50l41 11c13 -9 28 -32 28 -56c0 -68 -62 -102 -125 -111z" />
    <glyph glyph-name="Sacute" unicode="&#x15a;" horiz-adv-x="403" 
d="M12 31l18 37c30 -22 72 -38 120 -38c90 0 160 63 160 156c0 58 -27 103 -94 147c-81 50 -117 104 -117 169c0 105 86 181 194 181c50 0 94 -17 112 -32l-18 -35c-20 12 -54 28 -101 28c-87 0 -143 -65 -143 -133c0 -63 31 -101 99 -143c71 -44 112 -98 112 -179
c0 -100 -69 -198 -213 -198c-48 0 -107 19 -129 40zM351 821h73l-135 -110h-43z" />
    <glyph glyph-name="Scedilla" unicode="&#x15e;" horiz-adv-x="403" 
d="M405 651l-18 -35c-20 12 -54 28 -101 28c-87 0 -143 -65 -143 -133c0 -63 31 -101 99 -143c71 -44 112 -99 112 -179c0 -86 -51 -171 -157 -193l-37 -51c30 -8 51 -32 51 -65c0 -45 -40 -78 -94 -78c-25 0 -48 8 -60 16l15 34c15 -10 32 -14 51 -14c26 0 47 15 47 39
c0 25 -28 39 -63 43l51 71c-6 0 -11 -1 -17 -1c-48 0 -107 19 -129 41l18 37c30 -22 72 -38 120 -38c90 0 160 62 160 156c0 58 -27 103 -94 146c-81 51 -117 105 -117 170c0 105 86 181 194 181c50 0 94 -17 112 -32z" />
    <glyph glyph-name="Scircumflex" unicode="&#x15c;" horiz-adv-x="403" 
d="M12 31l18 37c30 -22 72 -38 120 -38c90 0 160 63 160 156c0 58 -27 103 -94 147c-81 50 -117 104 -117 169c0 105 86 181 194 181c50 0 94 -17 112 -32l-18 -35c-20 12 -54 28 -101 28c-87 0 -143 -65 -143 -133c0 -63 31 -101 99 -143c71 -44 112 -98 112 -179
c0 -100 -69 -198 -213 -198c-48 0 -107 19 -129 40zM292 820h38l75 -110h-46l-51 77h-2l-76 -77h-49z" />
    <glyph glyph-name="Scommaaccent" unicode="&#x218;" horiz-adv-x="403" 
d="M12 31l18 37c30 -22 72 -38 120 -38c90 0 160 63 160 156c0 58 -27 103 -94 147c-81 50 -117 104 -117 169c0 105 86 181 194 181c50 0 94 -17 112 -32l-18 -35c-20 12 -54 28 -101 28c-87 0 -143 -65 -143 -133c0 -63 31 -101 99 -143c71 -44 112 -98 112 -179
c0 -100 -69 -198 -213 -198c-48 0 -107 19 -129 40zM66 -208l-8 26c43 7 90 31 90 79c0 22 -12 40 -26 51l41 10c13 -9 28 -32 28 -56c0 -68 -62 -102 -125 -110z" />
    <glyph glyph-name="Tcaron" unicode="&#x164;" horiz-adv-x="405" 
d="M134 0l120 636h-183l8 38h409l-8 -38h-183l-120 -636h-43zM309 710h-38l-74 110h47l49 -77h3l76 77h49z" />
    <glyph glyph-name="Tcommaaccent" unicode="&#x162;" horiz-adv-x="405" 
d="M134 0l120 636h-183l8 38h409l-7 -38h-183l-121 -636h-43zM64 -209l-8 27c43 7 90 30 90 79c0 22 -12 40 -26 50l41 11c13 -9 28 -32 28 -56c0 -68 -62 -102 -125 -111z" />
    <glyph glyph-name="Ubreve" unicode="&#x16c;" horiz-adv-x="546" 
d="M158 674h44l-81 -423c-6 -30 -8 -59 -8 -85c0 -95 54 -137 126 -137c94 0 160 66 190 220l81 425h44l-83 -430c-36 -190 -128 -254 -239 -254c-85 0 -163 50 -163 172c0 27 3 59 9 89zM273 821h34c-1 -29 17 -55 64 -55c45 0 72 25 80 55h35c-8 -48 -47 -93 -117 -93
c-75 0 -103 45 -96 93z" />
    <glyph glyph-name="Uhungarumlaut" unicode="&#x170;" horiz-adv-x="546" 
d="M158 674h44l-81 -423c-6 -30 -8 -59 -8 -85c0 -95 54 -137 126 -137c94 0 160 66 190 220l81 425h44l-83 -430c-36 -190 -128 -254 -239 -254c-85 0 -163 50 -163 172c0 27 3 59 9 89zM367 820h67l-128 -104h-40zM490 820h67l-129 -104h-39z" />
    <glyph glyph-name="Umacron" unicode="&#x16a;" horiz-adv-x="546" 
d="M158 674h44l-81 -423c-6 -30 -8 -59 -8 -85c0 -95 54 -137 126 -137c94 0 160 66 190 220l81 425h44l-83 -430c-36 -190 -128 -254 -239 -254c-85 0 -163 50 -163 172c0 27 3 59 9 89zM269 771h208l-7 -38h-208z" />
    <glyph glyph-name="Uogonek" unicode="&#x172;" horiz-adv-x="546" 
d="M314 -133l7 -30c-17 -11 -38 -16 -60 -16c-43 0 -70 25 -70 66c0 38 31 76 64 104c-8 0 -16 -1 -23 -1c-85 0 -163 50 -163 172c0 27 3 59 9 89l80 423h44l-81 -423c-6 -30 -8 -59 -8 -85c0 -95 54 -137 126 -137c94 0 160 66 190 220l81 425h44l-83 -430
c-23 -123 -70 -193 -131 -228c-22 -12 -50 -32 -66 -46c-23 -22 -39 -48 -39 -74c0 -25 16 -38 37 -38c16 0 28 2 42 9z" />
    <glyph glyph-name="Uring" unicode="&#x16e;" horiz-adv-x="546" 
d="M158 674h44l-81 -423c-6 -30 -8 -59 -8 -85c0 -95 54 -137 126 -137c94 0 161 66 190 220l81 425h44l-82 -430c-36 -190 -129 -254 -240 -254c-85 0 -163 50 -163 172c0 27 3 59 9 89zM371 863c52 0 85 -34 85 -83c0 -53 -45 -86 -91 -86c-50 0 -86 34 -86 80
c0 50 40 89 92 89zM368 835c-28 0 -50 -25 -50 -59c0 -30 19 -53 48 -53c28 0 51 24 51 58c0 30 -18 54 -49 54z" />
    <glyph glyph-name="Utilde" unicode="&#x168;" horiz-adv-x="546" 
d="M158 674h44l-81 -423c-6 -30 -8 -59 -8 -85c0 -95 54 -137 126 -137c95 0 161 66 191 220l81 425h43l-82 -430c-36 -190 -129 -254 -240 -254c-85 0 -163 50 -163 172c0 27 3 59 9 89zM291 716h-32c7 45 32 84 70 84c23 0 36 -8 53 -20c15 -9 28 -17 44 -17s28 12 34 38
h31c-8 -45 -29 -79 -71 -79c-21 0 -34 7 -53 19c-16 10 -26 19 -42 18c-17 0 -28 -17 -34 -43z" />
    <glyph glyph-name="Wacute" unicode="&#x1e82;" horiz-adv-x="755" 
d="M172 0h-42l-29 674h44l17 -465c3 -82 0 -112 -1 -147h3c12 34 24 67 59 142l212 470h44l18 -446c4 -83 4 -131 3 -166h3c17 49 32 91 56 146l208 466h46l-305 -674h-42l-19 458c-4 66 -3 92 1 164h-3c-20 -60 -33 -99 -55 -144zM528 820h74l-136 -110h-43z" />
    <glyph glyph-name="Wcircumflex" unicode="&#x174;" horiz-adv-x="755" 
d="M172 0h-42l-29 674h44l17 -465c3 -82 0 -112 -1 -147h3c12 34 24 67 59 142l212 470h44l18 -446c4 -83 4 -131 3 -166h3c17 49 32 91 56 146l208 466h46l-305 -674h-42l-19 458c-4 66 -3 92 1 164h-3c-20 -60 -33 -99 -55 -144zM464 820h37l75 -110h-46l-51 77h-2
l-76 -77h-49z" />
    <glyph glyph-name="Wdieresis" unicode="&#x1e84;" horiz-adv-x="755" 
d="M172 0h-42l-29 674h44l17 -465c3 -82 0 -112 -1 -147h3c12 34 24 67 59 142l212 470h44l18 -446c4 -83 4 -131 3 -166h3c17 49 32 91 56 146l208 466h46l-305 -674h-42l-19 458c-4 66 -3 92 1 164h-3c-20 -60 -33 -99 -55 -144zM390 727c-20 0 -34 17 -34 37s17 40 39 40
c23 0 35 -20 35 -37c0 -19 -16 -40 -40 -40zM552 727c-20 0 -34 17 -34 37s17 40 39 40c23 0 35 -20 35 -37c0 -19 -16 -40 -40 -40z" />
    <glyph glyph-name="Wgrave" unicode="&#x1e80;" horiz-adv-x="755" 
d="M172 0h-42l-29 674h44l17 -465c3 -82 0 -112 -1 -147h3c12 34 24 67 59 142l212 470h44l18 -446c4 -83 4 -131 3 -166h3c17 49 32 91 56 146l208 466h46l-305 -674h-42l-19 458c-4 66 -3 92 1 164h-3c-20 -60 -33 -99 -55 -144zM347 820h68l82 -110h-38z" />
    <glyph glyph-name="Ycircumflex" unicode="&#x176;" horiz-adv-x="456" 
d="M196 0h-43l55 289l-113 385h46l68 -239c17 -56 23 -85 27 -108h2c16 27 39 64 70 112l159 235h50l-266 -385zM305 820h38l74 -110h-45l-51 77h-2l-77 -77h-49z" />
    <glyph glyph-name="Ygrave" unicode="&#x1ef2;" horiz-adv-x="456" 
d="M196 0h-43l55 289l-113 385h46l68 -239c17 -56 23 -85 27 -108h2c16 27 39 64 70 112l159 235h50l-266 -385zM193 820h68l82 -110h-38z" />
    <glyph glyph-name="uni0232" unicode="&#x232;" horiz-adv-x="456" 
d="M196 0h-43l55 289l-113 385h46l68 -239c17 -56 23 -85 27 -108h2c16 27 39 64 70 112l159 235h50l-266 -385zM226 771h208l-7 -38h-208z" />
    <glyph glyph-name="Zacute" unicode="&#x179;" horiz-adv-x="453" 
d="M-19 0l6 30l453 603v3h-310l7 38h368l-6 -30l-454 -603l1 -3h342l-8 -38h-399zM392 820h74l-136 -110h-43z" />
    <glyph glyph-name="Zdotaccent" unicode="&#x17b;" horiz-adv-x="453" 
d="M-18 0l5 30l454 603l-1 3h-309l7 38h368l-6 -30l-454 -603l1 -3h341l-7 -38h-399zM325 727c-20 0 -34 17 -34 37s17 40 39 40c23 0 35 -20 35 -37c0 -19 -16 -40 -40 -40z" />
    <glyph glyph-name="AEacute" unicode="&#x1fc;" horiz-adv-x="666" 
d="M-1 0h-46l427 674h299l-8 -38h-230l-32 -263h217l-7 -38h-215l-36 -297h238l-8 -38h-276l30 263h-185zM191 301h167l28 218c4 37 10 85 16 121h-4c-20 -34 -44 -76 -70 -118zM558 820h73l-135 -110h-43z" />
    <glyph glyph-name="abreve" unicode="&#x103;" horiz-adv-x="458" 
d="M359 0h-42c-1 29 5 74 12 129h-2c-55 -106 -116 -139 -179 -139c-73 0 -117 60 -117 146c0 163 117 354 303 354c34 0 72 -6 97 -14l-51 -259c-17 -89 -23 -166 -21 -217zM347 269l34 175c-11 4 -28 7 -58 7c-138 0 -246 -154 -247 -305c-1 -62 17 -118 82 -118
c78 0 166 117 189 241zM206 672h34c-4 -40 19 -72 59 -72c49 0 76 35 86 72h35c-10 -67 -61 -111 -121 -111c-81 0 -102 57 -93 111z" />
    <glyph glyph-name="amacron" unicode="&#x101;" horiz-adv-x="458" 
d="M359 0h-42c-1 29 5 74 12 129h-2c-55 -106 -116 -139 -179 -139c-73 0 -117 60 -117 146c0 163 117 354 303 354c34 0 72 -6 97 -14l-51 -259c-17 -89 -23 -166 -21 -217zM347 269l34 175c-11 4 -28 7 -58 7c-138 0 -246 -154 -247 -305c-1 -62 17 -118 82 -118
c78 0 166 117 189 241zM208 631h197l-7 -38h-197z" />
    <glyph glyph-name="aogonek" unicode="&#x105;" horiz-adv-x="458" 
d="M431 476l-51 -259c-17 -89 -23 -166 -21 -217h-7c-33 -37 -63 -83 -63 -121c0 -24 16 -40 38 -40c15 0 27 3 41 11l9 -28c-17 -15 -43 -20 -65 -20c-42 0 -67 28 -67 70c0 53 51 109 72 134c0 29 5 72 12 123h-2c-55 -106 -116 -139 -179 -139c-73 0 -117 60 -117 146
c0 163 117 354 303 354c34 0 72 -6 97 -14zM347 269l34 175c-11 4 -28 7 -58 7c-138 0 -246 -154 -247 -305c-1 -62 17 -118 82 -118c78 0 166 117 189 241z" />
    <glyph glyph-name="a.superior" horiz-adv-x="309" 
d="M283 265h-36c0 17 2 40 5 68l-1 -1c-29 -49 -69 -72 -110 -72c-51 0 -83 43 -83 109c0 106 70 221 196 221c21 0 57 -6 75 -14l-39 -214c-6 -37 -7 -69 -7 -97zM266 429l22 120c-11 5 -26 7 -47 7c-75 0 -142 -78 -143 -182c-1 -43 13 -80 55 -80c47 0 101 64 113 135z
" />
    <glyph glyph-name="cacute" unicode="&#x107;" horiz-adv-x="374" 
d="M302 55l10 -37c-20 -10 -63 -27 -121 -27c-116 0 -157 86 -157 176c0 148 101 323 266 323c38 0 73 -12 83 -21l-15 -36c-17 8 -42 17 -75 17c-134 0 -214 -154 -214 -277c0 -84 34 -143 121 -143c42 0 78 14 102 25zM324 674h68l-126 -136h-38z" />
    <glyph glyph-name="ccaron" unicode="&#x10d;" horiz-adv-x="374" 
d="M302 55l10 -37c-20 -10 -63 -27 -121 -27c-116 0 -157 86 -157 176c0 148 101 323 266 323c38 0 73 -12 83 -21l-15 -36c-17 8 -42 17 -75 17c-134 0 -214 -154 -214 -277c0 -84 34 -143 121 -143c42 0 78 14 102 25zM290 538h-33l-63 136h41l43 -97h2l75 97h43z" />
    <glyph glyph-name="ccircumflex" unicode="&#x109;" horiz-adv-x="374" 
d="M302 55l10 -37c-20 -10 -63 -27 -121 -27c-116 0 -157 86 -157 176c0 148 101 323 266 323c38 0 73 -12 83 -21l-15 -36c-17 8 -42 17 -75 17c-134 0 -214 -154 -214 -277c0 -84 34 -143 121 -143c42 0 78 14 102 25zM273 674h33l62 -136h-41l-42 97h-2l-73 -97h-44z" />
    <glyph glyph-name="cdotaccent" unicode="&#x10b;" horiz-adv-x="374" 
d="M302 55l10 -37c-20 -10 -63 -27 -121 -27c-116 0 -157 86 -157 176c0 148 101 323 266 323c38 0 73 -12 83 -20l-15 -37c-17 8 -42 17 -75 17c-134 0 -214 -154 -214 -277c0 -84 34 -143 121 -143c42 0 78 14 102 25zM293 575c-20 0 -33 16 -33 37c0 20 17 39 37 39
c23 0 34 -18 34 -36c0 -20 -14 -40 -38 -40z" />
    <glyph glyph-name="dcaron" unicode="&#x10f;" horiz-adv-x="468" 
d="M430 705h44l-107 -561c-8 -46 -17 -103 -19 -144h-40l13 97h-2c-38 -64 -94 -107 -163 -107c-86 0 -125 75 -125 161c0 170 116 339 272 339c32 0 66 -9 84 -20zM340 225l37 202c-17 14 -44 24 -81 24c-126 0 -220 -157 -220 -294c0 -61 16 -129 93 -129
c65 0 149 78 171 197zM487 542l-8 26c28 11 59 32 59 76c0 23 -12 43 -26 54l41 10c13 -9 28 -34 28 -59c0 -65 -52 -99 -94 -107z" />
    <glyph glyph-name="ebreve" unicode="&#x115;" horiz-adv-x="389" 
d="M302 62l13 -35c-25 -16 -71 -36 -131 -36c-112 0 -151 88 -151 180c0 138 96 319 234 319c79 0 112 -52 112 -105c0 -122 -140 -156 -297 -155c-5 -22 -6 -85 4 -119c17 -55 54 -81 105 -81c53 0 89 19 111 32zM334 383c0 45 -30 68 -75 68c-74 0 -141 -80 -170 -183
c125 -1 245 20 245 115zM171 672h35c-4 -40 18 -72 58 -72c50 0 77 35 87 72h35c-10 -67 -62 -111 -122 -111c-80 0 -102 57 -93 111z" />
    <glyph glyph-name="ecaron" unicode="&#x11b;" horiz-adv-x="389" 
d="M302 62l13 -35c-25 -16 -71 -36 -131 -36c-112 0 -151 88 -151 180c0 138 96 319 234 319c79 0 112 -52 112 -105c0 -122 -140 -156 -297 -155c-5 -22 -6 -85 4 -119c17 -55 54 -81 105 -81c53 0 89 19 111 32zM334 383c0 45 -30 68 -75 68c-74 0 -141 -80 -170 -183
c125 -1 245 20 245 115zM272 538h-33l-63 136h41l42 -97h3l75 97h43z" />
    <glyph glyph-name="edotaccent" unicode="&#x117;" horiz-adv-x="389" 
d="M302 62l13 -35c-25 -16 -71 -36 -131 -36c-112 0 -151 88 -151 180c0 138 96 319 234 319c79 0 112 -52 112 -105c0 -122 -140 -156 -297 -155c-5 -22 -6 -85 4 -119c17 -55 54 -81 105 -81c53 0 89 19 111 32zM334 383c0 45 -30 68 -75 68c-74 0 -141 -80 -170 -183
c125 -1 245 20 245 115zM275 575c-20 0 -33 16 -33 37c0 20 17 39 37 39c23 0 34 -18 34 -36c0 -20 -14 -40 -38 -40z" />
    <glyph glyph-name="emacron" unicode="&#x113;" horiz-adv-x="389" 
d="M302 62l13 -35c-25 -16 -71 -36 -131 -36c-112 0 -151 88 -151 180c0 138 96 319 234 319c79 0 112 -52 112 -105c0 -122 -140 -156 -297 -155c-5 -22 -6 -85 4 -119c17 -55 54 -81 105 -81c53 0 89 19 111 32zM334 383c0 45 -30 68 -75 68c-74 0 -141 -80 -170 -183
c125 -1 245 20 245 115zM173 631h198l-7 -38h-197z" />
    <glyph glyph-name="eogonek" unicode="&#x119;" horiz-adv-x="389" 
d="M334 383c0 45 -31 68 -75 68c-74 0 -141 -80 -170 -183c124 -1 245 20 245 115zM260 -138l6 -30c-20 -11 -43 -16 -64 -16c-42 0 -66 28 -66 67c0 43 37 84 72 108v1c-8 -1 -15 -2 -24 -2c-112 0 -152 89 -152 181c0 138 97 319 235 319c79 0 112 -52 112 -105
c0 -122 -140 -156 -297 -155c-5 -22 -6 -85 4 -120c17 -54 54 -81 104 -81c53 0 90 19 112 32l13 -34c-6 -4 -14 -8 -23 -13c-41 -21 -112 -68 -112 -122c0 -24 13 -40 35 -40c16 0 29 2 45 10z" />
    <glyph glyph-name="gbreve" unicode="&#x11f;" horiz-adv-x="458" 
d="M3 -174l16 37c27 -18 65 -31 113 -31c84 0 141 50 171 186l20 90h-2c-45 -80 -105 -112 -165 -112c-83 0 -125 71 -125 156c0 158 106 338 277 338c41 0 94 -15 121 -29l-76 -405c-21 -110 -46 -174 -87 -211c-40 -39 -94 -51 -141 -51c-50 0 -96 13 -122 32zM342 239
l38 194c-16 9 -45 18 -83 18c-134 0 -220 -158 -221 -286c-1 -61 15 -131 93 -131c79 0 155 111 173 205zM206 672h34c-4 -40 19 -72 59 -72c49 0 77 35 86 72h36c-11 -67 -62 -111 -122 -111c-80 0 -102 57 -93 111z" />
    <glyph glyph-name="gcircumflex" unicode="&#x11d;" horiz-adv-x="458" 
d="M3 -174l16 37c27 -18 65 -31 113 -31c84 0 141 50 171 186l20 90h-2c-45 -80 -105 -112 -165 -112c-83 0 -125 71 -125 156c0 158 106 338 277 338c41 0 94 -15 121 -29l-76 -405c-21 -110 -46 -174 -87 -211c-40 -39 -94 -51 -141 -51c-50 0 -96 13 -122 32zM342 239
l38 194c-16 9 -45 18 -83 18c-134 0 -220 -158 -221 -286c-1 -61 15 -131 93 -131c79 0 155 111 173 205zM294 674h34l62 -136h-42l-41 97h-2l-74 -97h-44z" />
    <glyph glyph-name="gcommaaccent" unicode="&#x123;" horiz-adv-x="458" 
d="M3 -174l16 37c27 -18 65 -31 113 -31c84 0 141 50 171 186l20 90h-2c-45 -80 -105 -112 -165 -112c-83 0 -125 71 -125 156c0 158 106 338 277 338c41 0 94 -15 121 -29l-76 -405c-21 -110 -46 -174 -87 -211c-40 -39 -94 -51 -141 -51c-50 0 -96 13 -122 32zM342 239
l38 194c-16 9 -45 18 -83 18c-134 0 -220 -158 -221 -286c-1 -61 15 -131 93 -131c79 0 155 111 173 205zM378 694l8 -26c-43 -8 -90 -31 -90 -79c0 -22 12 -40 26 -51l-40 -10c-13 9 -28 31 -28 56c0 67 63 102 124 110z" />
    <glyph glyph-name="gdotaccent" unicode="&#x121;" horiz-adv-x="458" 
d="M3 -174l16 37c27 -18 65 -31 113 -31c83 0 141 50 171 186l20 90h-2c-45 -80 -105 -112 -165 -112c-83 0 -125 71 -125 156c0 158 106 338 276 338c42 0 95 -15 122 -29l-76 -405c-21 -110 -47 -174 -87 -211c-41 -39 -95 -51 -141 -51c-50 0 -96 13 -122 32zM342 239
l38 194c-16 9 -46 18 -84 18c-134 0 -219 -158 -220 -286c-1 -61 15 -131 93 -131s155 111 173 205zM299 575c-20 0 -33 16 -33 37c0 20 17 39 37 39c23 0 34 -18 34 -36c0 -20 -14 -40 -38 -40z" />
    <glyph glyph-name="g_tildecomb" unicode="&#xe005;" horiz-adv-x="458" 
d="M3 -174l16 37c27 -18 65 -31 113 -31c84 0 141 50 172 186l20 90h-3c-45 -80 -105 -112 -165 -112c-83 0 -125 71 -125 156c0 158 106 338 277 338c42 0 95 -15 122 -29l-76 -405c-21 -110 -47 -174 -88 -211c-40 -39 -94 -51 -141 -51c-50 0 -96 13 -122 32zM343 239
l37 194c-16 9 -45 18 -83 18c-134 0 -220 -158 -221 -286c-1 -61 15 -131 93 -131c79 0 155 111 174 205zM223 572h-33c3 43 24 81 62 81c23 0 36 -10 56 -22c15 -8 27 -16 41 -16c17 0 25 9 28 40h33c-4 -44 -19 -78 -62 -78c-21 0 -39 10 -54 20c-14 8 -27 18 -42 18
c-20 0 -25 -17 -29 -43z" />
    <glyph glyph-name="hcircumflex" unicode="&#x125;" horiz-adv-x="470" 
d="M73 0h-43l133 705h44l-61 -316h2c41 64 96 101 164 101c46 0 106 -30 106 -117c0 -27 -3 -51 -7 -76l-56 -297h-43l57 300c3 18 6 39 6 69c0 46 -23 82 -78 82c-69 0 -156 -85 -176 -191zM185 836h38l74 -110h-45l-51 77h-2l-77 -77h-49z" />
    <glyph glyph-name="ibreve" unicode="&#x12d;" horiz-adv-x="191" 
d="M72 0h-43l92 480h43zM73 672h34c-4 -40 19 -72 59 -72c49 0 77 35 86 72h36c-11 -67 -62 -111 -122 -111c-81 0 -102 57 -93 111z" />
    <glyph glyph-name="imacron" unicode="&#x12b;" horiz-adv-x="191" 
d="M72 0h-43l92 480h43zM75 631h197l-7 -38h-197z" />
    <glyph glyph-name="iogonek" unicode="&#x12f;" horiz-adv-x="191" 
d="M164 577c-20 0 -32 17 -31 39s17 40 37 40c21 0 34 -18 33 -40c-2 -22 -16 -39 -39 -39zM165 480l-93 -480h-7c-33 -37 -63 -83 -63 -121c0 -24 16 -40 39 -40c14 0 27 3 41 11l9 -28c-18 -15 -44 -20 -66 -20c-42 0 -67 28 -67 70c0 53 51 109 72 134l92 474h43z" />
    <glyph glyph-name="itilde" unicode="&#x129;" horiz-adv-x="191" 
d="M72 0h-43l92 480h43zM90 572h-33c3 43 24 81 62 81c23 0 36 -10 56 -22c14 -8 27 -16 41 -16c17 0 25 9 28 40h33c-4 -44 -19 -78 -62 -78c-21 0 -39 10 -54 20c-14 8 -27 18 -42 18c-20 0 -25 -17 -29 -43z" />
    <glyph glyph-name="jcircumflex" unicode="&#x135;" horiz-adv-x="187" 
d="M123 480h43l-94 -491c-15 -78 -29 -124 -53 -152c-23 -26 -56 -43 -94 -43c-18 0 -31 1 -42 5l6 37c7 -2 21 -4 38 -4c43 0 77 26 98 132zM157 674h33l62 -136h-41l-42 97h-2l-73 -97h-44z" />
    <glyph glyph-name="kcommaaccent" unicode="&#x137;" horiz-adv-x="380" 
d="M72 0h-42l133 705h43l-85 -448h2c13 15 31 33 41 43l183 180h54l-200 -196l137 -284h-46l-123 257l-58 -54zM54 -209l-8 27c43 7 90 30 90 79c0 22 -12 40 -26 50l41 11c13 -9 28 -32 28 -56c0 -68 -62 -102 -125 -111z" />
    <glyph glyph-name="lacute" unicode="&#x13a;" horiz-adv-x="191" 
d="M72 0h-43l134 705h43zM257 844h74l-136 -110h-43z" />
    <glyph glyph-name="lcaron" unicode="&#x13e;" horiz-adv-x="196" 
d="M72 0h-43l134 705h43zM221 542l-8 26c28 11 59 32 59 76c0 23 -12 43 -26 54l41 10c13 -9 28 -34 28 -58c0 -65 -52 -99 -94 -108z" />
    <glyph glyph-name="lcommaaccent" unicode="&#x13c;" horiz-adv-x="191" 
d="M72 0h-43l134 705h43zM-40 -209l-8 27c43 7 90 30 90 79c0 22 -12 40 -26 50l41 11c13 -9 28 -32 28 -56c0 -68 -62 -102 -125 -111z" />
    <glyph glyph-name="ldot" unicode="&#x140;" horiz-adv-x="195" 
d="M72 0h-43l133 705h44zM214 325c-20 0 -33 16 -33 37c0 20 17 39 37 39c23 0 34 -18 34 -36c0 -20 -14 -40 -38 -40z" />
    <glyph glyph-name="m_uni0302" unicode="&#xe006;" horiz-adv-x="722" 
d="M73 0h-44l64 339c12 57 18 104 22 141h40l-14 -93h3c44 69 100 103 157 103c66 0 98 -45 101 -109c42 72 99 108 165 109c47 0 104 -33 104 -114c0 -24 -3 -52 -8 -81l-56 -295h-43l56 296c4 20 7 45 7 69c0 53 -20 86 -75 86c-64 0 -142 -75 -162 -183l-50 -268h-43
l57 301c5 24 7 43 7 66c0 42 -12 84 -76 84c-62 0 -145 -87 -164 -188zM426 674h33l62 -136h-41l-42 97h-2l-73 -97h-44z" />
    <glyph glyph-name="nacute" unicode="&#x144;" horiz-adv-x="470" 
d="M73 0h-44l64 339c12 57 18 104 22 141h40l-13 -98h2c42 70 102 108 167 108c47 0 107 -30 107 -121c0 -24 -4 -48 -9 -74l-55 -295h-43l56 295c4 22 7 45 7 70c0 50 -20 86 -79 86c-64 0 -154 -80 -175 -196zM357 674h68l-126 -136h-38z" />
    <glyph glyph-name="ncaron" unicode="&#x148;" horiz-adv-x="470" 
d="M73 0h-44l64 339c12 57 18 104 22 141h40l-13 -98h2c42 70 102 108 167 108c47 0 107 -30 107 -121c0 -24 -4 -48 -9 -74l-55 -295h-43l56 295c4 22 7 45 7 70c0 50 -20 86 -79 86c-64 0 -154 -80 -175 -196zM293 538h-33l-63 136h41l42 -97h3l75 97h43z" />
    <glyph glyph-name="n_uni0302" unicode="&#xe007;" horiz-adv-x="470" 
d="M73 0h-44l64 339c12 57 18 104 22 141h40l-13 -98h2c42 70 102 108 167 108c47 0 107 -30 107 -121c0 -24 -4 -48 -9 -74l-55 -295h-43l56 295c4 22 7 45 7 70c0 50 -20 86 -79 86c-64 0 -154 -80 -175 -196zM300 674h33l62 -136h-41l-42 97h-2l-73 -97h-44z" />
    <glyph glyph-name="ncommaaccent" unicode="&#x146;" horiz-adv-x="470" 
d="M73 0h-44l64 339c12 57 18 104 22 141h40l-13 -98h2c42 70 102 108 167 108c47 0 107 -30 107 -121c0 -24 -4 -48 -9 -74l-55 -295h-43l56 295c4 22 7 45 7 70c0 50 -20 86 -79 86c-64 0 -154 -80 -175 -196zM100 -209l-9 27c43 7 90 30 90 79c0 22 -12 40 -26 50l41 11
c13 -9 28 -32 28 -56c0 -68 -62 -102 -124 -111z" />
    <glyph glyph-name="obreve" unicode="&#x14f;" horiz-adv-x="452" 
d="M186 -10c-104 0 -153 87 -153 186c0 140 91 314 237 314c115 0 153 -98 153 -185c0 -123 -81 -315 -237 -315zM193 28c109 0 185 162 185 277c0 63 -24 147 -112 147c-112 0 -188 -149 -188 -272c0 -84 39 -152 115 -152zM199 672h34c-4 -40 19 -72 59 -72
c49 0 77 35 86 72h36c-11 -67 -62 -111 -122 -111c-81 0 -102 57 -93 111z" />
    <glyph glyph-name="ohungarumlaut" unicode="&#x151;" horiz-adv-x="452" 
d="M186 -10c-104 0 -153 87 -153 186c0 140 91 314 237 314c115 0 153 -98 153 -185c0 -123 -81 -315 -237 -315zM193 28c109 0 185 162 185 277c0 63 -24 147 -112 147c-112 0 -188 -149 -188 -272c0 -84 39 -152 115 -152zM279 674h63l-123 -136h-35zM401 674h64
l-122 -136h-36z" />
    <glyph glyph-name="omacron" unicode="&#x14d;" horiz-adv-x="452" 
d="M186 -10c-104 0 -153 87 -153 186c0 140 91 314 237 314c115 0 153 -98 153 -185c0 -123 -81 -315 -237 -315zM193 28c109 0 185 162 185 277c0 63 -24 147 -112 147c-112 0 -188 -149 -188 -272c0 -84 39 -152 115 -152zM205 631h198l-7 -38h-198z" />
    <glyph glyph-name="oslashacute" unicode="&#x1ff;" horiz-adv-x="454" 
d="M39 -27l-24 22l50 63c-24 35 -32 78 -32 123c0 137 91 309 235 309c47 0 80 -15 102 -37l44 53l27 -20l-49 -61c25 -38 32 -82 32 -117c0 -142 -94 -318 -231 -318c-49 0 -82 15 -108 41zM98 99l245 319c-16 21 -43 34 -80 34c-115 0 -185 -154 -185 -267
c0 -37 5 -61 18 -87zM362 384l-249 -318c18 -24 46 -38 84 -38c101 0 182 156 182 275c0 30 -6 56 -16 81h-1zM340 674h69l-126 -136h-38z" />
    <glyph glyph-name="racute" unicode="&#x155;" horiz-adv-x="268" 
d="M73 0h-44l61 323c12 61 19 115 23 157h40c-4 -31 -8 -63 -14 -104h2c30 64 77 114 137 114c6 0 14 -1 18 -2l-8 -45c-5 1 -10 2 -17 2c-63 0 -133 -95 -153 -201zM266 674h69l-127 -136h-37z" />
    <glyph glyph-name="rcaron" unicode="&#x159;" horiz-adv-x="268" 
d="M73 0h-44l61 323c12 61 19 115 23 157h40c-4 -31 -8 -63 -14 -104h2c30 64 77 114 137 114c6 0 14 -1 18 -2l-8 -45c-5 1 -10 2 -17 2c-63 0 -133 -95 -153 -201zM220 538h-33l-63 136h41l42 -97h3l75 97h43z" />
    <glyph glyph-name="rcommaaccent" unicode="&#x157;" horiz-adv-x="268" 
d="M73 0h-44l61 323c12 61 19 115 23 157h40c-4 -31 -8 -63 -14 -104h2c30 64 77 114 137 114c6 0 14 -1 18 -2l-8 -45c-5 1 -10 2 -17 2c-63 0 -133 -95 -153 -201zM-2 -209l-8 27c43 7 90 30 90 79c0 22 -12 40 -26 50l41 11c13 -9 28 -32 28 -56
c0 -68 -62 -102 -125 -111z" />
    <glyph glyph-name="sacute" unicode="&#x15b;" horiz-adv-x="320" 
d="M7 20l16 36c18 -12 49 -26 85 -26c63 0 105 45 105 99c0 48 -20 77 -65 106c-47 31 -73 74 -73 118c0 75 60 137 144 137c33 0 66 -11 80 -22l-16 -37c-15 9 -41 20 -69 20c-58 0 -96 -40 -96 -90c0 -45 25 -70 65 -96c46 -31 74 -75 74 -123c0 -97 -71 -151 -153 -151
c-43 0 -81 16 -97 29zM276 674h69l-127 -136h-37z" />
    <glyph glyph-name="scedilla" unicode="&#x15f;" horiz-adv-x="320" 
d="M299 468l-16 -37c-15 9 -41 20 -69 20c-58 0 -96 -40 -96 -90c0 -45 25 -70 65 -96c46 -31 74 -75 74 -123c0 -79 -46 -128 -108 -145l-38 -52c30 -8 51 -31 51 -65c0 -45 -40 -78 -94 -78c-25 0 -48 8 -60 16l15 34c15 -10 32 -14 51 -14c26 0 47 15 47 40
s-28 38 -63 43l51 70h-5c-43 0 -81 16 -97 29l16 36c18 -12 49 -26 85 -26c63 0 105 45 105 99c0 48 -20 77 -65 106c-47 31 -73 74 -73 118c0 75 60 137 144 137c33 0 66 -11 80 -22z" />
    <glyph glyph-name="scircumflex" unicode="&#x15d;" horiz-adv-x="320" 
d="M7 20l16 36c18 -12 49 -26 85 -26c63 0 105 45 105 99c0 48 -20 77 -65 106c-47 31 -73 74 -73 118c0 75 60 137 144 137c33 0 66 -11 80 -22l-16 -37c-15 9 -41 20 -69 20c-58 0 -96 -40 -96 -90c0 -45 25 -70 65 -96c46 -31 74 -75 74 -123c0 -97 -71 -151 -153 -151
c-43 0 -81 16 -97 29zM221 674h33l61 -136h-41l-41 97h-2l-74 -97h-43z" />
    <glyph glyph-name="scommaaccent" unicode="&#x219;" horiz-adv-x="320" 
d="M7 20l16 36c18 -12 49 -26 85 -26c63 0 105 45 105 99c0 48 -20 77 -65 106c-47 31 -73 74 -73 118c0 75 60 137 144 137c33 0 66 -11 80 -22l-16 -37c-15 9 -41 20 -69 20c-58 0 -96 -40 -96 -90c0 -45 25 -70 65 -96c46 -31 74 -75 74 -123c0 -97 -71 -151 -153 -151
c-43 0 -81 16 -97 29zM24 -208l-8 26c43 7 90 31 90 79c0 22 -12 40 -26 51l41 10c13 -9 28 -32 28 -56c0 -67 -62 -102 -125 -110z" />
    <glyph glyph-name="tcaron" unicode="&#x165;" horiz-adv-x="268" 
d="M153 566l48 19l-21 -105h113l-7 -37h-113l-54 -286c-6 -32 -10 -57 -10 -83c0 -28 13 -45 43 -45c16 0 27 1 35 4l3 -35c-13 -4 -30 -7 -47 -7c-57 0 -79 38 -79 78c0 26 3 51 11 88l54 286h-69l7 37h70zM264 542l-8 26c28 11 60 32 60 76c0 23 -12 43 -26 54l41 10
c13 -9 28 -34 28 -59c0 -64 -52 -99 -95 -107z" />
    <glyph glyph-name="tcommaaccent" unicode="&#x163;" horiz-adv-x="268" 
d="M153 566l48 20l-21 -106h113l-8 -37h-113l-53 -286c-6 -32 -10 -57 -10 -83c0 -28 13 -45 43 -45c16 0 26 1 35 4l3 -35c-13 -4 -30 -7 -47 -7c-57 0 -79 38 -79 78c0 26 3 51 11 88l54 286h-69l7 37h70zM8 -208l-8 26c43 7 90 31 90 79c0 22 -12 40 -26 51l41 10
c13 -9 28 -32 28 -56c0 -68 -62 -102 -125 -110z" />
    <glyph glyph-name="ubreve" unicode="&#x16d;" horiz-adv-x="463" 
d="M391 480h44l-65 -339c-10 -57 -16 -104 -19 -141h-41l13 94h-2c-39 -64 -99 -104 -160 -104c-52 0 -112 28 -112 127c0 22 3 44 8 71l55 292h43l-55 -288c-5 -28 -8 -50 -8 -74c0 -53 22 -88 81 -88c65 0 148 78 168 185zM186 672h35c-4 -40 18 -72 59 -72
c49 0 76 35 85 72h36c-10 -67 -62 -111 -121 -111c-81 0 -102 57 -94 111z" />
    <glyph glyph-name="uhungarumlaut" unicode="&#x171;" horiz-adv-x="463" 
d="M391 480h44l-65 -339c-10 -57 -16 -104 -19 -141h-41l13 94h-2c-39 -64 -99 -104 -160 -104c-52 0 -112 28 -112 127c0 22 3 44 8 71l55 292h43l-55 -288c-5 -28 -8 -50 -8 -74c0 -53 22 -88 81 -88c65 0 148 78 168 185zM283 674h63l-122 -136h-35zM406 674h63
l-122 -136h-35z" />
    <glyph glyph-name="umacron" unicode="&#x16b;" horiz-adv-x="463" 
d="M391 480h44l-65 -339c-10 -57 -16 -104 -19 -141h-41l13 94h-2c-39 -64 -99 -104 -160 -104c-52 0 -112 28 -112 127c0 22 3 44 8 71l55 292h43l-55 -288c-5 -28 -8 -50 -8 -74c0 -53 22 -88 81 -88c65 0 148 78 168 185zM203 631h197l-6 -38h-198z" />
    <glyph glyph-name="uogonek" unicode="&#x173;" horiz-adv-x="463" 
d="M435 480l-65 -339c-10 -57 -16 -104 -19 -141l-5 4c-33 -37 -63 -83 -63 -121c0 -24 16 -40 38 -40c15 0 27 3 41 11l9 -28c-17 -15 -43 -20 -65 -20c-42 0 -67 28 -67 70c0 52 51 109 73 134l11 84h-2c-39 -64 -99 -104 -160 -104c-52 0 -112 28 -112 127
c0 22 3 44 8 71l55 292h43l-55 -288c-5 -28 -8 -50 -8 -74c0 -53 22 -88 81 -88c65 0 148 78 168 185l50 265h44z" />
    <glyph glyph-name="uring" unicode="&#x16f;" horiz-adv-x="463" 
d="M391 480h44l-65 -339c-10 -57 -16 -104 -19 -141h-41l13 94h-2c-39 -64 -99 -104 -160 -104c-52 0 -112 28 -112 127c0 22 3 44 8 71l55 292h43l-55 -288c-5 -28 -8 -50 -8 -74c0 -53 22 -88 81 -88c65 0 148 78 168 185zM308 707c51 0 87 -35 87 -87
c0 -55 -49 -89 -92 -89c-51 0 -88 36 -88 83c0 54 42 93 93 93zM305 677c-28 0 -52 -25 -52 -61c0 -31 20 -55 51 -55c29 0 53 25 53 62c0 30 -20 54 -52 54z" />
    <glyph glyph-name="utilde" unicode="&#x169;" horiz-adv-x="463" 
d="M391 480h44l-65 -339c-10 -57 -16 -104 -19 -141h-41l13 94h-2c-39 -64 -99 -104 -160 -104c-52 0 -112 28 -112 127c0 22 3 44 8 71l55 292h43l-55 -288c-5 -28 -8 -50 -8 -74c0 -53 22 -88 81 -88c65 0 148 78 168 185zM226 572h-33c3 43 24 81 62 81
c23 0 36 -10 56 -22c15 -8 27 -16 41 -16c17 0 25 9 28 40h33c-4 -44 -19 -78 -62 -78c-21 0 -39 10 -54 20c-13 8 -27 18 -42 18c-19 0 -25 -17 -29 -43z" />
    <glyph glyph-name="wacute" unicode="&#x1e83;" horiz-adv-x="641" 
d="M64 480h42l22 -309c5 -57 6 -82 6 -112h2c9 22 23 59 47 104l161 317h41l33 -314c6 -48 9 -84 8 -107h3c11 29 23 62 41 102l149 319h46l-230 -480h-38l-35 318c-5 39 -7 76 -7 109h-2c-15 -34 -29 -70 -49 -109l-162 -318h-40zM437 674h68l-126 -136h-38z" />
    <glyph glyph-name="wcircumflex" unicode="&#x175;" horiz-adv-x="641" 
d="M64 480h42l22 -309c5 -57 6 -82 6 -112h2c9 22 24 59 47 104l161 317h41l34 -314c5 -48 8 -84 7 -107h3c11 29 23 62 41 102l149 319h46l-230 -480h-38l-35 318c-4 39 -7 76 -6 109h-3c-15 -34 -29 -70 -49 -109l-162 -318h-40zM383 674h33l62 -136h-41l-42 97h-2
l-73 -97h-44z" />
    <glyph glyph-name="wdieresis" unicode="&#x1e85;" horiz-adv-x="641" 
d="M64 480h42l22 -309c5 -57 6 -82 5 -112h3c9 22 23 59 47 104l160 317h41l34 -314c5 -48 9 -84 8 -107h3c11 29 22 62 41 102l149 319h45l-229 -480h-39l-35 318c-4 39 -7 76 -6 109h-2c-16 -34 -29 -70 -49 -109l-162 -318h-40zM306 575c-20 0 -33 17 -33 37s17 39 37 39
c22 0 34 -18 34 -36c0 -20 -14 -40 -38 -40zM466 575c-21 0 -33 17 -33 37s16 39 37 39c23 0 34 -18 34 -36c0 -20 -14 -40 -38 -40z" />
    <glyph glyph-name="wgrave" unicode="&#x1e81;" horiz-adv-x="641" 
d="M64 480h42l22 -309c5 -57 6 -82 6 -112h2c9 22 23 59 47 104l161 317h41l33 -314c6 -48 9 -84 8 -107h3c11 29 23 62 41 102l149 319h46l-230 -480h-38l-35 318c-5 39 -7 76 -7 109h-2c-15 -34 -29 -70 -49 -109l-162 -318h-40zM267 674h63l67 -136h-32z" />
    <glyph glyph-name="ycircumflex" unicode="&#x177;" horiz-adv-x="378" 
d="M51 480h44l48 -290c10 -54 15 -87 20 -131h2c14 35 31 72 54 121l137 300h46l-179 -383c-43 -94 -88 -179 -154 -242c-45 -45 -90 -65 -113 -71l-13 38c19 8 54 23 87 51c32 26 71 74 97 126c5 9 4 15 3 24zM241 674h34l61 -136h-41l-41 97h-2l-74 -97h-44z" />
    <glyph glyph-name="ygrave" unicode="&#x1ef3;" horiz-adv-x="378" 
d="M51 480h44l48 -290c10 -54 15 -87 20 -131h2c14 35 31 72 54 121l137 300h46l-179 -383c-43 -94 -88 -179 -154 -242c-45 -45 -90 -65 -113 -71l-13 38c19 8 54 23 87 51c32 26 71 74 97 126c5 9 4 15 3 24zM126 674h63l67 -136h-32z" />
    <glyph glyph-name="uni0233" unicode="&#x233;" horiz-adv-x="378" 
d="M51 480h44l48 -290c10 -54 15 -87 20 -131h2c14 35 31 72 54 121l137 300h46l-179 -383c-43 -94 -88 -179 -154 -242c-45 -45 -90 -65 -113 -71l-13 38c19 8 54 23 87 51c32 26 71 74 97 126c5 9 4 15 3 24zM168 631h197l-7 -38h-197z" />
    <glyph glyph-name="zacute" unicode="&#x17a;" horiz-adv-x="360" 
d="M-23 0l4 28l263 319c38 47 60 69 81 93v3h-245l8 37h297l-6 -31l-261 -317c-39 -47 -59 -69 -80 -92v-3h264l-7 -37h-318zM301 674h69l-126 -136h-38z" />
    <glyph glyph-name="zdotaccent" unicode="&#x17c;" horiz-adv-x="360" 
d="M-23 0l4 28l263 319c38 47 60 69 81 93v3h-245l7 37h298l-6 -31l-262 -317c-39 -47 -59 -69 -80 -92v-3h265l-8 -37h-317zM250 575c-20 0 -33 16 -33 37c0 20 17 39 37 39c23 0 34 -18 34 -36c0 -20 -14 -40 -38 -40z" />
    <glyph glyph-name="aeacute" unicode="&#x1fd;" horiz-adv-x="632" 
d="M544 62l14 -32c-27 -21 -71 -40 -133 -40c-74 0 -125 41 -141 111h-2c-33 -69 -93 -111 -163 -111c-77 0 -112 57 -113 114c0 123 112 194 288 187l5 26c11 62 -7 134 -91 134c-39 0 -70 -10 -105 -31l-12 32c45 30 93 38 124 38c70 0 118 -37 123 -109h2
c40 74 106 109 172 109c76 0 110 -51 110 -99c0 -127 -140 -142 -295 -138c-11 -51 -15 -103 -1 -147c16 -53 58 -77 107 -77c56 0 88 18 111 33zM275 188l12 65c-101 5 -236 -24 -236 -146c0 -47 29 -78 75 -78c60 0 128 47 149 159zM577 389c0 30 -23 63 -72 63
c-88 0 -148 -89 -168 -161c134 -2 240 9 240 98zM438 674h69l-127 -136h-38z" />
    <glyph glyph-name="space_uni0326" unicode="&#xf6c3;" 
d="M40 -209l-8 26c43 8 90 31 90 79c0 23 -12 41 -26 51l41 11c13 -10 28 -32 28 -56c0 -68 -62 -102 -125 -111z" />
    <glyph glyph-name="acute.cap" unicode="&#xf6c9;" 
d="M330 820h73l-135 -110h-43z" />
    <glyph glyph-name="breve.cap" unicode="&#xefee;" 
d="M181 826h34c-1 -29 17 -55 64 -55c45 0 72 25 80 55h35c-8 -48 -47 -93 -117 -93c-75 0 -103 45 -96 93z" />
    <glyph glyph-name="caron.cap" unicode="&#xf6ca;" 
d="M286 710h-37l-75 110h47l49 -77h3l76 77h49z" />
    <glyph glyph-name="cedilla.cap" unicode="&#xeff2;" 
d="M128 2h37l-42 -57c31 -8 50 -33 50 -64c0 -48 -42 -79 -92 -79c-26 0 -49 8 -61 17l14 33c15 -9 31 -14 49 -14c26 0 48 13 48 39c0 25 -27 39 -62 43z" />
    <glyph glyph-name="circumflex.cap" unicode="&#xeff7;" 
d="M266 820h37l75 -110h-46l-51 77h-1l-77 -77h-49z" />
    <glyph glyph-name="space_uni0326.cap" unicode="&#xf634;" 
d="M40 -209l-8 26c43 8 90 31 90 79c0 23 -12 41 -26 51l41 11c13 -10 28 -32 28 -56c0 -68 -62 -102 -125 -111z" />
    <glyph glyph-name="dieresis.cap" unicode="&#xf6cb;" 
d="M193 727c-20 0 -34 17 -34 37s17 40 39 40c23 0 35 -20 35 -37c0 -19 -16 -40 -40 -40zM355 727c-20 0 -34 17 -34 37s17 40 39 40c23 0 35 -20 35 -37c0 -19 -16 -40 -40 -40z" />
    <glyph glyph-name="dotaccent.cap" unicode="&#xefed;" 
d="M274 727c-20 0 -34 17 -34 37s17 40 39 40c23 0 35 -20 35 -37c0 -19 -16 -40 -40 -40z" />
    <glyph glyph-name="grave.cap" unicode="&#xf6ce;" 
d="M155 820h68l82 -110h-38z" />
    <glyph glyph-name="hungarumlaut.cap" unicode="&#xf6cf;" 
d="M267 820h66l-128 -104h-40zM389 820h67l-128 -104h-40z" />
    <glyph glyph-name="macron.cap" unicode="&#xf6d0;" 
d="M175 771h208l-7 -38h-208z" />
    <glyph glyph-name="ogonek.cap" unicode="&#xeff1;" 
d="M134 2h45c-40 -30 -86 -83 -86 -126c0 -24 14 -37 36 -37c16 0 29 3 43 10l8 -28c-20 -14 -42 -19 -66 -19c-39 0 -65 26 -65 64c0 60 56 111 85 136z" />
    <glyph glyph-name="ring.cap" unicode="&#xeff3;" 
d="M281 863c52 0 85 -34 85 -83c0 -53 -45 -86 -90 -86c-50 0 -86 34 -86 80c0 50 40 89 91 89zM279 835c-28 0 -50 -25 -50 -59c0 -30 19 -53 48 -53c27 0 50 24 50 58c0 30 -18 54 -48 54z" />
    <glyph glyph-name="tilde.cap" unicode="&#xeff5;" 
d="M194 716h-32c7 45 32 84 70 84c23 0 36 -8 53 -20c15 -9 28 -17 44 -17s28 12 34 38h31c-8 -45 -29 -79 -71 -79c-21 0 -34 7 -53 19c-16 10 -26 19 -42 18c-17 0 -28 -17 -34 -43z" />
    <glyph glyph-name="Alpha" unicode="&#x391;" horiz-adv-x="500" 
d="M369 236h-230l-116 -236h-44l337 674h42l81 -674h-43zM159 274h205l-26 214c-4 40 -8 87 -11 129h-3c-18 -43 -35 -83 -56 -127z" />
    <glyph glyph-name="Beta" unicode="&#x392;" horiz-adv-x="446" 
d="M31 5l125 661c34 7 71 12 115 12c60 0 106 -16 135 -48c23 -25 32 -58 32 -95c0 -84 -66 -154 -147 -176v-2c64 -20 108 -73 108 -152c0 -68 -33 -123 -73 -155c-48 -39 -112 -54 -184 -54c-43 0 -84 3 -111 9zM194 634l-49 -257h60c102 0 187 61 187 159
c0 71 -49 105 -131 105c-29 0 -54 -2 -67 -7zM138 341l-57 -301c20 -4 45 -6 68 -6c112 -1 205 56 205 175c0 84 -64 132 -149 132h-67z" />
    <glyph glyph-name="Gamma" unicode="&#x393;" horiz-adv-x="377" 
d="M158 674h289l-8 -38h-245l-120 -636h-44z" />
    <glyph glyph-name="uni0394" unicode="&#x394;" horiz-adv-x="524" 
d="M-20 0l5 31l336 643h45l97 -643l-6 -31h-477zM36 38h385l-64 408c-8 52 -17 125 -22 174h-3c-18 -43 -45 -95 -73 -150z" />
    <glyph glyph-name="Epsilon" unicode="&#x395;" horiz-adv-x="405" 
d="M372 374l-8 -38h-226l-56 -298h256l-7 -38h-300l128 674h285l-8 -38h-241l-50 -262h227z" />
    <glyph glyph-name="Zeta" unicode="&#x396;" horiz-adv-x="453" 
d="M-19 0l6 30l453 603v3h-310l7 38h368l-6 -30l-454 -603l1 -3h342l-8 -38h-399z" />
    <glyph glyph-name="Eta" unicode="&#x397;" horiz-adv-x="549" 
d="M159 674h44l-58 -299h311l57 299h44l-128 -674h-44l64 337h-311l-64 -337h-43z" />
    <glyph glyph-name="Theta" unicode="&#x398;" horiz-adv-x="577" 
d="M255 -10c-158 0 -210 136 -210 251c0 118 46 265 120 351c52 58 126 92 196 92c163 0 208 -137 208 -258c0 -107 -42 -257 -113 -340c-54 -62 -124 -96 -201 -96zM261 29c153 0 263 234 263 392c0 103 -24 224 -170 224c-159 0 -264 -237 -264 -394
c0 -104 37 -222 171 -222zM178 370h267l-6 -38h-267z" />
    <glyph glyph-name="Iota" unicode="&#x399;" horiz-adv-x="194" 
d="M158 674h44l-129 -674h-43z" />
    <glyph glyph-name="Kappa" unicode="&#x39a;" horiz-adv-x="434" 
d="M31 0l128 674h44l-65 -341l4 1c25 29 47 54 67 77l246 263h54l-271 -288l160 -386h-46l-147 354l-77 -74l-54 -280h-43z" />
    <glyph glyph-name="Lambda" unicode="&#x39b;" horiz-adv-x="502" 
d="M442 0h-42l-62 488c-5 49 -8 87 -9 131h-3c-18 -45 -35 -85 -57 -129l-244 -490h-46l338 674h43z" />
    <glyph glyph-name="Mu" unicode="&#x39c;" horiz-adv-x="697" 
d="M593 0h-42l56 429c7 59 20 144 29 193h-4c-25 -57 -56 -125 -90 -189l-227 -433h-30l-55 429c-10 75 -16 136 -20 193h-2c-12 -50 -29 -134 -44 -193l-107 -429h-43l173 674h51l60 -457c7 -53 13 -101 15 -142h3c18 41 41 87 68 140l240 459h54z" />
    <glyph glyph-name="Nu" unicode="&#x39d;" horiz-adv-x="555" 
d="M73 0h-42l128 674h42l160 -448c25 -66 38 -115 50 -168l2 1c6 60 12 109 27 190l81 425h42l-128 -674h-40l-157 439c-28 70 -41 119 -52 179l-3 -1c-8 -64 -17 -120 -31 -196z" />
    <glyph glyph-name="Xi" unicode="&#x39e;" horiz-adv-x="466" 
d="M127 674h372l-7 -38h-372zM102 371h311l-7 -38h-311zM4 38h387l-7 -38h-387z" />
    <glyph glyph-name="Omicron" unicode="&#x39f;" horiz-adv-x="577" 
d="M255 -10c-158 0 -210 136 -210 252c0 118 46 264 120 350c52 58 126 92 196 92c163 0 208 -137 208 -257c0 -108 -42 -258 -113 -341c-54 -62 -124 -96 -201 -96zM261 29c153 0 263 234 263 393c0 102 -24 223 -170 223c-159 0 -264 -236 -264 -394
c0 -104 37 -222 171 -222z" />
    <glyph glyph-name="Pi" unicode="&#x3a0;" horiz-adv-x="544" 
d="M551 674l-127 -674h-43l119 636h-306l-120 -636h-43l127 674h393z" />
    <glyph glyph-name="Rho" unicode="&#x3a1;" horiz-adv-x="439" 
d="M30 0l127 666c32 7 74 12 116 12c59 0 114 -18 143 -52c23 -29 34 -63 34 -108c0 -67 -33 -130 -69 -166c-48 -46 -118 -68 -184 -68c-25 0 -47 2 -68 6l-55 -290h-44zM194 633l-58 -304c24 -6 43 -7 66 -7c125 0 203 89 203 193c0 84 -53 125 -142 125
c-29 0 -54 -3 -69 -7z" />
    <glyph glyph-name="Sigma" unicode="&#x3a3;" horiz-adv-x="477" 
d="M49 42l-1 -4h380l-7 -38h-440l5 32l298 306l-169 303l4 33h391l-7 -38h-335l-1 -3l168 -299z" />
    <glyph glyph-name="Tau" unicode="&#x3a4;" horiz-adv-x="405" 
d="M134 0l120 636h-183l8 38h409l-8 -38h-183l-120 -636h-43z" />
    <glyph glyph-name="Upsilon" unicode="&#x3a5;" horiz-adv-x="489" 
d="M77 644l10 36c29 -5 75 -35 103 -76c41 -57 74 -152 65 -277h3c42 128 117 223 174 274c48 43 97 70 126 79l7 -36c-61 -32 -187 -120 -272 -321c-15 -34 -30 -72 -41 -131l-35 -192h-44l36 193c8 47 13 97 11 132c-6 213 -88 295 -143 319z" />
    <glyph glyph-name="Phi" unicode="&#x3a6;" horiz-adv-x="583" 
d="M220 -20l11 52c-97 9 -186 87 -186 235c0 220 156 379 303 377l10 50h43l-10 -50c105 -8 185 -94 185 -241c0 -209 -143 -368 -303 -371l-10 -52h-43zM239 69l101 538c-119 0 -250 -146 -250 -335c0 -117 61 -193 149 -203zM383 607l-102 -538c156 7 250 178 250 336
c0 124 -66 195 -148 202z" />
    <glyph glyph-name="Chi" unicode="&#x3a7;" horiz-adv-x="457" 
d="M395 0h-46l-65 186c-16 41 -29 80 -40 119h-3c-23 -35 -48 -72 -79 -115l-135 -190h-51l250 343l-114 331h46l66 -191c13 -37 23 -67 33 -102h2c20 33 43 65 68 101l142 192h52l-247 -328z" />
    <glyph glyph-name="Psi" unicode="&#x3a8;" horiz-adv-x="564" 
d="M600 674l-38 -202c-28 -153 -108 -244 -262 -250l-41 -222h-44l42 222c-83 7 -176 53 -176 186c0 29 4 53 9 85l34 181h43l-35 -186c-5 -31 -7 -60 -7 -78c0 -94 46 -143 139 -150l76 414h43l-76 -414c110 4 185 67 213 215l37 199h43z" />
    <glyph glyph-name="uni03A9" unicode="&#x3a9;" horiz-adv-x="583" 
d="M133 39l1 4c-45 51 -81 140 -81 230c0 238 137 411 307 411c129 0 212 -100 212 -243c0 -187 -100 -331 -188 -398v-4h131l-8 -39h-197l6 34c98 63 211 222 211 399c0 105 -51 213 -172 213c-163 0 -257 -199 -257 -359c0 -120 42 -208 93 -253l-7 -34h-197l8 39h138z
" />
    <glyph glyph-name="Alphatonos" unicode="&#x386;" horiz-adv-x="500" 
d="M369 236h-230l-116 -236h-44l337 674h42l81 -674h-43zM159 274h205l-26 214c-4 40 -8 87 -11 129h-3c-18 -43 -35 -83 -56 -127zM112 674h52l-38 -141h-28z" />
    <glyph glyph-name="Epsilontonos" unicode="&#x388;" horiz-adv-x="405" 
d="M372 374l-8 -38h-226l-56 -298h256l-7 -38h-300l128 674h285l-8 -38h-241l-50 -262h227zM39 674h51l-38 -141h-28z" />
    <glyph glyph-name="Etatonos" unicode="&#x389;" horiz-adv-x="549" 
d="M159 674h44l-58 -299h311l57 299h44l-128 -674h-44l64 337h-311l-64 -337h-43zM38 674h51l-38 -141h-28z" />
    <glyph glyph-name="Iotatonos" unicode="&#x38a;" horiz-adv-x="194" 
d="M158 674h44l-129 -674h-43zM39 674h52l-38 -141h-28z" />
    <glyph glyph-name="Iotadieresis" unicode="&#x3aa;" horiz-adv-x="194" 
d="M104 710c-21 0 -34 17 -34 37s17 40 39 40c23 0 35 -19 35 -37c0 -20 -15 -40 -40 -40zM264 710c-21 0 -34 17 -34 37s17 40 39 40c23 0 35 -19 35 -37c0 -20 -15 -40 -40 -40zM159 674h43l-128 -674h-43z" />
    <glyph glyph-name="Omicrontonos" unicode="&#x38c;" horiz-adv-x="577" 
d="M255 -10c-158 0 -210 136 -210 252c0 118 46 264 120 350c52 58 126 92 196 92c163 0 208 -137 208 -257c0 -108 -42 -258 -113 -341c-54 -62 -124 -96 -201 -96zM261 29c153 0 263 234 263 393c0 102 -24 223 -170 223c-159 0 -264 -236 -264 -394
c0 -104 37 -222 171 -222zM36 674h51l-38 -141h-28z" />
    <glyph glyph-name="Upsilontonos" unicode="&#x38e;" horiz-adv-x="509" 
d="M97 644l10 36c29 -5 75 -35 103 -76c41 -57 74 -152 65 -277h3c42 128 117 223 174 274c48 43 97 70 126 79l7 -36c-61 -32 -187 -120 -272 -321c-15 -34 -30 -72 -41 -131l-35 -192h-44l36 193c8 47 13 97 11 132c-6 213 -88 295 -143 319zM13 674h52l-38 -141h-28z" />
    <glyph glyph-name="Upsilondieresis" unicode="&#x3ab;" horiz-adv-x="489" 
d="M243 702c-21 0 -34 17 -34 37c0 21 17 40 39 40c23 0 35 -18 35 -37c0 -20 -15 -40 -40 -40zM403 702c-21 0 -34 17 -34 37c0 21 17 40 39 40c23 0 35 -18 35 -37c0 -20 -15 -40 -40 -40zM77 644l10 36c29 -5 75 -35 103 -76c41 -57 74 -152 65 -277h3
c42 128 117 223 175 274c47 43 96 70 125 79l7 -36c-61 -32 -187 -120 -272 -321c-15 -34 -30 -72 -41 -131l-35 -192h-44l36 193c8 47 13 97 11 132c-6 213 -88 295 -143 319z" />
    <glyph glyph-name="Omegatonos" unicode="&#x38f;" horiz-adv-x="588" 
d="M138 39l1 4c-45 51 -81 140 -81 230c0 238 137 411 307 411c129 0 212 -100 212 -243c0 -188 -99 -332 -188 -398v-4h131l-8 -39h-197l6 34c98 63 211 222 211 399c0 105 -51 213 -172 213c-163 0 -257 -199 -257 -359c0 -120 42 -208 93 -253l-7 -34h-197l8 39h138z
M39 674h52l-38 -141h-28z" />
    <glyph glyph-name="alpha" unicode="&#x3b1;" horiz-adv-x="466" 
d="M328 90h-4c-30 -54 -86 -100 -159 -100c-83 0 -135 63 -135 161c0 185 111 339 234 339c77 0 110 -52 117 -100h3c10 42 17 66 26 90h36c-7 -19 -20 -73 -29 -117c-15 -74 -32 -157 -45 -227c-14 -76 -12 -108 23 -108l-11 -38h-13c-27 0 -54 22 -43 100zM75 158
c0 -72 33 -130 103 -130c69 0 131 78 157 157c9 23 13 45 19 75c4 22 6 44 6 66c0 66 -34 126 -100 126c-93 0 -185 -139 -185 -294z" />
    <glyph glyph-name="beta" unicode="&#x3b2;" horiz-adv-x="467" 
d="M47 -196h-42c-6 30 2 88 14 154l95 512c20 105 53 167 91 201c34 32 69 44 110 44c72 0 121 -57 121 -136c0 -91 -55 -168 -115 -192v-5c54 -11 110 -69 110 -161c0 -161 -120 -231 -208 -231c-63 0 -108 25 -140 68l-2 -1l-14 -81c-10 -54 -24 -133 -20 -172zM221 360
l7 38c7 0 14 0 20 1c87 9 143 82 143 173c0 63 -30 105 -82 105c-80 0 -128 -81 -151 -208l-65 -355c19 -44 66 -86 133 -86c78 0 160 72 160 185c0 87 -55 145 -140 147h-25z" />
    <glyph glyph-name="gamma" unicode="&#x3b3;" horiz-adv-x="374" 
d="M121 -196h-45c16 78 40 187 37 266c-4 117 -49 318 -82 410h47c29 -74 72 -244 74 -399h3c69 101 154 240 177 366c2 8 4 24 4 33h42c1 -7 0 -22 -2 -35c-21 -120 -99 -263 -206 -402c-9 -12 -11 -17 -13 -28c-11 -70 -23 -141 -36 -211z" />
    <glyph glyph-name="delta" unicode="&#x3b4;" horiz-adv-x="453" 
d="M432 645l-24 -28c-27 33 -69 60 -119 60c-45 0 -68 -27 -68 -55c0 -32 23 -56 54 -88l66 -72c53 -56 81 -114 81 -196c0 -123 -84 -276 -224 -276c-92 0 -168 68 -168 194c0 155 106 265 217 313v4l-19 23c-23 27 -49 55 -49 96c0 46 40 95 111 95c72 0 118 -38 142 -70z
M313 429l-40 43c-97 -45 -198 -145 -198 -283c0 -112 64 -161 129 -161c100 0 173 128 173 238c0 62 -15 111 -64 163z" />
    <glyph glyph-name="epsilon" unicode="&#x3b5;" horiz-adv-x="354" 
d="M279 240h-62c-77 0 -156 -41 -156 -121c0 -58 49 -91 118 -91c54 0 105 19 125 31l9 -36c-22 -17 -85 -33 -139 -33c-84 0 -158 37 -158 124c0 76 65 137 136 147l1 5c-50 11 -78 46 -78 92c0 65 67 132 173 132c43 0 90 -12 108 -30l-15 -33c-12 8 -45 25 -100 25
c-75 0 -121 -44 -121 -94c0 -55 53 -80 121 -81h44z" />
    <glyph glyph-name="zeta" unicode="&#x3b6;" horiz-adv-x="347" 
d="M412 703l3 -36c-151 -89 -332 -296 -332 -467c0 -86 38 -127 115 -154c29 -11 62 -18 104 -23c5 -1 7 -4 7 -8c0 -33 -44 -117 -75 -149l-34 10c22 27 51 84 58 115c-24 4 -59 9 -94 24c-73 29 -126 78 -126 183c0 164 164 371 312 466v2h-77c-41 0 -79 1 -106 9l10 33
c26 -6 63 -5 98 -5h137z" />
    <glyph glyph-name="eta" unicode="&#x3b7;" horiz-adv-x="470" 
d="M142 382h2c42 70 102 108 167 108c47 0 107 -30 107 -121c0 -24 -4 -48 -8 -74l-60 -319c-10 -54 -24 -133 -21 -172h-40c-7 19 4 101 15 160l63 331c4 22 7 45 7 70c0 50 -20 86 -79 86c-64 0 -154 -80 -175 -196l-47 -255h-44l64 339c11 57 18 108 14 141h40
c4 -24 3 -49 -5 -98z" />
    <glyph glyph-name="theta" unicode="&#x3b8;" horiz-adv-x="446" 
d="M187 -10h-2c-78 0 -142 67 -142 217c0 40 6 107 21 182c40 201 120 326 239 326c82 0 138 -77 138 -207c0 -53 -6 -109 -15 -156c-47 -245 -120 -362 -239 -362zM109 384h278c8 48 9 85 9 123c0 97 -31 170 -101 170c-95 0 -157 -136 -186 -293zM379 347h-277
c-10 -56 -14 -99 -14 -139c0 -114 41 -180 104 -180c95 0 152 130 187 319z" />
    <glyph glyph-name="iota" unicode="&#x3b9;" horiz-adv-x="191" 
d="M163 480l-74 -390c-8 -45 -4 -62 30 -61l-11 -37c-4 -1 -11 -2 -19 -2c-24 0 -46 13 -47 61c1 28 9 64 22 133l56 296h43z" />
    <glyph glyph-name="kappa" unicode="&#x3ba;" horiz-adv-x="391" 
d="M172 257v-3c55 -15 87 -77 120 -140l60 -114h-48l-56 109c-36 65 -68 118 -121 118h-13l-42 -227h-42l71 382c7 41 11 81 8 98h39c4 -11 6 -41 -3 -87l-25 -135h4c106 98 186 171 244 222h52v-3c-70 -62 -140 -123 -248 -220z" />
    <glyph glyph-name="lambda" unicode="&#x3bb;" horiz-adv-x="378" 
d="M285 0l-45 304c-5 30 -10 69 -13 106l-4 1c-12 -29 -31 -72 -47 -103l-158 -308h-47l232 449c7 13 10 25 10 32c0 6 0 13 -2 24c-15 108 -39 170 -96 171h-10l8 37c7 1 13 1 21 1c74 -4 95 -80 119 -211l77 -503h-45z" />
    <glyph glyph-name="uni03BC" unicode="&#x3bc;" horiz-adv-x="461" 
d="M156 480l-58 -303c-15 -81 3 -147 85 -147c61 0 113 73 138 124c10 20 18 42 22 64l48 262h43l-66 -355c-13 -71 -7 -95 22 -97l-12 -38h-13c-28 0 -53 19 -43 100h-2c-28 -52 -83 -99 -146 -99c-44 0 -84 21 -100 66l-15 -82c-10 -53 -23 -132 -19 -171h-39
c-5 27 0 88 14 160l98 516h43z" />
    <glyph glyph-name="nu" unicode="&#x3bd;" horiz-adv-x="381" 
d="M43 480h43c14 -96 28 -191 42 -287c7 -53 11 -92 17 -139h3c59 92 161 257 187 370c4 22 7 43 7 56h42c1 -9 1 -27 -3 -46c-22 -120 -123 -288 -228 -434h-40c-23 160 -47 320 -70 480z" />
    <glyph glyph-name="xi" unicode="&#x3be;" horiz-adv-x="371" 
d="M335 390h-22c-139 -1 -235 -85 -235 -197c0 -77 47 -121 133 -146c41 -13 81 -20 116 -24c5 -1 7 -4 7 -9c0 -34 -47 -119 -76 -148l-34 11c23 27 53 85 60 115c-28 3 -77 13 -113 26c-74 27 -138 76 -138 169c0 125 101 203 185 225v4c-53 18 -91 67 -91 126
c0 88 77 173 194 173c46 0 85 -13 102 -27l-15 -33c-13 9 -47 22 -92 22c-90 0 -144 -62 -144 -134s58 -113 135 -116h34z" />
    <glyph glyph-name="omicron" unicode="&#x3bf;" horiz-adv-x="452" 
d="M186 -10c-104 0 -153 87 -153 186c0 140 91 314 237 314c115 0 153 -98 153 -185c0 -123 -81 -315 -237 -315zM193 28c109 0 185 162 185 277c0 63 -24 147 -112 147c-112 0 -188 -149 -188 -272c0 -84 39 -152 115 -152z" />
    <glyph glyph-name="rho" unicode="&#x3c1;" horiz-adv-x="470" 
d="M41 -196h-40c-3 26 4 88 17 160l46 249c21 113 50 170 84 210c38 44 85 67 147 67c89 0 146 -75 146 -177c0 -170 -100 -323 -230 -323c-55 0 -107 30 -127 83h-3l-17 -97c-10 -54 -25 -133 -23 -172zM110 225l-6 -32c-2 -11 -4 -29 -4 -44c0 -51 38 -121 114 -121
c96 0 182 125 182 286c0 71 -37 138 -111 138c-71 0 -144 -60 -175 -227z" />
    <glyph glyph-name="sigma" unicode="&#x3c3;" horiz-adv-x="459" 
d="M358 458v-4c51 -35 65 -105 65 -149c0 -123 -81 -315 -236 -315c-105 0 -154 87 -154 185c0 141 92 315 237 315h86h33h94l-7 -38c-21 0 -67 2 -118 6zM193 28c109 0 185 163 185 277c0 62 -24 147 -112 147c-112 0 -188 -149 -188 -272c0 -83 39 -152 115 -152z" />
    <glyph glyph-name="tau" unicode="&#x3c4;" horiz-adv-x="332" 
d="M213 30l-7 -35c-7 -3 -18 -5 -26 -5c-39 0 -73 24 -73 82c0 16 3 37 8 62l57 309h-51c-48 0 -73 -6 -91 -10l-1 27c14 10 45 20 96 20h242l-9 -37h-142l-58 -317c-5 -24 -6 -37 -6 -49c0 -38 19 -48 41 -48c8 0 13 0 20 1z" />
    <glyph glyph-name="upsilon" unicode="&#x3c5;" horiz-adv-x="437" 
d="M350 480h42c7 -15 12 -47 12 -84c0 -189 -71 -406 -234 -406c-66 0 -124 48 -124 133c0 11 2 26 5 44l28 147c16 86 24 141 21 166h39c6 -10 6 -45 -3 -89l-42 -226c-3 -14 -4 -28 -4 -38c0 -71 49 -99 88 -99c106 0 182 161 182 368c0 39 -5 69 -10 84z" />
    <glyph glyph-name="phi" unicode="&#x3c6;" horiz-adv-x="524" 
d="M201 27l63 343c14 79 44 120 102 120c63 0 127 -62 127 -179c0 -191 -120 -316 -256 -321l-35 -186h-44l36 186c-83 13 -159 74 -159 198c0 176 120 276 178 301l18 -28c-55 -28 -151 -119 -151 -265c0 -84 36 -153 121 -169zM307 377l-63 -350c110 7 204 125 204 280
c0 80 -34 145 -86 145c-27 0 -45 -23 -55 -75z" />
    <glyph glyph-name="chi" unicode="&#x3c7;" horiz-adv-x="361" 
d="M53 480h47l45 -168c10 -36 20 -78 28 -116h5c22 38 41 71 69 114c34 56 69 113 103 170h50c-70 -110 -140 -220 -210 -329l99 -341l-43 -13l-47 170c-14 49 -27 96 -40 148h-4c-19 -31 -39 -67 -62 -105c-42 -70 -84 -141 -127 -213l-39 17c72 118 144 233 216 348z" />
    <glyph glyph-name="psi" unicode="&#x3c8;" horiz-adv-x="534" 
d="M449 480h42c6 -17 12 -44 12 -81c0 -239 -107 -404 -258 -409l-35 -186h-43l35 186c-82 7 -146 53 -147 167c0 22 3 45 7 72l28 155c6 33 12 75 9 96h40c4 -11 3 -44 -4 -83l-28 -161c-5 -29 -8 -55 -8 -77c2 -90 49 -126 110 -131l106 571h43l-106 -571
c93 1 207 128 207 366c0 44 -6 74 -10 86z" />
    <glyph glyph-name="omega" unicode="&#x3c9;" horiz-adv-x="593" 
d="M464 486h43c28 -30 52 -98 52 -167c0 -186 -90 -329 -189 -329c-61 0 -91 34 -101 90h-3c-25 -54 -60 -90 -120 -90c-59 0 -117 51 -117 163c0 162 86 294 136 333h47v-2c-55 -45 -138 -173 -138 -328c0 -90 41 -127 81 -127c53 0 92 61 106 141l32 175h43l-31 -166
c-5 -22 -6 -38 -6 -54c0 -40 17 -96 75 -96c66 0 140 136 140 278c0 81 -22 146 -50 177v2z" />
    <glyph glyph-name="uni03C2" unicode="&#x3c2;" horiz-adv-x="356" 
d="M232 -134l-34 11c22 29 51 85 58 115c-22 3 -63 12 -93 25c-67 28 -127 84 -127 183c0 153 112 290 249 290c37 0 68 -8 86 -21l-15 -33c-21 10 -41 16 -74 16c-107 0 -201 -106 -201 -249c0 -80 42 -127 113 -154c38 -15 67 -21 104 -27c5 -1 7 -5 7 -10
c0 -38 -48 -119 -73 -146z" />
    <glyph glyph-name="alphatonos" unicode="&#x3ac;" horiz-adv-x="466" 
d="M325 674h68l-126 -136h-37zM328 90h-4c-30 -54 -86 -100 -159 -100c-83 0 -135 62 -135 161c0 185 111 339 234 339c77 0 110 -52 117 -100h3c10 42 17 66 26 90h36c-7 -19 -20 -73 -29 -117c-15 -74 -32 -157 -45 -227c-14 -76 -12 -108 23 -108l-11 -38h-13
c-27 0 -54 22 -43 100zM75 158c0 -72 32 -130 103 -130c69 0 131 78 157 157c9 23 13 45 19 75c4 22 6 44 6 66c0 66 -34 126 -100 126c-93 0 -185 -139 -185 -294z" />
    <glyph glyph-name="epsilontonos" unicode="&#x3ad;" horiz-adv-x="354" 
d="M290 674h69l-126 -136h-38zM279 240h-62c-77 0 -156 -41 -156 -121c0 -58 49 -91 118 -91c54 0 105 19 125 31l9 -34c-22 -17 -87 -35 -139 -35c-84 0 -158 37 -158 124c0 76 65 137 136 147l1 5c-50 11 -78 46 -78 92c0 65 67 132 173 132c43 0 91 -12 108 -30l-15 -33
c-12 8 -45 25 -100 25c-75 0 -121 -44 -121 -94c0 -55 53 -80 121 -81h44z" />
    <glyph glyph-name="etatonos" unicode="&#x3ae;" horiz-adv-x="470" 
d="M348 674h68l-126 -136h-38zM142 382h2c42 70 102 108 167 108c47 0 107 -30 107 -121c0 -24 -4 -48 -9 -74l-59 -319c-10 -54 -24 -133 -21 -172h-40c-7 19 4 101 15 160l63 331c4 22 7 45 7 70c0 50 -20 86 -79 86c-64 0 -154 -80 -175 -196l-47 -255h-44l64 339
c11 57 18 108 14 141h39c4 -24 3 -49 -4 -98z" />
    <glyph glyph-name="iotatonos" unicode="&#x3af;" horiz-adv-x="191" 
d="M219 674h69l-127 -136h-38zM163 480l-74 -390c-8 -45 -4 -62 30 -61l-11 -37c-4 -1 -11 -2 -19 -2c-24 0 -47 14 -47 62c0 24 10 67 19 117l59 311h43z" />
    <glyph glyph-name="iotadieresis" unicode="&#x3ca;" horiz-adv-x="191" 
d="M72 563c-21 0 -34 17 -34 37c0 21 17 40 38 40c24 0 36 -18 36 -37c0 -20 -15 -40 -40 -40zM232 563c-21 0 -34 17 -34 37c0 21 17 40 39 40c23 0 35 -18 35 -37c0 -20 -15 -40 -40 -40zM163 480l-74 -390c-9 -45 -5 -62 29 -61l-11 -37c-4 -1 -11 -2 -19 -2
c-24 0 -47 15 -47 62c0 24 11 70 20 116l59 312h43z" />
    <glyph glyph-name="omicrontonos" unicode="&#x3cc;" horiz-adv-x="452" 
d="M326 674h69l-127 -136h-38zM186 -10c-104 0 -153 87 -153 186c0 140 91 314 237 314c115 0 153 -98 153 -185c0 -123 -81 -315 -237 -315zM193 28c109 0 185 162 185 277c0 63 -24 147 -112 147c-112 0 -188 -149 -188 -272c0 -84 39 -152 115 -152z" />
    <glyph glyph-name="upsilontonos" unicode="&#x3cd;" horiz-adv-x="437" 
d="M305 674h68l-126 -136h-38zM350 480h42c7 -15 12 -47 12 -84c0 -189 -73 -406 -236 -406c-66 0 -122 48 -122 133c0 11 2 26 5 44l28 147c16 86 24 141 21 166h39c6 -10 6 -45 -3 -89l-42 -226c-3 -14 -4 -28 -4 -38c0 -71 48 -99 87 -99c106 0 183 161 183 368
c0 39 -5 69 -10 84z" />
    <glyph glyph-name="upsilondieresis" unicode="&#x3cb;" horiz-adv-x="437" 
d="M181 563c-21 0 -34 17 -34 37c0 21 17 40 39 40c23 0 35 -18 35 -37c0 -20 -15 -40 -40 -40zM341 563c-21 0 -34 17 -34 37c0 21 17 40 39 40c23 0 35 -18 35 -37c0 -20 -15 -40 -40 -40zM350 480h42c7 -15 12 -47 12 -84c0 -189 -73 -406 -236 -406
c-66 0 -122 48 -122 133c0 11 2 26 5 44l28 147c16 86 24 141 21 166h39c6 -10 6 -45 -3 -89l-42 -226c-3 -14 -4 -28 -4 -38c0 -71 48 -99 87 -99c106 0 183 161 183 368c0 39 -5 69 -10 84z" />
    <glyph glyph-name="omegatonos" unicode="&#x3ce;" horiz-adv-x="594" 
d="M406 674h68l-126 -136h-38zM464 486h43c28 -30 52 -98 52 -167c0 -186 -90 -329 -189 -329c-61 0 -91 34 -101 90h-3c-25 -54 -60 -90 -120 -90c-59 0 -117 51 -117 163c0 162 86 294 136 333h47v-2c-55 -45 -138 -173 -138 -328c0 -90 41 -127 81 -127
c53 0 92 61 106 141l32 175h43l-31 -166c-5 -22 -6 -38 -6 -54c0 -40 16 -96 74 -96c66 0 141 136 141 278c0 81 -22 146 -50 177v2z" />
    <glyph glyph-name="iotadieresistonos" unicode="&#x390;" horiz-adv-x="191" 
d="M163 480l-74 -390c-8 -45 -4 -62 30 -61l-11 -37c-4 -1 -11 -2 -19 -2c-24 0 -47 15 -47 63c0 25 11 70 20 118l58 309h43zM177 679h56l-90 -144h-28zM68 564c-20 0 -32 15 -32 34s16 37 36 37c22 0 32 -17 32 -34c0 -19 -13 -37 -36 -37zM264 564c-20 0 -32 15 -32 34
s16 37 35 37c22 0 33 -17 33 -34c0 -19 -13 -37 -36 -37z" />
    <glyph glyph-name="upsilondieresistonos" unicode="&#x3b0;" horiz-adv-x="437" 
d="M350 480h42c7 -15 12 -47 12 -84c0 -189 -73 -406 -236 -406c-66 0 -122 48 -122 133c0 11 2 26 5 44l28 147c16 86 24 141 21 166h39c6 -10 6 -45 -3 -89l-42 -226c-3 -14 -4 -28 -4 -38c0 -71 48 -99 87 -99c106 0 183 161 183 368c0 39 -5 69 -10 84zM271 679h56
l-89 -144h-29zM162 564c-20 0 -32 15 -32 34s16 37 35 37c22 0 33 -17 33 -34c0 -19 -13 -37 -36 -37zM358 564c-20 0 -32 15 -32 34s16 37 35 37c22 0 33 -17 33 -34c0 -19 -13 -37 -36 -37z" />
    <glyph glyph-name="uni037E" unicode="&#x37e;" horiz-adv-x="178" 
d="M11 -121l-38 -5c20 42 61 150 77 212l62 3c-27 -68 -83 -182 -101 -210zM127 348c-22 0 -38 20 -38 44c0 26 19 47 43 47c26 0 39 -20 39 -44s-17 -47 -44 -47z" />
    <glyph glyph-name="anoteleia" unicode="&#x387;" horiz-adv-x="178" 
d="M102 278c-22 0 -37 19 -37 43c0 25 18 46 41 46c26 0 39 -20 39 -43s-17 -46 -43 -46z" />
    <glyph glyph-name="tonos" unicode="&#x384;" 
d="M298 674h68l-126 -136h-38z" />
    <glyph glyph-name="dieresistonos" unicode="&#x385;" horiz-adv-x="293" 
d="M217 686h56l-90 -144h-28zM108 572c-20 0 -32 15 -32 34s16 37 35 37c22 0 33 -17 33 -34c0 -19 -13 -37 -36 -37zM304 572c-20 0 -32 15 -32 34s16 37 35 37c22 0 33 -17 33 -34c0 -19 -13 -37 -36 -37z" />
    <glyph glyph-name="dieresis_acutecomb" unicode="&#xf6d7;" horiz-adv-x="353" 
d="M153 581c-16 0 -32 10 -32 33c0 20 17 38 38 38c25 0 32 -17 32 -32c0 -24 -20 -39 -38 -39zM265 674h57l-107 -132h-32zM351 580c-16 0 -32 9 -32 33c0 20 17 38 38 38c25 0 32 -17 32 -32c0 -24 -20 -39 -38 -39z" />
    <glyph glyph-name="dieresis_gravecomb" unicode="&#xf6d8;" 
d="M130 581c-16 0 -32 10 -32 33c0 20 17 38 38 38c25 0 32 -17 32 -32c0 -24 -20 -39 -38 -39zM163 674h57l82 -132h-32zM327 580c-16 0 -32 9 -32 33c0 20 17 38 38 38c25 0 32 -17 32 -32c0 -24 -20 -39 -38 -39z" />
    <glyph glyph-name="space_uni030F" unicode="&#xf6d6;" 
d="M58 661h69l91 -127h-38zM188 661h69l91 -127h-38z" />
    <glyph glyph-name="dieresis_acutecomb.cap" unicode="&#xf6cc;" 
d="M189 731c-15 0 -31 10 -31 33c0 20 17 38 38 38c25 0 32 -17 32 -32c0 -24 -20 -39 -39 -39zM314 815h65l-126 -105h-41zM398 731c-15 0 -31 10 -31 33c0 20 17 38 38 38c25 0 32 -17 32 -32c0 -24 -20 -39 -39 -39z" />
    <glyph glyph-name="dieresis_gravecomb.cap" unicode="&#xf6cd;" horiz-adv-x="353" 
d="M173 731c-15 0 -31 10 -31 33c0 20 17 38 38 38c25 0 32 -17 32 -32c0 -24 -20 -39 -39 -39zM201 815h65l103 -105h-41zM382 731c-15 0 -31 10 -31 33c0 20 17 38 38 38c25 0 32 -17 32 -32c0 -24 -20 -39 -39 -39z" />
    <glyph glyph-name="space_uni030F.cap" unicode="&#xf6d3;" horiz-adv-x="363" 
d="M106 815h65l102 -105h-41zM229 815h65l102 -105h-41z" />
    <glyph glyph-name="o.superior" horiz-adv-x="314" 
d="M216 590c83 0 117 -63 117 -128c0 -98 -62 -202 -162 -202c-80 0 -116 64 -116 127c0 105 69 203 161 203zM209 556c-62 0 -112 -75 -113 -166c0 -61 31 -96 78 -96c64 0 117 73 117 168c0 45 -16 94 -82 94z" />
    <glyph glyph-name="uni0401" unicode="&#x401;" horiz-adv-x="405" 
d="M371 374l-7 -38h-227l-56 -298h256l-7 -38h-300l128 674h285l-7 -38h-241l-50 -262h226zM230 727c-20 0 -34 17 -34 37s17 40 39 40c23 0 35 -20 35 -37c0 -19 -16 -40 -40 -40zM392 727c-20 0 -34 17 -34 37s17 40 39 40c23 0 35 -20 35 -37c0 -19 -16 -40 -40 -40z" />
    <glyph glyph-name="uni0402" unicode="&#x402;" horiz-adv-x="549" 
d="M79 674h420l-8 -38h-209l-44 -232h2c29 20 77 39 122 39c94 0 147 -82 147 -188s-38 -228 -107 -300c-51 -53 -103 -75 -142 -84l-11 35c44 14 89 39 126 82c56 67 89 173 89 269c0 76 -36 147 -116 147c-42 0 -82 -16 -118 -41l-69 -363h-43l121 636h-168z" />
    <glyph glyph-name="uni0403" unicode="&#x403;" horiz-adv-x="339" 
d="M159 674h263l-7 -39h-220l-121 -635h-43zM357 820h73l-135 -110h-43z" />
    <glyph glyph-name="uni0404" unicode="&#x404;" horiz-adv-x="478" 
d="M522 656l-15 -37c-19 11 -57 25 -111 25c-158 0 -267 -133 -294 -278h308l-7 -38h-308c-3 -16 -5 -42 -5 -64c0 -123 59 -235 197 -235c47 0 93 14 126 31l11 -35c-34 -18 -80 -34 -154 -34c-155 0 -226 124 -226 275c0 109 40 226 108 304c60 67 144 113 251 113
c64 0 103 -18 119 -27z" />
    <glyph glyph-name="uni0405" unicode="&#x405;" horiz-adv-x="403" 
d="M12 31l18 37c30 -22 72 -38 120 -38c90 0 160 63 160 156c0 58 -27 103 -94 147c-81 50 -117 104 -117 169c0 105 86 181 194 181c50 0 94 -17 112 -32l-18 -35c-20 12 -54 28 -101 28c-87 0 -143 -65 -143 -133c0 -63 31 -101 99 -143c71 -44 112 -98 112 -179
c0 -100 -69 -198 -213 -198c-48 0 -107 19 -129 40z" />
    <glyph glyph-name="uni0406" unicode="&#x406;" horiz-adv-x="194" 
d="M158 674h44l-129 -674h-43z" />
    <glyph glyph-name="uni0407" unicode="&#x407;" horiz-adv-x="194" 
d="M158 674h44l-129 -674h-43zM114 727c-20 0 -34 17 -34 37s17 40 39 40c23 0 35 -20 35 -37c0 -19 -16 -40 -40 -40zM277 727c-20 0 -34 17 -34 37s17 40 39 40c23 0 35 -20 35 -37c0 -19 -16 -40 -40 -40z" />
    <glyph glyph-name="uni0408" unicode="&#x408;" horiz-adv-x="311" 
d="M191 191l92 483h43l-93 -490c-27 -145 -85 -194 -181 -194c-34 0 -67 8 -82 16l11 38c19 -9 43 -14 74 -14c72 0 113 39 136 161z" />
    <glyph glyph-name="uni0409" unicode="&#x409;" horiz-adv-x="762" 
d="M207 674h309l-51 -270c18 4 48 6 72 6c109 0 186 -59 186 -176c0 -68 -26 -127 -69 -167c-52 -49 -130 -72 -208 -72c-48 0 -80 4 -101 6l120 635h-222l-45 -244c-33 -172 -75 -283 -127 -338c-25 -31 -64 -58 -107 -61l-4 38c29 3 62 26 80 50c48 52 83 148 113 306z
M457 365l-62 -326c16 -4 35 -6 65 -6c115 0 218 74 218 196c0 101 -58 143 -150 143c-27 0 -53 -3 -71 -7z" />
    <glyph glyph-name="uni040A" unicode="&#x40a;" horiz-adv-x="766" 
d="M159 674h43l-56 -286h276l55 286h44l-53 -277c19 4 43 6 68 6c108 0 191 -59 191 -177c0 -65 -24 -120 -68 -162c-51 -48 -129 -69 -207 -69c-48 0 -82 4 -103 6l66 350h-276l-65 -351h-44zM460 359l-60 -321c16 -4 39 -5 67 -5c121 0 215 73 215 191
c0 93 -65 141 -156 141c-24 0 -47 -3 -66 -6z" />
    <glyph glyph-name="uni040B" unicode="&#x40b;" horiz-adv-x="570" 
d="M79 674h421l-7 -38h-213l-44 -233h2c26 21 82 46 143 47c87 0 131 -63 131 -135c0 -28 -6 -70 -12 -102l-41 -213h-43l40 211c8 38 13 76 13 98c0 54 -27 101 -107 101c-52 0 -106 -25 -135 -51l-67 -359h-43l120 636h-165z" />
    <glyph glyph-name="uni040C" unicode="&#x40c;" horiz-adv-x="442" 
d="M158 674h42l-59 -317h22l285 317h53l-295 -322c103 -12 137 -78 152 -178c6 -53 8 -117 24 -174h-46c-11 44 -16 113 -21 162c-16 108 -50 162 -163 162h-17l-62 -324h-43zM379 820h73l-135 -110h-43z" />
    <glyph glyph-name="uni040E" unicode="&#x40e;" horiz-adv-x="418" 
d="M93 674h46l81 -324c8 -36 17 -79 26 -116h1c23 49 45 101 63 140l139 300h46l-150 -325c-48 -103 -113 -238 -166 -299c-40 -44 -80 -60 -117 -60c-20 0 -37 4 -50 10l12 38c10 -4 24 -7 39 -7c68 0 115 78 146 141c4 8 7 18 2 35zM199 819h40c0 -30 18 -59 63 -59
s70 23 78 59h42c-9 -49 -52 -93 -122 -93c-73 0 -102 44 -101 93z" />
    <glyph glyph-name="uni040F" unicode="&#x40f;" horiz-adv-x="532" 
d="M158 674h44l-121 -636h295l122 636h42l-128 -674h-164l-37 -156h-37l24 156h-168z" />
    <glyph glyph-name="uni0410" unicode="&#x410;" horiz-adv-x="500" 
d="M369 236h-230l-116 -236h-44l337 674h42l81 -674h-43zM159 274h205l-26 214c-4 40 -8 87 -11 129h-3c-18 -43 -35 -83 -56 -127z" />
    <glyph glyph-name="uni0411" unicode="&#x411;" horiz-adv-x="447" 
d="M159 674h274l-6 -38h-232l-44 -231c18 3 50 6 71 6c111 0 186 -63 186 -178c0 -73 -27 -131 -71 -171c-51 -46 -126 -67 -205 -67c-48 0 -80 4 -101 6zM143 367l-62 -329c16 -3 38 -5 67 -5c112 0 215 73 215 192c0 99 -56 148 -152 148c-19 0 -50 -3 -68 -6z" />
    <glyph glyph-name="uni0412" unicode="&#x412;" horiz-adv-x="446" 
d="M31 5l125 661c34 7 71 12 115 12c60 0 106 -16 135 -48c23 -25 32 -58 32 -95c0 -84 -66 -154 -147 -176v-2c64 -20 108 -73 108 -152c0 -68 -33 -123 -73 -155c-48 -39 -112 -54 -184 -54c-43 0 -84 3 -111 9zM194 634l-49 -257h60c102 0 187 61 187 159
c0 71 -49 105 -131 105c-29 0 -54 -2 -67 -7zM138 341l-57 -301c20 -4 45 -6 68 -6c112 -1 205 56 205 175c0 84 -64 132 -149 132h-67z" />
    <glyph glyph-name="uni0413" unicode="&#x413;" horiz-adv-x="339" 
d="M159 674h263l-8 -39h-219l-121 -635h-43z" />
    <glyph glyph-name="uni0414" unicode="&#x414;" horiz-adv-x="518" 
d="M217 674h291l-121 -636h49l-43 -189h-38l27 151h-385l-34 -151h-37l31 189h41c47 65 82 130 111 198c34 86 57 175 76 273zM251 636l-27 -147c-16 -83 -40 -175 -73 -261c-28 -70 -64 -137 -104 -190h297l113 598h-206z" />
    <glyph glyph-name="uni0415" unicode="&#x415;" horiz-adv-x="405" 
d="M372 374l-8 -38h-226l-56 -298h256l-7 -38h-300l128 674h285l-8 -38h-241l-50 -262h227z" />
    <glyph glyph-name="uni0416" unicode="&#x416;" horiz-adv-x="662" 
d="M111 674h46l154 -316h20l60 316h41l-59 -316h24l267 316h52l-280 -321c94 -10 124 -80 139 -170c9 -61 10 -123 25 -183h-45c-11 49 -13 114 -22 173c-14 97 -43 151 -144 151h-22l-62 -324h-41l60 324h-20c-104 0 -151 -54 -203 -164c-25 -54 -49 -106 -77 -160h-48
c30 51 60 119 90 179c53 103 100 168 206 175z" />
    <glyph glyph-name="uni0417" unicode="&#x417;" horiz-adv-x="388" 
d="M113 339l6 39h21c86 0 187 55 187 159c0 64 -40 109 -102 109c-43 0 -83 -15 -116 -36l-13 31c36 25 83 43 136 43c80 0 140 -54 140 -143c0 -96 -70 -157 -146 -179v-3c69 -17 117 -74 117 -158c0 -124 -92 -211 -221 -211c-54 0 -104 17 -139 40l18 36
c22 -15 73 -37 124 -37c97 0 173 65 173 174c0 89 -76 138 -159 137z" />
    <glyph glyph-name="uni0418" unicode="&#x418;" horiz-adv-x="555" 
d="M158 674h43l-71 -375c-16 -83 -29 -153 -50 -233l2 -1c42 70 90 142 152 225l286 384h43l-127 -674h-42l73 390c17 85 30 149 48 220l-3 1c-45 -78 -102 -156 -158 -232l-279 -379h-44z" />
    <glyph glyph-name="uni0419" unicode="&#x419;" horiz-adv-x="555" 
d="M158 674h43l-72 -375c-16 -83 -29 -153 -49 -233l1 -1c42 70 91 142 152 225l287 384h43l-128 -674h-41l73 390c16 85 30 149 48 220l-3 1c-45 -78 -102 -156 -158 -232l-280 -379h-44zM274 819h40c0 -30 18 -59 63 -59s70 23 78 59h42c-9 -49 -52 -93 -122 -93
c-73 0 -102 44 -101 93z" />
    <glyph glyph-name="uni041A" unicode="&#x41a;" horiz-adv-x="442" 
d="M158 674h42l-59 -317h22l285 317h53l-295 -322c103 -12 137 -78 152 -178c6 -53 8 -117 24 -174h-46c-11 44 -16 113 -21 162c-16 108 -50 162 -163 162h-17l-62 -324h-43z" />
    <glyph glyph-name="uni041B" unicode="&#x41b;" horiz-adv-x="513" 
d="M208 674h313l-129 -674h-43l121 636h-227l-46 -245c-32 -173 -72 -281 -125 -337c-19 -27 -57 -58 -108 -62l-4 37c30 4 61 26 81 51c49 52 83 148 112 306z" />
    <glyph glyph-name="uni041C" unicode="&#x41c;" horiz-adv-x="697" 
d="M593 0h-42l56 429c7 59 20 144 29 193h-4c-25 -57 -56 -125 -90 -189l-227 -433h-30l-55 429c-10 75 -16 136 -20 193h-2c-12 -50 -29 -134 -44 -193l-107 -429h-43l173 674h51l60 -457c7 -53 13 -101 15 -142h3c18 41 41 87 68 140l240 459h54z" />
    <glyph glyph-name="uni041D" unicode="&#x41d;" horiz-adv-x="549" 
d="M159 674h44l-58 -299h311l57 299h44l-128 -674h-44l64 337h-311l-64 -337h-43z" />
    <glyph glyph-name="uni041E" unicode="&#x41e;" horiz-adv-x="577" 
d="M255 -10c-158 0 -210 136 -210 252c0 118 46 264 120 350c52 58 126 92 196 92c163 0 208 -137 208 -257c0 -108 -42 -258 -113 -341c-54 -62 -124 -96 -201 -96zM261 29c153 0 263 234 263 393c0 102 -24 223 -170 223c-159 0 -264 -236 -264 -394
c0 -104 37 -222 171 -222z" />
    <glyph glyph-name="uni041F" unicode="&#x41f;" horiz-adv-x="534" 
d="M158 674h384l-128 -674h-43l121 636h-298l-121 -636h-43z" />
    <glyph glyph-name="uni0420" unicode="&#x420;" horiz-adv-x="439" 
d="M30 0l127 666c32 7 74 12 116 12c59 0 114 -18 143 -52c23 -29 34 -63 34 -108c0 -67 -32 -130 -69 -166c-47 -46 -118 -68 -184 -68c-25 0 -47 2 -68 6l-55 -290h-44zM194 633l-58 -304c24 -6 43 -7 66 -7c125 0 203 89 203 193c0 84 -53 125 -142 125
c-29 0 -54 -3 -69 -7z" />
    <glyph glyph-name="uni0421" unicode="&#x421;" horiz-adv-x="479" 
d="M410 57l10 -37c-33 -15 -86 -29 -147 -29c-151 0 -229 108 -229 264c0 112 38 246 127 333c66 63 146 95 232 95c61 0 106 -16 120 -28l-18 -36c-24 15 -64 25 -112 25c-71 0 -141 -30 -194 -83c-68 -71 -110 -185 -110 -295c0 -128 45 -236 193 -236c45 0 96 10 128 27z
" />
    <glyph glyph-name="uni0422" unicode="&#x422;" horiz-adv-x="405" 
d="M134 0l120 636h-183l8 38h409l-8 -38h-183l-120 -636h-43z" />
    <glyph glyph-name="uni0423" unicode="&#x423;" horiz-adv-x="418" 
d="M93 674h46l81 -324c8 -36 17 -79 26 -116h1c22 49 45 101 63 140l138 300h46l-150 -325c-48 -103 -113 -238 -167 -299c-39 -44 -79 -60 -116 -60c-20 0 -37 4 -49 10l12 38c10 -4 24 -7 39 -7c68 0 115 78 146 141c4 8 7 18 2 35z" />
    <glyph glyph-name="uni0424" unicode="&#x424;" horiz-adv-x="597" 
d="M228 -20l11 55c-97 12 -186 88 -186 242c0 237 156 369 303 367l10 50h43l-10 -52c105 -12 185 -93 185 -251c0 -197 -118 -356 -303 -359l-10 -52h-43zM247 71l101 537c-119 -1 -250 -127 -250 -325c0 -122 62 -196 149 -212zM391 606l-102 -538c175 6 250 175 250 328
c0 129 -66 201 -148 210z" />
    <glyph glyph-name="uni0425" unicode="&#x425;" horiz-adv-x="457" 
d="M395 0h-46l-64 186c-16 41 -30 80 -41 119h-3c-22 -35 -48 -72 -79 -115l-135 -190h-51l251 343l-115 331h46l66 -191c14 -37 23 -67 33 -102h2c21 33 43 65 69 101l142 192h52l-248 -328z" />
    <glyph glyph-name="uni0426" unicode="&#x426;" horiz-adv-x="538" 
d="M158 674h44l-121 -636h296l121 636h43l-121 -636h49l-43 -189h-38l27 151h-385z" />
    <glyph glyph-name="uni0427" unicode="&#x427;" horiz-adv-x="478" 
d="M134 674h43l-37 -194c-5 -24 -13 -64 -13 -95c0 -68 41 -103 111 -103c58 0 114 26 140 45l65 347h43l-127 -678h-44l55 286h-2c-27 -16 -82 -38 -141 -38c-93 0 -145 52 -145 133c0 36 8 74 15 107z" />
    <glyph glyph-name="uni0428" unicode="&#x428;" horiz-adv-x="706" 
d="M158 674h44l-121 -636h211l121 636h44l-121 -636h213l121 636h44l-129 -674h-555z" />
    <glyph glyph-name="uni0429" unicode="&#x429;" horiz-adv-x="711" 
d="M159 674h44l-121 -636h211l121 636h44l-122 -636h214l120 636h44l-121 -636h49l-43 -189h-38l26 151h-556z" />
    <glyph glyph-name="uni042A" unicode="&#x42a;" horiz-adv-x="536" 
d="M78 674h217l-51 -270c18 3 43 6 71 6c110 0 186 -59 186 -176c0 -70 -25 -129 -68 -169c-51 -48 -125 -70 -208 -70c-48 0 -80 4 -101 6l120 635h-173zM236 364l-62 -326c16 -3 38 -5 67 -5c113 0 215 72 215 195c0 98 -56 144 -149 144c-26 0 -53 -4 -71 -8z" />
    <glyph glyph-name="uni042B" unicode="&#x42b;" horiz-adv-x="611" 
d="M158 674h44l-51 -270c18 3 45 6 69 6c112 0 188 -59 188 -176c-1 -70 -25 -127 -67 -167c-52 -50 -126 -72 -209 -72c-48 0 -80 4 -101 6zM143 365l-62 -326c16 -4 38 -6 67 -6c112 0 215 75 215 194c0 99 -56 145 -153 145c-22 0 -49 -3 -67 -7zM575 674h44l-128 -674
h-44z" />
    <glyph glyph-name="uni042C" unicode="&#x42c;" horiz-adv-x="447" 
d="M158 674h44l-51 -270c17 3 44 6 69 6c112 0 188 -59 188 -176c0 -72 -25 -128 -66 -168c-53 -49 -127 -71 -210 -71c-48 0 -80 4 -101 6zM143 365l-62 -326c16 -4 38 -6 67 -6c115 0 215 75 215 194c0 99 -56 145 -153 145c-25 0 -52 -4 -67 -7z" />
    <glyph glyph-name="uni042D" unicode="&#x42d;" horiz-adv-x="469" 
d="M121 326l8 39h282c3 16 3 32 3 56c0 115 -60 223 -188 223c-41 0 -90 -10 -123 -27l-10 34c27 15 81 32 140 32c146 0 227 -108 227 -273c0 -98 -30 -231 -117 -327c-57 -60 -128 -92 -217 -92c-59 0 -111 15 -144 36l17 36c31 -18 80 -33 125 -33c167 0 261 148 283 296
h-286z" />
    <glyph glyph-name="uni042E" unicode="&#x42e;" horiz-adv-x="734" 
d="M159 674h44l-58 -299h104c18 81 51 161 97 217c49 58 119 92 185 92c153 0 196 -137 196 -257c0 -108 -40 -258 -106 -342c-51 -61 -117 -95 -189 -95c-148 0 -198 136 -198 251c0 30 3 63 8 96h-104l-64 -337h-43zM437 29c144 0 246 233 246 392c0 103 -21 224 -159 224
c-149 0 -247 -237 -247 -394c0 -104 34 -222 160 -222z" />
    <glyph glyph-name="uni042F" unicode="&#x42f;" horiz-adv-x="446" 
d="M454 666l-127 -666h-43l60 310h-58c-118 0 -156 -77 -198 -170c-19 -43 -40 -101 -63 -140h-47c27 44 52 110 72 159c31 69 70 146 147 168v2c-59 20 -104 66 -104 143c0 79 42 134 87 166c48 29 106 41 160 41c38 0 84 -6 114 -13zM350 346l55 288c-15 4 -39 7 -68 7
c-108 1 -198 -56 -198 -165c0 -85 65 -130 150 -130h61z" />
    <glyph glyph-name="uni0430" unicode="&#x430;" horiz-adv-x="458" 
d="M359 0h-42c-1 29 5 74 12 129h-2c-55 -106 -116 -139 -179 -139c-73 0 -117 60 -117 146c0 163 117 354 303 354c34 0 72 -6 97 -14l-51 -259c-17 -89 -23 -166 -21 -217zM347 269l34 175c-11 4 -28 7 -58 7c-138 0 -246 -154 -247 -305c-1 -62 17 -118 82 -118
c78 0 166 117 189 241z" />
    <glyph glyph-name="uni0431" unicode="&#x431;" horiz-adv-x="442" 
d="M477 715l-6 -43c-18 -8 -36 -12 -57 -17c-96 -17 -176 -40 -236 -126c-25 -38 -50 -92 -63 -146h3c34 56 91 97 161 97c91 0 135 -76 135 -167c0 -126 -71 -323 -230 -323c-101 0 -143 86 -143 200c0 128 44 265 101 349c71 106 159 137 267 157c23 4 46 10 68 19z
M193 28c117 0 175 176 175 279c0 68 -24 135 -98 135c-56 0 -111 -45 -143 -98c-24 -41 -40 -102 -40 -171c0 -74 32 -145 106 -145z" />
    <glyph glyph-name="uni0432" unicode="&#x432;" horiz-adv-x="411" 
d="M273 490c54 0 103 -34 103 -102c0 -67 -63 -107 -113 -126v-2c47 -9 94 -41 94 -112c0 -104 -94 -157 -182 -157c-80 0 -134 39 -134 133c0 83 40 260 121 325c29 24 64 41 111 41zM260 452c-95 0 -136 -117 -155 -193c64 9 133 21 175 48c28 19 53 45 53 78
c0 44 -30 67 -73 67zM203 238c-44 0 -79 -8 -106 -16c-5 -23 -11 -61 -11 -95c0 -60 29 -98 95 -98s131 41 131 116c0 67 -48 93 -109 93z" />
    <glyph glyph-name="uni0433" unicode="&#x433;" horiz-adv-x="313" 
d="M111 427l-12 33c22 14 58 30 101 30c70 -2 106 -45 106 -105c0 -78 -65 -116 -133 -153c-59 -31 -115 -67 -115 -126c0 -41 23 -75 77 -76c40 -1 78 16 98 28l12 -33c-23 -17 -72 -35 -119 -34c-69 2 -113 43 -113 114c0 82 63 122 132 161c49 27 118 59 118 118
c0 36 -21 66 -70 67c-29 1 -59 -11 -82 -24z" />
    <glyph glyph-name="uni0434" unicode="&#x434;" horiz-adv-x="429" 
d="M132 674l-3 41c26 -6 54 -9 75 -11c73 -9 121 -26 158 -75c38 -46 54 -121 54 -190c0 -138 -58 -449 -245 -449c-99 0 -140 79 -140 176c0 125 72 314 219 314c68 0 108 -42 122 -101h2c1 15 2 34 2 56c0 54 -13 126 -48 170c-29 38 -64 52 -125 59c-19 2 -45 5 -71 10z
M178 28c105 0 173 186 173 276c0 70 -33 138 -104 138c-116 0 -170 -172 -170 -274c0 -67 25 -140 101 -140z" />
    <glyph glyph-name="uni0435" unicode="&#x435;" horiz-adv-x="389" 
d="M302 62l13 -35c-25 -16 -71 -36 -131 -36c-112 0 -151 88 -151 180c0 138 96 319 234 319c79 0 112 -52 112 -105c0 -122 -140 -156 -297 -155c-5 -22 -6 -85 4 -119c17 -55 54 -81 105 -81c53 0 89 19 111 32zM334 383c0 45 -30 68 -75 68c-74 0 -141 -80 -170 -183
c125 -1 245 20 245 115z" />
    <glyph glyph-name="uni0436" unicode="&#x436;" horiz-adv-x="534" 
d="M65 480h49l123 -221h17l43 221h39l-43 -221h18l204 221h51l-215 -224c59 -5 91 -50 102 -125c8 -39 13 -100 26 -131h-41c-13 34 -17 87 -23 122c-13 83 -45 106 -116 106h-14l-44 -228h-40l46 228h-10c-81 0 -127 -33 -166 -111c-26 -51 -40 -84 -58 -117h-46
c21 32 36 65 60 117c40 83 87 135 172 139z" />
    <glyph glyph-name="uni0437" unicode="&#x437;" horiz-adv-x="344" 
d="M85 236l6 37h17c61 0 154 36 154 106c0 48 -35 73 -79 73c-37 0 -71 -11 -106 -34l-14 30c33 25 78 42 122 42c66 0 122 -35 122 -107c0 -69 -60 -113 -124 -127v-1c53 -8 107 -50 107 -114c0 -107 -95 -150 -187 -150c-51 0 -96 14 -125 34l17 36c28 -19 69 -32 111 -32
c63 0 139 32 139 108c0 72 -74 99 -136 99h-24z" />
    <glyph glyph-name="uni0438" unicode="&#x438;" horiz-adv-x="463" 
d="M112 480h43l-55 -288c-5 -28 -8 -50 -8 -74c0 -53 22 -88 81 -88c65 0 148 78 168 185l50 265h44l-65 -339c-10 -57 -16 -104 -19 -141h-41l13 94h-2c-39 -64 -99 -104 -160 -104c-52 0 -112 28 -112 127c0 22 3 44 8 71z" />
    <glyph glyph-name="uni0439" unicode="&#x439;" horiz-adv-x="463" 
d="M112 480h43l-55 -288c-5 -28 -8 -50 -8 -74c0 -53 22 -88 81 -88c65 0 148 78 168 185l50 265h44l-65 -339c-10 -57 -16 -104 -19 -141h-41l13 94h-2c-39 -64 -99 -104 -160 -104c-52 0 -112 28 -112 127c0 22 3 44 8 71zM197 672h41c-4 -42 18 -76 59 -76
c46 0 70 37 80 76h42c-15 -67 -60 -111 -125 -111c-82 0 -103 58 -97 111z" />
    <glyph glyph-name="uni043A" unicode="&#x43a;" horiz-adv-x="385" 
d="M121 480h42l-42 -221h18l219 221h53l-229 -224c55 -8 89 -49 110 -131c16 -47 23 -97 38 -125h-43c-13 28 -21 79 -36 121c-26 84 -58 106 -122 106h-15l-43 -227h-42z" />
    <glyph glyph-name="uni043B" unicode="&#x43b;" horiz-adv-x="448" 
d="M157 480h266l-91 -480h-43l83 442h-179l-29 -151c-23 -119 -57 -235 -137 -277c-20 -12 -36 -16 -60 -16l-4 36c14 1 35 6 46 12c63 38 91 138 111 241z" />
    <glyph glyph-name="uni043C" unicode="&#x43c;" horiz-adv-x="601" 
d="M146 480h52l45 -270c8 -54 17 -112 22 -150h1c21 45 59 114 95 179l135 241h54l-60 -480h-42l32 246c9 63 17 127 27 182h-5c-15 -34 -53 -103 -83 -160l-150 -268h-35l-40 261c-7 49 -20 120 -23 168h-3c-12 -55 -27 -119 -44 -186l-62 -243h-43z" />
    <glyph glyph-name="uni043D" unicode="&#x43d;" horiz-adv-x="466" 
d="M121 480h43l-39 -205h234l39 205h43l-92 -480h-43l45 237h-234l-45 -237h-43z" />
    <glyph glyph-name="uni043E" unicode="&#x43e;" horiz-adv-x="450" 
d="M186 -10c-104 0 -153 87 -153 186c0 140 91 314 237 314c115 0 153 -98 153 -185c0 -123 -81 -315 -237 -315zM193 28c109 0 185 162 185 277c0 63 -24 147 -112 147c-112 0 -188 -149 -188 -272c0 -84 39 -152 115 -152z" />
    <glyph glyph-name="uni043F" unicode="&#x43f;" horiz-adv-x="470" 
d="M73 0h-44l64 339c11 57 18 104 22 141h40l-13 -98h2c42 70 102 108 167 108c47 0 107 -30 107 -121c0 -24 -4 -48 -9 -74l-55 -295h-43l56 295c4 22 7 45 7 70c0 50 -20 86 -79 86c-64 0 -154 -80 -175 -196z" />
    <glyph glyph-name="uni0440" unicode="&#x440;" horiz-adv-x="458" 
d="M29 -196h-43l96 511c12 64 21 121 27 165h41l-15 -97h2c43 65 103 107 167 107c91 0 125 -78 125 -156c0 -162 -111 -344 -264 -344c-47 0 -78 11 -96 21h-2zM107 220l-31 -165c22 -17 54 -27 93 -27c127 0 215 180 215 303c0 57 -22 120 -93 120
c-68 0 -157 -86 -184 -231z" />
    <glyph glyph-name="uni0441" unicode="&#x441;" horiz-adv-x="374" 
d="M302 55l10 -37c-20 -10 -63 -27 -121 -27c-116 0 -157 86 -157 176c0 148 101 323 266 323c38 0 73 -12 83 -20l-15 -37c-17 8 -42 17 -75 17c-134 0 -214 -154 -214 -277c0 -84 34 -143 121 -143c42 0 78 14 102 25z" />
    <glyph glyph-name="uni0442" unicode="&#x442;" horiz-adv-x="722" 
d="M73 0h-44l64 339c11 57 18 104 22 141h40l-14 -93h3c44 69 100 103 157 103c66 0 98 -45 101 -109c42 72 99 108 165 109c47 0 104 -33 104 -114c0 -24 -3 -52 -8 -81l-56 -295h-43l56 296c4 20 7 45 7 69c0 53 -20 86 -75 86c-64 0 -142 -75 -162 -183l-50 -268h-43
l57 301c5 24 7 43 7 66c0 42 -12 84 -76 84c-62 0 -145 -87 -164 -188z" />
    <glyph glyph-name="uni0443" unicode="&#x443;" horiz-adv-x="374" 
d="M50 480h44l49 -290c11 -54 18 -88 23 -132h2c16 36 33 73 55 122l130 300h46c-49 -112 -123 -283 -170 -383c-43 -93 -93 -179 -160 -242c-45 -45 -90 -65 -112 -71l-14 38c20 8 54 23 87 51c32 26 72 74 98 126c5 9 4 15 3 24z" />
    <glyph glyph-name="uni0444" unicode="&#x444;" horiz-adv-x="596" 
d="M192 -196l54 254h-1c-26 -34 -57 -68 -117 -68c-67 0 -100 63 -100 145c0 115 66 355 210 355c41 0 67 -31 75 -67h1l53 282h42l-59 -288h2c22 32 61 73 115 73c78 0 102 -78 102 -154c0 -115 -60 -346 -200 -346c-46 0 -75 34 -85 67h-1l-48 -253h-43zM234 453
c-113 0 -163 -225 -163 -315c0 -63 21 -111 68 -111c70 0 111 79 124 142l28 137c3 18 6 40 6 66c0 42 -30 81 -63 81zM463 453c-38 0 -75 -27 -103 -72c-17 -29 -24 -57 -31 -93c-8 -40 -15 -80 -24 -120c-3 -16 -4 -32 -4 -47c0 -37 24 -94 71 -94c107 0 154 216 154 306
c0 68 -15 120 -63 120z" />
    <glyph glyph-name="uni0445" unicode="&#x445;" horiz-adv-x="373" 
d="M68 480h46l50 -121c12 -27 20 -53 31 -78h2c20 30 31 47 54 74l99 125h51l-190 -235l101 -245h-47l-51 126c-14 33 -21 51 -33 86h-2c-16 -26 -32 -49 -52 -75l-108 -137h-51l199 246z" />
    <glyph glyph-name="uni0446" unicode="&#x446;" horiz-adv-x="470" 
d="M112 480h43l-55 -288c-5 -28 -8 -50 -8 -74c0 -53 22 -88 80 -88c65 0 149 78 169 185l50 265h43l-61 -327c-5 -27 -9 -51 -9 -68c0 -33 15 -57 58 -58l-49 -157h-35l34 130c-17 2 -34 15 -42 30c-10 18 -11 43 -8 64h-2c-38 -64 -98 -104 -159 -104
c-52 0 -112 28 -112 127c0 22 3 44 8 71z" />
    </font>
</defs>
</svg>
